<svg viewBox="0 0 368.36 448.26" xmlns="http://www.w3.org/2000/svg"><path d="m3.55 182.42s-8 24.73 0 45.47 18.35 5.58 18.35 5.58l43.1-5.58s-7.18-9.57-2.39-20.74z" fill="#fff9e6"/><path d="m58.63 235.29s-7.94-15.13-3.92-26.8" fill="none" stroke="#f1e8d2" stroke-miterlimit="10" stroke-width="4"/><path d="m49.51 237.44s-8.27-19.3-4.24-31" fill="none" stroke="#f1e8d2" stroke-miterlimit="10" stroke-width="4"/><path d="m39.59 233.52s-8.27-19.3-4.24-31" fill="none" stroke="#f1e8d2" stroke-miterlimit="10" stroke-width="4"/><path d="m30.13 237.13s-5.39-13.14-3-22.19" fill="none" stroke="#f1e8d2" stroke-miterlimit="10" stroke-width="4"/><path d="m90.49 223.9-68.6 9.57s-3 5.1-8.3 5.34l55.41 1.84s9.53-1.59 21.49-16.75z" fill="#e7dfc4"/><path d="m67.14 34.89s5.83-5.67 5-7.23-26.42-9.43-57.84 6.73l28.1 64.77s22-8.11 31.43-.68z" fill="#fff9e6"/><path d="m45.86 84.8s15.93-6.19 27.07-.87" fill="none" stroke="#f1e8d2" stroke-miterlimit="10" stroke-width="4"/><path d="m41.64 74.51s20.11-6 31.25-.73" fill="none" stroke="#f1e8d2" stroke-miterlimit="10" stroke-width="4"/><path d="m38.93 64.86s20.11-6 31.25-.73" fill="none" stroke="#f1e8d2" stroke-miterlimit="10" stroke-width="4"/><path d="m34.62 54.12s16.24-4.15 26.79.1" fill="none" stroke="#f1e8d2" stroke-miterlimit="10" stroke-width="4"/><path d="m74.37 104.68-.58-6.2-6.65-63.59s4.93-4.36 5-7.23l16.19 59.51s.41 2.22-2.5 5.05-11.46 12.46-11.46 12.46z" fill="#e7dfc4"/><path d="m56.53 308.15s-8.77 8-5.58 17.55 24.73 6.38 24.73 6.38z" fill="#fff9e6"/><path d="m119.55 316.92 11.17 75s-28.72 7.18-38.29 7.18-15.16-3.19-21.54-14.36l-19.94-59s6.38 10.37 24.73 6.38 43.87-15.2 43.87-15.2z" fill="#e7dfc4"/><path d="m299 310.54s1.6 8 0 8.77-27.12-7.18-43.87-38.29l59.83-37.49s13.56 19.14 25.53 18.35z" fill="#fff9e6"/><path d="m309.67 257.35s9.63 14.12 21.82 16" fill="none" stroke="#f1e8d2" stroke-miterlimit="10" stroke-width="4"/><path d="m300.37 263.44s13.16 16.36 25.35 18.29" fill="none" stroke="#f1e8d2" stroke-miterlimit="10" stroke-width="4"/><path d="m292.67 269.86s13.16 16.36 25.35 18.29" fill="none" stroke="#f1e8d2" stroke-miterlimit="10" stroke-width="4"/><path d="m283 276.28s11 12.61 22.14 15.08" fill="none" stroke="#f1e8d2" stroke-miterlimit="10" stroke-width="4"/><path d="m344.43 257.1-4 4.79-41.43 48.65s1.6 6.38 0 8.77l47-39.88s1.6-1.6.8-5.58-2.37-16.75-2.37-16.75z" fill="#e7dfc4"/><path d="m252.48 0s3.19 14.36 10.37 17.55 16.75-7.98 21.54-17.55l12.76 18.35s-3.15 25.52-27.15 31.91c0 0-22.34 4-37.49-29.51z" fill="#fff9e6"/><path d="m364.81 98.35s8 24.73 0 45.47-18.35 5.58-18.35 5.58l-43.08-5.58s7.18-9.57 2.39-20.74z" fill="#fff9e6"/><path d="m309.73 151.23s7.94-15.13 3.92-26.8" fill="none" stroke="#f1e8d2" stroke-miterlimit="10" stroke-width="4"/><path d="m318.84 153.37s8.27-19.3 4.24-31" fill="none" stroke="#f1e8d2" stroke-miterlimit="10" stroke-width="4"/><path d="m328.77 149.46s8.27-19.3 4.24-31" fill="none" stroke="#f1e8d2" stroke-miterlimit="10" stroke-width="4"/><path d="m338.23 153.07s5.39-13.14 3-22.19" fill="none" stroke="#f1e8d2" stroke-miterlimit="10" stroke-width="4"/><path d="m277.86 139.83 68.6 9.57s3 5.1 8.3 5.34l-55.36 1.84s-9.57-1.58-21.54-16.75z" fill="#e7dfc4"/><path d="m146.36 268.58s-32.73 129.62-48.13 145.67c0 0 85.8 21.59 162.58.21 0 0-43.86-88.76-47.07-145.24z" fill="#fff19f"/><path d="m151.85 260.23s-27.3 139.77-40.15 157.08c0 0 71.58 23.28 135.63.22 0 0-36.59-95.71-39.27-156.61z" fill="#f3e39d"/><path d="m116.19 317.35s-1-15.9 5.78-28.24c7.06-12.83 13.21-22.78 25-27.39 2.21-.86 4.42-1.65 6.63-2.35l51.19 2.22s1.37 1 3.66 3c10.47 9 40.34 37.65 48.24 77.14l-12.19 8.34s-12.19-28.24-31.44-44.28c0 0 15.4 64.81 20.53 130.91 0 0 8.34 4.49 8.34 9.63h-31.43s-12.2-51.33-21.18-62.24h-18.61s-19.25 39.79-22.46 62.25h-30.16s.64-6.42 8.34-8.34c0 0 10.91-100.11 23.74-146.31 0 0 1.35-5.74-10.88 5.13-5.78 5.13-9 12.19-5.78 19.25z" fill="#fddec9"/><path d="m183.51 273.07c-17.24-1.38-33.17-2.76-44.93-7.72 2.76-1.31 5.55-2.53 8.35-3.62 2.21-.86 4.42-1.65 6.63-2.35l51.19 2.22s1.37 1 3.66 3c1.44 1.24 3.25 2.86 5.31 4.81a74.42 74.42 0 0 1 -30.21 3.66z" fill="#f1d2c2"/><path d="m105.7 201.7s-13.89-1.15-12.61 14.9 25 17.33 25 17.33l-3.21-25.67z" fill="#f1d2c2"/><path d="m212.45 268.58-.64 4.49 4.49 35.29-5.77-5.13-.65-37.86z" fill="#f1d2c2"/><path d="m212.15 261.36-2.26 11.71-17.33-4.49v-9.21s11.58-2.66 19.59 1.99z" fill="#ffcf4a"/><path d="m251.74 201.7s13.89-1.15 12.61 14.9-25 17.33-25 17.33l3.21-25.67z" fill="#f1d2c2"/><path d="m102.08 194.14s13.48 27 16 40.43 26.31 30.8 58.4 28.24 59.68-5.13 64.17-30.8 14.12-41.07 14.12-41.07 9.63-43.64-5.78-75.72-53.26-34.65-72.51-35.29-55.83 12.19-68 35.29-12.18 49.4-6.4 78.92z" fill="#fddec9"/><path d="m254.81 187.08s9.63-43.64-5.78-75.72-53.26-34.66-72.51-35.3-55.83 12.19-68 35.29-12.19 49.41-6.42 78.93c0 0 2.73 5.46 6 12.69a37.5 37.5 0 0 0 30.42-19.56 37.48 37.48 0 0 0 56.13.13 37.62 37.62 0 0 0 25.47 1.18 37.52 37.52 0 0 0 27.26 18.65 96.66 96.66 0 0 1 7.43-16.29z" fill="#f1d2c2"/><path d="m233.6 436.71-24.84 2.63 1.74 7h31.44s0-5.14-8.34-9.63z" fill="#ffcf4a"/><path d="m241.82 445.05-31.43.48.11.8h31.44z" fill="#fcb514"/><path d="m125.34 436.71 24.84 2.63-1.74 7h-31.44s0-5.14 8.34-9.63z" fill="#ffcf4a"/><path d="m117.12 445.05 31.42.48-.1.8h-31.45z" fill="#fcb514"/><path d="m232.42 423.25-24.52 12.77-.88-3.33 25.03-13.07z" fill="#fff"/><path d="m233.06 430.19-29.11-8.59 1.04 3.66 28.36 8.35z" fill="#fff"/><path d="m127.32 425.42 23.22 12.1.83-3.16-23.71-12.38z" fill="#fff"/><path d="m126.71 431.99 27.58-8.14-.99 3.47-26.87 7.91z" fill="#fff"/><path d="m131.18 395.37s17.28 6.58 30.35 8.23l2.7-7.62-31.93-8.93z" fill="#f1d2c2"/><path d="m117.77 309.07 2.89-1.81-1.3-1.69 1.28-2.76 2.4 3 1.85-1.16 5.27 1.64.41 3.72 1.84.8a46.29 46.29 0 0 0 -3.19 7.9l-14.07-3.59s.93-2.29 2.62-6.05z" fill="#f1d2c2"/><rect fill="#fff" height="13.48" rx="5.78" transform="matrix(.84600711 -.53317162 .53317162 .84600711 -142.71 106.59)" width="11.55" x="107.37" y="293.57"/><path d="m118.91 304.01h3.85v31.44h-3.85z" fill="#5c4b43" transform="matrix(.84600711 -.53317162 .53317162 .84600711 -151.88 113.68)"/><path d="m122.17 301.96h3.85v31.44h-3.85z" fill="#aa9c94" transform="matrix(.84600711 -.53317162 .53317162 .84600711 -150.28 115.1)"/><path d="m125.42 299.91h3.85v31.44h-3.85z" fill="#5c4b43" transform="matrix(.84600711 -.53317162 .53317162 .84600711 -148.69 116.52)"/><path d="m109.67 303.47h3.85v3.21h-3.85z" fill="#e5e4de" transform="matrix(.85 -.53 .53 .85 -145.49 106.5)"/><path d="m112.93 301.42h3.85v3.21h-3.85z" fill="#d2d1cd" transform="matrix(.84600711 -.53317162 .53317162 .84600711 -143.89 107.92)"/><path d="m138.15 339.98-.45-11.53-9.76 6.15z" fill="#fffdf0"/><path d="m116.19 299.37h3.85v3.21h-3.85z" fill="#e5e4de" transform="matrix(.84600711 -.53317162 .53317162 .84600711 -142.29 109.34)"/><circle cx="129.22" cy="333.04" fill="#5c4b43" r="1.93" transform="matrix(.84600711 -.53317162 .53317162 .84600711 -157.68 120.2)"/><circle cx="132.48" cy="330.98" fill="#aa9c94" r="1.93" transform="matrix(.84600711 -.53317162 .53317162 .84600711 -156.08 121.62)"/><circle cx="135.73" cy="328.93" fill="#5c4b43" r="1.93" transform="matrix(.84600711 -.53317162 .53317162 .84600711 -154.49 123.04)"/><path d="m138.15 339.98-.13-3.39-2.87 1.81z" fill="#191919"/><path d="m201.13 410.86s19.7 3.79 29.31 3.59l-1-7.9-31.23-2.93z" fill="#f1d2c2"/><path d="m114.11 315.29 10.29-6.45 5.27 1.64.41 3.72 3.61 1.56.27 3.55 2.45 2.17-1.4 2.91-10.32 6.05-4.8-2.07.88-3.08-4.2-1.3 1.61-3.18-4.37-1.52z" fill="#fddec9"/><circle cx="148.28" cy="205.05" fill="#3b2512" r="11.55"/><circle cx="206.68" cy="205.05" fill="#3b2512" r="11.55"/><path d="m147 305.8.64-2.57s32.09-17.33 43-34.65l.52-7.07 8.34-1-39.67 45.29z" fill="#f1d2c2"/><path d="m138.65 341.73s62.89 7.06 82.78 5.78l2.13 14.18s-72.72-9.85-84.91-15.22z" fill="#ffcf4a"/><path d="m138.65 341.91s59.8 9.4 83.16 7.5l-.72-3.83-82.45-5.78z" fill="#fcb514"/><path d="m192.56 268.58s-16.04 22.42-45.56 37.22c0 0-7.06 32.73-9.63 35.29 0 0 0 .64 1.28.64s76 7.7 82.61 5.46c0 0 2.1.32.18-2.25s-12.19-68-11.55-71.87-17.33-4.49-17.33-4.49z" fill="#fff"/><path d="m138.65 346.22s-9 27.59-14.12 41.07c0 0 62.89 21.82 109.73 21.18 0 0-9-30.16-10.91-46.85z" fill="#fff"/><path d="m142.33 393.24 6.59-16.86v18.7z" fill="#d7d7d7"/><path d="m164.46 399.05 5.64-19.46v20.74z" fill="#d7d7d7"/><path d="m189.99 382.8 4.65 22.09-6.96-1.06z" fill="#d7d7d7"/><circle cx="177.73" cy="238.42" fill="#c0272d" r="7.16"/><circle cx="187.45" cy="236.37" fill="#c0272d" r="5.11"/><circle cx="167.51" cy="236.37" fill="#c0272d" r="5.11"/><path d="m167.51 231.26h20.45v5.11h-20.45z" fill="#c0272d"/><path d="m165.78 241.18s6.33 4.4 12 4.4 11.45-4.4 11.45-4.4l-4.81-3.78-18.91-.51z" fill="#c0272d"/><path d="m165.61 241v.13l.15.07s6.33 4.4 12 4.4 11.45-4.4 11.45-4.4a5.09 5.09 0 0 0 1-.51c-.35-.17-7.4-3.53-12.86-3.46s-11.74 3.77-11.74 3.77z" fill="#ec1e27"/><path d="m216.09 407.68-2.01-22.95 7.57 23.36z" fill="#d7d7d7"/><g fill="#fff19f"><circle cx="113.46" cy="119.97" r="32.29"/><circle cx="185.33" cy="81.43" r="28.47"/><circle cx="224.57" cy="96.36" r="31.6"/><circle cx="220.05" cy="135.6" r="28.47"/><circle cx="166.58" cy="151.57" r="37.5"/><circle cx="143.67" cy="91.15" r="29.17"/><circle cx="172.83" cy="114.07" r="29.17"/><circle cx="105.47" cy="158.51" r="37.5"/><circle cx="252.69" cy="159.21" r="37.5"/><circle cx="208.94" cy="141.85" r="37.5"/><circle cx="240.93" cy="126.59" r="37.5" transform="matrix(.13 -.99 .99 .13 85.16 349.76)"/></g><path d="m263.92 140.38a21.42 21.42 0 0 0 -25-17.13c-.6.11-1.19.25-1.77.41a25.88 25.88 0 1 0 -12 32.67 21.42 21.42 0 0 0 38.79-16z" fill="#efe093"/><path d="m239.4 360.34 27.6-14.12s5.13 78.29 22.46 81.5l-25.67 16.68s-21.79-5.77-24.39-84.06z" fill="#fff7d2"/><path d="m265.94 443.42 26.34-15.88s6.35-4 10.75 1.15l1.93 2-26.36 17.57-1.33-3.26s-3.75-9.55-11.33-1.58z" fill="#fff7d2"/><path d="m258.66 440.56s5.13 7.06 10.27 2.57l24.62-16.05s-6 1.93-9.21-3.2z" fill="#f3ebcc"/><path d="m264.15 128.64-6.31-17.75-6.31-17.75-3.23 1.16 3.44 9.68-36 12.79a1.71 1.71 0 1 0 1.15 3.23l36-12.79 1.15 3.23-37.32 13.27a1.71 1.71 0 1 0 1.15 3.23l37.32-13.27 1.15 3.23-36 12.79a1.71 1.71 0 1 0 1.15 3.23l36-12.79 3.44 9.68z" fill="#ffcf4a"/><path d="m256.28 135.07 6.69-2.38a6.83 6.83 0 1 0 2.11-11.69l-13.59 4.83a5.14 5.14 0 0 0 -2.39 1.76 15.83 15.83 0 0 1 -7.28 5.31 15.37 15.37 0 0 1 -7.25.76l-.42-.07-.83-.17a13.71 13.71 0 0 1 -2-.62 15.34 15.34 0 0 1 -7.89-22.2 15.66 15.66 0 0 1 2-2.75 15.37 15.37 0 0 1 6.11-4 15.77 15.77 0 0 1 9-.47 5.14 5.14 0 0 0 3-.15l13.59-4.83a6.85 6.85 0 1 0 -9-7.71l-6.69 2.38a26.13 26.13 0 0 0 -13.44 1.16 25 25 0 0 0 -10.88 7.54 17 17 0 0 0 -2 2.73 25.58 25.58 0 0 0 13.63 38.33 17 17 0 0 0 3.31.82 25 25 0 0 0 13.19-1 26.23 26.23 0 0 0 9.9-6.32q.59-.62 1.13-1.26z" fill="#886748"/><path d="m232.06 143.65a17 17 0 0 1 -3.31-.82l2.52-10a15.65 15.65 0 0 0 3.29.87z" fill="#664b35"/><path d="m223.38 110.64-8.26-6.15a17 17 0 0 1 2-2.73l8.21 6.13a15.64 15.64 0 0 0 -1.95 2.75z" fill="#664b35"/><path d="m260.94 145.74a21.42 21.42 0 0 0 -25-17.13c-.6.11-1.19.25-1.77.41a25.88 25.88 0 1 0 -12 32.67 21.42 21.42 0 0 0 38.79-16z" fill="#fff19f"/><path d="m125.34 121.19a21.43 21.43 0 0 1 29.19-23.31 21.42 21.42 0 1 0 -21.39 36.61 21.34 21.34 0 0 1 -7.8-13.3z" fill="#efe093"/><path d="m246.9 337.93-4.93 7.01 2.57 5.13 12.19-8.34-.64-3.85z" fill="#f1d2c2"/><path d="m247.54 341.14-7.11 9.65 4.77 7.31 3.91-1.25 2.83 5.19 11.68-7.22-5.34-14.04z" fill="#fddec9"/><path d="m247.46 349h7.97v7.97h-7.97z" fill="#f1d2c2" transform="matrix(.8660254 -.5 .5 .8660254 -142.8 173.01)"/><path d="m248.98 350.52h4.93v4.93h-4.93z" fill="#fddec9" transform="matrix(.8660254 -.5 .5 .8660254 -142.8 173.01)"/><path d="m244.54 367.4 19.25-8.98" fill="none" stroke="#e1d8bc" stroke-miterlimit="10" stroke-width="4"/><path d="m245.18 374.46 19.25-8.98" fill="none" stroke="#e1d8bc" stroke-miterlimit="10" stroke-width="4"/><path d="m245.82 381.52 19.25-8.99" fill="none" stroke="#e1d8bc" stroke-miterlimit="10" stroke-width="4"/><path d="m246.46 388.58 19.25-8.99" fill="none" stroke="#e1d8bc" stroke-miterlimit="10" stroke-width="4"/><path d="m247.75 395.64 9.62-4.5" fill="none" stroke="#e1d8bc" stroke-miterlimit="10" stroke-width="4"/></svg>