<svg viewBox="0 0 329.76 447.9" xmlns="http://www.w3.org/2000/svg"><path d="m26.64 209.54h1.26a30 30 0 0 1 30 30v17.54a0 0 0 0 1 0 0h-61.26a0 0 0 0 1 0 0v-17.54a30 30 0 0 1 30-30z" fill="#f6a3a7" transform="matrix(.85145246 -.5244318 .5244318 .85145246 -118.3 48.96)"/><path d="m21.58 250.02h61.26v47.54h-61.26z" fill="#f7b5b9" transform="matrix(.85145246 -.5244318 .5244318 .85145246 -135.83 68.05)"/><path d="m46.51 290.5h61.26v47.54h-61.26z" fill="#fad5d7" transform="matrix(.85145246 -.5244318 .5244318 .85145246 -153.35 87.14)"/><path d="m71.44 330.98h61.26v47.54h-61.26z" fill="#fce6e7" transform="matrix(.85145246 -.5244318 .5244318 .85145246 -170.88 106.22)"/><path d="m77.3 163.85h1.26a30 30 0 0 1 30 30v17.54a0 0 0 0 1 0 0h-61.26a0 0 0 0 1 0 0v-17.54a30 30 0 0 1 30-30z" fill="#bec5e4" transform="matrix(.95486454 -.29704158 .29704158 .95486454 -52.22 31.62)"/><path d="m61.42 209.24h61.26v47.54h-61.26z" fill="#ced3ea" transform="matrix(.95486454 -.29704158 .29704158 .95486454 -65.07 37.87)"/><path d="m75.55 254.64h61.26v47.54h-61.26z" fill="#e4e6f3" transform="matrix(.95486454 -.29704158 .29704158 .95486454 -77.91 44.11)"/><path d="m89.67 300.04h61.26v47.54h-61.26z" fill="#eef0f8" transform="matrix(.95486454 -.29704158 .29704158 .95486454 -90.76 50.36)"/><path d="m271.86 209.54h61.26a0 0 0 0 1 0 0v17.54a30 30 0 0 1 -30 30h-1.26a30 30 0 0 1 -30-30v-17.54a0 0 0 0 1 0 0z" fill="#d4e7b7" transform="matrix(-.85145246 -.5244318 .5244318 -.85145246 437.69 590.59)"/><path d="m246.92 250.02h61.26v47.54h-61.26z" fill="#dfecc8" transform="matrix(-.85145246 -.5244318 .5244318 -.85145246 370.3 652.46)"/><path d="m221.99 290.5h61.26v47.54h-61.26z" fill="#e8f1d6" transform="matrix(-.85145246 -.5244318 .5244318 -.85145246 302.91 714.34)"/><path d="m197.06 330.98h61.26v47.54h-61.26z" fill="#f0f6e5" transform="matrix(-.85145246 -.5244318 .5244318 -.85145246 235.52 776.21)"/><path d="m221.2 163.85h61.26a0 0 0 0 1 0 0v17.54a30 30 0 0 1 -30 30h-1.26a30 30 0 0 1 -30-30v-17.54a0 0 0 0 1 0 0z" fill="#f9b9a3" transform="matrix(-.95486454 -.29704158 .29704158 -.95486454 436.55 441.58)"/><path d="m207.08 209.24h61.26v47.54h-61.26z" fill="#fac8b5" transform="matrix(-.95486454 -.29704158 .29704158 -.95486454 395.46 526.13)"/><path d="m192.95 254.64h61.26v47.54h-61.26z" fill="#fce0d5" transform="matrix(-.95486454 -.29704158 .29704158 -.95486454 354.37 610.67)"/><path d="m178.83 300.04h61.26v47.54h-61.26z" fill="#fdece5" transform="matrix(-.95 -.3 .3 -.95 313.27 695.22)"/><path d="m236.12 399.15c-4.49-22.46 16-49.41-1.93-59s9.63-45.56 0-61.6-6.81-39.93-6.81-39.93l-60.6-10v-.11l-.32.05-.32-.05v.11l-60.6 10s2.79 23.88-6.81 39.93 18 52 0 61.6 2.57 36.58-1.93 59-14.12 27.59-14.12 27.59h167.56s-9.63-5.13-14.12-27.59z" fill="#8fc63e"/><path d="m220.43 397.86c-3.56-22.46 12.72-49.41-1.53-59s7.63-45.56 0-61.6-5.4-39.93-5.4-39.93l-48.06-10v-.11l-.25.05-.25-.05v.11l-48.06 10s2.22 23.88-5.4 39.93 14.27 52 0 61.6 2 36.58-1.53 59-11.2 27.59-11.2 27.59h132.88s-7.63-5.13-11.2-27.59z" fill="#80ad40"/><path d="m89.81 447.28h154.01l-80.22-89.2z" fill="#d7d7d7"/><path d="m269.49 303.53s-38.49-28.53-69.95-40.86c-2.21-.86-4.42-1.65-6.63-2.35l-51.19 2.22s-1.37 1-3.66 3c-10.47 9-40.34 37.65-48.24 77.14l12.18 8.32s18-43 37.22-59c0 0 1.84 31.32-2.57 55.19-4.54 24.58-15.4 57.75-23.74 90.48 0 0-8.34 4.49-8.34 9.63h31.43s16-63.53 25-74.44h12.83s21.18 52 24.39 74.44h30.16s-.64-6.42-8.34-8.34c0 0-16.3-47-23.74-91.77-3.34-20-.64-39.14-1.28-55.83 0 0 44.92 4.49 64.17 22.46z" fill="#fddec9"/><path d="m269.49 303.53s-38.49-28.53-69.95-40.86c-2.21-.86-4.42-1.65-6.63-2.35l-51.19 2.22s-1.37 1-3.66 3c-10.47 9-40.34 37.65-48.24 77.14l12.18 8.32s18-43 37.22-59c0 0 1.84 31.32-2.57 55.19-4.54 24.58-15.4 57.75-23.74 90.48 0 0-8.34 4.49-8.34 9.63h31.43s16-63.53 25-74.44h12.83s21.18 52 24.39 74.44h30.16s-.64-6.42-8.34-8.34c0 0-16.3-47-23.74-91.77-3.34-20-.64-39.14-1.28-55.83 0 0 44.92 4.49 64.17 22.46z" fill="#fddec9"/><path d="m163 274c17.24-1.38 33.17-2.76 44.93-7.72-2.76-1.31-5.55-2.53-8.35-3.62-2.21-.86-4.42-1.65-6.63-2.35l-51.19 2.22s-1.37 1-3.66 3c-1.44 1.24-3.25 2.86-5.31 4.81a74.42 74.42 0 0 0 30.21 3.66z" fill="#f1d2c2"/><path d="m202.11 248.34s-12.19 23.74 3.21 47.49a44.1 44.1 0 0 1 1.93 45.56s23.61-31.52 7-53.94 12.54-53.37 12.54-53.37z" fill="#b1d254"/><path d="m207.24 219.47s-12.24 23.74 3.21 47.53a44.1 44.1 0 0 1 1.93 45.56s23.61-31.52 7-53.94 12.54-53.37 12.54-53.37z" fill="#b1d254"/><path d="m140.05 228.45s12.19 23.74-3.21 47.49a44.1 44.1 0 0 0 -1.93 45.56s-23.61-31.52-7-53.94-12.54-53.37-12.54-53.37z" fill="#b1d254"/><path d="m105.85 196.37s-12.19 23.74 3.21 47.49a44.1 44.1 0 0 1 1.94 45.55s23.61-31.52 7-53.94 12.54-53.37 12.54-53.37z" fill="#b1d254"/><path d="m88.52 195.08s9.38 28.44 16 40.43c6.42 11.55 26.31 30.8 58.4 28.24s56.47-5.13 64.17-30.8c7.49-25 14.12-41.07 14.12-41.07s1.79-20.38-13.61-52.47-45.39-57.91-64.6-58.55-55.83 12.19-68 35.29-12.25 49.41-6.48 78.93z" fill="#fddec9"/><path d="m112.91 437.65 24.84 2.63-1.74 7h-31.44s0-5.14 8.34-9.63z" fill="#e5e5e4"/><path d="m221.17 437.65-24.84 2.63 1.74 7h31.44s0-5.14-8.34-9.63z" fill="#e5e5e4"/><path d="m115.48 424.97 23.79 12.4.86-3.23-24.3-12.7z" fill="#fff"/><path d="m114.09 431.13 29.11-8.59-1.04 3.66-28.61 8.24z" fill="#fff"/><path d="m216.22 426.74-20.53 10.91-.64-2.57 20.53-10.91z" fill="#fff"/><path d="m218.76 432.61-26.92-7.48.98 3.28 26.61 7.57z" fill="#fff"/><path d="m264.17 299.71-3.41-.08.26-2.12-2.51-1.73-.55 3.78-2.18-.05-3.7 4.1 1.55 3.41-1.17 1.62a46.29 46.29 0 0 1 6.77 5.17l10.27-10.27s-1.96-1.45-5.33-3.83z" fill="#f1d2c2"/><path d="m255.41 265.03h7.61v182.89h-7.61z" fill="#5c4b43" transform="matrix(.99607203 .08854661 -.08854661 .99607203 32.58 -21.55)"/><path d="m283.46 247.59v-.05a14.4 14.4 0 0 0 -.54-2.17l-3.12-12.64h-.17l-6.3-15.08-9.91 13h-.32l-6.22 11.35a14.4 14.4 0 0 0 -1.07 2 14.54 14.54 0 1 0 27.67 3.55z" fill="#fff"/><path d="m261.65 266.3 11.53 1.48-.73-3.76-9.49-.97z" fill="#e5e4de"/><path d="m273.2 218s-10.2 12.4-13.2 18.27l6.22-6.06-1 13.76 5.45-12.42 1.26 20.22 2.34-18.22 3.38 9.69-.25-10.06 3.16 2.72s-5.38-15.34-7.36-17.9z" fill="#ddd9cf"/><path d="m270.49 303.19-12.15-.29-3.7 4.09 1.55 3.41-2.3 3.19 1.57 3.19-1 3.11 2.69 1.79 11.97-.05 3.06-4.23-2.33-2.21 2.96-3.26-3.01-1.91 2.99-3.53z" fill="#fddec9"/><circle cx="134.73" cy="205.99" fill="#3b2512" r="11.55"/><circle cx="193.12" cy="205.99" fill="#3b2512" r="11.55"/><path d="m241 138.91c-6.82-20.83-24.15-50.35-77.41-49.07-53.26-1.28-68.66 28.24-75.48 49.07s26.07 88.26 26.07 88.26c-14.12-33.37-3.21-43.64 17.33-49.41s32.73 14.76 32.73 14.76 12.83-20.53 33.37-14.76 31.44 16 17.33 49.41c0 0 32.89-67.42 26.06-88.26z" fill="#f1d2c2"/><path d="m214.94 252.84 29.52-34v-46.2s3.37-21.22-3.45-42.05-24.14-50.38-77.41-49.09c-53.26-1.28-68.66 28.24-75.48 49.07s-2.81 42.05-2.81 42.05l-.64 46.2 29.52 34v-34c-14.12-33.37-3.21-43.64 17.33-49.41s32.73 14.76 32.73 14.76 12.83-20.53 33.37-14.76 31.44 16 17.33 49.41z" fill="#5c4b43"/><path d="m131.79 85.23 5.5-85.23h55.83l2.57 85.23z" fill="#d83f3f"/><path d="m146.28 72.51 4.49 68.67h24.39l6.41-68.67z" fill="#3b2512"/><path d="m146.28 68.66 4.49 68.67h24.39l6.41-68.67z" fill="#715d55"/><g fill="#c0272d"><circle cx="164.18" cy="239.36" r="7.16"/><circle cx="173.89" cy="237.32" r="5.11"/><circle cx="153.96" cy="237.32" r="5.11"/><path d="m153.96 232.2h20.45v5.11h-20.45z"/><path d="m152.23 242.12s6.33 4.4 12 4.4 11.45-4.4 11.45-4.4l-4.81-3.78-18.91-.51z"/></g><path d="m152.05 241.93v.13l.15.07s6.33 4.4 12 4.4 11.45-4.4 11.45-4.4a5.09 5.09 0 0 0 1-.51c-.35-.17-7.4-3.53-12.86-3.46s-11.74 3.77-11.74 3.77z" fill="#ec1e27"/><path d="m148.85 166.2c-3.85-1.93-14.76-2.57-27 1.93s-16 12.19-17.33 23.1 6.56 27.93 6.56 27.93v30.15l3.06 3.53v-34c-14.12-33.37-3.21-43.64 17.33-49.41s32.73 14.76 32.73 14.76v-5.79c-1.2-2.57-11.5-10.27-15.35-12.2z" fill="#3b2512"/><path d="m179.51 166.2c3.85-1.93 14.76-2.57 27 1.93s16 12.19 17.33 23.1-6.56 27.93-6.56 27.93v30.15l-3.06 3.53v-34c14.12-33.37 3.21-43.64-17.33-49.41s-32.73 14.76-32.73 14.76v-5.79c1.23-2.57 11.5-10.27 15.35-12.2z" fill="#3b2512"/><path d="m146.28 68.66h35.29l11.55-68.66h-55.83z" fill="#ef4f4e"/><path d="m161 372.84h12.83s6.12 15 12.29 32.43a256 256 0 0 0 20.37 21.34c4.22 3.92 8.62 7.71 13.2 11.29-2.41-7.12-16.59-49.85-23.39-90.72a128.84 128.84 0 0 1 -1.58-16.68h-56a165.9 165.9 0 0 1 -2.11 16.68c-4.54 24.58-15.4 57.75-23.74 90.48 0 0-4.91 2.65-7.2 6.2a198.94 198.94 0 0 0 21.23-17.25 257.43 257.43 0 0 0 21.25-22.37c4.46-13.96 9.25-26.99 12.85-31.4z" fill="#f1d2c2"/><path d="m126.5 430.71 12.77 6.66.85-3.23-9.07-4.74 11.1-3.2 1-3.66-16.15 4.77-.56-.29q-3 2.79-6.16 5.47z" fill="#fff"/><path d="m106.8 442.43a12.5 12.5 0 0 0 -1 1.33q4.12-2.89 8.06-6l-1-.11-.14.08a25.12 25.12 0 0 0 -5.92 4.7z" fill="#d3d3d3"/><path d="m116.15 425.32 6.38 3.32-7.89 2.36q-.45 1.71-.89 3.41l6.58-1.9q3.14-2.68 6.16-5.47l-9.49-4.97z" fill="#f2f2f2"/><path d="m216.19 435.05 2.85.81c-.32-1-.7-2.13-1.15-3.49l-7.19-2q2.7 2.38 5.49 4.68z" fill="#f2f2f2"/><path d="m216.11 426.8-.78-2.49-7.15 3.8c.67.61 1.35 1.22 2 1.83z" fill="#f2f2f2"/><path d="m195.5 324.07h-57.56s39 87.27 105.73 123.21c-.01 0-31.45-39.79-48.17-123.21z" fill="#fff"/><path d="m139.78 324.07c6.85 14.3 42.86 85 100.45 118.35 2.17 3.25 3.44 4.86 3.44 4.86-66.74-35.94-105.73-123.21-105.73-123.21z" fill="#ffe8b5"/><path d="m197.25 332.4q-.9-4.09-1.75-8.33h-51.75c-.38 1.91-.78 3.78-1.17 5.64a363.79 363.79 0 0 0 28.29 46.23 364.27 364.27 0 0 0 26.38-43.54z" fill="#f2f2f2"/><path d="m186.93 324.07s10.41 45.69 16 53.49c0 0-12.53-16.72-18-53.49z" fill="#d7d7d7" opacity=".43"/><path d="m174 324.07s7.15 31.41 11 36.77c0 0-8.62-11.49-12.35-36.77z" fill="#d7d7d7" opacity=".43"/><path d="m138 324.07h57.56s-39 87.27-105.73 123.21c-.02 0 31.42-39.79 48.17-123.21z" fill="#fff"/><path d="m193.69 324.07c-6.85 14.3-42.86 85-100.45 118.35-2.17 3.25-3.44 4.86-3.44 4.86 66.74-35.94 105.73-123.21 105.73-123.21z" fill="#ffe8b5"/><path d="m241.25 282.36-6.41 19.89 13.47 5.13 5.78-16.68z" fill="#ffcf4a"/><path d="m240.67 284.16-1.23-.76-5.62 16.52 1.59.56z" fill="#f1d2c2"/><path d="m137.94 286.85s2.56-7.43 12-11.48c0 0 13.5 6.08 16.88 11.48 0 0 10.13-11.48 17.55-12.83a75.27 75.27 0 0 1 12.15 14.85s2.53 1.35-.09 12.15v20.48h-59.31v-21.16a15.16 15.16 0 0 1 .82-13.49z" fill="#f1d2c2"/><path d="m137.94 289.41s2.56-7.43 12-11.48c0 0 13.5 6.08 16.88 11.48 0 0 10.13-11.48 17.55-12.83a75.27 75.27 0 0 1 12.15 14.85s2.53 1.35-.09 12.15v20.48h-59.31v-21.15a15.16 15.16 0 0 1 .82-13.5z" fill="#d3d3d3"/><path d="m137.94 294.55s2.56-6.79 12-10.84c0 0 13.5 6.08 16.88 11.48 0 0 10.13-11.48 17.55-12.83a75.27 75.27 0 0 1 12.15 14.85s2.53 1.35-.09 12.15v14.71h-59.31v-15.39s-3.23-7.38.82-14.13z" fill="#e5e5e4"/><path d="m139.78 324.07h-1.84v.05c-.28 1.38-.56 2.75-.84 4.1v.33h54.36c.92-1.83 1.66-3.34 2.21-4.49z" fill="#f2f2f2"/><path d="m191.48 328.56c-10.56 20.93-45.28 83.19-98.23 113.86-2.17 3.25-3.44 4.86-3.44 4.86 57.68-31.06 94.62-100.44 103.59-118.72z" fill="#ffe8b5"/><path d="m195.53 324.07h-1.84c-.55 1.15-1.29 2.66-2.21 4.49h1.92c1.41-2.87 2.13-4.49 2.13-4.49z" fill="#ffe8b5"/><path d="m146.22 324.07s-10.41 45.69-16 53.49c0 0 12.53-16.72 18-53.49z" fill="#d7d7d7" opacity=".43"/><path d="m159.19 324.07s-7.15 31.41-11 36.77c0 0 8.62-11.49 12.35-36.77z" fill="#d7d7d7" opacity=".43"/><path d="m176.1 324.07s-5.11 16.72-7.85 19.58c0 0 6.16-6.12 8.83-19.58z" fill="#d7d7d7" opacity=".43"/><path d="m152.13 447.28 5.17-30.81 3.1 30.81z" fill="#cccbcb"/><path d="m174.59 447.28 5.17-30.81 3.1 30.81z" fill="#cccbcb"/><path d="m57.6 297.79a58.77 58.77 0 0 0 66.13 97.21c.63-.43 1.23-.9 1.81-1.38a7.32 7.32 0 0 0 1.14-.63l21-14.31a7.38 7.38 0 1 0 -8.3-12.2l-1.89 1.29a14.8 14.8 0 0 1 -20.5-3.9 14.8 14.8 0 0 1 3.9-20.5s13.25-18.29 13.48-23.29c1.63-35.28-49.93-40.55-76.77-22.29z" fill="#ececea"/><circle cx="64.21" cy="367.84" fill="#e8553a" r="11.64" transform="matrix(.82678615 -.56251636 .56251636 .82678615 -195.8 99.85)"/><circle cx="64.8" cy="330.62" fill="#40b5d0" r="11.64" transform="matrix(.82678615 -.56251636 .56251636 .82678615 -174.76 93.73)"/><circle cx="108.49" cy="320.21" fill="#ececea" r="25.99" transform="matrix(.82678615 -.56251636 .56251636 .82678615 -161.34 116.5)"/><circle cx="96.84" cy="313.49" fill="#ffe75f" r="11.64" transform="matrix(.82678615 -.56251636 .56251636 .82678615 -159.58 108.78)"/></svg>