<svg viewBox="0 0 306.15 374.67" xmlns="http://www.w3.org/2000/svg"><path d="m252.84 353.49h53.32v19.89h-53.32z" fill="#4ba775"/><path d="m252.84 356.7h53.32v1.93h-53.32z" fill="#3f8c60"/><path d="m252.84 360.55h53.32v1.93h-53.32z" fill="#3f8c60"/><path d="m252.84 364.4h53.32v1.93h-53.32z" fill="#3f8c60"/><path d="m252.84 368.25h53.32v1.93h-53.32z" fill="#3f8c60"/><path d="m272.14 353.49h14.12v19.89h-14.12z" fill="#efefef"/><path d="m195.72 353.49h53.32v19.89h-53.32z" fill="#4ba775"/><path d="m195.72 356.7h53.32v1.93h-53.32z" fill="#3f8c60"/><path d="m195.72 360.55h53.32v1.93h-53.32z" fill="#3f8c60"/><path d="m195.72 364.4h53.32v1.93h-53.32z" fill="#3f8c60"/><path d="m195.72 368.25h53.32v1.93h-53.32z" fill="#3f8c60"/><path d="m215.03 353.49h14.12v19.89h-14.12z" fill="#efefef"/><path d="m225.88 331.68h53.32v19.89h-53.32z" fill="#4ba775"/><path d="m225.88 334.88h53.32v1.93h-53.32z" fill="#3f8c60"/><path d="m225.88 338.73h53.32v1.93h-53.32z" fill="#3f8c60"/><path d="m225.88 342.59h53.32v1.93h-53.32z" fill="#3f8c60"/><path d="m225.88 346.44h53.32v1.93h-53.32z" fill="#3f8c60"/><path d="m245.19 331.68h14.12v19.89h-14.12z" fill="#efefef"/><path d="m57.11 353.49h53.32v19.89h-53.32z" fill="#4ba775"/><path d="m57.11 356.7h53.32v1.93h-53.32z" fill="#3f8c60"/><path d="m57.11 360.55h53.32v1.93h-53.32z" fill="#3f8c60"/><path d="m57.11 364.4h53.32v1.93h-53.32z" fill="#3f8c60"/><path d="m57.11 368.25h53.32v1.93h-53.32z" fill="#3f8c60"/><path d="m76.42 353.49h14.12v19.89h-14.12z" fill="#efefef"/><path d="m0 353.49h53.32v19.89h-53.32z" fill="#4ba775"/><path d="m0 356.7h53.32v1.93h-53.32z" fill="#3f8c60"/><path d="m0 360.55h53.32v1.93h-53.32z" fill="#3f8c60"/><path d="m0 364.4h53.32v1.93h-53.32z" fill="#3f8c60"/><path d="m0 368.25h53.32v1.93h-53.32z" fill="#3f8c60"/><path d="m19.3 353.49h14.12v19.89h-14.12z" fill="#efefef"/><path d="m30.16 331.68h53.32v19.89h-53.32z" fill="#4ba775"/><path d="m30.16 334.88h53.32v1.93h-53.32z" fill="#3f8c60"/><path d="m30.16 338.73h53.32v1.93h-53.32z" fill="#3f8c60"/><path d="m30.16 342.59h53.32v1.93h-53.32z" fill="#3f8c60"/><path d="m30.16 346.44h53.32v1.93h-53.32z" fill="#3f8c60"/><path d="m49.47 331.68h14.12v19.89h-14.12z" fill="#efefef"/><path d="m117.43 196.92s-32.72 129.62-48.12 145.67c0 0 85.8 21.59 162.58.21 0 0-43.86-88.76-47.07-145.24z" fill="#83cff0"/><path d="m122.93 188.57s-27.3 139.78-40.15 157.08c0 0 71.58 23.28 135.63.22 0 0-36.59-95.71-39.27-156.61z" fill="#75b7ce"/><path d="m190.79 369.91s-7.57-6.59-10.67-13.61-12-6.16-22.69-5.67c0 0-5.89 2.61 2.25 4.63 0 0-5.79 3.46 4 5 0 0-4.73 7.56 5.62 4.52 0 0-7 7.35 4.33 3.13 0 0-4.39 5.7 3.68 2.44 0 0 .17 6.12 5.21 1.11-.01 0 4.32 3.14 8.27-1.55z" fill="#f1e8d2"/><path d="m188 368.47s-6.13-5.87-8.55-11.85-9.84-5.75-18.69-5.91c0 0-4.94 1.85 1.77 4 0 0-4.88 2.56 3.2 4.35 0 0-4.09 6 4.56 4 0 0-6 5.72 3.52 2.83 0 0-3.77 4.49 3 2.22 0 0 0 5.08 4.3 1.2a5 5 0 0 0 6.89-.84z" fill="#fff9e6"/><path d="m113 369.91s7.57-6.59 10.67-13.61 12-6.16 22.69-5.67c0 0 5.89 2.61-2.25 4.63 0 0 5.79 3.46-4 5 0 0 4.73 7.56-5.62 4.52 0 0 7 7.35-4.33 3.13 0 0 4.39 5.7-3.68 2.44 0 0-.17 6.12-5.21 1.11.02 0-4.27 3.14-8.27-1.55z" fill="#f1e8d2"/><path d="m115.76 368.47s6.13-5.87 8.55-11.85 9.84-5.75 18.69-5.91c0 0 4.94 1.85-1.77 4 0 0 4.88 2.56-3.2 4.35 0 0 4.09 6-4.56 4 0 0 6 5.72-3.52 2.83 0 0 3.77 4.49-3 2.22 0 0 0 5.08-4.3 1.2a5 5 0 0 1 -6.89-.84z" fill="#fff9e6"/><path d="m87.27 245.69s-1-15.9 5.78-28.24c7.06-12.83 13.21-22.78 25-27.39 2.21-.86 4.42-1.65 6.63-2.35l49.86.22a65 65 0 0 0 5 5c10.47 9 26.45 17.46 54.66 41.84l-12.2 8.35a127.71 127.71 0 0 0 -38.47-18s16 73.8 21.15 139.89c0 0 8.34 4.49 8.34 9.63h-31.44s-12.19-51.34-21.18-62.25h-18.61s-19.25 39.79-22.46 62.25h-30.16s.64-6.42 8.34-8.34c0 0 10.91-100.11 23.74-146.31 0 0 1.35-5.74-10.88 5.13-5.78 5.13-9 12.19-5.78 19.25z" fill="#fddec9"/><path d="m120.64 211.9-10.26 56.25h81.49l-11.25-61.82z" fill="#fff"/><path d="m177.76 219.38a15.25 15.25 0 0 0 3.63-8.85l-.76-4.2-60 5.57-.52 2.86a22.78 22.78 0 0 0 10.79 10.39c18.62 8.99 39.15 2.57 46.86-5.77z" fill="#f2f2f2"/><path d="m154.59 201.41c-17.24-1.38-33.17-2.76-44.93-7.72 2.76-1.31 5.55-2.53 8.35-3.62 2.21-.86 4.42-1.65 6.63-2.35l51.19 2.22s1.37 1 3.66 3c1.44 1.24 3.25 2.86 5.31 4.81a74.42 74.42 0 0 1 -30.21 3.66z" fill="#f1d2c2"/><path d="m76.78 130s-13.89-1.15-12.61 14.9 25 17.33 25 17.33l-3.17-25.64z" fill="#f1d2c2"/><path d="m222.82 130s13.89-1.15 12.61 14.9-25 17.33-25 17.33l3.21-25.67z" fill="#f1d2c2"/><path d="m118.08 189.86s-5.78 22.46 12.83 31.44 39.14 2.57 46.85-5.78c6.33-6.86 3.12-19.79 1.78-24.17a5 5 0 0 0 -1.64-2.42 3.32 3.32 0 0 0 -4.13 0 5 5 0 0 0 -1.57 2.12c-1.11 2.89-5 10.25-16.25 12.3-14.12 2.57-28.85-7.06-31.43-13.48s-6.44-.01-6.44-.01z" fill="#83cff0"/><path d="m122.31 192.26s6 13 18.22 16.85c.01 0-12.7.32-18.22-16.85z" fill="#75b7ce"/><path d="m120.64 195s4.49 19.25 21.18 25.67c0-.01-13.48-6.43-21.18-25.67z" fill="#75b7ce"/><path d="m178.4 197.56s.26 6.69-5.78 12.83c0 0 7.06-3.21 5.78-12.83z" fill="#75b7ce"/><path d="m175.83 193.07s-1.28 9-11.55 16c0 .04 10.91-3.81 11.55-16z" fill="#75b7ce"/><circle cx="122.25" cy="192.74" fill="#ffcf4a" r="5.45"/><circle cx="122.25" cy="192.74" fill="#fcb514" r="3.78"/><circle cx="176.79" cy="192.74" fill="#ffcf4a" r="5.45"/><circle cx="176.79" cy="192.74" fill="#fcb514" r="3.78"/><path d="m73.16 122.48s13.48 27 16 40.43 26.31 30.8 58.4 28.24 59.68-5.13 64.17-30.8 14.12-41.07 14.12-41.07 9.63-43.64-5.78-75.72-53.22-34.67-72.48-35.31-55.83 12.19-68 35.29-12.21 49.46-6.43 78.94z" fill="#fddec9"/><path d="m204.68 365-24.84 2.63 1.74 7h31.42s0-5.09-8.32-9.63z" fill="#83cff0"/><path d="m212.9 373.39-31.43.48.11.8h31.44z" fill="#75b7ce"/><path d="m96.41 365 24.84 2.63-1.74 7h-31.44s0-5.09 8.34-9.63z" fill="#83cff0"/><path d="m88.2 373.39 31.42.48-.1.8h-31.45z" fill="#75b7ce"/><path d="m203.5 351.59-24.52 12.77-.88-3.33 25.03-13.07z" fill="#fff"/><path d="m204.14 358.53-29.11-8.59 1.04 3.66 28.36 8.34z" fill="#fff"/><path d="m98.4 353.75 23.22 12.11.83-3.16-23.71-12.39z" fill="#fff"/><path d="m97.79 360.33 27.57-8.14-.98 3.47-26.87 7.9z" fill="#fff"/><circle cx="119.36" cy="133.39" fill="#3b2512" r="11.55"/><circle cx="177.76" cy="133.39" fill="#3b2512" r="11.55"/><circle cx="148.81" cy="166.75" fill="#c0272d" r="7.16"/><circle cx="158.53" cy="164.71" fill="#c0272d" r="5.11"/><circle cx="138.59" cy="164.71" fill="#c0272d" r="5.11"/><path d="m138.59 159.6h20.45v5.11h-20.45z" fill="#c0272d"/><path d="m136.86 169.52s6.33 4.4 12 4.4 11.45-4.4 11.45-4.4l-4.81-3.78-18.91-.51z" fill="#c0272d"/><path d="m136.69 169.32v.13l.15.07s6.33 4.4 12 4.4 11.45-4.4 11.45-4.4a5.09 5.09 0 0 0 1-.51c-.35-.17-7.4-3.53-12.86-3.46s-11.74 3.77-11.74 3.77z" fill="#ec1e27"/><path d="m219.84 231.75-3 8.03 3.78 4.32 9.69-11.15-1.59-3.56z" fill="#f1d2c2"/><path d="m223.75 232.9-7.1 9.65 11.18 12.45 3.91-1.26-2.3-5.71 9.11-5.3-4.06-10.19z" fill="#fddec9"/><path d="m125.78 74.35h47.49v14.12h-47.49z" fill="#dff2f8"/><path d="m140.45 315.26-37.7 8.55c-.36 2.7-.71 5.33-1 7.86l31.51-.07c2.94-7.11 5.65-13.03 7.19-16.34z" fill="#f1d2c2"/><path d="m199.56 318.57-3.2-16-36 9.84c2.79 3.39 5.89 10.67 8.83 19.1l32-.07q-.74-6.52-1.63-12.87z" fill="#f1d2c2"/><path d="m148.88.55c-45.72 0-82.78 35.91-82.78 80.22h165.56c0-44.31-37.06-80.22-82.78-80.22z" fill="#dff2f8"/><path d="m66.36 74.35c2.26.31 5.53-1.06 10.25-5.74 0 0 12.73 9.22 24.34-4.56a163.6 163.6 0 0 1 -22.69-25.16 78 78 0 0 0 -11.9 35.46z" fill="#d1e3e8"/><path d="m107.37 57.63s-22.25-19.38-31.37-40.02-35.37-18.11-66.73-16.68c0 0-17.33 7.68 6.62 13.6 0 0-17 10.18 11.73 14.69 0 0-13.92 22.22 16.53 13.28 0 0-20.63 21.6 12.73 9.22 0 0-12.92 16.75 10.82 7.19 0 0 .51 18 15.33 3.27-.03.01 12.72 9.22 24.34-4.55z" fill="#f1e8d2"/><path d="m99.3 53.39s-18-17.25-25.14-34.84-28.93-16.9-54.96-17.37c0 0-14.54 5.45 5.19 11.63 0 0-14.34 7.54 9.4 12.81 0 0-12 17.69 13.42 11.89 0 0-17.58 16.82 10.35 8.32 0 0-11.07 13.2 8.82 6.53 0 0 0 14.94 12.64 3.53-.02-.01 10.35 8.31 20.28-2.5z" fill="#fff9e6"/><path d="m104.66 327.4 97.48-.22-5.77-28.87z" fill="#fff"/><path d="m196.22 298.35-91.55 29h17.15c23.36-4.8 58-13.49 75.06-25.45z" fill="#f2f2f2"/><path d="m111.62 325.26-6.96 2.14 97.48-.22v-1.92z" fill="#ffe8b5"/><path d="m111.62 325.26-6.96 2.14 97.48-.22v-1.92z" fill="#ffe8b5"/><path d="m131.59 325.26h-20l-7 2.14h17.15c3.16-.67 6.44-1.4 9.85-2.14z" fill="#eed9b9"/><path d="m218.1 36.76a164.09 164.09 0 0 1 -22.37 24.72c11.61 13.77 24.34 4.52 24.34 4.52 5.31 5.27 8.78 6.35 11.05 5.55a78.19 78.19 0 0 0 -13.02-34.79z" fill="#d1e3e8"/><path d="m189.31 57.63s22.25-19.38 31.37-40 35.32-18.13 66.72-16.7c0 0 17.33 7.68-6.62 13.6 0 0 17 10.18-11.73 14.69 0 0 13.92 22.22-16.53 13.28 0 0 20.63 21.6-12.73 9.22 0 0 12.92 16.75-10.82 7.19 0 0-.51 18-15.33 3.27.01.01-12.72 9.22-24.33-4.55z" fill="#f1e8d2"/><path d="m197.37 53.39s18-17.25 25.14-34.84 28.93-16.9 55-17.37c0 0 14.54 5.45-5.19 11.63 0 0 14.34 7.54-9.4 12.81 0 0 12 17.69-13.42 11.89 0 0 17.58 16.82-10.35 8.32 0 0 11.07 13.2-8.82 6.53 0 0 0 14.94-12.64 3.53-.04-.01-10.39 8.31-20.32-2.5z" fill="#fff9e6"/><path d="m109.73 274.56s-7.06 42.35-11.55 53.9c0 0 71.6-10.75 98.69-29.76l-4.16-22.7z" fill="#fff"/><path d="m98.9 326.43c-.24.75-.48 1.44-.72 2 0 0 71.6-10.75 98.69-29.76l-.31-1.71c-25.72 17.8-90.2 28.3-97.66 29.47z" fill="#ffe8b5"/><path d="m182.9 271.01-3.22 38.85h16.23l-5.96-38.5z" fill="#dddddc" opacity=".33"/><path d="m109.67 276.5 83.04 1.47-.2-1.93-82.6-1.47z" fill="#f2f2f2"/><path d="m111.44 260.45s58.62 7.05 80.44 7.7l.84 7.9-83-1.46z" fill="#83cff0"/><path d="m182.9 267.81-3.22 38.84h16.23l-5.96-38.5z" fill="#83cff0"/><g fill="#75b7ce"><path d="m111.14 262.87 25.55 2.71-25.72-1.36z"/><path d="m110.61 267.09 19.02.41-19.25.65z"/><path d="m110.08 271.26 22.11.1-22.24.96z"/><path d="m183.51 276.04 1.3 15.85.57-15.85z"/><path d="m187.79 275.96.87 11.44 1.04-11.36z"/><path d="m181.89 280a9.57 9.57 0 0 0 9.77-.8l-.49-3.19h1.55l-.84-7.9c-3.85-.11-8.86-.43-14.49-.87a9.56 9.56 0 0 0 .17 8.5l4.68.08z" opacity=".52"/></g><circle cx="186.1" cy="271.35" fill="#83cff0" r="7.06"/><path d="m123.9 91s13.48 25.45 53.16 27c0 0-10.66-11.06-15.77-20.16 19.14 16.31 52.15 31.72 52.15 31.72a90.91 90.91 0 0 1 -15.73-36.4c3 4.46 10.54 14.82 19 19.08 0 0-7.34-11.35-7.24-19.26a79.3 79.3 0 0 1 17.53 20.09 168.86 168.86 0 0 0 1.85-22l-4.23-5.78h-100.77z" fill="#f1d2c2"/><path d="m102 91.37c.07 2.14.33 14-2.58 22.76 0 0 18-12.19 24.39-23.1v-5.77h-34.61l-19.75 5.74a186.91 186.91 0 0 0 3.71 31.44l.38.76c9.25-7.07 20.46-17.69 28.46-31.83z" fill="#f1d2c2"/><path d="m67.78 85.26s1.69 27-11 43c0 0 29.29-14.33 45.42-43z" fill="#dff2f8"/><path d="m123.9 85.26s13.48 25.45 53.16 27c0 0-17.32-18-18.39-27z" fill="#dff2f8"/><path d="m197.41 85.26s1.77 18.54 16 38.5c0 0-42.78-20-59.18-38.5z" fill="#dff2f8"/><path d="m231.67 85.26a93.39 93.39 0 0 1 0 30.81s-7.76-18.63-24.67-30.81z" fill="#dff2f8"/><path d="m196.37 85.26s9.41 15.69 20.39 21.18c0 0-8.63-13.33-7.06-21.18z" fill="#dff2f8"/><path d="m102 85.26s.64 13.48-2.57 23.1c0 0 18-12.19 24.39-23.1z" fill="#dff2f8"/><path d="m94.97 271.36v43.63l-13.47-19.89v-34.65z" fill="#282827"/><path d="m94.97 271.35h13.48v43.64h-13.48z" fill="#3f4040"/><path d="m231.67 85.26h-49.73a41.88 41.88 0 0 0 -10.28-5.13 5.47 5.47 0 0 0 -5.44 5.13v.32a5.47 5.47 0 0 0 5.44 5.42h26.79c-.34-1.49-.58-2.73-.74-3.68.65 1 1.54 2.25 2.6 3.68h9.64a17.62 17.62 0 0 1 -.43-3.86c1.56 1.25 3 2.54 4.41 3.86h16.13a5.39 5.39 0 0 0 2.35-.54c-.35-3.25-.74-5.2-.74-5.2z" fill="#d1e3e8"/><path d="m132.18 85.26a5.47 5.47 0 0 0 -5.44-5.13l-2.89 5.13h.05a34.92 34.92 0 0 0 4.1 5.63 5.47 5.47 0 0 0 4.23-5.31c-.04-.11-.05-.22-.05-.32z" fill="#d1e3e8"/><path d="m102.24 85.26h-34.46s.14 2.23 0 5.78h30.91q1.75-2.63 3.35-5.44c0 .77.07 2.78 0 5.44h17.53a39.36 39.36 0 0 0 4.28-5.78z" fill="#d1e3e8"/><rect fill="#fcb514" height="10.91" rx="5.45" width="69.31" x="166.2" y="74.35"/><rect fill="#fcb514" height="10.91" rx="5.45" width="69.95" x="62.25" y="74.35"/><path d="m81.5 260.45h12.83l14.12 10.91h-13.48z" fill="#4f4f4f"/><path d="m87.27 252.1h5.13v10.27h-5.13z" fill="#7a441c"/><path d="m85.99 261.73 1.28.64v-10.27l-1.28-.64z" fill="#5f3313"/><path d="m98.6 236.75 4.93 7.01-2.56 5.14-12.2-8.35.65-3.85z" fill="#f1d2c2"/><path d="m97.96 239.96 7.11 9.65-4.77 7.31-3.91-1.25-2.83 5.19-11.68-7.22 5.35-14.04z" fill="#fddec9"/><path d="m90.08 247.82h7.97v7.97h-7.97z" fill="#f1d2c2" transform="matrix(-.8660254 -.5 .5 -.8660254 49.62 516.9)"/><path d="m91.6 249.34h4.93v4.93h-4.93z" fill="#fddec9" transform="matrix(-.8660254 -.5 .5 -.8660254 49.62 516.9)"/><path d="m229.73 248.25-2.56-4.49 9.34-6.15 2.21 4.87z" fill="#f1d2c2"/><path d="m96.9 252.1h5.13v17.33h-5.13z" fill="#7a441c"/><path d="m95.62 268.79 1.28.64v-17.33l-1.28-.64v5.79z" fill="#5f3313"/><path d="m91.17 254.73-.05-5.19 4.5 1.92v5.78z" fill="#5f3313"/><path d="m102.03 252.1-6.61-2.56h-4.3l5.78 2.56z" fill="#5f3313"/><g opacity=".4"><g stroke-miterlimit="10"><path d="m250.27 286.61h-94.86l33.25-67.88h94.86z" fill="#7fd1ec" stroke="#fff" stroke-width="4"/><path d="m199.05 223.08-28.99 59.18" fill="none" opacity=".3" stroke="#28aae1" stroke-width="2"/><path d="m206.85 223.08-28.99 59.18" fill="none" opacity=".3" stroke="#28aae1" stroke-width="2"/><path d="m214.65 223.08-29 59.18" fill="none" opacity=".3" stroke="#28aae1" stroke-width="2"/><path d="m222.45 223.08-29 59.18" fill="none" opacity=".3" stroke="#28aae1" stroke-width="2"/><path d="m230.24 223.08-28.99 59.18" fill="none" opacity=".3" stroke="#28aae1" stroke-width="2"/><path d="m238.04 223.08-28.99 59.18" fill="none" opacity=".3" stroke="#28aae1" stroke-width="2"/><path d="m245.84 223.08-29 59.18" fill="none" opacity=".3" stroke="#28aae1" stroke-width="2"/><path d="m253.63 223.08-28.99 59.18" fill="none" opacity=".3" stroke="#28aae1" stroke-width="2"/><path d="m261.43 223.08-28.99 59.18" fill="none" opacity=".3" stroke="#28aae1" stroke-width="2"/><path d="m269.23 223.08-29 59.18" fill="none" opacity=".3" stroke="#28aae1" stroke-width="2"/><path d="m189.02 229.81h83.29" fill="none" opacity=".3" stroke="#28aae1" stroke-width="2"/><path d="m185.2 237.61h83.29" fill="none" opacity=".3" stroke="#28aae1" stroke-width="2"/><path d="m181.38 245.4h83.29" fill="none" opacity=".3" stroke="#28aae1" stroke-width="2"/><path d="m177.56 253.2h83.29" fill="none" opacity=".3" stroke="#28aae1" stroke-width="2"/><path d="m173.74 261h83.29" fill="none" opacity=".3" stroke="#28aae1" stroke-width="2"/><path d="m169.92 268.8h83.29" fill="none" opacity=".3" stroke="#28aae1" stroke-width="2"/><path d="m166.1 276.59h83.29" fill="none" opacity=".3" stroke="#28aae1" stroke-width="2"/></g><path d="m245.36 242.83h-.17c-6.39 0-14.11 5.18-17.24 11.57s-.49 11.57 5.9 11.57 14.11-5.18 17.24-11.57l.08-.17h-11.4z" fill="#ea9d22"/><path d="m250.5 239.37-5.58 11.4h11.4c2.97-6.25.39-11.3-5.82-11.4z" fill="#ffe161"/><path d="m187.94 266.36h-8.79l9.6-19.61h8.79z" fill="#e74525"/><path d="m199.09 266.36h-8.79l13.42-27.38h8.79z" fill="#e74525"/><path d="m210.25 266.36h-8.79l7.79-15.89h8.79z" fill="#e74525"/></g><path d="m111.66 33.92s.64 13.48-2.57 23.1c0 0 18-12.19 24.39-23.1z" fill="#d1e3e8"/><path d="m114.87 28.79s.64 13.48-2.57 23.1c0 0 18-12.19 24.39-23.1z" fill="#dff2f8"/><path d="m173.91 46.11s9.41 15.69 20.39 21.18c0 0-8.63-13.33-7.06-21.18z" fill="#d1e3e8"/><path d="m174.4 44.78s7.17 12 15.54 16.14c0 0-6.58-10.16-5.38-16.14z" fill="#dff2f8"/></svg>