<?xml version="1.0" encoding="UTF-8"?>
<!DOCTYPE svg PUBLIC "-//W3C//DTD SVG 1.1//EN" "http://www.w3.org/Graphics/SVG/1.1/DTD/svg11.dtd">
<svg version="1.2" width="225.77mm" height="225.77mm" viewBox="0 0 22577 22577" preserveAspectRatio="xMidYMid" fill-rule="evenodd" stroke-width="28.222" stroke-linejoin="round" xmlns="http://www.w3.org/2000/svg" xmlns:ooo="http://xml.openoffice.org/svg/export" xmlns:xlink="http://www.w3.org/1999/xlink" xmlns:presentation="http://sun.com/xmlns/staroffice/presentation" xmlns:smil="http://www.w3.org/2001/SMIL20/" xmlns:anim="urn:oasis:names:tc:opendocument:xmlns:animation:1.0" xml:space="preserve">
 <defs class="ClipPathGroup">
  <clipPath id="presentation_clip_path" clipPathUnits="userSpaceOnUse">
   <rect x="0" y="0" width="22577" height="22577"/>
  </clipPath>
  <clipPath id="presentation_clip_path_shrink" clipPathUnits="userSpaceOnUse">
   <rect x="22" y="22" width="22532" height="22532"/>
  </clipPath>
 </defs>
 <defs class="TextShapeIndex">
  <g ooo:slide="id1" ooo:id-list="id3 id4 id5 id6 id7 id8 id9 id10 id11 id12 id13 id14"/>
 </defs>
 <defs class="EmbeddedBulletChars">
  <g id="bullet-char-template-57356" transform="scale(0.00048828125,-0.00048828125)">
   <path d="M 580,1141 L 1163,571 580,0 -4,571 580,1141 Z"/>
  </g>
  <g id="bullet-char-template-57354" transform="scale(0.00048828125,-0.00048828125)">
   <path d="M 8,1128 L 1137,1128 1137,0 8,0 8,1128 Z"/>
  </g>
  <g id="bullet-char-template-10146" transform="scale(0.00048828125,-0.00048828125)">
   <path d="M 174,0 L 602,739 174,1481 1456,739 174,0 Z M 1358,739 L 309,1346 659,739 1358,739 Z"/>
  </g>
  <g id="bullet-char-template-10132" transform="scale(0.00048828125,-0.00048828125)">
   <path d="M 2015,739 L 1276,0 717,0 1260,543 174,543 174,936 1260,936 717,1481 1274,1481 2015,739 Z"/>
  </g>
  <g id="bullet-char-template-10007" transform="scale(0.00048828125,-0.00048828125)">
   <path d="M 0,-2 C -7,14 -16,27 -25,37 L 356,567 C 262,823 215,952 215,954 215,979 228,992 255,992 264,992 276,990 289,987 310,991 331,999 354,1012 L 381,999 492,748 772,1049 836,1024 860,1049 C 881,1039 901,1025 922,1006 886,937 835,863 770,784 769,783 710,716 594,584 L 774,223 C 774,196 753,168 711,139 L 727,119 C 717,90 699,76 672,76 641,76 570,178 457,381 L 164,-76 C 142,-110 111,-127 72,-127 30,-127 9,-110 8,-76 1,-67 -2,-52 -2,-32 -2,-23 -1,-13 0,-2 Z"/>
  </g>
  <g id="bullet-char-template-10004" transform="scale(0.00048828125,-0.00048828125)">
   <path d="M 285,-33 C 182,-33 111,30 74,156 52,228 41,333 41,471 41,549 55,616 82,672 116,743 169,778 240,778 293,778 328,747 346,684 L 369,508 C 377,444 397,411 428,410 L 1163,1116 C 1174,1127 1196,1133 1229,1133 1271,1133 1292,1118 1292,1087 L 1292,965 C 1292,929 1282,901 1262,881 L 442,47 C 390,-6 338,-33 285,-33 Z"/>
  </g>
  <g id="bullet-char-template-9679" transform="scale(0.00048828125,-0.00048828125)">
   <path d="M 813,0 C 632,0 489,54 383,161 276,268 223,411 223,592 223,773 276,916 383,1023 489,1130 632,1184 813,1184 992,1184 1136,1130 1245,1023 1353,916 1407,772 1407,592 1407,412 1353,268 1245,161 1136,54 992,0 813,0 Z"/>
  </g>
  <g id="bullet-char-template-8226" transform="scale(0.00048828125,-0.00048828125)">
   <path d="M 346,457 C 273,457 209,483 155,535 101,586 74,649 74,723 74,796 101,859 155,911 209,963 273,989 346,989 419,989 480,963 531,910 582,859 608,796 608,723 608,648 583,586 532,535 482,483 420,457 346,457 Z"/>
  </g>
  <g id="bullet-char-template-8211" transform="scale(0.00048828125,-0.00048828125)">
   <path d="M -4,459 L 1135,459 1135,606 -4,606 -4,459 Z"/>
  </g>
  <g id="bullet-char-template-61548" transform="scale(0.00048828125,-0.00048828125)">
   <path d="M 173,740 C 173,903 231,1043 346,1159 462,1274 601,1332 765,1332 928,1332 1067,1274 1183,1159 1299,1043 1357,903 1357,740 1357,577 1299,437 1183,322 1067,206 928,148 765,148 601,148 462,206 346,322 231,437 173,577 173,740 Z"/>
  </g>
 </defs>
 <defs class="TextEmbeddedBitmaps"/>
 <g>
  <g id="id2" class="Master_Slide">
   <g id="bg-id2" class="Background"/>
   <g id="bo-id2" class="BackgroundObjects"/>
  </g>
 </g>
 <g class="SlideGroup">
  <g>
   <g id="container-id1">
    <g id="id1" class="Slide" clip-path="url(#presentation_clip_path)">
     <g class="Page">
      <g class="com.sun.star.drawing.PolyPolygonShape">
       <g id="id3">
        <rect class="BoundingBox" stroke="none" fill="none" x="0" y="0" width="22579" height="22579"/>
        <path fill="rgb(235,161,33)" stroke="none" d="M 0,22578 L 22578,22578 22578,0 0,0 0,22578 Z"/>
       </g>
      </g>
      <g class="com.sun.star.drawing.ClosedBezierShape">
       <g id="id4">
        <rect class="BoundingBox" stroke="none" fill="none" x="7033" y="12012" width="4354" height="5099"/>
        <path fill="rgb(255,255,255)" stroke="none" d="M 9291,13300 C 9091,13300 8924,13375 8788,13524 8652,13674 8571,13872 8547,14118 L 10034,14118 C 9998,13872 9918,13674 9794,13524 9670,13375 9502,13300 9291,13300 Z M 9327,12012 C 9774,12012 10152,12126 10460,12352 10769,12578 11001,12881 11155,13260 11309,13639 11386,14065 11386,14537 L 11386,15005 8566,15005 C 8698,15571 9085,15853 9726,15853 10143,15853 10557,15727 10969,15474 L 11368,16561 C 11162,16727 10910,16860 10610,16960 10311,17060 9983,17110 9626,17110 8822,17110 8189,16887 7727,16441 7264,15996 7033,15378 7033,14586 7033,14068 7130,13614 7323,13225 7517,12836 7787,12536 8135,12327 8482,12117 8880,12012 9327,12012 Z"/>
       </g>
      </g>
      <g class="com.sun.star.drawing.ClosedBezierShape">
       <g id="id5">
        <rect class="BoundingBox" stroke="none" fill="none" x="12012" y="11997" width="2762" height="5114"/>
        <path fill="rgb(255,255,255)" stroke="none" d="M 14374,13489 L 14773,11998 14773,11997 C 14536,11997 14271,12073 13977,12224 13684,12375 13425,12545 13201,12735 L 12780,12008 12012,12008 12012,17110 13517,17110 13517,14053 C 13748,13836 14008,13658 14298,13521 14324,13509 14348,13500 14374,13489 Z"/>
       </g>
      </g>
      <g class="com.sun.star.drawing.PolyPolygonShape">
       <g id="id6">
        <rect class="BoundingBox" stroke="none" fill="none" x="2680" y="11997" width="4446" height="5114"/>
        <path fill="rgb(255,255,255)" stroke="none" d="M 3637,11997 L 7125,11997 6859,12926 4760,15803 6870,15803 6523,17110 2681,17110 2901,16245 5009,13316 3284,13316 3637,11997 Z"/>
       </g>
      </g>
      <g class="com.sun.star.drawing.ClosedBezierShape">
       <g id="id7">
        <rect class="BoundingBox" stroke="none" fill="none" x="14758" y="11552" width="4073" height="5626"/>
        <path fill="rgb(255,255,255)" stroke="none" d="M 18118,13926 C 17774,15455 16652,16217 16248,16381 15956,16501 15599,16626 15439,16541 15435,16538 15428,16535 15423,16528 15406,16506 15398,16448 15483,16261 15669,15851 15758,15423 15773,14872 15775,14764 15774,14653 15772,14535 15763,14030 15753,13459 16132,12820 16439,12302 16853,12193 17147,12193 17322,12193 17451,12232 17476,12241 L 17495,12246 C 17505,12249 17737,12319 17926,12543 18190,12857 18255,13322 18118,13926 Z M 17680,11628 C 17539,11582 16326,11241 15581,12499 15107,13298 15120,13996 15129,14558 15131,14668 15133,14771 15130,14866 15118,15333 15049,15673 14899,16004 14804,16213 14552,16767 15102,17061 15244,17137 15413,17176 15605,17176 15862,17176 16157,17108 16482,16975 17094,16726 18354,15795 18746,14058 18978,13027 18685,12423 18398,12097 18100,11760 17751,11648 17680,11628 Z"/>
       </g>
      </g>
      <g class="com.sun.star.drawing.ClosedBezierShape">
       <g id="id8">
        <rect class="BoundingBox" stroke="none" fill="none" x="17661" y="10788" width="690" height="830"/>
        <path fill="rgb(255,255,255)" stroke="none" d="M 18350,11040 C 18350,11040 18253,10873 18158,10788 18158,10788 17786,11068 17661,11540 17661,11540 17773,11567 17866,11617 17866,11617 18008,11277 18350,11040 Z"/>
       </g>
      </g>
      <g class="com.sun.star.drawing.ClosedBezierShape">
       <g id="id9">
        <rect class="BoundingBox" stroke="none" fill="none" x="18013" y="11000" width="2096" height="867"/>
        <path fill="rgb(255,255,255)" stroke="none" d="M 18801,11048 C 18168,11206 18013,11687 18013,11687 18229,11692 18407,11759 18471,11783 18536,11807 18943,11969 19468,11759 19995,11548 20108,11123 20108,11123 19547,11171 19433,10891 18801,11048 Z"/>
       </g>
      </g>
      <g class="com.sun.star.drawing.ClosedBezierShape">
       <g id="id10">
        <rect class="BoundingBox" stroke="none" fill="none" x="2681" y="6366" width="4959" height="3053"/>
        <path fill="rgb(51,51,51)" stroke="none" d="M 7564,7480 L 7044,9418 6180,9418 6665,7608 C 6705,7458 6715,7343 6693,7264 6672,7185 6604,7145 6490,7145 6412,7145 6319,7169 6211,7215 6103,7262 5979,7324 5840,7401 L 5819,7480 5300,9418 4436,9418 4921,7608 C 4961,7458 4971,7343 4949,7264 4928,7185 4860,7145 4746,7145 4668,7145 4574,7169 4464,7215 4354,7262 4229,7324 4091,7401 L 3550,9418 2681,9418 3473,6463 4010,6463 4076,6774 C 4271,6652 4469,6554 4670,6479 4871,6403 5051,6366 5210,6366 5571,6366 5790,6494 5865,6750 6054,6636 6245,6544 6438,6472 6630,6401 6804,6366 6959,6366 7280,6366 7486,6462 7575,6655 7663,6848 7660,7123 7564,7480 Z"/>
       </g>
      </g>
      <g class="com.sun.star.drawing.ClosedBezierShape">
       <g id="id11">
        <rect class="BoundingBox" stroke="none" fill="none" x="7716" y="6372" width="2694" height="3114"/>
        <path fill="rgb(51,51,51)" stroke="none" d="M 8897,8170 C 8804,8170 8721,8200 8648,8261 8574,8322 8525,8399 8500,8492 8480,8565 8487,8628 8521,8681 8555,8734 8611,8760 8688,8760 8851,8760 9028,8683 9221,8529 L 9317,8170 8897,8170 Z M 9187,7188 C 9080,7188 8953,7206 8807,7243 8660,7279 8528,7324 8411,7377 L 8374,6646 C 8516,6573 8701,6509 8930,6454 9158,6399 9358,6372 9528,6372 9754,6372 9940,6421 10087,6518 10234,6616 10332,6753 10378,6929 10425,7106 10418,7308 10357,7535 L 9853,9418 9370,9418 9249,9107 C 8982,9359 8729,9485 8489,9485 8164,9485 7942,9397 7823,9220 7704,9044 7686,8803 7767,8498 7848,8198 8001,7973 8226,7822 8450,7671 8723,7596 9044,7596 L 9466,7596 C 9494,7466 9483,7366 9433,7295 9383,7224 9301,7188 9187,7188 Z"/>
       </g>
      </g>
      <g class="com.sun.star.drawing.ClosedBezierShape">
       <g id="id12">
        <rect class="BoundingBox" stroke="none" fill="none" x="10405" y="6366" width="3282" height="3053"/>
        <path fill="rgb(51,51,51)" stroke="none" d="M 12515,7145 C 12360,7145 12127,7231 11815,7401 L 11274,9418 10405,9418 11196,6463 11734,6463 11800,6774 C 11995,6652 12198,6554 12408,6479 12618,6403 12808,6366 12978,6366 13310,6366 13523,6470 13617,6680 13710,6889 13709,7174 13612,7535 L 13108,9418 12238,9418 12723,7608 C 12761,7466 12763,7354 12730,7270 12697,7187 12625,7145 12515,7145 Z"/>
       </g>
      </g>
      <g class="com.sun.star.drawing.ClosedBezierShape">
       <g id="id13">
        <rect class="BoundingBox" stroke="none" fill="none" x="13321" y="6372" width="3694" height="4448"/>
        <path fill="rgb(51,51,51)" stroke="none" d="M 15586,8553 L 15924,7293 C 15818,7191 15691,7140 15544,7140 15381,7140 15231,7213 15092,7360 14953,7506 14852,7699 14788,7938 14722,8182 14721,8374 14783,8514 14845,8654 14965,8724 15142,8724 15264,8724 15412,8667 15586,8553 Z M 16193,9534 C 16123,9794 16002,10021 15830,10216 15658,10411 15448,10560 15200,10664 14953,10767 14686,10819 14398,10819 14250,10819 14063,10788 13835,10727 13608,10667 13436,10583 13321,10478 L 13761,9808 C 14016,9970 14280,10052 14553,10052 14742,10052 14907,10004 15049,9908 15190,9813 15282,9686 15325,9528 L 15369,9363 C 15181,9444 15006,9485 14844,9485 14426,9485 14130,9351 13955,9083 13779,8815 13757,8436 13889,7944 14021,7453 14249,7068 14575,6790 14900,6511 15279,6372 15711,6372 15836,6372 15956,6399 16071,6454 16185,6509 16284,6587 16368,6690 L 16570,6469 17014,6469 16193,9534 Z"/>
       </g>
      </g>
      <g class="com.sun.star.drawing.ClosedBezierShape">
       <g id="id14">
        <rect class="BoundingBox" stroke="none" fill="none" x="16992" y="6372" width="3118" height="3114"/>
        <path fill="rgb(51,51,51)" stroke="none" d="M 19133,7944 C 19194,7716 19191,7529 19125,7383 19059,7237 18940,7164 18766,7164 18585,7164 18422,7234 18278,7374 18133,7514 18030,7700 17968,7932 17906,8164 17909,8349 17977,8489 18044,8629 18167,8699 18344,8699 18521,8699 18682,8630 18826,8492 18970,8354 19072,8172 19133,7944 Z M 18128,9485 C 17836,9485 17596,9425 17406,9305 17217,9186 17091,9009 17030,8776 16968,8542 16982,8261 17070,7932 17156,7614 17294,7338 17484,7103 17675,6867 17898,6687 18155,6561 18412,6435 18685,6372 18973,6372 19264,6372 19505,6434 19695,6558 19885,6682 20011,6861 20071,7097 20132,7332 20118,7614 20030,7944 19945,8261 19808,8535 19619,8766 19429,8998 19205,9176 18947,9299 18689,9423 18416,9485 18128,9485 Z"/>
       </g>
      </g>
     </g>
    </g>
   </g>
  </g>
 </g>
</svg>