<svg xmlns="http://www.w3.org/2000/svg" viewBox="0 0 429.72 76.45"><defs><style>.cls-1{fill:#eba121;}.cls-2{fill:#333;}</style></defs><title>p-mango</title><g id="Layer_2" data-name="Layer 2"><g id="Layer_1-2" data-name="Layer 1"><path class="cls-1" d="M333.47,10.93a16.65,16.65,0,0,1,10.12,3,18.4,18.4,0,0,1,6.19,8.1,30,30,0,0,1,2.06,11.4v4.18H326.67q1.78,7.57,10.36,7.57a21,21,0,0,0,11.09-3.38l3.56,9.7a21.37,21.37,0,0,1-6.76,3.56,27.67,27.67,0,0,1-8.78,1.34q-10.77,0-17-6T313,33.9a27,27,0,0,1,2.59-12.15,18.93,18.93,0,0,1,7.25-8A20.2,20.2,0,0,1,333.47,10.93Zm-.32,11.49a5.83,5.83,0,0,0-4.49,2,8.93,8.93,0,0,0-2.15,5.3h13.28a10.57,10.57,0,0,0-2.14-5.3A5.53,5.53,0,0,0,333.15,22.42Z"/><path class="cls-1" d="M378.52,24.11l3.56-13.3h0a15.82,15.82,0,0,0-7.1,2,36.48,36.48,0,0,0-6.93,4.56l-3.77-6.49h-6.84V56.43h13.43V29.15a26.56,26.56,0,0,1,7-4.75C378.08,24.29,378.3,24.21,378.52,24.11Z"/><polygon class="cls-1" points="282.67 10.8 313.8 10.8 311.43 19.08 292.69 44.77 311.52 44.77 308.43 56.43 274.13 56.43 276.1 48.72 294.92 22.56 279.51 22.56 282.67 10.8"/><path class="cls-1" d="M408,7.5C406.78,7.09,396,4,389.3,15.28c-4.22,7.13-4.12,13.37-4,18.37,0,1,0,1.9,0,2.75a24.88,24.88,0,0,1-2.07,10.16c-.85,1.86-3.09,6.81,1.81,9.44a9.4,9.4,0,0,0,4.49,1,21.15,21.15,0,0,0,7.84-1.79c5.46-2.23,16.71-10.54,20.2-26.05,2.07-9.19-.55-14.59-3.11-17.49A14.13,14.13,0,0,0,408,7.5ZM412,28c-3.08,13.64-13.1,20.44-16.7,21.91-2.61,1.07-5.8,2.19-7.22,1.43a.42.42,0,0,1-.14-.11c-.15-.2-.22-.72.53-2.39A30.68,30.68,0,0,0,391,36.45c0-1,0-2,0-3-.08-4.5-.17-9.6,3.22-15.31,2.74-4.63,6.44-5.6,9.06-5.6a9.91,9.91,0,0,1,2.94.43l.17.05a8.73,8.73,0,0,1,3.85,2.65C412.59,18.47,413.17,22.63,412,28Z"/><path class="cls-1" d="M414,2.25A11.59,11.59,0,0,0,412.32,0a13.54,13.54,0,0,0-4.44,6.7,8.77,8.77,0,0,1,1.84.69A13.21,13.21,0,0,1,414,2.25Z"/><path class="cls-1" d="M418.06,2.32C412.41,3.73,411,8,411,8a12.64,12.64,0,0,1,4.1.86,12.11,12.11,0,0,0,8.9-.21A9.4,9.4,0,0,0,429.72,3C424.72,3.42,423.7.92,418.06,2.32Z"/><path class="cls-2" d="M73.6,26.13l-7.82,29.2h-13l7.31-27.27a10.69,10.69,0,0,0,.43-5.19q-.48-1.79-3.07-1.79a11,11,0,0,0-4.21,1.06q-2.46,1.06-5.59,2.8l-.32,1.19-7.82,29.2h-13l7.31-27.27a10.71,10.71,0,0,0,.43-5.19q-.48-1.79-3.07-1.79a11.3,11.3,0,0,0-4.25,1.06,59.86,59.86,0,0,0-5.63,2.8L13.11,55.33H0L11.93,10.79H20l1,4.68A50,50,0,0,1,30,11a23.59,23.59,0,0,1,8.14-1.7q8.18,0,9.89,5.78a51.22,51.22,0,0,1,8.63-4.18A23,23,0,0,1,64.5,9.32q7.26,0,9.27,4.36T73.6,26.13Z"/><path class="cls-2" d="M98.08,21.72a24.16,24.16,0,0,0-5.73.83,35.61,35.61,0,0,0-6,2l-.55-11a37.63,37.63,0,0,1,8.37-2.89,39.43,39.43,0,0,1,9-1.24,15,15,0,0,1,8.43,2.2,10.35,10.35,0,0,1,4.39,6.2,17.68,17.68,0,0,1-.32,9.14l-7.6,28.37h-7.26L99,50.64q-6,5.7-11.46,5.69-7.35,0-10-4t-.84-10.88a17,17,0,0,1,6.91-10.19,21.71,21.71,0,0,1,12.35-3.4h6.34a5.75,5.75,0,0,0-.49-4.54A4.18,4.18,0,0,0,98.08,21.72ZM93.7,36.5a5.72,5.72,0,0,0-3.75,1.38,6.66,6.66,0,0,0-2.23,3.49A3.42,3.42,0,0,0,88,44.22a2.76,2.76,0,0,0,2.52,1.19q3.67,0,8-3.49L100,36.5Z"/><path class="cls-2" d="M148.25,21.08q-3.51,0-10.55,3.86l-8.14,30.39H116.45l11.93-44.54h8.1l1,4.68A47.39,47.39,0,0,1,146.65,11a25.84,25.84,0,0,1,8.59-1.7q7.51,0,9.63,4.73T164.79,27l-7.6,28.37H144.08l7.31-27.27a8.29,8.29,0,0,0,.11-5.1A3.12,3.12,0,0,0,148.25,21.08Z"/><path class="cls-2" d="M203.72,57.07a25.14,25.14,0,0,1-5.47,10.28,25.73,25.73,0,0,1-9.49,6.75,31,31,0,0,1-12.1,2.34,34.11,34.11,0,0,1-8.48-1.38,18.52,18.52,0,0,1-7.76-3.76L167,61.2a22,22,0,0,0,12,3.67,13.07,13.07,0,0,0,7.47-2.16A9.8,9.8,0,0,0,190.64,57l.66-2.48a20.08,20.08,0,0,1-7.92,1.84q-9.43,0-13.4-6.06T169,33.1Q172,22,179.32,15.7a25.57,25.57,0,0,1,17.13-6.29,12.43,12.43,0,0,1,5.43,1.24,13.06,13.06,0,0,1,4.48,3.54l3.06-3.31h6.68Zm-9.15-14.78,5.09-19a8,8,0,0,0-5.73-2.3,9.3,9.3,0,0,0-6.81,3.31A19.86,19.86,0,0,0,182.53,33q-1.48,5.51-.07,8.68t5.41,3.17Q190.63,44.86,194.57,42.29Z"/><path class="cls-2" d="M232.88,56.34A20,20,0,0,1,222,53.63a12.91,12.91,0,0,1-5.67-8q-1.38-5.28.61-12.72a33.29,33.29,0,0,1,6.23-12.49,29.78,29.78,0,0,1,10.12-8.17,27.68,27.68,0,0,1,12.33-2.85,19.59,19.59,0,0,1,10.89,2.8,13.25,13.25,0,0,1,5.67,8.13q1.37,5.33-.62,12.76a32.62,32.62,0,0,1-6.2,12.4,29.39,29.39,0,0,1-10.12,8A28.22,28.22,0,0,1,232.88,56.34ZM248,33.1q1.38-5.14-.12-8.45a5.43,5.43,0,0,0-5.42-3.31,10.32,10.32,0,0,0-7.36,3.17,17.82,17.82,0,0,0-4.67,8.4q-1.4,5.23.13,8.4t5.54,3.17a10.26,10.26,0,0,0,7.26-3.12A17.38,17.38,0,0,0,248,33.1Z"/></g></g></svg>