<svg xmlns="http://www.w3.org/2000/svg" viewBox="0 0 750.66 342.89"><defs><style>.cls-1{fill:#005496;}.cls-2{fill:#ed1c24;}</style></defs><title>p-nia</title><g id="Layer_2" data-name="Layer 2"><g id="Layer_1-2" data-name="Layer 1"><path class="cls-1" d="M622.88,152l-71.7,118.52H501.24s87.25-145.54,89-148.84a10.64,10.64,0,0,0-.79-12.14h65.32l95.94,161H692.5s5.56-4.91.73-12.86C691.11,254,629,151.95,629,151.95s-1.45-2.95-3-2.95S622.88,152,622.88,152Z"/><path class="cls-1" d="M278.23,109s4.49,5.65,1.24,12.32c-1.16,2.57-53.18,88.36-53.18,88.36s-1.63,2.93-4.56,2.87a5.29,5.29,0,0,1-4.4-2.62L155.59,109.5H87.84a10.46,10.46,0,0,1,1.24,11.82C87.38,124.6,0,270.47,0,270.47H49.72l70.78-117.6s1.61-2.77,3.16-2.77,3.12,2.75,3.12,2.75l69,109.94a20.54,20.54,0,0,0,6.13,5.59,23.88,23.88,0,0,0,10.26,2.08h27s2.44-4.33,5-8.69C246.53,258,335.89,109,335.89,109Z"/><path class="cls-1" d="M24.29,311.61a8.14,8.14,0,0,1,2,5.39v25.43H21.48V323.1c-2.17,1.62-5.87,2.4-10,3.22-3.46.84-6.62,3-6.35,6.91.4,4.87,6,6.35,11.88,5.38l-2.58,3.83C6.2,343.4,0,339.89,0,333c0-5.13,4.48-8.9,10.23-10.16,4.58-1,11-1.66,11-6.31,0-3.12-3.1-5.51-7-5.51-4.41,0-7.34,2.55-7.64,5.63H1.11c.75-5,6-9,12.83-9a20.58,20.58,0,0,1,7.59,1.43c1.65.56,4.69-.92,4-3.63h5.75C31,309,27.94,311,24.29,311.61Z"/><path class="cls-1" d="M20,304.23c-2.94,0-5.31-1.83-5.31-4.58s2.38-4.59,5.31-4.59,5.32,1.82,5.32,4.59S23,304.23,20,304.23Zm0-6.52a1.94,1.94,0,0,0-2.09,1.94,2,2,0,0,0,2.09,2,2,2,0,0,0,2.11-2A2,2,0,0,0,20,297.71Zm33.67,44.73V318.79c0-4.71-1.92-7.76-6.64-7.76-4,0-6.65,2.91-6.65,5.63h-5c.38-4.47,4.72-9,11.57-9,7.52,0,11.58,3.72,11.58,10.38v24.4Z"/><path class="cls-1" d="M94.55,342.44A3.26,3.26,0,0,1,93,339.51v-1.83c-1,2.1-3.66,5.21-9.83,5.21S71.86,339,71.86,332V308h4.85v23c0,5.54,3.08,8.41,8.12,8.41A7.8,7.8,0,0,0,93,331.26V308h4.86v30.42c0,2.08,1.09,3.08,2.47,4Z"/><path class="cls-1" d="M91.17,304.23v-7h4.9v3.58h15.32v3.4Z"/><path class="cls-1" d="M134.6,342.44V318.2c0-4.12-3.18-7.16-8-7.16a9,9,0,0,0-8.26,4.77l3.57,2.39a4.69,4.69,0,0,0-3.57,4.3v19.95h-4.88V323.05a5,5,0,0,1,3.17-4.46l-3.78-2.46c1.38-4.13,6.33-8.47,13.76-8.47s13,3.95,13,10.3v24.48Z"/><path class="cls-1" d="M168.66,342.44H158.6l-7.54-33.13,4.64-1.28,7.16,31h4c5.25,0,6.93-3.62,6.93-14.69,0-10.91-2.17-12.82-8-12.82h-2.72l2.34-3.49h3c8.69,0,10.15,5.27,10.15,16.09C178.6,336.93,175.91,342.44,168.66,342.44Z"/><path class="cls-1" d="M208.8,342.44V318.79c0-4.71-1.93-7.76-6.55-7.76-4.16,0-6.75,2.91-6.75,5.63h-5c.42-4.47,4.71-9,11.61-9,7.56,0,11.54,3.72,11.54,10.38v24.4Z"/><path class="cls-1" d="M249.69,342.44a3.21,3.21,0,0,1-1.52-2.92v-1.83c-1,2.1-3.7,5.21-9.78,5.21S227,339,227,332V308h4.84v23c0,5.54,3.13,8.41,8.18,8.41a7.8,7.8,0,0,0,8.18-8.16V308H253v30.42a4.35,4.35,0,0,0,2.44,4Z"/><path class="cls-1" d="M289,342.44a3.21,3.21,0,0,1-1.56-2.92v-1.83c-1,2.1-3.69,5.21-9.82,5.21S266.27,339,266.27,332V308h4.93v23c0,5.54,3.07,8.41,8.12,8.41a7.79,7.79,0,0,0,8.16-8.16V308h4.85v30.42c0,2.08,1.18,3.08,2.51,4Z"/><path class="cls-1" d="M316.94,342.89c-7.08,0-12.19-3.73-12.68-9.87h5c.5,4.33,3.72,6.4,7.67,6.4,5.4,0,8.37-3.86,8.37-14.16s-3-14.23-8.37-14.23a7.54,7.54,0,0,0-7.31,5.63h-5.06c1-5.28,6.12-9,12.37-9,8.61,0,13.29,5.07,13.29,17.6S325.55,342.89,316.94,342.89Z"/><path class="cls-1" d="M308.63,304.23v-7h4.9v3.58h15.32v3.4Z"/><path class="cls-1" d="M364.09,342.44v-25.9c0-2.74-1.53-4.4-2.78-4.77a6.49,6.49,0,0,1-6,3.34,6.39,6.39,0,0,1-5.88-3.34c-1.25.37-2.74,2-2.74,4.77V335l8.55-12.66H350l1.52-3.44h8.75v3.44l-13.51,20.13H341.8V315.81c0-4.67,3.64-8.14,9.23-8.14a4,4,0,0,0,4.3,3.65c2.85,0,4.44-2,4.44-3.65,5.55,0,9.07,3.48,9.07,8.14v26.63Z"/><path class="cls-1" d="M403.84,342.44V318.2c0-4.12-3.14-7.16-8.07-7.16a9,9,0,0,0-8.25,4.77l3.62,2.39a4.7,4.7,0,0,0-3.62,4.3v19.95h-4.86V323.05a4.92,4.92,0,0,1,3.18-4.46L382,316.13c1.39-4.13,6.33-8.47,13.74-8.47s13,3.95,13,10.3v24.48Z"/><path class="cls-1" d="M434.77,342.89c-7.79,0-13.44-3.87-13.21-10.94h5.28c-.51,4.41,3.4,7.4,7.71,7.4s7.9-2.6,7.9-6.29c0-4.07-3.94-6.14-8.74-7.18-5.91-1.28-11.18-3.57-11.18-8.87,0-5.69,5.71-9.34,12-9.34s11.57,3.57,12,9h-5c-.13-3.19-3.41-5.62-7.07-5.62s-7,2.39-7,5.42c0,3.89,3.89,5.07,9.42,6.21,6,1.3,10.51,4.32,10.51,9.75C447.51,339.28,442.16,342.89,434.77,342.89Z"/><path class="cls-1" d="M473,342.89c-7.83,0-13.42-3.87-13.23-10.94h5.35c-.59,4.41,3.39,7.4,7.66,7.4s7.88-2.6,7.88-6.29c0-4.07-4-6.14-8.72-7.18-5.94-1.28-11.13-3.57-11.13-8.87,0-5.69,5.64-9.34,12-9.34s11.51,3.57,12,9h-5c-.18-3.19-3.39-5.62-7-5.62s-7,2.39-7,5.42c0,3.89,3.85,5.07,9.38,6.21,6,1.3,10.54,4.32,10.54,9.75C485.75,339.28,480.46,342.89,473,342.89Z"/><path class="cls-1" d="M514.07,342.89a12.32,12.32,0,0,1-10.3-5.25v1.88a3.07,3.07,0,0,1-1.52,2.92h-5.78a4.26,4.26,0,0,0,2.47-4V308h4.83v23.23c0,4.67,5.35,8.16,9.1,8.16,4.12,0,7.26-2.67,7.26-7.12V308H525v25C525,339,520,342.89,514.07,342.89Z"/><path class="cls-1" d="M545.77,342.44h-6.52V308H544v31h4.25Zm11.36,0h-6.5V308h4.8v31h4.25Z"/><path class="cls-1" d="M592.39,342.44V319.15c0-2.61-.55-4.55-2.5-4.55-1.73,0-2.52,1.63-3.6,4L576,342.44h-4.88V312c0-2-1-3-2.45-4h5.79a3.32,3.32,0,0,1,1.54,3V332.3L583,316.4c.9-2.23,2.18-4,4.42-4.44h-4.65V308h14.5V312h-5.38c3.52.77,5.38,3.25,5.38,6.91v23.56Z"/><path class="cls-1" d="M591.21,304.23v-8.6h4.85v8.6Z"/><path class="cls-1" d="M627.18,342.44h-10l-7.56-33.13,4.7-1.28,7.16,31h4c5.14,0,6.85-3.62,6.85-14.69,0-10.91-2.11-12.82-7.85-12.82h-2.84L624,308h3c8.75,0,10.2,5.27,10.2,16.09C637.2,336.93,634.44,342.44,627.18,342.44Z"/><path class="cls-1" d="M662.61,342.89c-7.06,0-12.09-3.47-12.09-9.51V308h4.83v25c0,4.58,3.12,6.36,7.26,6.36s7.14-1.78,7.14-6.36v-9c0-3.32-2.93-5.62-7.49-5.62h-3.07V315h3.07c4.3,0,7.49-1.67,7.49-4.74V308h4.83v2.43c0,3.82-3.35,5.77-8,6.2,4.85,0,8,3,8,6.7v10C674.58,339.42,669.66,342.89,662.61,342.89Z"/><path class="cls-1" d="M704.81,342.44V318.79c0-4.71-1.94-7.76-6.64-7.76-4.1,0-6.68,2.91-6.68,5.63h-4.89c.36-4.47,4.59-9,11.49-9,7.57,0,11.57,3.72,11.57,10.38v24.4Z"/><path class="cls-1" d="M745.6,342.44v-25.9c0-2.74-1.48-4.4-2.81-4.77a6.86,6.86,0,0,1-11.78,0c-1.33.37-2.78,2-2.78,4.77V335l8.49-12.66h-5.22l1.48-3.44h8.81v3.44l-13.56,20.13h-4.82V315.81c0-4.67,3.56-8.14,9.1-8.14,0,1.69,1.64,3.65,4.38,3.65s4.4-2,4.4-3.65c5.58,0,9.07,3.48,9.07,8.14v26.63Z"/><path class="cls-1" d="M725.66,304.23v-3.4h24.55v3.4Z"/><path class="cls-2" d="M440.93,0c0,28.2,22.59,51,50.33,51v.42c-27.74,0-50.33,22.9-50.33,51.17l-.41,0c0-28.22-22.53-51.05-50.41-51.05v-.39C418,51.14,440.52,28.2,440.52,0Z"/><path class="cls-1" d="M380.33,127.36l-3.24,14s56.15-22.4,32.41,18.83-46.39,77-46.39,77S330,289.38,425.87,263.17l44.92-14.91,3.81-14.54S401.29,260,431,214l47-79.67s21.17-31.48-19.81-24.92A544.57,544.57,0,0,0,380.33,127.36Z"/></g></g></svg>