<svg xmlns="http://www.w3.org/2000/svg" xmlns:xlink="http://www.w3.org/1999/xlink" viewBox="0 0 410.13 210.48"><defs><style>.cls-1{fill:#ed136f;}.cls-2{fill:#00527e;}.cls-3{fill:url(#linear-gradient);}.cls-4{fill:url(#linear-gradient-2);}</style><linearGradient id="linear-gradient" x1="116.53" y1="188.39" x2="129.73" y2="88.49" gradientUnits="userSpaceOnUse"><stop offset="0" stop-color="#f37448"/><stop offset="0.11" stop-color="#f26b59"/><stop offset="0.34" stop-color="#f05d75"/><stop offset="0.56" stop-color="#ee528a"/><stop offset="0.78" stop-color="#ed4c96"/><stop offset="1" stop-color="#ed4a9a"/></linearGradient><linearGradient id="linear-gradient-2" x1="155.38" y1="173.95" x2="146.9" y2="122.11" gradientUnits="userSpaceOnUse"><stop offset="0" stop-color="#008b88"/><stop offset="0.12" stop-color="#047581"/><stop offset="0.27" stop-color="#08607b"/><stop offset="0.45" stop-color="#0b5276"/><stop offset="0.66" stop-color="#0d4a74"/><stop offset="1" stop-color="#0d4773"/></linearGradient></defs><title>p-startup</title><g id="Layer_2" data-name="Layer 2"><g id="Layer_1-2" data-name="Layer 1"><path class="cls-1" d="M72.21,85.1q-4.58,4.73-12.14,4.73-8.44,0-13.24-5.09T42,70.92l10.47-1.6q0,10.33,7.13,10.33,6.69,0,6.69-6.68a12.12,12.12,0,0,0-2.76-7.4q-1.75-2.18-7-7.4-3.78-3.63-6.18-6.31t-3.56-4.28A20.4,20.4,0,0,1,43,35.82a17.11,17.11,0,0,1,4.8-12.19,16.52,16.52,0,0,1,12.07-5.08q7.56,0,11.93,4.66t4.36,12.21L65.59,36.88q0-8.58-6-8.58t-5.82,6.4q0,4.8,4.65,10.18,1.75,2,6.11,6.11,6.84,6.4,8.87,9.89a22.63,22.63,0,0,1,3.35,11.93Q76.79,80.38,72.21,85.1Z"/><path class="cls-1" d="M107.19,29.46V88.38H96.14V29.46H85.08V19.72h33.31v9.75Z"/><path class="cls-1" d="M182.73,88.38,176,59.43h-5.24V88.38H159.75V19.57H175.9q9.45,0,13.38,5.38,3.49,4.8,3.49,14.55,0,12.22-6.84,16.87l7.85,32Zm-2-56.29q-1.6-2.62-6-2.62h-3.93V49.54h4.36q4.22,0,5.82-3.35a20.9,20.9,0,0,0,.87-7.13Q181.86,34.12,180.7,32.08Z"/><path class="cls-1" d="M227.81,29.46V88.38H216.76V29.46H205.7V19.72H239v9.75Z"/><path class="cls-1" d="M270.13,89.68q-16.73,0-16.73-18.91V19.57h11.05V72.81q0,6.55,5.67,6.55t5.53-6.55V19.57h11.06v51.5Q286.71,89.69,270.13,89.68Z"/><path class="cls-1" d="M335.58,53.32q-3.92,7.13-11.49,7.13h-7.42V88.38H305.62V19.57h16.15q9.46,0,13.38,5.38,3.49,4.8,3.49,14.55Q338.64,47.94,335.58,53.32Zm-8.87-20.95q-1.6-2.91-6.11-2.91h-3.93V50.56H321a5.84,5.84,0,0,0,5.82-3.49q.87-2.18.87-7.42T326.71,32.37Z"/><path class="cls-2" d="M26.87,109.62v71.59H13.43V109.62H0V97.78H40.48v11.84Z"/><path class="cls-2" d="M80.6,181.21V143.74H67.34v37.47H54.44V97.6h12.9v34.29H80.6V97.78H94v83.43Z"/><path class="cls-2" d="M174,181.21V97.6h13.43v83.61Z"/><path class="cls-2" d="M204.86,181.21V97.6h12.9v71.77h20.33v11.84Z"/><path class="cls-2" d="M281.33,181.21,278.5,163H265.25l-2.65,18.21H249.52L263.66,97.6H280.8l14,83.61Zm-8.84-64.87h-.71l-5,34.82h10.08Z"/><path class="cls-2" d="M338.13,181.21l-18.91-55.33q.7,3.71,1.06,6.63a43,43,0,0,1,.35,5v43.66h-12V97.6h11.67l19.26,58.86q-.7-3.89-1.06-6.63a37.15,37.15,0,0,1-.35-4.68V97.6h12v83.61Z"/><path class="cls-2" d="M405.87,175.2q-4.79,6-16.33,6H370.18V97.6h18.64q21.3,0,21.3,23v37.3Q410.13,169.72,405.87,175.2Zm-9.17-55.33q0-9.9-10.43-9.9h-3.18v58.86h6.72q6.89,0,6.89-8.66Z"/><polygon class="cls-3" points="131.28 0 95.46 210.48 130.02 196.03 148.87 81.05 131.28 0"/><polygon class="cls-4" points="138.16 146.39 148.87 81.05 168.72 177.81 145.1 174.04 138.16 146.39"/></g></g></svg>