<svg viewBox="0 0 537.05 243.65" xmlns="http://www.w3.org/2000/svg"><path d="m34.76 163.69a9.36 9.36 0 0 1 -5.92 3.45 6.87 6.87 0 0 1 -3.68-.18 15.86 15.86 0 0 1 -9-7.79q-3-5.7-4.95-15.84-9.21-48.89-11.06-55.1l-.08-.43a4.77 4.77 0 0 1 1.23-3.94 9.25 9.25 0 0 1 4.19-2.86 6.22 6.22 0 0 1 1.38-.41 7.71 7.71 0 0 1 4.28.29 3.67 3.67 0 0 1 2.37 2.54q2.17 7.58 11.26 55.89a40.56 40.56 0 0 0 4 12.3q2.51 4.42 4.38 5.08a3.89 3.89 0 0 1 2.75 3 5 5 0 0 1 -1.15 4zm34.3-7.62a9 9 0 0 1 -4.41 2.14 6.79 6.79 0 0 1 -5.28-.9q-7.11-5.23-10.63-24-9-47.89-10.82-53.68l-.08-.42a4.63 4.63 0 0 1 1.16-3.83 10.22 10.22 0 0 1 4.11-3 7.57 7.57 0 0 1 1.67-.38 6.74 6.74 0 0 1 4.09.4 4.31 4.31 0 0 1 2.43 2.46q1.79 5.65 7.7 37.06l3.28 17.47a65.92 65.92 0 0 0 2.72 10.37 34 34 0 0 0 2.88 6.38 9.09 9.09 0 0 0 2.12 2.46 3.49 3.49 0 0 1 1.45 2.4q.55 2.77-2.39 5.07z" fill="#3a3733"/><path d="m124.41 98.7a2.91 2.91 0 0 1 .74 1.8q.29 3.15-3.28 5.05-5.62 3.11-9.07 10.19a46.15 46.15 0 0 0 -4.38 13.43q-.93 6.35-1.4 13t-.56 7.25q-3.1 5.47-7.24 5.85-2.43.22-5-2.42-2.08-2.25-6.9-14.84a236.91 236.91 0 0 1 -8.17-25.52 55.44 55.44 0 0 1 -1.46-8.07 44.64 44.64 0 0 1 -.15-6.32 35.08 35.08 0 0 1 10.77-24.16 41 41 0 0 1 24.41-11.6l1.43-.13q15.84-1.45 27.48 7.7t13.22 26.42a49.27 49.27 0 0 1 .14 7.76q-.41 8.1-1.87 18.09t-2.59 15.82a58.67 58.67 0 0 1 -1.37 6.24q-1.32 4.44-6.89 4.95l-.71.06a5.85 5.85 0 0 1 -3.76-1 3.78 3.78 0 0 1 -1.57-3.81 241.67 241.67 0 0 0 5.65-38.8 68.25 68.25 0 0 0 -.07-7q-1.31-14.27-10-20.89t-18.81-5.75l-.86.08a25.07 25.07 0 0 0 -14.53 7.09q-6.28 6-6.83 17.32a33.14 33.14 0 0 0 .07 5.46 68.37 68.37 0 0 0 1.2 6.8 162.82 162.82 0 0 0 6 19.46q2.43-22.1 17.39-30.1a10 10 0 0 1 3.5-1q3.84-.42 5.47 1.59z" fill="#3a3733"/><path d="m229.34 146.1q-14.16-17.1-21.54-23.7-4.27-3.59-6.91-5.52 0 13.77-1 19.53-1.31 8.5-7.09 11.7a16.5 16.5 0 0 1 -7.4 1.81q-10.17.32-15.88-5.67t-6.05-16.87a25.3 25.3 0 0 1 .39-5.75 23.29 23.29 0 0 1 7.64-13.63q6.28-5.72 15.87-6h.43l-.49-15.48a63.52 63.52 0 0 0 -1.22-11.52q-1-4.49-2.2-6a3.16 3.16 0 0 0 -2.48-1.43 12.1 12.1 0 0 0 -5.67 2 9.18 9.18 0 0 1 -4.12 1.13 6.05 6.05 0 0 1 -4.49-1.29 3.15 3.15 0 0 1 -1.07-2.26q-.06-2.23 2.45-4.15a28.07 28.07 0 0 1 14.63-4.62 16.41 16.41 0 0 1 7.86 1.45 13.58 13.58 0 0 1 4.92 3.79 17 17 0 0 1 2.63 6.23 45.82 45.82 0 0 1 1.22 6.77q.23 2.72.38 7.44v.57q.13 4 .27 10.75t.23 9.46q.29.13.88.47c.39.23.68.39.88.47q4.66 2.43 14 10.89 9.32 9 11.85 12.1-.87-59.49-.88-64.51a5.07 5.07 0 0 1 2-3.65 7.82 7.82 0 0 1 4.6-1.87h.72a7 7 0 0 1 4.12 1 3.41 3.41 0 0 1 1.74 2.81v.14q0 12.48 1.06 79.42a5.55 5.55 0 0 1 -1.39 3.77 4.68 4.68 0 0 1 -3.6 1.83 13.09 13.09 0 0 1 -3.53-.39 16.19 16.19 0 0 1 -2.68-.85zm-41-34.71a17.58 17.58 0 0 0 -2.73-.2 10.16 10.16 0 0 0 -6.16 2.42q-2.87 2.32-3.7 7.65a22.21 22.21 0 0 0 -.15 4.31q.26 8.17 3.82 11.93t7.58 3.92q1.74-3.93 1.41-28z" fill="#3a3733"/><path d="m332.17 24.3h.71a7.29 7.29 0 0 1 4.34 1.38 3.79 3.79 0 0 1 1.78 3.21v.11q-1.16 20.91-2.2 69.77l-.55 26.08a22.74 22.74 0 0 1 -.37 4.15q-2.07 9.56-12.28 14.72t-24.6 4.9q-36.83-.78-36.46-18.12.18-8.31.82-24.93t.79-23.78a58.09 58.09 0 0 0 -.39-8.47 42.47 42.47 0 0 0 -1-5.76 4.91 4.91 0 0 0 -1.1-2.32 3.84 3.84 0 0 1 -1.23-2.75 5.09 5.09 0 0 1 3-4.38 9.81 9.81 0 0 1 5.33-1.32 6.61 6.61 0 0 1 4.56 1.53 13.34 13.34 0 0 1 4.34 8.19 82.85 82.85 0 0 1 .63 14.13q-.16 7.45-.8 24t-.81 24.71q-.1 4.59 5.31 6.64t19.3 2.34q18.34.39 20.56-9.6a17.52 17.52 0 0 0 .34-2.72l.56-26.23q1-48.72 2.2-69.92a5.47 5.47 0 0 1 2.3-3.82 8.18 8.18 0 0 1 4.92-1.74z" fill="#3a3733"/><path d="m313 33.2a8.13 8.13 0 0 1 -3.32.41q-3.86-.18-4.9-2.53a16.06 16.06 0 0 1 -1.77-8q.4-8.3 10-11.57 2.33-.75 8.29-2.4t8-2.41a4.72 4.72 0 0 0 3.15-2.86q1.84-4.05 6.55-3.84h.72q4.13.63 4 3.78a4.62 4.62 0 0 1 -.36 1.42q-2.36 6.1-10.36 9.45l-15.74 5.13a2.49 2.49 0 0 0 -1.69 2.36 10.64 10.64 0 0 0 1.48 5 2.57 2.57 0 0 1 .36 1.59q-.17 3.27-4.41 4.47z" fill="#3a3733"/><path d="m487.05 19.14q3.44 1.32 3.07 4.16a4.09 4.09 0 0 1 -1 2q-10.75 12.62-24 18.55t-24.94 4.45a18.39 18.39 0 0 1 -2.68-.49q-7.46-1.55-11.27-6.1a13.06 13.06 0 0 1 -3-10.51 16.87 16.87 0 0 1 2-6.11 5.28 5.28 0 0 1 3-2.5 9.21 9.21 0 0 1 4.63-.55l.71.09a5.37 5.37 0 0 1 3.1 1.71 3.53 3.53 0 0 1 .93 2.87 3.72 3.72 0 0 1 -.29 1.12 12.91 12.91 0 0 0 -1.39 4q-.76 5.83 6.13 7.3l1.14.15a26 26 0 0 0 9.27-.67q5.14-1.21 12.31-5.7a58.82 58.82 0 0 0 13.37-11.91q2.4-2.86 7.09-2.26a8.63 8.63 0 0 1 1.82.4z" fill="#f36c21"/><path d="m531.06 81.8.7.13a7.28 7.28 0 0 1 4.05 2.07 3.8 3.8 0 0 1 1.19 3.45v.14q-4.64 20.42-9.29 44.78l-3 15.48a23.85 23.85 0 0 1 -1.09 4.17q-3.62 8.98-14.27 12.38t-24.59.77q-35.48-6.79-32.22-23.82 1.56-8.16 5-24.44t4.75-23.32a57.94 57.94 0 0 0 1-8.41 43.16 43.16 0 0 0 0-5.85 4.94 4.94 0 0 0 -.7-2.47 3.84 3.84 0 0 1 -.75-2.92 5.08 5.08 0 0 1 3.65-3.83 9.81 9.81 0 0 1 5.48-.41 6.6 6.6 0 0 1 4.18 2.3 13.34 13.34 0 0 1 2.91 8.8 83 83 0 0 1 -1.74 14q-1.4 7.32-4.79 23.53t-4.93 24.23q-.86 4.51 3.84 7.38t18.22 5.46q9.57 1.83 14.39.27a10.45 10.45 0 0 0 6.75-6.3 18.15 18.15 0 0 0 .82-2.76l3-15.49q4.66-24.35 9.35-45.06a5.47 5.47 0 0 1 2.91-3.38 8.17 8.17 0 0 1 5.18-.88z" fill="#f36c21"/><path d="m423.71 117.65c.24-3.07.69-9.81.6-16.52-.14 2.81-.25 5.39-.24 6.74 0 .78-.16 4.83-.36 9.78z" fill="#f36c21"/><path d="m401.94 58.12c.24-2.15.28-4.47 2.1-4.22a39.56 39.56 0 0 1 4.21 1c2 .56 1 11.79 1 11.79l7.32 3.43c.8-8.12-.59-17.71-2.58-18.43-3.34-1.2-8.19-3.56-13.23-2.82-3.37.5-5.08 12.61-5.08 12.61l5.7 1.91s.18-1.82.56-5.27z" fill="#f36c21"/><path d="m364.15 96.89c1.19.54 3.16 1.34 5.49 2.25a34 34 0 0 1 5.4-8.37s.82-1.78 4.28-.81 3.51 2.58 3.51 2.58a81.53 81.53 0 0 0 -5.06 8.34 8.47 8.47 0 0 0 -.53 1.13 120.38 120.38 0 0 0 12.25 4c3 .48 10.63 1.34 12.58-5.91a72.08 72.08 0 0 1 5-14.15c.28-.59.54-1.07.72-1.42a14.82 14.82 0 0 1 3-3.5c2.08-1.81 5-3.5 8-3.28a4 4 0 0 1 .57.09 16.71 16.71 0 0 0 -5.74-5c-.49-.23-18.08-8.6-23.54-8.21h-.44.44s-12.41-.54-21.16 7.09c-4.57 4-8.85 11.4-11.71 18.61-.06 1.9 2.17 4.41 6.94 6.56z" fill="#f36c21"/><path d="m387.45 111.42c-2.4-.61-6.84-2.16-11.57-3.91-.93 2.85-.65 7.88-.65 7.88s-1.1 2.2-4.78 1.12c-3.14-.92-2.9-3.22-2.9-3.22a29.69 29.69 0 0 1 .5-8.78c-4.49-1.76-8.3-3.32-9.7-4a9.52 9.52 0 0 1 -3.69-2.87c-.09.4-.26 2-.35 2.44-4.83 23 1.25 33.39 1.58 35.53.45 2.88 12.39 9.65 24 14.81 6.74 3 14.49 3 17.57 3h.22c1.1-8.93 4-32.16 5.63-46.38-1.37 5.22-10.1 5.84-15.86 4.38z" fill="#f36c21"/><path d="m423.71 117.65c.21-5 .37-9 .36-9.78 0-1.35.1-3.93.24-6.74a62.09 62.09 0 0 0 -2.25-15.83c-1.82-5.72-8.68.83-10.78 5.11-2.18 4.43-7.51 56.83-8 62 4.54-.86 11-2.09 11.9-3.27a21 21 0 0 0 3.46-7c.37-1.41 4.15-2.49 4.15-2.49s.51-11.34.89-20.5l-.08.24s.02-.65.11-1.74z" fill="#f36c21"/><path d="m441.6 95.92s-.18-11.32-.24-13.52c-.16-5.32-3.77-22.63-20.9-10.72l4 5s11.68-9.14 10.49 14.45c-.1 2-.16 4.79-.1 21.65.07 18.63-7.19 18.24-7.19 18.24l-.21 7.91a46.41 46.41 0 0 0 5.6-1.5c4.05-1.39 8.29-8.07 9-18.25.25-4.03-.45-23.26-.45-23.26z" fill="#f36c21"/><path d="m386.86 60.59 3.63-.31.21-3 .86-2.44s-3.42 1.29-4.49 2.75-1.54 2.25-1.59 2.94 1.38.06 1.38.06z" fill="#f36c21"/><rect fill="#f36c21" height="62.03" rx="12" width="471.14" x="33.72" y="181.62"/><g fill="#fff"><path d="m87.34 229.87h-6.34l-3.45-18-1.56 9-1.56 9h-6.26l-6.86-35.42h6.89l3.41 19.14q.8-4.81 1.58-9.58t1.58-9.56h6.1l3.52 19.31q.49-2.9.88-5.2t.7-4.14q.31-1.84.55-3.27l.45-2.62.37-2.17q.17-1 .34-1.91h6.07z"/><path d="m120.28 229.87h-6.34l-3.45-18-1.56 9-1.56 9h-6.25l-6.86-35.42h6.89l3.41 19.14q.8-4.81 1.58-9.58t1.58-9.56h6.1l3.52 19.31q.49-2.9.88-5.2t.7-4.14q.31-1.84.55-3.27l.45-2.62.37-2.17q.17-1 .34-1.91h6.07z"/><path d="m153.22 229.87h-6.34l-3.45-18-1.56 9-1.56 9h-6.31l-6.86-35.42h6.89l3.41 19.14q.8-4.81 1.58-9.58t1.58-9.56h6.1l3.52 19.31q.49-2.9.88-5.2t.7-4.14q.31-1.84.55-3.27l.45-2.62.37-2.17q.17-1 .34-1.91h6.07z"/><path d="m163.23 229.93v-7.93h6.86v7.9z"/><path d="m197.51 217.84a24.94 24.94 0 0 1 -1.14 5.3 12.63 12.63 0 0 1 -2.11 3.93 8.68 8.68 0 0 1 -3.15 2.45 10.23 10.23 0 0 1 -4.28.84 8.63 8.63 0 0 1 -3.46-.68 9.41 9.41 0 0 1 -2.82-1.89 12.31 12.31 0 0 1 -2.19-2.9 19.33 19.33 0 0 1 -1.56-3.7 26.52 26.52 0 0 1 -.93-4.28 34.47 34.47 0 0 1 -.31-4.65 36.92 36.92 0 0 1 .29-4.7 27.79 27.79 0 0 1 .9-4.33 19.5 19.5 0 0 1 1.52-3.74 12.3 12.3 0 0 1 2.17-2.94 9.15 9.15 0 0 1 2.84-1.92 8.81 8.81 0 0 1 3.53-.69 9.86 9.86 0 0 1 4.37.91 8.84 8.84 0 0 1 3.18 2.61 13.48 13.48 0 0 1 2.08 4.12 27.56 27.56 0 0 1 1.06 5.42l-6.42 1a26.11 26.11 0 0 0 -.41-2.87 12.38 12.38 0 0 0 -.76-2.51 5.23 5.23 0 0 0 -1.21-1.78 2.51 2.51 0 0 0 -1.77-.67 2.19 2.19 0 0 0 -1.4.48 4.33 4.33 0 0 0 -1.07 1.32 8.75 8.75 0 0 0 -.77 2 21.71 21.71 0 0 0 -.5 2.44q-.2 1.31-.28 2.72t-.08 2.8q0 1.42.08 2.86t.29 2.78a19.71 19.71 0 0 0 .54 2.5 9.34 9.34 0 0 0 .83 2 4.39 4.39 0 0 0 1.15 1.36 2.58 2.58 0 0 0 3.2-.12 4.72 4.72 0 0 0 1.14-1.63 10.71 10.71 0 0 0 .7-2.3q.25-1.29.38-2.64z"/><path d="m216.65 229.87-2-8h-6.73l-.48 2-.49 2-.49 2q-.25 1-.47 2h-5.9l8.23-35.42h6.87l8.45 35.42zm-5.33-23.15-2 8.95h4z"/><path d="m244.93 194.45h8.69v35.42h-6.8v-19.7l-4.47 19.7h-4.18l-4.42-19.6v19.6h-6v-35.42h8.78l3.52 15.91q.06.24.15.76t.19 1.12q.1.6.18 1.18c.06.38.09.69.11.92 0-.22.07-.53.13-.92s.13-.79.2-1.19.14-.78.2-1.13.11-.58.14-.71z"/><path d="m266.46 217.36v12.51h-6.76v-35.42h10.7a9.72 9.72 0 0 1 4 .8 8.29 8.29 0 0 1 3 2.31 10.56 10.56 0 0 1 1.92 3.69 16.77 16.77 0 0 1 .67 4.92 14.54 14.54 0 0 1 -.78 5 9.45 9.45 0 0 1 -2.14 3.48 8.51 8.51 0 0 1 -3.23 2 12.08 12.08 0 0 1 -4.05.66zm6.13-11.27a8.81 8.81 0 0 0 -.2-1.93 4.45 4.45 0 0 0 -.62-1.51 3 3 0 0 0 -1.07-1 3.24 3.24 0 0 0 -1.55-.35h-2.69v9.6h2.83a2.89 2.89 0 0 0 1.48-.36 3 3 0 0 0 1-1 4.57 4.57 0 0 0 .6-1.53 9.3 9.3 0 0 0 .21-1.92z"/><path d="m297.6 229.87v-14.55h-6.42v14.56h-6.74v-35.43h6.74v14.55h6.42v-14.55h6.81v35.42z"/><path d="m330 218a22 22 0 0 1 -.23 3.22 14.87 14.87 0 0 1 -.73 2.92 10.89 10.89 0 0 1 -1.28 2.48 8.13 8.13 0 0 1 -1.87 1.93 8.37 8.37 0 0 1 -2.52 1.25 10.9 10.9 0 0 1 -3.23.44 11.51 11.51 0 0 1 -3.56-.5 8.11 8.11 0 0 1 -2.64-1.4 7.71 7.71 0 0 1 -1.83-2.14 12 12 0 0 1 -1.11-2.7 18.49 18.49 0 0 1 -.6-3.18 33.07 33.07 0 0 1 -.17-3.45v-22.42h6.91v22.42a22.52 22.52 0 0 0 .15 2.62 8.17 8.17 0 0 0 .54 2.19 3.74 3.74 0 0 0 1.07 1.49 2.67 2.67 0 0 0 1.75.55 2.83 2.83 0 0 0 1.72-.49 3.25 3.25 0 0 0 1-1.33 6.7 6.7 0 0 0 .5-1.93 19.21 19.21 0 0 0 .13-2.31v-23.21h6z"/><path d="m347.18 194.45a11.31 11.31 0 0 1 3.5.53 7.67 7.67 0 0 1 2.83 1.62 7.5 7.5 0 0 1 1.89 2.79 10.79 10.79 0 0 1 .69 4.05 12.69 12.69 0 0 1 -.29 2.7 9.56 9.56 0 0 1 -.87 2.43 7 7 0 0 1 -1.44 1.91 5 5 0 0 1 -2 1.14 5.54 5.54 0 0 1 2.15 1.07 7.42 7.42 0 0 1 1.66 1.9 9.39 9.39 0 0 1 1.07 2.53 11.34 11.34 0 0 1 .38 3 14 14 0 0 1 -.65 4.57 7.27 7.27 0 0 1 -1.91 3 7.54 7.54 0 0 1 -3.11 1.68 15.75 15.75 0 0 1 -4.24.52h-10.93v-35.44zm1.65 10.33a6.1 6.1 0 0 0 -.22-1.72 3.66 3.66 0 0 0 -.6-1.22 2.45 2.45 0 0 0 -.88-.72 2.49 2.49 0 0 0 -1.08-.24h-3.41v8h3.41a2.16 2.16 0 0 0 1.07-.28 2.71 2.71 0 0 0 .88-.81 4.23 4.23 0 0 0 .6-1.28 6 6 0 0 0 .23-1.72zm.79 14.68a5 5 0 0 0 -.28-1.7 4.54 4.54 0 0 0 -.74-1.34 3.47 3.47 0 0 0 -1-.88 2.44 2.44 0 0 0 -1.17-.32h-3.74v8.26h3.91a2.92 2.92 0 0 0 1.25-.27 2.61 2.61 0 0 0 1-.79 3.81 3.81 0 0 0 .62-1.26 6.12 6.12 0 0 0 .15-1.69z"/><path d="m361.54 229.93v-7.93h6.86v7.9z"/><path d="m374.93 229.87v-35.42h6.79v35.42z"/><path d="m408.47 194.45v35.42h-5.81l-7.82-19.25-.25-.55-.23-.53-.22-.55c-.07-.19-.14-.4-.21-.62q0 1.19 0 2.34t0 2.06v17.11h-6v-35.43h6.59l7.05 17.47.22.5.24.6.24.65.22.62q0-.49 0-.92c0-.29 0-.57 0-.84v-18.08z"/><path d="m414.82 229.93v-7.93h6.86v7.9z"/><path d="m439.34 201.6v28.27h-6.83v-28.27h-6.51v-7.15h19.9v7.15z"/><path d="m463.26 229.87v-14.55h-6.42v14.56h-6.74v-35.43h6.74v14.55h6.42v-14.55h6.81v35.42z"/></g></svg>