<svg xmlns="http://www.w3.org/2000/svg" viewBox="0 0 1061.4 485.2"><defs><style>.cls-1{fill:#652f8e;}.cls-2{fill:none;}.cls-3{fill:#38355c;}</style></defs><title>sp-pantip</title><g id="Layer_2" data-name="Layer 2"><g id="Layer_1-2" data-name="Layer 1"><path class="cls-1" d="M0,183.2c0-9.8,0-21,.4-30.5,26-.7,57.8-1,87.8-1,16.4,0,33,0,53.3,6.1,29.2,9.4,48.4,39,48.4,69.8,0,28.5-18.5,54.9-42.7,67.1-16.6,8.4-41.9,11.3-50.6,11.3-4.7,0-14.4,0-17-.4l-.4,50.3,32.9,1.1c0,9.4,0,20.2-.4,30-18.1,0-43-.4-65.1-.4-15.6,0-32.2.4-46.3.4,0-9.8.4-20.6.7-30l17-1.1c1.1,0,1.4-.6,1.4-1.5V183.9Zm79.5,88.5c0,3.6,6.5,3.6,12.6,3.6,9,0,18.1-3.2,24.6-9.4,7.6-7.6,11.9-20.6,11.9-36.4,0-26.8-16.3-48.5-36.9-48.5-5.4,0-10.2.4-11.6,1.1Z"/><path class="cls-1" d="M295.4,374.7c-21.8,11-39.1,15.9-52.8,15.9-18.8,0-46.7-19.2-46.7-42.3,0-19.8,23.9-54.5,81.4-54.5h17.4c1-17.8-5.8-28.6-22.1-28.6-11.9,0-31.2,10.4-45.4,20.2-6.6-7.6-13.1-17-18.9-25.7,26-21.3,52.7-35.8,87.5-35.8,27.8,0,55.2,23.5,55.2,54.3,0,23.8-.3,58.1-.6,73.7,0,2.2,0,2.9,1.8,2.5l19.1-.7c0,9.4.4,20.2,0,29.6-5.8,2.3-31.4,7.2-60.3,7.2-3.7-3.3-8.4-9-13.8-15.9h-1.8ZM270,355.9c9.4,0,18.8-4.7,24.2-8a2.77,2.77,0,0,0,.8-2.1v-25a47.16,47.16,0,0,0-7.6-.4c-23.9,0-34,10.2-34,21.7,0,8.4,9.4,13.8,16.6,13.8"/><path class="cls-1" d="M385,264.5c0-9.8.4-20.6.4-29.7,18-1,71.2-10.4,73.4-10.4.7,0,.7.4.7,1,1.8,7.6,3.2,14.9,5.1,22.5l1.7.4C501.4,227,509.4,224,526,224c15.5,0,30.3,14.1,37.6,26.1,6.9,11.2,8.4,22.5,8.4,32.2,0,20.5-.8,50.6-1.5,73.7l18.1,1.1c0,9.4,0,20.2-.5,29.6H541.5c-15.5,0-32.5.4-45.2.4,0-9.4.4-20.3.4-29.6l14.5-1.2a1.43,1.43,0,0,0,1.4-1.4c.3-14.9,0-35.1,0-48.8,0-17,0-25.7-2.9-31.1-3.6-6.9-8.3-7.9-13.7-7.9-8,0-20.3,5.7-29,12.7-.3,21.3-1.2,55.6-1.2,76.2l15.7,1.1c0,9.7,0,20.2-.4,29.6H435.8c-14.7,0-33.6.4-47.7.4,0-9.4.4-20.3.4-29.6l17.6-1.2a1.34,1.34,0,0,0,1.5-1.4V265.2Z"/><path class="cls-1" d="M639.1,379.8c-11.6-10.1-12.6-18.3-12.6-28.5,0-20.2.3-37.6.3-41.9,0-7.6.4-44.1.4-47.4H601.8c0-10.1.4-20.5,1.2-30.7,7.2-.4,16.2-1.5,23.5-1.8a2.89,2.89,0,0,0,2.5-3c.8-9.7,1.8-21.3,2.6-30,18.4-9.1,52.7-19.5,53.9-19.5.7,0,1.1.3,1.1,1.4-.3,7.9-.7,40.9-1.1,50.6,18.4,0,38.7-.3,55.6-.3,0,10.5-.3,23.1-1.4,34-15.2,0-37.7-.3-54.2-.3v30c-.4,14.8-.4,27.8-.4,44.1,0,10.2,8.6,16.3,16.6,16.3a159.57,159.57,0,0,0,39.4-5.4c1.8,9.7,3.3,20.8,4.4,30.3-25.4,9.7-51.8,13-78.4,13a40,40,0,0,1-28-10.9"/><path class="cls-1" d="M757.6,264.9c0-10.2.5-21.3.8-31.1,19.5-1.4,78.1-9.8,81-9.8.8,0,.8.4.8,1.1-.4,39.5-1.2,94.7-1.2,130.9l20,1.1v29.6H809.1c-15.6,0-34.7.4-49.2.4,0-9.4,0-20.3.3-29.6l19.2-1.2a1.34,1.34,0,0,0,1.5-1.4V265.7Zm81.1-94.5c0,19.6-15.5,32.6-33.7,32.6-15.5,0-31.4-13.4-31.4-31.9,0-15.1,13.3-29.9,33.2-29.9,21,.1,31.9,14.5,31.9,29.2"/><path class="cls-1" d="M950.7,244.9c36.5-19.5,40.5-21,55.7-21,30,0,55.3,34,55,71.6,0,16.2-4.3,33.2-11.2,48.4a89.78,89.78,0,0,1-27.4,35c-7.3,5.5-24.2,11.6-38.7,11.6-13.8,0-23.9-1.8-31.8-5l-2.5.6c.4,18.1.4,36.5.4,55l29.2,1c0,9.7,0,20.2-.4,29.6-17.4,0-39.1,0-58.2.3-14.5,0-33.3,0-47.7.4,0-9.4,0-19.9.3-29.6l17.4-1.5c1,0,1.4-.6,1.4-1.7l.4-174.6-22.8-.4c0-9.9.4-20.3.7-29.7,16.9-2.2,71.6-11.6,73.3-11.6.8,0,.8.3.8.7,1.4,6.9,2.5,13.4,4,20.2Zm43.1,30.4c-3-4.3-7.3-9.4-14.1-9.4-7.3,0-17.8,3.6-28.3,10.1-.4,20.3-.7,49.2-.7,69.5,0,7.2,14.5,12.6,22.1,12.6a21.69,21.69,0,0,0,18.4-9.4c5.1-7.6,8.3-20.6,8.3-39.7,0-16.7-2.1-28.2-5.7-33.7"/><path class="cls-1" d="M43,429H61.3l9.9,54.7H53.4l-.9-7.3H34.6l-3.2,7.3H13.9Zm-2.9,36H51.4l-2.2-19.6Z"/><path class="cls-1" d="M105.7,429h16.9l14.2,29.8,1.6-12.1,3.1-17.7h17.1L149,483.7H132.2l-14.3-29.8-1.4,12.4-3.1,17.4H96.2Z"/><path class="cls-1" d="M187.8,429h16.9l14.2,29.8,1.5-12.1,3.1-17.7h17.1L231,483.7H214.2l-14.3-29.8-1.4,12.4-3.1,17.4H178.2Z"/><path class="cls-1" d="M270.7,429h17.9L279,483.7H261.1Z"/><path class="cls-1" d="M314.9,429H333l3.1,36.4L352.6,429h18.1L342,483.7H323.9Z"/><path class="cls-1" d="M397,429h44.6l-2.4,12.8H412.6l-1.4,7.9h22.6l-2.4,12.7H408.9l-1.4,8.6h27.7L433,483.8H387.4Z"/><path class="cls-1" d="M469.7,429h26.5c7.9,0,13.4,1,16.4,3a9.74,9.74,0,0,1,4.6,8.8,20.16,20.16,0,0,1-3,11,14.15,14.15,0,0,1-8.8,6.2q4.35,1.8,5.7,3.3c1.1,1,1.6,3,1.6,5.8a46.56,46.56,0,0,1-.5,5.4l-.8,4.2-.6,3.7c.1,1.1.7,1.7,1.5,1.7l-.3,1.6H493.9l-.1-2a44.4,44.4,0,0,1,.5-5.5l.6-6.2c0-2.5-.8-4-2.3-4.6s-4.4-.9-8.6-.9h-2.6L478,483.6H460.1Zm15.7,12.7-2,10.8H491c5.5,0,8.4-1.8,8.9-5.3a5.33,5.33,0,0,0-.4-2.8,4.81,4.81,0,0,0-2.2-2,8,8,0,0,0-3.3-.8h-8.6Z"/><path class="cls-1" d="M574,444.9c0-3.1-2.2-4.6-6.7-4.6-3.5,0-5.5,1-5.9,2.9a3.19,3.19,0,0,0,1.2,3,18.18,18.18,0,0,0,4.6,2.1l5.8,1.4a31.71,31.71,0,0,1,11.8,5,10.47,10.47,0,0,1,4.1,8.5l-.2,3.3c-1.2,6.6-4.5,11.3-10,14.3s-11.7,4.4-18.8,4.4c-6.7,0-12-1.7-16-5.1a14.69,14.69,0,0,1-5.2-11.5l.1-1.9H556a4.86,4.86,0,0,0,2.3,4.5,10.19,10.19,0,0,0,5.1,1.3c4.3,0,6.9-1.2,7.7-3.7v-1a2.73,2.73,0,0,0-1.8-2.5,60.83,60.83,0,0,0-7.8-2.7c-5.8-1.4-10.2-3.1-13.3-5.1s-4.6-5.2-4.6-9.4l.2-2.1.2-1.8a17.67,17.67,0,0,1,4.3-8.5,21.71,21.71,0,0,1,9.2-6,37.84,37.84,0,0,1,13.1-2.2c6,0,11,1.4,15,4.1,3.6,2.5,5.4,6.9,5.4,13.1H574Z"/><path class="cls-1" d="M637.3,429h18.3l9.9,54.7H647.7l-.9-7.3H628.9l-3.3,7.3H608.1Zm-3,36h11.3l-2.2-19.6Z"/><path class="cls-1" d="M699.4,429h26.5c7.9,0,13.4,1,16.4,3a9.74,9.74,0,0,1,4.6,8.8,20.16,20.16,0,0,1-3,11,13.89,13.89,0,0,1-8.8,6.2q4.35,1.8,5.7,3.3c1.1,1,1.6,3,1.6,5.8a42.55,42.55,0,0,1-.4,5.4l-.8,4.2-.6,3.7c.1,1.1.7,1.7,1.5,1.7l-.3,1.6H723.7l-.1-2a30.85,30.85,0,0,1,.5-5.5l.6-6.2c0-2.5-.8-4-2.4-4.6s-4.4-.9-8.6-.9H711l-3.4,19.1H689.7Zm15.7,12.7-2,10.8h7.6c5.5,0,8.4-1.8,8.9-5.3a5.33,5.33,0,0,0-.4-2.8,4.81,4.81,0,0,0-2.2-2,7.64,7.64,0,0,0-3.3-.8h-8.6Z"/><path class="cls-1" d="M772.9,429h20.2l6.1,18.5L811.9,429h19.7l-26.3,34.5-3.6,20.2h-18l3.4-19.9Z"/><path class="cls-2" d="M240.9,161h-3.8q-11.25,1.5-12.3,12.3c0,2.2,1.1,4.6,3.3,7.3a12.6,12.6,0,0,0,8,3.5l4.3.5c4.5,0,9.4-1.8,14.8-5.5,1.7-1.3,5.4-4.4,11.3-9.3l-11.3-5.3C249.6,162.1,244.9,161,240.9,161Z"/><path class="cls-2" d="M458.3,78.7c-4.5-.3-9,1.6-13.1,5.6a3.11,3.11,0,0,0-.1,4.3,3,3,0,0,0,4.3,0c2.9-2.8,5.6-4.1,8.4-3.9,4.1.2,7.1,3.7,7.1,3.7a3,3,0,0,0,2.4,1.1,3,3,0,0,0,1.9-.7,3.14,3.14,0,0,0,.5-4.3C469.5,84.4,465,79,458.3,78.7Z"/><path class="cls-2" d="M492.5,26.3a89.85,89.85,0,0,0-89.1,79.1,87,87,0,0,0-.4,8.9,95.79,95.79,0,0,0,5.7,32.8,49.7,49.7,0,0,0,64,23.5c15.1-6.5,28.2-26.1,30.9-40.4,1.6-8.3-.9-12.8-3.3-15.2-2.7-2.6-6-6-56.4-8.2-9-.4-17.9-.7-25.4-.8a74.54,74.54,0,1,1,117.6,70.4,7.62,7.62,0,1,0,9,12.3A89.78,89.78,0,0,0,492.5,26.3ZM489,126.1c-.4,6.8-10.3,25.4-22.2,30.5a34.47,34.47,0,0,1-45.3-18.1v.1a77.8,77.8,0,0,1-3.3-17.3C449.8,122,480.2,123.8,489,126.1Z"/><path class="cls-2" d="M310.5,164.7a5.19,5.19,0,0,1-.5.3c.4.4.8.7,1.2,1.1,6.1,5.1,19,9.8,38.2,10.1,8.7.2,14.4-.1,25.7-6.5h.3c4.2-4.2,5.6-9.9,2.6-16.8-7.4-17.3-60.4,8.3-67.2,11.7-.1.1-.3.2-.5.4C310.2,165,310.3,164.9,310.5,164.7Z"/><path class="cls-1" d="M421.4,138.5h0a34.62,34.62,0,0,0,45.4,18.1c12-5.1,21.8-23.7,22.2-30.5-8.8-2.3-39.2-4.1-70.9-4.9A72.5,72.5,0,0,0,421.4,138.5Z"/><path class="cls-1" d="M625.4,13.1H604.2l-3,16.8H593l-2,12.5h7.5l-3.3,19.1A115.88,115.88,0,0,0,377,115.9c0,1.8.1,3.6.1,5.3,8.5,8.9,15.8,17.6,7.7,14.1-15.1-6.5-48.8,8.8-74.2,29.2,6.8-3.4,59.8-29,67.2-11.7,3,7,1.6,12.6-2.6,16.8h-.3c-11.2,6.4-17,6.6-25.7,6.5-19.2-.3-32.1-5-38.2-10.1-.4-.4-.8-.7-1.2-1.1a5.2,5.2,0,0,0,.5-.3c2.3-2.3,20.9-20.9,35.6-38.3h-.1c11.4-14,20.3-27.3,26.5-39.8,6.5-13,9.8-25.4,9.8-37.3a44.17,44.17,0,0,0-6.9-24.3,32.86,32.86,0,0,0-18.4-14.3c-5.8-2.5-13.2-3.7-22-3.5a82.39,82.39,0,0,0-43,12.5c-13.9,8.3-24.4,20.9-31.8,37.5l-1,2.3c.3,3.3,2.3,6.6,6,9.8s7.2,4.7,10.5,4.5a9.88,9.88,0,0,0,6.5-2.5c10.8-13.3,20.4-22.8,28.8-28.3a31.1,31.1,0,0,1,9.8-5.6,26.72,26.72,0,0,1,10.3-1.6c12,.3,18,6.2,18,17.5a27.4,27.4,0,0,0-.5,4.4c-.2,2.4-.3,4-.5,4.9q-8.7,28.05-47.3,73.1c-9.5,11-15.3,16.5-17.3,16.5-2.2-1.2-5.3-2.8-9.5-4.8s-7.2-3.5-9.2-4.5a68.35,68.35,0,0,0-23.8-4H239a34.38,34.38,0,0,0-25,10.4,33.15,33.15,0,0,0-10.3,24.9c.2,8.2,2.7,15.1,7.5,20.8s11.3,8.5,19.3,8.5H237a62.39,62.39,0,0,0,30.8-7.8c4.3-2.3,9.8-5.8,16.5-10.3a155.5,155.5,0,0,0,29.6,12.9,120.43,120.43,0,0,0,21.7,5.8c29.3,5.2,52.3-6,62.5-21.5a115.91,115.91,0,0,0,210.7-66.7,118.37,118.37,0,0,0-4.4-31.7,61.15,61.15,0,0,0,6.4.3L618,84h5l2.6-15.3c-1.3,0-2.6,0-3.9-.1a13.61,13.61,0,0,1-3.6-.5,3,3,0,0,1-2-3.2l.4-2.6,3.6-20.1h10.3l2.2-12.5H622.3ZM255.1,179c-5.3,3.7-10.3,5.5-14.8,5.5L236,184a12.6,12.6,0,0,1-8-3.5c-2.2-2.7-3.3-5.1-3.3-7.3q1.05-10.8,12.3-12.3h3.8c4,0,8.8,1.2,14.3,3.5l11.3,5.3C260.6,174.6,256.8,177.7,255.1,179Zm290,9.7a7.59,7.59,0,0,1-10.7-1.7,7.72,7.72,0,0,1,1.7-10.6A74.54,74.54,0,1,0,418.5,106c7.5.2,16.4.5,25.4.8,50.3,2.2,53.7,5.6,56.4,8.2,2.3,2.4,4.9,6.9,3.3,15.2-2.7,14.2-15.8,33.8-30.9,40.4a50.41,50.41,0,0,1-19.5,4,49.63,49.63,0,0,1-44.5-27.5,95.8,95.8,0,0,1-5.7-32.8,87,87,0,0,1,.4-8.9,89.72,89.72,0,1,1,141.7,83.3ZM469.2,88.9a3.7,3.7,0,0,1-1.9.7,3.19,3.19,0,0,1-2.4-1.1s-3-3.5-7.1-3.7c-2.8-.2-5.5,1.1-8.4,3.9a3,3,0,1,1-4.2-4.3c4.2-4,8.6-5.9,13.1-5.6,6.8.3,11.2,5.7,11.4,5.9A3,3,0,0,1,469.2,88.9Z"/><path class="cls-1" d="M680.7,28.5c-6.8,0-12.9,2.8-18.2,8.3l4.9-27H646L632.7,84.2h21.6l4.8-28c1.3-7.2,4.7-10.7,10.2-10.7,4.1,0,6.1,2.2,6.1,6.6l-.2,3.9-5.1,28.2h21.6l5.7-33a41.07,41.07,0,0,0,.6-6.3C698.1,33.9,692.3,28.5,680.7,28.5Z"/><path class="cls-3" d="M310.2,165a1.76,1.76,0,0,0,.5-.4c-.1,0-.1.1-.2.1Z"/></g></g></svg>