<svg xmlns="http://www.w3.org/2000/svg" viewBox="0 0 579.27 201.1"><defs><style>.cls-1{fill:#fbaa1b;}.cls-2{fill:#4b4b4b;}</style></defs><title>sp-skooldio</title><g id="Layer_2" data-name="Layer 2"><g id="Layer_1-2" data-name="Layer 1"><path class="cls-1" d="M81.72,2.08,7.85,44.56A15.65,15.65,0,0,0,0,58.13V143a15.65,15.65,0,0,0,7.85,13.57L81.72,199a15.65,15.65,0,0,0,15.61,0l73.87-42.47A15.65,15.65,0,0,0,179,143V58.13a15.65,15.65,0,0,0-7.85-13.57L97.33,2.08A15.65,15.65,0,0,0,81.72,2.08ZM165,152.66,97,191.74a15.08,15.08,0,0,1-15,0L14,152.66a15.08,15.08,0,0,1-7.56-13.07V61.52A15.08,15.08,0,0,1,14,48.44L82,9.36a15.08,15.08,0,0,1,15,0l68,39.08a15.08,15.08,0,0,1,7.56,13.07v78.07A15.08,15.08,0,0,1,165,152.66Z"/><path id="Fill-3" class="cls-2" d="M93.5,94.59A15.55,15.55,0,0,0,86.34,107v6.24a6.54,6.54,0,0,0,10.36,6L152.26,87.2a6.71,6.71,0,1,0-3.21-5.7c0,.07,0,.13,0,.21L93.5,113.65a2.72,2.72,0,0,1-.7.3,2.74,2.74,0,0,1-.09-.75V107a9.17,9.17,0,0,1,4-6.86l55.13-31.7a7,7,0,0,0,3.89-6,7,7,0,0,0-3.89-6L96.69,24.79a15.67,15.67,0,0,0-14.33,0L27.23,56.49a15.55,15.55,0,0,0-7.17,12.36V94.15a15.54,15.54,0,0,0,7.17,12.36l55.13,31.7a15.69,15.69,0,0,0,14.33,0l55.13-31.7a2.72,2.72,0,0,1,.7-.3,2.72,2.72,0,0,1,.09.75v25.29a9.18,9.18,0,0,1-4,6.86L93.5,170.81a9.27,9.27,0,0,1-8,0l-55.13-31.7a9.17,9.17,0,0,1-4-6.86V126a2.79,2.79,0,0,1,.09-.75,2.84,2.84,0,0,1,.7.3L79.66,155.7a6.76,6.76,0,1,0,2.65-5.81L30.42,120.05a7.05,7.05,0,0,0-7.13-.38A7,7,0,0,0,20.06,126v6.24a15.55,15.55,0,0,0,7.17,12.36l55.13,31.7a15.69,15.69,0,0,0,14.34,0l55.13-31.7A15.55,15.55,0,0,0,159,132.25V107a6.54,6.54,0,0,0-10.36-6L93.5,132.7a9.27,9.27,0,0,1-8,0L30.42,101a9.16,9.16,0,0,1-4-6.86V68.84a9.17,9.17,0,0,1,4-6.86l55.13-31.7a9.26,9.26,0,0,1,8,0L148.64,62a2.71,2.71,0,0,1,.61.45,2.83,2.83,0,0,1-.61.46Z"/><path id="Fill-5" class="cls-2" d="M249,87a2.68,2.68,0,0,1-1.89.71h-6.63a4.28,4.28,0,0,1-2.37-.57,5,5,0,0,1-1.51-1.69,11.68,11.68,0,0,0-4.64-4.23,17.79,17.79,0,0,0-8.24-1.6,16.7,16.7,0,0,0-8.62,2.07q-3.51,2.07-3.5,5.55a5.69,5.69,0,0,0,1.66,4.37,13,13,0,0,0,5.17,2.59q3.5,1,11.46,2.73,11.46,2.44,16.58,6.86t5.12,12.12A16.54,16.54,0,0,1,248.22,126a21.73,21.73,0,0,1-9.52,7,41.53,41.53,0,0,1-27.8.28,24.46,24.46,0,0,1-9.95-6.44,15.07,15.07,0,0,1-4.07-9.54,2.12,2.12,0,0,1,.67-1.83,2.67,2.67,0,0,1,1.89-.71h6.63a4.52,4.52,0,0,1,2.42.57A4.14,4.14,0,0,1,210,117a12.2,12.2,0,0,0,4.69,4.93q3.08,1.83,9.52,1.83a24.25,24.25,0,0,0,10.42-2q4.17-2,4.17-5.92a4.51,4.51,0,0,0-1.61-3.62,12.91,12.91,0,0,0-4.55-2.26q-2.94-.89-8.9-2.3c-1.58-.31-3.63-.78-6.16-1.41q-9.94-2.44-14.35-6.68t-4.4-12.41a16.35,16.35,0,0,1,3.27-10A21.68,21.68,0,0,1,211,70.33a31.32,31.32,0,0,1,12.7-2.49,32.7,32.7,0,0,1,13.78,2.68,22.57,22.57,0,0,1,8.86,6.72,15.18,15.18,0,0,1,3.31,7.89A2.13,2.13,0,0,1,249,87"/><path id="Fill-7" class="cls-2" d="M273.8,132a2.43,2.43,0,0,1-.76,1.78,2.46,2.46,0,0,1-1.8.75H264a2.46,2.46,0,0,1-1.8-.75,2.43,2.43,0,0,1-.76-1.78V70.37a2.43,2.43,0,0,1,.76-1.78,2.47,2.47,0,0,1,1.8-.75h7.2a2.48,2.48,0,0,1,1.8.75,2.43,2.43,0,0,1,.76,1.78V100L289.61,87.3a18.58,18.58,0,0,1,1.8-1.17,3.86,3.86,0,0,1,1.9-.43H303a2.21,2.21,0,0,1,1.61.66,2.18,2.18,0,0,1,.67,1.6,2.41,2.41,0,0,1-1,1.88l-22.07,17.67,24.15,23a2.64,2.64,0,0,1,.95,1.78,2.16,2.16,0,0,1-.66,1.6,2.21,2.21,0,0,1-1.61.66h-9.19a6,6,0,0,1-3.88-1.6L273.8,115.87Z"/><path id="Fill-9" class="cls-2" d="M325.47,98.3q-3.17,2.26-3.74,7.61c-.06.63-.09,2-.09,4.23s0,3.6.09,4.23q.57,5.35,3.74,7.61a14.34,14.34,0,0,0,15.44,0q3.17-2.26,3.74-7.61.19-1.88.19-4.23t-.19-4.23q-.57-5.36-3.74-7.61a14.34,14.34,0,0,0-15.44,0m31.69,11.94q0,2.45-.19,4.7a22.32,22.32,0,0,1-3.5,10.44,21.26,21.26,0,0,1-8.29,7.42,27.69,27.69,0,0,1-24,0,21.29,21.29,0,0,1-8.29-7.42,22.32,22.32,0,0,1-3.5-10.44q-.1-1.13-.1-4.7t.1-4.79a22.44,22.44,0,0,1,3.5-10.53,21.36,21.36,0,0,1,8.29-7.43,27.69,27.69,0,0,1,24,0,21.33,21.33,0,0,1,8.29,7.43,22.44,22.44,0,0,1,3.5,10.53q.2,2.26.19,4.79"/><path id="Fill-11" class="cls-2" d="M381.82,98.3q-3.17,2.26-3.74,7.61c-.06.63-.09,2-.09,4.23s0,3.6.09,4.23q.57,5.35,3.74,7.61a14.34,14.34,0,0,0,15.44,0q3.17-2.26,3.74-7.61.19-1.88.19-4.23t-.19-4.23q-.57-5.36-3.74-7.61a14.34,14.34,0,0,0-15.44,0m31.69,11.94q0,2.45-.19,4.7a22.32,22.32,0,0,1-3.5,10.44,21.26,21.26,0,0,1-8.29,7.42,27.69,27.69,0,0,1-24,0,21.29,21.29,0,0,1-8.29-7.42,22.32,22.32,0,0,1-3.5-10.44q-.1-1.13-.1-4.7t.1-4.79a22.44,22.44,0,0,1,3.5-10.53,21.36,21.36,0,0,1,8.29-7.43,27.69,27.69,0,0,1,24,0,21.33,21.33,0,0,1,8.29,7.43,22.44,22.44,0,0,1,3.5,10.53q.2,2.26.19,4.79"/><path id="Fill-13" class="cls-2" d="M435.77,133.83a2.46,2.46,0,0,1-1.8.75h-7.2a2.45,2.45,0,0,1-1.8-.75,2.41,2.41,0,0,1-.76-1.78V70.38a2.43,2.43,0,0,1,.76-1.79,2.47,2.47,0,0,1,1.8-.75H434a2.49,2.49,0,0,1,1.8.75,2.44,2.44,0,0,1,.76,1.79V132a2.43,2.43,0,0,1-.76,1.78"/><path id="Fill-15" class="cls-2" d="M462.81,120.77a11,11,0,0,0,8.57,3.48,10.87,10.87,0,0,0,11.46-10.53,33.43,33.43,0,0,0,0-7.14,11.42,11.42,0,0,0-3.65-7.66A11.23,11.23,0,0,0,471.38,96a11.43,11.43,0,0,0-8,2.82q-3.13,2.82-3.69,8.65-.1.94-.1,2.63,0,7.15,3.17,10.62Zm20-50.39a2.42,2.42,0,0,1,.76-1.78,2.45,2.45,0,0,1,1.79-.75h7.2a2.46,2.46,0,0,1,1.8.75,2.42,2.42,0,0,1,.76,1.78V132a2.4,2.4,0,0,1-.76,1.78,2.45,2.45,0,0,1-1.8.76h-7.2a2.44,2.44,0,0,1-1.79-.76,2.41,2.41,0,0,1-.76-1.78v-2.16a17.07,17.07,0,0,1-5.49,3.95,20.26,20.26,0,0,1-8.81,1.69,19.41,19.41,0,0,1-10.84-3.05,21.37,21.37,0,0,1-7.34-8.08,25.82,25.82,0,0,1-2.93-11l-.1-3.29.1-3.29a25.81,25.81,0,0,1,2.93-11,21.43,21.43,0,0,1,7.34-8.08,19.41,19.41,0,0,1,10.84-3.05,20,20,0,0,1,8.71,1.69,18.37,18.37,0,0,1,5.59,3.95Z"/><path id="Fill-17" class="cls-2" d="M519.78,133.83a2.46,2.46,0,0,1-1.8.75h-7.2a2.45,2.45,0,0,1-1.8-.75,2.41,2.41,0,0,1-.76-1.78V88.24a2.42,2.42,0,0,1,.76-1.78,2.46,2.46,0,0,1,1.8-.75H518a2.48,2.48,0,0,1,1.8.75,2.43,2.43,0,0,1,.76,1.78V132a2.43,2.43,0,0,1-.76,1.78m.47-65.24a2.44,2.44,0,0,1,.75,1.79v7.33a2.43,2.43,0,0,1-.75,1.78,2.48,2.48,0,0,1-1.8.75h-8.15a2.47,2.47,0,0,1-1.8-.75,2.44,2.44,0,0,1-.76-1.78V70.38a2.44,2.44,0,0,1,.76-1.79,2.48,2.48,0,0,1,1.8-.75h8.15a2.49,2.49,0,0,1,1.8.75"/><path id="Fill-19" class="cls-2" d="M547.58,98.3q-3.17,2.26-3.74,7.61c-.06.63-.09,2-.09,4.23s0,3.6.09,4.23q.57,5.35,3.74,7.61A14.34,14.34,0,0,0,563,122q3.17-2.26,3.74-7.61.19-1.88.19-4.23t-.19-4.23q-.57-5.36-3.74-7.61a14.34,14.34,0,0,0-15.44,0m31.69,11.94q0,2.45-.19,4.7a22.32,22.32,0,0,1-3.5,10.44,21.26,21.26,0,0,1-8.29,7.42,27.69,27.69,0,0,1-24,0,21.29,21.29,0,0,1-8.29-7.42,22.32,22.32,0,0,1-3.5-10.44q-.1-1.13-.1-4.7t.1-4.79A22.44,22.44,0,0,1,535,94.91a21.36,21.36,0,0,1,8.29-7.43,27.69,27.69,0,0,1,24,0,21.33,21.33,0,0,1,8.29,7.43,22.44,22.44,0,0,1,3.5,10.53q.2,2.26.19,4.79"/></g></g></svg>