<svg xmlns="http://www.w3.org/2000/svg" viewBox="0 0 105.42 19.84"><title>sp-uppercuz</title><g id="Layer_2" data-name="Layer 2"><g id="Layer_1-2" data-name="Layer 1"><path d="M0,8V.67A.56.56,0,0,1,.57.1a.56.56,0,0,1,.57.57V8c0,1.32.48,2.59,2.79,2.59S6.69,9.36,6.69,8V.67a.57.57,0,1,1,1.13,0V8c0,1.83-.75,3.65-3.9,3.65S0,9.88,0,8Z"/><path d="M15.58,11a.57.57,0,0,1-1.13,0V.8A.56.56,0,0,1,15,.23h3.32a3,3,0,0,1,3.19,3.25,3,3,0,0,1-3.19,3.27H15.58Zm0-5.3h2.59a2,2,0,0,0,2.2-2.24,2,2,0,0,0-2.2-2.22H15.58Z"/><path d="M28.69,11a.57.57,0,0,1-1.13,0V.8a.56.56,0,0,1,.57-.57h3.32a3,3,0,0,1,3.19,3.25,3,3,0,0,1-3.19,3.27H28.69Zm0-5.3h2.59a2,2,0,0,0,2.2-2.24,2,2,0,0,0-2.2-2.22H28.69Z"/><path d="M57.37,11a.57.57,0,0,1-1.13,0V.8a.56.56,0,0,1,.57-.57h3.32a3.11,3.11,0,0,1,3.19,3.19,3.07,3.07,0,0,1-3,3.19l3.05,4.07a.55.55,0,0,1,.12.35.57.57,0,0,1-1.05.3L59.06,6.61H57.37Zm0-5.45h2.79a2,2,0,0,0,2-2.15,2,2,0,0,0-2.05-2.15H57.37Z"/><path d="M68.79,5.86c0-4,2-5.86,5.2-5.86a4.58,4.58,0,0,1,3.75,1.77.59.59,0,0,1,.12.35.54.54,0,0,1-1,.32A3.63,3.63,0,0,0,74,1c-2.57,0-4,1.55-4,4.82,0,3.47,1.47,4.8,4,4.8a3.5,3.5,0,0,0,2.9-1.37.54.54,0,0,1,1,.32.51.51,0,0,1-.1.32A4.66,4.66,0,0,1,74,11.69C70.75,11.69,68.79,10,68.79,5.86Z"/><path d="M83.95,8V.67a.57.57,0,1,1,1.13,0V8c0,1.32.48,2.59,2.79,2.59S90.64,9.36,90.64,8V.67a.57.57,0,1,1,1.13,0V8c0,1.83-.75,3.65-3.9,3.65S83.95,9.88,83.95,8Z"/><path d="M97.88,11.46a.53.53,0,0,1-.53-.53.55.55,0,0,1,.1-.32l6.21-9.31H98.23A.53.53,0,0,1,97.7.77a.53.53,0,0,1,.53-.53h6.41a.53.53,0,0,1,.53.53.55.55,0,0,1-.1.32l-6.16,9.31h6a.53.53,0,0,1,0,1.07Z"/><path d="M50.71,10.1a.57.57,0,0,1,0,1.13H40.36a.57.57,0,0,1,0-1.13Z"/><path d="M44,.23a.57.57,0,0,1,.57.57.57.57,0,0,1-.57.57H40.36A.57.57,0,0,1,39.79.8a.57.57,0,0,1,.57-.57Z"/><path d="M47.57,5.16a.57.57,0,1,1,0,1.13H40.36a.57.57,0,0,1,0-1.13Z"/><path d="M32.54,18c0-1.28.64-1.89,1.68-1.89a1.48,1.48,0,0,1,1.21.57.19.19,0,0,1,0,.11.17.17,0,0,1-.31.1,1.17,1.17,0,0,0-.94-.45c-.83,0-1.3.5-1.3,1.56s.47,1.55,1.3,1.55a1.13,1.13,0,0,0,.94-.44.17.17,0,0,1,.31.1.17.17,0,0,1,0,.1,1.51,1.51,0,0,1-1.22.57C33.17,19.84,32.54,19.28,32.54,18Z"/><path d="M39.19,19.63a.18.18,0,1,1-.37,0V16.32a.18.18,0,0,1,.18-.18h1.07a1,1,0,0,1,1,1,1,1,0,0,1-1,1l1,1.32a.18.18,0,0,1,0,.11.18.18,0,0,1-.34.1L39.74,18.2h-.54Zm0-1.76h.9a.7.7,0,0,0,0-1.39h-.88Z"/><path d="M44.65,19.77a.18.18,0,0,1-.18-.18V16.32a.18.18,0,0,1,.18-.18h1.73a.17.17,0,0,1,0,.33H44.83v1.3H46a.17.17,0,1,1,0,.33H44.83v1.33h1.61a.17.17,0,0,1,0,.33Z"/><path d="M50.43,18.7l-.39,1a.19.19,0,0,1-.18.13.19.19,0,0,1-.18-.18.22.22,0,0,1,0-.08L51,16.22a.18.18,0,0,1,.17-.12.19.19,0,0,1,.18.12l1.32,3.33a.27.27,0,0,1,0,.08.19.19,0,0,1-.37.06l-.39-1Zm.75-2-.64,1.65h1.28Z"/><path d="M55.29,16.48a.17.17,0,0,1,0-.35h2.29a.17.17,0,1,1,0,.35h-1v3.14a.18.18,0,1,1-.37,0V16.48Z"/><path d="M61.38,19.63a.18.18,0,1,1-.37,0V16.28a.18.18,0,1,1,.37,0Z"/><path d="M67.16,16.22a.19.19,0,0,1,.17-.12.18.18,0,0,1,.18.18.26.26,0,0,1,0,.08l-1.26,3.33a.18.18,0,0,1-.35,0l-1.26-3.33a.26.26,0,0,1,0-.08.18.18,0,0,1,.18-.18.18.18,0,0,1,.17.12l1.09,2.9Z"/><path d="M70.93,19.77a.18.18,0,0,1-.18-.18V16.32a.18.18,0,0,1,.18-.18h1.73a.17.17,0,0,1,0,.33H71.11v1.3H72.3a.17.17,0,1,1,0,.33H71.11v1.33h1.61a.17.17,0,0,1,0,.33Z"/></g></g></svg>