<svg viewBox="0 0 231.87 193.93" xmlns="http://www.w3.org/2000/svg"><g fill="#0071bc"><path d="m45 193.93a15.62 15.62 0 0 1 -15.58-15.58v-99.44a15.62 15.62 0 0 1 15.58-15.58 15.62 15.62 0 0 1 15.58 15.58v99.45a15.62 15.62 0 0 1 -15.58 15.57z"/><path d="m45 51.35a15.62 15.62 0 0 1 -15.57-15.57 15.62 15.62 0 0 1 15.57-15.58 15.62 15.62 0 0 1 15.58 15.58 15.62 15.62 0 0 1 -15.58 15.57z"/><path d="m177.88 63.33h-99.45a15.62 15.62 0 0 0 -15.58 15.58 15.62 15.62 0 0 0 15.58 15.58h34.15v83.87a15.62 15.62 0 0 0 15.58 15.58 15.62 15.62 0 0 0 15.58-15.58v-83.87h34.15a15.62 15.62 0 0 0 15.58-15.58 15.62 15.62 0 0 0 -15.59-15.58z"/><circle cx="15.29" cy="7.26" r="7.26"/><circle cx="8.15" cy="57.7" r="8.15"/><circle cx="75.43" cy="26.67" r="7.43"/><path d="m25.9 6.06h3.59v27.32h-3.59z" transform="matrix(.70710678 -.70710678 .70710678 .70710678 -5.83 25.36)"/><path d="m11.29 45.49h27.32v3.59h-27.32z" transform="matrix(.83571153 -.54916869 .54916869 .83571153 -21.87 21.47)"/><path d="m49.2 29.12h27.32v3.59h-27.32z" transform="matrix(.93282782 -.36032245 .36032245 .93282782 -6.92 24.73)"/></g><path d="m87.66 50.39a123.26 123.26 0 0 1 31.34-13.66c3.45-1 64.29-17 86.75 12.94a39.25 39.25 0 0 1 6.95 16.06c9 44-53.82 89.92-59.43 93.93a180.31 180.31 0 0 0 34.75-23.72c14.47-12.59 35.3-30.72 41.46-59.43 2-9.09 5.68-26.47-4.07-40-8.64-12-23.3-14.7-32.6-16.26-44.81-7.57-88.72 19.1-105.15 30.14z" fill="#f26722"/></svg>