<svg xmlns="http://www.w3.org/2000/svg" xmlns:xlink="http://www.w3.org/1999/xlink" viewBox="0 0 146.99 59.32"><defs><style>.cls-1{fill:none;}.cls-2{clip-path:url(#clip-path);}.cls-3{fill:#fff;opacity:0;}.cls-4{fill:#4b2885;}.cls-5{fill:#fcaf17;}</style><clipPath id="clip-path"><rect class="cls-1" width="146.99" height="59.32"/></clipPath></defs><title>Asset 2</title><g id="Layer_2" data-name="Layer 2"><g id="Layer_1-2" data-name="Layer 1"><g class="cls-2"><rect class="cls-3" width="146.99" height="59.32"/><rect class="cls-4" x="98.72" y="11.31" width="36.96" height="36.59"/><path class="cls-4" d="M71.9,35.81l.26-1.62a9.27,9.27,0,0,0-3.09-.52c-1.77,0-4,.52-4,3,0,2.22,2.55,2.61,3.13,2.77s2.4.5,2.4,1.47-1.34,1.27-2.16,1.25a7.27,7.27,0,0,1-3.2-.84L65,43a7.48,7.48,0,0,0,3.43.78c2.07,0,4.08-.89,4.08-2.92s-1.15-2.59-3-3c-2.12-.5-2.53-.8-2.53-1.38s.61-1.14,2.14-1.14a10.58,10.58,0,0,1,2.74.45"/><path class="cls-4" d="M81.55,35.77l.24-1.64a7.7,7.7,0,0,0-2.75-.5c-1.58,0-5.16.32-5.16,5.14s3.63,5.06,5.05,5.06a8.89,8.89,0,0,0,2.87-.58l-.24-1.6a6.28,6.28,0,0,1-2.44.47c-1.36,0-3.11-.24-3.11-3.37s1.73-3.37,3.16-3.37a9.65,9.65,0,0,1,2.37.39"/><path class="cls-4" d="M90.24,38.51a.77.77,0,0,1,0-.08s1.45-.2,1.45-2.14-1.86-2.46-3.52-2.46H83.72v9.85s2.46,0,4.64,0,3.8-.74,3.8-2.79a2.28,2.28,0,0,0-1.92-2.35m-4.59-3.06h2.59c.86,0,1.57.26,1.57,1.22s-.46,1.24-1.56,1.24h-2.6ZM88.44,42H85.66V39.34h2.86c.7,0,1.65.14,1.65,1.3S89.38,42,88.44,42"/><path class="cls-4" d="M12,17H9.68v1.18H11.4c.5,0,.64.1.65.4s-.72.73-.74,1.51v9.52H13V20.3c0-.71.71-1,.74-1.85S13.12,17,12,17m32.7,9.17-2.21-6.45H41L38.8,26.16l-1.73-6.45H35.34L38,29.59H39.3l2.42-7,2.42,7h1.34l2.64-9.88H46.39Zm7-6.62a4.77,4.77,0,0,0-2.32.52l-.06,0v1.81l.19-.12a3.83,3.83,0,0,1,2.12-.66,2.07,2.07,0,0,1,1.66.63,2.58,2.58,0,0,1,.56,1.75v6.07H55.5V23.14a3.41,3.41,0,0,0-.93-2.52,3.79,3.79,0,0,0-2.9-1.07m-29.17.94a3.91,3.91,0,0,0-1.23-.7,4.69,4.69,0,0,0-1.55-.25,4.42,4.42,0,0,0-2.87,1v-.84H15.16v9.88h1.69V23.16a1.65,1.65,0,0,1,.88-1.42,3.5,3.5,0,0,1,1.93-.61,2.33,2.33,0,0,1,1.64.55,1.91,1.91,0,0,1,.6,1.5v6.41h1.69V23a3.46,3.46,0,0,0-.29-1.43,3.11,3.11,0,0,0-.81-1.09m9.68,6.92a4.41,4.41,0,0,1-2.48.74,3.87,3.87,0,0,1-2.12-.5,1.48,1.48,0,0,1-.75-1.31,1.3,1.3,0,0,1,.19-.68,2,2,0,0,1,.5-.56,2.47,2.47,0,0,1,.7-.38,2.42,2.42,0,0,1,.8-.14h1.16V23H28.8C27.56,23,27,22.65,27,22s.42-.85,1.47-.87a4.64,4.64,0,0,1,.57.06l.94.18.15,0V19.89l-.09,0a5.05,5.05,0,0,0-1.6-.27,4,4,0,0,0-1.24.19,3.69,3.69,0,0,0-1,.5,2.28,2.28,0,0,0-.69.78,2.13,2.13,0,0,0-.24,1,1.77,1.77,0,0,0,.48,1.21,2.43,2.43,0,0,0,.84.63,3.22,3.22,0,0,0-.93.82,2.59,2.59,0,0,0-.6,1.64,2.94,2.94,0,0,0,1.18,2.39,5.27,5.27,0,0,0,3.42,1,5.23,5.23,0,0,0,4.14-1.63L33.74,28h.12V19.71H32.17ZM64.23,16.16V17.6h7.71V16.16ZM90,27.4a4.44,4.44,0,0,1-2.48.74,3.88,3.88,0,0,1-2.11-.5,1.48,1.48,0,0,1-.75-1.31,1.29,1.29,0,0,1,.19-.68,2,2,0,0,1,.5-.56,2.47,2.47,0,0,1,.7-.38,2.43,2.43,0,0,1,.8-.14H88V23H86.63c-1.25,0-1.76-.34-1.76-.94s.42-.85,1.47-.87a4.78,4.78,0,0,1,.58.06l.94.18.15,0V19.89l-.08,0a5,5,0,0,0-1.6-.27,4,4,0,0,0-1.24.19,3.66,3.66,0,0,0-1,.5,2.28,2.28,0,0,0-.69.78,2.13,2.13,0,0,0-.24,1,1.78,1.78,0,0,0,.48,1.21,2.45,2.45,0,0,0,.84.63,3.25,3.25,0,0,0-.93.82,2.6,2.6,0,0,0-.6,1.64,3,3,0,0,0,1.18,2.39,5.28,5.28,0,0,0,3.42,1,5.22,5.22,0,0,0,4.14-1.63l0-.08V19.71H90Zm.55-11.88a1.5,1.5,0,0,0-1.19.39A1.64,1.64,0,0,0,89.06,17v.56h1.69v-.39c0-.34.15-.46.63-.48h.81v-.12l0-1v-.13ZM70.25,26.15a1.69,1.69,0,0,1-.77,1.41,2.87,2.87,0,0,1-1.76.61,2.13,2.13,0,0,1-1.51-.5,1.73,1.73,0,0,1-.54-1.33V22.92a3,3,0,0,0-1.28-2.53,5.3,5.3,0,0,0-7.13,1.31l0,0v7.87h3.13V28H58.93V22.19a3.09,3.09,0,0,1,2.53-1.06,3,3,0,0,1,1.83.53,1.72,1.72,0,0,1,.7,1.47v3.2a3.28,3.28,0,0,0,1,2.48,3.63,3.63,0,0,0,2.62.95,4,4,0,0,0,2.65-1v.81h1.69V19.71H70.25Zm9.19-4.23,1.75-1.58-1.4-.77-3.45,2.95.26,0C79,23,80.19,24,80.2,25.66a2.22,2.22,0,0,1-.81,1.79,3.52,3.52,0,0,1-2.23.74h-.23a4,4,0,0,1-.64-.05c-.25,0-.51-.1-.76-.16V19.71H73.84v9.43l.08,0a8.65,8.65,0,0,0,3.09.56h.13a5.22,5.22,0,0,0,3.53-1.18,3.67,3.67,0,0,0,1.22-2.89,3.89,3.89,0,0,0-2.45-3.75"/><path class="cls-5" d="M131.46,40.2l-3.91-15.29L117.2,15.53l-10.35,9.38L102.95,40.2l7.39,3.48h5.84V38.45s-10.85,5.73-8-7.1c.94-4.25,5.93-9.93,8.78-11.51l.26-.14h0c2.8,1.36,8.07,7.26,9,11.64,2.83,12.83-8,7.1-8,7.1v5.23h5.84Z"/></g></g></g></svg>