<?xml version="1.0" encoding="UTF-8"?>
<!DOCTYPE svg PUBLIC "-//W3C//DTD SVG 1.1//EN" "http://www.w3.org/Graphics/SVG/1.1/DTD/svg11.dtd">
<svg version="1.2" width="49mm" height="18mm" viewBox="0 0 4900 1800" preserveAspectRatio="xMidYMid" fill-rule="evenodd" stroke-width="28.222" stroke-linejoin="round" xmlns="http://www.w3.org/2000/svg" xmlns:ooo="http://xml.openoffice.org/svg/export" xmlns:xlink="http://www.w3.org/1999/xlink" xmlns:presentation="http://sun.com/xmlns/staroffice/presentation" xmlns:smil="http://www.w3.org/2001/SMIL20/" xmlns:anim="urn:oasis:names:tc:opendocument:xmlns:animation:1.0" xml:space="preserve">
 <defs class="ClipPathGroup">
  <clipPath id="presentation_clip_path" clipPathUnits="userSpaceOnUse">
   <rect x="0" y="0" width="4900" height="1800"/>
  </clipPath>
  <clipPath id="presentation_clip_path_shrink" clipPathUnits="userSpaceOnUse">
   <rect x="4" y="1" width="4891" height="1797"/>
  </clipPath>
 </defs>
 <defs class="TextShapeIndex">
  <g ooo:slide="id1" ooo:id-list="id3 id4 id5 id6 id7 id8 id9 id10 id11 id12 id13 id14"/>
 </defs>
 <defs class="EmbeddedBulletChars">
  <g id="bullet-char-template-57356" transform="scale(0.00048828125,-0.00048828125)">
   <path d="M 580,1141 L 1163,571 580,0 -4,571 580,1141 Z"/>
  </g>
  <g id="bullet-char-template-57354" transform="scale(0.00048828125,-0.00048828125)">
   <path d="M 8,1128 L 1137,1128 1137,0 8,0 8,1128 Z"/>
  </g>
  <g id="bullet-char-template-10146" transform="scale(0.00048828125,-0.00048828125)">
   <path d="M 174,0 L 602,739 174,1481 1456,739 174,0 Z M 1358,739 L 309,1346 659,739 1358,739 Z"/>
  </g>
  <g id="bullet-char-template-10132" transform="scale(0.00048828125,-0.00048828125)">
   <path d="M 2015,739 L 1276,0 717,0 1260,543 174,543 174,936 1260,936 717,1481 1274,1481 2015,739 Z"/>
  </g>
  <g id="bullet-char-template-10007" transform="scale(0.00048828125,-0.00048828125)">
   <path d="M 0,-2 C -7,14 -16,27 -25,37 L 356,567 C 262,823 215,952 215,954 215,979 228,992 255,992 264,992 276,990 289,987 310,991 331,999 354,1012 L 381,999 492,748 772,1049 836,1024 860,1049 C 881,1039 901,1025 922,1006 886,937 835,863 770,784 769,783 710,716 594,584 L 774,223 C 774,196 753,168 711,139 L 727,119 C 717,90 699,76 672,76 641,76 570,178 457,381 L 164,-76 C 142,-110 111,-127 72,-127 30,-127 9,-110 8,-76 1,-67 -2,-52 -2,-32 -2,-23 -1,-13 0,-2 Z"/>
  </g>
  <g id="bullet-char-template-10004" transform="scale(0.00048828125,-0.00048828125)">
   <path d="M 285,-33 C 182,-33 111,30 74,156 52,228 41,333 41,471 41,549 55,616 82,672 116,743 169,778 240,778 293,778 328,747 346,684 L 369,508 C 377,444 397,411 428,410 L 1163,1116 C 1174,1127 1196,1133 1229,1133 1271,1133 1292,1118 1292,1087 L 1292,965 C 1292,929 1282,901 1262,881 L 442,47 C 390,-6 338,-33 285,-33 Z"/>
  </g>
  <g id="bullet-char-template-9679" transform="scale(0.00048828125,-0.00048828125)">
   <path d="M 813,0 C 632,0 489,54 383,161 276,268 223,411 223,592 223,773 276,916 383,1023 489,1130 632,1184 813,1184 992,1184 1136,1130 1245,1023 1353,916 1407,772 1407,592 1407,412 1353,268 1245,161 1136,54 992,0 813,0 Z"/>
  </g>
  <g id="bullet-char-template-8226" transform="scale(0.00048828125,-0.00048828125)">
   <path d="M 346,457 C 273,457 209,483 155,535 101,586 74,649 74,723 74,796 101,859 155,911 209,963 273,989 346,989 419,989 480,963 531,910 582,859 608,796 608,723 608,648 583,586 532,535 482,483 420,457 346,457 Z"/>
  </g>
  <g id="bullet-char-template-8211" transform="scale(0.00048828125,-0.00048828125)">
   <path d="M -4,459 L 1135,459 1135,606 -4,606 -4,459 Z"/>
  </g>
  <g id="bullet-char-template-61548" transform="scale(0.00048828125,-0.00048828125)">
   <path d="M 173,740 C 173,903 231,1043 346,1159 462,1274 601,1332 765,1332 928,1332 1067,1274 1183,1159 1299,1043 1357,903 1357,740 1357,577 1299,437 1183,322 1067,206 928,148 765,148 601,148 462,206 346,322 231,437 173,577 173,740 Z"/>
  </g>
 </defs>
 <defs class="TextEmbeddedBitmaps"/>
 <g>
  <g id="id2" class="Master_Slide">
   <g id="bg-id2" class="Background"/>
   <g id="bo-id2" class="BackgroundObjects"/>
  </g>
 </g>
 <g class="SlideGroup">
  <g>
   <g id="container-id1">
    <g id="id1" class="Slide" clip-path="url(#presentation_clip_path)">
     <g class="Page">
      <g class="com.sun.star.drawing.PolyPolygonShape">
       <g id="id3">
        <rect class="BoundingBox" stroke="none" fill="none" x="0" y="0" width="4907" height="1797"/>
        <path fill="rgb(68,37,131)" stroke="none" d="M 0,0 L 4906,0 4906,1796 0,1796 0,0 Z"/>
       </g>
      </g>
      <g class="com.sun.star.drawing.PolyPolygonShape">
       <g id="id4">
        <rect class="BoundingBox" stroke="none" fill="none" x="0" y="0" width="4907" height="1797"/>
        <path fill="rgb(68,37,131)" stroke="none" d="M 0,0 L 4906,0 4906,1796 0,1796 0,0 Z"/>
       </g>
      </g>
      <g class="com.sun.star.drawing.ClosedBezierShape">
       <g id="id5">
        <rect class="BoundingBox" stroke="none" fill="none" x="2301" y="1041" width="268" height="363"/>
        <path fill="rgb(255,255,255)" stroke="none" d="M 2546,1117 L 2555,1060 C 2555,1060 2509,1041 2445,1041 2382,1041 2304,1060 2304,1149 2304,1227 2394,1241 2415,1247 2436,1252 2501,1264 2501,1299 2501,1333 2452,1344 2423,1343 2358,1342 2310,1313 2310,1313 L 2301,1374 C 2301,1374 2349,1402 2423,1402 2497,1402 2568,1371 2568,1299 2568,1231 2528,1207 2462,1192 2387,1174 2372,1163 2372,1143 2372,1120 2394,1101 2448,1101 2496,1101 2546,1117 2546,1117 Z"/>
       </g>
      </g>
      <g class="com.sun.star.drawing.ClosedBezierShape">
       <g id="id6">
        <rect class="BoundingBox" stroke="none" fill="none" x="2616" y="1039" width="282" height="364"/>
        <path fill="rgb(255,255,255)" stroke="none" d="M 2888,1116 L 2897,1057 C 2897,1057 2855,1040 2799,1040 2744,1040 2616,1051 2616,1223 2616,1394 2745,1402 2796,1402 2846,1402 2897,1381 2897,1381 L 2889,1325 C 2889,1325 2853,1342 2802,1342 2754,1342 2691,1333 2691,1222 2691,1109 2754,1102 2804,1102 2843,1102 2888,1116 2888,1116 Z"/>
       </g>
      </g>
      <g class="com.sun.star.drawing.ClosedBezierShape">
       <g id="id7">
        <rect class="BoundingBox" stroke="none" fill="none" x="2964" y="1047" width="301" height="351"/>
        <path fill="rgb(255,255,255)" stroke="none" d="M 3131,1339 C 3098,1339 3033,1338 3033,1338 L 3032,1243 C 3032,1243 3109,1244 3134,1244 3160,1244 3193,1249 3193,1290 3193,1333 3166,1339 3131,1339 Z M 3032,1104 C 3032,1104 3093,1105 3124,1105 3156,1105 3181,1114 3181,1149 3181,1179 3164,1193 3124,1193 3086,1193 3032,1193 3032,1193 L 3032,1104 Z M 3196,1214 L 3196,1211 C 3196,1211 3247,1204 3247,1135 3247,1063 3181,1047 3121,1047 L 2964,1047 2964,1397 C 2964,1397 3051,1396 3128,1396 3207,1396 3264,1370 3264,1297 3264,1228 3206,1216 3196,1214 Z"/>
       </g>
      </g>
      <g class="com.sun.star.drawing.ClosedBezierShape">
       <g id="id8">
        <rect class="BoundingBox" stroke="none" fill="none" x="341" y="397" width="2926" height="508"/>
        <path fill="rgb(255,255,255)" stroke="none" d="M 2813,625 L 2875,569 2825,542 2703,646 2712,647 C 2799,662 2840,698 2840,758 2840,784 2831,804 2812,821 2792,837 2766,846 2733,847 2730,847 2727,847 2725,847 2717,847 2709,847 2702,845 2693,844 2684,842 2675,840 L 2675,547 2615,547 2615,882 2618,883 C 2653,896 2689,903 2727,903 L 2732,903 C 2784,902 2826,888 2857,860 2886,834 2900,800 2900,758 2900,697 2871,652 2813,625 Z M 2488,775 C 2488,795 2479,811 2459,825 2440,839 2420,846 2397,846 2374,846 2357,840 2344,829 2331,817 2325,802 2325,781 L 2325,660 C 2325,623 2309,592 2279,571 2252,551 2217,541 2175,541 2112,541 2061,566 2027,617 L 2026,618 2026,898 2137,898 2137,841 2086,841 2086,634 C 2107,610 2136,597 2175,597 2202,597 2223,604 2240,616 2257,628 2265,645 2265,668 L 2265,781 C 2265,817 2276,847 2300,869 2323,893 2355,904 2393,904 2428,904 2459,892 2488,868 L 2488,898 2548,898 2548,547 2488,547 2488,775 Z M 3207,398 C 3187,398 3174,403 3165,412 3157,422 3154,435 3154,452 L 3154,472 3214,472 3214,458 C 3215,446 3220,442 3236,441 L 3265,441 3265,437 3266,403 3266,398 3207,398 Z M 3188,819 C 3161,837 3132,845 3100,845 3068,845 3043,839 3025,828 3007,816 2998,801 2998,781 2998,772 3000,765 3005,757 3009,750 3015,743 3022,737 3030,732 3038,727 3047,724 3057,721 3066,719 3076,719 L 3117,719 3117,663 3068,663 C 3024,662 3006,651 3006,630 3006,609 3021,599 3058,599 3062,599 3069,600 3078,601 3087,602 3099,604 3111,607 L 3117,609 3117,553 3114,552 C 3095,546 3076,542 3057,542 3041,542 3026,545 3013,549 2999,553 2988,559 2977,567 2967,574 2959,583 2953,594 2947,605 2944,617 2944,630 2944,645 2950,660 2961,672 2970,682 2980,690 2991,695 2978,702 2967,712 2958,724 2944,742 2937,761 2937,782 2936,816 2951,844 2978,867 3007,891 3048,903 3100,903 3163,903 3212,884 3246,844 L 3247,841 3247,547 3188,547 3188,819 Z M 2273,421 L 2273,472 2548,472 2548,421 2273,421 Z M 1138,819 C 1111,837 1082,845 1050,845 1018,845 993,839 975,828 957,816 949,801 948,781 948,772 951,765 955,757 960,750 966,743 973,737 980,732 988,727 998,724 1007,721 1016,719 1026,719 L 1067,719 1067,663 1018,663 C 974,662 956,651 956,630 956,609 971,599 1008,599 1012,599 1019,600 1028,601 1038,602 1049,604 1062,607 L 1067,609 1067,553 1064,552 C 1045,546 1026,542 1007,542 992,542 977,545 963,549 950,553 938,559 928,567 917,574 909,583 903,594 897,605 895,617 895,630 895,645 900,660 912,672 920,682 930,690 941,695 929,702 918,712 908,724 894,742 887,761 887,782 887,816 901,844 929,867 958,891 998,903 1050,903 1113,903 1163,884 1197,844 L 1193,841 1198,841 1198,547 1138,547 1138,819 Z M 795,574 C 782,564 768,555 751,549 734,544 716,541 696,541 658,541 624,553 595,577 L 595,547 535,547 535,898 595,898 595,669 C 595,649 605,632 626,619 648,604 671,597 695,597 719,597 738,604 753,617 767,629 774,647 774,670 L 774,898 834,898 834,664 C 834,645 830,628 824,613 817,598 807,585 795,574 Z M 1828,541 C 1796,541 1768,547 1746,559 L 1744,560 1744,625 1751,620 C 1774,605 1799,597 1826,597 1852,597 1871,605 1884,620 1897,634 1904,655 1904,682 L 1904,898 1964,898 1964,668 C 1964,631 1953,601 1931,579 1908,553 1873,541 1828,541 Z M 1580,775 L 1502,547 1451,547 1372,775 1311,547 1250,547 1344,898 1390,898 1476,648 1562,898 1609,898 1703,547 1642,547 1580,775 Z M 422,450 L 341,450 341,492 402,492 C 420,492 424,495 425,506 426,513 399,532 399,560 L 399,894 399,898 460,898 460,894 460,568 C 459,542 485,533 486,502 486,468 463,450 422,450 Z"/>
       </g>
      </g>
      <g class="com.sun.star.drawing.ClosedBezierShape">
       <g id="id9">
        <rect class="BoundingBox" stroke="none" fill="none" x="3496" y="398" width="1012" height="1000"/>
        <path fill="rgb(249,167,13)" stroke="none" d="M 4507,1274 L 4368,732 4002,399 3634,732 3496,1274 3757,1397 3965,1397 3965,1212 C 3965,1212 3580,1415 3680,960 3714,809 3891,608 3992,552 3996,551 3999,549 4002,548 4101,596 4287,805 4322,960 4422,1415 4038,1212 4038,1212 L 4038,1397 4245,1397 4507,1274 Z"/>
       </g>
      </g>
      <g class="com.sun.star.drawing.ClosedBezierShape">
       <g id="id10">
        <rect class="BoundingBox" stroke="none" fill="none" x="2301" y="1041" width="268" height="363"/>
        <path fill="rgb(255,255,255)" stroke="none" d="M 2546,1117 L 2555,1060 C 2555,1060 2509,1041 2445,1041 2382,1041 2304,1060 2304,1149 2304,1227 2394,1241 2415,1247 2436,1252 2501,1264 2501,1299 2501,1333 2452,1344 2423,1343 2358,1342 2310,1313 2310,1313 L 2301,1374 C 2301,1374 2349,1402 2423,1402 2497,1402 2568,1371 2568,1299 2568,1231 2528,1207 2462,1192 2387,1174 2372,1163 2372,1143 2372,1120 2394,1101 2448,1101 2496,1101 2546,1117 2546,1117 Z"/>
       </g>
      </g>
      <g class="com.sun.star.drawing.ClosedBezierShape">
       <g id="id11">
        <rect class="BoundingBox" stroke="none" fill="none" x="2616" y="1039" width="282" height="364"/>
        <path fill="rgb(255,255,255)" stroke="none" d="M 2888,1116 L 2897,1057 C 2897,1057 2855,1040 2799,1040 2744,1040 2616,1051 2616,1223 2616,1394 2745,1402 2796,1402 2846,1402 2897,1381 2897,1381 L 2889,1325 C 2889,1325 2853,1342 2802,1342 2754,1342 2691,1333 2691,1222 2691,1109 2754,1102 2804,1102 2843,1102 2888,1116 2888,1116 Z"/>
       </g>
      </g>
      <g class="com.sun.star.drawing.ClosedBezierShape">
       <g id="id12">
        <rect class="BoundingBox" stroke="none" fill="none" x="2964" y="1047" width="301" height="351"/>
        <path fill="rgb(255,255,255)" stroke="none" d="M 3131,1339 C 3098,1339 3033,1338 3033,1338 L 3032,1243 C 3032,1243 3109,1244 3134,1244 3160,1244 3193,1249 3193,1290 3193,1333 3166,1339 3131,1339 Z M 3032,1104 C 3032,1104 3093,1105 3124,1105 3156,1105 3181,1114 3181,1149 3181,1179 3164,1193 3124,1193 3086,1193 3032,1193 3032,1193 L 3032,1104 Z M 3196,1214 L 3196,1211 C 3196,1211 3247,1204 3247,1135 3247,1063 3181,1047 3121,1047 L 2964,1047 2964,1397 C 2964,1397 3051,1396 3128,1396 3207,1396 3264,1370 3264,1297 3264,1228 3206,1216 3196,1214 Z"/>
       </g>
      </g>
      <g class="com.sun.star.drawing.ClosedBezierShape">
       <g id="id13">
        <rect class="BoundingBox" stroke="none" fill="none" x="341" y="397" width="2926" height="508"/>
        <path fill="rgb(255,255,255)" stroke="none" d="M 2813,625 L 2875,569 2825,542 2703,646 2712,647 C 2799,662 2840,698 2840,758 2840,784 2831,804 2812,821 2792,837 2766,846 2733,847 2730,847 2727,847 2725,847 2717,847 2709,847 2702,845 2693,844 2684,842 2675,840 L 2675,547 2615,547 2615,882 2618,883 C 2653,896 2689,903 2727,903 L 2732,903 C 2784,902 2826,888 2857,860 2886,834 2900,800 2900,758 2900,697 2871,652 2813,625 Z M 2488,775 C 2488,795 2479,811 2459,825 2440,839 2420,846 2397,846 2374,846 2357,840 2344,829 2331,817 2325,802 2325,781 L 2325,660 C 2325,623 2309,592 2279,571 2252,551 2217,541 2175,541 2112,541 2061,566 2027,617 L 2026,618 2026,898 2137,898 2137,841 2086,841 2086,634 C 2107,610 2136,597 2175,597 2202,597 2223,604 2240,616 2257,628 2265,645 2265,668 L 2265,781 C 2265,817 2276,847 2300,869 2323,893 2355,904 2393,904 2428,904 2459,892 2488,868 L 2488,898 2548,898 2548,547 2488,547 2488,775 Z M 3207,398 C 3187,398 3174,403 3165,412 3157,422 3154,435 3154,452 L 3154,472 3214,472 3214,458 C 3215,446 3220,442 3236,441 L 3265,441 3265,437 3266,403 3266,398 3207,398 Z M 3188,819 C 3161,837 3132,845 3100,845 3068,845 3043,839 3025,828 3007,816 2998,801 2998,781 2998,772 3000,765 3005,757 3009,750 3015,743 3022,737 3030,732 3038,727 3047,724 3057,721 3066,719 3076,719 L 3117,719 3117,663 3068,663 C 3024,662 3006,651 3006,630 3006,609 3021,599 3058,599 3062,599 3069,600 3078,601 3087,602 3099,604 3111,607 L 3117,609 3117,553 3114,552 C 3095,546 3076,542 3057,542 3041,542 3026,545 3013,549 2999,553 2988,559 2977,567 2967,574 2959,583 2953,594 2947,605 2944,617 2944,630 2944,645 2950,660 2961,672 2970,682 2980,690 2991,695 2978,702 2967,712 2958,724 2944,742 2937,761 2937,782 2936,816 2951,844 2978,867 3007,891 3048,903 3100,903 3163,903 3212,884 3246,844 L 3247,841 3247,547 3188,547 3188,819 Z M 2273,421 L 2273,472 2548,472 2548,421 2273,421 Z M 1138,819 C 1111,837 1082,845 1050,845 1018,845 993,839 975,828 957,816 949,801 948,781 948,772 951,765 955,757 960,750 966,743 973,737 980,732 988,727 998,724 1007,721 1016,719 1026,719 L 1067,719 1067,663 1018,663 C 974,662 956,651 956,630 956,609 971,599 1008,599 1012,599 1019,600 1028,601 1038,602 1049,604 1062,607 L 1067,609 1067,553 1064,552 C 1045,546 1026,542 1007,542 992,542 977,545 963,549 950,553 938,559 928,567 917,574 909,583 903,594 897,605 895,617 895,630 895,645 900,660 912,672 920,682 930,690 941,695 929,702 918,712 908,724 894,742 887,761 887,782 887,816 901,844 929,867 958,891 998,903 1050,903 1113,903 1163,884 1197,844 L 1193,841 1198,841 1198,547 1138,547 1138,819 Z M 795,574 C 782,564 768,555 751,549 734,544 716,541 696,541 658,541 624,553 595,577 L 595,547 535,547 535,898 595,898 595,669 C 595,649 605,632 626,619 648,604 671,597 695,597 719,597 738,604 753,617 767,629 774,647 774,670 L 774,898 834,898 834,664 C 834,645 830,628 824,613 817,598 807,585 795,574 Z M 1828,541 C 1796,541 1768,547 1746,559 L 1744,560 1744,625 1751,620 C 1774,605 1799,597 1826,597 1852,597 1871,605 1884,620 1897,634 1904,655 1904,682 L 1904,898 1964,898 1964,668 C 1964,631 1953,601 1931,579 1908,553 1873,541 1828,541 Z M 1580,775 L 1502,547 1451,547 1372,775 1311,547 1250,547 1344,898 1390,898 1476,648 1562,898 1609,898 1703,547 1642,547 1580,775 Z M 422,450 L 341,450 341,492 402,492 C 420,492 424,495 425,506 426,513 399,532 399,560 L 399,894 399,898 460,898 460,894 460,568 C 459,542 485,533 486,502 486,468 463,450 422,450 Z"/>
       </g>
      </g>
      <g class="com.sun.star.drawing.ClosedBezierShape">
       <g id="id14">
        <rect class="BoundingBox" stroke="none" fill="none" x="3496" y="398" width="1012" height="1000"/>
        <path fill="rgb(249,167,13)" stroke="none" d="M 4507,1274 L 4368,732 4002,399 3634,732 3496,1274 3757,1397 3965,1397 3965,1212 C 3965,1212 3580,1415 3680,960 3714,809 3891,608 3992,552 3996,551 3999,549 4002,548 4101,596 4287,805 4322,960 4422,1415 4038,1212 4038,1212 L 4038,1397 4245,1397 4507,1274 Z"/>
       </g>
      </g>
     </g>
    </g>
   </g>
  </g>
 </g>
</svg>