<svg xmlns="http://www.w3.org/2000/svg" viewBox="0 0 541.79 121.36"><defs><style>.cls-1{fill:#2fd6f2;}.cls-2{fill:#231f20;}.cls-3{fill:#faa01e;}.cls-4{fill:#fff;}.cls-5{fill:#1196d1;}.cls-6{fill:#0f0f0f;}.cls-7{fill:#00caf9;}</style></defs><title>vip-sellsuki</title><g id="Layer_2" data-name="Layer 2"><g id="Layer_1-2" data-name="Layer 1"><circle class="cls-1" cx="532.46" cy="31.58" r="9.33"/><path class="cls-2" d="M213.26,77.22A16.92,16.92,0,0,1,210,87.41a21.41,21.41,0,0,1-9.6,7.08,39.86,39.86,0,0,1-15,2.56q-10.38,0-17.13-3.5a21.85,21.85,0,0,1-7.77-6.71,14.13,14.13,0,0,1-3-8.17,5.15,5.15,0,0,1,1.79-3.94,6.52,6.52,0,0,1,4.57-1.65,5.83,5.83,0,0,1,3.81,1.28,10,10,0,0,1,2.65,3.8,24.36,24.36,0,0,0,2.9,5,11.46,11.46,0,0,0,4.38,3.3,17.91,17.91,0,0,0,7.42,1.3q6.32,0,10.26-2.62t4-6.54a6.53,6.53,0,0,0-2.13-5.05,14.16,14.16,0,0,0-5.51-3q-3.37-1-9-2.17a72.13,72.13,0,0,1-12.66-3.69A20.25,20.25,0,0,1,161.83,59a13.82,13.82,0,0,1-3-9.06A14.41,14.41,0,0,1,162,40.74a19.83,19.83,0,0,1,9.14-6.16,41.56,41.56,0,0,1,14.07-2.15,38.7,38.7,0,0,1,11.17,1.43,24.57,24.57,0,0,1,7.82,3.79,16.34,16.34,0,0,1,4.55,5,10.47,10.47,0,0,1,1.44,5.07,5.65,5.65,0,0,1-1.8,4.07,6,6,0,0,1-4.47,1.81,5.56,5.56,0,0,1-3.71-1.09,14.63,14.63,0,0,1-2.75-3.56,16.46,16.46,0,0,0-4.59-5.52q-2.68-2-8.61-2a16.28,16.28,0,0,0-8.87,2.15Q172,45.73,172,48.75A4.86,4.86,0,0,0,173.15,52a9.43,9.43,0,0,0,3.16,2.35,22.92,22.92,0,0,0,4.07,1.54q2.06.55,6.8,1.62,5.93,1.24,10.74,2.73a34.47,34.47,0,0,1,8.18,3.62,15.54,15.54,0,0,1,5.26,5.39A15.72,15.72,0,0,1,213.26,77.22Z"/><path class="cls-2" d="M260.87,76.24H235.32a14.07,14.07,0,0,0,1.79,7,11.57,11.57,0,0,0,4.64,4.56,13.44,13.44,0,0,0,6.39,1.54,17.36,17.36,0,0,0,4.29-.49,14.72,14.72,0,0,0,3.75-1.53,28.21,28.21,0,0,0,3.35-2.24q1.53-1.2,4-3.24a4.67,4.67,0,0,1,2.87-.77,5.12,5.12,0,0,1,3.25,1,3.33,3.33,0,0,1,1.24,2.77,7,7,0,0,1-1.39,3.69,15.34,15.34,0,0,1-4.19,4,25,25,0,0,1-7,3.22,33.91,33.91,0,0,1-9.74,1.28q-12.59,0-19.57-6.4T222,73.3a26.16,26.16,0,0,1,1.72-9.57,20.71,20.71,0,0,1,5-7.56,22.08,22.08,0,0,1,8.13-4.84,32.38,32.38,0,0,1,10.72-1.68,27.93,27.93,0,0,1,13.14,2.88A20.18,20.18,0,0,1,268.92,60a17.94,17.94,0,0,1,2.72,9.29q0,4.4-2.82,5.69A19.53,19.53,0,0,1,260.87,76.24Zm-25.55-6.61H259q-.48-6-3.61-8.93a11.53,11.53,0,0,0-8.26-3,11.11,11.11,0,0,0-8,3Q236,63.75,235.32,69.64Z"/><path class="cls-2" d="M282.65,90V39.5a7.31,7.31,0,0,1,1.75-5.29,6.31,6.31,0,0,1,4.72-1.79,6.57,6.57,0,0,1,4.79,1.77,7.08,7.08,0,0,1,1.82,5.3V90a7,7,0,0,1-1.84,5.31,6.6,6.6,0,0,1-4.76,1.77,6.23,6.23,0,0,1-4.66-1.84A7.17,7.17,0,0,1,282.65,90Z"/><path class="cls-2" d="M309.21,90V39.5A7.3,7.3,0,0,1,311,34.21a6.31,6.31,0,0,1,4.71-1.79,6.56,6.56,0,0,1,4.79,1.77,7.09,7.09,0,0,1,1.82,5.3V90a7,7,0,0,1-1.84,5.31,6.6,6.6,0,0,1-4.76,1.77A6.25,6.25,0,0,1,311,95.21,7.2,7.2,0,0,1,309.21,90Z"/><path class="cls-3" d="M377.84,81.83a13.14,13.14,0,0,1-2.63,8.25,16,16,0,0,1-7.78,5.2,38.79,38.79,0,0,1-12.51,1.77,33.81,33.81,0,0,1-12.06-1.92,17.55,17.55,0,0,1-7.42-4.79A9,9,0,0,1,333,84.56a4.23,4.23,0,0,1,1.53-3.28,5.62,5.62,0,0,1,3.88-1.37,4.9,4.9,0,0,1,3.16.89,10,10,0,0,1,2.11,2.52A13.48,13.48,0,0,0,348.52,88a16,16,0,0,0,7.64,1.54,12.06,12.06,0,0,0,6.44-1.56q2.51-1.56,2.51-3.56a4.73,4.73,0,0,0-2.61-4.48,34.83,34.83,0,0,0-8.59-2.69,77.55,77.55,0,0,1-11-3.13,18.12,18.12,0,0,1-6.77-4.33,9.25,9.25,0,0,1-2.54-6.61A10.79,10.79,0,0,1,336,56.55a15.86,15.86,0,0,1,6.92-5,29.31,29.31,0,0,1,11-1.86,40.4,40.4,0,0,1,9.12.94,24.37,24.37,0,0,1,6.74,2.51,13.45,13.45,0,0,1,4.12,3.5,6.38,6.38,0,0,1,1.41,3.75,4.12,4.12,0,0,1-1.5,3.28A6.45,6.45,0,0,1,369.51,65a5.69,5.69,0,0,1-3.42-1,21.11,21.11,0,0,1-3.23-3.07,11.52,11.52,0,0,0-3.5-2.73,12.11,12.11,0,0,0-5.46-1A11.66,11.66,0,0,0,348,58.49c-1.57.89-2.35,2-2.35,3.35a3.51,3.51,0,0,0,1.72,3A15,15,0,0,0,352,66.78q2.92.76,8,1.88A46.39,46.39,0,0,1,370,71.81a16.21,16.21,0,0,1,5.84,4.33A8.9,8.9,0,0,1,377.84,81.83Z"/><path class="cls-3" d="M422.83,90.49V89a27.92,27.92,0,0,1-4.93,4.43,19.1,19.1,0,0,1-5.65,2.66,25.61,25.61,0,0,1-7,.88,19.86,19.86,0,0,1-8.49-1.75A13.79,13.79,0,0,1,391,90.4q-2.44-3.71-2.44-10.66V56.68a7,7,0,0,1,1.77-5.22A6.44,6.44,0,0,1,395,49.73a6.62,6.62,0,0,1,4.79,1.75,6.9,6.9,0,0,1,1.82,5.2V75.31a25.8,25.8,0,0,0,.77,6.8,8,8,0,0,0,2.75,4.3A8.49,8.49,0,0,0,410.48,88a11.89,11.89,0,0,0,6.22-1.75A10.57,10.57,0,0,0,421,81.66q1.1-2.47,1.1-10.83V56.68a6.9,6.9,0,0,1,1.82-5.2,6.56,6.56,0,0,1,4.74-1.75,6.43,6.43,0,0,1,4.69,1.72,7,7,0,0,1,1.78,5.22V90.4a6.69,6.69,0,0,1-1.7,5,6.56,6.56,0,0,1-8.81-.06A6.49,6.49,0,0,1,422.83,90.49Z"/><path class="cls-3" d="M480.64,91.72,469.1,74.84l-7.08,6v9.25a6.67,6.67,0,0,1-2,5.19,6.58,6.58,0,0,1-4.57,1.81,6.25,6.25,0,0,1-4.74-1.79A7.33,7.33,0,0,1,449,90V40.35a9.06,9.06,0,0,1,1.68-5.91,5.86,5.86,0,0,1,4.79-2,6.33,6.33,0,0,1,4.78,1.84A7.5,7.5,0,0,1,462,39.67V67.89l14.69-13.73a35.05,35.05,0,0,1,4.17-3.49,6.24,6.24,0,0,1,3.49-.94,6.05,6.05,0,0,1,4.06,1.39,4.38,4.38,0,0,1,1.63,3.48q0,2.55-5.31,6.82l-6.94,5.67,13.4,18.75c1,1.39,1.7,2.46,2.13,3.18a4.08,4.08,0,0,1,.64,2.07,5.71,5.71,0,0,1-1.7,4.37,6.28,6.28,0,0,1-4.48,1.6,5.36,5.36,0,0,1-3.68-1.15A28.43,28.43,0,0,1,480.64,91.72Z"/><path class="cls-3" d="M514.91,56.34V90A7,7,0,0,1,513,95.26a6.56,6.56,0,0,1-4.74,1.79,6.24,6.24,0,0,1-4.67-1.84A7.18,7.18,0,0,1,501.84,90V56.68a7,7,0,0,1,1.79-5.2,6.41,6.41,0,0,1,4.67-1.75A6.66,6.66,0,0,1,513,51.48,6.33,6.33,0,0,1,514.91,56.34Z"/><path d="M123.2,10.34C121.93,5.23,119.37.62,113.62.07s-11.4,2.25-15.83,5.75c-2.61,2.07-5.35,4.08-8.14,5.89C80,18,73.52,17.11,73.52,17.11s-6.24.86-15.86-5.4c-2.79-1.81-5.27-3.82-7.88-5.89C45.35,2.31,39.77-.48,34,.07s-8.31,5.16-9.58,10.27c0,0-3.1,8.39-2.57,47,0,0-.12,29.17,3.17,36.43,0,0,7.44,26.48,48.55,26.61,41.12-.13,48.82-26.61,48.82-26.61,3.29-7.26,3.31-36.43,3.31-36.43C126.17,18.73,123.2,10.34,123.2,10.34Z"/><path class="cls-3" d="M96.45,18.3s12.58,4.34,21,13a3.79,3.79,0,0,0,1.58.83c-.35-4.88.3-9.79-.09-14.67a27.86,27.86,0,0,0-.62-4.71A6.65,6.65,0,0,0,116,8.93c-2.21-1.43-5.74-.14-7.85.91-3.91,1.95-6.85,4.92-10.29,7.53C97.69,17.52,96.75,18.4,96.45,18.3Z"/><path class="cls-4" d="M113.32,14.57c-5.75-3-13.4,4.93-13.53,5.07,4.19,1.84,11.52,5.58,17.14,11.22a16.42,16.42,0,0,1,.2-1.76c0-.71.07-1.43.09-2.15C117.27,22.89,117.57,16.77,113.32,14.57Z"/><path class="cls-3" d="M119,64.42s.52-25.3-17.57-34.62a57.65,57.65,0,0,0-27.67-6.33A57.64,57.64,0,0,0,46.11,29.8C28,39.12,28.54,64.42,28.54,64.42c-1.75,31.27,9.4,37.17,9.4,37.17,5.18,5.35,12.91,3.24,12.91,3.24C65.61,100,70.56,94.27,70.56,89.13c0-6-6.45-6.72-9.61-9.37s-3-7.1-3-7.1.13-.45,1.05-1c1.39-1,5-2.29,14.67-2.29h.45c14.8.07,15.72,3.3,15.72,3.3s.25,4.41-3,7.1-9.84,3.52-9.84,10.17l0,0c.42,4.94,5.64,10.34,19.67,14.94,0,0,7.74,2.11,12.92-3.24C109.63,101.59,120.79,95.69,119,64.42Z"/><path d="M110.32,18.52a.79.79,0,0,1,.6-.18c.91.1.14,2.18,0,2.72a16.9,16.9,0,0,0-.47,3.61c0,.3,0,.94.29,1.14,0,0-5.8-3.6-7.05-4,1.5.44,2.79-.35,4-1.23.45-.32.89-.66,1.32-1l.71-.57A7,7,0,0,1,110.32,18.52Z"/><path class="cls-5" d="M101.46,29.8a57.65,57.65,0,0,0-27.67-6.33A57.64,57.64,0,0,0,46.11,29.8C38,34,33.69,41.27,31.32,48.11h84.92C113.88,41.27,109.52,34,101.46,29.8Z"/><circle cx="102.1" cy="64.74" r="4.97"/><path class="cls-4" d="M106.3,52.73c.39,1.46-1.22,3.15-3.6,3.79s-4.61,0-5-1.49,1.21-3.14,3.59-3.78S105.9,51.27,106.3,52.73Z"/><path class="cls-3" d="M51.12,18.3s-12.59,4.34-20.95,13a3.83,3.83,0,0,1-1.59.83c.34-4.88-.3-9.79.09-14.67a27.42,27.42,0,0,1,.63-4.71,6.61,6.61,0,0,1,2.25-3.86c2.22-1.43,5.75-.14,7.85.91,3.92,1.95,6.85,4.92,10.29,7.53C49.88,17.52,50.81,18.4,51.12,18.3Z"/><path class="cls-4" d="M34.25,14.57c5.74-3,13.4,4.93,13.53,5.07-4.19,1.84-11.51,5.58-17.15,11.22a14.68,14.68,0,0,0-.2-1.76c0-.71-.07-1.43-.08-2.15C30.3,22.89,30,16.77,34.25,14.57Z"/><path d="M37.26,18.52a.8.8,0,0,0-.6-.18c-.91.1-.14,2.18,0,2.72a16.38,16.38,0,0,1,.47,3.61c0,.3,0,.94-.28,1.14,0,0,5.8-3.6,7-4-1.5.44-2.79-.35-4-1.23-.45-.32-.88-.66-1.32-1l-.7-.57C37.64,18.87,37.46,18.67,37.26,18.52Z"/><path d="M40.49,64.74a5,5,0,1,1,5,5A5,5,0,0,1,40.49,64.74Z"/><path class="cls-4" d="M42.47,52.73c-.39,1.46,1.22,3.15,3.59,3.79s4.61,0,5-1.49-1.22-3.14-3.59-3.78S42.86,51.27,42.47,52.73Z"/><path class="cls-4" d="M73.52,100.75c-15.81,0-18.45,9.58-18.45,9.58,4,2.24,18.45,2.06,18.45,2.06s14.41.18,18.45-2.06C92,110.33,89.34,100.75,73.52,100.75Z"/><path class="cls-4" d="M28.6,77.76c1.19-3.6,6.61-5.26,6.61-5.26,8.92-2.41,11.82,12,11.82,12,16.67,11,21.43,4.82,23.52,4.84-.09,5.08-5.15,10.71-19.69,15.47,0,0-7.07,1.92-12.23-2.62-.32-.24-.82-.64-1.29-1C35.47,99.73,29.86,94.12,28.6,77.76Z"/><path class="cls-4" d="M119.16,77.76c-1.19-3.6-6.64-5.26-6.64-5.26-9-2.41-11.87,12-11.87,12C83.9,95.53,79.11,89.33,77,89.36c.08,5.08,5.17,10.71,19.79,15.47,0,0,7.11,1.92,12.29-2.62.32-.24.82-.64,1.3-1C112.26,99.73,117.89,94.12,119.16,77.76Z"/><path class="cls-5" d="M22,48.41a36.56,36.56,0,0,1-.38-4.15c-7.93,4.36-39,22.87.13,25.67C21.73,69.94,21.32,56.12,22,48.41Z"/><path class="cls-6" d="M24.19,72.5l-2.63-.19c-13.48-1-20.28-3.82-21.41-9-1.61-7.37,10.15-15.56,20.3-21.14l3.38-1.86L24,44.18A33.34,33.34,0,0,0,24.33,48l0,.28,0,.28c-.64,7.49-.25,21.12-.24,21.25ZM19.55,48.18C10.11,53.79,4.17,59.41,4.8,62.3c.2.9,1.85,3.8,14.49,5-.08-4.36-.17-13.08.3-18.85Z"/><path class="cls-1" d="M85.42,36.36A2.46,2.46,0,0,1,83.19,39H63.85a2.46,2.46,0,0,1-2.23-2.65h0a2.47,2.47,0,0,1,2.23-2.66H83.19a2.47,2.47,0,0,1,2.23,2.66Z"/><path d="M123.24,11.28C122,6.16,119.42,1.56,113.66,1s-11.4,2.25-15.83,5.75c-2.61,2.07-5.35,4.08-8.15,5.89C80.07,18.9,73.56,18,73.56,18s-6.24.86-15.86-5.4c-2.79-1.81-5.27-3.82-7.88-5.89C45.4,3.25,39.81.46,34,1s-8.32,5.15-9.58,10.28c0,0-3.1,8.39-2.57,47,0,0-.12,29.17,3.17,36.42,0,0,7.44,26.49,48.55,26.62,41.12-.13,48.82-26.62,48.82-26.62,3.29-7.26,3.31-36.42,3.31-36.42C126.21,19.67,123.24,11.28,123.24,11.28Z"/><path class="cls-3" d="M96.5,19.24s12.58,4.34,21,13a3.8,3.8,0,0,0,1.58.83c-.34-4.89.3-9.79-.09-14.67a27.77,27.77,0,0,0-.62-4.71,6.64,6.64,0,0,0-2.25-3.86c-2.22-1.43-5.75-.14-7.85.91-3.91,1.94-6.85,4.92-10.29,7.53C97.74,18.46,96.8,19.34,96.5,19.24Z"/><path class="cls-4" d="M113.37,15.51c-5.75-3-13.4,4.93-13.54,5.07C104,22.42,111.35,26.17,117,31.81a16,16,0,0,1,.2-1.76c0-.71.07-1.43.09-2.15C117.32,23.83,117.62,17.71,113.37,15.51Z"/><path class="cls-3" d="M119.08,65.35s.52-25.29-17.57-34.61a57.64,57.64,0,0,0-27.68-6.32,57.61,57.61,0,0,0-27.68,6.32c-18.1,9.32-17.57,34.61-17.57,34.61C26.83,96.63,38,102.53,38,102.53c5.18,5.36,12.92,3.25,12.92,3.25,14.76-4.84,19.7-10.57,19.7-15.7,0-6-6.45-6.72-9.6-9.38s-3-7.09-3-7.09.13-.45,1.05-1c1.39-1,5-2.29,14.67-2.29h.45c14.8.07,15.72,3.3,15.72,3.3s.25,4.4-3,7.09-9.84,3.52-9.84,10.17l0,0c.42,4.94,5.63,10.34,19.66,14.94,0,0,7.74,2.11,12.92-3.25C109.67,102.53,120.83,96.63,119.08,65.35Z"/><path d="M110.36,19.46a.8.8,0,0,1,.6-.18c.91.1.14,2.19,0,2.72a17.31,17.31,0,0,0-.47,3.61c0,.3,0,.95.29,1.14,0,0-5.8-3.6-7.05-4,1.5.43,2.79-.35,4-1.23.45-.32.89-.66,1.33-1l.7-.58C110,19.8,110.16,19.61,110.36,19.46Z"/><path class="cls-7" d="M101.51,30.74a57.64,57.64,0,0,0-27.68-6.32,57.61,57.61,0,0,0-27.68,6.32C38.09,34.89,33.73,42.21,31.37,49h84.92C113.92,42.21,109.56,34.89,101.51,30.74Z"/><circle cx="102.14" cy="65.68" r="4.97"/><path class="cls-4" d="M106.34,53.67c.39,1.46-1.22,3.16-3.59,3.79s-4.61,0-5-1.49,1.21-3.15,3.59-3.79S105.94,52.21,106.34,53.67Z"/><path class="cls-3" d="M51.16,19.24s-12.59,4.34-20.95,13a3.83,3.83,0,0,1-1.59.83c.34-4.89-.3-9.79.09-14.67a27.62,27.62,0,0,1,.63-4.71,6.62,6.62,0,0,1,2.25-3.86c2.22-1.43,5.75-.14,7.85.91,3.91,1.94,6.85,4.92,10.29,7.53C49.92,18.46,50.86,19.34,51.16,19.24Z"/><path class="cls-4" d="M34.3,15.51c5.74-3,13.4,4.93,13.53,5.07-4.18,1.84-11.51,5.59-17.15,11.23a14.3,14.3,0,0,0-.2-1.76c0-.71-.07-1.43-.09-2.15C30.34,23.83,30,17.71,34.3,15.51Z"/><path d="M37.3,19.46a.79.79,0,0,0-.6-.18c-.91.1-.14,2.19,0,2.72a16.62,16.62,0,0,1,.47,3.61c0,.3,0,.95-.28,1.14,0,0,5.8-3.6,7-4-1.5.43-2.79-.35-4-1.23-.45-.32-.89-.66-1.32-1l-.7-.58A7.21,7.21,0,0,0,37.3,19.46Z"/><circle cx="45.51" cy="65.68" r="4.97"/><path class="cls-4" d="M42.51,53.67c-.39,1.46,1.22,3.16,3.59,3.79s4.61,0,5-1.49-1.22-3.15-3.59-3.79S42.9,52.21,42.51,53.67Z"/><path class="cls-4" d="M73.56,101.69c-15.81,0-18.45,9.58-18.45,9.58,4,2.24,18.45,2.06,18.45,2.06S88,113.51,92,111.27C92,111.27,89.39,101.69,73.56,101.69Z"/><path class="cls-4" d="M28.65,78.7c1.19-3.6,6.61-5.26,6.61-5.26,8.92-2.42,11.82,12,11.82,12,16.67,11,21.43,4.82,23.52,4.84-.09,5.09-5.15,10.72-19.69,15.48,0,0-7.07,1.92-12.23-2.62-.32-.24-.82-.64-1.29-1C35.52,100.68,29.91,95.06,28.65,78.7Z"/><path class="cls-4" d="M119.2,78.7c-1.19-3.6-6.64-5.26-6.64-5.26-9-2.42-11.87,12-11.87,12-16.75,11-21.53,4.82-23.62,4.84.08,5.09,5.17,10.72,19.79,15.48,0,0,7.1,1.92,12.29-2.62.32-.24.82-.64,1.3-1C112.3,100.68,117.94,95.06,119.2,78.7Z"/><path class="cls-7" d="M22,49.35a35.85,35.85,0,0,1-.38-4.14c-7.93,4.35-39,22.87.13,25.67C21.78,70.87,21.36,57.06,22,49.35Z"/><path d="M24.23,73.44l-2.63-.19c-13.48-1-20.28-3.82-21.41-9-1.61-7.37,10.15-15.56,20.3-21.14l3.39-1.86L24,45.12A33.66,33.66,0,0,0,24.38,49l0,.28,0,.28c-.64,7.49-.25,21.12-.24,21.25ZM19.59,49.12C10.15,54.73,4.21,60.35,4.84,63.24c.2.9,1.85,3.8,14.49,5-.08-4.36-.17-13.08.3-18.86Z"/><path class="cls-3" d="M85.47,37.3a2.47,2.47,0,0,1-2.23,2.65H63.89a2.47,2.47,0,0,1-2.23-2.65h0a2.47,2.47,0,0,1,2.23-2.65H83.24a2.47,2.47,0,0,1,2.23,2.65Z"/></g></g></svg>