<svg xmlns="http://www.w3.org/2000/svg" viewBox="0 0 311.37 77.98"><defs><style>.cls-1{fill:#ff7d00}</style></defs><title>Asset 1</title><g id="Layer_2" data-name="Layer 2"><g id="Layer_1-2" data-name="Layer 1"><path class="cls-1" d="M12.25,0H40C66.17,0,80.54,13.81,78.2,39,75.86,64.5,58.15,78,30.74,78H0Zm19.6,61.6C45,61.6,54.36,52.8,56.14,40l.33-2.34c1.89-13.14-4.9-21.28-17.27-21.28H31.08L23.95,61.6ZM82.77,46.79c3-18.94,15-28.07,34.2-28.07,16.93,0,26,9,23.5,24.51L138.8,53.69h-37c-1,6.46,1.45,10.14,12,10.14h23.39L135,78H109.95C90.12,78,79.65,66.17,82.77,46.79Zm40.88-4.34c1.22-7.46-1-11.47-8-11.47-6.46,0-10.81,3.68-12,11.47Zm27.18-22.39h20.83L168,43h2.12l22.28-22.95h20.27L212,24.17,187.14,48.68l17.15,24.06L203.51,78H183.24l-15-22.72h-2.12L162.52,78H141.69ZM206.3,41.1h25.06l-2.45,15.37H203.85ZM245.18,0h27.74c26.18,0,40.55,13.81,38.21,39-2.34,25.51-20.05,39-47.45,39H232.92Zm19.61,61.6c13.14,0,22.5-8.8,24.28-21.61l.33-2.34c1.89-13.14-4.9-21.28-17.26-21.28H264L256.87,61.6Z"/></g></g></svg>