<?xml version="1.0" encoding="UTF-8"?>
<!DOCTYPE svg PUBLIC "-//W3C//DTD SVG 1.1//EN" "http://www.w3.org/Graphics/SVG/1.1/DTD/svg11.dtd">
<svg version="1.2" width="44.5mm" height="13mm" viewBox="0 0 4450 1300" preserveAspectRatio="xMidYMid" fill-rule="evenodd" stroke-width="28.222" stroke-linejoin="round" xmlns="http://www.w3.org/2000/svg" xmlns:ooo="http://xml.openoffice.org/svg/export" xmlns:xlink="http://www.w3.org/1999/xlink" xmlns:presentation="http://sun.com/xmlns/staroffice/presentation" xmlns:smil="http://www.w3.org/2001/SMIL20/" xmlns:anim="urn:oasis:names:tc:opendocument:xmlns:animation:1.0" xml:space="preserve">
 <defs class="ClipPathGroup">
  <clipPath id="presentation_clip_path" clipPathUnits="userSpaceOnUse">
   <rect x="0" y="0" width="4450" height="1300"/>
  </clipPath>
  <clipPath id="presentation_clip_path_shrink" clipPathUnits="userSpaceOnUse">
   <rect x="4" y="1" width="4442" height="1298"/>
  </clipPath>
 </defs>
 <defs class="TextShapeIndex">
  <g ooo:slide="id1" ooo:id-list="id3 id4 id5 id6 id7 id8"/>
 </defs>
 <defs class="EmbeddedBulletChars">
  <g id="bullet-char-template-57356" transform="scale(0.00048828125,-0.00048828125)">
   <path d="M 580,1141 L 1163,571 580,0 -4,571 580,1141 Z"/>
  </g>
  <g id="bullet-char-template-57354" transform="scale(0.00048828125,-0.00048828125)">
   <path d="M 8,1128 L 1137,1128 1137,0 8,0 8,1128 Z"/>
  </g>
  <g id="bullet-char-template-10146" transform="scale(0.00048828125,-0.00048828125)">
   <path d="M 174,0 L 602,739 174,1481 1456,739 174,0 Z M 1358,739 L 309,1346 659,739 1358,739 Z"/>
  </g>
  <g id="bullet-char-template-10132" transform="scale(0.00048828125,-0.00048828125)">
   <path d="M 2015,739 L 1276,0 717,0 1260,543 174,543 174,936 1260,936 717,1481 1274,1481 2015,739 Z"/>
  </g>
  <g id="bullet-char-template-10007" transform="scale(0.00048828125,-0.00048828125)">
   <path d="M 0,-2 C -7,14 -16,27 -25,37 L 356,567 C 262,823 215,952 215,954 215,979 228,992 255,992 264,992 276,990 289,987 310,991 331,999 354,1012 L 381,999 492,748 772,1049 836,1024 860,1049 C 881,1039 901,1025 922,1006 886,937 835,863 770,784 769,783 710,716 594,584 L 774,223 C 774,196 753,168 711,139 L 727,119 C 717,90 699,76 672,76 641,76 570,178 457,381 L 164,-76 C 142,-110 111,-127 72,-127 30,-127 9,-110 8,-76 1,-67 -2,-52 -2,-32 -2,-23 -1,-13 0,-2 Z"/>
  </g>
  <g id="bullet-char-template-10004" transform="scale(0.00048828125,-0.00048828125)">
   <path d="M 285,-33 C 182,-33 111,30 74,156 52,228 41,333 41,471 41,549 55,616 82,672 116,743 169,778 240,778 293,778 328,747 346,684 L 369,508 C 377,444 397,411 428,410 L 1163,1116 C 1174,1127 1196,1133 1229,1133 1271,1133 1292,1118 1292,1087 L 1292,965 C 1292,929 1282,901 1262,881 L 442,47 C 390,-6 338,-33 285,-33 Z"/>
  </g>
  <g id="bullet-char-template-9679" transform="scale(0.00048828125,-0.00048828125)">
   <path d="M 813,0 C 632,0 489,54 383,161 276,268 223,411 223,592 223,773 276,916 383,1023 489,1130 632,1184 813,1184 992,1184 1136,1130 1245,1023 1353,916 1407,772 1407,592 1407,412 1353,268 1245,161 1136,54 992,0 813,0 Z"/>
  </g>
  <g id="bullet-char-template-8226" transform="scale(0.00048828125,-0.00048828125)">
   <path d="M 346,457 C 273,457 209,483 155,535 101,586 74,649 74,723 74,796 101,859 155,911 209,963 273,989 346,989 419,989 480,963 531,910 582,859 608,796 608,723 608,648 583,586 532,535 482,483 420,457 346,457 Z"/>
  </g>
  <g id="bullet-char-template-8211" transform="scale(0.00048828125,-0.00048828125)">
   <path d="M -4,459 L 1135,459 1135,606 -4,606 -4,459 Z"/>
  </g>
  <g id="bullet-char-template-61548" transform="scale(0.00048828125,-0.00048828125)">
   <path d="M 173,740 C 173,903 231,1043 346,1159 462,1274 601,1332 765,1332 928,1332 1067,1274 1183,1159 1299,1043 1357,903 1357,740 1357,577 1299,437 1183,322 1067,206 928,148 765,148 601,148 462,206 346,322 231,437 173,577 173,740 Z"/>
  </g>
 </defs>
 <defs class="TextEmbeddedBitmaps"/>
 <g>
  <g id="id2" class="Master_Slide">
   <g id="bg-id2" class="Background"/>
   <g id="bo-id2" class="BackgroundObjects"/>
  </g>
 </g>
 <g class="SlideGroup">
  <g>
   <g id="container-id1">
    <g id="id1" class="Slide" clip-path="url(#presentation_clip_path)">
     <g class="Page">
      <g class="com.sun.star.drawing.PolyPolygonShape">
       <g id="id3">
        <rect class="BoundingBox" stroke="none" fill="none" x="3141" y="0" width="1306" height="1293"/>
        <path fill="rgb(68,37,131)" stroke="none" d="M 4446,1292 L 3141,1292 3141,0 4446,0 4446,1292 Z"/>
       </g>
      </g>
      <g class="com.sun.star.drawing.ClosedBezierShape">
       <g id="id4">
        <rect class="BoundingBox" stroke="none" fill="none" x="1952" y="789" width="267" height="360"/>
        <path fill="rgb(68,37,131)" stroke="none" d="M 2196,864 L 2205,807 C 2205,807 2158,789 2096,789 2033,789 1955,807 1955,895 1955,973 2046,987 2066,992 2087,998 2151,1010 2151,1044 2151,1078 2103,1090 2075,1089 2010,1088 1961,1059 1961,1059 L 1952,1121 C 1952,1121 2001,1148 2074,1148 2147,1148 2218,1117 2218,1044 2218,977 2177,953 2113,937 2038,920 2023,909 2023,889 2023,867 2045,848 2099,848 2145,848 2196,864 2196,864 Z"/>
       </g>
      </g>
      <g class="com.sun.star.drawing.ClosedBezierShape">
       <g id="id5">
        <rect class="BoundingBox" stroke="none" fill="none" x="2265" y="787" width="282" height="362"/>
        <path fill="rgb(68,37,131)" stroke="none" d="M 2536,863 L 2545,805 C 2545,805 2504,787 2447,787 2391,787 2265,799 2265,969 2265,1140 2393,1148 2443,1148 2493,1148 2546,1127 2546,1127 L 2537,1070 C 2537,1070 2501,1087 2450,1087 2402,1087 2340,1078 2340,968 2340,856 2401,849 2452,849 2490,849 2536,863 2536,863 Z"/>
       </g>
      </g>
      <g class="com.sun.star.drawing.ClosedBezierShape">
       <g id="id6">
        <rect class="BoundingBox" stroke="none" fill="none" x="2612" y="794" width="300" height="350"/>
        <path fill="rgb(68,37,131)" stroke="none" d="M 2778,1085 C 2745,1085 2680,1084 2680,1084 L 2680,989 C 2680,989 2756,989 2781,989 2806,989 2839,994 2839,1035 2839,1079 2812,1085 2778,1085 Z M 2680,852 C 2680,852 2741,852 2771,852 2802,852 2827,861 2827,895 2827,925 2810,939 2772,939 2733,939 2680,939 2680,939 L 2680,852 Z M 2842,960 L 2842,957 C 2842,957 2894,950 2894,881 2894,810 2827,794 2769,794 L 2612,794 2612,1143 C 2612,1143 2698,1142 2776,1142 2852,1142 2911,1116 2911,1044 2911,974 2852,962 2842,960 Z"/>
       </g>
      </g>
      <g class="com.sun.star.drawing.ClosedBezierShape">
       <g id="id7">
        <rect class="BoundingBox" stroke="none" fill="none" x="0" y="148" width="2914" height="505"/>
        <path fill="rgb(68,37,131)" stroke="none" d="M 2462,375 L 2523,319 2474,292 2352,396 2361,398 C 2448,412 2488,448 2489,507 2489,533 2479,554 2460,570 2441,586 2415,595 2382,596 2379,597 2376,597 2374,597 2366,597 2358,596 2351,595 2342,593 2333,591 2324,589 L 2324,297 2264,297 2264,630 2267,631 C 2302,644 2338,651 2376,651 L 2381,651 C 2433,650 2474,636 2505,609 2534,584 2548,549 2548,507 2549,447 2519,402 2462,375 Z M 2137,524 C 2136,544 2128,561 2109,574 2090,589 2070,596 2047,596 2024,596 2007,590 1994,578 1982,566 1975,551 1975,531 L 1975,410 C 1975,373 1960,343 1930,321 1903,301 1868,291 1826,291 1763,291 1713,317 1678,367 L 1678,368 1678,646 1788,646 1788,590 1737,590 1737,385 C 1758,360 1787,348 1826,347 1853,347 1874,354 1891,366 1907,378 1916,395 1916,418 L 1916,531 C 1916,566 1927,596 1951,618 1974,641 2005,652 2043,652 2078,652 2109,640 2137,617 L 2137,646 2196,646 2196,297 2137,297 2137,524 Z M 2854,149 C 2834,149 2821,153 2812,162 2804,173 2801,187 2801,203 L 2801,223 2861,223 2861,209 C 2861,197 2866,193 2883,192 L 2912,192 2912,188 2913,153 2913,149 2854,149 Z M 2834,569 C 2808,586 2779,595 2747,595 2715,595 2690,589 2672,577 2654,565 2646,551 2646,531 2646,522 2648,514 2652,507 2657,499 2663,493 2670,487 2677,482 2686,477 2695,474 2704,471 2713,469 2723,469 L 2764,469 2764,413 2715,413 C 2671,412 2654,401 2653,380 2654,360 2668,350 2705,349 2709,349 2716,350 2726,351 2735,353 2746,355 2759,358 L 2764,359 2764,304 2761,303 C 2742,296 2723,293 2705,293 2689,293 2674,295 2661,300 2647,304 2635,310 2625,317 2615,325 2606,334 2601,344 2595,355 2592,367 2592,380 2592,396 2598,410 2609,422 2618,432 2627,440 2639,445 2626,452 2615,462 2606,474 2592,491 2584,511 2584,532 2584,565 2599,594 2626,616 2655,639 2695,651 2747,651 2810,651 2859,632 2893,593 L 2894,590 2894,297 2834,297 2834,569 Z M 1924,172 L 1924,223 2196,223 2196,172 1924,172 Z M 793,569 C 767,586 738,595 706,595 674,595 649,589 631,577 613,565 605,551 605,531 605,522 607,514 611,507 616,499 622,493 629,487 636,482 645,477 654,474 663,471 672,469 682,469 L 723,469 723,413 674,413 C 630,412 612,401 612,380 613,360 627,350 664,349 668,349 675,350 684,351 694,353 705,355 718,358 L 723,359 723,304 720,303 C 701,296 682,293 663,293 648,293 633,295 620,300 606,304 594,310 584,317 574,325 565,334 560,344 554,355 551,367 551,380 551,396 557,410 568,422 577,432 586,440 598,445 585,452 574,462 565,474 551,491 544,511 544,532 543,565 558,594 585,616 614,639 654,651 706,651 769,651 818,632 852,593 L 849,590 853,590 853,297 793,297 793,569 Z M 452,325 C 439,314 425,306 408,300 392,294 373,291 354,291 316,291 282,303 253,327 L 253,297 193,297 193,646 253,646 253,419 C 253,399 263,383 284,369 306,355 329,347 352,347 377,347 396,354 410,367 424,380 431,397 431,420 L 431,646 491,646 491,414 C 491,395 487,378 480,363 474,348 464,335 452,325 Z M 1481,291 C 1449,291 1421,297 1399,310 L 1397,311 1397,375 1404,371 C 1427,355 1452,347 1478,347 1505,347 1524,355 1537,370 1550,385 1556,405 1557,432 L 1557,646 1616,646 1616,418 C 1616,381 1605,351 1583,329 1560,304 1525,291 1481,291 Z M 1234,525 L 1156,297 1105,297 1027,525 966,297 905,297 998,646 1045,646 1130,398 1215,646 1263,646 1356,297 1295,297 1234,525 Z M 81,201 L 0,201 0,242 60,242 C 78,243 83,246 83,257 85,264 58,283 57,310 L 57,642 57,646 118,646 118,642 118,318 C 118,293 144,284 144,253 144,219 121,201 81,201 Z"/>
       </g>
      </g>
      <g class="com.sun.star.drawing.ClosedBezierShape">
       <g id="id8">
        <rect class="BoundingBox" stroke="none" fill="none" x="3290" y="149" width="1008" height="996"/>
        <path fill="rgb(249,167,13)" stroke="none" d="M 4297,1020 L 4159,480 3794,149 3428,480 3290,1020 3551,1143 3758,1143 3758,959 C 3758,959 3374,1161 3474,707 3507,557 3684,357 3785,301 3788,299 3791,298 3794,296 3893,344 4079,552 4113,707 4213,1161 3830,959 3830,959 L 3830,1143 4036,1143 4297,1020 Z"/>
       </g>
      </g>
     </g>
    </g>
   </g>
  </g>
 </g>
</svg>