<svg viewBox="0 0 2742.93 2721.34" xmlns="http://www.w3.org/2000/svg"><path d="m1355.38 0-418.26 190.6 409.25-110.84 67.25 439.1 68.82-285.9z" fill="#9b959e"/><path d="m1126.64 582.39-189.52-391.79 409.25-110.84 67.25 439.1z" fill="#c7b3b6"/><path d="m1413.62 931.82 127.06-349.43-58.24-349.43-68.82 285.9z" fill="#544948"/><path d="m937.12 190.6 84.71 550.62-84.71 762.4 137.65-682.98 338.85-301.78-286.98 63.53z" fill="#72635e"/><path d="m607.04 1170.07 330.08-979.47 84.71 550.62-84.71 762.4z" fill="#998990"/><path d="m804.21 1374.93-197.17-204.86-405.85 688.28 442.91-545.33z" fill="#c8af9c"/><path d="m201.19 1858.35 735.93-354.73-132.91-128.69-160.11-61.91z" fill="#76747d"/><path d="m0 2721.34 201.19-862.99 211.19-101.8-121.19 933.03z" fill="#544948"/><path d="m775.64 1581.46-363.26 175.09-121.19 933.03h484.45z" fill="#998778"/><path d="m984.77 1821.29 37.06-778.28-84.71 460.61-161.48 77.84v1108.12z" fill="#72635e"/><path d="m1413.62 931.82v-412.96l-338.85 301.78-55.46 275.16-34.54 725.49 171.06-64.74z" fill="#544948"/><path d="m775.64 2689.58h223.16l-14.03-868.29z" fill="#988474"/><path d="m1290.95 2689.58-135.12-933.03-171.06 64.74 14.03 868.29z" fill="#56484d"/><path d="m1540.68 582.39 398.69 183.89-142.57 198.75-383.18-33.21z" fill="#3a373b"/><path d="m1676.49 1170.07 120.31-205.04-383.18-33.21z" fill="#c7b0a3"/><path d="m1939.37 766.28-142.57 198.75h177.13z" fill="#544948"/><path d="m1922.09 1223.02-125.29-257.99-120.31 205.04z" fill="#74757f"/><path d="m2194.26 1129.18-272.17 93.84-125.29-257.99h177.13z" fill="#9a8c91"/><path d="m2536.75 2435.37-342.49-1306.19-272.17 93.84 17.28 1466.56h803.56z" fill="#3a373b"/><path d="m1676.49 1170.07-177.79 1519.51h440.67l-17.28-1466.56z" fill="#544949"/><path d="m1285.48 1341.75 128.14 1347.83h85.08l142.79-1220.37z" fill="#9b8576"/><path d="m1155.83 1756.55 129.65-414.8 128.14 1347.83h-122.67z" fill="#c6af9d"/><path d="m1413.62 931.82 262.87 238.25-35 299.14-356.01-127.46z" fill="#97858a"/></svg>