<svg viewBox="0 0 1521.62 940.69" xmlns="http://www.w3.org/2000/svg" xmlns:xlink="http://www.w3.org/1999/xlink"><clipPath id="a"><path d="m86.97 83.75v-2.62l-29.76-29.75v32.37z"/></clipPath><clipPath id="b"><path d="m89.59 81.13h-2.62l-29.76-29.75h32.38z"/></clipPath><clipPath id="c"><path d="m1433.19 81.13h2.62l29.76-29.75h-32.38z"/></clipPath><clipPath id="d"><path d="m1435.81 83.75v-2.62l29.76-29.75v32.37z"/></clipPath><clipPath id="e"><path d="m1435.81 856.41v2.62l29.76 29.75v-32.37z"/></clipPath><clipPath id="f"><path d="m1433.19 859.03h2.62l29.76 29.75h-32.38z"/></clipPath><clipPath id="g"><path d="m89.59 859.03h-2.62l-29.76 29.75h32.38z"/></clipPath><clipPath id="h"><path d="m86.97 856.41v2.62l-29.76 29.75v-32.37z"/></clipPath><path d="m27.47 27.65h1466.23v885.04h-1466.23z" fill="#efeae6"/><path d="m1488.7 32.65v875h-1456.23v-875zm10-10h-1476.23v895h1476.23z" fill="#c1b49a"/><path d="m72.09 66.25h1378.6v807.65h-1378.6z" fill="#efeae6"/><g fill="#dcd7cd"><path d="m57.21 821.29h7.05v29.86h-7.05z"/><path d="m57.21 844.07h29.75v7.07h-29.75z"/><path d="m57.21 821.29h14.88v7.07h-14.88z"/><path d="m72.09 831.74h14.88v7.07h-14.88z"/><path d="m69.74 821.29h7.05v17.52h-7.05z"/><path d="m79.92 821.29h7.05v17.52h-7.05z"/><path d="m79.92 844.07h7.05v12.33h-7.05z"/><path d="m57.21 786.17h7.05v29.86h-7.05z"/><path d="m57.21 808.95h29.75v7.07h-29.75z"/><path d="m57.21 786.17h14.88v7.07h-14.88z"/><path d="m72.09 796.62h14.88v7.07h-14.88z"/><path d="m69.74 786.17h7.05v17.52h-7.05z"/><path d="m79.92 786.17h7.05v17.52h-7.05z"/><path d="m79.92 808.95h7.05v12.33h-7.05z"/><path d="m57.21 751.05h7.05v29.86h-7.05z"/><path d="m57.21 773.83h29.75v7.07h-29.75z"/><path d="m57.21 751.05h14.88v7.07h-14.88z"/><path d="m72.09 761.5h14.88v7.07h-14.88z"/><path d="m69.74 751.05h7.05v17.52h-7.05z"/><path d="m79.92 751.05h7.05v17.52h-7.05z"/><path d="m79.92 773.83h7.05v12.33h-7.05z"/><path d="m57.21 715.93h7.05v29.86h-7.05z"/><path d="m57.21 738.71h29.75v7.07h-29.75z"/><path d="m57.21 715.93h14.88v7.07h-14.88z"/><path d="m72.09 726.38h14.88v7.07h-14.88z"/><path d="m69.74 715.93h7.05v17.52h-7.05z"/><path d="m79.92 715.93h7.05v17.52h-7.05z"/><path d="m79.92 738.71h7.05v12.33h-7.05z"/><path d="m57.21 680.81h7.05v29.86h-7.05z"/><path d="m57.21 703.59h29.75v7.07h-29.75z"/><path d="m57.21 680.81h14.88v7.07h-14.88z"/><path d="m72.09 691.26h14.88v7.07h-14.88z"/><path d="m69.74 680.81h7.05v17.52h-7.05z"/><path d="m79.92 680.81h7.05v17.52h-7.05z"/><path d="m79.92 703.59h7.05v12.33h-7.05z"/><path d="m57.21 645.68h7.05v29.86h-7.05z"/><path d="m57.21 668.47h29.75v7.07h-29.75z"/><path d="m57.21 645.68h14.88v7.07h-14.88z"/><path d="m72.09 656.14h14.88v7.07h-14.88z"/><path d="m69.74 645.68h7.05v17.52h-7.05z"/><path d="m79.92 645.68h7.05v17.52h-7.05z"/><path d="m79.92 668.47h7.05v12.33h-7.05z"/><path d="m57.21 610.56h7.05v29.86h-7.05z"/><path d="m57.21 633.35h29.75v7.07h-29.75z"/><path d="m57.21 610.56h14.88v7.07h-14.88z"/><path d="m72.09 621.02h14.88v7.07h-14.88z"/><path d="m69.74 610.56h7.05v17.52h-7.05z"/><path d="m79.92 610.56h7.05v17.52h-7.05z"/><path d="m79.92 633.35h7.05v12.33h-7.05z"/><path d="m57.21 575.44h7.05v29.86h-7.05z"/><path d="m57.21 598.23h29.75v7.07h-29.75z"/><path d="m57.21 575.44h14.88v7.07h-14.88z"/><path d="m72.09 585.89h14.88v7.07h-14.88z"/><path d="m69.74 575.44h7.05v17.52h-7.05z"/><path d="m79.92 575.44h7.05v17.52h-7.05z"/><path d="m79.92 598.23h7.05v12.33h-7.05z"/><path d="m57.21 540.32h7.05v29.86h-7.05z"/><path d="m57.21 563.11h29.75v7.07h-29.75z"/><path d="m57.21 540.32h14.88v7.07h-14.88z"/><path d="m72.09 550.77h14.88v7.07h-14.88z"/><path d="m69.74 540.32h7.05v17.52h-7.05z"/><path d="m79.92 540.32h7.05v17.52h-7.05z"/><path d="m79.92 563.11h7.05v12.33h-7.05z"/><path d="m57.21 505.2h7.05v29.86h-7.05z"/><path d="m57.21 527.99h29.75v7.07h-29.75z"/><path d="m57.21 505.2h14.88v7.07h-14.88z"/><path d="m72.09 515.65h14.88v7.07h-14.88z"/><path d="m69.74 505.2h7.05v17.52h-7.05z"/><path d="m79.92 505.2h7.05v17.52h-7.05z"/><path d="m79.92 527.99h7.05v12.33h-7.05z"/><path d="m57.21 470.08h7.05v29.86h-7.05z"/><path d="m57.21 492.87h29.75v7.07h-29.75z"/><path d="m57.21 470.08h14.88v7.07h-14.88z"/><path d="m72.09 480.53h14.88v7.07h-14.88z"/><path d="m69.74 470.08h7.05v17.52h-7.05z"/><path d="m79.92 470.08h7.05v17.52h-7.05z"/><path d="m79.92 492.87h7.05v12.33h-7.05z"/><path d="m57.21 434.96h7.05v29.86h-7.05z"/><path d="m57.21 457.75h29.75v7.07h-29.75z"/><path d="m57.21 434.96h14.88v7.07h-14.88z"/><path d="m72.09 445.41h14.88v7.07h-14.88z"/><path d="m69.74 434.96h7.05v17.52h-7.05z"/><path d="m79.92 434.96h7.05v17.52h-7.05z"/><path d="m79.92 457.75h7.05v12.33h-7.05z"/><path d="m57.21 399.84h7.05v29.86h-7.05z"/><path d="m57.21 422.63h29.75v7.07h-29.75z"/><path d="m57.21 399.84h14.88v7.07h-14.88z"/><path d="m72.09 410.29h14.88v7.07h-14.88z"/><path d="m69.74 399.84h7.05v17.52h-7.05z"/><path d="m79.92 399.84h7.05v17.52h-7.05z"/><path d="m79.92 422.63h7.05v12.33h-7.05z"/><path d="m57.21 364.72h7.05v29.86h-7.05z"/><path d="m57.21 387.5h29.75v7.07h-29.75z"/><path d="m57.21 364.72h14.88v7.07h-14.88z"/><path d="m72.09 375.17h14.88v7.07h-14.88z"/><path d="m69.74 364.72h7.05v17.52h-7.05z"/><path d="m79.92 364.72h7.05v17.52h-7.05z"/><path d="m79.92 387.5h7.05v12.33h-7.05z"/><path d="m57.21 329.6h7.05v29.86h-7.05z"/><path d="m57.21 352.38h29.75v7.07h-29.75z"/><path d="m57.21 329.6h14.88v7.07h-14.88z"/><path d="m72.09 340.05h14.88v7.07h-14.88z"/><path d="m69.74 329.6h7.05v17.52h-7.05z"/><path d="m79.92 329.6h7.05v17.52h-7.05z"/><path d="m79.92 352.38h7.05v12.33h-7.05z"/><path d="m57.21 294.48h7.05v29.86h-7.05z"/><path d="m57.21 317.26h29.75v7.07h-29.75z"/><path d="m57.21 294.48h14.88v7.07h-14.88z"/><path d="m72.09 304.93h14.88v7.07h-14.88z"/><path d="m69.74 294.48h7.05v17.52h-7.05z"/><path d="m79.92 294.48h7.05v17.52h-7.05z"/><path d="m79.92 317.26h7.05v12.33h-7.05z"/><path d="m57.21 259.36h7.05v29.86h-7.05z"/><path d="m57.21 282.14h29.75v7.07h-29.75z"/><path d="m57.21 259.36h14.88v7.07h-14.88z"/><path d="m72.09 269.81h14.88v7.07h-14.88z"/><path d="m69.74 259.36h7.05v17.52h-7.05z"/><path d="m79.92 259.36h7.05v17.52h-7.05z"/><path d="m79.92 282.14h7.05v12.33h-7.05z"/><path d="m57.21 224.24h7.05v29.86h-7.05z"/><path d="m57.21 247.02h29.75v7.07h-29.75z"/><path d="m57.21 224.24h14.88v7.07h-14.88z"/><path d="m72.09 234.69h14.88v7.07h-14.88z"/><path d="m69.74 224.24h7.05v17.52h-7.05z"/><path d="m79.92 224.24h7.05v17.52h-7.05z"/><path d="m79.92 247.02h7.05v12.33h-7.05z"/><path d="m57.21 189.11h7.05v29.86h-7.05z"/><path d="m57.21 211.9h29.75v7.07h-29.75z"/><path d="m57.21 189.11h14.88v7.07h-14.88z"/><path d="m72.09 199.57h14.88v7.07h-14.88z"/><path d="m69.74 189.11h7.05v17.52h-7.05z"/><path d="m79.92 189.11h7.05v17.52h-7.05z"/><path d="m79.92 211.9h7.05v12.33h-7.05z"/><path d="m57.21 153.99h7.05v29.86h-7.05z"/><path d="m57.21 176.78h29.75v7.07h-29.75z"/><path d="m57.21 153.99h14.88v7.07h-14.88z"/><path d="m72.09 164.45h14.88v7.07h-14.88z"/><path d="m69.74 153.99h7.05v17.52h-7.05z"/><path d="m79.92 153.99h7.05v17.52h-7.05z"/><path d="m79.92 176.78h7.05v12.33h-7.05z"/><path d="m57.21 118.87h7.05v29.86h-7.05z"/><path d="m57.21 141.66h29.75v7.07h-29.75z"/><path d="m57.21 118.87h14.88v7.07h-14.88z"/><path d="m72.09 129.33h14.88v7.07h-14.88z"/><path d="m69.74 118.87h7.05v17.52h-7.05z"/><path d="m79.92 118.87h7.05v17.52h-7.05z"/><path d="m79.92 141.66h7.05v12.33h-7.05z"/><path d="m57.21 83.75h7.05v29.86h-7.05z"/><path d="m57.21 106.54h29.75v7.07h-29.75z"/><path d="m57.21 83.75h14.88v7.07h-14.88z"/><path d="m72.09 94.2h14.88v7.07h-14.88z"/><path d="m69.74 83.75h7.05v17.52h-7.05z"/><path d="m79.92 83.75h7.05v17.52h-7.05z"/><path d="m79.92 106.54h7.05v12.33h-7.05z"/><path d="m94.89 51.38h30.06v7.05h-30.06z"/><path d="m94.89 51.38h7.12v29.75h-7.12z"/><path d="m117.83 51.38h7.12v14.88h-7.12z"/><path d="m107.3 66.25h7.12v14.88h-7.12z"/><path d="m107.3 63.9h17.64v7.05h-17.64z"/><path d="m107.3 74.08h17.64v7.05h-17.64z"/><path d="m89.59 74.08h12.42v7.05h-12.42z"/><path d="m130.24 51.38h30.06v7.05h-30.06z"/><path d="m130.24 51.38h7.12v29.75h-7.12z"/><path d="m153.18 51.38h7.12v14.88h-7.12z"/><path d="m142.66 66.25h7.12v14.88h-7.12z"/><path d="m142.66 63.9h17.64v7.05h-17.64z"/><path d="m142.66 74.08h17.64v7.05h-17.64z"/><path d="m124.95 74.08h12.42v7.05h-12.42z"/><path d="m165.6 51.38h30.06v7.05h-30.06z"/><path d="m165.6 51.38h7.12v29.75h-7.12z"/><path d="m188.54 51.38h7.12v14.88h-7.12z"/><path d="m178.02 66.25h7.12v14.88h-7.12z"/><path d="m178.02 63.9h17.64v7.05h-17.64z"/><path d="m178.02 74.08h17.64v7.05h-17.64z"/><path d="m160.3 74.08h12.42v7.05h-12.42z"/><path d="m200.96 51.38h30.06v7.05h-30.06z"/><path d="m200.96 51.38h7.12v29.75h-7.12z"/><path d="m223.9 51.38h7.12v14.88h-7.12z"/><path d="m213.38 66.25h7.12v14.88h-7.12z"/><path d="m213.38 63.9h17.64v7.05h-17.64z"/><path d="m213.38 74.08h17.64v7.05h-17.64z"/><path d="m195.66 74.08h12.42v7.05h-12.42z"/><path d="m236.32 51.38h30.06v7.05h-30.06z"/><path d="m236.32 51.38h7.12v29.75h-7.12z"/><path d="m259.26 51.38h7.12v14.88h-7.12z"/><path d="m248.74 66.25h7.12v14.88h-7.12z"/><path d="m248.74 63.9h17.64v7.05h-17.64z"/><path d="m248.74 74.08h17.64v7.05h-17.64z"/><path d="m231.02 74.08h12.42v7.05h-12.42z"/><path d="m271.68 51.38h30.06v7.05h-30.06z"/><path d="m271.68 51.38h7.12v29.75h-7.12z"/><path d="m294.62 51.38h7.12v14.88h-7.12z"/><path d="m284.09 66.25h7.12v14.88h-7.12z"/><path d="m284.09 63.9h17.64v7.05h-17.64z"/><path d="m284.09 74.08h17.64v7.05h-17.64z"/><path d="m266.38 74.08h12.42v7.05h-12.42z"/><path d="m307.03 51.38h30.06v7.05h-30.06z"/><path d="m307.03 51.38h7.12v29.75h-7.12z"/><path d="m329.97 51.38h7.12v14.88h-7.12z"/><path d="m319.45 66.25h7.12v14.88h-7.12z"/><path d="m319.45 63.9h17.64v7.05h-17.64z"/><path d="m319.45 74.08h17.64v7.05h-17.64z"/><path d="m301.74 74.08h12.42v7.05h-12.42z"/><path d="m342.39 51.38h30.06v7.05h-30.06z"/><path d="m342.39 51.38h7.12v29.75h-7.12z"/><path d="m365.33 51.38h7.12v14.88h-7.12z"/><path d="m354.81 66.25h7.12v14.88h-7.12z"/><path d="m354.81 63.9h17.64v7.05h-17.64z"/><path d="m354.81 74.08h17.64v7.05h-17.64z"/><path d="m337.09 74.08h12.42v7.05h-12.42z"/><path d="m377.75 51.38h30.06v7.05h-30.06z"/><path d="m377.75 51.38h7.12v29.75h-7.12z"/><path d="m400.69 51.38h7.12v14.88h-7.12z"/><path d="m390.17 66.25h7.12v14.88h-7.12z"/><path d="m390.17 63.9h17.64v7.05h-17.64z"/><path d="m390.17 74.08h17.64v7.05h-17.64z"/><path d="m372.45 74.08h12.42v7.05h-12.42z"/><path d="m413.11 51.38h30.06v7.05h-30.06z"/><path d="m413.11 51.38h7.12v29.75h-7.12z"/><path d="m436.05 51.38h7.12v14.88h-7.12z"/><path d="m425.53 66.25h7.12v14.88h-7.12z"/><path d="m425.53 63.9h17.64v7.05h-17.64z"/><path d="m425.53 74.08h17.64v7.05h-17.64z"/><path d="m407.81 74.08h12.42v7.05h-12.42z"/><path d="m448.47 51.38h30.06v7.05h-30.06z"/><path d="m448.47 51.38h7.12v29.75h-7.12z"/><path d="m471.41 51.38h7.12v14.88h-7.12z"/><path d="m460.88 66.25h7.12v14.88h-7.12z"/><path d="m460.88 63.9h17.64v7.05h-17.64z"/><path d="m460.88 74.08h17.64v7.05h-17.64z"/><path d="m443.17 74.08h12.42v7.05h-12.42z"/><path d="m483.82 51.38h30.06v7.05h-30.06z"/><path d="m483.82 51.38h7.12v29.75h-7.12z"/><path d="m506.76 51.38h7.12v14.88h-7.12z"/><path d="m496.24 66.25h7.12v14.88h-7.12z"/><path d="m496.24 63.9h17.64v7.05h-17.64z"/><path d="m496.24 74.08h17.64v7.05h-17.64z"/><path d="m478.53 74.08h12.42v7.05h-12.42z"/><path d="m519.18 51.38h30.06v7.05h-30.06z"/><path d="m519.18 51.38h7.12v29.75h-7.12z"/><path d="m542.12 51.38h7.12v14.88h-7.12z"/><path d="m531.6 66.25h7.12v14.88h-7.12z"/><path d="m531.6 63.9h17.64v7.05h-17.64z"/><path d="m531.6 74.08h17.64v7.05h-17.64z"/><path d="m513.88 74.08h12.42v7.05h-12.42z"/><path d="m554.54 51.38h30.06v7.05h-30.06z"/><path d="m554.54 51.38h7.12v29.75h-7.12z"/><path d="m577.48 51.38h7.12v14.88h-7.12z"/><path d="m566.96 66.25h7.12v14.88h-7.12z"/><path d="m566.96 63.9h17.64v7.05h-17.64z"/><path d="m566.96 74.08h17.64v7.05h-17.64z"/><path d="m549.24 74.08h12.42v7.05h-12.42z"/><path d="m589.9 51.38h30.06v7.05h-30.06z"/><path d="m589.9 51.38h7.12v29.75h-7.12z"/><path d="m612.84 51.38h7.12v14.88h-7.12z"/><path d="m602.32 66.25h7.12v14.88h-7.12z"/><path d="m602.32 63.9h17.64v7.05h-17.64z"/><path d="m602.32 74.08h17.64v7.05h-17.64z"/><path d="m584.6 74.08h12.42v7.05h-12.42z"/><path d="m625.26 51.38h30.06v7.05h-30.06z"/><path d="m625.26 51.38h7.12v29.75h-7.12z"/><path d="m648.2 51.38h7.12v14.88h-7.12z"/><path d="m637.67 66.25h7.12v14.88h-7.12z"/><path d="m637.67 63.9h17.64v7.05h-17.64z"/><path d="m637.67 74.08h17.64v7.05h-17.64z"/><path d="m619.96 74.08h12.42v7.05h-12.42z"/><path d="m660.61 51.38h30.06v7.05h-30.06z"/><path d="m660.61 51.38h7.12v29.75h-7.12z"/><path d="m683.55 51.38h7.12v14.88h-7.12z"/><path d="m673.03 66.25h7.12v14.88h-7.12z"/><path d="m673.03 63.9h17.64v7.05h-17.64z"/><path d="m673.03 74.08h17.64v7.05h-17.64z"/><path d="m655.32 74.08h12.42v7.05h-12.42z"/><path d="m695.97 51.38h30.06v7.05h-30.06z"/><path d="m695.97 51.38h7.12v29.75h-7.12z"/><path d="m718.91 51.38h7.12v14.88h-7.12z"/><path d="m708.39 66.25h7.12v14.88h-7.12z"/><path d="m708.39 63.9h17.64v7.05h-17.64z"/><path d="m708.39 74.08h17.64v7.05h-17.64z"/><path d="m690.67 74.08h12.42v7.05h-12.42z"/><path d="m731.33 51.38h30.06v7.05h-30.06z"/><path d="m731.33 51.38h7.12v29.75h-7.12z"/><path d="m754.27 51.38h7.12v14.88h-7.12z"/><path d="m743.75 66.25h7.12v14.88h-7.12z"/><path d="m743.75 63.9h17.64v7.05h-17.64z"/><path d="m743.75 74.08h17.64v7.05h-17.64z"/><path d="m726.03 74.08h12.42v7.05h-12.42z"/><path d="m766.69 51.38h30.06v7.05h-30.06z"/><path d="m766.69 51.38h7.12v29.75h-7.12z"/><path d="m789.63 51.38h7.12v14.88h-7.12z"/><path d="m779.11 66.25h7.12v14.88h-7.12z"/><path d="m779.11 63.9h17.64v7.05h-17.64z"/><path d="m779.11 74.08h17.64v7.05h-17.64z"/><path d="m761.39 74.08h12.42v7.05h-12.42z"/><path d="m802.05 51.38h30.06v7.05h-30.06z"/><path d="m802.05 51.38h7.12v29.75h-7.12z"/><path d="m824.99 51.38h7.12v14.88h-7.12z"/><path d="m814.46 66.25h7.12v14.88h-7.12z"/><path d="m814.46 63.9h17.64v7.05h-17.64z"/><path d="m814.46 74.08h17.64v7.05h-17.64z"/><path d="m796.75 74.08h12.42v7.05h-12.42z"/><path d="m837.4 51.38h30.06v7.05h-30.06z"/><path d="m837.4 51.38h7.12v29.75h-7.12z"/><path d="m860.34 51.38h7.12v14.88h-7.12z"/><path d="m849.82 66.25h7.12v14.88h-7.12z"/><path d="m849.82 63.9h17.64v7.05h-17.64z"/><path d="m849.82 74.08h17.64v7.05h-17.64z"/><path d="m832.11 74.08h12.42v7.05h-12.42z"/><path d="m872.76 51.38h30.06v7.05h-30.06z"/><path d="m872.76 51.38h7.12v29.75h-7.12z"/><path d="m895.7 51.38h7.12v14.88h-7.12z"/><path d="m885.18 66.25h7.12v14.88h-7.12z"/><path d="m885.18 63.9h17.64v7.05h-17.64z"/><path d="m885.18 74.08h17.64v7.05h-17.64z"/><path d="m867.46 74.08h12.42v7.05h-12.42z"/><path d="m908.12 51.38h30.06v7.05h-30.06z"/><path d="m908.12 51.38h7.12v29.75h-7.12z"/><path d="m931.06 51.38h7.12v14.88h-7.12z"/><path d="m920.54 66.25h7.12v14.88h-7.12z"/><path d="m920.54 63.9h17.64v7.05h-17.64z"/><path d="m920.54 74.08h17.64v7.05h-17.64z"/><path d="m902.82 74.08h12.42v7.05h-12.42z"/><path d="m943.48 51.38h30.06v7.05h-30.06z"/><path d="m943.48 51.38h7.12v29.75h-7.12z"/><path d="m966.42 51.38h7.12v14.88h-7.12z"/><path d="m955.9 66.25h7.12v14.88h-7.12z"/><path d="m955.9 63.9h17.64v7.05h-17.64z"/><path d="m955.9 74.08h17.64v7.05h-17.64z"/><path d="m938.18 74.08h12.42v7.05h-12.42z"/><path d="m978.84 51.38h30.06v7.05h-30.06z"/><path d="m978.84 51.38h7.12v29.75h-7.12z"/><path d="m1001.78 51.38h7.12v14.88h-7.12z"/><path d="m991.25 66.25h7.12v14.88h-7.12z"/><path d="m991.25 63.9h17.64v7.05h-17.64z"/><path d="m991.25 74.08h17.64v7.05h-17.64z"/><path d="m973.54 74.08h12.42v7.05h-12.42z"/><path d="m1014.19 51.38h30.06v7.05h-30.06z"/><path d="m1014.19 51.38h7.12v29.75h-7.12z"/><path d="m1037.13 51.38h7.12v14.88h-7.12z"/><path d="m1026.61 66.25h7.12v14.88h-7.12z"/><path d="m1026.61 63.9h17.64v7.05h-17.64z"/><path d="m1026.61 74.08h17.64v7.05h-17.64z"/><path d="m1008.9 74.08h12.42v7.05h-12.42z"/><path d="m1049.55 51.38h30.06v7.05h-30.06z"/><path d="m1049.55 51.38h7.12v29.75h-7.12z"/><path d="m1072.49 51.38h7.12v14.88h-7.12z"/><path d="m1061.97 66.25h7.12v14.88h-7.12z"/><path d="m1061.97 63.9h17.64v7.05h-17.64z"/><path d="m1061.97 74.08h17.64v7.05h-17.64z"/><path d="m1044.25 74.08h12.42v7.05h-12.42z"/><path d="m1084.91 51.38h30.06v7.05h-30.06z"/><path d="m1084.91 51.38h7.12v29.75h-7.12z"/><path d="m1107.85 51.38h7.12v14.88h-7.12z"/><path d="m1097.33 66.25h7.12v14.88h-7.12z"/><path d="m1097.33 63.9h17.64v7.05h-17.64z"/><path d="m1097.33 74.08h17.64v7.05h-17.64z"/><path d="m1079.61 74.08h12.42v7.05h-12.42z"/><path d="m1120.27 51.38h30.06v7.05h-30.06z"/><path d="m1120.27 51.38h7.12v29.75h-7.12z"/><path d="m1143.21 51.38h7.12v14.88h-7.12z"/><path d="m1132.69 66.25h7.12v14.88h-7.12z"/><path d="m1132.69 63.9h17.64v7.05h-17.64z"/><path d="m1132.69 74.08h17.64v7.05h-17.64z"/><path d="m1114.97 74.08h12.42v7.05h-12.42z"/><path d="m1155.63 51.38h30.06v7.05h-30.06z"/><path d="m1155.63 51.38h7.12v29.75h-7.12z"/><path d="m1178.57 51.38h7.12v14.88h-7.12z"/><path d="m1168.04 66.25h7.12v14.88h-7.12z"/><path d="m1168.04 63.9h17.64v7.05h-17.64z"/><path d="m1168.04 74.08h17.64v7.05h-17.64z"/><path d="m1150.33 74.08h12.42v7.05h-12.42z"/><path d="m1190.98 51.38h30.06v7.05h-30.06z"/><path d="m1190.98 51.38h7.12v29.75h-7.12z"/><path d="m1213.92 51.38h7.12v14.88h-7.12z"/><path d="m1203.4 66.25h7.12v14.88h-7.12z"/><path d="m1203.4 63.9h17.64v7.05h-17.64z"/><path d="m1203.4 74.08h17.64v7.05h-17.64z"/><path d="m1185.69 74.08h12.42v7.05h-12.42z"/><path d="m1226.34 51.38h30.06v7.05h-30.06z"/><path d="m1226.34 51.38h7.12v29.75h-7.12z"/><path d="m1249.28 51.38h7.12v14.88h-7.12z"/><path d="m1238.76 66.25h7.12v14.88h-7.12z"/><path d="m1238.76 63.9h17.64v7.05h-17.64z"/><path d="m1238.76 74.08h17.64v7.05h-17.64z"/><path d="m1221.04 74.08h12.42v7.05h-12.42z"/><path d="m1261.7 51.38h30.06v7.05h-30.06z"/><path d="m1261.7 51.38h7.12v29.75h-7.12z"/><path d="m1284.64 51.38h7.12v14.88h-7.12z"/><path d="m1274.12 66.25h7.12v14.88h-7.12z"/><path d="m1274.12 63.9h17.64v7.05h-17.64z"/><path d="m1274.12 74.08h17.64v7.05h-17.64z"/><path d="m1256.4 74.08h12.42v7.05h-12.42z"/><path d="m1297.06 51.38h30.06v7.05h-30.06z"/><path d="m1297.06 51.38h7.12v29.75h-7.12z"/><path d="m1320 51.38h7.12v14.88h-7.12z"/><path d="m1309.48 66.25h7.12v14.88h-7.12z"/><path d="m1309.48 63.9h17.64v7.05h-17.64z"/><path d="m1309.48 74.08h17.64v7.05h-17.64z"/><path d="m1291.76 74.08h12.42v7.05h-12.42z"/><path d="m1332.42 51.38h30.06v7.05h-30.06z"/><path d="m1332.42 51.38h7.12v29.75h-7.12z"/><path d="m1355.36 51.38h7.12v14.88h-7.12z"/><path d="m1344.83 66.25h7.12v14.88h-7.12z"/><path d="m1344.83 63.9h17.64v7.05h-17.64z"/><path d="m1344.83 74.08h17.64v7.05h-17.64z"/><path d="m1327.12 74.08h12.42v7.05h-12.42z"/><path d="m1367.77 51.38h30.06v7.05h-30.06z"/><path d="m1367.77 51.38h7.12v29.75h-7.12z"/><path d="m1390.71 51.38h7.12v14.88h-7.12z"/><path d="m1380.19 66.25h7.12v14.88h-7.12z"/><path d="m1380.19 63.9h17.64v7.05h-17.64z"/><path d="m1380.19 74.08h17.64v7.05h-17.64z"/><path d="m1362.48 74.08h12.42v7.05h-12.42z"/><path d="m1403.13 51.38h30.06v7.05h-30.06z"/><path d="m1403.13 51.38h7.12v29.75h-7.12z"/><path d="m1426.07 51.38h7.12v14.88h-7.12z"/><path d="m1415.55 66.25h7.12v14.88h-7.12z"/><path d="m1415.55 63.9h17.64v7.05h-17.64z"/><path d="m1415.55 74.08h17.64v7.05h-17.64z"/><path d="m1397.83 74.08h12.42v7.05h-12.42z"/><path d="m1458.52 89.02h7.05v29.86h-7.05z"/><path d="m1435.81 89.02h29.75v7.07h-29.75z"/><path d="m1450.69 111.8h14.88v7.07h-14.88z"/><path d="m1435.81 101.35h14.88v7.07h-14.88z"/><path d="m1445.99 101.35h7.05v17.52h-7.05z"/><path d="m1435.81 101.35h7.05v17.52h-7.05z"/><path d="m1435.81 83.75h7.05v12.33h-7.05z"/><path d="m1458.52 124.14h7.05v29.86h-7.05z"/><path d="m1435.81 124.14h29.75v7.07h-29.75z"/><path d="m1450.69 146.92h14.88v7.07h-14.88z"/><path d="m1435.81 136.47h14.88v7.07h-14.88z"/><path d="m1445.99 136.47h7.05v17.52h-7.05z"/><path d="m1435.81 136.47h7.05v17.52h-7.05z"/><path d="m1435.81 118.87h7.05v12.33h-7.05z"/><path d="m1458.52 159.26h7.05v29.86h-7.05z"/><path d="m1435.81 159.26h29.75v7.07h-29.75z"/><path d="m1450.69 182.04h14.88v7.07h-14.88z"/><path d="m1435.81 171.59h14.88v7.07h-14.88z"/><path d="m1445.99 171.59h7.05v17.52h-7.05z"/><path d="m1435.81 171.59h7.05v17.52h-7.05z"/><path d="m1435.81 153.99h7.05v12.33h-7.05z"/><path d="m1458.52 194.38h7.05v29.86h-7.05z"/><path d="m1435.81 194.38h29.75v7.07h-29.75z"/><path d="m1450.69 217.16h14.88v7.07h-14.88z"/><path d="m1435.81 206.71h14.88v7.07h-14.88z"/><path d="m1445.99 206.71h7.05v17.52h-7.05z"/><path d="m1435.81 206.71h7.05v17.52h-7.05z"/><path d="m1435.81 189.11h7.05v12.33h-7.05z"/><path d="m1458.52 229.5h7.05v29.86h-7.05z"/><path d="m1435.81 229.5h29.75v7.07h-29.75z"/><path d="m1450.69 252.28h14.88v7.07h-14.88z"/><path d="m1435.81 241.83h14.88v7.07h-14.88z"/><path d="m1445.99 241.83h7.05v17.52h-7.05z"/><path d="m1435.81 241.83h7.05v17.52h-7.05z"/><path d="m1435.81 224.24h7.05v12.33h-7.05z"/><path d="m1458.52 264.62h7.05v29.86h-7.05z"/><path d="m1435.81 264.62h29.75v7.07h-29.75z"/><path d="m1450.69 287.41h14.88v7.07h-14.88z"/><path d="m1435.81 276.95h14.88v7.07h-14.88z"/><path d="m1445.99 276.95h7.05v17.52h-7.05z"/><path d="m1435.81 276.95h7.05v17.52h-7.05z"/><path d="m1435.81 259.36h7.05v12.33h-7.05z"/><path d="m1458.52 299.74h7.05v29.86h-7.05z"/><path d="m1435.81 299.74h29.75v7.07h-29.75z"/><path d="m1450.69 322.53h14.88v7.07h-14.88z"/><path d="m1435.81 312.07h14.88v7.07h-14.88z"/><path d="m1445.99 312.07h7.05v17.52h-7.05z"/><path d="m1435.81 312.07h7.05v17.52h-7.05z"/><path d="m1435.81 294.48h7.05v12.33h-7.05z"/><path d="m1458.52 334.86h7.05v29.86h-7.05z"/><path d="m1435.81 334.86h29.75v7.07h-29.75z"/><path d="m1450.69 357.65h14.88v7.07h-14.88z"/><path d="m1435.81 347.19h14.88v7.07h-14.88z"/><path d="m1445.99 347.19h7.05v17.52h-7.05z"/><path d="m1435.81 347.19h7.05v17.52h-7.05z"/><path d="m1435.81 329.6h7.05v12.33h-7.05z"/><path d="m1458.52 369.98h7.05v29.86h-7.05z"/><path d="m1435.81 369.98h29.75v7.07h-29.75z"/><path d="m1450.69 392.77h14.88v7.07h-14.88z"/><path d="m1435.81 382.32h14.88v7.07h-14.88z"/><path d="m1445.99 382.32h7.05v17.52h-7.05z"/><path d="m1435.81 382.32h7.05v17.52h-7.05z"/><path d="m1435.81 364.72h7.05v12.33h-7.05z"/><path d="m1458.52 405.1h7.05v29.86h-7.05z"/><path d="m1435.81 405.1h29.75v7.07h-29.75z"/><path d="m1450.69 427.89h14.88v7.07h-14.88z"/><path d="m1435.81 417.44h14.88v7.07h-14.88z"/><path d="m1445.99 417.44h7.05v17.52h-7.05z"/><path d="m1435.81 417.44h7.05v17.52h-7.05z"/><path d="m1435.81 399.84h7.05v12.33h-7.05z"/><path d="m1458.52 440.22h7.05v29.86h-7.05z"/><path d="m1435.81 440.22h29.75v7.07h-29.75z"/><path d="m1450.69 463.01h14.88v7.07h-14.88z"/><path d="m1435.81 452.56h14.88v7.07h-14.88z"/><path d="m1445.99 452.56h7.05v17.52h-7.05z"/><path d="m1435.81 452.56h7.05v17.52h-7.05z"/><path d="m1435.81 434.96h7.05v12.33h-7.05z"/><path d="m1458.52 475.34h7.05v29.86h-7.05z"/><path d="m1435.81 475.34h29.75v7.07h-29.75z"/><path d="m1450.69 498.13h14.88v7.07h-14.88z"/><path d="m1435.81 487.68h14.88v7.07h-14.88z"/><path d="m1445.99 487.68h7.05v17.52h-7.05z"/><path d="m1435.81 487.68h7.05v17.52h-7.05z"/><path d="m1435.81 470.08h7.05v12.33h-7.05z"/><path d="m1458.52 510.46h7.05v29.86h-7.05z"/><path d="m1435.81 510.46h29.75v7.07h-29.75z"/><path d="m1450.69 533.25h14.88v7.07h-14.88z"/><path d="m1435.81 522.8h14.88v7.07h-14.88z"/><path d="m1445.99 522.8h7.05v17.52h-7.05z"/><path d="m1435.81 522.8h7.05v17.52h-7.05z"/><path d="m1435.81 505.2h7.05v12.33h-7.05z"/><path d="m1458.52 545.58h7.05v29.86h-7.05z"/><path d="m1435.81 545.58h29.75v7.07h-29.75z"/><path d="m1450.69 568.37h14.88v7.07h-14.88z"/><path d="m1435.81 557.92h14.88v7.07h-14.88z"/><path d="m1445.99 557.92h7.05v17.52h-7.05z"/><path d="m1435.81 557.92h7.05v17.52h-7.05z"/><path d="m1435.81 540.32h7.05v12.33h-7.05z"/><path d="m1458.52 580.71h7.05v29.86h-7.05z"/><path d="m1435.81 580.71h29.75v7.07h-29.75z"/><path d="m1450.69 603.49h14.88v7.07h-14.88z"/><path d="m1435.81 593.04h14.88v7.07h-14.88z"/><path d="m1445.99 593.04h7.05v17.52h-7.05z"/><path d="m1435.81 593.04h7.05v17.52h-7.05z"/><path d="m1435.81 575.44h7.05v12.33h-7.05z"/><path d="m1458.52 615.83h7.05v29.86h-7.05z"/><path d="m1435.81 615.83h29.75v7.07h-29.75z"/><path d="m1450.69 638.61h14.88v7.07h-14.88z"/><path d="m1435.81 628.16h14.88v7.07h-14.88z"/><path d="m1445.99 628.16h7.05v17.52h-7.05z"/><path d="m1435.81 628.16h7.05v17.52h-7.05z"/><path d="m1435.81 610.56h7.05v12.33h-7.05z"/><path d="m1458.52 650.95h7.05v29.86h-7.05z"/><path d="m1435.81 650.95h29.75v7.07h-29.75z"/><path d="m1450.69 673.73h14.88v7.07h-14.88z"/><path d="m1435.81 663.28h14.88v7.07h-14.88z"/><path d="m1445.99 663.28h7.05v17.52h-7.05z"/><path d="m1435.81 663.28h7.05v17.52h-7.05z"/><path d="m1435.81 645.68h7.05v12.33h-7.05z"/><path d="m1458.52 686.07h7.05v29.86h-7.05z"/><path d="m1435.81 686.07h29.75v7.07h-29.75z"/><path d="m1450.69 708.85h14.88v7.07h-14.88z"/><path d="m1435.81 698.4h14.88v7.07h-14.88z"/><path d="m1445.99 698.4h7.05v17.52h-7.05z"/><path d="m1435.81 698.4h7.05v17.52h-7.05z"/><path d="m1435.81 680.81h7.05v12.33h-7.05z"/><path d="m1458.52 721.19h7.05v29.86h-7.05z"/><path d="m1435.81 721.19h29.75v7.07h-29.75z"/><path d="m1450.69 743.98h14.88v7.07h-14.88z"/><path d="m1435.81 733.52h14.88v7.07h-14.88z"/><path d="m1445.99 733.52h7.05v17.52h-7.05z"/><path d="m1435.81 733.52h7.05v17.52h-7.05z"/><path d="m1435.81 715.93h7.05v12.33h-7.05z"/><path d="m1458.52 756.31h7.05v29.86h-7.05z"/><path d="m1435.81 756.31h29.75v7.07h-29.75z"/><path d="m1450.69 779.1h14.88v7.07h-14.88z"/><path d="m1435.81 768.64h14.88v7.07h-14.88z"/><path d="m1445.99 768.64h7.05v17.52h-7.05z"/><path d="m1435.81 768.64h7.05v17.52h-7.05z"/><path d="m1435.81 751.05h7.05v12.33h-7.05z"/><path d="m1458.52 791.43h7.05v29.86h-7.05z"/><path d="m1435.81 791.43h29.75v7.07h-29.75z"/><path d="m1450.69 814.22h14.88v7.07h-14.88z"/><path d="m1435.81 803.76h14.88v7.07h-14.88z"/><path d="m1445.99 803.76h7.05v17.52h-7.05z"/><path d="m1435.81 803.76h7.05v17.52h-7.05z"/><path d="m1435.81 786.17h7.05v12.33h-7.05z"/><path d="m1458.52 826.55h7.05v29.86h-7.05z"/><path d="m1435.81 826.55h29.75v7.07h-29.75z"/><path d="m1450.69 849.34h14.88v7.07h-14.88z"/><path d="m1435.81 838.89h14.88v7.07h-14.88z"/><path d="m1445.99 838.89h7.05v17.52h-7.05z"/><path d="m1435.81 838.89h7.05v17.52h-7.05z"/><path d="m1435.81 821.29h7.05v12.33h-7.05z"/><path d="m1397.83 881.74h30.06v7.05h-30.06z"/><path d="m1420.77 859.03h7.12v29.75h-7.12z"/><path d="m1397.83 873.91h7.12v14.88h-7.12z"/><path d="m1408.36 859.03h7.12v14.88h-7.12z"/><path d="m1397.83 869.21h17.64v7.05h-17.64z"/><path d="m1397.83 859.03h17.64v7.05h-17.64z"/><path d="m1420.77 859.03h12.42v7.05h-12.42z"/><path d="m1362.48 881.74h30.06v7.05h-30.06z"/><path d="m1385.42 859.03h7.12v29.75h-7.12z"/><path d="m1362.48 873.91h7.12v14.88h-7.12z"/><path d="m1373 859.03h7.12v14.88h-7.12z"/><path d="m1362.48 869.21h17.64v7.05h-17.64z"/><path d="m1362.48 859.03h17.64v7.05h-17.64z"/><path d="m1385.42 859.03h12.42v7.05h-12.42z"/><path d="m1327.12 881.74h30.06v7.05h-30.06z"/><path d="m1350.06 859.03h7.12v29.75h-7.12z"/><path d="m1327.12 873.91h7.12v14.88h-7.12z"/><path d="m1337.64 859.03h7.12v14.88h-7.12z"/><path d="m1327.12 869.21h17.64v7.05h-17.64z"/><path d="m1327.12 859.03h17.64v7.05h-17.64z"/><path d="m1350.06 859.03h12.42v7.05h-12.42z"/><path d="m1291.76 881.74h30.06v7.05h-30.06z"/><path d="m1314.7 859.03h7.12v29.75h-7.12z"/><path d="m1291.76 873.91h7.12v14.88h-7.12z"/><path d="m1302.28 859.03h7.12v14.88h-7.12z"/><path d="m1291.76 869.21h17.64v7.05h-17.64z"/><path d="m1291.76 859.03h17.64v7.05h-17.64z"/><path d="m1314.7 859.03h12.42v7.05h-12.42z"/><path d="m1256.4 881.74h30.06v7.05h-30.06z"/><path d="m1279.34 859.03h7.12v29.75h-7.12z"/><path d="m1256.4 873.91h7.12v14.88h-7.12z"/><path d="m1266.92 859.03h7.12v14.88h-7.12z"/><path d="m1256.4 869.21h17.64v7.05h-17.64z"/><path d="m1256.4 859.03h17.64v7.05h-17.64z"/><path d="m1279.34 859.03h12.42v7.05h-12.42z"/><path d="m1221.04 881.74h30.06v7.05h-30.06z"/><path d="m1243.98 859.03h7.12v29.75h-7.12z"/><path d="m1221.04 873.91h7.12v14.88h-7.12z"/><path d="m1231.57 859.03h7.12v14.88h-7.12z"/><path d="m1221.04 869.21h17.64v7.05h-17.64z"/><path d="m1221.04 859.03h17.64v7.05h-17.64z"/><path d="m1243.98 859.03h12.42v7.05h-12.42z"/><path d="m1185.69 881.74h30.06v7.05h-30.06z"/><path d="m1208.63 859.03h7.12v29.75h-7.12z"/><path d="m1185.69 873.91h7.12v14.88h-7.12z"/><path d="m1196.21 859.03h7.12v14.88h-7.12z"/><path d="m1185.69 869.21h17.64v7.05h-17.64z"/><path d="m1185.69 859.03h17.64v7.05h-17.64z"/><path d="m1208.63 859.03h12.42v7.05h-12.42z"/><path d="m1150.33 881.74h30.06v7.05h-30.06z"/><path d="m1173.27 859.03h7.12v29.75h-7.12z"/><path d="m1150.33 873.91h7.12v14.88h-7.12z"/><path d="m1160.85 859.03h7.12v14.88h-7.12z"/><path d="m1150.33 869.21h17.64v7.05h-17.64z"/><path d="m1150.33 859.03h17.64v7.05h-17.64z"/><path d="m1173.27 859.03h12.42v7.05h-12.42z"/><path d="m1114.97 881.74h30.06v7.05h-30.06z"/><path d="m1137.91 859.03h7.12v29.75h-7.12z"/><path d="m1114.97 873.91h7.12v14.88h-7.12z"/><path d="m1125.49 859.03h7.12v14.88h-7.12z"/><path d="m1114.97 869.21h17.64v7.05h-17.64z"/><path d="m1114.97 859.03h17.64v7.05h-17.64z"/><path d="m1137.91 859.03h12.42v7.05h-12.42z"/><path d="m1079.61 881.74h30.06v7.05h-30.06z"/><path d="m1102.55 859.03h7.12v29.75h-7.12z"/><path d="m1079.61 873.91h7.12v14.88h-7.12z"/><path d="m1090.13 859.03h7.12v14.88h-7.12z"/><path d="m1079.61 869.21h17.64v7.05h-17.64z"/><path d="m1079.61 859.03h17.64v7.05h-17.64z"/><path d="m1102.55 859.03h12.42v7.05h-12.42z"/><path d="m1044.25 881.74h30.06v7.05h-30.06z"/><path d="m1067.19 859.03h7.12v29.75h-7.12z"/><path d="m1044.25 873.91h7.12v14.88h-7.12z"/><path d="m1054.78 859.03h7.12v14.88h-7.12z"/><path d="m1044.25 869.21h17.64v7.05h-17.64z"/><path d="m1044.25 859.03h17.64v7.05h-17.64z"/><path d="m1067.19 859.03h12.42v7.05h-12.42z"/><path d="m1008.9 881.74h30.06v7.05h-30.06z"/><path d="m1031.84 859.03h7.12v29.75h-7.12z"/><path d="m1008.9 873.91h7.12v14.88h-7.12z"/><path d="m1019.42 859.03h7.12v14.88h-7.12z"/><path d="m1008.9 869.21h17.64v7.05h-17.64z"/><path d="m1008.9 859.03h17.64v7.05h-17.64z"/><path d="m1031.84 859.03h12.42v7.05h-12.42z"/><path d="m973.54 881.74h30.06v7.05h-30.06z"/><path d="m996.48 859.03h7.12v29.75h-7.12z"/><path d="m973.54 873.91h7.12v14.88h-7.12z"/><path d="m984.06 859.03h7.12v14.88h-7.12z"/><path d="m973.54 869.21h17.64v7.05h-17.64z"/><path d="m973.54 859.03h17.64v7.05h-17.64z"/><path d="m996.48 859.03h12.42v7.05h-12.42z"/><path d="m938.18 881.74h30.06v7.05h-30.06z"/><path d="m961.12 859.03h7.12v29.75h-7.12z"/><path d="m938.18 873.91h7.12v14.88h-7.12z"/><path d="m948.7 859.03h7.12v14.88h-7.12z"/><path d="m938.18 869.21h17.64v7.05h-17.64z"/><path d="m938.18 859.03h17.64v7.05h-17.64z"/><path d="m961.12 859.03h12.42v7.05h-12.42z"/><path d="m902.82 881.74h30.06v7.05h-30.06z"/><path d="m925.76 859.03h7.12v29.75h-7.12z"/><path d="m902.82 873.91h7.12v14.88h-7.12z"/><path d="m913.34 859.03h7.12v14.88h-7.12z"/><path d="m902.82 869.21h17.64v7.05h-17.64z"/><path d="m902.82 859.03h17.64v7.05h-17.64z"/><path d="m925.76 859.03h12.42v7.05h-12.42z"/><path d="m867.46 881.74h30.06v7.05h-30.06z"/><path d="m890.4 859.03h7.12v29.75h-7.12z"/><path d="m867.46 873.91h7.12v14.88h-7.12z"/><path d="m877.99 859.03h7.12v14.88h-7.12z"/><path d="m867.46 869.21h17.64v7.05h-17.64z"/><path d="m867.46 859.03h17.64v7.05h-17.64z"/><path d="m890.4 859.03h12.42v7.05h-12.42z"/><path d="m832.11 881.74h30.06v7.05h-30.06z"/><path d="m855.05 859.03h7.12v29.75h-7.12z"/><path d="m832.11 873.91h7.12v14.88h-7.12z"/><path d="m842.63 859.03h7.12v14.88h-7.12z"/><path d="m832.11 869.21h17.64v7.05h-17.64z"/><path d="m832.11 859.03h17.64v7.05h-17.64z"/><path d="m855.05 859.03h12.42v7.05h-12.42z"/><path d="m796.75 881.74h30.06v7.05h-30.06z"/><path d="m819.69 859.03h7.12v29.75h-7.12z"/><path d="m796.75 873.91h7.12v14.88h-7.12z"/><path d="m807.27 859.03h7.12v14.88h-7.12z"/><path d="m796.75 869.21h17.64v7.05h-17.64z"/><path d="m796.75 859.03h17.64v7.05h-17.64z"/><path d="m819.69 859.03h12.42v7.05h-12.42z"/><path d="m761.39 881.74h30.06v7.05h-30.06z"/><path d="m784.33 859.03h7.12v29.75h-7.12z"/><path d="m761.39 873.91h7.12v14.88h-7.12z"/><path d="m771.91 859.03h7.12v14.88h-7.12z"/><path d="m761.39 869.21h17.64v7.05h-17.64z"/><path d="m761.39 859.03h17.64v7.05h-17.64z"/><path d="m784.33 859.03h12.42v7.05h-12.42z"/><path d="m726.03 881.74h30.06v7.05h-30.06z"/><path d="m748.97 859.03h7.12v29.75h-7.12z"/><path d="m726.03 873.91h7.12v14.88h-7.12z"/><path d="m736.55 859.03h7.12v14.88h-7.12z"/><path d="m726.03 869.21h17.64v7.05h-17.64z"/><path d="m726.03 859.03h17.64v7.05h-17.64z"/><path d="m748.97 859.03h12.42v7.05h-12.42z"/><path d="m690.67 881.74h30.06v7.05h-30.06z"/><path d="m713.61 859.03h7.12v29.75h-7.12z"/><path d="m690.67 873.91h7.12v14.88h-7.12z"/><path d="m701.2 859.03h7.12v14.88h-7.12z"/><path d="m690.67 869.21h17.64v7.05h-17.64z"/><path d="m690.67 859.03h17.64v7.05h-17.64z"/><path d="m713.61 859.03h12.42v7.05h-12.42z"/><path d="m655.32 881.74h30.06v7.05h-30.06z"/><path d="m678.26 859.03h7.12v29.75h-7.12z"/><path d="m655.32 873.91h7.12v14.88h-7.12z"/><path d="m665.84 859.03h7.12v14.88h-7.12z"/><path d="m655.32 869.21h17.64v7.05h-17.64z"/><path d="m655.32 859.03h17.64v7.05h-17.64z"/><path d="m678.26 859.03h12.42v7.05h-12.42z"/><path d="m619.96 881.74h30.06v7.05h-30.06z"/><path d="m642.9 859.03h7.12v29.75h-7.12z"/><path d="m619.96 873.91h7.12v14.88h-7.12z"/><path d="m630.48 859.03h7.12v14.88h-7.12z"/><path d="m619.96 869.21h17.64v7.05h-17.64z"/><path d="m619.96 859.03h17.64v7.05h-17.64z"/><path d="m642.9 859.03h12.42v7.05h-12.42z"/><path d="m584.6 881.74h30.06v7.05h-30.06z"/><path d="m607.54 859.03h7.12v29.75h-7.12z"/><path d="m584.6 873.91h7.12v14.88h-7.12z"/><path d="m595.12 859.03h7.12v14.88h-7.12z"/><path d="m584.6 869.21h17.64v7.05h-17.64z"/><path d="m584.6 859.03h17.64v7.05h-17.64z"/><path d="m607.54 859.03h12.42v7.05h-12.42z"/><path d="m549.24 881.74h30.06v7.05h-30.06z"/><path d="m572.18 859.03h7.12v29.75h-7.12z"/><path d="m549.24 873.91h7.12v14.88h-7.12z"/><path d="m559.76 859.03h7.12v14.88h-7.12z"/><path d="m549.24 869.21h17.64v7.05h-17.64z"/><path d="m549.24 859.03h17.64v7.05h-17.64z"/><path d="m572.18 859.03h12.42v7.05h-12.42z"/><path d="m513.88 881.74h30.06v7.05h-30.06z"/><path d="m536.82 859.03h7.12v29.75h-7.12z"/><path d="m513.88 873.91h7.12v14.88h-7.12z"/><path d="m524.41 859.03h7.12v14.88h-7.12z"/><path d="m513.88 869.21h17.64v7.05h-17.64z"/><path d="m513.88 859.03h17.64v7.05h-17.64z"/><path d="m536.82 859.03h12.42v7.05h-12.42z"/><path d="m478.53 881.74h30.06v7.05h-30.06z"/><path d="m501.47 859.03h7.12v29.75h-7.12z"/><path d="m478.53 873.91h7.12v14.88h-7.12z"/><path d="m489.05 859.03h7.12v14.88h-7.12z"/><path d="m478.53 869.21h17.64v7.05h-17.64z"/><path d="m478.53 859.03h17.64v7.05h-17.64z"/><path d="m501.47 859.03h12.42v7.05h-12.42z"/><path d="m443.17 881.74h30.06v7.05h-30.06z"/><path d="m466.11 859.03h7.12v29.75h-7.12z"/><path d="m443.17 873.91h7.12v14.88h-7.12z"/><path d="m453.69 859.03h7.12v14.88h-7.12z"/><path d="m443.17 869.21h17.64v7.05h-17.64z"/><path d="m443.17 859.03h17.64v7.05h-17.64z"/><path d="m466.11 859.03h12.42v7.05h-12.42z"/><path d="m407.81 881.74h30.06v7.05h-30.06z"/><path d="m430.75 859.03h7.12v29.75h-7.12z"/><path d="m407.81 873.91h7.12v14.88h-7.12z"/><path d="m418.33 859.03h7.12v14.88h-7.12z"/><path d="m407.81 869.21h17.64v7.05h-17.64z"/><path d="m407.81 859.03h17.64v7.05h-17.64z"/><path d="m430.75 859.03h12.42v7.05h-12.42z"/><path d="m372.45 881.74h30.06v7.05h-30.06z"/><path d="m395.39 859.03h7.12v29.75h-7.12z"/><path d="m372.45 873.91h7.12v14.88h-7.12z"/><path d="m382.97 859.03h7.12v14.88h-7.12z"/><path d="m372.45 869.21h17.64v7.05h-17.64z"/><path d="m372.45 859.03h17.64v7.05h-17.64z"/><path d="m395.39 859.03h12.42v7.05h-12.42z"/><path d="m337.09 881.74h30.06v7.05h-30.06z"/><path d="m360.03 859.03h7.12v29.75h-7.12z"/><path d="m337.09 873.91h7.12v14.88h-7.12z"/><path d="m347.62 859.03h7.12v14.88h-7.12z"/><path d="m337.09 869.21h17.64v7.05h-17.64z"/><path d="m337.09 859.03h17.64v7.05h-17.64z"/><path d="m360.03 859.03h12.42v7.05h-12.42z"/><path d="m301.74 881.74h30.06v7.05h-30.06z"/><path d="m324.68 859.03h7.12v29.75h-7.12z"/><path d="m301.74 873.91h7.12v14.88h-7.12z"/><path d="m312.26 859.03h7.12v14.88h-7.12z"/><path d="m301.74 869.21h17.64v7.05h-17.64z"/><path d="m301.74 859.03h17.64v7.05h-17.64z"/><path d="m324.68 859.03h12.42v7.05h-12.42z"/><path d="m266.38 881.74h30.06v7.05h-30.06z"/><path d="m289.32 859.03h7.12v29.75h-7.12z"/><path d="m266.38 873.91h7.12v14.88h-7.12z"/><path d="m276.9 859.03h7.12v14.88h-7.12z"/><path d="m266.38 869.21h17.64v7.05h-17.64z"/><path d="m266.38 859.03h17.64v7.05h-17.64z"/><path d="m289.32 859.03h12.42v7.05h-12.42z"/><path d="m231.02 881.74h30.06v7.05h-30.06z"/><path d="m253.96 859.03h7.12v29.75h-7.12z"/><path d="m231.02 873.91h7.12v14.88h-7.12z"/><path d="m241.54 859.03h7.12v14.88h-7.12z"/><path d="m231.02 869.21h17.64v7.05h-17.64z"/><path d="m231.02 859.03h17.64v7.05h-17.64z"/><path d="m253.96 859.03h12.42v7.05h-12.42z"/><path d="m195.66 881.74h30.06v7.05h-30.06z"/><path d="m218.6 859.03h7.12v29.75h-7.12z"/><path d="m195.66 873.91h7.12v14.88h-7.12z"/><path d="m206.18 859.03h7.12v14.88h-7.12z"/><path d="m195.66 869.21h17.64v7.05h-17.64z"/><path d="m195.66 859.03h17.64v7.05h-17.64z"/><path d="m218.6 859.03h12.42v7.05h-12.42z"/><path d="m160.3 881.74h30.06v7.05h-30.06z"/><path d="m183.24 859.03h7.12v29.75h-7.12z"/><path d="m160.3 873.91h7.12v14.88h-7.12z"/><path d="m170.83 859.03h7.12v14.88h-7.12z"/><path d="m160.3 869.21h17.64v7.05h-17.64z"/><path d="m160.3 859.03h17.64v7.05h-17.64z"/><path d="m183.24 859.03h12.42v7.05h-12.42z"/><path d="m124.95 881.74h30.06v7.05h-30.06z"/><path d="m147.89 859.03h7.12v29.75h-7.12z"/><path d="m124.95 873.91h7.12v14.88h-7.12z"/><path d="m135.47 859.03h7.12v14.88h-7.12z"/><path d="m124.95 869.21h17.64v7.05h-17.64z"/><path d="m124.95 859.03h17.64v7.05h-17.64z"/><path d="m147.89 859.03h12.42v7.05h-12.42z"/><path d="m89.59 881.74h30.06v7.05h-30.06z"/><path d="m112.53 859.03h7.12v29.75h-7.12z"/><path d="m89.59 873.91h7.12v14.88h-7.12z"/><path d="m100.11 859.03h7.12v14.88h-7.12z"/><path d="m89.59 869.21h17.64v7.05h-17.64z"/><path d="m89.59 859.03h17.64v7.05h-17.64z"/><path d="m112.53 859.03h12.42v7.05h-12.42z"/><g clip-path="url(#a)"><path d="m57.21 48.76h7.05v29.75h-7.05z"/><path d="m57.21 71.46h29.75v7.05h-29.75z"/><path d="m57.21 48.76h14.88v7.05h-14.88z"/><path d="m72.09 59.17h14.88v7.05h-14.88z"/><path d="m69.74 48.76h7.05v17.46h-7.05z"/><path d="m79.92 48.76h7.05v17.46h-7.05z"/><path d="m79.92 71.46h7.05v12.29h-7.05z"/></g><g clip-path="url(#b)"><path d="m59.83 51.38h29.75v7.05h-29.75z"/><path d="m59.83 51.38h7.05v29.75h-7.05z"/><path d="m82.54 51.38h7.05v14.88h-7.05z"/><path d="m72.13 66.25h7.05v14.88h-7.05z"/><path d="m72.13 63.9h17.46v7.05h-17.46z"/><path d="m72.13 74.08h17.46v7.05h-17.46z"/><path d="m54.59 74.08h12.29v7.05h-12.29z"/></g><g clip-path="url(#c)"><path d="m1438.44 51.38h29.75v7.05h-29.75z"/><path d="m1438.44 51.38h7.05v29.75h-7.05z"/><path d="m1461.14 51.38h7.05v14.88h-7.05z"/><path d="m1450.73 66.25h7.05v14.88h-7.05z"/><path d="m1450.73 63.9h17.46v7.05h-17.46z"/><path d="m1450.73 74.08h17.46v7.05h-17.46z"/><path d="m1433.19 74.08h12.29v7.05h-12.29z"/></g><g clip-path="url(#d)"><path d="m1458.52 54h7.05v29.75h-7.05z"/><path d="m1435.81 54h29.75v7.05h-29.75z"/><path d="m1450.69 76.71h14.88v7.05h-14.88z"/><path d="m1435.81 66.29h14.88v7.05h-14.88z"/><path d="m1445.99 66.29h7.05v17.46h-7.05z"/><path d="m1435.81 66.29h7.05v17.46h-7.05z"/><path d="m1435.81 48.76h7.05v12.29h-7.05z"/></g><g clip-path="url(#e)"><path d="m1458.52 861.65h7.05v29.75h-7.05z"/><path d="m1435.81 861.65h29.75v7.05h-29.75z"/><path d="m1450.69 884.36h14.88v7.05h-14.88z"/><path d="m1435.81 873.94h14.88v7.05h-14.88z"/><path d="m1445.99 873.94h7.05v17.46h-7.05z"/><path d="m1435.81 873.94h7.05v17.46h-7.05z"/><path d="m1435.81 856.41h7.05v12.29h-7.05z"/></g><g clip-path="url(#f)"><path d="m1433.19 881.74h29.75v7.05h-29.75z"/><path d="m1455.9 859.03h7.05v29.75h-7.05z"/><path d="m1433.19 873.91h7.05v14.88h-7.05z"/><path d="m1443.61 859.03h7.05v14.88h-7.05z"/><path d="m1433.19 869.21h17.46v7.05h-17.46z"/><path d="m1433.19 859.03h17.46v7.05h-17.46z"/><path d="m1455.9 859.03h12.29v7.05h-12.29z"/></g><g clip-path="url(#g)"><path d="m54.59 881.74h29.75v7.05h-29.75z"/><path d="m77.3 859.03h7.05v29.75h-7.05z"/><path d="m54.59 873.91h7.05v14.88h-7.05z"/><path d="m65.01 859.03h7.05v14.88h-7.05z"/><path d="m54.59 869.21h17.46v7.05h-17.46z"/><path d="m54.59 859.03h17.46v7.05h-17.46z"/><path d="m77.3 859.03h12.29v7.05h-12.29z"/></g><g clip-path="url(#h)"><path d="m57.21 856.41h7.05v29.75h-7.05z"/><path d="m57.21 879.11h29.75v7.05h-29.75z"/><path d="m57.21 856.41h14.88v7.05h-14.88z"/><path d="m72.09 866.82h14.88v7.05h-14.88z"/><path d="m69.74 856.41h7.05v17.46h-7.05z"/><path d="m79.92 856.41h7.05v17.46h-7.05z"/><path d="m79.92 879.11h7.05v12.29h-7.05z"/></g></g><path d="m0 142.26v-142.26h142.26z" fill="#ffcf4a"/><path d="m142.26 22.63v-22.63l-22.64 22.63z" fill="#fcb514"/><path d="m22.63 142.26v-22.64l-22.63 22.64z" fill="#fcb514"/><path d="m1521.62 142.26v-142.26h-142.26z" fill="#ffcf4a"/><path d="m1379.36 22.63v-22.63l22.64 22.63z" fill="#fcb514"/><path d="m1498.99 142.26v-22.64l22.63 22.64z" fill="#fcb514"/><path d="m0 798.44v142.25h142.26z" fill="#ffcf4a"/><path d="m142.26 918.06v22.63l-22.64-22.63z" fill="#fcb514"/><path d="m22.63 798.44v22.63l-22.63-22.63z" fill="#fcb514"/><path d="m1521.62 798.44v142.25h-142.26z" fill="#ffcf4a"/><g fill="#fcb514"><path d="m1379.36 918.06v22.63l22.64-22.63z"/><path d="m1498.99 798.44v22.63l22.63-22.63z"/></g></svg>