<svg height="250pt" preserveAspectRatio="xMidYMid meet" viewBox="0 0 250 250" width="250pt" xmlns="http://www.w3.org/2000/svg"><path d="m80 2482c-19-9-45-32-57-51l-23-34v-1146c0-1126 0-1147 20-1179 11-18 34-41 52-52 32-19 52-20 646-20h612v485 485h-160-160v190 190h159 158l6 193c5 199 15 255 57 342 50 103 158 186 285 220 62 16 298 21 389 9l46-7v-167-167l-137-5c-226-7-236-19-241-255l-4-163h186c171 0 186-1 185-17 0-10-10-94-22-188l-23-170-162-3-162-2v-485-485h333c314 0 334 1 365 20 18 11 41 34 52 52 20 32 20 53 20 1178s0 1146-20 1178c-11 18-34 41-52 52-32 20-53 20-1173 20-1065 0-1142-1-1175-18z" fill="#fff" transform="matrix(.1 0 0 -.1 0 250)"/></svg>