<svg viewBox="0 0 324.06 282.84" xmlns="http://www.w3.org/2000/svg"><path d="m52.48 22.81h218.65v75.5h-218.65z" fill="#efeae6"/><path d="m52.48 22.81h218.65v58.99h-218.65z" fill="#e8e3e2"/><path d="m161.8 196.32v.24l-92.8.94v25.57l22.02 5.5 16.51 15.73 11.8-4.72 20.45 7.08 22.02 36.18v-.24l22.02-36.18 20.45-7.08 11.8 4.72 16.52-15.73 22.02-5.5v-25.56z" fill="#d2d1cd"/><g fill="#e8e3e2"><rect height="176.16" rx="5.79" width="16.52" x="52.48" y="56.63"/><rect height="226.04" rx="5.79" width="16.52" x="153.94" y="56.63"/><rect height="191.2" rx="5.79" width="16.52" x="102.82" y="56.63"/><rect height="176.16" rx="5.79" width="16.52" x="254.61" y="56.63"/></g><g fill="#d2d1cd"><rect height="144.56" rx="11.86" width="33.82" x="69" y="67.64"/><rect height="144.56" rx="12.14" width="34.61" x="119.33" y="67.64"/><rect height="144.56" rx="11.86" width="33.82" x="170.45" y="67.64"/><rect height="144.56" rx="12.14" width="34.61" x="220" y="67.64"/></g><path d="m0 0h324.06v47.29h-324.06z" fill="#efeae6"/><path d="m0 39.32h324.06v13.47h-324.06z" fill="#dcd7cd"/><circle cx="40.85" cy="45.94" fill="#efeae6" r="40.85"/><rect fill="#e8e3e2" height="191.2" rx="5.79" width="16.52" x="203.49" y="56.63"/><circle cx="283.21" cy="45.94" fill="#efeae6" r="40.85"/><rect fill="#eee9e4" height="54.28" rx="22.27" width="236.04" x="43.39" y="20.88"/><path d="m257.16 23.38a19.79 19.79 0 0 1 19.77 19.77v9.74a19.79 19.79 0 0 1 -19.77 19.77h-191.5a19.79 19.79 0 0 1 -19.77-19.78v-9.74a19.79 19.79 0 0 1 19.77-19.76zm0-5h-191.5a24.84 24.84 0 0 0 -24.77 24.76v9.74a24.84 24.84 0 0 0 24.77 24.77h191.5a24.84 24.84 0 0 0 24.77-24.77v-9.74a24.84 24.84 0 0 0 -24.77-24.77z" fill="#c0b399"/><circle cx="266.57" cy="56.38" fill="#ffcf4a" r="21.13"/><path d="m283.9 68.47s8.15-16.26 22.7-18a1.77 1.77 0 0 0 1.59-1.85c-.07-1.67 0-37.69 0-37.69s0-.72-.93-.69-25.36 15.6-25.36 15.6a1 1 0 0 0 -.17 1.5c.77.9 3.26 3.85-.23 7-1.83 1.64-14.93.92-14.93.92z" fill="#ffcf4a"/><circle cx="266.57" cy="56.38" fill="#fab416" r="14.76"/><circle cx="266.57" cy="56.38" fill="#ffcf4a" r="7.83"/><path d="m245.44 56.38v19.62a1.48 1.48 0 0 0 1.44 1.55c1.47.05 19.69 0 19.69 0z" fill="#ffcf4a"/><circle cx="55.37" cy="56.38" fill="#ffcf4a" r="21.13"/><path d="m38 68.47s-8.15-16.26-22.7-18a1.77 1.77 0 0 1 -1.59-1.85c.07-1.67 0-37.69 0-37.69s0-.72.93-.69 25.36 15.63 25.36 15.63a1 1 0 0 1 .17 1.5c-.77.9-3.26 3.85.23 7 1.83 1.64 14.93.92 14.93.92z" fill="#ffcf4a"/><circle cx="55.37" cy="56.38" fill="#fab416" r="14.76"/><circle cx="55.37" cy="56.38" fill="#ffcf4a" r="7.83"/><path d="m76.5 56.38v19.62a1.48 1.48 0 0 1 -1.44 1.55c-1.47.05-19.69 0-19.69 0z" fill="#ffcf4a"/><path d="m161.67 231.2a70.43 70.43 0 1 1 70.43-70.43 70.51 70.51 0 0 1 -70.43 70.43z" fill="#eee9e4"/><path d="m161.67 92.83a67.93 67.93 0 1 1 -67.93 67.93 68 68 0 0 1 67.93-67.93m0-5a72.93 72.93 0 1 0 72.93 72.93 72.93 72.93 0 0 0 -72.93-72.93z" fill="#c0b399"/><circle cx="161.67" cy="160.77" fill="#fff" r="64.35"/></svg>