<svg enable-background="new 0 0 2401.3 1436.9" viewBox="0 0 2401.3 1436.9" xmlns="http://www.w3.org/2000/svg" xmlns:xlink="http://www.w3.org/1999/xlink"><linearGradient id="a"><stop offset="0" stop-color="#fff"/><stop offset="1" stop-color="#fff" stop-opacity="0"/></linearGradient><linearGradient id="b" gradientUnits="userSpaceOnUse" x1="1116.074" x2="1116.074" xlink:href="#a" y1="54.403" y2="898.683"/><linearGradient id="c" gradientUnits="userSpaceOnUse" x1="1116.074" x2="1116.074" xlink:href="#a" y1="380.403" y2="1224.683"/><path d="m156.1 88 186 345 63-172 99 227 51-136 48 136 80-87 98 133 51-50 270 62 61-145 63 110 20-223 98 202 17.8-269 77.2 201 74-105v146l145-56 47 98 42-92 116 133 20-249s74 270 74 205 27-281 27-281l65 139 27-305.5v844.3h-1920z" fill="url(#b)" opacity=".4"/><path d="m156.1 414 186 345 63-172 99 227 51-136 48 136 80-87 98 133 51-50 270 62 61-145 63 110 20-223 98 202 17.8-269 77.2 201 74-105v146l145-56 47 98 42-92 116 133 20-249s74 270 74 205 27-281 27-281l65 139 27-305.5v844.3h-1920z" fill="url(#c)" opacity=".6"/></svg>