<?xml version="1.0" encoding="utf-8"?>
<!-- Generator: Adobe Illustrator 19.0.0, SVG Export Plug-In . SVG Version: 6.00 Build 0)  -->
<svg version="1.1" id="Layer_1" xmlns="http://www.w3.org/2000/svg" xmlns:xlink="http://www.w3.org/1999/xlink" x="0px" y="0px"
	 viewBox="0 0 2401.3 1436.9" style="enable-background:new 0 0 2401.3 1436.9;" xml:space="preserve">
<style type="text/css">
	.st0{opacity:0.4;fill:url(#SVGID_1_);}
	.st1{opacity:0.6;fill:url(#SVGID_2_);}
</style>
<linearGradient id="SVGID_1_" gradientUnits="userSpaceOnUse" x1="1116.0739" y1="54.4031" x2="1116.0739" y2="898.6834">
	<stop  offset="0" style="stop-color:#FFFFFF"/>
	<stop  offset="1" style="stop-color:#FFFFFF;stop-opacity:0"/>
</linearGradient>
<path class="st0" d="M156.1,88l186,345l63-172l99,227l51-136l48,136l80-87l98,133l51-50l270,62l61-145l63,110l20-223l98,202
	l17.8-269l77.2,201l74-105v146l145-56l47,98l42-92l116,133l20-249c0,0,74,270,74,205s27-281,27-281l65,139l27-305.5v844.3h-1920V88z
	"/>
<linearGradient id="SVGID_2_" gradientUnits="userSpaceOnUse" x1="1116.0739" y1="380.403" x2="1116.0739" y2="1224.6833">
	<stop  offset="0" style="stop-color:#FFFFFF"/>
	<stop  offset="1" style="stop-color:#FFFFFF;stop-opacity:0"/>
</linearGradient>
<path class="st1" d="M156.1,414l186,345l63-172l99,227l51-136l48,136l80-87l98,133l51-50l270,62l61-145l63,110l20-223l98,202
	l17.8-269l77.2,201l74-105v146l145-56l47,98l42-92l116,133l20-249c0,0,74,270,74,205s27-281,27-281l65,139l27-305.5v844.3h-1920V414
	z"/>
</svg>
