<svg xmlns="http://www.w3.org/2000/svg" xmlns:xlink="http://www.w3.org/1999/xlink" viewBox="0 0 1920 1170.28"><defs><style>.cls-1{opacity:0.4;fill:url(#linear-gradient);}.cls-2{opacity:0.6;fill:url(#linear-gradient-2);}</style><linearGradient id="linear-gradient" x1="960" x2="960" y2="844.28" gradientUnits="userSpaceOnUse"><stop offset="0" stop-color="#fff"/><stop offset="1" stop-color="#fff" stop-opacity="0"/></linearGradient><linearGradient id="linear-gradient-2" y1="326" y2="1170.28" xlink:href="#linear-gradient"/></defs><title>underwater</title><g id="Layer_2" data-name="Layer 2"><g id="Layer_2-2" data-name="Layer 2"><path class="cls-1" d="M0,33.57l186,345,63-172,99,227,51-136,48,136,80-87,98,133,51-50,270,62,61-145,63,110,20-223,98,202,17.83-269,77.17,201,74-105v146l145-56,47,98,42-92,116,133,20-249s74,270,74,205,27-281,27-281l65,139L1920,0V844.28H0Z"/><path class="cls-2" d="M0,359.57l186,345,63-172,99,227,51-136,48,136,80-87,98,133,51-50,270,62,61-145,63,110,20-223,98,202,17.83-269,77.17,201,74-105v146l145-56,47,98,42-92,116,133,20-249s74,270,74,205,27-281,27-281l65,139L1920,326v844.28H0Z"/></g></g></svg>