<svg viewBox="0 0 1920 1170.28" xmlns="http://www.w3.org/2000/svg" xmlns:xlink="http://www.w3.org/1999/xlink"><linearGradient id="a" gradientUnits="userSpaceOnUse" x1="960" x2="960" y2="844.28"><stop offset="0" stop-color="#fff"/><stop offset="1" stop-color="#fff" stop-opacity="0"/></linearGradient><linearGradient id="b" xlink:href="#a" y1="326" y2="1170.28"/><path d="m0 33.57 186 345 63-172 99 227 51-136 48 136 80-87 98 133 51-50 270 62 61-145 63 110 20-223 98 202 17.83-269 77.17 201 74-105v146l145-56 47 98 42-92 116 133 20-249s74 270 74 205 27-281 27-281l65 139 27-305.57v844.28h-1920z" fill="url(#a)" opacity=".4"/><path d="m0 359.57 186 345 63-172 99 227 51-136 48 136 80-87 98 133 51-50 270 62 61-145 63 110 20-223 98 202 17.83-269 77.17 201 74-105v146l145-56 47 98 42-92 116 133 20-249s74 270 74 205 27-281 27-281l65 139 27-305.57v844.28h-1920z" fill="url(#b)" opacity=".6"/></svg>