<svg viewBox="0 0 2047.8 1375.32" xmlns="http://www.w3.org/2000/svg" xmlns:xlink="http://www.w3.org/1999/xlink"><clipPath id="a"><path d="m1540.63 474.79v1.31l14.88 14.88v-16.19z"/></clipPath><clipPath id="b"><path d="m1539.32 476.1h1.31l14.88 14.88h-16.19z"/></clipPath><clipPath id="c"><path d="m541.91 476.1h-1.31l-14.88 14.88h16.19z"/></clipPath><clipPath id="d"><path d="m540.6 474.79v1.31l-14.88 14.88v-16.19z"/></clipPath><clipPath id="e"><path d="m540.6 107.33v-1.32l-14.88-14.87v16.19z"/></clipPath><clipPath id="f"><path d="m541.91 106.01h-1.31l-14.88-14.87h16.19z"/></clipPath><clipPath id="g"><path d="m1539.32 106.01h1.31l14.88-14.87h-16.19z"/></clipPath><clipPath id="h"><path d="m1540.63 107.33v-1.32l14.88-14.87v16.19z"/></clipPath><path d="m352.22 132.04h1354.91v1027.53h-1354.91z" fill="#4f4c48"/><path d="m285.36 205.19h109.78v902.13h-109.78z" fill="#d1d1cc"/><path d="m313.33 205.19h53.84v902.13h-53.84z" fill="#dbd6cd"/><rect fill="#e7e2e1" height="845.21" rx="3.37" width="12.67" x="293.03" y="229.27"/><rect fill="#eee9e4" height="845.21" rx="3.37" width="12.67" x="322.36" y="229.27"/><rect fill="#eee9e4" height="845.21" rx="3.37" width="12.67" x="344.72" y="229.27"/><rect fill="#e7e2e1" height="845.21" rx="3.37" width="12.67" x="374.83" y="229.27"/><path d="m259.09 181.36h162.33v23.83h-162.33z" fill="#b3b2b3"/><circle cx="279.55" cy="204.52" fill="#b3b2b3" r="20.46"/><circle cx="279.55" cy="204.52" fill="#979797" r="14.47"/><circle cx="400.96" cy="204.52" fill="#b3b2b3" r="20.46"/><circle cx="279.55" cy="204.52" fill="#b3b2b3" r="7.69"/><circle cx="400.96" cy="204.52" fill="#979797" r="14.47"/><circle cx="400.96" cy="204.52" fill="#b3b2b3" r="7.69"/><path d="m634.36 205.19h109.78v902.13h-109.78z" fill="#d1d1cc"/><path d="m662.33 205.19h53.84v902.13h-53.84z" fill="#dbd6cd"/><rect fill="#e7e2e1" height="845.21" rx="3.37" width="12.67" x="642.03" y="229.27"/><rect fill="#eee9e4" height="845.21" rx="3.37" width="12.67" x="671.36" y="229.27"/><rect fill="#eee9e4" height="845.21" rx="3.37" width="12.67" x="693.72" y="229.27"/><rect fill="#e7e2e1" height="845.21" rx="3.37" width="12.67" x="723.83" y="229.27"/><path d="m608.09 181.36h162.33v23.83h-162.33z" fill="#b3b2b3"/><circle cx="628.55" cy="204.52" fill="#b3b2b3" r="20.46"/><circle cx="628.55" cy="204.52" fill="#979797" r="14.47"/><circle cx="749.96" cy="204.52" fill="#b3b2b3" r="20.46"/><circle cx="628.55" cy="204.52" fill="#b3b2b3" r="7.69"/><circle cx="749.96" cy="204.52" fill="#979797" r="14.47"/><circle cx="749.96" cy="204.52" fill="#b3b2b3" r="7.69"/><path d="m983.36 205.19h109.78v902.13h-109.78z" fill="#d1d1cc"/><path d="m1011.33 205.19h53.84v902.13h-53.84z" fill="#dbd6cd"/><rect fill="#e7e2e1" height="845.21" rx="3.37" width="12.67" x="991.03" y="229.27"/><rect fill="#eee9e4" height="845.21" rx="3.37" width="12.67" x="1020.36" y="229.27"/><rect fill="#eee9e4" height="845.21" rx="3.37" width="12.67" x="1042.72" y="229.27"/><rect fill="#e7e2e1" height="845.21" rx="3.37" width="12.67" x="1072.83" y="229.27"/><path d="m957.09 181.36h162.33v23.83h-162.33z" fill="#b3b2b3"/><circle cx="977.55" cy="204.52" fill="#b3b2b3" r="20.46"/><circle cx="977.55" cy="204.52" fill="#979797" r="14.47"/><circle cx="1098.96" cy="204.52" fill="#b3b2b3" r="20.46"/><circle cx="977.55" cy="204.52" fill="#b3b2b3" r="7.69"/><circle cx="1098.96" cy="204.52" fill="#979797" r="14.47"/><circle cx="1098.96" cy="204.52" fill="#b3b2b3" r="7.69"/><path d="m1332.36 205.19h109.78v902.13h-109.78z" fill="#d1d1cc"/><path d="m1360.33 205.19h53.84v902.13h-53.84z" fill="#dbd6cd"/><rect fill="#e7e2e1" height="845.21" rx="3.37" width="12.67" x="1340.03" y="229.27"/><rect fill="#eee9e4" height="845.21" rx="3.37" width="12.67" x="1369.36" y="229.27"/><rect fill="#eee9e4" height="845.21" rx="3.37" width="12.67" x="1391.72" y="229.27"/><rect fill="#e7e2e1" height="845.21" rx="3.37" width="12.67" x="1421.83" y="229.27"/><path d="m1306.09 181.36h162.33v23.83h-162.33z" fill="#b3b2b3"/><circle cx="1326.55" cy="204.52" fill="#b3b2b3" r="20.46"/><circle cx="1326.55" cy="204.52" fill="#979797" r="14.47"/><circle cx="1447.96" cy="204.52" fill="#b3b2b3" r="20.46"/><circle cx="1326.55" cy="204.52" fill="#b3b2b3" r="7.69"/><circle cx="1447.96" cy="204.52" fill="#979797" r="14.47"/><circle cx="1447.96" cy="204.52" fill="#b3b2b3" r="7.69"/><path d="m1681.36 205.19h109.78v902.13h-109.78z" fill="#d1d1cc"/><path d="m1709.33 205.19h53.84v902.13h-53.84z" fill="#dbd6cd"/><rect fill="#e7e2e1" height="845.21" rx="3.37" width="12.67" x="1689.03" y="229.27"/><rect fill="#eee9e4" height="845.21" rx="3.37" width="12.67" x="1718.36" y="229.27"/><rect fill="#eee9e4" height="845.21" rx="3.37" width="12.67" x="1740.72" y="229.27"/><rect fill="#e7e2e1" height="845.21" rx="3.37" width="12.67" x="1770.83" y="229.27"/><path d="m1655.09 181.36h162.33v23.83h-162.33z" fill="#b3b2b3"/><circle cx="1675.55" cy="204.52" fill="#b3b2b3" r="20.46"/><circle cx="1675.55" cy="204.52" fill="#979797" r="14.47"/><circle cx="1796.96" cy="204.52" fill="#b3b2b3" r="20.46"/><circle cx="1675.55" cy="204.52" fill="#b3b2b3" r="7.69"/><circle cx="1796.96" cy="204.52" fill="#979797" r="14.47"/><circle cx="1796.96" cy="204.52" fill="#b3b2b3" r="7.69"/><path d="m250.8 146.08h1577.5v35.28h-1577.5z" fill="#dbd6cd"/><path d="m243.87 140.59h1591.37v5.49h-1591.37z" fill="#cbcbca"/><path d="m243.87 124.73h1591.37v5.49h-1591.37z" fill="#cbcbca"/><path d="m243.87 130.22h1591.37v10.37h-1591.37z" fill="#b3b2b3"/><path d="m231.24 95.32 19.56 29.4h1577.5l18.93-29.4z" fill="#dbd6cd"/><path d="m2047.8 1204a104.34 104.34 0 0 1 -104.33 104.35h-562.68a154.16 154.16 0 0 1 -4-308.27 224.33 224.33 0 0 1 416.25.78 154.29 154.29 0 0 1 160.38 99.3 104.31 104.31 0 0 1 94.38 103.84z" fill="#fff"/><path d="m1449.8 1271a104.34 104.34 0 0 1 -104.33 104.35h-562.68a154.16 154.16 0 0 1 -4-308.27 224.33 224.33 0 0 1 416.25.78 154.29 154.29 0 0 1 160.38 99.3 104.31 104.31 0 0 1 94.38 103.84z" fill="#fff"/><path d="m821.18 1203.48a104.34 104.34 0 0 1 -104.33 104.35h-562.68a154.16 154.16 0 0 1 -4-308.27 224.33 224.33 0 0 1 416.25.78 154.29 154.29 0 0 1 160.38 99.3 104.31 104.31 0 0 1 94.38 103.84z" fill="#fff"/><path d="m629.67 1204a104.34 104.34 0 0 0 104.33 104.32h562.68a154.16 154.16 0 0 0 4-308.27 224.33 224.33 0 0 0 -416.25.78 154.29 154.29 0 0 0 -160.38 99.3 104.31 104.31 0 0 0 -94.38 103.87z" fill="#fff"/><path d="m1039.84 1171.35a76 76 0 0 1 -75.95 76h-409.63a112.23 112.23 0 0 1 -2.94-224.42 163.31 163.31 0 0 1 303 .57 112.33 112.33 0 0 1 116.76 72.29 75.94 75.94 0 0 1 68.76 75.56z" fill="#fff"/><path d="m504.73 76.82h1069v428.79h-1069z" fill="#efeae6"/><path d="m1571.23 79.32v423.79h-1064v-423.79zm5-5h-1074v433.79h1074z" fill="#c1b49a"/><path d="m531.73 101.82h1017.76v378.48h-1017.76z" fill="#efeae6"/><g fill="#dcd7cd"><path d="m1551.98 109.95h3.52v14.88h-3.52z"/><path d="m1540.63 109.95h14.88v3.52h-14.88z"/><path d="m1548.07 121.3h7.44v3.52h-7.44z"/><path d="m1540.63 116.09h7.44v3.52h-7.44z"/><path d="m1545.72 116.09h3.52v8.73h-3.52z"/><path d="m1540.63 116.09h3.52v8.73h-3.52z"/><path d="m1540.63 107.33h3.52v6.15h-3.52z"/><path d="m1551.98 127.45h3.52v14.88h-3.52z"/><path d="m1540.63 127.45h14.88v3.52h-14.88z"/><path d="m1548.07 138.8h7.44v3.52h-7.44z"/><path d="m1540.63 133.59h7.44v3.52h-7.44z"/><path d="m1545.72 133.59h3.52v8.73h-3.52z"/><path d="m1540.63 133.59h3.52v8.73h-3.52z"/><path d="m1540.63 124.82h3.52v6.15h-3.52z"/><path d="m1551.98 144.94h3.52v14.88h-3.52z"/><path d="m1540.63 144.94h14.88v3.52h-14.88z"/><path d="m1548.07 156.3h7.44v3.52h-7.44z"/><path d="m1540.63 151.09h7.44v3.52h-7.44z"/><path d="m1545.72 151.09h3.52v8.73h-3.52z"/><path d="m1540.63 151.09h3.52v8.73h-3.52z"/><path d="m1540.63 142.32h3.52v6.15h-3.52z"/><path d="m1551.98 162.44h3.52v14.88h-3.52z"/><path d="m1540.63 162.44h14.88v3.52h-14.88z"/><path d="m1548.07 173.8h7.44v3.52h-7.44z"/><path d="m1540.63 168.59h7.44v3.52h-7.44z"/><path d="m1545.72 168.59h3.52v8.73h-3.52z"/><path d="m1540.63 168.59h3.52v8.73h-3.52z"/><path d="m1540.63 159.82h3.52v6.15h-3.52z"/><path d="m1551.98 179.94h3.52v14.88h-3.52z"/><path d="m1540.63 179.94h14.88v3.52h-14.88z"/><path d="m1548.07 191.29h7.44v3.52h-7.44z"/><path d="m1540.63 186.09h7.44v3.52h-7.44z"/><path d="m1545.72 186.09h3.52v8.73h-3.52z"/><path d="m1540.63 186.09h3.52v8.73h-3.52z"/><path d="m1540.63 177.32h3.52v6.15h-3.52z"/><path d="m1551.98 197.44h3.52v14.88h-3.52z"/><path d="m1540.63 197.44h14.88v3.52h-14.88z"/><path d="m1548.07 208.79h7.44v3.52h-7.44z"/><path d="m1540.63 203.58h7.44v3.52h-7.44z"/><path d="m1545.72 203.58h3.52v8.73h-3.52z"/><path d="m1540.63 203.58h3.52v8.73h-3.52z"/><path d="m1540.63 194.82h3.52v6.15h-3.52z"/><path d="m1551.98 214.94h3.52v14.88h-3.52z"/><path d="m1540.63 214.94h14.88v3.52h-14.88z"/><path d="m1548.07 226.29h7.44v3.52h-7.44z"/><path d="m1540.63 221.08h7.44v3.52h-7.44z"/><path d="m1545.72 221.08h3.52v8.73h-3.52z"/><path d="m1540.63 221.08h3.52v8.73h-3.52z"/><path d="m1540.63 212.32h3.52v6.15h-3.52z"/><path d="m1551.98 232.44h3.52v14.88h-3.52z"/><path d="m1540.63 232.44h14.88v3.52h-14.88z"/><path d="m1548.07 243.79h7.44v3.52h-7.44z"/><path d="m1540.63 238.58h7.44v3.52h-7.44z"/><path d="m1545.72 238.58h3.52v8.73h-3.52z"/><path d="m1540.63 238.58h3.52v8.73h-3.52z"/><path d="m1540.63 229.81h3.52v6.15h-3.52z"/><path d="m1551.98 249.93h3.52v14.88h-3.52z"/><path d="m1540.63 249.93h14.88v3.52h-14.88z"/><path d="m1548.07 261.29h7.44v3.52h-7.44z"/><path d="m1540.63 256.08h7.44v3.52h-7.44z"/><path d="m1545.72 256.08h3.52v8.73h-3.52z"/><path d="m1540.63 256.08h3.52v8.73h-3.52z"/><path d="m1540.63 247.31h3.52v6.15h-3.52z"/><path d="m1551.98 267.43h3.52v14.88h-3.52z"/><path d="m1540.63 267.43h14.88v3.52h-14.88z"/><path d="m1548.07 278.79h7.44v3.52h-7.44z"/><path d="m1540.63 273.58h7.44v3.52h-7.44z"/><path d="m1545.72 273.58h3.52v8.73h-3.52z"/><path d="m1540.63 273.58h3.52v8.73h-3.52z"/><path d="m1540.63 264.81h3.52v6.15h-3.52z"/><path d="m1551.98 284.93h3.52v14.88h-3.52z"/><path d="m1540.63 284.93h14.88v3.52h-14.88z"/><path d="m1548.07 296.28h7.44v3.52h-7.44z"/><path d="m1540.63 291.08h7.44v3.52h-7.44z"/><path d="m1545.72 291.08h3.52v8.73h-3.52z"/><path d="m1540.63 291.08h3.52v8.73h-3.52z"/><path d="m1540.63 282.31h3.52v6.15h-3.52z"/><path d="m1551.98 302.43h3.52v14.88h-3.52z"/><path d="m1540.63 302.43h14.88v3.52h-14.88z"/><path d="m1548.07 313.78h7.44v3.52h-7.44z"/><path d="m1540.63 308.58h7.44v3.52h-7.44z"/><path d="m1545.72 308.58h3.52v8.73h-3.52z"/><path d="m1540.63 308.58h3.52v8.73h-3.52z"/><path d="m1540.63 299.81h3.52v6.15h-3.52z"/><path d="m1551.98 319.93h3.52v14.88h-3.52z"/><path d="m1540.63 319.93h14.88v3.52h-14.88z"/><path d="m1548.07 331.28h7.44v3.52h-7.44z"/><path d="m1540.63 326.07h7.44v3.52h-7.44z"/><path d="m1545.72 326.07h3.52v8.73h-3.52z"/><path d="m1540.63 326.07h3.52v8.73h-3.52z"/><path d="m1540.63 317.31h3.52v6.15h-3.52z"/><path d="m1551.98 337.43h3.52v14.88h-3.52z"/><path d="m1540.63 337.43h14.88v3.52h-14.88z"/><path d="m1548.07 348.78h7.44v3.52h-7.44z"/><path d="m1540.63 343.57h7.44v3.52h-7.44z"/><path d="m1545.72 343.57h3.52v8.73h-3.52z"/><path d="m1540.63 343.57h3.52v8.73h-3.52z"/><path d="m1540.63 334.8h3.52v6.15h-3.52z"/><path d="m1551.98 354.93h3.52v14.88h-3.52z"/><path d="m1540.63 354.93h14.88v3.52h-14.88z"/><path d="m1548.07 366.28h7.44v3.52h-7.44z"/><path d="m1540.63 361.07h7.44v3.52h-7.44z"/><path d="m1545.72 361.07h3.52v8.73h-3.52z"/><path d="m1540.63 361.07h3.52v8.73h-3.52z"/><path d="m1540.63 352.3h3.52v6.15h-3.52z"/><path d="m1551.98 372.42h3.52v14.88h-3.52z"/><path d="m1540.63 372.42h14.88v3.52h-14.88z"/><path d="m1548.07 383.78h7.44v3.52h-7.44z"/><path d="m1540.63 378.57h7.44v3.52h-7.44z"/><path d="m1545.72 378.57h3.52v8.73h-3.52z"/><path d="m1540.63 378.57h3.52v8.73h-3.52z"/><path d="m1540.63 369.8h3.52v6.15h-3.52z"/><path d="m1551.98 389.92h3.52v14.88h-3.52z"/><path d="m1540.63 389.92h14.88v3.52h-14.88z"/><path d="m1548.07 401.28h7.44v3.52h-7.44z"/><path d="m1540.63 396.07h7.44v3.52h-7.44z"/><path d="m1545.72 396.07h3.52v8.73h-3.52z"/><path d="m1540.63 396.07h3.52v8.73h-3.52z"/><path d="m1540.63 387.3h3.52v6.15h-3.52z"/><path d="m1551.98 407.42h3.52v14.88h-3.52z"/><path d="m1540.63 407.42h14.88v3.52h-14.88z"/><path d="m1548.07 418.77h7.44v3.52h-7.44z"/><path d="m1540.63 413.57h7.44v3.52h-7.44z"/><path d="m1545.72 413.57h3.52v8.73h-3.52z"/><path d="m1540.63 413.57h3.52v8.73h-3.52z"/><path d="m1540.63 404.8h3.52v6.15h-3.52z"/><path d="m1551.98 424.92h3.52v14.88h-3.52z"/><path d="m1540.63 424.92h14.88v3.52h-14.88z"/><path d="m1548.07 436.27h7.44v3.52h-7.44z"/><path d="m1540.63 431.06h7.44v3.52h-7.44z"/><path d="m1545.72 431.06h3.52v8.73h-3.52z"/><path d="m1540.63 431.06h3.52v8.73h-3.52z"/><path d="m1540.63 422.3h3.52v6.15h-3.52z"/><path d="m1551.98 442.42h3.52v14.88h-3.52z"/><path d="m1540.63 442.42h14.88v3.52h-14.88z"/><path d="m1548.07 453.77h7.44v3.52h-7.44z"/><path d="m1540.63 448.56h7.44v3.52h-7.44z"/><path d="m1545.72 448.56h3.52v8.73h-3.52z"/><path d="m1540.63 448.56h3.52v8.73h-3.52z"/><path d="m1540.63 439.8h3.52v6.15h-3.52z"/><path d="m1551.98 459.92h3.52v14.88h-3.52z"/><path d="m1540.63 459.92h14.88v3.52h-14.88z"/><path d="m1548.07 471.27h7.44v3.52h-7.44z"/><path d="m1540.63 466.06h7.44v3.52h-7.44z"/><path d="m1545.72 466.06h3.52v8.73h-3.52z"/><path d="m1540.63 466.06h3.52v8.73h-3.52z"/><path d="m1540.63 457.29h3.52v6.15h-3.52z"/><path d="m1521.82 487.46h14.88v3.52h-14.88z"/><path d="m1533.17 476.1h3.52v14.88h-3.52z"/><path d="m1521.82 483.54h3.52v7.44h-3.52z"/><path d="m1527.03 476.1h3.52v7.44h-3.52z"/><path d="m1521.82 481.19h8.73v3.52h-8.73z"/><path d="m1521.82 476.1h8.73v3.52h-8.73z"/><path d="m1533.17 476.1h6.15v3.52h-6.15z"/><path d="m1504.32 487.46h14.88v3.52h-14.88z"/><path d="m1515.67 476.1h3.52v14.88h-3.52z"/><path d="m1504.32 483.54h3.52v7.44h-3.52z"/><path d="m1509.53 476.1h3.52v7.44h-3.52z"/><path d="m1504.32 481.19h8.73v3.52h-8.73z"/><path d="m1504.32 476.1h8.73v3.52h-8.73z"/><path d="m1515.67 476.1h6.15v3.52h-6.15z"/><path d="m1486.82 487.46h14.88v3.52h-14.88z"/><path d="m1498.18 476.1h3.52v14.88h-3.52z"/><path d="m1486.82 483.54h3.52v7.44h-3.52z"/><path d="m1492.03 476.1h3.52v7.44h-3.52z"/><path d="m1486.82 481.19h8.73v3.52h-8.73z"/><path d="m1486.82 476.1h8.73v3.52h-8.73z"/><path d="m1498.18 476.1h6.15v3.52h-6.15z"/><path d="m1469.32 487.46h14.88v3.52h-14.88z"/><path d="m1480.68 476.1h3.52v14.88h-3.52z"/><path d="m1469.32 483.54h3.52v7.44h-3.52z"/><path d="m1474.53 476.1h3.52v7.44h-3.52z"/><path d="m1469.32 481.19h8.73v3.52h-8.73z"/><path d="m1469.32 476.1h8.73v3.52h-8.73z"/><path d="m1480.68 476.1h6.15v3.52h-6.15z"/><path d="m1451.83 487.46h14.88v3.52h-14.88z"/><path d="m1463.18 476.1h3.52v14.88h-3.52z"/><path d="m1451.83 483.54h3.52v7.44h-3.52z"/><path d="m1457.03 476.1h3.52v7.44h-3.52z"/><path d="m1451.83 481.19h8.73v3.52h-8.73z"/><path d="m1451.83 476.1h8.73v3.52h-8.73z"/><path d="m1463.18 476.1h6.15v3.52h-6.15z"/><path d="m1434.33 487.46h14.88v3.52h-14.88z"/><path d="m1445.68 476.1h3.52v14.88h-3.52z"/><path d="m1434.33 483.54h3.52v7.44h-3.52z"/><path d="m1439.53 476.1h3.52v7.44h-3.52z"/><path d="m1434.33 481.19h8.73v3.52h-8.73z"/><path d="m1434.33 476.1h8.73v3.52h-8.73z"/><path d="m1445.68 476.1h6.15v3.52h-6.15z"/><path d="m1416.83 487.46h14.88v3.52h-14.88z"/><path d="m1428.18 476.1h3.52v14.88h-3.52z"/><path d="m1416.83 483.54h3.52v7.44h-3.52z"/><path d="m1422.04 476.1h3.52v7.44h-3.52z"/><path d="m1416.83 481.19h8.73v3.52h-8.73z"/><path d="m1416.83 476.1h8.73v3.52h-8.73z"/><path d="m1428.18 476.1h6.15v3.52h-6.15z"/><path d="m1399.33 487.46h14.88v3.52h-14.88z"/><path d="m1410.68 476.1h3.52v14.88h-3.52z"/><path d="m1399.33 483.54h3.52v7.44h-3.52z"/><path d="m1404.54 476.1h3.52v7.44h-3.52z"/><path d="m1399.33 481.19h8.73v3.52h-8.73z"/><path d="m1399.33 476.1h8.73v3.52h-8.73z"/><path d="m1410.68 476.1h6.15v3.52h-6.15z"/><path d="m1381.83 487.46h14.88v3.52h-14.88z"/><path d="m1393.19 476.1h3.52v14.88h-3.52z"/><path d="m1381.83 483.54h3.52v7.44h-3.52z"/><path d="m1387.04 476.1h3.52v7.44h-3.52z"/><path d="m1381.83 481.19h8.73v3.52h-8.73z"/><path d="m1381.83 476.1h8.73v3.52h-8.73z"/><path d="m1393.19 476.1h6.15v3.52h-6.15z"/><path d="m1364.33 487.46h14.88v3.52h-14.88z"/><path d="m1375.69 476.1h3.52v14.88h-3.52z"/><path d="m1364.33 483.54h3.52v7.44h-3.52z"/><path d="m1369.54 476.1h3.52v7.44h-3.52z"/><path d="m1364.33 481.19h8.73v3.52h-8.73z"/><path d="m1364.33 476.1h8.73v3.52h-8.73z"/><path d="m1375.69 476.1h6.15v3.52h-6.15z"/><path d="m1346.84 487.46h14.88v3.52h-14.88z"/><path d="m1358.19 476.1h3.52v14.88h-3.52z"/><path d="m1346.84 483.54h3.52v7.44h-3.52z"/><path d="m1352.04 476.1h3.52v7.44h-3.52z"/><path d="m1346.84 481.19h8.73v3.52h-8.73z"/><path d="m1346.84 476.1h8.73v3.52h-8.73z"/><path d="m1358.19 476.1h6.15v3.52h-6.15z"/><path d="m1329.34 487.46h14.88v3.52h-14.88z"/><path d="m1340.69 476.1h3.52v14.88h-3.52z"/><path d="m1329.34 483.54h3.52v7.44h-3.52z"/><path d="m1334.54 476.1h3.52v7.44h-3.52z"/><path d="m1329.34 481.19h8.73v3.52h-8.73z"/><path d="m1329.34 476.1h8.73v3.52h-8.73z"/><path d="m1340.69 476.1h6.15v3.52h-6.15z"/><path d="m1311.84 487.46h14.88v3.52h-14.88z"/><path d="m1323.19 476.1h3.52v14.88h-3.52z"/><path d="m1311.84 483.54h3.52v7.44h-3.52z"/><path d="m1317.05 476.1h3.52v7.44h-3.52z"/><path d="m1311.84 481.19h8.73v3.52h-8.73z"/><path d="m1311.84 476.1h8.73v3.52h-8.73z"/><path d="m1323.19 476.1h6.15v3.52h-6.15z"/><path d="m1294.34 487.46h14.88v3.52h-14.88z"/><path d="m1305.69 476.1h3.52v14.88h-3.52z"/><path d="m1294.34 483.54h3.52v7.44h-3.52z"/><path d="m1299.55 476.1h3.52v7.44h-3.52z"/><path d="m1294.34 481.19h8.73v3.52h-8.73z"/><path d="m1294.34 476.1h8.73v3.52h-8.73z"/><path d="m1305.69 476.1h6.15v3.52h-6.15z"/><path d="m1276.84 487.46h14.88v3.52h-14.88z"/><path d="m1288.19 476.1h3.52v14.88h-3.52z"/><path d="m1276.84 483.54h3.52v7.44h-3.52z"/><path d="m1282.05 476.1h3.52v7.44h-3.52z"/><path d="m1276.84 481.19h8.73v3.52h-8.73z"/><path d="m1276.84 476.1h8.73v3.52h-8.73z"/><path d="m1288.19 476.1h6.15v3.52h-6.15z"/><path d="m1259.34 487.46h14.88v3.52h-14.88z"/><path d="m1270.7 476.1h3.52v14.88h-3.52z"/><path d="m1259.34 483.54h3.52v7.44h-3.52z"/><path d="m1264.55 476.1h3.52v7.44h-3.52z"/><path d="m1259.34 481.19h8.73v3.52h-8.73z"/><path d="m1259.34 476.1h8.73v3.52h-8.73z"/><path d="m1270.7 476.1h6.15v3.52h-6.15z"/><path d="m1241.84 487.46h14.88v3.52h-14.88z"/><path d="m1253.2 476.1h3.52v14.88h-3.52z"/><path d="m1241.84 483.54h3.52v7.44h-3.52z"/><path d="m1247.05 476.1h3.52v7.44h-3.52z"/><path d="m1241.84 481.19h8.73v3.52h-8.73z"/><path d="m1241.84 476.1h8.73v3.52h-8.73z"/><path d="m1253.2 476.1h6.15v3.52h-6.15z"/><path d="m1224.35 487.46h14.88v3.52h-14.88z"/><path d="m1235.7 476.1h3.52v14.88h-3.52z"/><path d="m1224.35 483.54h3.52v7.44h-3.52z"/><path d="m1229.55 476.1h3.52v7.44h-3.52z"/><path d="m1224.35 481.19h8.73v3.52h-8.73z"/><path d="m1224.35 476.1h8.73v3.52h-8.73z"/><path d="m1235.7 476.1h6.15v3.52h-6.15z"/><path d="m1206.85 487.46h14.88v3.52h-14.88z"/><path d="m1218.2 476.1h3.52v14.88h-3.52z"/><path d="m1206.85 483.54h3.52v7.44h-3.52z"/><path d="m1212.06 476.1h3.52v7.44h-3.52z"/><path d="m1206.85 481.19h8.73v3.52h-8.73z"/><path d="m1206.85 476.1h8.73v3.52h-8.73z"/><path d="m1218.2 476.1h6.15v3.52h-6.15z"/><path d="m1189.35 487.46h14.88v3.52h-14.88z"/><path d="m1200.7 476.1h3.52v14.88h-3.52z"/><path d="m1189.35 483.54h3.52v7.44h-3.52z"/><path d="m1194.56 476.1h3.52v7.44h-3.52z"/><path d="m1189.35 481.19h8.73v3.52h-8.73z"/><path d="m1189.35 476.1h8.73v3.52h-8.73z"/><path d="m1200.7 476.1h6.15v3.52h-6.15z"/><path d="m1171.85 487.46h14.88v3.52h-14.88z"/><path d="m1183.2 476.1h3.52v14.88h-3.52z"/><path d="m1171.85 483.54h3.52v7.44h-3.52z"/><path d="m1177.06 476.1h3.52v7.44h-3.52z"/><path d="m1171.85 481.19h8.73v3.52h-8.73z"/><path d="m1171.85 476.1h8.73v3.52h-8.73z"/><path d="m1183.2 476.1h6.15v3.52h-6.15z"/><path d="m1154.35 487.46h14.88v3.52h-14.88z"/><path d="m1165.71 476.1h3.52v14.88h-3.52z"/><path d="m1154.35 483.54h3.52v7.44h-3.52z"/><path d="m1159.56 476.1h3.52v7.44h-3.52z"/><path d="m1154.35 481.19h8.73v3.52h-8.73z"/><path d="m1154.35 476.1h8.73v3.52h-8.73z"/><path d="m1165.71 476.1h6.15v3.52h-6.15z"/><path d="m1136.85 487.46h14.88v3.52h-14.88z"/><path d="m1148.21 476.1h3.52v14.88h-3.52z"/><path d="m1136.85 483.54h3.52v7.44h-3.52z"/><path d="m1142.06 476.1h3.52v7.44h-3.52z"/><path d="m1136.85 481.19h8.73v3.52h-8.73z"/><path d="m1136.85 476.1h8.73v3.52h-8.73z"/><path d="m1148.21 476.1h6.15v3.52h-6.15z"/><path d="m1119.36 487.46h14.88v3.52h-14.88z"/><path d="m1130.71 476.1h3.52v14.88h-3.52z"/><path d="m1119.36 483.54h3.52v7.44h-3.52z"/><path d="m1124.56 476.1h3.52v7.44h-3.52z"/><path d="m1119.36 481.19h8.73v3.52h-8.73z"/><path d="m1119.36 476.1h8.73v3.52h-8.73z"/><path d="m1130.71 476.1h6.15v3.52h-6.15z"/><path d="m1101.86 487.46h14.88v3.52h-14.88z"/><path d="m1113.21 476.1h3.52v14.88h-3.52z"/><path d="m1101.86 483.54h3.52v7.44h-3.52z"/><path d="m1107.06 476.1h3.52v7.44h-3.52z"/><path d="m1101.86 481.19h8.73v3.52h-8.73z"/><path d="m1101.86 476.1h8.73v3.52h-8.73z"/><path d="m1113.21 476.1h6.15v3.52h-6.15z"/><path d="m1084.36 487.46h14.88v3.52h-14.88z"/><path d="m1095.71 476.1h3.52v14.88h-3.52z"/><path d="m1084.36 483.54h3.52v7.44h-3.52z"/><path d="m1089.57 476.1h3.52v7.44h-3.52z"/><path d="m1084.36 481.19h8.73v3.52h-8.73z"/><path d="m1084.36 476.1h8.73v3.52h-8.73z"/><path d="m1095.71 476.1h6.15v3.52h-6.15z"/><path d="m1066.86 487.46h14.88v3.52h-14.88z"/><path d="m1078.21 476.1h3.52v14.88h-3.52z"/><path d="m1066.86 483.54h3.52v7.44h-3.52z"/><path d="m1072.07 476.1h3.52v7.44h-3.52z"/><path d="m1066.86 481.19h8.73v3.52h-8.73z"/><path d="m1066.86 476.1h8.73v3.52h-8.73z"/><path d="m1078.21 476.1h6.15v3.52h-6.15z"/><path d="m1049.36 487.46h14.88v3.52h-14.88z"/><path d="m1060.71 476.1h3.52v14.88h-3.52z"/><path d="m1049.36 483.54h3.52v7.44h-3.52z"/><path d="m1054.57 476.1h3.52v7.44h-3.52z"/><path d="m1049.36 481.19h8.73v3.52h-8.73z"/><path d="m1049.36 476.1h8.73v3.52h-8.73z"/><path d="m1060.71 476.1h6.15v3.52h-6.15z"/><path d="m1031.86 487.46h14.88v3.52h-14.88z"/><path d="m1043.22 476.1h3.52v14.88h-3.52z"/><path d="m1031.86 483.54h3.52v7.44h-3.52z"/><path d="m1037.07 476.1h3.52v7.44h-3.52z"/><path d="m1031.86 481.19h8.73v3.52h-8.73z"/><path d="m1031.86 476.1h8.73v3.52h-8.73z"/><path d="m1043.22 476.1h6.15v3.52h-6.15z"/><path d="m1014.36 487.46h14.88v3.52h-14.88z"/><path d="m1025.72 476.1h3.52v14.88h-3.52z"/><path d="m1014.36 483.54h3.52v7.44h-3.52z"/><path d="m1019.57 476.1h3.52v7.44h-3.52z"/><path d="m1014.36 481.19h8.73v3.52h-8.73z"/><path d="m1014.36 476.1h8.73v3.52h-8.73z"/><path d="m1025.72 476.1h6.15v3.52h-6.15z"/><path d="m996.87 487.46h14.88v3.52h-14.88z"/><path d="m1008.22 476.1h3.52v14.88h-3.52z"/><path d="m996.87 483.54h3.52v7.44h-3.52z"/><path d="m1002.07 476.1h3.52v7.44h-3.52z"/><path d="m996.87 481.19h8.73v3.52h-8.73z"/><path d="m996.87 476.1h8.73v3.52h-8.73z"/><path d="m1008.22 476.1h6.15v3.52h-6.15z"/><path d="m979.37 487.46h14.88v3.52h-14.88z"/><path d="m990.72 476.1h3.52v14.88h-3.52z"/><path d="m979.37 483.54h3.52v7.44h-3.52z"/><path d="m984.58 476.1h3.52v7.44h-3.52z"/><path d="m979.37 481.19h8.73v3.52h-8.73z"/><path d="m979.37 476.1h8.73v3.52h-8.73z"/><path d="m990.72 476.1h6.15v3.52h-6.15z"/><path d="m961.87 487.46h14.88v3.52h-14.88z"/><path d="m973.22 476.1h3.52v14.88h-3.52z"/><path d="m961.87 483.54h3.52v7.44h-3.52z"/><path d="m967.08 476.1h3.52v7.44h-3.52z"/><path d="m961.87 481.19h8.73v3.52h-8.73z"/><path d="m961.87 476.1h8.73v3.52h-8.73z"/><path d="m973.22 476.1h6.15v3.52h-6.15z"/><path d="m944.37 487.46h14.88v3.52h-14.88z"/><path d="m955.72 476.1h3.52v14.88h-3.52z"/><path d="m944.37 483.54h3.52v7.44h-3.52z"/><path d="m949.58 476.1h3.52v7.44h-3.52z"/><path d="m944.37 481.19h8.73v3.52h-8.73z"/><path d="m944.37 476.1h8.73v3.52h-8.73z"/><path d="m955.72 476.1h6.15v3.52h-6.15z"/><path d="m926.87 487.46h14.88v3.52h-14.88z"/><path d="m938.23 476.1h3.52v14.88h-3.52z"/><path d="m926.87 483.54h3.52v7.44h-3.52z"/><path d="m932.08 476.1h3.52v7.44h-3.52z"/><path d="m926.87 481.19h8.73v3.52h-8.73z"/><path d="m926.87 476.1h8.73v3.52h-8.73z"/><path d="m938.23 476.1h6.15v3.52h-6.15z"/><path d="m909.37 487.46h14.88v3.52h-14.88z"/><path d="m920.73 476.1h3.52v14.88h-3.52z"/><path d="m909.37 483.54h3.52v7.44h-3.52z"/><path d="m914.58 476.1h3.52v7.44h-3.52z"/><path d="m909.37 481.19h8.73v3.52h-8.73z"/><path d="m909.37 476.1h8.73v3.52h-8.73z"/><path d="m920.73 476.1h6.15v3.52h-6.15z"/><path d="m891.88 487.46h14.88v3.52h-14.88z"/><path d="m903.23 476.1h3.52v14.88h-3.52z"/><path d="m891.88 483.54h3.52v7.44h-3.52z"/><path d="m897.08 476.1h3.52v7.44h-3.52z"/><path d="m891.88 481.19h8.73v3.52h-8.73z"/><path d="m891.88 476.1h8.73v3.52h-8.73z"/><path d="m903.23 476.1h6.15v3.52h-6.15z"/><path d="m874.38 487.46h14.88v3.52h-14.88z"/><path d="m885.73 476.1h3.52v14.88h-3.52z"/><path d="m874.38 483.54h3.52v7.44h-3.52z"/><path d="m879.58 476.1h3.52v7.44h-3.52z"/><path d="m874.38 481.19h8.73v3.52h-8.73z"/><path d="m874.38 476.1h8.73v3.52h-8.73z"/><path d="m885.73 476.1h6.15v3.52h-6.15z"/><path d="m856.88 487.46h14.88v3.52h-14.88z"/><path d="m868.23 476.1h3.52v14.88h-3.52z"/><path d="m856.88 483.54h3.52v7.44h-3.52z"/><path d="m862.09 476.1h3.52v7.44h-3.52z"/><path d="m856.88 481.19h8.73v3.52h-8.73z"/><path d="m856.88 476.1h8.73v3.52h-8.73z"/><path d="m868.23 476.1h6.15v3.52h-6.15z"/><path d="m839.38 487.46h14.88v3.52h-14.88z"/><path d="m850.73 476.1h3.52v14.88h-3.52z"/><path d="m839.38 483.54h3.52v7.44h-3.52z"/><path d="m844.59 476.1h3.52v7.44h-3.52z"/><path d="m839.38 481.19h8.73v3.52h-8.73z"/><path d="m839.38 476.1h8.73v3.52h-8.73z"/><path d="m850.73 476.1h6.15v3.52h-6.15z"/><path d="m821.88 487.46h14.88v3.52h-14.88z"/><path d="m833.24 476.1h3.52v14.88h-3.52z"/><path d="m821.88 483.54h3.52v7.44h-3.52z"/><path d="m827.09 476.1h3.52v7.44h-3.52z"/><path d="m821.88 481.19h8.73v3.52h-8.73z"/><path d="m821.88 476.1h8.73v3.52h-8.73z"/><path d="m833.24 476.1h6.15v3.52h-6.15z"/><path d="m804.38 487.46h14.88v3.52h-14.88z"/><path d="m815.74 476.1h3.52v14.88h-3.52z"/><path d="m804.38 483.54h3.52v7.44h-3.52z"/><path d="m809.59 476.1h3.52v7.44h-3.52z"/><path d="m804.38 481.19h8.73v3.52h-8.73z"/><path d="m804.38 476.1h8.73v3.52h-8.73z"/><path d="m815.74 476.1h6.15v3.52h-6.15z"/><path d="m786.89 487.46h14.88v3.52h-14.88z"/><path d="m798.24 476.1h3.52v14.88h-3.52z"/><path d="m786.89 483.54h3.52v7.44h-3.52z"/><path d="m792.09 476.1h3.52v7.44h-3.52z"/><path d="m786.89 481.19h8.73v3.52h-8.73z"/><path d="m786.89 476.1h8.73v3.52h-8.73z"/><path d="m798.24 476.1h6.15v3.52h-6.15z"/><path d="m769.39 487.46h14.88v3.52h-14.88z"/><path d="m780.74 476.1h3.52v14.88h-3.52z"/><path d="m769.39 483.54h3.52v7.44h-3.52z"/><path d="m774.59 476.1h3.52v7.44h-3.52z"/><path d="m769.39 481.19h8.73v3.52h-8.73z"/><path d="m769.39 476.1h8.73v3.52h-8.73z"/><path d="m780.74 476.1h6.15v3.52h-6.15z"/><path d="m751.89 487.46h14.88v3.52h-14.88z"/><path d="m763.24 476.1h3.52v14.88h-3.52z"/><path d="m751.89 483.54h3.52v7.44h-3.52z"/><path d="m757.1 476.1h3.52v7.44h-3.52z"/><path d="m751.89 481.19h8.73v3.52h-8.73z"/><path d="m751.89 476.1h8.73v3.52h-8.73z"/><path d="m763.24 476.1h6.15v3.52h-6.15z"/><path d="m734.39 487.46h14.88v3.52h-14.88z"/><path d="m745.74 476.1h3.52v14.88h-3.52z"/><path d="m734.39 483.54h3.52v7.44h-3.52z"/><path d="m739.6 476.1h3.52v7.44h-3.52z"/><path d="m734.39 481.19h8.73v3.52h-8.73z"/><path d="m734.39 476.1h8.73v3.52h-8.73z"/><path d="m745.74 476.1h6.15v3.52h-6.15z"/><path d="m716.89 487.46h14.88v3.52h-14.88z"/><path d="m728.24 476.1h3.52v14.88h-3.52z"/><path d="m716.89 483.54h3.52v7.44h-3.52z"/><path d="m722.1 476.1h3.52v7.44h-3.52z"/><path d="m716.89 481.19h8.73v3.52h-8.73z"/><path d="m716.89 476.1h8.73v3.52h-8.73z"/><path d="m728.24 476.1h6.15v3.52h-6.15z"/><path d="m699.39 487.46h14.88v3.52h-14.88z"/><path d="m710.75 476.1h3.52v14.88h-3.52z"/><path d="m699.39 483.54h3.52v7.44h-3.52z"/><path d="m704.6 476.1h3.52v7.44h-3.52z"/><path d="m699.39 481.19h8.73v3.52h-8.73z"/><path d="m699.39 476.1h8.73v3.52h-8.73z"/><path d="m710.75 476.1h6.15v3.52h-6.15z"/><path d="m681.89 487.46h14.88v3.52h-14.88z"/><path d="m693.25 476.1h3.52v14.88h-3.52z"/><path d="m681.89 483.54h3.52v7.44h-3.52z"/><path d="m687.1 476.1h3.52v7.44h-3.52z"/><path d="m681.89 481.19h8.73v3.52h-8.73z"/><path d="m681.89 476.1h8.73v3.52h-8.73z"/><path d="m693.25 476.1h6.15v3.52h-6.15z"/><path d="m664.4 487.46h14.88v3.52h-14.88z"/><path d="m675.75 476.1h3.52v14.88h-3.52z"/><path d="m664.4 483.54h3.52v7.44h-3.52z"/><path d="m669.6 476.1h3.52v7.44h-3.52z"/><path d="m664.4 481.19h8.73v3.52h-8.73z"/><path d="m664.4 476.1h8.73v3.52h-8.73z"/><path d="m675.75 476.1h6.15v3.52h-6.15z"/><path d="m646.9 487.46h14.88v3.52h-14.88z"/><path d="m658.25 476.1h3.52v14.88h-3.52z"/><path d="m646.9 483.54h3.52v7.44h-3.52z"/><path d="m652.11 476.1h3.52v7.44h-3.52z"/><path d="m646.9 481.19h8.73v3.52h-8.73z"/><path d="m646.9 476.1h8.73v3.52h-8.73z"/><path d="m658.25 476.1h6.15v3.52h-6.15z"/><path d="m629.4 487.46h14.88v3.52h-14.88z"/><path d="m640.75 476.1h3.52v14.88h-3.52z"/><path d="m629.4 483.54h3.52v7.44h-3.52z"/><path d="m634.61 476.1h3.52v7.44h-3.52z"/><path d="m629.4 481.19h8.73v3.52h-8.73z"/><path d="m629.4 476.1h8.73v3.52h-8.73z"/><path d="m640.75 476.1h6.15v3.52h-6.15z"/><path d="m611.9 487.46h14.88v3.52h-14.88z"/><path d="m623.25 476.1h3.52v14.88h-3.52z"/><path d="m611.9 483.54h3.52v7.44h-3.52z"/><path d="m617.11 476.1h3.52v7.44h-3.52z"/><path d="m611.9 481.19h8.73v3.52h-8.73z"/><path d="m611.9 476.1h8.73v3.52h-8.73z"/><path d="m623.25 476.1h6.15v3.52h-6.15z"/><path d="m594.4 487.46h14.88v3.52h-14.88z"/><path d="m605.76 476.1h3.52v14.88h-3.52z"/><path d="m594.4 483.54h3.52v7.44h-3.52z"/><path d="m599.61 476.1h3.52v7.44h-3.52z"/><path d="m594.4 481.19h8.73v3.52h-8.73z"/><path d="m594.4 476.1h8.73v3.52h-8.73z"/><path d="m605.76 476.1h6.15v3.52h-6.15z"/><path d="m576.9 487.46h14.88v3.52h-14.88z"/><path d="m588.26 476.1h3.52v14.88h-3.52z"/><path d="m576.9 483.54h3.52v7.44h-3.52z"/><path d="m582.11 476.1h3.52v7.44h-3.52z"/><path d="m576.9 481.19h8.73v3.52h-8.73z"/><path d="m576.9 476.1h8.73v3.52h-8.73z"/><path d="m588.26 476.1h6.15v3.52h-6.15z"/><path d="m559.41 487.46h14.88v3.52h-14.88z"/><path d="m570.76 476.1h3.52v14.88h-3.52z"/><path d="m559.41 483.54h3.52v7.44h-3.52z"/><path d="m564.61 476.1h3.52v7.44h-3.52z"/><path d="m559.41 481.19h8.73v3.52h-8.73z"/><path d="m559.41 476.1h8.73v3.52h-8.73z"/><path d="m570.76 476.1h6.15v3.52h-6.15z"/><path d="m541.91 487.46h14.88v3.52h-14.88z"/><path d="m553.26 476.1h3.52v14.88h-3.52z"/><path d="m541.91 483.54h3.52v7.44h-3.52z"/><path d="m547.11 476.1h3.52v7.44h-3.52z"/><path d="m541.91 481.19h8.73v3.52h-8.73z"/><path d="m541.91 476.1h8.73v3.52h-8.73z"/><path d="m553.26 476.1h6.15v3.52h-6.15z"/><path d="m525.72 457.29h3.52v14.88h-3.52z"/><path d="m525.72 468.65h14.88v3.52h-14.88z"/><path d="m525.72 457.29h7.44v3.52h-7.44z"/><path d="m533.16 462.5h7.44v3.52h-7.44z"/><path d="m531.98 457.29h3.52v8.73h-3.52z"/><path d="m537.07 457.29h3.52v8.73h-3.52z"/><path d="m537.07 468.65h3.52v6.15h-3.52z"/><path d="m525.72 439.8h3.52v14.88h-3.52z"/><path d="m525.72 451.15h14.88v3.52h-14.88z"/><path d="m525.72 439.8h7.44v3.52h-7.44z"/><path d="m533.16 445h7.44v3.52h-7.44z"/><path d="m531.98 439.8h3.52v8.73h-3.52z"/><path d="m537.07 439.8h3.52v8.73h-3.52z"/><path d="m537.07 451.15h3.52v6.15h-3.52z"/><path d="m525.72 422.3h3.52v14.88h-3.52z"/><path d="m525.72 433.65h14.88v3.52h-14.88z"/><path d="m525.72 422.3h7.44v3.52h-7.44z"/><path d="m533.16 427.5h7.44v3.52h-7.44z"/><path d="m531.98 422.3h3.52v8.73h-3.52z"/><path d="m537.07 422.3h3.52v8.73h-3.52z"/><path d="m537.07 433.65h3.52v6.15h-3.52z"/><path d="m525.72 404.8h3.52v14.88h-3.52z"/><path d="m525.72 416.15h14.88v3.52h-14.88z"/><path d="m525.72 404.8h7.44v3.52h-7.44z"/><path d="m533.16 410.01h7.44v3.52h-7.44z"/><path d="m531.98 404.8h3.52v8.73h-3.52z"/><path d="m537.07 404.8h3.52v8.73h-3.52z"/><path d="m537.07 416.15h3.52v6.15h-3.52z"/><path d="m525.72 387.3h3.52v14.88h-3.52z"/><path d="m525.72 398.65h14.88v3.52h-14.88z"/><path d="m525.72 387.3h7.44v3.52h-7.44z"/><path d="m533.16 392.51h7.44v3.52h-7.44z"/><path d="m531.98 387.3h3.52v8.73h-3.52z"/><path d="m537.07 387.3h3.52v8.73h-3.52z"/><path d="m537.07 398.65h3.52v6.15h-3.52z"/><path d="m525.72 369.8h3.52v14.88h-3.52z"/><path d="m525.72 381.15h14.88v3.52h-14.88z"/><path d="m525.72 369.8h7.44v3.52h-7.44z"/><path d="m533.16 375.01h7.44v3.52h-7.44z"/><path d="m531.98 369.8h3.52v8.73h-3.52z"/><path d="m537.07 369.8h3.52v8.73h-3.52z"/><path d="m537.07 381.15h3.52v6.15h-3.52z"/><path d="m525.72 352.3h3.52v14.88h-3.52z"/><path d="m525.72 363.66h14.88v3.52h-14.88z"/><path d="m525.72 352.3h7.44v3.52h-7.44z"/><path d="m533.16 357.51h7.44v3.52h-7.44z"/><path d="m531.98 352.3h3.52v8.73h-3.52z"/><path d="m537.07 352.3h3.52v8.73h-3.52z"/><path d="m537.07 363.66h3.52v6.15h-3.52z"/><path d="m525.72 334.8h3.52v14.88h-3.52z"/><path d="m525.72 346.16h14.88v3.52h-14.88z"/><path d="m525.72 334.8h7.44v3.52h-7.44z"/><path d="m533.16 340.01h7.44v3.52h-7.44z"/><path d="m531.98 334.8h3.52v8.73h-3.52z"/><path d="m537.07 334.8h3.52v8.73h-3.52z"/><path d="m537.07 346.16h3.52v6.15h-3.52z"/><path d="m525.72 317.31h3.52v14.88h-3.52z"/><path d="m525.72 328.66h14.88v3.52h-14.88z"/><path d="m525.72 317.31h7.44v3.52h-7.44z"/><path d="m533.16 322.51h7.44v3.52h-7.44z"/><path d="m531.98 317.31h3.52v8.73h-3.52z"/><path d="m537.07 317.31h3.52v8.73h-3.52z"/><path d="m537.07 328.66h3.52v6.15h-3.52z"/><path d="m525.72 299.81h3.52v14.88h-3.52z"/><path d="m525.72 311.16h14.88v3.52h-14.88z"/><path d="m525.72 299.81h7.44v3.52h-7.44z"/><path d="m533.16 305.02h7.44v3.52h-7.44z"/><path d="m531.98 299.81h3.52v8.73h-3.52z"/><path d="m537.07 299.81h3.52v8.73h-3.52z"/><path d="m537.07 311.16h3.52v6.15h-3.52z"/><path d="m525.72 282.31h3.52v14.88h-3.52z"/><path d="m525.72 293.66h14.88v3.52h-14.88z"/><path d="m525.72 282.31h7.44v3.52h-7.44z"/><path d="m533.16 287.52h7.44v3.52h-7.44z"/><path d="m531.98 282.31h3.52v8.73h-3.52z"/><path d="m537.07 282.31h3.52v8.73h-3.52z"/><path d="m537.07 293.66h3.52v6.15h-3.52z"/><path d="m525.72 264.81h3.52v14.88h-3.52z"/><path d="m525.72 276.16h14.88v3.52h-14.88z"/><path d="m525.72 264.81h7.44v3.52h-7.44z"/><path d="m533.16 270.02h7.44v3.52h-7.44z"/><path d="m531.98 264.81h3.52v8.73h-3.52z"/><path d="m537.07 264.81h3.52v8.73h-3.52z"/><path d="m537.07 276.16h3.52v6.15h-3.52z"/><path d="m525.72 247.31h3.52v14.88h-3.52z"/><path d="m525.72 258.67h14.88v3.52h-14.88z"/><path d="m525.72 247.31h7.44v3.52h-7.44z"/><path d="m533.16 252.52h7.44v3.52h-7.44z"/><path d="m531.98 247.31h3.52v8.73h-3.52z"/><path d="m537.07 247.31h3.52v8.73h-3.52z"/><path d="m537.07 258.67h3.52v6.15h-3.52z"/><path d="m525.72 229.81h3.52v14.88h-3.52z"/><path d="m525.72 241.17h14.88v3.52h-14.88z"/><path d="m525.72 229.81h7.44v3.52h-7.44z"/><path d="m533.16 235.02h7.44v3.52h-7.44z"/><path d="m531.98 229.81h3.52v8.73h-3.52z"/><path d="m537.07 229.81h3.52v8.73h-3.52z"/><path d="m537.07 241.17h3.52v6.15h-3.52z"/><path d="m525.72 212.32h3.52v14.88h-3.52z"/><path d="m525.72 223.67h14.88v3.52h-14.88z"/><path d="m525.72 212.32h7.44v3.52h-7.44z"/><path d="m533.16 217.52h7.44v3.52h-7.44z"/><path d="m531.98 212.32h3.52v8.73h-3.52z"/><path d="m537.07 212.32h3.52v8.73h-3.52z"/><path d="m537.07 223.67h3.52v6.15h-3.52z"/><path d="m525.72 194.82h3.52v14.88h-3.52z"/><path d="m525.72 206.17h14.88v3.52h-14.88z"/><path d="m525.72 194.82h7.44v3.52h-7.44z"/><path d="m533.16 200.02h7.44v3.52h-7.44z"/><path d="m531.98 194.82h3.52v8.73h-3.52z"/><path d="m537.07 194.82h3.52v8.73h-3.52z"/><path d="m537.07 206.17h3.52v6.15h-3.52z"/><path d="m525.72 177.32h3.52v14.88h-3.52z"/><path d="m525.72 188.67h14.88v3.52h-14.88z"/><path d="m525.72 177.32h7.44v3.52h-7.44z"/><path d="m533.16 182.53h7.44v3.52h-7.44z"/><path d="m531.98 177.32h3.52v8.73h-3.52z"/><path d="m537.07 177.32h3.52v8.73h-3.52z"/><path d="m537.07 188.67h3.52v6.15h-3.52z"/><path d="m525.72 159.82h3.52v14.88h-3.52z"/><path d="m525.72 171.17h14.88v3.52h-14.88z"/><path d="m525.72 159.82h7.44v3.52h-7.44z"/><path d="m533.16 165.03h7.44v3.52h-7.44z"/><path d="m531.98 159.82h3.52v8.73h-3.52z"/><path d="m537.07 159.82h3.52v8.73h-3.52z"/><path d="m537.07 171.17h3.52v6.15h-3.52z"/><path d="m525.72 142.32h3.52v14.88h-3.52z"/><path d="m525.72 153.67h14.88v3.52h-14.88z"/><path d="m525.72 142.32h7.44v3.52h-7.44z"/><path d="m533.16 147.53h7.44v3.52h-7.44z"/><path d="m531.98 142.32h3.52v8.73h-3.52z"/><path d="m537.07 142.32h3.52v8.73h-3.52z"/><path d="m537.07 153.67h3.52v6.15h-3.52z"/><path d="m525.72 124.82h3.52v14.88h-3.52z"/><path d="m525.72 136.18h14.88v3.52h-14.88z"/><path d="m525.72 124.82h7.44v3.52h-7.44z"/><path d="m533.16 130.03h7.44v3.52h-7.44z"/><path d="m531.98 124.82h3.52v8.73h-3.52z"/><path d="m537.07 124.82h3.52v8.73h-3.52z"/><path d="m537.07 136.18h3.52v6.15h-3.52z"/><path d="m525.72 107.33h3.52v14.88h-3.52z"/><path d="m525.72 118.68h14.88v3.52h-14.88z"/><path d="m525.72 107.33h7.44v3.52h-7.44z"/><path d="m533.16 112.53h7.44v3.52h-7.44z"/><path d="m531.98 107.33h3.52v8.73h-3.52z"/><path d="m537.07 107.33h3.52v8.73h-3.52z"/><path d="m537.07 118.68h3.52v6.15h-3.52z"/><path d="m544.53 91.14h14.88v3.52h-14.88z"/><path d="m544.53 91.14h3.52v14.88h-3.52z"/><path d="m555.88 91.14h3.52v7.44h-3.52z"/><path d="m550.67 98.58h3.52v7.44h-3.52z"/><path d="m550.67 97.4h8.73v3.52h-8.73z"/><path d="m550.67 102.49h8.73v3.52h-8.73z"/><path d="m541.91 102.49h6.15v3.52h-6.15z"/><path d="m562.03 91.14h14.88v3.52h-14.88z"/><path d="m562.03 91.14h3.52v14.88h-3.52z"/><path d="m573.38 91.14h3.52v7.44h-3.52z"/><path d="m568.17 98.58h3.52v7.44h-3.52z"/><path d="m568.17 97.4h8.73v3.52h-8.73z"/><path d="m568.17 102.49h8.73v3.52h-8.73z"/><path d="m559.41 102.49h6.15v3.52h-6.15z"/><path d="m579.53 91.14h14.88v3.52h-14.88z"/><path d="m579.53 91.14h3.52v14.88h-3.52z"/><path d="m590.88 91.14h3.52v7.44h-3.52z"/><path d="m585.67 98.58h3.52v7.44h-3.52z"/><path d="m585.67 97.4h8.73v3.52h-8.73z"/><path d="m585.67 102.49h8.73v3.52h-8.73z"/><path d="m576.9 102.49h6.15v3.52h-6.15z"/><path d="m597.02 91.14h14.88v3.52h-14.88z"/><path d="m597.02 91.14h3.52v14.88h-3.52z"/><path d="m608.38 91.14h3.52v7.44h-3.52z"/><path d="m603.17 98.58h3.52v7.44h-3.52z"/><path d="m603.17 97.4h8.73v3.52h-8.73z"/><path d="m603.17 102.49h8.73v3.52h-8.73z"/><path d="m594.4 102.49h6.15v3.52h-6.15z"/><path d="m614.52 91.14h14.88v3.52h-14.88z"/><path d="m614.52 91.14h3.52v14.88h-3.52z"/><path d="m625.88 91.14h3.52v7.44h-3.52z"/><path d="m620.67 98.58h3.52v7.44h-3.52z"/><path d="m620.67 97.4h8.73v3.52h-8.73z"/><path d="m620.67 102.49h8.73v3.52h-8.73z"/><path d="m611.9 102.49h6.15v3.52h-6.15z"/><path d="m632.02 91.14h14.88v3.52h-14.88z"/><path d="m632.02 91.14h3.52v14.88h-3.52z"/><path d="m643.37 91.14h3.52v7.44h-3.52z"/><path d="m638.17 98.58h3.52v7.44h-3.52z"/><path d="m638.17 97.4h8.73v3.52h-8.73z"/><path d="m638.17 102.49h8.73v3.52h-8.73z"/><path d="m629.4 102.49h6.15v3.52h-6.15z"/><path d="m649.52 91.14h14.88v3.52h-14.88z"/><path d="m649.52 91.14h3.52v14.88h-3.52z"/><path d="m660.87 91.14h3.52v7.44h-3.52z"/><path d="m655.67 98.58h3.52v7.44h-3.52z"/><path d="m655.67 97.4h8.73v3.52h-8.73z"/><path d="m655.67 102.49h8.73v3.52h-8.73z"/><path d="m646.9 102.49h6.15v3.52h-6.15z"/><path d="m667.02 91.14h14.88v3.52h-14.88z"/><path d="m667.02 91.14h3.52v14.88h-3.52z"/><path d="m678.37 91.14h3.52v7.44h-3.52z"/><path d="m673.16 98.58h3.52v7.44h-3.52z"/><path d="m673.16 97.4h8.73v3.52h-8.73z"/><path d="m673.16 102.49h8.73v3.52h-8.73z"/><path d="m664.4 102.49h6.15v3.52h-6.15z"/><path d="m684.52 91.14h14.88v3.52h-14.88z"/><path d="m684.52 91.14h3.52v14.88h-3.52z"/><path d="m695.87 91.14h3.52v7.44h-3.52z"/><path d="m690.66 98.58h3.52v7.44h-3.52z"/><path d="m690.66 97.4h8.73v3.52h-8.73z"/><path d="m690.66 102.49h8.73v3.52h-8.73z"/><path d="m681.89 102.49h6.15v3.52h-6.15z"/><path d="m702.02 91.14h14.88v3.52h-14.88z"/><path d="m702.02 91.14h3.52v14.88h-3.52z"/><path d="m713.37 91.14h3.52v7.44h-3.52z"/><path d="m708.16 98.58h3.52v7.44h-3.52z"/><path d="m708.16 97.4h8.73v3.52h-8.73z"/><path d="m708.16 102.49h8.73v3.52h-8.73z"/><path d="m699.39 102.49h6.15v3.52h-6.15z"/><path d="m719.51 91.14h14.88v3.52h-14.88z"/><path d="m719.51 91.14h3.52v14.88h-3.52z"/><path d="m730.87 91.14h3.52v7.44h-3.52z"/><path d="m725.66 98.58h3.52v7.44h-3.52z"/><path d="m725.66 97.4h8.73v3.52h-8.73z"/><path d="m725.66 102.49h8.73v3.52h-8.73z"/><path d="m716.89 102.49h6.15v3.52h-6.15z"/><path d="m737.01 91.14h14.88v3.52h-14.88z"/><path d="m737.01 91.14h3.52v14.88h-3.52z"/><path d="m748.36 91.14h3.52v7.44h-3.52z"/><path d="m743.16 98.58h3.52v7.44h-3.52z"/><path d="m743.16 97.4h8.73v3.52h-8.73z"/><path d="m743.16 102.49h8.73v3.52h-8.73z"/><path d="m734.39 102.49h6.15v3.52h-6.15z"/><path d="m754.51 91.14h14.88v3.52h-14.88z"/><path d="m754.51 91.14h3.52v14.88h-3.52z"/><path d="m765.86 91.14h3.52v7.44h-3.52z"/><path d="m760.66 98.58h3.52v7.44h-3.52z"/><path d="m760.66 97.4h8.73v3.52h-8.73z"/><path d="m760.66 102.49h8.73v3.52h-8.73z"/><path d="m751.89 102.49h6.15v3.52h-6.15z"/><path d="m772.01 91.14h14.88v3.52h-14.88z"/><path d="m772.01 91.14h3.52v14.88h-3.52z"/><path d="m783.36 91.14h3.52v7.44h-3.52z"/><path d="m778.15 98.58h3.52v7.44h-3.52z"/><path d="m778.15 97.4h8.73v3.52h-8.73z"/><path d="m778.15 102.49h8.73v3.52h-8.73z"/><path d="m769.39 102.49h6.15v3.52h-6.15z"/><path d="m789.51 91.14h14.88v3.52h-14.88z"/><path d="m789.51 91.14h3.52v14.88h-3.52z"/><path d="m800.86 91.14h3.52v7.44h-3.52z"/><path d="m795.65 98.58h3.52v7.44h-3.52z"/><path d="m795.65 97.4h8.73v3.52h-8.73z"/><path d="m795.65 102.49h8.73v3.52h-8.73z"/><path d="m786.89 102.49h6.15v3.52h-6.15z"/><path d="m807.01 91.14h14.88v3.52h-14.88z"/><path d="m807.01 91.14h3.52v14.88h-3.52z"/><path d="m818.36 91.14h3.52v7.44h-3.52z"/><path d="m813.15 98.58h3.52v7.44h-3.52z"/><path d="m813.15 97.4h8.73v3.52h-8.73z"/><path d="m813.15 102.49h8.73v3.52h-8.73z"/><path d="m804.38 102.49h6.15v3.52h-6.15z"/><path d="m824.5 91.14h14.88v3.52h-14.88z"/><path d="m824.5 91.14h3.52v14.88h-3.52z"/><path d="m835.86 91.14h3.52v7.44h-3.52z"/><path d="m830.65 98.58h3.52v7.44h-3.52z"/><path d="m830.65 97.4h8.73v3.52h-8.73z"/><path d="m830.65 102.49h8.73v3.52h-8.73z"/><path d="m821.88 102.49h6.15v3.52h-6.15z"/><path d="m842 91.14h14.88v3.52h-14.88z"/><path d="m842 91.14h3.52v14.88h-3.52z"/><path d="m853.36 91.14h3.52v7.44h-3.52z"/><path d="m848.15 98.58h3.52v7.44h-3.52z"/><path d="m848.15 97.4h8.73v3.52h-8.73z"/><path d="m848.15 102.49h8.73v3.52h-8.73z"/><path d="m839.38 102.49h6.15v3.52h-6.15z"/><path d="m859.5 91.14h14.88v3.52h-14.88z"/><path d="m859.5 91.14h3.52v14.88h-3.52z"/><path d="m870.85 91.14h3.52v7.44h-3.52z"/><path d="m865.65 98.58h3.52v7.44h-3.52z"/><path d="m865.65 97.4h8.73v3.52h-8.73z"/><path d="m865.65 102.49h8.73v3.52h-8.73z"/><path d="m856.88 102.49h6.15v3.52h-6.15z"/><path d="m877 91.14h14.88v3.52h-14.88z"/><path d="m877 91.14h3.52v14.88h-3.52z"/><path d="m888.35 91.14h3.52v7.44h-3.52z"/><path d="m883.14 98.58h3.52v7.44h-3.52z"/><path d="m883.14 97.4h8.73v3.52h-8.73z"/><path d="m883.14 102.49h8.73v3.52h-8.73z"/><path d="m874.38 102.49h6.15v3.52h-6.15z"/><path d="m894.5 91.14h14.88v3.52h-14.88z"/><path d="m894.5 91.14h3.52v14.88h-3.52z"/><path d="m905.85 91.14h3.52v7.44h-3.52z"/><path d="m900.64 98.58h3.52v7.44h-3.52z"/><path d="m900.64 97.4h8.73v3.52h-8.73z"/><path d="m900.64 102.49h8.73v3.52h-8.73z"/><path d="m891.88 102.49h6.15v3.52h-6.15z"/><path d="m912 91.14h14.88v3.52h-14.88z"/><path d="m912 91.14h3.52v14.88h-3.52z"/><path d="m923.35 91.14h3.52v7.44h-3.52z"/><path d="m918.14 98.58h3.52v7.44h-3.52z"/><path d="m918.14 97.4h8.73v3.52h-8.73z"/><path d="m918.14 102.49h8.73v3.52h-8.73z"/><path d="m909.37 102.49h6.15v3.52h-6.15z"/><path d="m929.49 91.14h14.88v3.52h-14.88z"/><path d="m929.49 91.14h3.52v14.88h-3.52z"/><path d="m940.85 91.14h3.52v7.44h-3.52z"/><path d="m935.64 98.58h3.52v7.44h-3.52z"/><path d="m935.64 97.4h8.73v3.52h-8.73z"/><path d="m935.64 102.49h8.73v3.52h-8.73z"/><path d="m926.87 102.49h6.15v3.52h-6.15z"/><path d="m946.99 91.14h14.88v3.52h-14.88z"/><path d="m946.99 91.14h3.52v14.88h-3.52z"/><path d="m958.35 91.14h3.52v7.44h-3.52z"/><path d="m953.14 98.58h3.52v7.44h-3.52z"/><path d="m953.14 97.4h8.73v3.52h-8.73z"/><path d="m953.14 102.49h8.73v3.52h-8.73z"/><path d="m944.37 102.49h6.15v3.52h-6.15z"/><path d="m964.49 91.14h14.88v3.52h-14.88z"/><path d="m964.49 91.14h3.52v14.88h-3.52z"/><path d="m975.84 91.14h3.52v7.44h-3.52z"/><path d="m970.64 98.58h3.52v7.44h-3.52z"/><path d="m970.64 97.4h8.73v3.52h-8.73z"/><path d="m970.64 102.49h8.73v3.52h-8.73z"/><path d="m961.87 102.49h6.15v3.52h-6.15z"/><path d="m981.99 91.14h14.88v3.52h-14.88z"/><path d="m981.99 91.14h3.52v14.88h-3.52z"/><path d="m993.34 91.14h3.52v7.44h-3.52z"/><path d="m988.14 98.58h3.52v7.44h-3.52z"/><path d="m988.14 97.4h8.73v3.52h-8.73z"/><path d="m988.14 102.49h8.73v3.52h-8.73z"/><path d="m979.37 102.49h6.15v3.52h-6.15z"/><path d="m999.49 91.14h14.88v3.52h-14.88z"/><path d="m999.49 91.14h3.52v14.88h-3.52z"/><path d="m1010.84 91.14h3.52v7.44h-3.52z"/><path d="m1005.63 98.58h3.52v7.44h-3.52z"/><path d="m1005.63 97.4h8.73v3.52h-8.73z"/><path d="m1005.63 102.49h8.73v3.52h-8.73z"/><path d="m996.87 102.49h6.15v3.52h-6.15z"/><path d="m1016.99 91.14h14.88v3.52h-14.88z"/><path d="m1016.99 91.14h3.52v14.88h-3.52z"/><path d="m1028.34 91.14h3.52v7.44h-3.52z"/><path d="m1023.13 98.58h3.52v7.44h-3.52z"/><path d="m1023.13 97.4h8.73v3.52h-8.73z"/><path d="m1023.13 102.49h8.73v3.52h-8.73z"/><path d="m1014.36 102.49h6.15v3.52h-6.15z"/><path d="m1034.49 91.14h14.88v3.52h-14.88z"/><path d="m1034.49 91.14h3.52v14.88h-3.52z"/><path d="m1045.84 91.14h3.52v7.44h-3.52z"/><path d="m1040.63 98.58h3.52v7.44h-3.52z"/><path d="m1040.63 97.4h8.73v3.52h-8.73z"/><path d="m1040.63 102.49h8.73v3.52h-8.73z"/><path d="m1031.86 102.49h6.15v3.52h-6.15z"/><path d="m1051.98 91.14h14.88v3.52h-14.88z"/><path d="m1051.98 91.14h3.52v14.88h-3.52z"/><path d="m1063.34 91.14h3.52v7.44h-3.52z"/><path d="m1058.13 98.58h3.52v7.44h-3.52z"/><path d="m1058.13 97.4h8.73v3.52h-8.73z"/><path d="m1058.13 102.49h8.73v3.52h-8.73z"/><path d="m1049.36 102.49h6.15v3.52h-6.15z"/><path d="m1069.48 91.14h14.88v3.52h-14.88z"/><path d="m1069.48 91.14h3.52v14.88h-3.52z"/><path d="m1080.84 91.14h3.52v7.44h-3.52z"/><path d="m1075.63 98.58h3.52v7.44h-3.52z"/><path d="m1075.63 97.4h8.73v3.52h-8.73z"/><path d="m1075.63 102.49h8.73v3.52h-8.73z"/><path d="m1066.86 102.49h6.15v3.52h-6.15z"/><path d="m1086.98 91.14h14.88v3.52h-14.88z"/><path d="m1086.98 91.14h3.52v14.88h-3.52z"/><path d="m1098.33 91.14h3.52v7.44h-3.52z"/><path d="m1093.13 98.58h3.52v7.44h-3.52z"/><path d="m1093.13 97.4h8.73v3.52h-8.73z"/><path d="m1093.13 102.49h8.73v3.52h-8.73z"/><path d="m1084.36 102.49h6.15v3.52h-6.15z"/><path d="m1104.48 91.14h14.88v3.52h-14.88z"/><path d="m1104.48 91.14h3.52v14.88h-3.52z"/><path d="m1115.83 91.14h3.52v7.44h-3.52z"/><path d="m1110.62 98.58h3.52v7.44h-3.52z"/><path d="m1110.62 97.4h8.73v3.52h-8.73z"/><path d="m1110.62 102.49h8.73v3.52h-8.73z"/><path d="m1101.86 102.49h6.15v3.52h-6.15z"/><path d="m1121.98 91.14h14.88v3.52h-14.88z"/><path d="m1121.98 91.14h3.52v14.88h-3.52z"/><path d="m1133.33 91.14h3.52v7.44h-3.52z"/><path d="m1128.12 98.58h3.52v7.44h-3.52z"/><path d="m1128.12 97.4h8.73v3.52h-8.73z"/><path d="m1128.12 102.49h8.73v3.52h-8.73z"/><path d="m1119.36 102.49h6.15v3.52h-6.15z"/><path d="m1139.48 91.14h14.88v3.52h-14.88z"/><path d="m1139.48 91.14h3.52v14.88h-3.52z"/><path d="m1150.83 91.14h3.52v7.44h-3.52z"/><path d="m1145.62 98.58h3.52v7.44h-3.52z"/><path d="m1145.62 97.4h8.73v3.52h-8.73z"/><path d="m1145.62 102.49h8.73v3.52h-8.73z"/><path d="m1136.85 102.49h6.15v3.52h-6.15z"/><path d="m1156.97 91.14h14.88v3.52h-14.88z"/><path d="m1156.97 91.14h3.52v14.88h-3.52z"/><path d="m1168.33 91.14h3.52v7.44h-3.52z"/><path d="m1163.12 98.58h3.52v7.44h-3.52z"/><path d="m1163.12 97.4h8.73v3.52h-8.73z"/><path d="m1163.12 102.49h8.73v3.52h-8.73z"/><path d="m1154.35 102.49h6.15v3.52h-6.15z"/><path d="m1174.47 91.14h14.88v3.52h-14.88z"/><path d="m1174.47 91.14h3.52v14.88h-3.52z"/><path d="m1185.83 91.14h3.52v7.44h-3.52z"/><path d="m1180.62 98.58h3.52v7.44h-3.52z"/><path d="m1180.62 97.4h8.73v3.52h-8.73z"/><path d="m1180.62 102.49h8.73v3.52h-8.73z"/><path d="m1171.85 102.49h6.15v3.52h-6.15z"/><path d="m1191.97 91.14h14.88v3.52h-14.88z"/><path d="m1191.97 91.14h3.52v14.88h-3.52z"/><path d="m1203.32 91.14h3.52v7.44h-3.52z"/><path d="m1198.12 98.58h3.52v7.44h-3.52z"/><path d="m1198.12 97.4h8.73v3.52h-8.73z"/><path d="m1198.12 102.49h8.73v3.52h-8.73z"/><path d="m1189.35 102.49h6.15v3.52h-6.15z"/><path d="m1209.47 91.14h14.88v3.52h-14.88z"/><path d="m1209.47 91.14h3.52v14.88h-3.52z"/><path d="m1220.82 91.14h3.52v7.44h-3.52z"/><path d="m1215.62 98.58h3.52v7.44h-3.52z"/><path d="m1215.62 97.4h8.73v3.52h-8.73z"/><path d="m1215.62 102.49h8.73v3.52h-8.73z"/><path d="m1206.85 102.49h6.15v3.52h-6.15z"/><path d="m1226.97 91.14h14.88v3.52h-14.88z"/><path d="m1226.97 91.14h3.52v14.88h-3.52z"/><path d="m1238.32 91.14h3.52v7.44h-3.52z"/><path d="m1233.11 98.58h3.52v7.44h-3.52z"/><path d="m1233.11 97.4h8.73v3.52h-8.73z"/><path d="m1233.11 102.49h8.73v3.52h-8.73z"/><path d="m1224.35 102.49h6.15v3.52h-6.15z"/><path d="m1244.47 91.14h14.88v3.52h-14.88z"/><path d="m1244.47 91.14h3.52v14.88h-3.52z"/><path d="m1255.82 91.14h3.52v7.44h-3.52z"/><path d="m1250.61 98.58h3.52v7.44h-3.52z"/><path d="m1250.61 97.4h8.73v3.52h-8.73z"/><path d="m1250.61 102.49h8.73v3.52h-8.73z"/><path d="m1241.84 102.49h6.15v3.52h-6.15z"/><path d="m1261.97 91.14h14.88v3.52h-14.88z"/><path d="m1261.97 91.14h3.52v14.88h-3.52z"/><path d="m1273.32 91.14h3.52v7.44h-3.52z"/><path d="m1268.11 98.58h3.52v7.44h-3.52z"/><path d="m1268.11 97.4h8.73v3.52h-8.73z"/><path d="m1268.11 102.49h8.73v3.52h-8.73z"/><path d="m1259.34 102.49h6.15v3.52h-6.15z"/><path d="m1279.46 91.14h14.88v3.52h-14.88z"/><path d="m1279.46 91.14h3.52v14.88h-3.52z"/><path d="m1290.82 91.14h3.52v7.44h-3.52z"/><path d="m1285.61 98.58h3.52v7.44h-3.52z"/><path d="m1285.61 97.4h8.73v3.52h-8.73z"/><path d="m1285.61 102.49h8.73v3.52h-8.73z"/><path d="m1276.84 102.49h6.15v3.52h-6.15z"/><path d="m1296.96 91.14h14.88v3.52h-14.88z"/><path d="m1296.96 91.14h3.52v14.88h-3.52z"/><path d="m1308.31 91.14h3.52v7.44h-3.52z"/><path d="m1303.11 98.58h3.52v7.44h-3.52z"/><path d="m1303.11 97.4h8.73v3.52h-8.73z"/><path d="m1303.11 102.49h8.73v3.52h-8.73z"/><path d="m1294.34 102.49h6.15v3.52h-6.15z"/><path d="m1314.46 91.14h14.88v3.52h-14.88z"/><path d="m1314.46 91.14h3.52v14.88h-3.52z"/><path d="m1325.81 91.14h3.52v7.44h-3.52z"/><path d="m1320.61 98.58h3.52v7.44h-3.52z"/><path d="m1320.61 97.4h8.73v3.52h-8.73z"/><path d="m1320.61 102.49h8.73v3.52h-8.73z"/><path d="m1311.84 102.49h6.15v3.52h-6.15z"/><path d="m1331.96 91.14h14.88v3.52h-14.88z"/><path d="m1331.96 91.14h3.52v14.88h-3.52z"/><path d="m1343.31 91.14h3.52v7.44h-3.52z"/><path d="m1338.1 98.58h3.52v7.44h-3.52z"/><path d="m1338.1 97.4h8.73v3.52h-8.73z"/><path d="m1338.1 102.49h8.73v3.52h-8.73z"/><path d="m1329.34 102.49h6.15v3.52h-6.15z"/><path d="m1349.46 91.14h14.88v3.52h-14.88z"/><path d="m1349.46 91.14h3.52v14.88h-3.52z"/><path d="m1360.81 91.14h3.52v7.44h-3.52z"/><path d="m1355.6 98.58h3.52v7.44h-3.52z"/><path d="m1355.6 97.4h8.73v3.52h-8.73z"/><path d="m1355.6 102.49h8.73v3.52h-8.73z"/><path d="m1346.84 102.49h6.15v3.52h-6.15z"/><path d="m1366.96 91.14h14.88v3.52h-14.88z"/><path d="m1366.96 91.14h3.52v14.88h-3.52z"/><path d="m1378.31 91.14h3.52v7.44h-3.52z"/><path d="m1373.1 98.58h3.52v7.44h-3.52z"/><path d="m1373.1 97.4h8.73v3.52h-8.73z"/><path d="m1373.1 102.49h8.73v3.52h-8.73z"/><path d="m1364.33 102.49h6.15v3.52h-6.15z"/><path d="m1384.45 91.14h14.88v3.52h-14.88z"/><path d="m1384.45 91.14h3.52v14.88h-3.52z"/><path d="m1395.81 91.14h3.52v7.44h-3.52z"/><path d="m1390.6 98.58h3.52v7.44h-3.52z"/><path d="m1390.6 97.4h8.73v3.52h-8.73z"/><path d="m1390.6 102.49h8.73v3.52h-8.73z"/><path d="m1381.83 102.49h6.15v3.52h-6.15z"/><path d="m1401.95 91.14h14.88v3.52h-14.88z"/><path d="m1401.95 91.14h3.52v14.88h-3.52z"/><path d="m1413.31 91.14h3.52v7.44h-3.52z"/><path d="m1408.1 98.58h3.52v7.44h-3.52z"/><path d="m1408.1 97.4h8.73v3.52h-8.73z"/><path d="m1408.1 102.49h8.73v3.52h-8.73z"/><path d="m1399.33 102.49h6.15v3.52h-6.15z"/><path d="m1419.45 91.14h14.88v3.52h-14.88z"/><path d="m1419.45 91.14h3.52v14.88h-3.52z"/><path d="m1430.8 91.14h3.52v7.44h-3.52z"/><path d="m1425.6 98.58h3.52v7.44h-3.52z"/><path d="m1425.6 97.4h8.73v3.52h-8.73z"/><path d="m1425.6 102.49h8.73v3.52h-8.73z"/><path d="m1416.83 102.49h6.15v3.52h-6.15z"/><path d="m1436.95 91.14h14.88v3.52h-14.88z"/><path d="m1436.95 91.14h3.52v14.88h-3.52z"/><path d="m1448.3 91.14h3.52v7.44h-3.52z"/><path d="m1443.1 98.58h3.52v7.44h-3.52z"/><path d="m1443.1 97.4h8.73v3.52h-8.73z"/><path d="m1443.1 102.49h8.73v3.52h-8.73z"/><path d="m1434.33 102.49h6.15v3.52h-6.15z"/><path d="m1454.45 91.14h14.88v3.52h-14.88z"/><path d="m1454.45 91.14h3.52v14.88h-3.52z"/><path d="m1465.8 91.14h3.52v7.44h-3.52z"/><path d="m1460.59 98.58h3.52v7.44h-3.52z"/><path d="m1460.59 97.4h8.73v3.52h-8.73z"/><path d="m1460.59 102.49h8.73v3.52h-8.73z"/><path d="m1451.83 102.49h6.15v3.52h-6.15z"/><path d="m1471.95 91.14h14.88v3.52h-14.88z"/><path d="m1471.95 91.14h3.52v14.88h-3.52z"/><path d="m1483.3 91.14h3.52v7.44h-3.52z"/><path d="m1478.09 98.58h3.52v7.44h-3.52z"/><path d="m1478.09 97.4h8.73v3.52h-8.73z"/><path d="m1478.09 102.49h8.73v3.52h-8.73z"/><path d="m1469.32 102.49h6.15v3.52h-6.15z"/><path d="m1489.44 91.14h14.88v3.52h-14.88z"/><path d="m1489.44 91.14h3.52v14.88h-3.52z"/><path d="m1500.8 91.14h3.52v7.44h-3.52z"/><path d="m1495.59 98.58h3.52v7.44h-3.52z"/><path d="m1495.59 97.4h8.73v3.52h-8.73z"/><path d="m1495.59 102.49h8.73v3.52h-8.73z"/><path d="m1486.82 102.49h6.15v3.52h-6.15z"/><path d="m1506.94 91.14h14.88v3.52h-14.88z"/><path d="m1506.94 91.14h3.52v14.88h-3.52z"/><path d="m1518.3 91.14h3.52v7.44h-3.52z"/><path d="m1513.09 98.58h3.52v7.44h-3.52z"/><path d="m1513.09 97.4h8.73v3.52h-8.73z"/><path d="m1513.09 102.49h8.73v3.52h-8.73z"/><path d="m1504.32 102.49h6.15v3.52h-6.15z"/><path d="m1524.44 91.14h14.88v3.52h-14.88z"/><path d="m1524.44 91.14h3.52v14.88h-3.52z"/><path d="m1535.79 91.14h3.52v7.44h-3.52z"/><path d="m1530.59 98.58h3.52v7.44h-3.52z"/><path d="m1530.59 97.4h8.73v3.52h-8.73z"/><path d="m1530.59 102.49h8.73v3.52h-8.73z"/><path d="m1521.82 102.49h6.15v3.52h-6.15z"/><g clip-path="url(#a)"><path d="m1551.98 477.41h3.52v14.88h-3.52z"/><path d="m1540.63 477.41h14.88v3.52h-14.88z"/><path d="m1548.07 488.77h7.44v3.52h-7.44z"/><path d="m1540.63 483.56h7.44v3.52h-7.44z"/><path d="m1545.72 483.56h3.52v8.73h-3.52z"/><path d="m1540.63 483.56h3.52v8.73h-3.52z"/><path d="m1540.63 474.79h3.52v6.15h-3.52z"/></g><g clip-path="url(#b)"><path d="m1539.32 487.46h14.88v3.52h-14.88z"/><path d="m1550.67 476.1h3.52v14.88h-3.52z"/><path d="m1539.32 483.54h3.52v7.44h-3.52z"/><path d="m1544.53 476.1h3.52v7.44h-3.52z"/><path d="m1539.32 481.19h8.73v3.52h-8.73z"/><path d="m1539.32 476.1h8.73v3.52h-8.73z"/><path d="m1550.67 476.1h6.15v3.52h-6.15z"/></g><g clip-path="url(#c)"><path d="m524.41 487.46h14.88v3.52h-14.88z"/><path d="m535.76 476.1h3.52v14.88h-3.52z"/><path d="m524.41 483.54h3.52v7.44h-3.52z"/><path d="m529.62 476.1h3.52v7.44h-3.52z"/><path d="m524.41 481.19h8.73v3.52h-8.73z"/><path d="m524.41 476.1h8.73v3.52h-8.73z"/><path d="m535.76 476.1h6.15v3.52h-6.15z"/></g><g clip-path="url(#d)"><path d="m525.72 474.79h3.52v14.88h-3.52z"/><path d="m525.72 486.15h14.88v3.52h-14.88z"/><path d="m525.72 474.79h7.44v3.52h-7.44z"/><path d="m533.16 480h7.44v3.52h-7.44z"/><path d="m531.98 474.79h3.52v8.73h-3.52z"/><path d="m537.07 474.79h3.52v8.73h-3.52z"/><path d="m537.07 486.15h3.52v6.15h-3.52z"/></g><g clip-path="url(#e)"><path d="m525.72 89.83h3.52v14.88h-3.52z"/><path d="m525.72 101.18h14.88v3.52h-14.88z"/><path d="m525.72 89.83h7.44v3.52h-7.44z"/><path d="m533.16 95.03h7.44v3.52h-7.44z"/><path d="m531.98 89.83h3.52v8.73h-3.52z"/><path d="m537.07 89.83h3.52v8.73h-3.52z"/><path d="m537.07 101.18h3.52v6.15h-3.52z"/></g><g clip-path="url(#f)"><path d="m527.03 91.14h14.88v3.52h-14.88z"/><path d="m527.03 91.14h3.52v14.88h-3.52z"/><path d="m538.38 91.14h3.52v7.44h-3.52z"/><path d="m533.18 98.58h3.52v7.44h-3.52z"/><path d="m533.18 97.4h8.73v3.52h-8.73z"/><path d="m533.18 102.49h8.73v3.52h-8.73z"/><path d="m524.41 102.49h6.15v3.52h-6.15z"/></g><g clip-path="url(#g)"><path d="m1541.94 91.14h14.88v3.52h-14.88z"/><path d="m1541.94 91.14h3.52v14.88h-3.52z"/><path d="m1553.29 91.14h3.52v7.44h-3.52z"/><path d="m1548.09 98.58h3.52v7.44h-3.52z"/><path d="m1548.09 97.4h8.73v3.52h-8.73z"/><path d="m1548.09 102.49h8.73v3.52h-8.73z"/><path d="m1539.32 102.49h6.15v3.52h-6.15z"/></g><g clip-path="url(#h)"><path d="m1551.98 92.45h3.52v14.88h-3.52z"/><path d="m1540.63 92.45h14.88v3.52h-14.88z"/><path d="m1548.07 103.8h7.44v3.52h-7.44z"/><path d="m1540.63 98.59h7.44v3.52h-7.44z"/><path d="m1545.72 98.59h3.52v8.73h-3.52z"/><path d="m1540.63 98.59h3.52v8.73h-3.52z"/><path d="m1540.63 89.83h3.52v6.15h-3.52z"/></g></g><path d="m828.27 147.81a63.61 63.61 0 0 1 0-127.22h405.43a63.61 63.61 0 0 1 0 127.22z" fill="#eee9e4"/><path d="m1233.71 23.09a61 61 0 0 1 43.15 104.26 60.67 60.67 0 0 1 -43.15 18h-405.44a61 61 0 0 1 -43.15-104.35 60.67 60.67 0 0 1 43.15-18h405.43m0-5h-405.43a66.11 66.11 0 0 0 0 132.22h405.43a66.11 66.11 0 0 0 0-132.22z" fill="#c0b399"/><g fill="#fff"><rect height="37.9" rx="18.95" width="134.36" x="1232.63" y="112.36"/><path d="m1386.31 112.05-38.6.31.66 37.9s32.18 3.2 37.94-38.21z"/><rect height="37.9" rx="18.95" width="134.36" x="1288.71" y="65.23"/><path d="m1442.38 64.92-38.6.31.66 37.9s32.18 3.2 37.94-38.21z"/><rect height="37.9" rx="18.95" width="134.36" x="1327.31" y="18.09"/><path d="m1481 17.79-38.6.31.6 37.9s32.23 3.19 38-38.21z"/></g><circle cx="1265.57" cy="102.87" fill="#ffcf4a" r="47.13"/><path d="m1304.22 129.84s18.18-36.27 50.63-40.08a4 4 0 0 0 3.56-4.13c-.16-3.73 0-84.08 0-84.08s-.09-1.62-2.08-1.54-56.57 34.81-56.57 34.81a2.11 2.11 0 0 0 -.37 3.35c1.73 2 7.27 8.58-.5 15.54-4.09 3.66-33.31 2-33.31 2z" fill="#ffcf4a"/><circle cx="1265.57" cy="102.87" fill="#fab416" r="32.93"/><circle cx="1265.57" cy="102.87" fill="#ffcf4a" r="17.47"/><path d="m1218.44 102.87v43.67s-.07 3.34 3.21 3.46 43.92 0 43.92 0z" fill="#ffcf4a"/><rect fill="#fff" height="37.9" rx="18.95" transform="matrix(-1 0 0 -1 1520.41 262.62)" width="134.36" x="693.03" y="112.36"/><path d="m673.71 112.05 38.6.31-.66 37.9s-32.18 3.2-37.94-38.21z" fill="#fff"/><rect fill="#fff" height="37.9" rx="18.95" transform="matrix(-1 0 0 -1 1408.27 168.35)" width="134.36" x="636.95" y="65.23"/><path d="m617.64 64.92 38.6.31-.66 37.9s-32.18 3.2-37.94-38.21z" fill="#fff"/><rect fill="#fff" height="37.9" rx="18.95" transform="matrix(-1 0 0 -1 1331.06 74.09)" width="134.36" x="598.35" y="18.09"/><path d="m579 17.79 38.6.31-.6 37.9s-32.2 3.19-38-38.21z" fill="#fff"/><circle cx="794.46" cy="102.87" fill="#ffcf4a" r="47.13"/><path d="m755.8 129.84s-18.18-36.27-50.63-40.08a4 4 0 0 1 -3.56-4.13c.16-3.73 0-84.08 0-84.08s.09-1.62 2.09-1.55 56.57 34.81 56.57 34.81a2.11 2.11 0 0 1 .37 3.35c-1.73 2-7.27 8.58.5 15.54 4.09 3.66 33.31 2 33.31 2z" fill="#ffcf4a"/><circle cx="794.46" cy="102.87" fill="#fab416" r="32.93"/><circle cx="794.46" cy="102.87" fill="#ffcf4a" r="17.47"/><path d="m841.58 102.87v43.67s.07 3.34-3.21 3.46-43.92 0-43.92 0z" fill="#ffcf4a"/></svg>