<svg viewBox="0 0 1938.03 1167.4" xmlns="http://www.w3.org/2000/svg"><g fill="#fff"><path d="m1938 1061.72a105.67 105.67 0 0 1 -105.65 105.68h-569.82a156.13 156.13 0 0 1 -4.09-312.2 227.19 227.19 0 0 1 421.56.8 156.26 156.26 0 0 1 162.43 100.57 105.64 105.64 0 0 1 95.57 105.15z"/><path d="m831.63 1059.82a105.67 105.67 0 0 1 -105.63 105.68h-569.87a156.13 156.13 0 0 1 -4.13-312.2 227.19 227.19 0 0 1 421.55.79 156.26 156.26 0 0 1 162.45 100.56 105.64 105.64 0 0 1 95.63 105.17z"/><path d="m617.29 1059.54a105.67 105.67 0 0 0 105.65 105.68h569.85a156.13 156.13 0 0 0 4.09-312.2 227.19 227.19 0 0 0 -421.55.79 156.26 156.26 0 0 0 -162.42 100.56 105.64 105.64 0 0 0 -95.62 105.17z"/></g><path d="m391.76 325.66h1137.25v612.66h-1137.25z" fill="#4f4c48"/><path d="m317.47 374.83h131.42v519.26h-131.42z" fill="#d2d1cd"/><path d="m350.95 374.83h64.46v519.26h-64.46z" fill="#dcd7cd"/><rect fill="#e8e3e2" height="486.5" rx="4.75" width="15.17" x="326.65" y="388.69"/><rect fill="#efeae6" height="486.5" rx="4.75" width="15.17" x="361.77" y="388.69"/><rect fill="#efeae6" height="486.5" rx="4.75" width="15.17" x="388.53" y="388.69"/><rect fill="#e8e3e2" height="486.5" rx="4.75" width="15.17" x="424.58" y="388.69"/><path d="m317.47 894.08-13.38 8h158.19l-13.39-8z" fill="#ffdb84"/><path d="m304.09 902.08h158.19v14.06h-158.19z" fill="#fcb514"/><path d="m298.06 916.14h170.25v18h-170.25z" fill="#ffcf4a"/><path d="m286.01 346.29h194.33v28.53h-194.33z" fill="#ffcf4a"/><circle cx="310.51" cy="374.02" fill="#ffcf4a" r="24.49"/><circle cx="310.51" cy="374.02" fill="#fcb514" r="17.32"/><circle cx="455.85" cy="374.02" fill="#ffcf4a" r="24.49"/><circle cx="310.51" cy="374.02" fill="#ffcf4a" r="9.21"/><circle cx="455.85" cy="374.02" fill="#fcb514" r="17.32"/><circle cx="455.85" cy="374.02" fill="#ffcf4a" r="9.21"/><path d="m1512.68 374.83h131.42v519.26h-131.42z" fill="#d2d1cd"/><path d="m1546.16 374.83h64.46v519.26h-64.46z" fill="#dcd7cd"/><rect fill="#e8e3e2" height="486.5" rx="4.75" width="15.17" x="1521.86" y="388.69"/><rect fill="#efeae6" height="486.5" rx="4.75" width="15.17" x="1556.98" y="388.69"/><rect fill="#efeae6" height="486.5" rx="4.75" width="15.17" x="1583.74" y="388.69"/><rect fill="#e8e3e2" height="486.5" rx="4.75" width="15.17" x="1619.79" y="388.69"/><path d="m1512.68 894.08-13.38 8h158.19l-13.38-8z" fill="#ffdb84"/><path d="m1499.3 902.08h158.19v14.06h-158.19z" fill="#fcb514"/><path d="m1493.27 916.14h170.25v18h-170.25z" fill="#ffcf4a"/><path d="m1481.23 346.29h194.33v28.53h-194.33z" fill="#ffcf4a"/><circle cx="1505.72" cy="374.02" fill="#ffcf4a" r="24.49"/><circle cx="1505.72" cy="374.02" fill="#fcb514" r="17.32"/><circle cx="1651.07" cy="374.02" fill="#ffcf4a" r="24.49"/><circle cx="1505.72" cy="374.02" fill="#ffcf4a" r="9.21"/><circle cx="1651.07" cy="374.02" fill="#fcb514" r="17.32"/><circle cx="1651.07" cy="374.02" fill="#ffcf4a" r="9.21"/><path d="m266.65 304.06h1422.72v42.23h-1422.72z" fill="#dcd7cd"/><path d="m266.65 285.07h1422.72v12.42h-1422.72z" fill="#ffcf4a"/><path d="m260.4 297.48h1435.23v6.58h-1435.23z" fill="#ffdb84"/><path d="m266.65 940.72h1422.72v42.23h-1422.72z" fill="#dcd7cd"/><path d="m260.4 934.14h1435.23v6.58h-1435.23z" fill="#ffdb84"/><path d="m247.5 989.53h1461.03v42.23h-1461.03z" fill="#dcd7cd"/><path d="m241.08 982.95h1473.87v6.58h-1473.87z" fill="#ffdb84"/><path d="m228.94 1038.34h1498.15v42.23h-1498.15z" fill="#dcd7cd"/><path d="m222.36 1031.76h1511.32v6.58h-1511.32z" fill="#ffdb84"/><path d="m262.87 242.18 717.91-184.53 712.52 184.53z" fill="#dcd7cd"/><path d="m980.78 60.23 692.89 179.45h-1391zm0-5.16-737.67 189.61h1469.81l-732.13-189.61z" fill="#ffdb84"/><path d="m265.65 288.78 717.91-184.54 712.51 184.54z" fill="#efeae6"/><path d="m983.55 106.82 692.89 179.45h-1391zm0-5.16-737.67 189.62h1469.82l-732.14-189.62z" fill="#ffdb84"/><path d="m260.4 278.49h1435.23v6.58h-1435.23z" fill="#ffdb84"/><path d="m243.11 236.71h1469.82v6.58h-1469.82z" fill="#ffdb84"/><path d="m249.01 243.28 17.64 35.21h1422.73l17.07-35.21z" fill="#dcd7cd"/><path d="m214.54 205.85 28.57 30.86h31.02l706.66-181.64 701.34 181.64h30.79l32.11-31.6-764.24-202.52z" fill="#efeae6" stroke="#ffdb84" stroke-miterlimit="10" stroke-width="5"/><rect fill="#fff" height="58.59" rx="25.75" width="207.54" x="865.02" y="261.57"/><path d="m1046.81 264.07a23.28 23.28 0 0 1 23.25 23.25v7.09a23.28 23.28 0 0 1 -23.25 23.25h-156a23.28 23.28 0 0 1 -23.25-23.25v-7.09a23.28 23.28 0 0 1 23.25-23.25zm0-5h-156a28.34 28.34 0 0 0 -28.25 28.25v7.09a28.34 28.34 0 0 0 28.25 28.25h156a28.34 28.34 0 0 0 28.25-28.25v-7.09a28.34 28.34 0 0 0 -28.25-28.25z" fill="#ffdb84"/><g fill="#4f4c48"><path d="m889 97.32.22 122.81h-70.71v-46l23.15 8.54v16.58q.16 1 .89 1h20l.89-.51q-.49-8.8-.49-12.77l.32-76.09-10.86-13.56"/><path d="m960.89 80.45h26.58v93.55h.41q17.89-9 18.21-10v-71.71l-8.18-10.91v-.93h34.48l.37 121.29s0 0 0 0l-26.67-.15v-9.47h-.49q-15.79 8.55-19.51 9.47h-25v-9.05h-.49q-17.4 9.05-18.62 9.05h-24.98v-109.3l-8.2-10.91v-.93h34.56q-.48 59.81-.48 90.26v3.29h.48q17.73-8.63 17.73-9.47"/><path d="m1057.17 98.67 72.49.05v30.37h-.89q-18.62-10.4-20.48-10.4h-23.63c-.59.11-.89.42-.89.93v57.52q0 7.28-.49 22.33l.89.42h24.61q.89 0 20.4-10.4h.49v30.37h-72.28l-.21-121.19z"/></g></svg>