<svg xmlns="http://www.w3.org/2000/svg" viewBox="0 0 901.96 150.32"><defs><style>.cls-1{fill:#eee9e4;}.cls-2{fill:#c0b399;}.cls-3{fill:#fff;}.cls-4{fill:#ffcf4a;}.cls-5{fill:#fab416;}</style></defs><title>Asset 3</title><g id="Layer_2" data-name="Layer 2"><g id="Layer_1-2" data-name="Layer 1"><path class="cls-1" d="M249.24,147.81a63.61,63.61,0,0,1,0-127.22H654.67a63.61,63.61,0,0,1,0,127.22Z"/><path class="cls-2" d="M654.67,23.09a61,61,0,0,1,43.15,104.26,60.67,60.67,0,0,1-43.15,18H249.24A61,61,0,0,1,206.09,41a60.67,60.67,0,0,1,43.15-18H654.67m0-5H249.24a66.11,66.11,0,0,0,0,132.22H654.67a66.11,66.11,0,0,0,0-132.22Z"/><rect class="cls-3" x="653.6" y="112.36" width="134.36" height="37.9" rx="18.95" ry="18.95"/><path class="cls-3" d="M807.28,112.05l-38.6.31.66,37.9S801.52,153.46,807.28,112.05Z"/><rect class="cls-3" x="709.67" y="65.23" width="134.36" height="37.9" rx="18.95" ry="18.95"/><path class="cls-3" d="M863.35,64.92l-38.6.31.66,37.9S857.59,106.33,863.35,64.92Z"/><rect class="cls-3" x="748.28" y="18.09" width="134.36" height="37.9" rx="18.95" ry="18.95"/><path class="cls-3" d="M902,17.79l-38.6.31L864,56S896.19,59.19,902,17.79Z"/><circle class="cls-4" cx="686.53" cy="102.87" r="47.13"/><path class="cls-4" d="M725.19,129.84s18.18-36.27,50.63-40.08a4,4,0,0,0,3.56-4.13c-.16-3.73,0-84.08,0-84.08S779.29-.07,777.29,0s-56.57,34.81-56.57,34.81a2.11,2.11,0,0,0-.37,3.35c1.73,2,7.27,8.58-.5,15.54-4.09,3.66-33.31,2-33.31,2Z"/><circle class="cls-5" cx="686.53" cy="102.87" r="32.93"/><circle class="cls-4" cx="686.53" cy="102.87" r="17.47"/><path class="cls-4" d="M639.41,102.87v43.67s-.07,3.34,3.21,3.46,43.92,0,43.92,0Z"/><rect class="cls-3" x="113.99" y="112.36" width="134.36" height="37.9" rx="18.95" ry="18.95" transform="translate(362.35 262.62) rotate(180)"/><path class="cls-3" d="M94.68,112.05l38.6.31-.66,37.9S100.44,153.46,94.68,112.05Z"/><rect class="cls-3" x="57.92" y="65.23" width="134.36" height="37.9" rx="18.95" ry="18.95" transform="translate(250.2 168.35) rotate(180)"/><path class="cls-3" d="M38.6,64.92l38.6.31-.66,37.9S44.37,106.33,38.6,64.92Z"/><rect class="cls-3" x="19.31" y="18.09" width="134.36" height="37.9" rx="18.95" ry="18.95" transform="translate(172.99 74.09) rotate(180)"/><path class="cls-3" d="M0,17.79l38.6.31L37.95,56S5.76,59.19,0,17.79Z"/><circle class="cls-4" cx="215.42" cy="102.87" r="47.13"/><path class="cls-4" d="M176.77,129.84s-18.18-36.27-50.63-40.08a4,4,0,0,1-3.56-4.13c.16-3.73,0-84.08,0-84.08s.09-1.62,2.08-1.54,56.57,34.81,56.57,34.81a2.11,2.11,0,0,1,.37,3.35c-1.73,2-7.27,8.58.5,15.54,4.09,3.66,33.31,2,33.31,2Z"/><circle class="cls-5" cx="215.42" cy="102.87" r="32.93"/><circle class="cls-4" cx="215.42" cy="102.87" r="17.47"/><path class="cls-4" d="M262.55,102.87v43.67s.07,3.34-3.21,3.46-43.92,0-43.92,0Z"/></g></g></svg>