<svg viewBox="0 0 901.96 150.32" xmlns="http://www.w3.org/2000/svg"><path d="m249.24 147.81a63.61 63.61 0 0 1 0-127.22h405.43a63.61 63.61 0 0 1 0 127.22z" fill="#eee9e4"/><path d="m654.67 23.09a61 61 0 0 1 43.15 104.26 60.67 60.67 0 0 1 -43.15 18h-405.43a61 61 0 0 1 -43.15-104.35 60.67 60.67 0 0 1 43.15-18h405.43m0-5h-405.43a66.11 66.11 0 0 0 0 132.22h405.43a66.11 66.11 0 0 0 0-132.22z" fill="#c0b399"/><g fill="#fff"><rect height="37.9" rx="18.95" width="134.36" x="653.6" y="112.36"/><path d="m807.28 112.05-38.6.31.66 37.9s32.18 3.2 37.94-38.21z"/><rect height="37.9" rx="18.95" width="134.36" x="709.67" y="65.23"/><path d="m863.35 64.92-38.6.31.66 37.9s32.18 3.2 37.94-38.21z"/><rect height="37.9" rx="18.95" width="134.36" x="748.28" y="18.09"/><path d="m902 17.79-38.6.31.6 37.9s32.19 3.19 38-38.21z"/></g><circle cx="686.53" cy="102.87" fill="#ffcf4a" r="47.13"/><path d="m725.19 129.84s18.18-36.27 50.63-40.08a4 4 0 0 0 3.56-4.13c-.16-3.73 0-84.08 0-84.08s-.09-1.62-2.09-1.55-56.57 34.81-56.57 34.81a2.11 2.11 0 0 0 -.37 3.35c1.73 2 7.27 8.58-.5 15.54-4.09 3.66-33.31 2-33.31 2z" fill="#ffcf4a"/><circle cx="686.53" cy="102.87" fill="#fab416" r="32.93"/><circle cx="686.53" cy="102.87" fill="#ffcf4a" r="17.47"/><path d="m639.41 102.87v43.67s-.07 3.34 3.21 3.46 43.92 0 43.92 0z" fill="#ffcf4a"/><rect fill="#fff" height="37.9" rx="18.95" transform="matrix(-1 0 0 -1 362.35 262.62)" width="134.36" x="113.99" y="112.36"/><path d="m94.68 112.05 38.6.31-.66 37.9s-32.18 3.2-37.94-38.21z" fill="#fff"/><rect fill="#fff" height="37.9" rx="18.95" transform="matrix(-1 0 0 -1 250.2 168.35)" width="134.36" x="57.92" y="65.23"/><path d="m38.6 64.92 38.6.31-.66 37.9s-32.17 3.2-37.94-38.21z" fill="#fff"/><rect fill="#fff" height="37.9" rx="18.95" transform="matrix(-1 0 0 -1 172.99 74.09)" width="134.36" x="19.31" y="18.09"/><path d="m0 17.79 38.6.31-.65 37.9s-32.19 3.19-37.95-38.21z" fill="#fff"/><circle cx="215.42" cy="102.87" fill="#ffcf4a" r="47.13"/><path d="m176.77 129.84s-18.18-36.27-50.63-40.08a4 4 0 0 1 -3.56-4.13c.16-3.73 0-84.08 0-84.08s.09-1.62 2.08-1.54 56.57 34.81 56.57 34.81a2.11 2.11 0 0 1 .37 3.35c-1.73 2-7.27 8.58.5 15.54 4.09 3.66 33.31 2 33.31 2z" fill="#ffcf4a"/><circle cx="215.42" cy="102.87" fill="#fab416" r="32.93"/><circle cx="215.42" cy="102.87" fill="#ffcf4a" r="17.47"/><path d="m262.55 102.87v43.67s.07 3.34-3.21 3.46-43.92 0-43.92 0z" fill="#ffcf4a"/></svg>