<svg xmlns="http://www.w3.org/2000/svg" xmlns:xlink="http://www.w3.org/1999/xlink" viewBox="0 0 316.12 447.01"><defs><style>.cls-1{fill:none;}.cls-2{fill:#efeae6;}.cls-3{fill:#c1b49a;}.cls-4{fill:#dcd7cd;}.cls-5{clip-path:url(#clip-path);}.cls-6{clip-path:url(#clip-path-2);}.cls-7{clip-path:url(#clip-path-3);}.cls-8{clip-path:url(#clip-path-4);}.cls-9{clip-path:url(#clip-path-5);}.cls-10{clip-path:url(#clip-path-6);}.cls-11{clip-path:url(#clip-path-7);}.cls-12{clip-path:url(#clip-path-8);}.cls-13{fill:#5c4b43;}.cls-14{fill:#aa9c94;}</style><clipPath id="clip-path"><polygon class="cls-1" points="274.29 398.7 274.29 400.01 289.16 414.89 289.16 398.7 274.29 398.7"/></clipPath><clipPath id="clip-path-2"><polygon class="cls-1" points="272.97 400.01 274.29 400.01 289.16 414.89 272.97 414.89 272.97 400.01"/></clipPath><clipPath id="clip-path-3"><polygon class="cls-1" points="45.49 400.01 44.18 400.01 29.31 414.89 45.49 414.89 45.49 400.01"/></clipPath><clipPath id="clip-path-4"><polygon class="cls-1" points="44.18 398.7 44.18 400.01 29.31 414.89 29.31 398.7 44.18 398.7"/></clipPath><clipPath id="clip-path-5"><polygon class="cls-1" points="44.18 48.73 44.18 47.42 29.31 32.55 29.31 48.73 44.18 48.73"/></clipPath><clipPath id="clip-path-6"><polygon class="cls-1" points="45.49 47.42 44.18 47.42 29.31 32.55 45.49 32.55 45.49 47.42"/></clipPath><clipPath id="clip-path-7"><polygon class="cls-1" points="272.97 47.42 274.29 47.42 289.16 32.55 272.97 32.55 272.97 47.42"/></clipPath><clipPath id="clip-path-8"><polygon class="cls-1" points="274.29 48.73 274.29 47.42 289.16 32.55 289.16 48.73 274.29 48.73"/></clipPath></defs><title>Asset 21</title><g id="Layer_2" data-name="Layer 2"><g id="Layer_1-2" data-name="Layer 1"><rect class="cls-2" x="20.48" y="44.38" width="275.96" height="358.68"/><path class="cls-3" d="M293.94,46.88V400.56H23V46.88h271m5-5H18V405.56h281V41.88Z"/><rect class="cls-4" x="285.64" y="51.36" width="3.52" height="14.88"/><rect class="cls-4" x="274.28" y="51.36" width="14.88" height="3.52"/><rect class="cls-4" x="281.72" y="62.71" width="7.44" height="3.52"/><rect class="cls-4" x="274.28" y="57.5" width="7.44" height="3.52"/><rect class="cls-4" x="279.37" y="57.5" width="3.52" height="8.73"/><rect class="cls-4" x="274.28" y="57.5" width="3.52" height="8.73"/><rect class="cls-4" x="274.28" y="48.73" width="3.52" height="6.15"/><rect class="cls-4" x="285.64" y="68.85" width="3.52" height="14.88"/><rect class="cls-4" x="274.28" y="68.85" width="14.88" height="3.52"/><rect class="cls-4" x="281.72" y="80.21" width="7.44" height="3.52"/><rect class="cls-4" x="274.28" y="75" width="7.44" height="3.52"/><rect class="cls-4" x="279.37" y="75" width="3.52" height="8.73"/><rect class="cls-4" x="274.28" y="75" width="3.52" height="8.73"/><rect class="cls-4" x="274.28" y="66.23" width="3.52" height="6.15"/><rect class="cls-4" x="285.64" y="86.35" width="3.52" height="14.88"/><rect class="cls-4" x="274.28" y="86.35" width="14.88" height="3.52"/><rect class="cls-4" x="281.72" y="97.71" width="7.44" height="3.52"/><rect class="cls-4" x="274.28" y="92.5" width="7.44" height="3.52"/><rect class="cls-4" x="279.37" y="92.5" width="3.52" height="8.73"/><rect class="cls-4" x="274.28" y="92.5" width="3.52" height="8.73"/><rect class="cls-4" x="274.28" y="83.73" width="3.52" height="6.15"/><rect class="cls-4" x="285.64" y="103.85" width="3.52" height="14.88"/><rect class="cls-4" x="274.28" y="103.85" width="14.88" height="3.52"/><rect class="cls-4" x="281.72" y="115.2" width="7.44" height="3.52"/><rect class="cls-4" x="274.28" y="110" width="7.44" height="3.52"/><rect class="cls-4" x="279.37" y="110" width="3.52" height="8.73"/><rect class="cls-4" x="274.28" y="110" width="3.52" height="8.73"/><rect class="cls-4" x="274.28" y="101.23" width="3.52" height="6.15"/><rect class="cls-4" x="285.64" y="121.35" width="3.52" height="14.88"/><rect class="cls-4" x="274.28" y="121.35" width="14.88" height="3.52"/><rect class="cls-4" x="281.72" y="132.7" width="7.44" height="3.52"/><rect class="cls-4" x="274.28" y="127.5" width="7.44" height="3.52"/><rect class="cls-4" x="279.37" y="127.5" width="3.52" height="8.73"/><rect class="cls-4" x="274.28" y="127.5" width="3.52" height="8.73"/><rect class="cls-4" x="274.28" y="118.73" width="3.52" height="6.15"/><rect class="cls-4" x="285.64" y="138.85" width="3.52" height="14.88"/><rect class="cls-4" x="274.28" y="138.85" width="14.88" height="3.52"/><rect class="cls-4" x="281.72" y="150.2" width="7.44" height="3.52"/><rect class="cls-4" x="274.28" y="144.99" width="7.44" height="3.52"/><rect class="cls-4" x="279.37" y="144.99" width="3.52" height="8.73"/><rect class="cls-4" x="274.28" y="144.99" width="3.52" height="8.73"/><rect class="cls-4" x="274.28" y="136.23" width="3.52" height="6.15"/><rect class="cls-4" x="285.64" y="156.35" width="3.52" height="14.88"/><rect class="cls-4" x="274.28" y="156.35" width="14.88" height="3.52"/><rect class="cls-4" x="281.72" y="167.7" width="7.44" height="3.52"/><rect class="cls-4" x="274.28" y="162.49" width="7.44" height="3.52"/><rect class="cls-4" x="279.37" y="162.49" width="3.52" height="8.73"/><rect class="cls-4" x="274.28" y="162.49" width="3.52" height="8.73"/><rect class="cls-4" x="274.28" y="153.72" width="3.52" height="6.15"/><rect class="cls-4" x="285.64" y="173.85" width="3.52" height="14.88"/><rect class="cls-4" x="274.28" y="173.85" width="14.88" height="3.52"/><rect class="cls-4" x="281.72" y="185.2" width="7.44" height="3.52"/><rect class="cls-4" x="274.28" y="179.99" width="7.44" height="3.52"/><rect class="cls-4" x="279.37" y="179.99" width="3.52" height="8.73"/><rect class="cls-4" x="274.28" y="179.99" width="3.52" height="8.73"/><rect class="cls-4" x="274.28" y="171.22" width="3.52" height="6.15"/><rect class="cls-4" x="285.64" y="191.34" width="3.52" height="14.88"/><rect class="cls-4" x="274.28" y="191.34" width="14.88" height="3.52"/><rect class="cls-4" x="281.72" y="202.7" width="7.44" height="3.52"/><rect class="cls-4" x="274.28" y="197.49" width="7.44" height="3.52"/><rect class="cls-4" x="279.37" y="197.49" width="3.52" height="8.73"/><rect class="cls-4" x="274.28" y="197.49" width="3.52" height="8.73"/><rect class="cls-4" x="274.28" y="188.72" width="3.52" height="6.15"/><rect class="cls-4" x="285.64" y="208.84" width="3.52" height="14.88"/><rect class="cls-4" x="274.28" y="208.84" width="14.88" height="3.52"/><rect class="cls-4" x="281.72" y="220.19" width="7.44" height="3.52"/><rect class="cls-4" x="274.28" y="214.99" width="7.44" height="3.52"/><rect class="cls-4" x="279.37" y="214.99" width="3.52" height="8.73"/><rect class="cls-4" x="274.28" y="214.99" width="3.52" height="8.73"/><rect class="cls-4" x="274.28" y="206.22" width="3.52" height="6.15"/><rect class="cls-4" x="285.64" y="226.34" width="3.52" height="14.88"/><rect class="cls-4" x="274.28" y="226.34" width="14.88" height="3.52"/><rect class="cls-4" x="281.72" y="237.69" width="7.44" height="3.52"/><rect class="cls-4" x="274.28" y="232.49" width="7.44" height="3.52"/><rect class="cls-4" x="279.37" y="232.49" width="3.52" height="8.73"/><rect class="cls-4" x="274.28" y="232.49" width="3.52" height="8.73"/><rect class="cls-4" x="274.28" y="223.72" width="3.52" height="6.15"/><rect class="cls-4" x="285.64" y="243.84" width="3.52" height="14.88"/><rect class="cls-4" x="274.28" y="243.84" width="14.88" height="3.52"/><rect class="cls-4" x="281.72" y="255.19" width="7.44" height="3.52"/><rect class="cls-4" x="274.28" y="249.98" width="7.44" height="3.52"/><rect class="cls-4" x="279.37" y="249.98" width="3.52" height="8.73"/><rect class="cls-4" x="274.28" y="249.98" width="3.52" height="8.73"/><rect class="cls-4" x="274.28" y="241.22" width="3.52" height="6.15"/><rect class="cls-4" x="285.64" y="261.34" width="3.52" height="14.88"/><rect class="cls-4" x="274.28" y="261.34" width="14.88" height="3.52"/><rect class="cls-4" x="281.72" y="272.69" width="7.44" height="3.52"/><rect class="cls-4" x="274.28" y="267.48" width="7.44" height="3.52"/><rect class="cls-4" x="279.37" y="267.48" width="3.52" height="8.73"/><rect class="cls-4" x="274.28" y="267.48" width="3.52" height="8.73"/><rect class="cls-4" x="274.28" y="258.72" width="3.52" height="6.15"/><rect class="cls-4" x="285.64" y="278.84" width="3.52" height="14.88"/><rect class="cls-4" x="274.28" y="278.84" width="14.88" height="3.52"/><rect class="cls-4" x="281.72" y="290.19" width="7.44" height="3.52"/><rect class="cls-4" x="274.28" y="284.98" width="7.44" height="3.52"/><rect class="cls-4" x="279.37" y="284.98" width="3.52" height="8.73"/><rect class="cls-4" x="274.28" y="284.98" width="3.52" height="8.73"/><rect class="cls-4" x="274.28" y="276.21" width="3.52" height="6.15"/><rect class="cls-4" x="285.64" y="296.33" width="3.52" height="14.88"/><rect class="cls-4" x="274.28" y="296.33" width="14.88" height="3.52"/><rect class="cls-4" x="281.72" y="307.69" width="7.44" height="3.52"/><rect class="cls-4" x="274.28" y="302.48" width="7.44" height="3.52"/><rect class="cls-4" x="279.37" y="302.48" width="3.52" height="8.73"/><rect class="cls-4" x="274.28" y="302.48" width="3.52" height="8.73"/><rect class="cls-4" x="274.28" y="293.71" width="3.52" height="6.15"/><rect class="cls-4" x="285.64" y="313.83" width="3.52" height="14.88"/><rect class="cls-4" x="274.28" y="313.83" width="14.88" height="3.52"/><rect class="cls-4" x="281.72" y="325.19" width="7.44" height="3.52"/><rect class="cls-4" x="274.28" y="319.98" width="7.44" height="3.52"/><rect class="cls-4" x="279.37" y="319.98" width="3.52" height="8.73"/><rect class="cls-4" x="274.28" y="319.98" width="3.52" height="8.73"/><rect class="cls-4" x="274.28" y="311.21" width="3.52" height="6.15"/><rect class="cls-4" x="285.64" y="331.33" width="3.52" height="14.88"/><rect class="cls-4" x="274.28" y="331.33" width="14.88" height="3.52"/><rect class="cls-4" x="281.72" y="342.68" width="7.44" height="3.52"/><rect class="cls-4" x="274.28" y="337.48" width="7.44" height="3.52"/><rect class="cls-4" x="279.37" y="337.48" width="3.52" height="8.73"/><rect class="cls-4" x="274.28" y="337.48" width="3.52" height="8.73"/><rect class="cls-4" x="274.28" y="328.71" width="3.52" height="6.15"/><rect class="cls-4" x="285.64" y="348.83" width="3.52" height="14.88"/><rect class="cls-4" x="274.28" y="348.83" width="14.88" height="3.52"/><rect class="cls-4" x="281.72" y="360.18" width="7.44" height="3.52"/><rect class="cls-4" x="274.28" y="354.98" width="7.44" height="3.52"/><rect class="cls-4" x="279.37" y="354.98" width="3.52" height="8.73"/><rect class="cls-4" x="274.28" y="354.98" width="3.52" height="8.73"/><rect class="cls-4" x="274.28" y="346.21" width="3.52" height="6.15"/><rect class="cls-4" x="285.64" y="366.33" width="3.52" height="14.88"/><rect class="cls-4" x="274.28" y="366.33" width="14.88" height="3.52"/><rect class="cls-4" x="281.72" y="377.68" width="7.44" height="3.52"/><rect class="cls-4" x="274.28" y="372.47" width="7.44" height="3.52"/><rect class="cls-4" x="279.37" y="372.47" width="3.52" height="8.73"/><rect class="cls-4" x="274.28" y="372.47" width="3.52" height="8.73"/><rect class="cls-4" x="274.28" y="363.71" width="3.52" height="6.15"/><rect class="cls-4" x="285.64" y="383.83" width="3.52" height="14.88"/><rect class="cls-4" x="274.28" y="383.83" width="14.88" height="3.52"/><rect class="cls-4" x="281.72" y="395.18" width="7.44" height="3.52"/><rect class="cls-4" x="274.28" y="389.97" width="7.44" height="3.52"/><rect class="cls-4" x="279.37" y="389.97" width="3.52" height="8.73"/><rect class="cls-4" x="274.28" y="389.97" width="3.52" height="8.73"/><rect class="cls-4" x="274.28" y="381.2" width="3.52" height="6.15"/><rect class="cls-4" x="255.48" y="411.37" width="14.88" height="3.52"/><rect class="cls-4" x="266.83" y="400.01" width="3.52" height="14.88"/><rect class="cls-4" x="255.48" y="407.45" width="3.52" height="7.44"/><rect class="cls-4" x="260.68" y="400.01" width="3.52" height="7.44"/><rect class="cls-4" x="255.48" y="405.1" width="8.73" height="3.52"/><rect class="cls-4" x="255.48" y="400.01" width="8.73" height="3.52"/><rect class="cls-4" x="266.83" y="400.01" width="6.15" height="3.52"/><rect class="cls-4" x="237.98" y="411.37" width="14.88" height="3.52"/><rect class="cls-4" x="249.33" y="400.01" width="3.52" height="14.88"/><rect class="cls-4" x="237.98" y="407.45" width="3.52" height="7.44"/><rect class="cls-4" x="243.18" y="400.01" width="3.52" height="7.44"/><rect class="cls-4" x="237.98" y="405.1" width="8.73" height="3.52"/><rect class="cls-4" x="237.98" y="400.01" width="8.73" height="3.52"/><rect class="cls-4" x="249.33" y="400.01" width="6.15" height="3.52"/><rect class="cls-4" x="220.48" y="411.37" width="14.88" height="3.52"/><rect class="cls-4" x="231.83" y="400.01" width="3.52" height="14.88"/><rect class="cls-4" x="220.48" y="407.45" width="3.52" height="7.44"/><rect class="cls-4" x="225.69" y="400.01" width="3.52" height="7.44"/><rect class="cls-4" x="220.48" y="405.1" width="8.73" height="3.52"/><rect class="cls-4" x="220.48" y="400.01" width="8.73" height="3.52"/><rect class="cls-4" x="231.83" y="400.01" width="6.15" height="3.52"/><rect class="cls-4" x="202.98" y="411.37" width="14.88" height="3.52"/><rect class="cls-4" x="214.33" y="400.01" width="3.52" height="14.88"/><rect class="cls-4" x="202.98" y="407.45" width="3.52" height="7.44"/><rect class="cls-4" x="208.19" y="400.01" width="3.52" height="7.44"/><rect class="cls-4" x="202.98" y="405.1" width="8.73" height="3.52"/><rect class="cls-4" x="202.98" y="400.01" width="8.73" height="3.52"/><rect class="cls-4" x="214.33" y="400.01" width="6.15" height="3.52"/><rect class="cls-4" x="185.48" y="411.37" width="14.88" height="3.52"/><rect class="cls-4" x="196.83" y="400.01" width="3.52" height="14.88"/><rect class="cls-4" x="185.48" y="407.45" width="3.52" height="7.44"/><rect class="cls-4" x="190.69" y="400.01" width="3.52" height="7.44"/><rect class="cls-4" x="185.48" y="405.1" width="8.73" height="3.52"/><rect class="cls-4" x="185.48" y="400.01" width="8.73" height="3.52"/><rect class="cls-4" x="196.83" y="400.01" width="6.15" height="3.52"/><rect class="cls-4" x="167.98" y="411.37" width="14.88" height="3.52"/><rect class="cls-4" x="179.34" y="400.01" width="3.52" height="14.88"/><rect class="cls-4" x="167.98" y="407.45" width="3.52" height="7.44"/><rect class="cls-4" x="173.19" y="400.01" width="3.52" height="7.44"/><rect class="cls-4" x="167.98" y="405.1" width="8.73" height="3.52"/><rect class="cls-4" x="167.98" y="400.01" width="8.73" height="3.52"/><rect class="cls-4" x="179.34" y="400.01" width="6.15" height="3.52"/><rect class="cls-4" x="150.48" y="411.37" width="14.88" height="3.52"/><rect class="cls-4" x="161.84" y="400.01" width="3.52" height="14.88"/><rect class="cls-4" x="150.48" y="407.45" width="3.52" height="7.44"/><rect class="cls-4" x="155.69" y="400.01" width="3.52" height="7.44"/><rect class="cls-4" x="150.48" y="405.1" width="8.73" height="3.52"/><rect class="cls-4" x="150.48" y="400.01" width="8.73" height="3.52"/><rect class="cls-4" x="161.84" y="400.01" width="6.15" height="3.52"/><rect class="cls-4" x="132.99" y="411.37" width="14.88" height="3.52"/><rect class="cls-4" x="144.34" y="400.01" width="3.52" height="14.88"/><rect class="cls-4" x="132.99" y="407.45" width="3.52" height="7.44"/><rect class="cls-4" x="138.19" y="400.01" width="3.52" height="7.44"/><rect class="cls-4" x="132.99" y="405.1" width="8.73" height="3.52"/><rect class="cls-4" x="132.99" y="400.01" width="8.73" height="3.52"/><rect class="cls-4" x="144.34" y="400.01" width="6.15" height="3.52"/><rect class="cls-4" x="115.49" y="411.37" width="14.88" height="3.52"/><rect class="cls-4" x="126.84" y="400.01" width="3.52" height="14.88"/><rect class="cls-4" x="115.49" y="407.45" width="3.52" height="7.44"/><rect class="cls-4" x="120.7" y="400.01" width="3.52" height="7.44"/><rect class="cls-4" x="115.49" y="405.1" width="8.73" height="3.52"/><rect class="cls-4" x="115.49" y="400.01" width="8.73" height="3.52"/><rect class="cls-4" x="126.84" y="400.01" width="6.15" height="3.52"/><rect class="cls-4" x="97.99" y="411.37" width="14.88" height="3.52"/><rect class="cls-4" x="109.34" y="400.01" width="3.52" height="14.88"/><rect class="cls-4" x="97.99" y="407.45" width="3.52" height="7.44"/><rect class="cls-4" x="103.2" y="400.01" width="3.52" height="7.44"/><rect class="cls-4" x="97.99" y="405.1" width="8.73" height="3.52"/><rect class="cls-4" x="97.99" y="400.01" width="8.73" height="3.52"/><rect class="cls-4" x="109.34" y="400.01" width="6.15" height="3.52"/><rect class="cls-4" x="80.49" y="411.37" width="14.88" height="3.52"/><rect class="cls-4" x="91.84" y="400.01" width="3.52" height="14.88"/><rect class="cls-4" x="80.49" y="407.45" width="3.52" height="7.44"/><rect class="cls-4" x="85.7" y="400.01" width="3.52" height="7.44"/><rect class="cls-4" x="80.49" y="405.1" width="8.73" height="3.52"/><rect class="cls-4" x="80.49" y="400.01" width="8.73" height="3.52"/><rect class="cls-4" x="91.84" y="400.01" width="6.15" height="3.52"/><rect class="cls-4" x="62.99" y="411.37" width="14.88" height="3.52"/><rect class="cls-4" x="74.35" y="400.01" width="3.52" height="14.88"/><rect class="cls-4" x="62.99" y="407.45" width="3.52" height="7.44"/><rect class="cls-4" x="68.2" y="400.01" width="3.52" height="7.44"/><rect class="cls-4" x="62.99" y="405.1" width="8.73" height="3.52"/><rect class="cls-4" x="62.99" y="400.01" width="8.73" height="3.52"/><rect class="cls-4" x="74.35" y="400.01" width="6.15" height="3.52"/><rect class="cls-4" x="45.49" y="411.37" width="14.88" height="3.52"/><rect class="cls-4" x="56.85" y="400.01" width="3.52" height="14.88"/><rect class="cls-4" x="45.49" y="407.45" width="3.52" height="7.44"/><rect class="cls-4" x="50.7" y="400.01" width="3.52" height="7.44"/><rect class="cls-4" x="45.49" y="405.1" width="8.73" height="3.52"/><rect class="cls-4" x="45.49" y="400.01" width="8.73" height="3.52"/><rect class="cls-4" x="56.85" y="400.01" width="6.15" height="3.52"/><rect class="cls-4" x="29.31" y="381.2" width="3.52" height="14.88"/><rect class="cls-4" x="29.31" y="392.56" width="14.88" height="3.52"/><rect class="cls-4" x="29.31" y="381.2" width="7.44" height="3.52"/><rect class="cls-4" x="36.74" y="386.41" width="7.44" height="3.52"/><rect class="cls-4" x="35.57" y="381.2" width="3.52" height="8.73"/><rect class="cls-4" x="40.66" y="381.2" width="3.52" height="8.73"/><rect class="cls-4" x="40.66" y="392.56" width="3.52" height="6.15"/><rect class="cls-4" x="29.31" y="363.71" width="3.52" height="14.88"/><rect class="cls-4" x="29.31" y="375.06" width="14.88" height="3.52"/><rect class="cls-4" x="29.31" y="363.71" width="7.44" height="3.52"/><rect class="cls-4" x="36.74" y="368.91" width="7.44" height="3.52"/><rect class="cls-4" x="35.57" y="363.71" width="3.52" height="8.73"/><rect class="cls-4" x="40.66" y="363.71" width="3.52" height="8.73"/><rect class="cls-4" x="40.66" y="375.06" width="3.52" height="6.15"/><rect class="cls-4" x="29.31" y="346.21" width="3.52" height="14.88"/><rect class="cls-4" x="29.31" y="357.56" width="14.88" height="3.52"/><rect class="cls-4" x="29.31" y="346.21" width="7.44" height="3.52"/><rect class="cls-4" x="36.74" y="351.42" width="7.44" height="3.52"/><rect class="cls-4" x="35.57" y="346.21" width="3.52" height="8.73"/><rect class="cls-4" x="40.66" y="346.21" width="3.52" height="8.73"/><rect class="cls-4" x="40.66" y="357.56" width="3.52" height="6.15"/><rect class="cls-4" x="29.31" y="328.71" width="3.52" height="14.88"/><rect class="cls-4" x="29.31" y="340.06" width="14.88" height="3.52"/><rect class="cls-4" x="29.31" y="328.71" width="7.44" height="3.52"/><rect class="cls-4" x="36.74" y="333.92" width="7.44" height="3.52"/><rect class="cls-4" x="35.57" y="328.71" width="3.52" height="8.73"/><rect class="cls-4" x="40.66" y="328.71" width="3.52" height="8.73"/><rect class="cls-4" x="40.66" y="340.06" width="3.52" height="6.15"/><rect class="cls-4" x="29.31" y="311.21" width="3.52" height="14.88"/><rect class="cls-4" x="29.31" y="322.56" width="14.88" height="3.52"/><rect class="cls-4" x="29.31" y="311.21" width="7.44" height="3.52"/><rect class="cls-4" x="36.74" y="316.42" width="7.44" height="3.52"/><rect class="cls-4" x="35.57" y="311.21" width="3.52" height="8.73"/><rect class="cls-4" x="40.66" y="311.21" width="3.52" height="8.73"/><rect class="cls-4" x="40.66" y="322.56" width="3.52" height="6.15"/><rect class="cls-4" x="29.31" y="293.71" width="3.52" height="14.88"/><rect class="cls-4" x="29.31" y="305.06" width="14.88" height="3.52"/><rect class="cls-4" x="29.31" y="293.71" width="7.44" height="3.52"/><rect class="cls-4" x="36.74" y="298.92" width="7.44" height="3.52"/><rect class="cls-4" x="35.57" y="293.71" width="3.52" height="8.73"/><rect class="cls-4" x="40.66" y="293.71" width="3.52" height="8.73"/><rect class="cls-4" x="40.66" y="305.06" width="3.52" height="6.15"/><rect class="cls-4" x="29.31" y="276.21" width="3.52" height="14.88"/><rect class="cls-4" x="29.31" y="287.57" width="14.88" height="3.52"/><rect class="cls-4" x="29.31" y="276.21" width="7.44" height="3.52"/><rect class="cls-4" x="36.74" y="281.42" width="7.44" height="3.52"/><rect class="cls-4" x="35.57" y="276.21" width="3.52" height="8.73"/><rect class="cls-4" x="40.66" y="276.21" width="3.52" height="8.73"/><rect class="cls-4" x="40.66" y="287.57" width="3.52" height="6.15"/><rect class="cls-4" x="29.31" y="258.72" width="3.52" height="14.88"/><rect class="cls-4" x="29.31" y="270.07" width="14.88" height="3.52"/><rect class="cls-4" x="29.31" y="258.72" width="7.44" height="3.52"/><rect class="cls-4" x="36.74" y="263.92" width="7.44" height="3.52"/><rect class="cls-4" x="35.57" y="258.72" width="3.52" height="8.73"/><rect class="cls-4" x="40.66" y="258.72" width="3.52" height="8.73"/><rect class="cls-4" x="40.66" y="270.07" width="3.52" height="6.15"/><rect class="cls-4" x="29.31" y="241.22" width="3.52" height="14.88"/><rect class="cls-4" x="29.31" y="252.57" width="14.88" height="3.52"/><rect class="cls-4" x="29.31" y="241.22" width="7.44" height="3.52"/><rect class="cls-4" x="36.74" y="246.42" width="7.44" height="3.52"/><rect class="cls-4" x="35.57" y="241.22" width="3.52" height="8.73"/><rect class="cls-4" x="40.66" y="241.22" width="3.52" height="8.73"/><rect class="cls-4" x="40.66" y="252.57" width="3.52" height="6.15"/><rect class="cls-4" x="29.31" y="223.72" width="3.52" height="14.88"/><rect class="cls-4" x="29.31" y="235.07" width="14.88" height="3.52"/><rect class="cls-4" x="29.31" y="223.72" width="7.44" height="3.52"/><rect class="cls-4" x="36.74" y="228.93" width="7.44" height="3.52"/><rect class="cls-4" x="35.57" y="223.72" width="3.52" height="8.73"/><rect class="cls-4" x="40.66" y="223.72" width="3.52" height="8.73"/><rect class="cls-4" x="40.66" y="235.07" width="3.52" height="6.15"/><rect class="cls-4" x="29.31" y="206.22" width="3.52" height="14.88"/><rect class="cls-4" x="29.31" y="217.57" width="14.88" height="3.52"/><rect class="cls-4" x="29.31" y="206.22" width="7.44" height="3.52"/><rect class="cls-4" x="36.74" y="211.43" width="7.44" height="3.52"/><rect class="cls-4" x="35.57" y="206.22" width="3.52" height="8.73"/><rect class="cls-4" x="40.66" y="206.22" width="3.52" height="8.73"/><rect class="cls-4" x="40.66" y="217.57" width="3.52" height="6.15"/><rect class="cls-4" x="29.31" y="188.72" width="3.52" height="14.88"/><rect class="cls-4" x="29.31" y="200.07" width="14.88" height="3.52"/><rect class="cls-4" x="29.31" y="188.72" width="7.44" height="3.52"/><rect class="cls-4" x="36.74" y="193.93" width="7.44" height="3.52"/><rect class="cls-4" x="35.57" y="188.72" width="3.52" height="8.73"/><rect class="cls-4" x="40.66" y="188.72" width="3.52" height="8.73"/><rect class="cls-4" x="40.66" y="200.07" width="3.52" height="6.15"/><rect class="cls-4" x="29.31" y="171.22" width="3.52" height="14.88"/><rect class="cls-4" x="29.31" y="182.58" width="14.88" height="3.52"/><rect class="cls-4" x="29.31" y="171.22" width="7.44" height="3.52"/><rect class="cls-4" x="36.74" y="176.43" width="7.44" height="3.52"/><rect class="cls-4" x="35.57" y="171.22" width="3.52" height="8.73"/><rect class="cls-4" x="40.66" y="171.22" width="3.52" height="8.73"/><rect class="cls-4" x="40.66" y="182.58" width="3.52" height="6.15"/><rect class="cls-4" x="29.31" y="153.72" width="3.52" height="14.88"/><rect class="cls-4" x="29.31" y="165.08" width="14.88" height="3.52"/><rect class="cls-4" x="29.31" y="153.72" width="7.44" height="3.52"/><rect class="cls-4" x="36.74" y="158.93" width="7.44" height="3.52"/><rect class="cls-4" x="35.57" y="153.72" width="3.52" height="8.73"/><rect class="cls-4" x="40.66" y="153.72" width="3.52" height="8.73"/><rect class="cls-4" x="40.66" y="165.08" width="3.52" height="6.15"/><rect class="cls-4" x="29.31" y="136.23" width="3.52" height="14.88"/><rect class="cls-4" x="29.31" y="147.58" width="14.88" height="3.52"/><rect class="cls-4" x="29.31" y="136.23" width="7.44" height="3.52"/><rect class="cls-4" x="36.74" y="141.43" width="7.44" height="3.52"/><rect class="cls-4" x="35.57" y="136.23" width="3.52" height="8.73"/><rect class="cls-4" x="40.66" y="136.23" width="3.52" height="8.73"/><rect class="cls-4" x="40.66" y="147.58" width="3.52" height="6.15"/><rect class="cls-4" x="29.31" y="118.73" width="3.52" height="14.88"/><rect class="cls-4" x="29.31" y="130.08" width="14.88" height="3.52"/><rect class="cls-4" x="29.31" y="118.73" width="7.44" height="3.52"/><rect class="cls-4" x="36.74" y="123.94" width="7.44" height="3.52"/><rect class="cls-4" x="35.57" y="118.73" width="3.52" height="8.73"/><rect class="cls-4" x="40.66" y="118.73" width="3.52" height="8.73"/><rect class="cls-4" x="40.66" y="130.08" width="3.52" height="6.15"/><rect class="cls-4" x="29.31" y="101.23" width="3.52" height="14.88"/><rect class="cls-4" x="29.31" y="112.58" width="14.88" height="3.52"/><rect class="cls-4" x="29.31" y="101.23" width="7.44" height="3.52"/><rect class="cls-4" x="36.74" y="106.44" width="7.44" height="3.52"/><rect class="cls-4" x="35.57" y="101.23" width="3.52" height="8.73"/><rect class="cls-4" x="40.66" y="101.23" width="3.52" height="8.73"/><rect class="cls-4" x="40.66" y="112.58" width="3.52" height="6.15"/><rect class="cls-4" x="29.31" y="83.73" width="3.52" height="14.88"/><rect class="cls-4" x="29.31" y="95.08" width="14.88" height="3.52"/><rect class="cls-4" x="29.31" y="83.73" width="7.44" height="3.52"/><rect class="cls-4" x="36.74" y="88.94" width="7.44" height="3.52"/><rect class="cls-4" x="35.57" y="83.73" width="3.52" height="8.73"/><rect class="cls-4" x="40.66" y="83.73" width="3.52" height="8.73"/><rect class="cls-4" x="40.66" y="95.08" width="3.52" height="6.15"/><rect class="cls-4" x="29.31" y="66.23" width="3.52" height="14.88"/><rect class="cls-4" x="29.31" y="77.59" width="14.88" height="3.52"/><rect class="cls-4" x="29.31" y="66.23" width="7.44" height="3.52"/><rect class="cls-4" x="36.74" y="71.44" width="7.44" height="3.52"/><rect class="cls-4" x="35.57" y="66.23" width="3.52" height="8.73"/><rect class="cls-4" x="40.66" y="66.23" width="3.52" height="8.73"/><rect class="cls-4" x="40.66" y="77.59" width="3.52" height="6.15"/><rect class="cls-4" x="29.31" y="48.73" width="3.52" height="14.88"/><rect class="cls-4" x="29.31" y="60.09" width="14.88" height="3.52"/><rect class="cls-4" x="29.31" y="48.73" width="7.44" height="3.52"/><rect class="cls-4" x="36.74" y="53.94" width="7.44" height="3.52"/><rect class="cls-4" x="35.57" y="48.73" width="3.52" height="8.73"/><rect class="cls-4" x="40.66" y="48.73" width="3.52" height="8.73"/><rect class="cls-4" x="40.66" y="60.09" width="3.52" height="6.15"/><rect class="cls-4" x="48.12" y="32.55" width="14.88" height="3.52"/><rect class="cls-4" x="48.12" y="32.55" width="3.52" height="14.88"/><rect class="cls-4" x="59.47" y="32.55" width="3.52" height="7.44"/><rect class="cls-4" x="54.26" y="39.98" width="3.52" height="7.44"/><rect class="cls-4" x="54.26" y="38.81" width="8.73" height="3.52"/><rect class="cls-4" x="54.26" y="43.9" width="8.73" height="3.52"/><rect class="cls-4" x="45.49" y="43.9" width="6.15" height="3.52"/><rect class="cls-4" x="65.61" y="32.55" width="14.88" height="3.52"/><rect class="cls-4" x="65.61" y="32.55" width="3.52" height="14.88"/><rect class="cls-4" x="76.97" y="32.55" width="3.52" height="7.44"/><rect class="cls-4" x="71.76" y="39.98" width="3.52" height="7.44"/><rect class="cls-4" x="71.76" y="38.81" width="8.73" height="3.52"/><rect class="cls-4" x="71.76" y="43.9" width="8.73" height="3.52"/><rect class="cls-4" x="62.99" y="43.9" width="6.15" height="3.52"/><rect class="cls-4" x="83.11" y="32.55" width="14.88" height="3.52"/><rect class="cls-4" x="83.11" y="32.55" width="3.52" height="14.88"/><rect class="cls-4" x="94.47" y="32.55" width="3.52" height="7.44"/><rect class="cls-4" x="89.26" y="39.98" width="3.52" height="7.44"/><rect class="cls-4" x="89.26" y="38.81" width="8.73" height="3.52"/><rect class="cls-4" x="89.26" y="43.9" width="8.73" height="3.52"/><rect class="cls-4" x="80.49" y="43.9" width="6.15" height="3.52"/><rect class="cls-4" x="100.61" y="32.55" width="14.88" height="3.52"/><rect class="cls-4" x="100.61" y="32.55" width="3.52" height="14.88"/><rect class="cls-4" x="111.96" y="32.55" width="3.52" height="7.44"/><rect class="cls-4" x="106.76" y="39.98" width="3.52" height="7.44"/><rect class="cls-4" x="106.76" y="38.81" width="8.73" height="3.52"/><rect class="cls-4" x="106.76" y="43.9" width="8.73" height="3.52"/><rect class="cls-4" x="97.99" y="43.9" width="6.15" height="3.52"/><rect class="cls-4" x="118.11" y="32.55" width="14.88" height="3.52"/><rect class="cls-4" x="118.11" y="32.55" width="3.52" height="14.88"/><rect class="cls-4" x="129.46" y="32.55" width="3.52" height="7.44"/><rect class="cls-4" x="124.26" y="39.98" width="3.52" height="7.44"/><rect class="cls-4" x="124.26" y="38.81" width="8.73" height="3.52"/><rect class="cls-4" x="124.26" y="43.9" width="8.73" height="3.52"/><rect class="cls-4" x="115.49" y="43.9" width="6.15" height="3.52"/><rect class="cls-4" x="135.61" y="32.55" width="14.88" height="3.52"/><rect class="cls-4" x="135.61" y="32.55" width="3.52" height="14.88"/><rect class="cls-4" x="146.96" y="32.55" width="3.52" height="7.44"/><rect class="cls-4" x="141.75" y="39.98" width="3.52" height="7.44"/><rect class="cls-4" x="141.75" y="38.81" width="8.73" height="3.52"/><rect class="cls-4" x="141.75" y="43.9" width="8.73" height="3.52"/><rect class="cls-4" x="132.99" y="43.9" width="6.15" height="3.52"/><rect class="cls-4" x="153.11" y="32.55" width="14.88" height="3.52"/><rect class="cls-4" x="153.11" y="32.55" width="3.52" height="14.88"/><rect class="cls-4" x="164.46" y="32.55" width="3.52" height="7.44"/><rect class="cls-4" x="159.25" y="39.98" width="3.52" height="7.44"/><rect class="cls-4" x="159.25" y="38.81" width="8.73" height="3.52"/><rect class="cls-4" x="159.25" y="43.9" width="8.73" height="3.52"/><rect class="cls-4" x="150.48" y="43.9" width="6.15" height="3.52"/><rect class="cls-4" x="170.61" y="32.55" width="14.88" height="3.52"/><rect class="cls-4" x="170.61" y="32.55" width="3.52" height="14.88"/><rect class="cls-4" x="181.96" y="32.55" width="3.52" height="7.44"/><rect class="cls-4" x="176.75" y="39.98" width="3.52" height="7.44"/><rect class="cls-4" x="176.75" y="38.81" width="8.73" height="3.52"/><rect class="cls-4" x="176.75" y="43.9" width="8.73" height="3.52"/><rect class="cls-4" x="167.98" y="43.9" width="6.15" height="3.52"/><rect class="cls-4" x="188.1" y="32.55" width="14.88" height="3.52"/><rect class="cls-4" x="188.1" y="32.55" width="3.52" height="14.88"/><rect class="cls-4" x="199.46" y="32.55" width="3.52" height="7.44"/><rect class="cls-4" x="194.25" y="39.98" width="3.52" height="7.44"/><rect class="cls-4" x="194.25" y="38.81" width="8.73" height="3.52"/><rect class="cls-4" x="194.25" y="43.9" width="8.73" height="3.52"/><rect class="cls-4" x="185.48" y="43.9" width="6.15" height="3.52"/><rect class="cls-4" x="205.6" y="32.55" width="14.88" height="3.52"/><rect class="cls-4" x="205.6" y="32.55" width="3.52" height="14.88"/><rect class="cls-4" x="216.96" y="32.55" width="3.52" height="7.44"/><rect class="cls-4" x="211.75" y="39.98" width="3.52" height="7.44"/><rect class="cls-4" x="211.75" y="38.81" width="8.73" height="3.52"/><rect class="cls-4" x="211.75" y="43.9" width="8.73" height="3.52"/><rect class="cls-4" x="202.98" y="43.9" width="6.15" height="3.52"/><rect class="cls-4" x="223.1" y="32.55" width="14.88" height="3.52"/><rect class="cls-4" x="223.1" y="32.55" width="3.52" height="14.88"/><rect class="cls-4" x="234.45" y="32.55" width="3.52" height="7.44"/><rect class="cls-4" x="229.25" y="39.98" width="3.52" height="7.44"/><rect class="cls-4" x="229.25" y="38.81" width="8.73" height="3.52"/><rect class="cls-4" x="229.25" y="43.9" width="8.73" height="3.52"/><rect class="cls-4" x="220.48" y="43.9" width="6.15" height="3.52"/><rect class="cls-4" x="240.6" y="32.55" width="14.88" height="3.52"/><rect class="cls-4" x="240.6" y="32.55" width="3.52" height="14.88"/><rect class="cls-4" x="251.95" y="32.55" width="3.52" height="7.44"/><rect class="cls-4" x="246.74" y="39.98" width="3.52" height="7.44"/><rect class="cls-4" x="246.74" y="38.81" width="8.73" height="3.52"/><rect class="cls-4" x="246.74" y="43.9" width="8.73" height="3.52"/><rect class="cls-4" x="237.98" y="43.9" width="6.15" height="3.52"/><rect class="cls-4" x="258.1" y="32.55" width="14.88" height="3.52"/><rect class="cls-4" x="258.1" y="32.55" width="3.52" height="14.88"/><rect class="cls-4" x="269.45" y="32.55" width="3.52" height="7.44"/><rect class="cls-4" x="264.24" y="39.98" width="3.52" height="7.44"/><rect class="cls-4" x="264.24" y="38.81" width="8.73" height="3.52"/><rect class="cls-4" x="264.24" y="43.9" width="8.73" height="3.52"/><rect class="cls-4" x="255.48" y="43.9" width="6.15" height="3.52"/><g class="cls-5"><rect class="cls-4" x="285.64" y="401.32" width="3.52" height="14.88"/><rect class="cls-4" x="274.28" y="401.32" width="14.88" height="3.52"/><rect class="cls-4" x="281.72" y="412.68" width="7.44" height="3.52"/><rect class="cls-4" x="274.28" y="407.47" width="7.44" height="3.52"/><rect class="cls-4" x="279.37" y="407.47" width="3.52" height="8.73"/><rect class="cls-4" x="274.28" y="407.47" width="3.52" height="8.73"/><rect class="cls-4" x="274.28" y="398.7" width="3.52" height="6.15"/></g><g class="cls-6"><rect class="cls-4" x="272.97" y="411.37" width="14.88" height="3.52"/><rect class="cls-4" x="284.33" y="400.01" width="3.52" height="14.88"/><rect class="cls-4" x="272.97" y="407.45" width="3.52" height="7.44"/><rect class="cls-4" x="278.18" y="400.01" width="3.52" height="7.44"/><rect class="cls-4" x="272.97" y="405.1" width="8.73" height="3.52"/><rect class="cls-4" x="272.97" y="400.01" width="8.73" height="3.52"/><rect class="cls-4" x="284.33" y="400.01" width="6.15" height="3.52"/></g><g class="cls-7"><rect class="cls-4" x="28" y="411.37" width="14.88" height="3.52"/><rect class="cls-4" x="39.35" y="400.01" width="3.52" height="14.88"/><rect class="cls-4" x="28" y="407.45" width="3.52" height="7.44"/><rect class="cls-4" x="33.2" y="400.01" width="3.52" height="7.44"/><rect class="cls-4" x="28" y="405.1" width="8.73" height="3.52"/><rect class="cls-4" x="28" y="400.01" width="8.73" height="3.52"/><rect class="cls-4" x="39.35" y="400.01" width="6.15" height="3.52"/></g><g class="cls-8"><rect class="cls-4" x="29.31" y="398.7" width="3.52" height="14.88"/><rect class="cls-4" x="29.31" y="410.06" width="14.88" height="3.52"/><rect class="cls-4" x="29.31" y="398.7" width="7.44" height="3.52"/><rect class="cls-4" x="36.74" y="403.91" width="7.44" height="3.52"/><rect class="cls-4" x="35.57" y="398.7" width="3.52" height="8.73"/><rect class="cls-4" x="40.66" y="398.7" width="3.52" height="8.73"/><rect class="cls-4" x="40.66" y="410.06" width="3.52" height="6.15"/></g><g class="cls-9"><rect class="cls-4" x="29.31" y="31.24" width="3.52" height="14.88"/><rect class="cls-4" x="29.31" y="42.59" width="14.88" height="3.52"/><rect class="cls-4" x="29.31" y="31.24" width="7.44" height="3.52"/><rect class="cls-4" x="36.74" y="36.44" width="7.44" height="3.52"/><rect class="cls-4" x="35.57" y="31.24" width="3.52" height="8.73"/><rect class="cls-4" x="40.66" y="31.24" width="3.52" height="8.73"/><rect class="cls-4" x="40.66" y="42.59" width="3.52" height="6.15"/></g><g class="cls-10"><rect class="cls-4" x="30.62" y="32.55" width="14.88" height="3.52"/><rect class="cls-4" x="30.62" y="32.55" width="3.52" height="14.88"/><rect class="cls-4" x="41.97" y="32.55" width="3.52" height="7.44"/><rect class="cls-4" x="36.76" y="39.98" width="3.52" height="7.44"/><rect class="cls-4" x="36.76" y="38.81" width="8.73" height="3.52"/><rect class="cls-4" x="36.76" y="43.9" width="8.73" height="3.52"/><rect class="cls-4" x="28" y="43.9" width="6.15" height="3.52"/></g><g class="cls-11"><rect class="cls-4" x="275.6" y="32.55" width="14.88" height="3.52"/><rect class="cls-4" x="275.6" y="32.55" width="3.52" height="14.88"/><rect class="cls-4" x="286.95" y="32.55" width="3.52" height="7.44"/><rect class="cls-4" x="281.74" y="39.98" width="3.52" height="7.44"/><rect class="cls-4" x="281.74" y="38.81" width="8.73" height="3.52"/><rect class="cls-4" x="281.74" y="43.9" width="8.73" height="3.52"/><rect class="cls-4" x="272.97" y="43.9" width="6.15" height="3.52"/></g><g class="cls-12"><rect class="cls-4" x="285.64" y="33.86" width="3.52" height="14.88"/><rect class="cls-4" x="274.28" y="33.86" width="14.88" height="3.52"/><rect class="cls-4" x="281.72" y="45.21" width="7.44" height="3.52"/><rect class="cls-4" x="274.28" y="40" width="7.44" height="3.52"/><rect class="cls-4" x="279.37" y="40" width="3.52" height="8.73"/><rect class="cls-4" x="274.28" y="40" width="3.52" height="8.73"/><rect class="cls-4" x="274.28" y="31.24" width="3.52" height="6.15"/></g><rect class="cls-13" x="2.5" y="2.5" width="311.12" height="49.34" rx="23.58" ry="23.58"/><path class="cls-14" d="M290,5a21.1,21.1,0,0,1,21.08,21.08v2.19A21.1,21.1,0,0,1,290,49.34h-264A21.1,21.1,0,0,1,5,28.27V26.08A21.1,21.1,0,0,1,26.08,5H290m0-5h-264A26.15,26.15,0,0,0,0,26.08v2.19A26.15,26.15,0,0,0,26.08,54.34H290a26.15,26.15,0,0,0,26.08-26.08V26.08A26.15,26.15,0,0,0,290,0Z"/><path class="cls-13" d="M27.35,39.39A12.22,12.22,0,1,1,39.57,27.17,12.23,12.23,0,0,1,27.35,39.39Z"/><path class="cls-14" d="M27.35,17.46a9.72,9.72,0,1,1-9.72,9.72,9.73,9.73,0,0,1,9.72-9.72m0-5A14.72,14.72,0,1,0,42.07,27.17,14.72,14.72,0,0,0,27.35,12.46Z"/><path class="cls-13" d="M288.79,39.39A12.22,12.22,0,1,1,301,27.17,12.23,12.23,0,0,1,288.79,39.39Z"/><path class="cls-14" d="M288.79,17.46a9.72,9.72,0,1,1-9.72,9.72,9.73,9.73,0,0,1,9.72-9.72m0-5A14.72,14.72,0,1,0,303.5,27.17a14.72,14.72,0,0,0-14.72-14.72Z"/><rect class="cls-13" x="2.5" y="395.17" width="311.12" height="49.34" rx="23.58" ry="23.58"/><path class="cls-14" d="M290,397.67a21.1,21.1,0,0,1,21.08,21.08v2.19A21.1,21.1,0,0,1,290,442h-264A21.1,21.1,0,0,1,5,420.93v-2.19a21.1,21.1,0,0,1,21.08-21.08H290m0-5h-264A26.15,26.15,0,0,0,0,418.74v2.19A26.15,26.15,0,0,0,26.08,447H290a26.15,26.15,0,0,0,26.08-26.08v-2.19A26.15,26.15,0,0,0,290,392.67Z"/><path class="cls-13" d="M27.35,432.05a12.22,12.22,0,1,1,12.22-12.22A12.23,12.23,0,0,1,27.35,432.05Z"/><path class="cls-14" d="M27.35,410.12a9.72,9.72,0,1,1-9.72,9.72,9.73,9.73,0,0,1,9.72-9.72m0-5a14.72,14.72,0,1,0,14.72,14.72,14.72,14.72,0,0,0-14.72-14.72Z"/><path class="cls-13" d="M288.79,432.05A12.22,12.22,0,1,1,301,419.84,12.23,12.23,0,0,1,288.79,432.05Z"/><path class="cls-14" d="M288.79,410.12a9.72,9.72,0,1,1-9.72,9.72,9.73,9.73,0,0,1,9.72-9.72m0-5a14.72,14.72,0,1,0,14.72,14.72,14.72,14.72,0,0,0-14.72-14.72Z"/><path class="cls-13" d="M158.06,269.69a99.63,99.63,0,1,1,99.63-99.63A99.74,99.74,0,0,1,158.06,269.69Z"/><path class="cls-14" d="M158.06,72.93a97.13,97.13,0,1,1-97.13,97.13,97.24,97.24,0,0,1,97.13-97.13m0-5A102.13,102.13,0,1,0,260.19,170.06,102.13,102.13,0,0,0,158.06,67.93Z"/></g></g></svg>