<svg enable-background="new 320 187.8 1920.1 175.9" viewBox="320 187.8 1920.1 175.9" xmlns="http://www.w3.org/2000/svg" xmlns:xlink="http://www.w3.org/1999/xlink"><linearGradient id="a" gradientTransform="matrix(1 0 0 -1 0 805.6)" gradientUnits="userSpaceOnUse" x1="1280.052" x2="1280.052" y1="533.358" y2="441.904"><stop offset="0" stop-color="#1da5bf"/><stop offset=".054" stop-color="#1c9cb6"/><stop offset=".999" stop-color="#1da5bf"/></linearGradient><path d="m320 273.4c-.4 0-.7 0-1.1 0" fill="#b2e6ea"/><path d="m320 363.7h1721v-67.8s-248 72.2-380 25.1-344-81.1-540-4.4-520 39.4-613-12.1c-41.8-23.2-114.2-33-188-30.9" fill="#b2e6ea"/><path d="m837.5 363.7c-50.5-10.3-91.5-23.6-116.5-37.6-88.9-50-315.6-39-401 20.4" fill="#66c6d3"/><path d="m2240 357.9.1-42s-234.1 57.5-366.1 18-344-67.9-540-3.7c-30.4 9.9-63.1 17.7-97.2 23.5" fill="#66c6d3"/><path d="m2240 363.7.1-49.4c-94-47.7-302.7-54.7-387.1-10.9-93 48.3-417 83.2-613 11.3s-408-40-540 4.1-380-23.5-380-23.5v63.6 4.8" fill="url(#a)"/></svg>