<?xml version="1.0" encoding="utf-8"?>
<!-- Generator: Adobe Illustrator 19.0.0, SVG Export Plug-In . SVG Version: 6.00 Build 0)  -->
<svg version="1.1" id="Layer_1" xmlns="http://www.w3.org/2000/svg" xmlns:xlink="http://www.w3.org/1999/xlink" x="0px" y="0px"
	 viewBox="320 187.8 1920.1 175.9" style="enable-background:new 320 187.8 1920.1 175.9;" xml:space="preserve">
<style type="text/css">
	.st0{fill:#B2E6EA;}
	.st1{fill:#66C6D3;}
	.st2{fill:url(#XMLID_8_);}
</style>
<path id="XMLID_4_" class="st0" d="M320,273.4c-0.4,0-0.7,0-1.1,0"/>
<path id="XMLID_1_" class="st0" d="M320,363.7h1721v-67.8c0,0-248,72.2-380,25.1s-344-81.1-540-4.4S601,356,508,304.5
	c-41.8-23.2-114.2-33-188-30.9"/>
<path id="XMLID_3_" class="st1" d="M837.5,363.7c-50.5-10.3-91.5-23.6-116.5-37.6c-88.9-50-315.6-39-401,20.4"/>
<path id="XMLID_7_" class="st1" d="M837.5,363.7"/>
<path id="XMLID_2_" class="st1" d="M2240,357.9l0.1-42c0,0-234.1,57.5-366.1,18s-344-67.9-540-3.7c-30.4,9.9-63.1,17.7-97.2,23.5"/>
<linearGradient id="XMLID_8_" gradientUnits="userSpaceOnUse" x1="1280.0515" y1="533.3581" x2="1280.0515" y2="441.9035" gradientTransform="matrix(1 0 0 -1 0 805.6)">
	<stop  offset="0" style="stop-color:#1DA5BF"/>
	<stop  offset="5.405372e-02" style="stop-color:#1C9CB6"/>
	<stop  offset="0.9987" style="stop-color:#1DA5BF"/>
</linearGradient>
<path id="XMLID_5_" class="st2" d="M2240,363.7l0.1-49.4c-94-47.7-302.7-54.7-387.1-10.9c-93,48.3-417,83.2-613,11.3
	s-408-40-540,4.1s-380-23.5-380-23.5v63.6v4.8"/>
</svg>
