<?xml version="1.0" encoding="utf-8"?>
<!-- Generator: Adobe Illustrator 19.0.0, SVG Export Plug-In . SVG Version: 6.00 Build 0)  -->
<svg version="1.1" id="Layer_1" xmlns="http://www.w3.org/2000/svg" xmlns:xlink="http://www.w3.org/1999/xlink" x="0px" y="0px"
	 viewBox="0 0 618.3 800" style="enable-background:new 0 0 618.3 800;" xml:space="preserve">
<style type="text/css">
	.st0{fill:#EFEAE6;}
	.st1{fill:#E8E3E2;}
	.st2{fill:#D2D1CD;}
	.st3{fill:#DCD7CD;}
	.st4{fill:#EEE9E4;}
	.st5{fill:#C0B399;}
	.st6{fill:#FFCF4A;}
	.st7{fill:#FAB416;}
	.st8{fill:#FFFFFF;}
	.st9{font-family:'RSU';}
	.st10{font-size:22.5335px;}
	.st11{font-family:'RSU-Bold';}
	.st12{font-size:83.682px;}
	.st13{font-size:16.2715px;}
	.st14{fill:#5D4B43;}
	.st15{font-family:'KeepCalm-Medium';}
	.st16{font-size:24px;}
	.st17{fill:url(#เรืองแสง_2_);}
	.st18{fill:#FFF9E6;}
	.st19{fill:none;stroke:#F1E8D2;stroke-width:4;stroke-miterlimit:10;}
	.st20{fill:#E7DFC4;}
	.st21{fill:#FFF19F;}
	.st22{fill:#F3E39D;}
	.st23{fill:#FDDEC9;}
	.st24{fill:#F1D2C2;}
	.st25{fill:#FCB514;}
	.st26{fill:#5C4B43;}
	.st27{fill:#AA9C94;}
	.st28{fill:#E5E4DE;}
	.st29{fill:#FFFDF0;}
	.st30{fill:#191919;}
	.st31{fill:#3B2512;}
	.st32{fill:#D7D7D7;}
	.st33{fill:#C0272D;}
	.st34{fill:#EC1E27;}
	.st35{fill:#EFE093;}
	.st36{fill:#FFF7D2;}
	.st37{fill:#F3EBCC;}
	.st38{fill:#886748;}
	.st39{fill:#664B35;}
	.st40{fill:none;stroke:#E1D8BC;stroke-width:4;stroke-miterlimit:10;}
</style>
<g id="XMLID_490_">
	<rect id="XMLID_728_" x="208.9" y="504.4" class="st0" width="218.6" height="75.5"/>
	<rect id="XMLID_723_" x="208.9" y="504.4" class="st1" width="218.6" height="59"/>
	<polygon id="XMLID_722_" class="st2" points="318.2,677.9 318.2,678.1 225.4,679.1 225.4,704.6 247.4,710.1 264,725.9 275.8,721.1 
		296.2,728.2 318.2,764.4 318.2,764.2 340.3,728 360.7,720.9 372.5,725.6 389,709.9 411,704.4 411,678.8 	"/>
	<path id="XMLID_721_" class="st1" d="M219.6,714.3h-4.9c-3.2,0-5.8-2.6-5.8-5.8V544c0-3.2,2.6-5.8,5.8-5.8h4.9
		c3.2,0,5.8,2.6,5.8,5.8v164.6C225.4,711.7,222.8,714.3,219.6,714.3z"/>
	<path id="XMLID_719_" class="st1" d="M321.1,764.2h-4.9c-3.2,0-5.8-2.6-5.8-5.8V544c0-3.2,2.6-5.8,5.8-5.8h4.9
		c3.2,0,5.8,2.6,5.8,5.8v214.5C326.9,761.6,324.3,764.2,321.1,764.2z"/>
	<path id="XMLID_718_" class="st1" d="M270,729.4H265c-3.2,0-5.8-2.6-5.8-5.8V544c0-3.2,2.6-5.8,5.8-5.8h4.9c3.2,0,5.8,2.6,5.8,5.8
		v179.6C275.8,726.8,273.2,729.4,270,729.4z"/>
	<path id="XMLID_717_" class="st1" d="M421.8,714.3h-4.9c-3.2,0-5.8-2.6-5.8-5.8V544c0-3.2,2.6-5.8,5.8-5.8h4.9
		c3.2,0,5.8,2.6,5.8,5.8v164.6C427.6,711.7,424.9,714.3,421.8,714.3z"/>
	<path id="XMLID_716_" class="st2" d="M247.4,693.8h-10.1c-6.5,0-11.9-5.3-11.9-11.9V561.1c0-6.5,5.3-11.9,11.9-11.9h10.1
		c6.5,0,11.9,5.3,11.9,11.9v120.8C259.2,688.4,253.9,693.8,247.4,693.8z"/>
	<path id="XMLID_715_" class="st2" d="M298.2,693.8h-10.3c-6.7,0-12.1-5.5-12.1-12.1V561.3c0-6.7,5.5-12.1,12.1-12.1h10.3
		c6.7,0,12.1,5.5,12.1,12.1v120.3C310.4,688.3,304.9,693.8,298.2,693.8z"/>
	<path id="XMLID_714_" class="st2" d="M348.8,693.8h-10.1c-6.5,0-11.9-5.3-11.9-11.9V561.1c0-6.5,5.3-11.9,11.9-11.9h10.1
		c6.5,0,11.9,5.3,11.9,11.9v120.8C360.7,688.4,355.4,693.8,348.8,693.8z"/>
	<path id="XMLID_713_" class="st2" d="M398.9,693.8h-10.3c-6.7,0-12.1-5.5-12.1-12.1V561.3c0-6.7,5.5-12.1,12.1-12.1h10.3
		c6.7,0,12.1,5.5,12.1,12.1v120.3C411,688.3,405.6,693.8,398.9,693.8z"/>
	<rect id="XMLID_712_" x="156.4" y="481.6" class="st0" width="324.1" height="47.3"/>
	<rect id="XMLID_494_" x="156.4" y="520.9" class="st3" width="324.1" height="13.5"/>
	<circle id="XMLID_493_" class="st0" cx="197.3" cy="527.5" r="40.8"/>
	<path id="XMLID_492_" class="st1" d="M370.6,729.4h-4.9c-3.2,0-5.8-2.6-5.8-5.8V544c0-3.2,2.6-5.8,5.8-5.8h4.9
		c3.2,0,5.8,2.6,5.8,5.8v179.6C376.4,726.8,373.8,729.4,370.6,729.4z"/>
	<circle id="XMLID_491_" class="st0" cx="439.6" cy="527.5" r="40.8"/>
</g>
<g id="XMLID_462_">
	<g id="XMLID_483_">
		<path id="XMLID_64_" class="st4" d="M222.1,556.7c-12.3,0-22.3-10-22.3-22.3v-9.7c0-12.3,10-22.3,22.3-22.3h191.5
			c12.3,0,22.3,10,22.3,22.3v9.7c0,12.3-10,22.3-22.3,22.3H222.1z"/>
		<g id="XMLID_60_">
			<path id="XMLID_61_" class="st5" d="M413.6,504.9c10.9,0,19.8,8.9,19.8,19.8v9.7c0,10.9-8.9,19.8-19.8,19.8H222.1
				c-10.9,0-19.8-8.9-19.8-19.8v-9.7c0-10.9,8.9-19.8,19.8-19.8H413.6 M413.6,499.9H222.1c-13.6,0-24.8,11.1-24.8,24.8v9.7
				c0,13.6,11.1,24.8,24.8,24.8h191.5c13.6,0,24.8-11.1,24.8-24.8v-9.7C438.4,511.1,427.2,499.9,413.6,499.9L413.6,499.9z"/>
		</g>
	</g>
	<g id="XMLID_470_">
		<g id="XMLID_471_">
			<circle id="XMLID_482_" class="st6" cx="423" cy="537.9" r="21.1"/>
			<path id="XMLID_481_" class="st6" d="M440.3,550c0,0,8.2-16.3,22.7-18c0,0,1.7-0.2,1.6-1.9c-0.1-1.7,0-37.7,0-37.7s0-0.7-0.9-0.7
				c-0.9,0-25.4,15.6-25.4,15.6s-0.9,0.6-0.2,1.5c0.8,0.9,3.3,3.8-0.2,7c-1.8,1.6-14.9,0.9-14.9,0.9L440.3,550z"/>
			<circle id="XMLID_480_" class="st7" cx="423" cy="537.9" r="14.8"/>
			<circle id="XMLID_479_" class="st6" cx="423" cy="537.9" r="7.8"/>
			<path id="XMLID_478_" class="st6" d="M401.9,537.9v19.6c0,0,0,1.5,1.4,1.5c1.5,0.1,19.7,0,19.7,0L401.9,537.9z"/>
		</g>
	</g>
	<g id="XMLID_463_">
		<g id="XMLID_464_">
			<circle id="XMLID_469_" class="st6" cx="211.8" cy="537.9" r="21.1"/>
			<path id="XMLID_468_" class="st6" d="M194.5,550c0,0-8.2-16.3-22.7-18c0,0-1.7-0.2-1.6-1.9c0.1-1.7,0-37.7,0-37.7s0-0.7,0.9-0.7
				c0.9,0,25.4,15.6,25.4,15.6s0.9,0.6,0.2,1.5c-0.8,0.9-3.3,3.8,0.2,7c1.8,1.6,14.9,0.9,14.9,0.9L194.5,550z"/>
			<circle id="XMLID_467_" class="st7" cx="211.8" cy="537.9" r="14.8"/>
			<circle id="XMLID_466_" class="st6" cx="211.8" cy="537.9" r="7.8"/>
			<path id="XMLID_465_" class="st6" d="M232.9,537.9v19.6c0,0,0,1.5-1.4,1.5c-1.5,0.1-19.7,0-19.7,0L232.9,537.9z"/>
		</g>
	</g>
</g>
<g id="XMLID_443_">
	<g id="XMLID_448_">
		<g id="XMLID_456_">
			<path id="XMLID_29_" class="st4" d="M320.1,712.8c-38.8,0-70.4-31.6-70.4-70.4s31.6-70.4,70.4-70.4s70.4,31.6,70.4,70.4
				S358.9,712.8,320.1,712.8z"/>
			<path id="XMLID_20_" class="st5" d="M320.1,574.4c37.5,0,67.9,30.5,67.9,67.9s-30.5,67.9-67.9,67.9s-67.9-30.5-67.9-67.9
				S282.6,574.4,320.1,574.4 M320.1,569.4c-40.3,0-72.9,32.7-72.9,72.9s32.7,72.9,72.9,72.9c40.3,0,72.9-32.7,72.9-72.9
				S360.4,569.4,320.1,569.4L320.1,569.4z"/>
		</g>
		<circle id="XMLID_449_" class="st8" cx="320.1" cy="642.3" r="64.4"/>
	</g>
	<g id="XMLID_444_">
		<text id="XMLID_447_" transform="matrix(1 0 0 1 292.1334 614.2649)" class="st9 st10">ผู้ท้าชิง</text>
		<text id="XMLID_446_" transform="matrix(1 0 0 1 286.0826 671.3723)" class="st11 st12">10</text>
		<text id="XMLID_445_" transform="matrix(1 0 0 1 308.006 687.6174)" class="st9 st13">ท่าน</text>
	</g>
</g>
<g id="XMLID_684_">
	<rect id="XMLID_711_" x="208.9" y="504.4" class="st0" width="218.6" height="75.5"/>
	<rect id="XMLID_710_" x="208.9" y="504.4" class="st1" width="218.6" height="59"/>
	<polygon id="XMLID_709_" class="st2" points="318.2,677.9 318.2,678.1 225.4,679.1 225.4,704.6 247.4,710.1 264,725.9 275.8,721.1 
		296.2,728.2 318.2,764.4 318.2,764.2 340.3,728 360.7,720.9 372.5,725.6 389,709.9 411,704.4 411,678.8 	"/>
	<path id="XMLID_708_" class="st1" d="M219.6,714.3h-4.9c-3.2,0-5.8-2.6-5.8-5.8V544c0-3.2,2.6-5.8,5.8-5.8h4.9
		c3.2,0,5.8,2.6,5.8,5.8v164.6C225.4,711.7,222.8,714.3,219.6,714.3z"/>
	<path id="XMLID_707_" class="st1" d="M321.1,764.2h-4.9c-3.2,0-5.8-2.6-5.8-5.8V544c0-3.2,2.6-5.8,5.8-5.8h4.9
		c3.2,0,5.8,2.6,5.8,5.8v214.5C326.9,761.6,324.3,764.2,321.1,764.2z"/>
	<path id="XMLID_706_" class="st1" d="M270,729.4H265c-3.2,0-5.8-2.6-5.8-5.8V544c0-3.2,2.6-5.8,5.8-5.8h4.9c3.2,0,5.8,2.6,5.8,5.8
		v179.6C275.8,726.8,273.2,729.4,270,729.4z"/>
	<path id="XMLID_699_" class="st1" d="M421.8,714.3h-4.9c-3.2,0-5.8-2.6-5.8-5.8V544c0-3.2,2.6-5.8,5.8-5.8h4.9
		c3.2,0,5.8,2.6,5.8,5.8v164.6C427.6,711.7,424.9,714.3,421.8,714.3z"/>
	<path id="XMLID_698_" class="st2" d="M247.4,693.8h-10.1c-6.5,0-11.9-5.3-11.9-11.9V561.1c0-6.5,5.3-11.9,11.9-11.9h10.1
		c6.5,0,11.9,5.3,11.9,11.9v120.8C259.2,688.4,253.9,693.8,247.4,693.8z"/>
	<path id="XMLID_697_" class="st2" d="M298.2,693.8h-10.3c-6.7,0-12.1-5.5-12.1-12.1V561.3c0-6.7,5.5-12.1,12.1-12.1h10.3
		c6.7,0,12.1,5.5,12.1,12.1v120.3C310.4,688.3,304.9,693.8,298.2,693.8z"/>
	<path id="XMLID_696_" class="st2" d="M348.8,693.8h-10.1c-6.5,0-11.9-5.3-11.9-11.9V561.1c0-6.5,5.3-11.9,11.9-11.9h10.1
		c6.5,0,11.9,5.3,11.9,11.9v120.8C360.7,688.4,355.4,693.8,348.8,693.8z"/>
	<path id="XMLID_695_" class="st2" d="M398.9,693.8h-10.3c-6.7,0-12.1-5.5-12.1-12.1V561.3c0-6.7,5.5-12.1,12.1-12.1h10.3
		c6.7,0,12.1,5.5,12.1,12.1v120.3C411,688.3,405.6,693.8,398.9,693.8z"/>
	<rect id="XMLID_690_" x="156.4" y="481.6" class="st0" width="324.1" height="47.3"/>
	<rect id="XMLID_689_" x="156.4" y="520.9" class="st3" width="324.1" height="13.5"/>
	<circle id="XMLID_688_" class="st0" cx="197.3" cy="527.5" r="40.8"/>
	<path id="XMLID_686_" class="st1" d="M370.6,729.4h-4.9c-3.2,0-5.8-2.6-5.8-5.8V544c0-3.2,2.6-5.8,5.8-5.8h4.9
		c3.2,0,5.8,2.6,5.8,5.8v179.6C376.4,726.8,373.8,729.4,370.6,729.4z"/>
	<circle id="XMLID_685_" class="st0" cx="439.6" cy="527.5" r="40.8"/>
</g>
<g id="XMLID_683_">
	<path id="XMLID_53_" class="st8" d="M191.8,552.4c-12.1,0-22-9.9-22-22v-9.7c0-12.1,9.9-22,22-22h252.8c12.1,0,22,9.9,22,22v9.7
		c0,12.1-9.9,22-22,22H191.8z"/>
	<g id="XMLID_49_">
		<path id="XMLID_50_" class="st6" d="M444.6,501.5c10.6,0,19.2,8.6,19.2,19.2v9.7c0,10.6-8.6,19.2-19.2,19.2H191.8
			c-10.6,0-19.2-8.6-19.2-19.2v-9.7c0-10.6,8.6-19.2,19.2-19.2H444.6 M444.6,495.9H191.8c-13.6,0-24.8,11.1-24.8,24.8v9.7
			c0,13.6,11.1,24.8,24.8,24.8h252.8c13.6,0,24.8-11.1,24.8-24.8v-9.7C469.3,507.1,458.2,495.9,444.6,495.9L444.6,495.9z"/>
	</g>
</g>
<g id="XMLID_679_">
	<g id="XMLID_681_">
		<path id="XMLID_18_" class="st4" d="M319.1,712.8c-38.8,0-70.4-31.6-70.4-70.4s31.6-70.4,70.4-70.4s70.4,31.6,70.4,70.4
			S357.9,712.8,319.1,712.8z"/>
		<path id="XMLID_15_" class="st5" d="M319.1,574.4c37.5,0,67.9,30.5,67.9,67.9s-30.5,67.9-67.9,67.9s-67.9-30.5-67.9-67.9
			S281.6,574.4,319.1,574.4 M319.1,569.4c-40.3,0-72.9,32.7-72.9,72.9s32.7,72.9,72.9,72.9c40.3,0,72.9-32.7,72.9-72.9
			S359.4,569.4,319.1,569.4L319.1,569.4z"/>
	</g>
	<circle id="XMLID_680_" class="st8" cx="319.1" cy="642.3" r="64.4"/>
</g>
<linearGradient id="เรืองแสง_2_" gradientUnits="userSpaceOnUse" x1="318.6426" y1="481.5584" x2="318.6426" y2="71.0773">
	<stop  offset="0" style="stop-color:#FFFFFF"/>
	<stop  offset="1" style="stop-color:#FFFFFF;stop-opacity:0"/>
</linearGradient>
<rect id="เรืองแสง_1_" x="157.7" y="71.1" class="st17" width="321.8" height="410.5"/>
<g id="XMLID_7_">
	<g id="XMLID_383_">
		<path id="XMLID_390_" class="st18" d="M135.9,220c0,0-8,24.7,0,45.5c8,20.7,18.3,5.6,18.3,5.6l43.1-5.6c0,0-7.2-9.6-2.4-20.7
			L135.9,220z"/>
		<g id="XMLID_385_">
			<path id="XMLID_389_" class="st19" d="M190.9,272.9c0,0-7.9-15.1-3.9-26.8"/>
			<path id="XMLID_388_" class="st19" d="M181.8,275c0,0-8.3-19.3-4.2-31"/>
			<path id="XMLID_387_" class="st19" d="M171.9,271.1c0,0-8.3-19.3-4.2-31"/>
			<path id="XMLID_386_" class="st19" d="M162.4,274.7c0,0-5.4-13.1-3-22.2"/>
		</g>
		<path id="XMLID_384_" class="st20" d="M222.8,261.5l-68.6,9.6c0,0-3,5.1-8.3,5.3l55.4,1.8C201.3,278.2,210.8,276.6,222.8,261.5z"
			/>
	</g>
	<g id="XMLID_375_">
		<path id="XMLID_382_" class="st18" d="M199.5,72.5c0,0,5.8-5.7,5-7.2c-0.9-1.6-26.4-9.4-57.8,6.7l28.1,64.8c0,0,22-8.1,31.4-0.7
			L199.5,72.5z"/>
		<g id="XMLID_377_">
			<path id="XMLID_381_" class="st19" d="M178.2,122.4c0,0,15.9-6.2,27.1-0.9"/>
			<path id="XMLID_380_" class="st19" d="M174,112.1c0,0,20.1-6,31.2-0.7"/>
			<path id="XMLID_379_" class="st19" d="M171.2,102.4c0,0,20.1-6,31.2-0.7"/>
			<path id="XMLID_378_" class="st19" d="M166.9,91.7c0,0,16.2-4.1,26.8,0.1"/>
		</g>
		<path id="XMLID_376_" class="st20" d="M206.7,142.3l-0.6-6.2l-6.7-63.6c0,0,4.9-4.4,5-7.2l16.2,59.5c0,0,0.4,2.2-2.5,5.1
			C215.2,132.6,206.7,142.3,206.7,142.3z"/>
	</g>
	<g id="XMLID_372_">
		<path id="XMLID_374_" class="st18" d="M188.8,345.7c0,0-8.8,8-5.6,17.5c3.2,9.6,24.7,6.4,24.7,6.4L188.8,345.7z"/>
		<path id="XMLID_373_" class="st20" d="M251.9,354.5l11.2,75c0,0-28.7,7.2-38.3,7.2s-15.2-3.2-21.5-14.4l-19.9-59
			c0,0,6.4,10.4,24.7,6.4S251.9,354.5,251.9,354.5z"/>
	</g>
	<g id="XMLID_364_">
		<path id="XMLID_371_" class="st18" d="M431.3,348.1c0,0,1.6,8,0,8.8c-1.6,0.8-27.1-7.2-43.9-38.3l59.8-37.5
			c0,0,13.6,19.1,25.5,18.3L431.3,348.1z"/>
		<g id="XMLID_366_">
			<path id="XMLID_370_" class="st19" d="M442,294.9c0,0,9.6,14.1,21.8,16"/>
			<path id="XMLID_369_" class="st19" d="M432.7,301c0,0,13.2,16.4,25.3,18.3"/>
			<path id="XMLID_368_" class="st19" d="M425,307.4c0,0,13.2,16.4,25.3,18.3"/>
			<path id="XMLID_367_" class="st19" d="M415.4,313.8c0,0,11,12.6,22.1,15.1"/>
		</g>
		<path id="XMLID_365_" class="st20" d="M476.7,294.7l-4,4.8l-41.5,48.7c0,0,1.6,6.4,0,8.8l47.1-39.9c0,0,1.6-1.6,0.8-5.6
			S476.7,294.7,476.7,294.7z"/>
	</g>
	<path id="XMLID_363_" class="st18" d="M384.8,37.6c0,0,3.2,14.4,10.4,17.5c7.2,3.2,16.8-8,21.5-17.5l12.8,18.3
		c0,0-3.2,25.5-27.1,31.9c0,0-22.3,4-37.5-29.5L384.8,37.6z"/>
	<g id="XMLID_355_">
		<path id="XMLID_362_" class="st18" d="M497.1,135.9c0,0,8,24.7,0,45.5s-18.3,5.6-18.3,5.6l-43.1-5.6c0,0,7.2-9.6,2.4-20.7
			L497.1,135.9z"/>
		<g id="XMLID_357_">
			<path id="XMLID_361_" class="st19" d="M442,188.8c0,0,7.9-15.1,3.9-26.8"/>
			<path id="XMLID_360_" class="st19" d="M451.2,190.9c0,0,8.3-19.3,4.2-31"/>
			<path id="XMLID_359_" class="st19" d="M461.1,187c0,0,8.3-19.3,4.2-31"/>
			<path id="XMLID_358_" class="st19" d="M470.5,190.6c0,0,5.4-13.1,3-22.2"/>
		</g>
		<path id="XMLID_356_" class="st20" d="M410.2,177.4l68.6,9.6c0,0,3,5.1,8.3,5.3l-55.4,1.8C431.7,194.2,422.1,192.6,410.2,177.4z"
			/>
	</g>
	<g id="XMLID_45_">
		<path id="XMLID_354_" class="st21" d="M278.7,306.1c0,0-32.7,129.6-48.1,145.7c0,0,85.8,21.6,162.6,0.2c0,0-43.9-88.8-47.1-145.2
			L278.7,306.1z"/>
		<path id="XMLID_353_" class="st22" d="M284.2,297.8c0,0-27.3,139.8-40.2,157.1c0,0,71.6,23.3,135.6,0.2c0,0-36.6-95.7-39.3-156.6
			L284.2,297.8z"/>
		<path id="XMLID_352_" class="st23" d="M248.5,354.9c0,0-1-15.9,5.8-28.2c7.1-12.8,13.2-22.8,25-27.4c2.2-0.9,4.4-1.7,6.6-2.4
			l51.2,2.2c0,0,1.4,1,3.7,3c10.5,9,40.3,37.7,48.2,77.1l-12.2,8.3c0,0-12.2-28.2-31.4-44.3c0,0,15.4,64.8,20.5,130.9
			c0,0,8.3,4.5,8.3,9.6h-31.4c0,0-12.2-51.3-21.2-62.2H303c0,0-19.3,39.8-22.5,62.2h-30.2c0,0,0.6-6.4,8.3-8.3
			c0,0,10.9-100.1,23.7-146.3c0,0,1.3-5.7-10.9,5.1c-5.8,5.1-9,12.2-5.8,19.3L248.5,354.9z"/>
		<path id="XMLID_351_" class="st24" d="M315.8,310.6c-17.2-1.4-33.2-2.8-44.9-7.7c2.8-1.3,5.5-2.5,8.4-3.6c2.2-0.9,4.4-1.7,6.6-2.4
			l51.2,2.2c0,0,1.4,1,3.7,3c1.4,1.2,3.3,2.9,5.3,4.8C337.4,310,327.1,311.5,315.8,310.6z"/>
		<path id="XMLID_350_" class="st24" d="M238,239.3c0,0-13.9-1.1-12.6,14.9s25,17.3,25,17.3l-3.2-25.7L238,239.3z"/>
		<polygon id="XMLID_349_" class="st24" points="344.8,306.1 344.1,310.6 348.6,345.9 342.8,340.8 342.2,302.9 		"/>
		<path id="XMLID_348_" class="st6" d="M344.5,298.9l-2.3,11.7l-17.3-4.5v-9.2C324.9,296.9,336.4,294.3,344.5,298.9z"/>
		<path id="XMLID_347_" class="st24" d="M384,239.3c0,0,13.9-1.1,12.6,14.9c-1.3,16-25,17.3-25,17.3l3.2-25.7L384,239.3z"/>
		<path id="XMLID_346_" class="st23" d="M234.4,231.7c0,0,13.5,27,16,40.4c2.6,13.5,26.3,30.8,58.4,28.2s59.7-5.1,64.2-30.8
			c4.5-25.7,14.1-41.1,14.1-41.1s9.6-43.6-5.8-75.7s-53.3-34.7-72.5-35.3c-19.3-0.6-55.8,12.2-68,35.3
			C228.6,175.9,228.6,202.2,234.4,231.7z"/>
		<path id="XMLID_345_" class="st24" d="M387.1,224.6c0,0,9.6-43.6-5.8-75.7s-53.3-34.7-72.5-35.3c-19.3-0.6-55.8,12.2-68,35.3
			c-12.2,23.1-12.2,49.4-6.4,78.9c0,0,2.7,5.5,6,12.7c13.2-0.9,24.5-8.6,30.4-19.6c6.9,7.8,16.9,12.7,28.1,12.7
			c11.1,0,21.1-4.9,28-12.6c4.4,1.8,9.3,2.9,14.4,2.9c3.9,0,7.6-0.6,11.1-1.7c5.6,9.9,15.6,17,27.3,18.6
			C383.5,230.5,387.1,224.6,387.1,224.6z"/>
		<path id="XMLID_344_" class="st6" d="M365.9,474.3l-24.8,2.6l1.7,7h31.4C374.3,483.9,374.3,478.8,365.9,474.3z"/>
		<polygon id="XMLID_343_" class="st25" points="374.1,482.6 342.7,483.1 342.8,483.9 374.3,483.9 		"/>
		<path id="XMLID_342_" class="st6" d="M257.6,474.3l24.8,2.6l-1.7,7h-31.4C249.3,483.9,249.3,478.8,257.6,474.3z"/>
		<polygon id="XMLID_341_" class="st25" points="249.4,482.6 280.9,483.1 280.7,483.9 249.3,483.9 		"/>
		<polygon id="XMLID_340_" class="st8" points="364.7,460.8 340.2,473.6 339.3,470.3 364.4,457.2 		"/>
		<polygon id="XMLID_339_" class="st8" points="365.4,467.8 336.3,459.2 337.3,462.8 365.7,471.2 		"/>
		<polygon id="XMLID_338_" class="st8" points="259.6,463 282.8,475.1 283.7,471.9 260,459.5 		"/>
		<polygon id="XMLID_337_" class="st8" points="259,469.6 286.6,461.4 285.6,464.9 258.7,472.8 		"/>
		<path id="XMLID_335_" class="st24" d="M263.5,432.9c0,0,17.3,6.6,30.3,8.2l2.7-7.6l-31.9-8.9L263.5,432.9z"/>
		<path id="XMLID_332_" class="st24" d="M250.1,346.6l2.9-1.8l-1.3-1.7l1.3-2.8l2.4,3l1.8-1.2l5.3,1.6l0.4,3.7l1.8,0.8
			c-1.3,2.6-2.4,5.3-3.2,7.9l-14.1-3.6C247.4,352.6,248.4,350.4,250.1,346.6z"/>
		<g id="XMLID_284_">
			<path id="XMLID_331_" class="st8" d="M241.9,332.2L241.9,332.2c-2.7,1.7-3.5,5.3-1.8,8l1,1.6c1.7,2.7,5.3,3.5,8,1.8h0
				c2.7-1.7,3.5-5.3,1.8-8l-1-1.6C248.1,331.3,244.5,330.5,241.9,332.2z"/>
			
				<rect id="XMLID_330_" x="251.2" y="341.6" transform="matrix(0.846 -0.5332 0.5332 0.846 -151.5327 190.0171)" class="st26" width="3.9" height="31.4"/>
			
				<rect id="XMLID_329_" x="254.5" y="339.5" transform="matrix(0.846 -0.5332 0.5332 0.846 -149.9363 191.4377)" class="st27" width="3.9" height="31.4"/>
			
				<rect id="XMLID_328_" x="257.7" y="337.5" transform="matrix(0.846 -0.5332 0.5332 0.846 -148.3398 192.8583)" class="st26" width="3.9" height="31.4"/>
			
				<rect id="XMLID_324_" x="242" y="341" transform="matrix(0.846 -0.5332 0.5332 0.846 -145.1399 182.8331)" class="st28" width="3.9" height="3.2"/>
			
				<rect id="XMLID_323_" x="245.2" y="339" transform="matrix(0.846 -0.5332 0.5332 0.846 -143.5435 184.2537)" class="st2" width="3.9" height="3.2"/>
			<polygon id="XMLID_322_" class="st29" points="270.5,377.5 270,366 260.3,372.2 			"/>
			
				<rect id="XMLID_321_" x="248.5" y="336.9" transform="matrix(0.846 -0.5332 0.5332 0.846 -141.9471 185.6743)" class="st28" width="3.9" height="3.2"/>
			<circle id="XMLID_320_" class="st26" cx="261.5" cy="370.6" r="1.9"/>
			<circle id="XMLID_319_" class="st27" cx="264.8" cy="368.6" r="1.9"/>
			<circle id="XMLID_314_" class="st26" cx="268" cy="366.5" r="1.9"/>
			<polygon id="XMLID_285_" class="st30" points="270.5,377.5 270.3,374.2 267.5,376 			"/>
		</g>
		<path id="XMLID_283_" class="st24" d="M333.4,448.4c0,0,19.7,3.8,29.3,3.6l-1-7.9l-31.2-2.9L333.4,448.4z"/>
		<polygon id="XMLID_282_" class="st23" points="246.4,352.9 256.7,346.4 262,348 262.4,351.8 266,353.3 266.3,356.9 268.7,359 
			267.3,362 257,368 252.2,365.9 253.1,362.9 248.9,361.6 250.5,358.4 246.1,356.9 		"/>
		<circle id="XMLID_281_" class="st31" cx="280.6" cy="242.6" r="11.6"/>
		<circle id="XMLID_280_" class="st31" cx="339" cy="242.6" r="11.6"/>
		<path id="XMLID_279_" class="st24" d="M279.3,343.4l0.6-2.6c0,0,32.1-17.3,43-34.7l0.5-7.1l8.3-1l-39.7,45.3H279.3z"/>
		<path id="XMLID_278_" class="st6" d="M271,379.3c0,0,62.9,7.1,82.8,5.8l2.1,14.2c0,0-72.7-9.8-84.9-15.2V379.3z"/>
		<path id="XMLID_277_" class="st25" d="M271,379.5c0,0,59.8,9.4,83.2,7.5l-0.7-3.8l-82.4-5.8V379.5z"/>
		<path id="XMLID_276_" class="st8" d="M324.9,306.1c0,0-16,22.5-45.6,37.2c0,0-7.1,32.7-9.6,35.3c0,0,0,0.6,1.3,0.6
			c1.3,0,76,7.7,82.6,5.5c0,0,2.1,0.3,0.2-2.2s-12.2-68-11.6-71.9C342.8,306.8,324.9,306.1,324.9,306.1z"/>
		<path id="XMLID_254_" class="st8" d="M271,383.8c0,0-9,27.6-14.1,41.1c0,0,62.9,21.8,109.7,21.2c0,0-9-30.2-10.9-46.8L271,383.8z"
			/>
		<polygon id="XMLID_253_" class="st32" points="274.6,430.8 281.2,414 281.2,432.6 		"/>
		<polygon id="XMLID_251_" class="st32" points="296.8,436.6 302.4,417.2 302.4,437.9 		"/>
		<polygon id="XMLID_250_" class="st32" points="322.3,420.4 327,442.5 320,441.4 		"/>
		<g id="XMLID_224_">
			<circle id="XMLID_248_" class="st33" cx="310" cy="276" r="7.2"/>
			<circle id="XMLID_230_" class="st33" cx="319.8" cy="273.9" r="5.1"/>
			<circle id="XMLID_229_" class="st33" cx="299.8" cy="273.9" r="5.1"/>
			<rect id="XMLID_228_" x="299.8" y="268.8" class="st33" width="20.4" height="5.1"/>
			<path id="XMLID_225_" class="st33" d="M298.1,278.7c0,0,6.3,4.4,12,4.4s11.5-4.4,11.5-4.4l-4.8-3.8l-18.9-0.5L298.1,278.7z"/>
		</g>
		<path id="XMLID_223_" class="st34" d="M297.9,278.6l0,0.1c0.1,0,0.1,0,0.2,0.1v0c0,0,6.3,4.4,12,4.4s11.5-4.4,11.5-4.4l0,0
			c0.4-0.1,0.7-0.3,1-0.5c-0.3-0.2-7.4-3.5-12.9-3.5C304,274.8,297.9,278.6,297.9,278.6z"/>
		<polygon id="XMLID_152_" class="st32" points="348.4,445.2 346.4,422.3 354,445.7 		"/>
		<g id="XMLID_46_">
			<circle id="XMLID_151_" class="st21" cx="245.8" cy="157.5" r="32.3"/>
			<circle id="XMLID_150_" class="st21" cx="317.6" cy="119" r="28.5"/>
			<circle id="XMLID_115_" class="st21" cx="356.9" cy="133.9" r="31.6"/>
			<circle id="XMLID_114_" class="st21" cx="352.4" cy="173.2" r="28.5"/>
			<circle id="XMLID_75_" class="st21" cx="298.9" cy="189.1" r="37.5"/>
			<circle id="XMLID_74_" class="st21" cx="276" cy="128.7" r="29.2"/>
			<circle id="XMLID_73_" class="st21" cx="305.1" cy="151.6" r="29.2"/>
			<circle id="XMLID_72_" class="st21" cx="237.8" cy="196.1" r="37.5"/>
			<circle id="XMLID_71_" class="st21" cx="385" cy="196.8" r="37.5"/>
			<circle id="XMLID_70_" class="st21" cx="341.3" cy="179.4" r="37.5"/>
			<circle id="XMLID_48_" class="st21" cx="373.2" cy="164.2" r="37.5"/>
		</g>
	</g>
	<path id="XMLID_44_" class="st35" d="M396.2,177.9c-2.2-11.6-13.4-19.3-25-17.1c-0.6,0.1-1.2,0.3-1.8,0.4
		c-4.5-11.2-16.4-18-28.8-15.7c-14.1,2.6-23.3,16.1-20.7,30.2c2.6,14.1,16.1,23.3,30.2,20.7c2.6-0.5,5-1.3,7.2-2.5
		c4.6,6.8,13,10.6,21.7,9C390.7,200.8,398.4,189.6,396.2,177.9z"/>
	<g id="XMLID_40_">
		<path id="XMLID_43_" class="st36" d="M371.7,397.9l27.6-14.1c0,0,5.1,78.3,22.5,81.5L396.1,482C396.1,482,374.3,476.2,371.7,397.9
			z"/>
		<path id="XMLID_42_" class="st36" d="M398.3,481l26.3-15.9c0,0,6.4-4,10.7,1.1l1.9,2l-26.4,17.6l-1.3-3.2
			C409.6,482.6,405.8,473,398.3,481z"/>
		<path id="XMLID_41_" class="st37" d="M391,478.1c0,0,5.1,7.1,10.3,2.6l24.6-16.1c0,0-6,1.9-9.2-3.2L391,478.1z"/>
	</g>
	<g id="XMLID_35_">
		<path id="XMLID_39_" class="st6" d="M396.5,166.2l-6.3-17.7l-6.3-17.7l-3.2,1.1l3.4,9.7l-36,12.8c-0.9,0.3-1.4,1.3-1,2.2
			c0.3,0.9,1.3,1.4,2.2,1l36-12.8l1.1,3.2L349,161.3c-0.9,0.3-1.4,1.3-1,2.2s1.3,1.4,2.2,1l37.3-13.3l1.1,3.2l-36,12.8
			c-0.9,0.3-1.4,1.3-1,2.2s1.3,1.4,2.2,1l36-12.8l3.4,9.7L396.5,166.2z"/>
		<path id="XMLID_38_" class="st38" d="M388.6,172.6l6.7-2.4c1.8,1.5,4.3,2.1,6.7,1.3c3.5-1.3,5.4-5.2,4.2-8.7
			c-1.3-3.5-5.2-5.4-8.7-4.2l-13.6,4.8l0,0c-1,0.3-1.8,1-2.4,1.8c-1.5,2-3.5,3.6-5.7,4.7c-0.5,0.2-1,0.5-1.6,0.7
			c-2.4,0.9-4.9,1.1-7.3,0.8c-0.1,0-0.3,0-0.4-0.1c-0.3-0.1-0.6-0.1-0.8-0.2c-0.7-0.2-1.4-0.4-2-0.6c-4.1-1.5-7.6-4.8-9.1-9.3
			c-1.6-4.5-1-9.2,1.2-12.9c0.6-1,1.3-1.9,2-2.7c1.6-1.7,3.7-3.1,6.1-4c2.9-1,6.1-1.2,9-0.5c1,0.2,2,0.2,3-0.1l13.6-4.8
			c3.5-1.3,5.4-5.2,4.2-8.7c-1.3-3.5-5.2-5.4-8.7-4.2c-2.4,0.8-4,2.9-4.4,5.2l-6.7,2.4c-4.4-0.8-9.1-0.4-13.3,1.1
			c-4.4,1.6-8.1,4.2-10.9,7.5c-0.8,0.8-1.4,1.8-2,2.7c-4.2,6.4-5.4,14.7-2.7,22.5c2.8,7.8,9,13.5,16.3,15.8c1.1,0.4,2.2,0.7,3.3,0.8
			c4.3,0.8,8.8,0.5,13.2-1c3.7-1.3,7.2-3.5,9.9-6.3C387.9,173.5,388.2,173.1,388.6,172.6z"/>
		<path id="XMLID_37_" class="st39" d="M364.4,181.2c-1.1-0.2-2.2-0.4-3.3-0.8l2.5-10c1.1,0.4,2.2,0.7,3.3,0.9L364.4,181.2z"/>
		<path id="XMLID_36_" class="st39" d="M355.7,148.2l-8.3-6.2c0.6-1,1.3-1.9,2-2.7l8.2,6.1C356.9,146.3,356.2,147.2,355.7,148.2z"/>
	</g>
	<path id="XMLID_34_" class="st21" d="M393.3,183.3c-2.2-11.6-13.4-19.3-25-17.1c-0.6,0.1-1.2,0.3-1.8,0.4
		c-4.5-11.2-16.4-18-28.8-15.7c-14.1,2.6-23.3,16.1-20.7,30.2c2.6,14.1,16.1,23.3,30.2,20.7c2.6-0.5,5-1.3,7.2-2.5
		c4.6,6.8,13,10.6,21.7,9C387.8,206.1,395.4,194.9,393.3,183.3z"/>
	<path id="XMLID_33_" class="st35" d="M257.6,158.8c-1.9-11.7,6-22.7,17.7-24.6c4-0.7,8-0.1,11.5,1.3c-4.6-3.6-10.6-5.4-16.8-4.4
		c-11.7,1.9-19.6,12.9-17.7,24.6c1.3,7.6,6.4,13.7,13.1,16.4C261.4,168.9,258.5,164.2,257.6,158.8z"/>
	<g id="XMLID_26_">
		<polygon id="XMLID_32_" class="st24" points="379.2,375.5 374.3,382.5 376.8,387.6 389,379.3 388.4,375.5 		"/>
		<polygon id="XMLID_31_" class="st23" points="379.9,378.7 372.7,388.4 377.5,395.7 381.4,394.4 384.3,399.6 395.9,392.4 
			390.6,378.3 		"/>
		
			<rect id="XMLID_30_" x="379.8" y="386.6" transform="matrix(0.866 -0.5 0.5 0.866 -143.8632 244.2001)" class="st24" width="8" height="8"/>
		
			<rect id="XMLID_28_" x="381.3" y="388.1" transform="matrix(0.866 -0.5 0.5 0.866 -143.8632 244.2001)" class="st23" width="4.9" height="4.9"/>
	</g>
	<line id="XMLID_25_" class="st40" x1="376.8" y1="405" x2="396.1" y2="396"/>
	<line id="XMLID_24_" class="st40" x1="377.5" y1="412" x2="396.7" y2="403"/>
	<line id="XMLID_23_" class="st40" x1="378.1" y1="419.1" x2="397.4" y2="410.1"/>
	<line id="XMLID_22_" class="st40" x1="378.8" y1="426.1" x2="398" y2="417.2"/>
	<line id="XMLID_8_" class="st40" x1="380.1" y1="433.2" x2="389.7" y2="428.7"/>
</g>
</svg>
