<svg enable-background="new 0 0 618.3 800" viewBox="0 0 618.3 800" xmlns="http://www.w3.org/2000/svg" xmlns:xlink="http://www.w3.org/1999/xlink"><linearGradient id="a" gradientUnits="userSpaceOnUse" x1="318.6426" x2="318.6426" y1="481.5584" y2="71.0773"><stop offset="0" stop-color="#fff"/><stop offset="1" stop-color="#fff" stop-opacity="0"/></linearGradient><path d="m208.9 504.4h218.6v75.5h-218.6z" fill="#efeae6"/><path d="m208.9 504.4h218.6v59h-218.6z" fill="#e8e3e2"/><path d="m318.2 677.9v.2l-92.8 1v25.5l22 5.5 16.6 15.8 11.8-4.8 20.4 7.1 22 36.2v-.2l22.1-36.2 20.4-7.1 11.8 4.7 16.5-15.7 22-5.5v-25.6z" fill="#d2d1cd"/><path d="m219.6 714.3h-4.9c-3.2 0-5.8-2.6-5.8-5.8v-164.5c0-3.2 2.6-5.8 5.8-5.8h4.9c3.2 0 5.8 2.6 5.8 5.8v164.6c0 3.1-2.6 5.7-5.8 5.7z" fill="#e8e3e2"/><path d="m321.1 764.2h-4.9c-3.2 0-5.8-2.6-5.8-5.8v-214.4c0-3.2 2.6-5.8 5.8-5.8h4.9c3.2 0 5.8 2.6 5.8 5.8v214.5c0 3.1-2.6 5.7-5.8 5.7z" fill="#e8e3e2"/><path d="m270 729.4h-5c-3.2 0-5.8-2.6-5.8-5.8v-179.6c0-3.2 2.6-5.8 5.8-5.8h4.9c3.2 0 5.8 2.6 5.8 5.8v179.6c.1 3.2-2.5 5.8-5.7 5.8z" fill="#e8e3e2"/><path d="m421.8 714.3h-4.9c-3.2 0-5.8-2.6-5.8-5.8v-164.5c0-3.2 2.6-5.8 5.8-5.8h4.9c3.2 0 5.8 2.6 5.8 5.8v164.6c0 3.1-2.7 5.7-5.8 5.7z" fill="#e8e3e2"/><path d="m247.4 693.8h-10.1c-6.5 0-11.9-5.3-11.9-11.9v-120.8c0-6.5 5.3-11.9 11.9-11.9h10.1c6.5 0 11.9 5.3 11.9 11.9v120.8c-.1 6.5-5.4 11.9-11.9 11.9z" fill="#d2d1cd"/><path d="m298.2 693.8h-10.3c-6.7 0-12.1-5.5-12.1-12.1v-120.4c0-6.7 5.5-12.1 12.1-12.1h10.3c6.7 0 12.1 5.5 12.1 12.1v120.3c.1 6.7-5.4 12.2-12.1 12.2z" fill="#d2d1cd"/><path d="m348.8 693.8h-10.1c-6.5 0-11.9-5.3-11.9-11.9v-120.8c0-6.5 5.3-11.9 11.9-11.9h10.1c6.5 0 11.9 5.3 11.9 11.9v120.8c0 6.5-5.3 11.9-11.9 11.9z" fill="#d2d1cd"/><path d="m398.9 693.8h-10.3c-6.7 0-12.1-5.5-12.1-12.1v-120.4c0-6.7 5.5-12.1 12.1-12.1h10.3c6.7 0 12.1 5.5 12.1 12.1v120.3c0 6.7-5.4 12.2-12.1 12.2z" fill="#d2d1cd"/><path d="m156.4 481.6h324.1v47.3h-324.1z" fill="#efeae6"/><path d="m156.4 520.9h324.1v13.5h-324.1z" fill="#dcd7cd"/><circle cx="197.3" cy="527.5" fill="#efeae6" r="40.8"/><path d="m370.6 729.4h-4.9c-3.2 0-5.8-2.6-5.8-5.8v-179.6c0-3.2 2.6-5.8 5.8-5.8h4.9c3.2 0 5.8 2.6 5.8 5.8v179.6c0 3.2-2.6 5.8-5.8 5.8z" fill="#e8e3e2"/><circle cx="439.6" cy="527.5" fill="#efeae6" r="40.8"/><path d="m222.1 556.7c-12.3 0-22.3-10-22.3-22.3v-9.7c0-12.3 10-22.3 22.3-22.3h191.5c12.3 0 22.3 10 22.3 22.3v9.7c0 12.3-10 22.3-22.3 22.3z" fill="#eee9e4"/><path d="m413.6 504.9c10.9 0 19.8 8.9 19.8 19.8v9.7c0 10.9-8.9 19.8-19.8 19.8h-191.5c-10.9 0-19.8-8.9-19.8-19.8v-9.7c0-10.9 8.9-19.8 19.8-19.8zm0-5h-191.5c-13.6 0-24.8 11.1-24.8 24.8v9.7c0 13.6 11.1 24.8 24.8 24.8h191.5c13.6 0 24.8-11.1 24.8-24.8v-9.7c0-13.6-11.2-24.8-24.8-24.8z" fill="#c0b399"/><circle cx="423" cy="537.9" fill="#ffcf4a" r="21.1"/><path d="m440.3 550s8.2-16.3 22.7-18c0 0 1.7-.2 1.6-1.9s0-37.7 0-37.7 0-.7-.9-.7-25.4 15.6-25.4 15.6-.9.6-.2 1.5c.8.9 3.3 3.8-.2 7-1.8 1.6-14.9.9-14.9.9z" fill="#ffcf4a"/><circle cx="423" cy="537.9" fill="#fab416" r="14.8"/><circle cx="423" cy="537.9" fill="#ffcf4a" r="7.8"/><path d="m401.9 537.9v19.6s0 1.5 1.4 1.5c1.5.1 19.7 0 19.7 0z" fill="#ffcf4a"/><circle cx="211.8" cy="537.9" fill="#ffcf4a" r="21.1"/><path d="m194.5 550s-8.2-16.3-22.7-18c0 0-1.7-.2-1.6-1.9s0-37.7 0-37.7 0-.7.9-.7 25.4 15.6 25.4 15.6.9.6.2 1.5c-.8.9-3.3 3.8.2 7 1.8 1.6 14.9.9 14.9.9z" fill="#ffcf4a"/><circle cx="211.8" cy="537.9" fill="#fab416" r="14.8"/><circle cx="211.8" cy="537.9" fill="#ffcf4a" r="7.8"/><path d="m232.9 537.9v19.6s0 1.5-1.4 1.5c-1.5.1-19.7 0-19.7 0z" fill="#ffcf4a"/><path d="m320.1 712.8c-38.8 0-70.4-31.6-70.4-70.4s31.6-70.4 70.4-70.4 70.4 31.6 70.4 70.4-31.6 70.4-70.4 70.4z" fill="#eee9e4"/><path d="m320.1 574.4c37.5 0 67.9 30.5 67.9 67.9s-30.5 67.9-67.9 67.9-67.9-30.5-67.9-67.9 30.4-67.9 67.9-67.9m0-5c-40.3 0-72.9 32.7-72.9 72.9s32.7 72.9 72.9 72.9c40.3 0 72.9-32.7 72.9-72.9s-32.6-72.9-72.9-72.9z" fill="#c0b399"/><circle cx="320.1" cy="642.3" fill="#fff" r="64.4"/><text font-family="'RSU'" font-size="22.5335" transform="translate(292.1334 614.2649)">ผู้ท้าชิง</text><text font-family="'RSU-Bold'" font-size="83.682" transform="translate(286.0826 671.3723)">10</text><text font-family="'RSU'" font-size="16.2715" transform="translate(308.006 687.6174)">ท่าน</text><path d="m208.9 504.4h218.6v75.5h-218.6z" fill="#efeae6"/><path d="m208.9 504.4h218.6v59h-218.6z" fill="#e8e3e2"/><path d="m318.2 677.9v.2l-92.8 1v25.5l22 5.5 16.6 15.8 11.8-4.8 20.4 7.1 22 36.2v-.2l22.1-36.2 20.4-7.1 11.8 4.7 16.5-15.7 22-5.5v-25.6z" fill="#d2d1cd"/><path d="m219.6 714.3h-4.9c-3.2 0-5.8-2.6-5.8-5.8v-164.5c0-3.2 2.6-5.8 5.8-5.8h4.9c3.2 0 5.8 2.6 5.8 5.8v164.6c0 3.1-2.6 5.7-5.8 5.7z" fill="#e8e3e2"/><path d="m321.1 764.2h-4.9c-3.2 0-5.8-2.6-5.8-5.8v-214.4c0-3.2 2.6-5.8 5.8-5.8h4.9c3.2 0 5.8 2.6 5.8 5.8v214.5c0 3.1-2.6 5.7-5.8 5.7z" fill="#e8e3e2"/><path d="m270 729.4h-5c-3.2 0-5.8-2.6-5.8-5.8v-179.6c0-3.2 2.6-5.8 5.8-5.8h4.9c3.2 0 5.8 2.6 5.8 5.8v179.6c.1 3.2-2.5 5.8-5.7 5.8z" fill="#e8e3e2"/><path d="m421.8 714.3h-4.9c-3.2 0-5.8-2.6-5.8-5.8v-164.5c0-3.2 2.6-5.8 5.8-5.8h4.9c3.2 0 5.8 2.6 5.8 5.8v164.6c0 3.1-2.7 5.7-5.8 5.7z" fill="#e8e3e2"/><path d="m247.4 693.8h-10.1c-6.5 0-11.9-5.3-11.9-11.9v-120.8c0-6.5 5.3-11.9 11.9-11.9h10.1c6.5 0 11.9 5.3 11.9 11.9v120.8c-.1 6.5-5.4 11.9-11.9 11.9z" fill="#d2d1cd"/><path d="m298.2 693.8h-10.3c-6.7 0-12.1-5.5-12.1-12.1v-120.4c0-6.7 5.5-12.1 12.1-12.1h10.3c6.7 0 12.1 5.5 12.1 12.1v120.3c.1 6.7-5.4 12.2-12.1 12.2z" fill="#d2d1cd"/><path d="m348.8 693.8h-10.1c-6.5 0-11.9-5.3-11.9-11.9v-120.8c0-6.5 5.3-11.9 11.9-11.9h10.1c6.5 0 11.9 5.3 11.9 11.9v120.8c0 6.5-5.3 11.9-11.9 11.9z" fill="#d2d1cd"/><path d="m398.9 693.8h-10.3c-6.7 0-12.1-5.5-12.1-12.1v-120.4c0-6.7 5.5-12.1 12.1-12.1h10.3c6.7 0 12.1 5.5 12.1 12.1v120.3c0 6.7-5.4 12.2-12.1 12.2z" fill="#d2d1cd"/><path d="m156.4 481.6h324.1v47.3h-324.1z" fill="#efeae6"/><path d="m156.4 520.9h324.1v13.5h-324.1z" fill="#dcd7cd"/><circle cx="197.3" cy="527.5" fill="#efeae6" r="40.8"/><path d="m370.6 729.4h-4.9c-3.2 0-5.8-2.6-5.8-5.8v-179.6c0-3.2 2.6-5.8 5.8-5.8h4.9c3.2 0 5.8 2.6 5.8 5.8v179.6c0 3.2-2.6 5.8-5.8 5.8z" fill="#e8e3e2"/><circle cx="439.6" cy="527.5" fill="#efeae6" r="40.8"/><path d="m191.8 552.4c-12.1 0-22-9.9-22-22v-9.7c0-12.1 9.9-22 22-22h252.8c12.1 0 22 9.9 22 22v9.7c0 12.1-9.9 22-22 22z" fill="#fff"/><path d="m444.6 501.5c10.6 0 19.2 8.6 19.2 19.2v9.7c0 10.6-8.6 19.2-19.2 19.2h-252.8c-10.6 0-19.2-8.6-19.2-19.2v-9.7c0-10.6 8.6-19.2 19.2-19.2zm0-5.6h-252.8c-13.6 0-24.8 11.1-24.8 24.8v9.7c0 13.6 11.1 24.8 24.8 24.8h252.8c13.6 0 24.8-11.1 24.8-24.8v-9.7c-.1-13.6-11.2-24.8-24.8-24.8z" fill="#ffcf4a"/><path d="m319.1 712.8c-38.8 0-70.4-31.6-70.4-70.4s31.6-70.4 70.4-70.4 70.4 31.6 70.4 70.4-31.6 70.4-70.4 70.4z" fill="#eee9e4"/><path d="m319.1 574.4c37.5 0 67.9 30.5 67.9 67.9s-30.5 67.9-67.9 67.9-67.9-30.5-67.9-67.9 30.4-67.9 67.9-67.9m0-5c-40.3 0-72.9 32.7-72.9 72.9s32.7 72.9 72.9 72.9c40.3 0 72.9-32.7 72.9-72.9s-32.6-72.9-72.9-72.9z" fill="#c0b399"/><circle cx="319.1" cy="642.3" fill="#fff" r="64.4"/><path d="m157.7 71.1h321.8v410.5h-321.8z" fill="url(#a)"/><path d="m135.9 220s-8 24.7 0 45.5c8 20.7 18.3 5.6 18.3 5.6l43.1-5.6s-7.2-9.6-2.4-20.7z" fill="#fff9e6"/><path d="m190.9 272.9s-7.9-15.1-3.9-26.8" fill="none" stroke="#f1e8d2" stroke-miterlimit="10" stroke-width="4"/><path d="m181.8 275s-8.3-19.3-4.2-31" fill="none" stroke="#f1e8d2" stroke-miterlimit="10" stroke-width="4"/><path d="m171.9 271.1s-8.3-19.3-4.2-31" fill="none" stroke="#f1e8d2" stroke-miterlimit="10" stroke-width="4"/><path d="m162.4 274.7s-5.4-13.1-3-22.2" fill="none" stroke="#f1e8d2" stroke-miterlimit="10" stroke-width="4"/><path d="m222.8 261.5-68.6 9.6s-3 5.1-8.3 5.3l55.4 1.8s9.5-1.6 21.5-16.7z" fill="#e7dfc4"/><path d="m199.5 72.5s5.8-5.7 5-7.2c-.9-1.6-26.4-9.4-57.8 6.7l28.1 64.8s22-8.1 31.4-.7z" fill="#fff9e6"/><path d="m178.2 122.4s15.9-6.2 27.1-.9" fill="none" stroke="#f1e8d2" stroke-miterlimit="10" stroke-width="4"/><path d="m174 112.1s20.1-6 31.2-.7" fill="none" stroke="#f1e8d2" stroke-miterlimit="10" stroke-width="4"/><path d="m171.2 102.4s20.1-6 31.2-.7" fill="none" stroke="#f1e8d2" stroke-miterlimit="10" stroke-width="4"/><path d="m166.9 91.7s16.2-4.1 26.8.1" fill="none" stroke="#f1e8d2" stroke-miterlimit="10" stroke-width="4"/><path d="m206.7 142.3-.6-6.2-6.7-63.6s4.9-4.4 5-7.2l16.2 59.5s.4 2.2-2.5 5.1c-2.9 2.7-11.4 12.4-11.4 12.4z" fill="#e7dfc4"/><path d="m188.8 345.7s-8.8 8-5.6 17.5c3.2 9.6 24.7 6.4 24.7 6.4z" fill="#fff9e6"/><path d="m251.9 354.5 11.2 75s-28.7 7.2-38.3 7.2-15.2-3.2-21.5-14.4l-19.9-59s6.4 10.4 24.7 6.4 43.8-15.2 43.8-15.2z" fill="#e7dfc4"/><path d="m431.3 348.1s1.6 8 0 8.8-27.1-7.2-43.9-38.3l59.8-37.5s13.6 19.1 25.5 18.3z" fill="#fff9e6"/><path d="m442 294.9s9.6 14.1 21.8 16" fill="none" stroke="#f1e8d2" stroke-miterlimit="10" stroke-width="4"/><path d="m432.7 301s13.2 16.4 25.3 18.3" fill="none" stroke="#f1e8d2" stroke-miterlimit="10" stroke-width="4"/><path d="m425 307.4s13.2 16.4 25.3 18.3" fill="none" stroke="#f1e8d2" stroke-miterlimit="10" stroke-width="4"/><path d="m415.4 313.8s11 12.6 22.1 15.1" fill="none" stroke="#f1e8d2" stroke-miterlimit="10" stroke-width="4"/><path d="m476.7 294.7-4 4.8-41.5 48.7s1.6 6.4 0 8.8l47.1-39.9s1.6-1.6.8-5.6-2.4-16.8-2.4-16.8z" fill="#e7dfc4"/><path d="m384.8 37.6s3.2 14.4 10.4 17.5c7.2 3.2 16.8-8 21.5-17.5l12.8 18.3s-3.2 25.5-27.1 31.9c0 0-22.3 4-37.5-29.5z" fill="#fff9e6"/><path d="m497.1 135.9s8 24.7 0 45.5-18.3 5.6-18.3 5.6l-43.1-5.6s7.2-9.6 2.4-20.7z" fill="#fff9e6"/><path d="m442 188.8s7.9-15.1 3.9-26.8" fill="none" stroke="#f1e8d2" stroke-miterlimit="10" stroke-width="4"/><path d="m451.2 190.9s8.3-19.3 4.2-31" fill="none" stroke="#f1e8d2" stroke-miterlimit="10" stroke-width="4"/><path d="m461.1 187s8.3-19.3 4.2-31" fill="none" stroke="#f1e8d2" stroke-miterlimit="10" stroke-width="4"/><path d="m470.5 190.6s5.4-13.1 3-22.2" fill="none" stroke="#f1e8d2" stroke-miterlimit="10" stroke-width="4"/><path d="m410.2 177.4 68.6 9.6s3 5.1 8.3 5.3l-55.4 1.8c0 .1-9.6-1.5-21.5-16.7z" fill="#e7dfc4"/><path d="m278.7 306.1s-32.7 129.6-48.1 145.7c0 0 85.8 21.6 162.6.2 0 0-43.9-88.8-47.1-145.2z" fill="#fff19f"/><path d="m284.2 297.8s-27.3 139.8-40.2 157.1c0 0 71.6 23.3 135.6.2 0 0-36.6-95.7-39.3-156.6z" fill="#f3e39d"/><path d="m248.5 354.9s-1-15.9 5.8-28.2c7.1-12.8 13.2-22.8 25-27.4 2.2-.9 4.4-1.7 6.6-2.4l51.2 2.2s1.4 1 3.7 3c10.5 9 40.3 37.7 48.2 77.1l-12.2 8.3s-12.2-28.2-31.4-44.3c0 0 15.4 64.8 20.5 130.9 0 0 8.3 4.5 8.3 9.6h-31.4s-12.2-51.3-21.2-62.2h-18.6s-19.3 39.8-22.5 62.2h-30.2s.6-6.4 8.3-8.3c0 0 10.9-100.1 23.7-146.3 0 0 1.3-5.7-10.9 5.1-5.8 5.1-9 12.2-5.8 19.3z" fill="#fddec9"/><path d="m315.8 310.6c-17.2-1.4-33.2-2.8-44.9-7.7 2.8-1.3 5.5-2.5 8.4-3.6 2.2-.9 4.4-1.7 6.6-2.4l51.2 2.2s1.4 1 3.7 3c1.4 1.2 3.3 2.9 5.3 4.8-8.7 3.1-19 4.6-30.3 3.7z" fill="#f1d2c2"/><path d="m238 239.3s-13.9-1.1-12.6 14.9 25 17.3 25 17.3l-3.2-25.7z" fill="#f1d2c2"/><path d="m344.8 306.1-.7 4.5 4.5 35.3-5.8-5.1-.6-37.9z" fill="#f1d2c2"/><path d="m344.5 298.9-2.3 11.7-17.3-4.5v-9.2s11.5-2.6 19.6 2z" fill="#ffcf4a"/><path d="m384 239.3s13.9-1.1 12.6 14.9-25 17.3-25 17.3l3.2-25.7z" fill="#f1d2c2"/><path d="m234.4 231.7s13.5 27 16 40.4c2.6 13.5 26.3 30.8 58.4 28.2s59.7-5.1 64.2-30.8 14.1-41.1 14.1-41.1 9.6-43.6-5.8-75.7-53.3-34.7-72.5-35.3c-19.3-.6-55.8 12.2-68 35.3-12.2 23.2-12.2 49.5-6.4 79z" fill="#fddec9"/><path d="m387.1 224.6s9.6-43.6-5.8-75.7-53.3-34.7-72.5-35.3c-19.3-.6-55.8 12.2-68 35.3s-12.2 49.4-6.4 78.9c0 0 2.7 5.5 6 12.7 13.2-.9 24.5-8.6 30.4-19.6 6.9 7.8 16.9 12.7 28.1 12.7 11.1 0 21.1-4.9 28-12.6 4.4 1.8 9.3 2.9 14.4 2.9 3.9 0 7.6-.6 11.1-1.7 5.6 9.9 15.6 17 27.3 18.6 3.8-10.3 7.4-16.2 7.4-16.2z" fill="#f1d2c2"/><path d="m365.9 474.3-24.8 2.6 1.7 7h31.4c.1 0 .1-5.1-8.3-9.6z" fill="#ffcf4a"/><path d="m374.1 482.6-31.4.5.1.8h31.5z" fill="#fcb514"/><path d="m257.6 474.3 24.8 2.6-1.7 7h-31.4s0-5.1 8.3-9.6z" fill="#ffcf4a"/><path d="m249.4 482.6 31.5.5-.2.8h-31.4z" fill="#fcb514"/><path d="m364.7 460.8-24.5 12.8-.9-3.3 25.1-13.1z" fill="#fff"/><path d="m365.4 467.8-29.1-8.6 1 3.6 28.4 8.4z" fill="#fff"/><path d="m259.6 463 23.2 12.1.9-3.2-23.7-12.4z" fill="#fff"/><path d="m259 469.6 27.6-8.2-1 3.5-26.9 7.9z" fill="#fff"/><path d="m263.5 432.9s17.3 6.6 30.3 8.2l2.7-7.6-31.9-8.9z" fill="#f1d2c2"/><path d="m250.1 346.6 2.9-1.8-1.3-1.7 1.3-2.8 2.4 3 1.8-1.2 5.3 1.6.4 3.7 1.8.8c-1.3 2.6-2.4 5.3-3.2 7.9l-14.1-3.6c0 .1 1-2.1 2.7-5.9z" fill="#f1d2c2"/><path d="m241.9 332.2c-2.7 1.7-3.5 5.3-1.8 8l1 1.6c1.7 2.7 5.3 3.5 8 1.8s3.5-5.3 1.8-8l-1-1.6c-1.8-2.7-5.4-3.5-8-1.8z" fill="#fff"/><path d="m251.2 341.6h3.9v31.4h-3.9z" fill="#5c4b43" transform="matrix(.846 -.5332 .5332 .846 -151.5327 190.0171)"/><path d="m254.5 339.5h3.9v31.4h-3.9z" fill="#aa9c94" transform="matrix(.846 -.5332 .5332 .846 -149.9363 191.4377)"/><path d="m257.7 337.5h3.9v31.4h-3.9z" fill="#5c4b43" transform="matrix(.846 -.5332 .5332 .846 -148.3398 192.8583)"/><path d="m242 341h3.9v3.2h-3.9z" fill="#e5e4de" transform="matrix(.846 -.5332 .5332 .846 -145.1399 182.8331)"/><path d="m245.2 339h3.9v3.2h-3.9z" fill="#d2d1cd" transform="matrix(.846 -.5332 .5332 .846 -143.5435 184.2537)"/><path d="m270.5 377.5-.5-11.5-9.7 6.2z" fill="#fffdf0"/><path d="m248.5 336.9h3.9v3.2h-3.9z" fill="#e5e4de" transform="matrix(.846 -.5332 .5332 .846 -141.9471 185.6743)"/><circle cx="261.5" cy="370.6" fill="#5c4b43" r="1.9"/><circle cx="264.8" cy="368.6" fill="#aa9c94" r="1.9"/><circle cx="268" cy="366.5" fill="#5c4b43" r="1.9"/><path d="m270.5 377.5-.2-3.3-2.8 1.8z" fill="#191919"/><path d="m333.4 448.4s19.7 3.8 29.3 3.6l-1-7.9-31.2-2.9z" fill="#f1d2c2"/><path d="m246.4 352.9 10.3-6.5 5.3 1.6.4 3.8 3.6 1.5.3 3.6 2.4 2.1-1.4 3-10.3 6-4.8-2.1.9-3-4.2-1.3 1.6-3.2-4.4-1.5z" fill="#fddec9"/><circle cx="280.6" cy="242.6" fill="#3b2512" r="11.6"/><circle cx="339" cy="242.6" fill="#3b2512" r="11.6"/><path d="m279.3 343.4.6-2.6s32.1-17.3 43-34.7l.5-7.1 8.3-1-39.7 45.3h-12.7z" fill="#f1d2c2"/><path d="m271 379.3s62.9 7.1 82.8 5.8l2.1 14.2s-72.7-9.8-84.9-15.2z" fill="#ffcf4a"/><path d="m271 379.5s59.8 9.4 83.2 7.5l-.7-3.8-82.4-5.8v2.1z" fill="#fcb514"/><path d="m324.9 306.1s-16 22.5-45.6 37.2c0 0-7.1 32.7-9.6 35.3 0 0 0 .6 1.3.6s76 7.7 82.6 5.5c0 0 2.1.3.2-2.2s-12.2-68-11.6-71.9c.6-3.8-17.3-4.5-17.3-4.5z" fill="#fff"/><path d="m271 383.8s-9 27.6-14.1 41.1c0 0 62.9 21.8 109.7 21.2 0 0-9-30.2-10.9-46.8z" fill="#fff"/><path d="m274.6 430.8 6.6-16.8v18.6z" fill="#d7d7d7"/><path d="m296.8 436.6 5.6-19.4v20.7z" fill="#d7d7d7"/><path d="m322.3 420.4 4.7 22.1-7-1.1z" fill="#d7d7d7"/><g fill="#c0272d"><circle cx="310" cy="276" r="7.2"/><circle cx="319.8" cy="273.9" r="5.1"/><circle cx="299.8" cy="273.9" r="5.1"/><path d="m299.8 268.8h20.4v5.1h-20.4z"/><path d="m298.1 278.7s6.3 4.4 12 4.4 11.5-4.4 11.5-4.4l-4.8-3.8-18.9-.5z"/></g><path d="m297.9 278.6v.1c.1 0 .1 0 .2.1s6.3 4.4 12 4.4 11.5-4.4 11.5-4.4c.4-.1.7-.3 1-.5-.3-.2-7.4-3.5-12.9-3.5-5.7 0-11.8 3.8-11.8 3.8z" fill="#ec1e27"/><path d="m348.4 445.2-2-22.9 7.6 23.4z" fill="#d7d7d7"/><g fill="#fff19f"><circle cx="245.8" cy="157.5" r="32.3"/><circle cx="317.6" cy="119" r="28.5"/><circle cx="356.9" cy="133.9" r="31.6"/><circle cx="352.4" cy="173.2" r="28.5"/><circle cx="298.9" cy="189.1" r="37.5"/><circle cx="276" cy="128.7" r="29.2"/><circle cx="305.1" cy="151.6" r="29.2"/><circle cx="237.8" cy="196.1" r="37.5"/><circle cx="385" cy="196.8" r="37.5"/><circle cx="341.3" cy="179.4" r="37.5"/><circle cx="373.2" cy="164.2" r="37.5"/></g><path d="m396.2 177.9c-2.2-11.6-13.4-19.3-25-17.1-.6.1-1.2.3-1.8.4-4.5-11.2-16.4-18-28.8-15.7-14.1 2.6-23.3 16.1-20.7 30.2s16.1 23.3 30.2 20.7c2.6-.5 5-1.3 7.2-2.5 4.6 6.8 13 10.6 21.7 9 11.7-2.1 19.4-13.3 17.2-25z" fill="#efe093"/><path d="m371.7 397.9 27.6-14.1s5.1 78.3 22.5 81.5l-25.7 16.7s-21.8-5.8-24.4-84.1z" fill="#fff7d2"/><path d="m398.3 481 26.3-15.9s6.4-4 10.7 1.1l1.9 2-26.4 17.6-1.3-3.2c.1 0-3.7-9.6-11.2-1.6z" fill="#fff7d2"/><path d="m391 478.1s5.1 7.1 10.3 2.6l24.6-16.1s-6 1.9-9.2-3.2z" fill="#f3ebcc"/><path d="m396.5 166.2-6.3-17.7-6.3-17.7-3.2 1.1 3.4 9.7-36 12.8c-.9.3-1.4 1.3-1 2.2.3.9 1.3 1.4 2.2 1l36-12.8 1.1 3.2-37.4 13.3c-.9.3-1.4 1.3-1 2.2s1.3 1.4 2.2 1l37.3-13.3 1.1 3.2-36 12.8c-.9.3-1.4 1.3-1 2.2s1.3 1.4 2.2 1l36-12.8 3.4 9.7z" fill="#ffcf4a"/><path d="m388.6 172.6 6.7-2.4c1.8 1.5 4.3 2.1 6.7 1.3 3.5-1.3 5.4-5.2 4.2-8.7-1.3-3.5-5.2-5.4-8.7-4.2l-13.6 4.8c-1 .3-1.8 1-2.4 1.8-1.5 2-3.5 3.6-5.7 4.7-.5.2-1 .5-1.6.7-2.4.9-4.9 1.1-7.3.8-.1 0-.3 0-.4-.1-.3-.1-.6-.1-.8-.2-.7-.2-1.4-.4-2-.6-4.1-1.5-7.6-4.8-9.1-9.3-1.6-4.5-1-9.2 1.2-12.9.6-1 1.3-1.9 2-2.7 1.6-1.7 3.7-3.1 6.1-4 2.9-1 6.1-1.2 9-.5 1 .2 2 .2 3-.1l13.6-4.8c3.5-1.3 5.4-5.2 4.2-8.7-1.3-3.5-5.2-5.4-8.7-4.2-2.4.8-4 2.9-4.4 5.2l-6.7 2.4c-4.4-.8-9.1-.4-13.3 1.1-4.4 1.6-8.1 4.2-10.9 7.5-.8.8-1.4 1.8-2 2.7-4.2 6.4-5.4 14.7-2.7 22.5 2.8 7.8 9 13.5 16.3 15.8 1.1.4 2.2.7 3.3.8 4.3.8 8.8.5 13.2-1 3.7-1.3 7.2-3.5 9.9-6.3.2-.5.5-.9.9-1.4z" fill="#886748"/><path d="m364.4 181.2c-1.1-.2-2.2-.4-3.3-.8l2.5-10c1.1.4 2.2.7 3.3.9z" fill="#664b35"/><path d="m355.7 148.2-8.3-6.2c.6-1 1.3-1.9 2-2.7l8.2 6.1c-.7.9-1.4 1.8-1.9 2.8z" fill="#664b35"/><path d="m393.3 183.3c-2.2-11.6-13.4-19.3-25-17.1-.6.1-1.2.3-1.8.4-4.5-11.2-16.4-18-28.8-15.7-14.1 2.6-23.3 16.1-20.7 30.2s16.1 23.3 30.2 20.7c2.6-.5 5-1.3 7.2-2.5 4.6 6.8 13 10.6 21.7 9 11.7-2.2 19.3-13.4 17.2-25z" fill="#fff19f"/><path d="m257.6 158.8c-1.9-11.7 6-22.7 17.7-24.6 4-.7 8-.1 11.5 1.3-4.6-3.6-10.6-5.4-16.8-4.4-11.7 1.9-19.6 12.9-17.7 24.6 1.3 7.6 6.4 13.7 13.1 16.4-4-3.2-6.9-7.9-7.8-13.3z" fill="#efe093"/><path d="m379.2 375.5-4.9 7 2.5 5.1 12.2-8.3-.6-3.8z" fill="#f1d2c2"/><path d="m379.9 378.7-7.2 9.7 4.8 7.3 3.9-1.3 2.9 5.2 11.6-7.2-5.3-14.1z" fill="#fddec9"/><path d="m379.8 386.6h8v8h-8z" fill="#f1d2c2" transform="matrix(.866 -.5 .5 .866 -143.8632 244.2001)"/><path d="m381.3 388.1h4.9v4.9h-4.9z" fill="#fddec9" transform="matrix(.866 -.5 .5 .866 -143.8632 244.2001)"/><g fill="none" stroke="#e1d8bc" stroke-miterlimit="10" stroke-width="4"><path d="m376.8 405 19.3-9"/><path d="m377.5 412 19.2-9"/><path d="m378.1 419.1 19.3-9"/><path d="m378.8 426.1 19.2-8.9"/><path d="m380.1 433.2 9.6-4.5"/></g></svg>