<svg enable-background="new 0 0 618.3 800" viewBox="0 0 618.3 800" xmlns="http://www.w3.org/2000/svg"><path d="m211.5 503h218.6v75.5h-218.6z" fill="#efeae6"/><path d="m211.5 503h218.6v59h-218.6z" fill="#e8e3e2"/><path d="m320.9 676.5v.3l-92.8.9v25.6l22 5.5 16.5 15.7 11.8-4.7 20.4 7.1 22.1 36.2v-.3l22-36.2 20.4-7 11.8 4.7 16.5-15.7 22.1-5.5v-25.6z" fill="#d2d1cd"/><g fill="#e8e3e2"><path d="m222.3 713h-4.9c-3.2 0-5.8-2.6-5.8-5.8v-164.6c0-3.2 2.6-5.8 5.8-5.8h4.9c3.2 0 5.8 2.6 5.8 5.8v164.6c0 3.2-2.7 5.8-5.8 5.8z"/><path d="m323.7 762.9h-4.9c-3.2 0-5.8-2.6-5.8-5.8v-214.5c0-3.2 2.6-5.8 5.8-5.8h4.9c3.2 0 5.8 2.6 5.8 5.8v214.5c0 3.2-2.6 5.8-5.8 5.8z"/><path d="m272.6 728.1h-4.9c-3.2 0-5.8-2.6-5.8-5.8v-179.7c0-3.2 2.6-5.8 5.8-5.8h4.9c3.2 0 5.8 2.6 5.8 5.8v179.6c0 3.2-2.6 5.9-5.8 5.9z"/><path d="m424.4 713h-4.9c-3.2 0-5.8-2.6-5.8-5.8v-164.6c0-3.2 2.6-5.8 5.8-5.8h4.9c3.2 0 5.8 2.6 5.8 5.8v164.6c0 3.2-2.6 5.8-5.8 5.8z"/></g><g fill="#d2d1cd"><path d="m250 692.4h-10.1c-6.5 0-11.9-5.3-11.9-11.9v-120.8c0-6.5 5.3-11.9 11.9-11.9h10.1c6.5 0 11.9 5.3 11.9 11.9v120.8c0 6.6-5.4 11.9-11.9 11.9z"/><path d="m300.9 692.4h-10.3c-6.7 0-12.1-5.5-12.1-12.1v-120.3c0-6.7 5.5-12.1 12.1-12.1h10.3c6.7 0 12.1 5.5 12.1 12.1v120.3c0 6.7-5.5 12.1-12.1 12.1z"/><path d="m351.5 692.4h-10.1c-6.5 0-11.9-5.3-11.9-11.9v-120.8c0-6.5 5.3-11.9 11.9-11.9h10.1c6.5 0 11.9 5.3 11.9 11.9v120.8c-.1 6.6-5.4 11.9-11.9 11.9z"/><path d="m401.5 692.4h-10.3c-6.7 0-12.1-5.5-12.1-12.1v-120.3c0-6.7 5.5-12.1 12.1-12.1h10.3c6.7 0 12.1 5.5 12.1 12.1v120.3c.1 6.7-5.4 12.1-12.1 12.1z"/></g><path d="m159.1 480.2h324v47.3h-324" fill="#efeae6"/><path d="m159.1 519.5h324v13.5h-324" fill="#dcd7cd"/><path d="m159.1 526.2c0-22.6 18.3-40.8 40.8-40.8s40.8 18.3 40.8 40.8c0 22.6-18.3 40.8-40.8 40.8s-40.8-18.3-40.8-40.8" fill="#efeae6"/><path d="m373.3 728.1h-4.9c-3.2 0-5.8-2.6-5.8-5.8v-179.7c0-3.2 2.6-5.8 5.8-5.8h4.9c3.2 0 5.8 2.6 5.8 5.8v179.6c0 3.2-2.6 5.9-5.8 5.9z" fill="#e8e3e2"/><circle cx="442.3" cy="526.2" fill="#efeae6" r="40.8"/><path d="m224.7 555.4c-12.3 0-22.3-10-22.3-22.3v-9.7c0-12.3 10-22.3 22.3-22.3h191.5c12.3 0 22.3 10 22.3 22.3v9.7c0 12.3-10 22.3-22.3 22.3z" fill="#eee9e4"/><path d="m416.2 503.6c10.9 0 19.8 8.9 19.8 19.8v9.7c0 10.9-8.9 19.8-19.8 19.8h-191.5c-10.9 0-19.8-8.9-19.8-19.8v-9.7c0-10.9 8.9-19.8 19.8-19.8zm0-5h-191.5c-13.6 0-24.8 11.1-24.8 24.8v9.7c0 13.6 11.1 24.8 24.8 24.8h191.5c13.6 0 24.8-11.1 24.8-24.8v-9.7c0-13.7-11.2-24.8-24.8-24.8z" fill="#c0b399"/><circle cx="425.6" cy="536.6" fill="#ffcf4a" r="21.1"/><path d="m443 548.7s8.2-16.3 22.7-18c0 0 1.7-.2 1.6-1.9s0-37.7 0-37.7 0-.7-.9-.7-25.4 15.6-25.4 15.6-.9.6-.2 1.5c.8.9 3.3 3.8-.2 7-1.8 1.6-14.9.9-14.9.9z" fill="#ffcf4a"/><circle cx="425.6" cy="536.6" fill="#fab416" r="14.8"/><circle cx="425.6" cy="536.6" fill="#ffcf4a" r="7.8"/><path d="m404.5 536.6v19.6s0 1.5 1.4 1.5c1.5.1 19.7 0 19.7 0z" fill="#ffcf4a"/><circle cx="214.4" cy="536.6" fill="#ffcf4a" r="21.1"/><path d="m173.7 490.5c.9 0 25.4 15.6 25.4 15.6s.9.6.2 1.5c-.8.9-3.3 3.8.2 7 1.8 1.6 14.9.9 14.9.9l-17.3 33.2s-8.2-16.3-22.7-18" fill="#ffcf4a"/><circle cx="214.4" cy="536.6" fill="#fab416" r="14.8"/><circle cx="214.4" cy="536.6" fill="#ffcf4a" r="7.8"/><path d="m235.6 536.6v19.6s0 1.5-1.4 1.5c-1.5.1-19.7 0-19.7 0z" fill="#ffcf4a"/><path d="m320.7 711.4c-38.8 0-70.4-31.6-70.4-70.4s31.6-70.4 70.4-70.4 70.4 31.6 70.4 70.4-31.5 70.4-70.4 70.4z" fill="#eee9e4"/><path d="m320.7 573.1c37.5 0 67.9 30.5 67.9 67.9s-30.5 67.9-67.9 67.9-67.9-30.5-67.9-67.9 30.5-67.9 67.9-67.9m0-5c-40.3 0-72.9 32.7-72.9 72.9s32.7 72.9 72.9 72.9c40.3 0 72.9-32.7 72.9-72.9s-32.6-72.9-72.9-72.9z" fill="#c0b399"/><circle cx="320.7" cy="641" fill="#fff" r="64.4"/><text font-family="'RSU'" font-size="22.5335" transform="translate(292.7649 612.9287)">ผู้ท้าชิง</text><text font-family="'RSU-Bold'" font-size="83.682" transform="translate(286.7141 670.0361)">10</text><text font-family="'RSU'" font-size="16.2715" transform="translate(308.6375 686.2812)">ท่าน</text><path d="m211.7 503.6h218.6v75.5h-218.6z" fill="#efeae6"/><path d="m211.7 503.6h218.6v59h-218.6z" fill="#e8e3e2"/><path d="m321 677.1v.3l-92.8.9v25.6l22 5.5 16.6 15.7 11.8-4.7 20.4 7.1 22 36.2v-.3l22.1-36.2 20.4-7 11.8 4.7 16.5-15.7 22-5.5v-25.6z" fill="#d2d1cd"/><g fill="#e8e3e2"><path d="m222.4 713.6h-4.9c-3.2 0-5.8-2.6-5.8-5.8v-164.6c0-3.2 2.6-5.8 5.8-5.8h4.9c3.2 0 5.8 2.6 5.8 5.8v164.6c0 3.2-2.6 5.8-5.8 5.8z"/><path d="m323.9 763.5h-4.9c-3.2 0-5.8-2.6-5.8-5.8v-214.5c0-3.2 2.6-5.8 5.8-5.8h4.9c3.2 0 5.8 2.6 5.8 5.8v214.5c0 3.2-2.6 5.8-5.8 5.8z"/><path d="m272.8 728.7h-4.9c-3.2 0-5.8-2.6-5.8-5.8v-179.7c0-3.2 2.6-5.8 5.8-5.8h4.9c3.2 0 5.8 2.6 5.8 5.8v179.6c0 3.2-2.6 5.9-5.8 5.9z"/><path d="m424.6 713.6h-4.9c-3.2 0-5.8-2.6-5.8-5.8v-164.6c0-3.2 2.6-5.8 5.8-5.8h4.9c3.2 0 5.8 2.6 5.8 5.8v164.6c0 3.2-2.7 5.8-5.8 5.8z"/></g><g fill="#d2d1cd"><path d="m250.2 693h-10.1c-6.5 0-11.9-5.3-11.9-11.9v-120.8c0-6.5 5.3-11.9 11.9-11.9h10.1c6.5 0 11.9 5.3 11.9 11.9v120.8c-.1 6.6-5.4 11.9-11.9 11.9z"/><path d="m301 693h-10.3c-6.7 0-12.1-5.5-12.1-12.1v-120.3c0-6.7 5.5-12.1 12.1-12.1h10.3c6.7 0 12.1 5.5 12.1 12.1v120.3c.1 6.7-5.4 12.1-12.1 12.1z"/><path d="m351.6 693h-10.1c-6.5 0-11.9-5.3-11.9-11.9v-120.8c0-6.5 5.3-11.9 11.9-11.9h10.1c6.5 0 11.9 5.3 11.9 11.9v120.8c0 6.6-5.3 11.9-11.9 11.9z"/><path d="m401.7 693h-10.3c-6.7 0-12.1-5.5-12.1-12.1v-120.3c0-6.7 5.5-12.1 12.1-12.1h10.3c6.7 0 12.1 5.5 12.1 12.1v120.3c0 6.7-5.4 12.1-12.1 12.1z"/></g><path d="m159.2 480.8h324.1v47.3h-324.1" fill="#efeae6"/><path d="m159.2 520.1h324.1v13.5h-324.1" fill="#dcd7cd"/><path d="m159.2 526.8c0-22.6 18.3-40.8 40.8-40.8s40.8 18.3 40.8 40.8-18.3 40.8-40.8 40.8-40.8-18.3-40.8-40.8" fill="#efeae6"/><path d="m373.4 728.7h-4.9c-3.2 0-5.8-2.6-5.8-5.8v-179.7c0-3.2 2.6-5.8 5.8-5.8h4.9c3.2 0 5.8 2.6 5.8 5.8v179.6c0 3.2-2.6 5.9-5.8 5.9z" fill="#e8e3e2"/><circle cx="442.4" cy="526.8" fill="#efeae6" r="40.8"/><path d="m169.8 520c0-13.6 11.1-24.8 24.8-24.8h252.8c13.6 0 24.8 11.1 24.8 24.8v9.7c0 13.6-11.1 24.8-24.8 24.8h-252.8c-13.6 0-24.8-11.1-24.8-24.8" fill="#fff" stroke="#ffcf4a" stroke-miterlimit="10" stroke-width="5.5994"/><g opacity=".6"><path d="m219.8 270.3-52.2 32.1-9.2-14.9c-8.7-14.1-4.3-32.6 9.8-41.3l1.1-.7c14.1-8.7 32.6-4.3 41.3 9.8z" fill="#f6a3a7"/><path d="m175.6 282.8h61.3v47.5h-61.3z" fill="#f7b5b9" transform="matrix(.8515 -.5244 .5244 .8515 -130.1663 153.6752)"/><path d="m200.5 323.3h61.3v47.5h-61.3z" fill="#fad5d7" transform="matrix(.8515 -.5244 .5244 .8515 -147.6915 172.7631)"/><path d="m225.4 363.8h61.3v47.5h-61.3z" fill="#fce6e7" transform="matrix(.8515 -.5244 .5244 .8515 -165.2166 191.8509)"/><path d="m268.2 234-58.5 18.2-5.2-16.8c-4.9-15.8 3.9-32.6 19.7-37.6l1.2-.4c15.8-4.9 32.6 3.9 37.6 19.7z" fill="#bec5e4"/><path d="m215.4 242.1h61.3v47.5h-61.3z" fill="#ced3ea" transform="matrix(.9549 -.2971 .2971 .9549 -67.8654 85.0912)"/><path d="m229.5 287.5h61.3v47.5h-61.3z" fill="#e4e6f3" transform="matrix(.9549 -.2971 .2971 .9549 -80.7135 91.336)"/><path d="m243.7 332.9h61.3v47.5h-61.3z" fill="#eef0f8" transform="matrix(.9549 -.2971 .2971 .9549 -93.5615 97.5809)"/><path d="m417.9 270.3 52.2 32.1 9.2-14.9c8.7-14.1 4.3-32.6-9.8-41.3l-1.1-.7c-14.1-8.7-32.6-4.3-41.3 9.8z" fill="#d4e7b7"/><path d="m400.9 282.8h61.3v47.5h-61.3z" fill="#dfecc8" transform="matrix(-.8515 -.5244 .5244 -.8515 638.1813 793.9881)"/><path d="m376 323.3h61.3v47.5h-61.3z" fill="#e8f1d6" transform="matrix(-.8515 -.5244 .5244 -.8515 570.7922 855.8602)"/><path d="m351 363.8h61.3v47.5h-61.3z" fill="#f0f6e5" transform="matrix(-.8515 -.5244 .5244 -.8515 503.403 917.7324)"/><path d="m369.5 234 58.5 18.2 5.2-16.8c4.9-15.8-3.9-32.6-19.7-37.6l-1.2-.4c-15.8-4.9-32.6 3.9-37.6 19.7z" fill="#f9b9a3"/><path d="m361.1 242.1h61.3v47.5h-61.3z" fill="#fac8b5" transform="matrix(-.9549 -.2971 .2971 -.9549 686.7248 636.0377)"/><path d="m346.9 287.5h61.3v47.5h-61.3z" fill="#fce0d5" transform="matrix(-.9549 -.2971 .2971 -.9549 645.6304 720.5844)"/><path d="m332.8 332.9h61.3v47.5h-61.3z" fill="#fdece5" transform="matrix(-.9549 -.2971 .2971 -.9549 604.536 805.1309)"/><path d="m390.1 432c-4.5-22.5 16-49.4-1.9-59s9.6-45.6 0-61.6-6.8-39.9-6.8-39.9l-60.6-10v-.1l-.3.1-.3-.1v.1l-60.6 10s2.8 23.9-6.8 39.9 18 52 0 61.6 2.6 36.6-1.9 59c-4.5 22.5-14.1 27.6-14.1 27.6h83.4.6 83.4s-9.6-5.2-14.1-27.6z" fill="#8fc63e"/><path d="m374.4 430.7c-3.6-22.5 12.7-49.4-1.5-59-14.3-9.6 7.6-45.6 0-61.6s-5.4-39.9-5.4-39.9l-48.1-10v-.2l-.3.1-.3-.1v.1l-48.1 10s2.2 23.9-5.4 39.9 14.3 52 0 61.6 2 36.6-1.5 59-11.2 27.6-11.2 27.6h66.2.5 66.2c.1.1-7.5-5.1-11.1-27.5z" fill="#80ad40"/><path d="m243.8 480.1h154l-80.2-89.2z" fill="#d7d7d7"/><path d="m423.5 336.4s-38.5-28.6-70-40.9c-2.2-.9-4.4-1.7-6.6-2.4l-51.2 2.2s-1.4 1-3.7 3c-10.5 9-40.3 37.7-48.2 77.1l12.2 8.3s18-43 37.2-59c0 0 1.8 31.3-2.6 55.2-4.5 24.6-15.4 57.8-23.7 90.5 0 0-8.3 4.5-8.3 9.6h31.4s16-63.5 25-74.4h12.8s21.2 52 24.4 74.4h30.2s-.6-6.4-8.3-8.3c0 0-16.3-47-23.7-91.8-3.3-20-.6-39.1-1.3-55.8 0 0 44.9 4.5 64.2 22.5z" fill="#fddec9"/><path d="m423.5 336.4s-38.5-28.6-70-40.9c-2.2-.9-4.4-1.7-6.6-2.4l-51.2 2.2s-1.4 1-3.7 3c-10.5 9-40.3 37.7-48.2 77.1l12.2 8.3s18-43 37.2-59c0 0 1.8 31.3-2.6 55.2-4.5 24.6-15.4 57.8-23.7 90.5 0 0-8.3 4.5-8.3 9.6h31.4s16-63.5 25-74.4h12.8s21.2 52 24.4 74.4h30.2s-.6-6.4-8.3-8.3c0 0-16.3-47-23.7-91.8-3.3-20-.6-39.1-1.3-55.8 0 0 44.9 4.5 64.2 22.5z" fill="#fddec9"/><path d="m316.9 306.8c17.2-1.4 33.2-2.8 44.9-7.7-2.8-1.3-5.5-2.5-8.4-3.6-2.2-.9-4.4-1.7-6.6-2.4l-51.2 2.2s-1.4 1-3.7 3c-1.4 1.2-3.3 2.9-5.3 4.8 8.8 3.1 19 4.6 30.3 3.7z" fill="#f1d2c2"/><g fill="#b1d254"><path d="m356.1 281.2s-12.2 23.7 3.2 47.5c15.4 23.7 1.9 45.6 1.9 45.6s23.6-31.5 7-53.9 12.5-53.4 12.5-53.4z"/><path d="m361.2 252.3s-12.2 23.7 3.2 47.5c15.4 23.7 1.9 45.6 1.9 45.6s23.6-31.5 7-53.9c-16.6-22.5 12.6-53.5 12.6-53.5z"/><path d="m294 261.3s12.2 23.7-3.2 47.5-1.9 45.6-1.9 45.6-23.6-31.5-7-53.9-12.5-53.4-12.5-53.4z"/><path d="m259.8 229.2s-12.2 23.7 3.2 47.5c15.4 23.7 1.9 45.6 1.9 45.6s23.6-31.5 7-53.9 12.5-53.4 12.5-53.4z"/></g><path d="m242.5 227.9s9.4 28.4 16 40.4c6.4 11.6 26.3 30.8 58.4 28.2s56.5-5.1 64.2-30.8c7.5-25 14.1-41.1 14.1-41.1s1.7-20.4-13.7-52.5-45.4-57.9-64.6-58.6c-19.3-.6-55.8 12.2-68 35.3-12.2 23.3-12.2 49.6-6.4 79.1z" fill="#fddec9"/><path d="m266.9 470.5 24.8 2.6-1.7 7h-31.4s0-5.1 8.3-9.6z" fill="#e5e5e4"/><path d="m375.2 470.5-24.8 2.6 1.7 7h31.4s0-5.1-8.3-9.6z" fill="#e5e5e4"/><g fill="#fff"><path d="m269.5 457.8 23.8 12.4.8-3.2-24.3-12.7z"/><path d="m268.1 464 29.1-8.6-1.1 3.6-28.6 8.3z"/><path d="m370.2 459.6-20.5 10.9-.7-2.6 20.6-10.9z"/><path d="m372.7 465.4-26.9-7.4 1 3.2 26.6 7.6z"/></g><path d="m418.2 332.5-3.4-.1.3-2.1-2.5-1.7-.5 3.8-2.2-.1-3.7 4.1 1.5 3.4-1.2 1.6c2.5 1.6 4.8 3.3 6.8 5.2l10.3-10.3c-.1.1-2.1-1.4-5.4-3.8z" fill="#f1d2c2"/><path d="m409.4 297.9h7.6v182.9h-7.6z" fill="#5c4b43" transform="matrix(.9961 .08855212 -.08855212 .9961 36.0964 -35.0607)"/><path d="m437.4 280.4c-.1-.8-.3-1.5-.5-2.2l-3.1-12.6h-.2l-6.3-15.1-9.9 13h-.3l-6.2 11.4c-.4.6-.8 1.3-1.1 2-.5 1.2-.9 2.6-1.1 4-1 8 4.6 15.3 12.6 16.3s15.3-4.6 16.3-12.6c.1-1.5.1-2.8-.2-4.2z" fill="#fff"/><path d="m415.6 299.1 11.6 1.5-.8-3.8-9.5-.9z" fill="#e5e4de"/><path d="m427.2 250.8s-10.2 12.4-13.2 18.3l6.2-6.1-1 13.8 5.5-12.4 1.3 20.2 2.3-18.2 3.4 9.7-.3-10.1 3.2 2.7s-5.4-15.3-7.4-17.9z" fill="#ddd9cf"/><path d="m424.5 336-12.2-.3-3.7 4.1 1.6 3.4-2.3 3.2 1.5 3.2-1 3.1 2.7 1.8h12l3.1-4.3-2.4-2.2 3-3.2-3-2 3-3.5z" fill="#fddec9"/><circle cx="288.7" cy="238.8" fill="#3b2512" r="11.6"/><circle cx="347.1" cy="238.8" fill="#3b2512" r="11.6"/><path d="m395 171.7c-6.8-20.8-24.1-50.4-77.4-49.1-53.3-1.3-68.7 28.2-75.5 49.1-6.8 20.8 26.1 88.3 26.1 88.3-14.1-33.4-3.2-43.6 17.3-49.4s32.7 14.8 32.7 14.8 12.8-20.5 33.4-14.8c20.5 5.8 31.4 16 17.3 49.4 0 0 32.9-67.4 26.1-88.3z" fill="#f1d2c2"/><path d="m368.9 285.7 29.5-34v-46.2s3.4-21.2-3.4-42.1c-6.8-20.8-24.1-50.4-77.4-49.1-53.3-1.3-68.7 28.2-75.5 49.1-6.8 20.8-2.8 42.1-2.8 42.1l-.6 46.2 29.5 34v-34c-14.1-33.4-3.2-43.6 17.3-49.4s32.7 14.8 32.7 14.8 12.8-20.5 33.4-14.8c20.5 5.8 31.4 16 17.3 49.4z" fill="#5c4b43"/><path d="m285.8 118.1 5.5-85.3h55.8l2.6 85.3z" fill="#d83f3f"/><path d="m300.3 105.3 4.5 68.7h24.3l6.5-68.7z" fill="#3b2512"/><path d="m300.3 101.5 4.5 68.7h24.3l6.5-68.7z" fill="#715d55"/><g fill="#c0272d"><circle cx="318.2" cy="272.2" r="7.2"/><circle cx="327.9" cy="270.1" r="5.1"/><circle cx="307.9" cy="270.1" r="5.1"/><path d="m307.9 265h20.4v5.1h-20.4z"/><path d="m306.2 274.9s6.3 4.4 12 4.4 11.5-4.4 11.5-4.4l-4.8-3.8-18.9-.5z"/></g><path d="m306 274.8v.1c.1 0 .1 0 .2.1s6.3 4.4 12 4.4 11.5-4.4 11.5-4.4c.4-.1.7-.3 1-.5-.3-.2-7.4-3.5-12.9-3.5-5.6 0-11.8 3.8-11.8 3.8z" fill="#ec1e27"/><path d="m302.8 199c-3.9-1.9-14.8-2.6-27 1.9s-16 12.2-17.3 23.1 6.6 27.9 6.6 27.9v30.1l3.1 3.5v-34c-14.1-33.4-3.2-43.6 17.3-49.4s32.7 14.8 32.7 14.8v-5.8c-1.3-2.4-11.5-10.1-15.4-12.1z" fill="#3b2512"/><path d="m333.5 199c3.9-1.9 14.8-2.6 27 1.9s16 12.2 17.3 23.1-6.6 27.9-6.6 27.9v30.1l-3.1 3.5v-34c14.1-33.4 3.2-43.6-17.3-49.4s-32.7 14.8-32.7 14.8v-5.8c1.3-2.4 11.5-10.1 15.4-12.1z" fill="#3b2512"/><path d="m300.3 101.5h35.3l11.5-68.7h-55.8z" fill="#ef4f4e"/><path d="m315 405.7h12.8s6.1 15 12.3 32.4c6.2 7.3 13 14.5 20.4 21.3 4.2 3.9 8.6 7.7 13.2 11.3-2.4-7.1-16.6-49.8-23.4-90.7-.9-5.6-1.4-11.2-1.6-16.7h-1.1-53.9-1c-.5 5.6-1.1 11.4-2.1 16.7-4.5 24.6-15.4 57.8-23.7 90.5 0 0-4.9 2.6-7.2 6.2 7.5-5.2 14.6-11.1 21.2-17.2 7.7-7.1 14.8-14.7 21.2-22.4 4.5-14 9.3-27 12.9-31.4z" fill="#f1d2c2"/><path d="m280.5 463.5 12.8 6.7.9-3.2-9.1-4.7 11.1-3.2 1-3.7-16.1 4.8-.6-.3c-2 1.9-4.1 3.7-6.2 5.5z" fill="#fff"/><path d="m260.8 475.3c-.4.5-.7.9-1 1.3 2.7-1.9 5.4-3.9 8.1-6l-1-.1s-.1.1-.1.1c-.7.3-3.8 2.1-6 4.7z" fill="#d3d3d3"/><g fill="#f2f2f2"><path d="m270.1 458.1 6.4 3.3-7.9 2.3c-.3 1.1-.6 2.3-.9 3.4l6.6-1.9c2.1-1.8 4.1-3.6 6.2-5.5l-9.5-4.9c-.3 1.2-.6 2.3-.9 3.3z"/><path d="m370.2 467.9 2.9.8c-.3-1-.7-2.1-1.1-3.5l-7.2-2c1.7 1.6 3.5 3.2 5.4 4.7z"/><path d="m370.1 459.6c-.3-.8-.5-1.6-.8-2.5l-7.2 3.8c.7.6 1.3 1.2 2 1.8z"/></g><path d="m349.5 356.9h-57.6s39 87.3 105.7 123.2c0 0-31.4-39.8-48.1-123.2z" fill="#fff"/><path d="m293.8 356.9c6.8 14.3 42.9 85 100.4 118.4 2.2 3.2 3.4 4.9 3.4 4.9-66.7-35.9-105.7-123.2-105.7-123.2h1.9z" fill="#ffe8b5"/><path d="m351.2 365.2c-.6-2.7-1.2-5.5-1.8-8.3h-51.8c-.4 1.9-.8 3.8-1.2 5.6 5 9.8 14.6 27.2 28.3 46.2 12.8-17.9 21.7-34.1 26.5-43.5z" fill="#f2f2f2"/><path d="m340.9 356.9s10.4 45.7 16 53.5c0 0-12.5-16.7-18-53.5z" fill="#d7d7d7" opacity=".43"/><path d="m327.9 356.9s7.2 31.4 11 36.8c0 0-8.6-11.5-12.4-36.8z" fill="#d7d7d7" opacity=".43"/><path d="m292 356.9h57.6s-39 87.3-105.7 123.2c-.1 0 31.3-39.8 48.1-123.2z" fill="#fff"/><path d="m347.7 356.9c-6.8 14.3-42.9 85-100.4 118.4-2.2 3.2-3.4 4.9-3.4 4.9 66.7-35.9 105.7-123.2 105.7-123.2h-1.9z" fill="#ffe8b5"/><path d="m395.2 315.2-6.4 19.9 13.5 5.1 5.8-16.7z" fill="#ffcf4a"/><path d="m394.7 317-1.3-.8-5.6 16.5 1.6.6z" fill="#f1d2c2"/><path d="m291.9 319.7s2.6-7.4 12-11.5c0 0 13.5 6.1 16.9 11.5 0 0 10.1-11.5 17.6-12.8 0 0 6.8 6.1 12.2 14.9 0 0 2.5 1.4-.1 12.2v20.5h-59.3v-21.2c-.1-.1-3.3-6.9.7-13.6z" fill="#f1d2c2"/><path d="m291.9 322.2s2.6-7.4 12-11.5c0 0 13.5 6.1 16.9 11.5 0 0 10.1-11.5 17.6-12.8 0 0 6.8 6.1 12.2 14.9 0 0 2.5 1.4-.1 12.2v20.5h-59.3v-21.2c-.1-.1-3.3-6.8.7-13.6z" fill="#d3d3d3"/><path d="m291.9 327.4s2.6-6.8 12-10.8c0 0 13.5 6.1 16.9 11.5 0 0 10.1-11.5 17.6-12.8 0 0 6.8 6.1 12.2 14.9 0 0 2.5 1.4-.1 12.2v14.7h-59.3v-15.4c-.1-.2-3.3-7.6.7-14.3z" fill="#e5e5e4"/><path d="m293.8 356.9h-1.8v.1c-.3 1.4-.6 2.7-.8 4.1v.3h54.4c.9-1.8 1.7-3.3 2.2-4.5z" fill="#f2f2f2"/><path d="m345.5 361.4c-10.6 20.9-45.3 83.2-98.2 113.9-2.2 3.2-3.4 4.9-3.4 4.9 57.7-31.1 94.6-100.4 103.6-118.7h-2z" fill="#ffe8b5"/><path d="m349.5 356.9h-1.8c-.5 1.1-1.3 2.7-2.2 4.5h1.9c1.4-2.9 2.1-4.5 2.1-4.5z" fill="#ffe8b5"/><g fill="#d7d7d7"><path d="m300.2 356.9s-10.4 45.7-16 53.5c0 0 12.5-16.7 18-53.5z" opacity=".43"/><path d="m313.2 356.9s-7.2 31.4-11 36.8c0 0 8.6-11.5 12.4-36.8z" opacity=".43"/><path d="m330.1 356.9s-5.1 16.7-7.8 19.6c0 0 6.2-6.1 8.8-19.6z" opacity=".43"/></g><path d="m306.1 480.1 5.2-30.8 3.1 30.8z" fill="#cccbcb"/><path d="m328.6 480.1 5.1-30.8 3.1 30.8z" fill="#cccbcb"/><path d="m211.6 330.6c-26.8 18.3-33.8 54.8-15.5 81.7s54.8 33.8 81.7 15.5c.6-.4 1.2-.9 1.8-1.4.4-.2.8-.4 1.1-.6l21-14.3c3.4-2.3 4.2-6.9 1.9-10.3s-6.9-4.2-10.3-1.9l-1.9 1.3c-6.7 4.6-15.9 2.8-20.5-3.9s-2.8-15.9 3.9-20.5c0 0 13.2-18.3 13.5-23.3 1.7-35.3-49.9-40.5-76.7-22.3z" fill="#ececea"/><circle cx="218.2" cy="400.7" fill="#e8553a" r="11.6"/><circle cx="218.8" cy="363.4" fill="#40b5d0" r="11.6"/><circle cx="262.5" cy="353" fill="#ececea" r="26"/><circle cx="250.8" cy="346.3" fill="#ffe75f" r="11.6"/></g><path d="m321.9 712c-38.8 0-70.4-31.6-70.4-70.4s31.6-70.4 70.4-70.4 70.4 31.6 70.4 70.4-31.6 70.4-70.4 70.4z" fill="#eee9e4"/><path d="m321.9 573.7c37.5 0 67.9 30.5 67.9 67.9s-30.5 67.9-67.9 67.9-67.9-30.5-67.9-67.9 30.4-67.9 67.9-67.9m0-5c-40.3 0-72.9 32.7-72.9 72.9 0 40.3 32.7 72.9 72.9 72.9s72.9-32.7 72.9-72.9c0-40.3-32.6-72.9-72.9-72.9z" fill="#c0b399"/><circle cx="321.9" cy="641.6" fill="#fff" r="64.4"/><path d="m211.5 503h218.6v75.5h-218.6z" fill="#efeae6"/><path d="m211.5 503h218.6v59h-218.6z" fill="#e8e3e2"/><path d="m320.9 676.5v.3l-92.8.9v25.6l22 5.5 16.5 15.7 11.8-4.7 20.4 7.1 22.1 36.2v-.3l22-36.2 20.4-7 11.8 4.7 16.5-15.7 22.1-5.5v-25.6z" fill="#d2d1cd"/><g fill="#e8e3e2"><path d="m222.3 713h-4.9c-3.2 0-5.8-2.6-5.8-5.8v-164.6c0-3.2 2.6-5.8 5.8-5.8h4.9c3.2 0 5.8 2.6 5.8 5.8v164.6c0 3.2-2.7 5.8-5.8 5.8z"/><path d="m323.7 762.9h-4.9c-3.2 0-5.8-2.6-5.8-5.8v-214.5c0-3.2 2.6-5.8 5.8-5.8h4.9c3.2 0 5.8 2.6 5.8 5.8v214.5c0 3.2-2.6 5.8-5.8 5.8z"/><path d="m272.6 728.1h-4.9c-3.2 0-5.8-2.6-5.8-5.8v-179.7c0-3.2 2.6-5.8 5.8-5.8h4.9c3.2 0 5.8 2.6 5.8 5.8v179.6c0 3.2-2.6 5.9-5.8 5.9z"/><path d="m424.4 713h-4.9c-3.2 0-5.8-2.6-5.8-5.8v-164.6c0-3.2 2.6-5.8 5.8-5.8h4.9c3.2 0 5.8 2.6 5.8 5.8v164.6c0 3.2-2.6 5.8-5.8 5.8z"/></g><path d="m250 692.4h-10.1c-6.5 0-11.9-5.3-11.9-11.9v-120.8c0-6.5 5.3-11.9 11.9-11.9h10.1c6.5 0 11.9 5.3 11.9 11.9v120.8c0 6.6-5.4 11.9-11.9 11.9z" fill="#d2d1cd"/><path d="m300.9 692.4h-10.3c-6.7 0-12.1-5.5-12.1-12.1v-120.3c0-6.7 5.5-12.1 12.1-12.1h10.3c6.7 0 12.1 5.5 12.1 12.1v120.3c0 6.7-5.5 12.1-12.1 12.1z" fill="#d2d1cd"/><path d="m351.5 692.4h-10.1c-6.5 0-11.9-5.3-11.9-11.9v-120.8c0-6.5 5.3-11.9 11.9-11.9h10.1c6.5 0 11.9 5.3 11.9 11.9v120.8c-.1 6.6-5.4 11.9-11.9 11.9z" fill="#d2d1cd"/><path d="m401.5 692.4h-10.3c-6.7 0-12.1-5.5-12.1-12.1v-120.3c0-6.7 5.5-12.1 12.1-12.1h10.3c6.7 0 12.1 5.5 12.1 12.1v120.3c.1 6.7-5.4 12.1-12.1 12.1z" fill="#d2d1cd"/><path d="m483.1 480.2v47.3h-324v-47.3" fill="#efeae6"/><path d="m159.1 519.5h324.1v13.5h-324.1z" fill="#dcd7cd"/><path d="m199.9 485.3c22.6 0 40.8 18.3 40.8 40.8 0 22.6-18.3 40.8-40.8 40.8s-40.8-18.3-40.8-40.8 18.2-40.8 40.8-40.8" fill="#efeae6"/><path d="m373.3 728.1h-4.9c-3.2 0-5.8-2.6-5.8-5.8v-179.7c0-3.2 2.6-5.8 5.8-5.8h4.9c3.2 0 5.8 2.6 5.8 5.8v179.6c0 3.2-2.6 5.9-5.8 5.9z" fill="#e8e3e2"/><path d="m442.3 485.3c22.6 0 40.8 18.3 40.8 40.8 0 22.6-18.3 40.8-40.8 40.8s-40.8-18.3-40.8-40.8c-.1-22.5 18.2-40.8 40.8-40.8" fill="#efeae6"/><path d="m224.7 555.4c-12.3 0-22.3-10-22.3-22.3v-9.7c0-12.3 10-22.3 22.3-22.3h191.5c12.3 0 22.3 10 22.3 22.3v9.7c0 12.3-10 22.3-22.3 22.3z" fill="#eee9e4"/><path d="m416.2 503.6c10.9 0 19.8 8.9 19.8 19.8v9.7c0 10.9-8.9 19.8-19.8 19.8h-191.5c-10.9 0-19.8-8.9-19.8-19.8v-9.7c0-10.9 8.9-19.8 19.8-19.8zm0-5h-191.5c-13.6 0-24.8 11.1-24.8 24.8v9.7c0 13.6 11.1 24.8 24.8 24.8h191.5c13.6 0 24.8-11.1 24.8-24.8v-9.7c0-13.7-11.2-24.8-24.8-24.8z" fill="#c0b399"/><circle cx="425.6" cy="536.6" fill="#ffcf4a" r="21.1"/><path d="m466.3 490.5c-.9 0-25.4 15.6-25.4 15.6s-.9.6-.2 1.5 3.3 3.8-.2 7c-1.8 1.6-14.9.9-14.9.9l17.3 33.2s8.2-16.3 22.7-18c0 0 1.7-.2 1.6-1.9s0-37.7 0-37.7" fill="#ffcf4a"/><circle cx="425.6" cy="536.6" fill="#fab416" r="14.8"/><circle cx="425.6" cy="536.6" fill="#ffcf4a" r="7.8"/><path d="m404.5 536.6v19.6s0 1.5 1.4 1.5 19.7 0 19.7 0z" fill="#ffcf4a"/><circle cx="214.4" cy="536.6" fill="#ffcf4a" r="21.1"/><path d="m173.7 490.5c.9 0 25.4 15.6 25.4 15.6s.9.6.2 1.5-3.3 3.8.2 7c1.8 1.6 14.9.9 14.9.9l-17.3 33.2s-8.2-16.3-22.7-18c0 0-1.7-.2-1.6-1.9s0-37.7 0-37.7" fill="#ffcf4a"/><circle cx="214.4" cy="536.6" fill="#fab416" r="14.8"/><circle cx="214.4" cy="536.6" fill="#ffcf4a" r="7.8"/><path d="m235.6 536.6v19.6s0 1.5-1.4 1.5-19.7 0-19.7 0z" fill="#ffcf4a"/><path d="m320.7 711.4c-38.8 0-70.4-31.6-70.4-70.4s31.6-70.4 70.4-70.4 70.4 31.6 70.4 70.4-31.5 70.4-70.4 70.4z" fill="#eee9e4"/><path d="m320.7 573.1c37.5 0 67.9 30.5 67.9 67.9s-30.5 67.9-67.9 67.9-67.9-30.5-67.9-67.9 30.5-67.9 67.9-67.9m0-5c-40.3 0-72.9 32.7-72.9 72.9s32.7 72.9 72.9 72.9c40.3 0 72.9-32.7 72.9-72.9s-32.6-72.9-72.9-72.9z" fill="#c0b399"/><circle cx="320.7" cy="641" fill="#fff" r="64.4"/><text font-family="'RSU'" font-size="22.5335" transform="translate(292.7649 612.9287)">ผู้ท้าชิง</text><text font-family="'RSU-Bold'" font-size="83.682" transform="translate(286.7141 670.0361)">10</text><text font-family="'RSU'" font-size="16.2715" transform="translate(308.6375 686.2812)">ท่าน</text><path d="m211.7 503.6h218.6v75.5h-218.6z" fill="#efeae6"/><path d="m211.7 503.6h218.6v59h-218.6z" fill="#e8e3e2"/><path d="m321 677.1v.3l-92.8.9v25.6l22 5.5 16.6 15.7 11.8-4.7 20.4 7.1 22 36.2v-.3l22.1-36.2 20.4-7 11.8 4.7 16.5-15.7 22-5.5v-25.6z" fill="#d2d1cd"/><g fill="#e8e3e2"><path d="m222.4 713.6h-4.9c-3.2 0-5.8-2.6-5.8-5.8v-164.6c0-3.2 2.6-5.8 5.8-5.8h4.9c3.2 0 5.8 2.6 5.8 5.8v164.6c0 3.2-2.6 5.8-5.8 5.8z"/><path d="m323.9 763.5h-4.9c-3.2 0-5.8-2.6-5.8-5.8v-214.5c0-3.2 2.6-5.8 5.8-5.8h4.9c3.2 0 5.8 2.6 5.8 5.8v214.5c0 3.2-2.6 5.8-5.8 5.8z"/><path d="m272.8 728.7h-4.9c-3.2 0-5.8-2.6-5.8-5.8v-179.7c0-3.2 2.6-5.8 5.8-5.8h4.9c3.2 0 5.8 2.6 5.8 5.8v179.6c0 3.2-2.6 5.9-5.8 5.9z"/><path d="m424.6 713.6h-4.9c-3.2 0-5.8-2.6-5.8-5.8v-164.6c0-3.2 2.6-5.8 5.8-5.8h4.9c3.2 0 5.8 2.6 5.8 5.8v164.6c0 3.2-2.7 5.8-5.8 5.8z"/></g><path d="m250.2 693h-10.1c-6.5 0-11.9-5.3-11.9-11.9v-120.8c0-6.5 5.3-11.9 11.9-11.9h10.1c6.5 0 11.9 5.3 11.9 11.9v120.8c-.1 6.6-5.4 11.9-11.9 11.9z" fill="#d2d1cd"/><path d="m301 693h-10.3c-6.7 0-12.1-5.5-12.1-12.1v-120.3c0-6.7 5.5-12.1 12.1-12.1h10.3c6.7 0 12.1 5.5 12.1 12.1v120.3c.1 6.7-5.4 12.1-12.1 12.1z" fill="#d2d1cd"/><path d="m351.6 693h-10.1c-6.5 0-11.9-5.3-11.9-11.9v-120.8c0-6.5 5.3-11.9 11.9-11.9h10.1c6.5 0 11.9 5.3 11.9 11.9v120.8c0 6.6-5.3 11.9-11.9 11.9z" fill="#d2d1cd"/><path d="m401.7 693h-10.3c-6.7 0-12.1-5.5-12.1-12.1v-120.3c0-6.7 5.5-12.1 12.1-12.1h10.3c6.7 0 12.1 5.5 12.1 12.1v120.3c0 6.7-5.4 12.1-12.1 12.1z" fill="#d2d1cd"/><path d="m483.3 480.8v47.3h-324.1v-47.3" fill="#efeae6"/><path d="m159.2 520.1h324.1v13.5h-324.1z" fill="#dcd7cd"/><path d="m200.1 485.9c22.6 0 40.8 18.3 40.8 40.8 0 22.6-18.3 40.8-40.8 40.8s-40.8-18.3-40.8-40.8c-.1-22.5 18.2-40.8 40.8-40.8" fill="#efeae6"/><path d="m373.4 728.7h-4.9c-3.2 0-5.8-2.6-5.8-5.8v-179.7c0-3.2 2.6-5.8 5.8-5.8h4.9c3.2 0 5.8 2.6 5.8 5.8v179.6c0 3.2-2.6 5.9-5.8 5.9z" fill="#e8e3e2"/><path d="m442.4 485.9c22.6 0 40.8 18.3 40.8 40.8 0 22.6-18.3 40.8-40.8 40.8s-40.8-18.3-40.8-40.8 18.3-40.8 40.8-40.8" fill="#efeae6"/><path d="m194.6 551.7c-12.1 0-22-9.9-22-22v-9.7c0-12.1 9.9-22 22-22h252.8c12.1 0 22 9.9 22 22v9.7c0 12.1-9.9 22-22 22z" fill="#fff"/><path d="m447.4 500.8c10.6 0 19.2 8.6 19.2 19.2v9.7c0 10.6-8.6 19.2-19.2 19.2h-252.8c-10.6 0-19.2-8.6-19.2-19.2v-9.7c0-10.6 8.6-19.2 19.2-19.2zm0-5.6h-252.8c-13.6 0-24.8 11.1-24.8 24.8v9.7c0 13.6 11.1 24.8 24.8 24.8h252.8c13.6 0 24.8-11.1 24.8-24.8v-9.7c-.1-13.7-11.2-24.8-24.8-24.8z" fill="#c0b399"/><path d="m321.9 712c-38.8 0-70.4-31.6-70.4-70.4s31.6-70.4 70.4-70.4 70.4 31.6 70.4 70.4-31.6 70.4-70.4 70.4z" fill="#eee9e4"/><path d="m321.9 573.7c37.5 0 67.9 30.5 67.9 67.9s-30.5 67.9-67.9 67.9-67.9-30.5-67.9-67.9 30.4-67.9 67.9-67.9m0-5c-40.3 0-72.9 32.7-72.9 72.9s32.7 72.9 72.9 72.9 72.9-32.7 72.9-72.9-32.6-72.9-72.9-72.9z" fill="#c0b399"/><circle cx="321.9" cy="641.6" fill="#fff" r="64.4"/></svg>