<?xml version="1.0" encoding="utf-8"?>
<!-- Generator: Adobe Illustrator 19.0.0, SVG Export Plug-In . SVG Version: 6.00 Build 0)  -->
<svg version="1.1" xmlns="http://www.w3.org/2000/svg" xmlns:xlink="http://www.w3.org/1999/xlink" x="0px" y="0px"
	 viewBox="0 0 618.3 800" style="enable-background:new 0 0 618.3 800;" xml:space="preserve">
<style type="text/css">
	.st0{display:none;}
	.st1{display:inline;fill:#22B573;}
	.st2{fill:#EFEAE6;}
	.st3{fill:#E8E3E2;}
	.st4{fill:#D2D1CD;}
	.st5{fill:#DCD7CD;}
	.st6{fill:url(#เรืองแสง_1_);}
	.st7{fill:#EEE9E4;}
	.st8{fill:#C0B399;}
	.st9{fill:#FFCF4A;}
	.st10{fill:#FAB416;}
	.st11{fill:#5D4B43;}
	.st12{font-family:'KeepCalm-Medium';}
	.st13{font-size:24px;}
	.st14{fill:#FFFFFF;}
	.st15{font-family:'RSU';}
	.st16{font-size:22.5335px;}
	.st17{font-family:'RSU-Bold';}
	.st18{font-size:83.682px;}
	.st19{font-size:16.2715px;}
	.st20{fill:#F6A3A7;}
	.st21{fill:#F7B5B9;}
	.st22{fill:#FAD5D7;}
	.st23{fill:#FCE6E7;}
	.st24{fill:#BEC5E4;}
	.st25{fill:#CED3EA;}
	.st26{fill:#E4E6F3;}
	.st27{fill:#EEF0F8;}
	.st28{fill:#D4E7B7;}
	.st29{fill:#DFECC8;}
	.st30{fill:#E8F1D6;}
	.st31{fill:#F0F6E5;}
	.st32{fill:#F9B9A3;}
	.st33{fill:#FAC8B5;}
	.st34{fill:#FCE0D5;}
	.st35{fill:#FDECE5;}
	.st36{fill:#8FC63E;}
	.st37{fill:#80AD40;}
	.st38{fill:#D7D7D7;}
	.st39{fill:#FDDEC9;}
	.st40{fill:#F1D2C2;}
	.st41{fill:#B1D254;}
	.st42{fill:#E5E5E4;}
	.st43{fill:#5C4B43;}
	.st44{fill:#E5E4DE;}
	.st45{fill:#DDD9CF;}
	.st46{fill:#3B2512;}
	.st47{fill:#D83F3F;}
	.st48{fill:#715D55;}
	.st49{fill:#C0272D;}
	.st50{fill:#EC1E27;}
	.st51{fill:#EF4F4E;}
	.st52{fill:#D3D3D3;}
	.st53{fill:#F2F2F2;}
	.st54{fill:#FFE8B5;}
	.st55{opacity:0.43;fill:#D7D7D7;}
	.st56{fill:#CCCBCB;}
	.st57{fill:#ECECEA;}
	.st58{fill:#E8553A;}
	.st59{fill:#40B5D0;}
	.st60{fill:#FFE75F;}
	.st61{fill:#FFFFFF;stroke:#FFCF4A;stroke-width:5.5994;stroke-miterlimit:10;}
</style>
<g id="Layer_2" class="st0">
	<rect id="XMLID_94_" x="52.5" y="13.8" class="st1" width="536.6" height="769"/>
</g>
<g id="Layer_3">
	<rect id="XMLID_884_" x="211.5" y="503" class="st2" width="218.6" height="75.5"/>
	<rect id="XMLID_883_" x="211.5" y="503" class="st3" width="218.6" height="59"/>
	<polygon id="XMLID_882_" class="st4" points="320.9,676.5 320.9,676.8 228.1,677.7 228.1,703.3 250.1,708.8 266.6,724.5 
		278.4,719.8 298.8,726.9 320.9,763.1 320.9,762.8 342.9,726.6 363.3,719.6 375.1,724.3 391.6,708.6 413.7,703.1 413.7,677.5 	"/>
	<path id="XMLID_881_" class="st3" d="M222.3,713h-4.9c-3.2,0-5.8-2.6-5.8-5.8V542.6c0-3.2,2.6-5.8,5.8-5.8h4.9
		c3.2,0,5.8,2.6,5.8,5.8v164.6C228.1,710.4,225.4,713,222.3,713z"/>
	<path id="XMLID_880_" class="st3" d="M323.7,762.9h-4.9c-3.2,0-5.8-2.6-5.8-5.8V542.6c0-3.2,2.6-5.8,5.8-5.8h4.9
		c3.2,0,5.8,2.6,5.8,5.8v214.5C329.5,760.3,326.9,762.9,323.7,762.9z"/>
	<path id="XMLID_879_" class="st3" d="M272.6,728.1h-4.9c-3.2,0-5.8-2.6-5.8-5.8V542.6c0-3.2,2.6-5.8,5.8-5.8h4.9
		c3.2,0,5.8,2.6,5.8,5.8v179.6C278.4,725.4,275.8,728.1,272.6,728.1z"/>
	<path id="XMLID_878_" class="st3" d="M424.4,713h-4.9c-3.2,0-5.8-2.6-5.8-5.8V542.6c0-3.2,2.6-5.8,5.8-5.8h4.9
		c3.2,0,5.8,2.6,5.8,5.8v164.6C430.2,710.4,427.6,713,424.4,713z"/>
	<path id="XMLID_877_" class="st4" d="M250,692.4h-10.1c-6.5,0-11.9-5.3-11.9-11.9V559.7c0-6.5,5.3-11.9,11.9-11.9H250
		c6.5,0,11.9,5.3,11.9,11.9v120.8C261.9,687.1,256.5,692.4,250,692.4z"/>
	<path id="XMLID_876_" class="st4" d="M300.9,692.4h-10.3c-6.7,0-12.1-5.5-12.1-12.1V560c0-6.7,5.5-12.1,12.1-12.1h10.3
		c6.7,0,12.1,5.5,12.1,12.1v120.3C313,687,307.5,692.4,300.9,692.4z"/>
	<path id="XMLID_875_" class="st4" d="M351.5,692.4h-10.1c-6.5,0-11.9-5.3-11.9-11.9V559.7c0-6.5,5.3-11.9,11.9-11.9h10.1
		c6.5,0,11.9,5.3,11.9,11.9v120.8C363.3,687.1,358,692.4,351.5,692.4z"/>
	<path id="XMLID_874_" class="st4" d="M401.5,692.4h-10.3c-6.7,0-12.1-5.5-12.1-12.1V560c0-6.7,5.5-12.1,12.1-12.1h10.3
		c6.7,0,12.1,5.5,12.1,12.1v120.3C413.7,687,408.2,692.4,401.5,692.4z"/>
	<polyline id="XMLID_873_" class="st2" points="159.1,480.2 483.1,480.2 483.1,527.5 159.1,527.5 	"/>
	<polyline id="XMLID_872_" class="st5" points="159.1,519.5 483.1,519.5 483.1,533 159.1,533 	"/>
	<path id="XMLID_871_" class="st2" d="M159.1,526.2c0-22.6,18.3-40.8,40.8-40.8s40.8,18.3,40.8,40.8c0,22.6-18.3,40.8-40.8,40.8
		S159.1,548.7,159.1,526.2"/>
	<path id="XMLID_870_" class="st3" d="M373.3,728.1h-4.9c-3.2,0-5.8-2.6-5.8-5.8V542.6c0-3.2,2.6-5.8,5.8-5.8h4.9
		c3.2,0,5.8,2.6,5.8,5.8v179.6C379.1,725.4,376.5,728.1,373.3,728.1z"/>
	<circle id="XMLID_869_" class="st2" cx="442.3" cy="526.2" r="40.8"/>
	
		<linearGradient id="เรืองแสง_1_" gradientUnits="userSpaceOnUse" x1="320.1682" y1="480.822" x2="320.1682" y2="70.3408">
		<stop  offset="0" style="stop-color:#FFFFFF"/>
		<stop  offset="1" style="stop-color:#FFFFFF;stop-opacity:0"/>
	</linearGradient>
	<polyline id="เรืองแสง" class="st6" points="159.3,70.3 481.1,70.3 481.1,480.8 159.3,480.8 	"/>
	<g id="XMLID_862_">
		<path id="XMLID_46_" class="st7" d="M224.7,555.4c-12.3,0-22.3-10-22.3-22.3v-9.7c0-12.3,10-22.3,22.3-22.3h191.5
			c12.3,0,22.3,10,22.3,22.3v9.7c0,12.3-10,22.3-22.3,22.3H224.7z"/>
		<g id="XMLID_42_">
			<path id="XMLID_43_" class="st8" d="M416.2,503.6c10.9,0,19.8,8.9,19.8,19.8v9.7c0,10.9-8.9,19.8-19.8,19.8H224.7
				c-10.9,0-19.8-8.9-19.8-19.8v-9.7c0-10.9,8.9-19.8,19.8-19.8H416.2 M416.2,498.6H224.7c-13.6,0-24.8,11.1-24.8,24.8v9.7
				c0,13.6,11.1,24.8,24.8,24.8h191.5c13.6,0,24.8-11.1,24.8-24.8v-9.7C441,509.7,429.8,498.6,416.2,498.6L416.2,498.6z"/>
		</g>
	</g>
	<g id="XMLID_855_">
		<g id="XMLID_856_">
			<circle id="XMLID_861_" class="st9" cx="425.6" cy="536.6" r="21.1"/>
			<path id="XMLID_860_" class="st9" d="M443,548.7c0,0,8.2-16.3,22.7-18c0,0,1.7-0.2,1.6-1.9c-0.1-1.7,0-37.7,0-37.7s0-0.7-0.9-0.7
				c-0.9,0-25.4,15.6-25.4,15.6s-0.9,0.6-0.2,1.5c0.8,0.9,3.3,3.8-0.2,7c-1.8,1.6-14.9,0.9-14.9,0.9L443,548.7z"/>
			<circle id="XMLID_859_" class="st10" cx="425.6" cy="536.6" r="14.8"/>
			<circle id="XMLID_858_" class="st9" cx="425.6" cy="536.6" r="7.8"/>
			<path id="XMLID_857_" class="st9" d="M404.5,536.6v19.6c0,0,0,1.5,1.4,1.5c1.5,0.1,19.7,0,19.7,0L404.5,536.6z"/>
		</g>
	</g>
	<circle id="XMLID_854_" class="st9" cx="214.4" cy="536.6" r="21.1"/>
	<path id="XMLID_853_" class="st9" d="M173.7,490.5c0.9,0,25.4,15.6,25.4,15.6s0.9,0.6,0.2,1.5c-0.8,0.9-3.3,3.8,0.2,7
		c1.8,1.6,14.9,0.9,14.9,0.9l-17.3,33.2c0,0-8.2-16.3-22.7-18"/>
	<circle id="XMLID_852_" class="st10" cx="214.4" cy="536.6" r="14.8"/>
	<circle id="XMLID_851_" class="st9" cx="214.4" cy="536.6" r="7.8"/>
	<path id="XMLID_850_" class="st9" d="M235.6,536.6v19.6c0,0,0,1.5-1.4,1.5c-1.5,0.1-19.7,0-19.7,0L235.6,536.6z"/>
	<text id="XMLID_849_" transform="matrix(1 0 0 1 234.6086 538.5605)" class="st11 st12 st13">WEB DESIGN</text>
	<g id="XMLID_836_">
		<g id="XMLID_841_">
			<g id="XMLID_843_">
				<path id="XMLID_35_" class="st7" d="M320.7,711.4c-38.8,0-70.4-31.6-70.4-70.4s31.6-70.4,70.4-70.4s70.4,31.6,70.4,70.4
					S359.6,711.4,320.7,711.4z"/>
				<path id="XMLID_32_" class="st8" d="M320.7,573.1c37.5,0,67.9,30.5,67.9,67.9s-30.5,67.9-67.9,67.9s-67.9-30.5-67.9-67.9
					S283.3,573.1,320.7,573.1 M320.7,568.1c-40.3,0-72.9,32.7-72.9,72.9s32.7,72.9,72.9,72.9c40.3,0,72.9-32.7,72.9-72.9
					S361,568.1,320.7,568.1L320.7,568.1z"/>
			</g>
			<circle id="XMLID_842_" class="st14" cx="320.7" cy="641" r="64.4"/>
		</g>
		<g id="XMLID_837_">
			<text id="XMLID_840_" transform="matrix(1 0 0 1 292.7649 612.9287)" class="st15 st16">ผู้ท้าชิง</text>
			<text id="XMLID_839_" transform="matrix(1 0 0 1 286.7141 670.0361)" class="st17 st18">10</text>
			<text id="XMLID_838_" transform="matrix(1 0 0 1 308.6375 686.2812)" class="st15 st19">ท่าน</text>
		</g>
	</g>
	<path id="XMLID_831_" class="st20" d="M169,245.7c14.1-8.7,32.6-4.3,41.3,9.8l9.2,14.9l-52.2,32.1"/>
	<polyline id="XMLID_830_" class="st21" points="167.3,302.5 219.5,270.4 244.4,310.9 192.2,343 167.3,302.5 	"/>
	
		<rect id="XMLID_829_" x="200.2" y="323.4" transform="matrix(0.8515 -0.5244 0.5244 0.8515 -147.7957 172.6067)" class="st22" width="61.3" height="47.5"/>
	
		<rect id="XMLID_828_" x="225.1" y="363.9" transform="matrix(0.8515 -0.5244 0.5244 0.8515 -165.3208 191.6945)" class="st23" width="61.3" height="47.5"/>
	<g id="XMLID_823_">
		<path id="XMLID_827_" class="st24" d="M267.9,234.1l-58.5,18.2l-5.2-16.8c-4.9-15.8,3.9-32.6,19.7-37.6l1.2-0.4
			c15.8-4.9,32.6,3.9,37.6,19.7L267.9,234.1z"/>
		
			<rect id="XMLID_826_" x="215.1" y="242.2" transform="matrix(0.9549 -0.2971 0.2971 0.9549 -67.9117 84.9985)" class="st25" width="61.3" height="47.5"/>
		
			<rect id="XMLID_825_" x="229.2" y="287.6" transform="matrix(0.9549 -0.2971 0.2971 0.9549 -80.7597 91.2433)" class="st26" width="61.3" height="47.5"/>
		
			<rect id="XMLID_824_" x="243.3" y="333" transform="matrix(0.9549 -0.2971 0.2971 0.9549 -93.6077 97.4882)" class="st27" width="61.3" height="47.5"/>
	</g>
	<g id="XMLID_818_">
		<path id="XMLID_822_" class="st28" d="M417.6,270.4l52.2,32.1l9.2-14.9c8.7-14.1,4.3-32.6-9.8-41.3l-1.1-0.7
			c-14.1-8.7-32.6-4.3-41.3,9.8L417.6,270.4z"/>
		
			<rect id="XMLID_821_" x="400.6" y="282.9" transform="matrix(-0.8515 -0.5244 0.5244 -0.8515 637.5183 794.0117)" class="st29" width="61.3" height="47.5"/>
		
			<rect id="XMLID_820_" x="375.6" y="323.4" transform="matrix(-0.8515 -0.5244 0.5244 -0.8515 570.1291 855.8839)" class="st30" width="61.3" height="47.5"/>
		
			<rect id="XMLID_819_" x="350.7" y="363.9" transform="matrix(-0.8515 -0.5244 0.5244 -0.8515 502.7399 917.7561)" class="st31" width="61.3" height="47.5"/>
	</g>
	<g id="XMLID_813_">
		<path id="XMLID_817_" class="st32" d="M369.2,234.1l58.5,18.2l5.2-16.8c4.9-15.8-3.9-32.6-19.7-37.6l-1.2-0.4
			c-15.8-4.9-32.6,3.9-37.6,19.7L369.2,234.1z"/>
		
			<rect id="XMLID_816_" x="360.7" y="242.2" transform="matrix(-0.9549 -0.2971 0.2971 -0.9549 686.0518 636.1469)" class="st33" width="61.3" height="47.5"/>
		
			<rect id="XMLID_815_" x="346.6" y="287.6" transform="matrix(-0.9549 -0.2971 0.2971 -0.9549 644.9575 720.6935)" class="st34" width="61.3" height="47.5"/>
		
			<rect id="XMLID_814_" x="332.5" y="333" transform="matrix(-0.9549 -0.2971 0.2971 -0.9549 603.863 805.2401)" class="st35" width="61.3" height="47.5"/>
	</g>
	<g id="XMLID_810_">
		<path id="XMLID_812_" class="st36" d="M389.8,432.1c-4.5-22.5,16-49.4-1.9-59c-18-9.6,9.6-45.6,0-61.6c-9.6-16-6.8-39.9-6.8-39.9
			l-60.6-10v-0.1l-0.3,0.1l-0.3-0.1v0.1l-60.6,10c0,0,2.8,23.9-6.8,39.9c-9.6,16,18,52,0,61.6c-18,9.6,2.6,36.6-1.9,59
			c-4.5,22.5-14.1,27.6-14.1,27.6h83.4h0.6h83.4C403.9,459.7,394.3,454.5,389.8,432.1z"/>
		<path id="XMLID_811_" class="st37" d="M374.1,430.8c-3.6-22.5,12.7-49.4-1.5-59s7.6-45.6,0-61.6s-5.4-39.9-5.4-39.9l-48.1-10v-0.1
			l-0.3,0.1l-0.3-0.1v0.1l-48.1,10c0,0,2.2,23.9-5.4,39.9c-7.6,16,14.3,52,0,61.6s2,36.6-1.5,59c-3.6,22.5-11.2,27.6-11.2,27.6h66.2
			h0.5h66.2C385.3,458.4,377.6,453.3,374.1,430.8z"/>
	</g>
	<polygon id="XMLID_809_" class="st38" points="243.5,480.2 397.5,480.2 317.3,391 	"/>
	<g id="XMLID_770_">
		<path id="XMLID_808_" class="st39" d="M423.1,336.5c0,0-38.5-28.6-70-40.9c-2.2-0.9-4.4-1.7-6.6-2.4l-51.2,2.2c0,0-1.4,1-3.7,3
			c-10.5,9-40.3,37.7-48.2,77.1l12.2,8.3c0,0,18-43,37.2-59c0,0,1.8,31.3-2.6,55.2c-4.5,24.6-15.4,57.8-23.7,90.5
			c0,0-8.3,4.5-8.3,9.6h31.4c0,0,16-63.5,25-74.4h12.8c0,0,21.2,52,24.4,74.4h30.2c0,0-0.6-6.4-8.3-8.3c0,0-16.3-47-23.7-91.8
			c-3.3-20-0.6-39.1-1.3-55.8c0,0,44.9,4.5,64.2,22.5L423.1,336.5z"/>
		<path id="XMLID_807_" class="st39" d="M423.1,336.5c0,0-38.5-28.6-70-40.9c-2.2-0.9-4.4-1.7-6.6-2.4l-51.2,2.2c0,0-1.4,1-3.7,3
			c-10.5,9-40.3,37.7-48.2,77.1l12.2,8.3c0,0,18-43,37.2-59c0,0,1.8,31.3-2.6,55.2c-4.5,24.6-15.4,57.8-23.7,90.5
			c0,0-8.3,4.5-8.3,9.6h31.4c0,0,16-63.5,25-74.4h12.8c0,0,21.2,52,24.4,74.4h30.2c0,0-0.6-6.4-8.3-8.3c0,0-16.3-47-23.7-91.8
			c-3.3-20-0.6-39.1-1.3-55.8c0,0,44.9,4.5,64.2,22.5L423.1,336.5z"/>
		<path id="XMLID_806_" class="st40" d="M316.6,306.9c17.2-1.4,33.2-2.8,44.9-7.7c-2.8-1.3-5.5-2.5-8.4-3.6
			c-2.2-0.9-4.4-1.7-6.6-2.4l-51.2,2.2c0,0-1.4,1-3.7,3c-1.4,1.2-3.3,2.9-5.3,4.8C295.1,306.3,305.3,307.8,316.6,306.9z"/>
		<path id="XMLID_805_" class="st41" d="M355.8,281.3c0,0-12.2,23.7,3.2,47.5c15.4,23.7,1.9,45.6,1.9,45.6s23.6-31.5,7-53.9
			C351.3,298,380.4,267,380.4,267L355.8,281.3z"/>
		<path id="XMLID_804_" class="st41" d="M360.9,252.4c0,0-12.2,23.7,3.2,47.5c15.4,23.7,1.9,45.6,1.9,45.6s23.6-31.5,7-53.9
			c-16.6-22.4,12.5-53.4,12.5-53.4L360.9,252.4z"/>
		<path id="XMLID_803_" class="st41" d="M293.7,261.4c0,0,12.2,23.7-3.2,47.5c-15.4,23.7-1.9,45.6-1.9,45.6s-23.6-31.5-7-53.9
			c16.6-22.4-12.5-53.4-12.5-53.4L293.7,261.4z"/>
		<path id="XMLID_802_" class="st41" d="M259.5,229.3c0,0-12.2,23.7,3.2,47.5s1.9,45.6,1.9,45.6s23.6-31.5,7-53.9
			s12.5-53.4,12.5-53.4L259.5,229.3z"/>
		<path id="XMLID_801_" class="st39" d="M242.2,228c0,0,9.4,28.4,16,40.4c6.4,11.6,26.3,30.8,58.4,28.2s56.5-5.1,64.2-30.8
			c7.5-25,14.1-41.1,14.1-41.1s1.7-20.4-13.7-52.5s-45.4-57.9-64.6-58.6c-19.3-0.6-55.8,12.2-68,35.3
			C236.4,172.2,236.4,198.5,242.2,228z"/>
		<path id="XMLID_800_" class="st42" d="M266.6,470.6l24.8,2.6l-1.7,7h-31.4C258.2,480.2,258.2,475.1,266.6,470.6z"/>
		<path id="XMLID_799_" class="st42" d="M374.8,470.6l-24.8,2.6l1.7,7h31.4C383.2,480.2,383.2,475.1,374.8,470.6z"/>
		<polygon id="XMLID_798_" class="st14" points="269.1,457.9 292.9,470.3 293.8,467.1 269.5,454.4 		"/>
		<polygon id="XMLID_797_" class="st14" points="267.7,464.1 296.9,455.5 295.8,459.1 267.2,467.4 		"/>
		<polygon id="XMLID_796_" class="st14" points="369.9,459.7 349.3,470.6 348.7,468 369.2,457.1 		"/>
		<polygon id="XMLID_795_" class="st14" points="372.4,465.5 345.5,458.1 346.5,461.3 373.1,468.9 		"/>
		<path id="XMLID_794_" class="st40" d="M417.8,332.6l-3.4-0.1l0.3-2.1l-2.5-1.7l-0.5,3.8l-2.2-0.1l-3.7,4.1l1.5,3.4l-1.2,1.6
			c2.5,1.6,4.8,3.3,6.8,5.2l10.3-10.3C423.1,336.5,421.2,335,417.8,332.6z"/>
		<g id="XMLID_789_">
			
				<rect id="XMLID_793_" x="409.1" y="298" transform="matrix(0.9961 8.855212e-02 -8.855212e-02 0.9961 36.1045 -35.0313)" class="st43" width="7.6" height="182.9"/>
			<path id="XMLID_792_" class="st14" d="M437.1,280.5L437.1,280.5L437.1,280.5c-0.1-0.8-0.3-1.5-0.5-2.2l-3.1-12.6l-0.2,0
				l-6.3-15.1l-9.9,13l-0.3,0l-6.2,11.4c-0.4,0.6-0.8,1.3-1.1,2l0,0l0,0c-0.5,1.2-0.9,2.6-1.1,4c-1,8,4.6,15.3,12.6,16.3
				s15.3-4.6,16.3-12.6C437.4,283.2,437.3,281.9,437.1,280.5z"/>
			<polygon id="XMLID_791_" class="st44" points="415.3,299.2 426.8,300.7 426.1,297 416.6,296 			"/>
			<path id="XMLID_790_" class="st45" d="M426.9,250.9c0,0-10.2,12.4-13.2,18.3l6.2-6.1l-1,13.8l5.5-12.4l1.3,20.2l2.3-18.2l3.4,9.7
				l-0.3-10.1l3.2,2.7C434.2,268.8,428.8,253.5,426.9,250.9z"/>
		</g>
		<polygon id="XMLID_788_" class="st39" points="424.1,336.1 412,335.8 408.3,339.9 409.8,343.3 407.5,346.5 409.1,349.7 
			408.1,352.8 410.8,354.6 422.8,354.6 425.8,350.3 423.5,348.1 426.5,344.9 423.5,343 426.4,339.4 		"/>
		<circle id="XMLID_787_" class="st46" cx="288.4" cy="238.9" r="11.6"/>
		<circle id="XMLID_786_" class="st46" cx="346.8" cy="238.9" r="11.6"/>
		<path id="XMLID_785_" class="st40" d="M394.7,171.8c-6.8-20.8-24.1-50.4-77.4-49.1c-53.3-1.3-68.7,28.2-75.5,49.1
			c-6.8,20.8,26.1,88.3,26.1,88.3c-14.1-33.4-3.2-43.6,17.3-49.4c20.5-5.8,32.7,14.8,32.7,14.8s12.8-20.5,33.4-14.8
			c20.5,5.8,31.4,16,17.3,49.4C368.6,260.1,401.5,192.7,394.7,171.8z"/>
		<path id="XMLID_784_" class="st43" d="M368.6,285.8l29.5-34v-46.2c0,0,3.4-21.2-3.4-42.1c-6.8-20.8-24.1-50.4-77.4-49.1
			c-53.3-1.3-68.7,28.2-75.5,49.1c-6.8,20.8-2.8,42.1-2.8,42.1l-0.6,46.2l29.5,34v-34c-14.1-33.4-3.2-43.6,17.3-49.4
			c20.5-5.8,32.7,14.8,32.7,14.8s12.8-20.5,33.4-14.8c20.5,5.8,31.4,16,17.3,49.4V285.8z"/>
		<polygon id="XMLID_783_" class="st47" points="285.4,118.2 290.9,32.9 346.8,32.9 349.3,118.2 		"/>
		<polygon id="XMLID_782_" class="st46" points="299.9,105.4 304.4,174.1 328.8,174.1 335.2,105.4 		"/>
		<polygon id="XMLID_781_" class="st48" points="299.9,101.6 304.4,170.3 328.8,170.3 335.2,101.6 		"/>
		<g id="XMLID_775_">
			<circle id="XMLID_780_" class="st49" cx="317.8" cy="272.3" r="7.2"/>
			<circle id="XMLID_779_" class="st49" cx="327.5" cy="270.2" r="5.1"/>
			<circle id="XMLID_778_" class="st49" cx="307.6" cy="270.2" r="5.1"/>
			<rect id="XMLID_777_" x="307.6" y="265.1" class="st49" width="20.4" height="5.1"/>
			<path id="XMLID_776_" class="st49" d="M305.9,275.1c0,0,6.3,4.4,12,4.4s11.5-4.4,11.5-4.4l-4.8-3.8l-18.9-0.5L305.9,275.1z"/>
		</g>
		<path id="XMLID_774_" class="st50" d="M305.7,274.9l0,0.1c0.1,0,0.1,0,0.2,0.1v0c0,0,6.3,4.4,12,4.4c5.6,0,11.5-4.4,11.5-4.4l0,0
			c0.4-0.1,0.7-0.3,1-0.5c-0.3-0.2-7.4-3.5-12.9-3.5C311.8,271.1,305.7,274.9,305.7,274.9z"/>
		<path id="XMLID_773_" class="st46" d="M302.5,199.1c-3.9-1.9-14.8-2.6-27,1.9c-12.2,4.5-16,12.2-17.3,23.1
			c-1.3,10.9,6.6,27.9,6.6,27.9v30.1l3.1,3.5v-34c-14.1-33.4-3.2-43.6,17.3-49.4c20.5-5.8,32.7,14.8,32.7,14.8v-5.8
			C316.6,208.8,306.4,201.1,302.5,199.1z"/>
		<path id="XMLID_772_" class="st46" d="M333.2,199.1c3.9-1.9,14.8-2.6,27,1.9s16,12.2,17.3,23.1c1.3,10.9-6.6,27.9-6.6,27.9v30.1
			l-3.1,3.5v-34c14.1-33.4,3.2-43.6-17.3-49.4s-32.7,14.8-32.7,14.8v-5.8C319,208.8,329.3,201.1,333.2,199.1z"/>
		<polygon id="XMLID_771_" class="st51" points="299.9,101.6 335.2,101.6 346.8,32.9 290.9,32.9 		"/>
	</g>
	<path id="XMLID_769_" class="st40" d="M314.7,405.8h12.8c0,0,6.1,15,12.3,32.4c6.2,7.3,13,14.5,20.4,21.3
		c4.2,3.9,8.6,7.7,13.2,11.3c-2.4-7.1-16.6-49.8-23.4-90.7c-0.9-5.6-1.4-11.2-1.6-16.7h-1.1h-53.9h-1c-0.5,5.6-1.1,11.4-2.1,16.7
		c-4.5,24.6-15.4,57.8-23.7,90.5c0,0-4.9,2.6-7.2,6.2c7.5-5.2,14.6-11.1,21.2-17.2c7.7-7.1,14.8-14.7,21.2-22.4
		C306.3,423.2,311.1,410.2,314.7,405.8z"/>
	<path id="XMLID_768_" class="st14" d="M280.2,463.6l12.8,6.7l0.9-3.2l-9.1-4.7l11.1-3.2l1-3.7l-16.1,4.8l-0.6-0.3
		c-2,1.9-4.1,3.7-6.2,5.5L280.2,463.6z"/>
	<path id="XMLID_767_" class="st52" d="M260.5,475.4c-0.4,0.5-0.7,0.9-1,1.3c2.7-1.9,5.4-3.9,8.1-6l-1-0.1c0,0-0.1,0.1-0.1,0.1
		C265.8,471,262.7,472.9,260.5,475.4z"/>
	<path id="XMLID_766_" class="st53" d="M269.8,458.3l6.4,3.3l-7.9,2.3c-0.3,1.1-0.6,2.3-0.9,3.4l6.6-1.9c2.1-1.8,4.1-3.6,6.2-5.5
		l-9.5-4.9C270.4,456.1,270.1,457.2,269.8,458.3z"/>
	<path id="XMLID_765_" class="st53" d="M369.8,468l2.9,0.8c-0.3-1-0.7-2.1-1.1-3.5l-7.2-2C366.2,464.9,368,466.5,369.8,468z"/>
	<path id="XMLID_764_" class="st53" d="M369.8,459.7c-0.3-0.8-0.5-1.6-0.8-2.5l-7.2,3.8c0.7,0.6,1.3,1.2,2,1.8L369.8,459.7z"/>
	<g id="XMLID_761_">
		<path id="XMLID_763_" class="st14" d="M349.2,357h-57.6c0,0,39,87.3,105.7,123.2C397.3,480.2,365.9,440.4,349.2,357z"/>
		<path id="XMLID_762_" class="st54" d="M293.4,357c6.8,14.3,42.9,85,100.4,118.4c2.2,3.2,3.4,4.9,3.4,4.9
			C330.6,444.3,291.6,357,291.6,357H293.4z"/>
	</g>
	<path id="XMLID_760_" class="st53" d="M350.9,365.3c-0.6-2.7-1.2-5.5-1.8-8.3h-51.8c-0.4,1.9-0.8,3.8-1.2,5.6
		c5,9.8,14.6,27.2,28.3,46.2C337.2,391,346.1,374.7,350.9,365.3z"/>
	<path id="XMLID_759_" class="st55" d="M340.6,357c0,0,10.4,45.7,16,53.5c0,0-12.5-16.7-18-53.5H340.6z"/>
	<path id="XMLID_758_" class="st55" d="M327.6,357c0,0,7.2,31.4,11,36.8c0,0-8.6-11.5-12.4-36.8H327.6z"/>
	<g id="XMLID_755_">
		<path id="XMLID_757_" class="st14" d="M291.6,357h57.6c0,0-39,87.3-105.7,123.2C243.5,480.2,274.9,440.4,291.6,357z"/>
		<path id="XMLID_756_" class="st54" d="M347.3,357c-6.8,14.3-42.9,85-100.4,118.4c-2.2,3.2-3.4,4.9-3.4,4.9
			C310.2,444.3,349.2,357,349.2,357H347.3z"/>
	</g>
	<polygon id="XMLID_754_" class="st9" points="394.9,315.3 388.5,335.2 402,340.3 407.7,323.6 	"/>
	<polygon id="XMLID_753_" class="st40" points="394.3,317.1 393.1,316.3 387.5,332.8 389.1,333.4 	"/>
	<path id="XMLID_752_" class="st40" d="M291.6,319.8c0,0,2.6-7.4,12-11.5c0,0,13.5,6.1,16.9,11.5c0,0,10.1-11.5,17.6-12.8
		c0,0,6.8,6.1,12.2,14.9c0,0,2.5,1.4-0.1,12.2v20.5h-59.3v-21.2C290.8,333.3,287.5,326.5,291.6,319.8z"/>
	<path id="XMLID_751_" class="st52" d="M291.6,322.3c0,0,2.6-7.4,12-11.5c0,0,13.5,6.1,16.9,11.5c0,0,10.1-11.5,17.6-12.8
		c0,0,6.8,6.1,12.2,14.9c0,0,2.5,1.4-0.1,12.2V357h-59.3v-21.2C290.8,335.8,287.5,329.1,291.6,322.3z"/>
	<path id="XMLID_750_" class="st42" d="M291.6,327.5c0,0,2.6-6.8,12-10.8c0,0,13.5,6.1,16.9,11.5c0,0,10.1-11.5,17.6-12.8
		c0,0,6.8,6.1,12.2,14.9c0,0,2.5,1.4-0.1,12.2V357h-59.3v-15.4C290.8,341.6,287.5,334.2,291.6,327.5z"/>
	<g id="XMLID_746_">
		<path id="XMLID_749_" class="st53" d="M293.4,357h-1.8h0c0,0,0,0,0,0.1c-0.3,1.4-0.6,2.7-0.8,4.1v0.3h54.4
			c0.9-1.8,1.7-3.3,2.2-4.5H293.4z"/>
		<path id="XMLID_748_" class="st54" d="M345.1,361.5c-10.6,20.9-45.3,83.2-98.2,113.9c-2.2,3.2-3.4,4.9-3.4,4.9
			c57.7-31.1,94.6-100.4,103.6-118.7H345.1z"/>
		<path id="XMLID_747_" class="st54" d="M349.2,357L349.2,357h-1.8c-0.5,1.1-1.3,2.7-2.2,4.5h1.9C348.5,358.6,349.2,357,349.2,357z"
			/>
	</g>
	<path id="XMLID_745_" class="st55" d="M299.9,357c0,0-10.4,45.7-16,53.5c0,0,12.5-16.7,18-53.5H299.9z"/>
	<path id="XMLID_744_" class="st55" d="M312.8,357c0,0-7.2,31.4-11,36.8c0,0,8.6-11.5,12.4-36.8H312.8z"/>
	<path id="XMLID_743_" class="st55" d="M329.8,357c0,0-5.1,16.7-7.8,19.6c0,0,6.2-6.1,8.8-19.6H329.8z"/>
	<polygon id="XMLID_742_" class="st56" points="305.8,480.2 311,449.4 314.1,480.2 	"/>
	<polygon id="XMLID_741_" class="st56" points="328.2,480.2 333.4,449.4 336.5,480.2 	"/>
	<g id="XMLID_729_">
		<path id="XMLID_740_" class="st57" d="M211.3,330.7c-26.8,18.3-33.8,54.8-15.5,81.7c18.3,26.8,54.8,33.8,81.7,15.5
			c0.6-0.4,1.2-0.9,1.8-1.4c0.4-0.2,0.8-0.4,1.1-0.6l21-14.3c3.4-2.3,4.2-6.9,1.9-10.3c-2.3-3.4-6.9-4.2-10.3-1.9l-1.9,1.3
			c-6.7,4.6-15.9,2.8-20.5-3.9l0,0c-4.6-6.7-2.8-15.9,3.9-20.5c0,0,13.2-18.3,13.5-23.3C289.7,317.7,238.1,312.5,211.3,330.7z"/>
		<circle id="XMLID_739_" class="st58" cx="217.9" cy="400.8" r="11.6"/>
		<circle id="XMLID_732_" class="st59" cx="218.5" cy="363.5" r="11.6"/>
		<circle id="XMLID_731_" class="st57" cx="262.1" cy="353.1" r="26"/>
		<circle id="XMLID_730_" class="st60" cx="250.5" cy="346.4" r="11.6"/>
	</g>
	<rect id="XMLID_678_" x="211.7" y="503.6" class="st2" width="218.6" height="75.5"/>
	<rect id="XMLID_677_" x="211.7" y="503.6" class="st3" width="218.6" height="59"/>
	<polygon id="XMLID_676_" class="st4" points="321,677.1 321,677.4 228.2,678.3 228.2,703.9 250.2,709.4 266.8,725.1 278.6,720.4 
		299,727.5 321,763.7 321,763.4 343.1,727.2 363.5,720.2 375.3,724.9 391.8,709.2 413.8,703.7 413.8,678.1 	"/>
	<path id="XMLID_675_" class="st3" d="M222.4,713.6h-4.9c-3.2,0-5.8-2.6-5.8-5.8V543.2c0-3.2,2.6-5.8,5.8-5.8h4.9
		c3.2,0,5.8,2.6,5.8,5.8v164.6C228.2,711,225.6,713.6,222.4,713.6z"/>
	<path id="XMLID_674_" class="st3" d="M323.9,763.5H319c-3.2,0-5.8-2.6-5.8-5.8V543.2c0-3.2,2.6-5.8,5.8-5.8h4.9
		c3.2,0,5.8,2.6,5.8,5.8v214.5C329.7,760.9,327.1,763.5,323.9,763.5z"/>
	<path id="XMLID_673_" class="st3" d="M272.8,728.7h-4.9c-3.2,0-5.8-2.6-5.8-5.8V543.2c0-3.2,2.6-5.8,5.8-5.8h4.9
		c3.2,0,5.8,2.6,5.8,5.8v179.6C278.6,726,276,728.7,272.8,728.7z"/>
	<path id="XMLID_666_" class="st3" d="M424.6,713.6h-4.9c-3.2,0-5.8-2.6-5.8-5.8V543.2c0-3.2,2.6-5.8,5.8-5.8h4.9
		c3.2,0,5.8,2.6,5.8,5.8v164.6C430.4,711,427.7,713.6,424.6,713.6z"/>
	<path id="XMLID_665_" class="st4" d="M250.2,693h-10.1c-6.5,0-11.9-5.3-11.9-11.9V560.3c0-6.5,5.3-11.9,11.9-11.9h10.1
		c6.5,0,11.9,5.3,11.9,11.9v120.8C262,687.7,256.7,693,250.2,693z"/>
	<path id="XMLID_664_" class="st4" d="M301,693h-10.3c-6.7,0-12.1-5.5-12.1-12.1V560.6c0-6.7,5.5-12.1,12.1-12.1H301
		c6.7,0,12.1,5.5,12.1,12.1v120.3C313.2,687.6,307.7,693,301,693z"/>
	<path id="XMLID_663_" class="st4" d="M351.6,693h-10.1c-6.5,0-11.9-5.3-11.9-11.9V560.3c0-6.5,5.3-11.9,11.9-11.9h10.1
		c6.5,0,11.9,5.3,11.9,11.9v120.8C363.5,687.7,358.2,693,351.6,693z"/>
	<path id="XMLID_662_" class="st4" d="M401.7,693h-10.3c-6.7,0-12.1-5.5-12.1-12.1V560.6c0-6.7,5.5-12.1,12.1-12.1h10.3
		c6.7,0,12.1,5.5,12.1,12.1v120.3C413.8,687.6,408.4,693,401.7,693z"/>
	<polyline id="XMLID_657_" class="st2" points="159.2,480.8 483.3,480.8 483.3,528.1 159.2,528.1 	"/>
	<polyline id="XMLID_656_" class="st5" points="159.2,520.1 483.3,520.1 483.3,533.6 159.2,533.6 	"/>
	<path id="XMLID_655_" class="st2" d="M159.2,526.8c0-22.6,18.3-40.8,40.8-40.8s40.8,18.3,40.8,40.8s-18.3,40.8-40.8,40.8
		S159.2,549.3,159.2,526.8"/>
	<path id="XMLID_653_" class="st3" d="M373.4,728.7h-4.9c-3.2,0-5.8-2.6-5.8-5.8V543.2c0-3.2,2.6-5.8,5.8-5.8h4.9
		c3.2,0,5.8,2.6,5.8,5.8v179.6C379.2,726,376.6,728.7,373.4,728.7z"/>
	<circle id="XMLID_652_" class="st2" cx="442.4" cy="526.8" r="40.8"/>
	<path id="XMLID_650_" class="st61" d="M169.8,520c0-13.6,11.1-24.8,24.8-24.8h252.8c13.6,0,24.8,11.1,24.8,24.8v9.7
		c0,13.6-11.1,24.8-24.8,24.8H194.6c-13.6,0-24.8-11.1-24.8-24.8"/>
	<g id="Layer_4">
		<g id="XMLID_396_">
			<g id="XMLID_199_">
				<path id="XMLID_203_" class="st20" d="M219.6,270.4l-52.2,32.1l-9.2-14.9c-8.7-14.1-4.3-32.6,9.8-41.3l1.1-0.7
					c14.1-8.7,32.6-4.3,41.3,9.8L219.6,270.4z"/>
				
					<rect id="XMLID_202_" x="175.3" y="282.9" transform="matrix(0.8515 -0.5244 0.5244 0.8515 -130.2528 153.5742)" class="st21" width="61.3" height="47.5"/>
				
					<rect id="XMLID_201_" x="200.3" y="323.4" transform="matrix(0.8515 -0.5244 0.5244 0.8515 -147.7779 172.662)" class="st22" width="61.3" height="47.5"/>
				
					<rect id="XMLID_200_" x="225.2" y="363.9" transform="matrix(0.8515 -0.5244 0.5244 0.8515 -165.3031 191.7499)" class="st23" width="61.3" height="47.5"/>
			</g>
			<g id="XMLID_194_">
				<path id="XMLID_198_" class="st24" d="M268,234.1l-58.5,18.2l-5.2-16.8c-4.9-15.8,3.9-32.6,19.7-37.6l1.2-0.4
					c15.8-4.9,32.6,3.9,37.6,19.7L268,234.1z"/>
				
					<rect id="XMLID_197_" x="215.2" y="242.2" transform="matrix(0.9549 -0.2971 0.2971 0.9549 -67.9058 85.03)" class="st25" width="61.3" height="47.5"/>
				
					<rect id="XMLID_196_" x="229.3" y="287.6" transform="matrix(0.9549 -0.2971 0.2971 0.9549 -80.7538 91.2748)" class="st26" width="61.3" height="47.5"/>
				
					<rect id="XMLID_195_" x="243.4" y="333" transform="matrix(0.9549 -0.2971 0.2971 0.9549 -93.6018 97.5197)" class="st27" width="61.3" height="47.5"/>
			</g>
			<g id="XMLID_189_">
				<path id="XMLID_193_" class="st28" d="M417.7,270.4l52.2,32.1l9.2-14.9c8.7-14.1,4.3-32.6-9.8-41.3l-1.1-0.7
					c-14.1-8.7-32.6-4.3-41.3,9.8L417.7,270.4z"/>
				
					<rect id="XMLID_192_" x="400.7" y="282.9" transform="matrix(-0.8515 -0.5244 0.5244 -0.8515 637.7176 794.0608)" class="st29" width="61.3" height="47.5"/>
				
					<rect id="XMLID_191_" x="375.8" y="323.4" transform="matrix(-0.8515 -0.5244 0.5244 -0.8515 570.3284 855.933)" class="st30" width="61.3" height="47.5"/>
				
					<rect id="XMLID_190_" x="350.8" y="363.9" transform="matrix(-0.8515 -0.5244 0.5244 -0.8515 502.9392 917.8052)" class="st31" width="61.3" height="47.5"/>
			</g>
			<g id="XMLID_184_">
				<path id="XMLID_188_" class="st32" d="M369.3,234.1l58.5,18.2l5.2-16.8c4.9-15.8-3.9-32.6-19.7-37.6l-1.2-0.4
					c-15.8-4.9-32.6,3.9-37.6,19.7L369.3,234.1z"/>
				
					<rect id="XMLID_187_" x="360.8" y="242.2" transform="matrix(-0.9549 -0.2971 0.2971 -0.9549 686.2613 636.1714)" class="st33" width="61.3" height="47.5"/>
				
					<rect id="XMLID_186_" x="346.7" y="287.6" transform="matrix(-0.9549 -0.2971 0.2971 -0.9549 645.1669 720.718)" class="st34" width="61.3" height="47.5"/>
				
					<rect id="XMLID_185_" x="332.6" y="333" transform="matrix(-0.9549 -0.2971 0.2971 -0.9549 604.0725 805.2646)" class="st35" width="61.3" height="47.5"/>
			</g>
			<g id="XMLID_181_">
				<path id="XMLID_183_" class="st36" d="M389.9,432.1c-4.5-22.5,16-49.4-1.9-59c-18-9.6,9.6-45.6,0-61.6
					c-9.6-16-6.8-39.9-6.8-39.9l-60.6-10v-0.1l-0.3,0.1l-0.3-0.1v0.1l-60.6,10c0,0,2.8,23.9-6.8,39.9c-9.6,16,18,52,0,61.6
					c-18,9.6,2.6,36.6-1.9,59c-4.5,22.5-14.1,27.6-14.1,27.6h83.4h0.6H404C404,459.7,394.4,454.5,389.9,432.1z"/>
				<path id="XMLID_182_" class="st37" d="M374.2,430.8c-3.6-22.5,12.7-49.4-1.5-59s7.6-45.6,0-61.6c-7.6-16-5.4-39.9-5.4-39.9
					l-48.1-10v-0.1l-0.3,0.1l-0.3-0.1v0.1l-48.1,10c0,0,2.2,23.9-5.4,39.9c-7.6,16,14.3,52,0,61.6c-14.3,9.6,2,36.6-1.5,59
					s-11.2,27.6-11.2,27.6h66.2h0.5h66.2C385.4,458.4,377.8,453.3,374.2,430.8z"/>
			</g>
			<polygon id="XMLID_180_" class="st38" points="243.6,480.2 397.6,480.2 317.4,391 			"/>
			<g id="XMLID_119_">
				<path id="XMLID_179_" class="st39" d="M423.2,336.5c0,0-38.5-28.6-70-40.9c-2.2-0.9-4.4-1.7-6.6-2.4l-51.2,2.2c0,0-1.4,1-3.7,3
					c-10.5,9-40.3,37.7-48.2,77.1l12.2,8.3c0,0,18-43,37.2-59c0,0,1.8,31.3-2.6,55.2c-4.5,24.6-15.4,57.8-23.7,90.5
					c0,0-8.3,4.5-8.3,9.6h31.4c0,0,16-63.5,25-74.4h12.8c0,0,21.2,52,24.4,74.4h30.2c0,0-0.6-6.4-8.3-8.3c0,0-16.3-47-23.7-91.8
					c-3.3-20-0.6-39.1-1.3-55.8c0,0,44.9,4.5,64.2,22.5L423.2,336.5z"/>
				<path id="XMLID_178_" class="st39" d="M423.2,336.5c0,0-38.5-28.6-70-40.9c-2.2-0.9-4.4-1.7-6.6-2.4l-51.2,2.2c0,0-1.4,1-3.7,3
					c-10.5,9-40.3,37.7-48.2,77.1l12.2,8.3c0,0,18-43,37.2-59c0,0,1.8,31.3-2.6,55.2c-4.5,24.6-15.4,57.8-23.7,90.5
					c0,0-8.3,4.5-8.3,9.6h31.4c0,0,16-63.5,25-74.4h12.8c0,0,21.2,52,24.4,74.4h30.2c0,0-0.6-6.4-8.3-8.3c0,0-16.3-47-23.7-91.8
					c-3.3-20-0.6-39.1-1.3-55.8c0,0,44.9,4.5,64.2,22.5L423.2,336.5z"/>
				<path id="XMLID_177_" class="st40" d="M316.7,306.9c17.2-1.4,33.2-2.8,44.9-7.7c-2.8-1.3-5.5-2.5-8.4-3.6
					c-2.2-0.9-4.4-1.7-6.6-2.4l-51.2,2.2c0,0-1.4,1-3.7,3c-1.4,1.2-3.3,2.9-5.3,4.8C295.2,306.3,305.4,307.8,316.7,306.9z"/>
				<path id="XMLID_176_" class="st41" d="M355.9,281.3c0,0-12.2,23.7,3.2,47.5s1.9,45.6,1.9,45.6s23.6-31.5,7-53.9
					C351.4,298,380.5,267,380.5,267L355.9,281.3z"/>
				<path id="XMLID_175_" class="st41" d="M361,252.4c0,0-12.2,23.7,3.2,47.5c15.4,23.7,1.9,45.6,1.9,45.6s23.6-31.5,7-53.9
					c-16.6-22.4,12.5-53.4,12.5-53.4L361,252.4z"/>
				<path id="XMLID_174_" class="st41" d="M293.8,261.4c0,0,12.2,23.7-3.2,47.5c-15.4,23.7-1.9,45.6-1.9,45.6s-23.6-31.5-7-53.9
					c16.6-22.4-12.5-53.4-12.5-53.4L293.8,261.4z"/>
				<path id="XMLID_173_" class="st41" d="M259.6,229.3c0,0-12.2,23.7,3.2,47.5s1.9,45.6,1.9,45.6s23.6-31.5,7-53.9
					s12.5-53.4,12.5-53.4L259.6,229.3z"/>
				<path id="XMLID_172_" class="st39" d="M242.3,228c0,0,9.4,28.4,16,40.4c6.4,11.6,26.3,30.8,58.4,28.2s56.5-5.1,64.2-30.8
					c7.5-25,14.1-41.1,14.1-41.1s1.7-20.4-13.7-52.5s-45.4-57.9-64.6-58.6c-19.3-0.6-55.8,12.2-68,35.3
					C236.5,172.2,236.5,198.5,242.3,228z"/>
				<path id="XMLID_171_" class="st42" d="M266.7,470.6l24.8,2.6l-1.7,7h-31.4C258.3,480.2,258.3,475.1,266.7,470.6z"/>
				<path id="XMLID_170_" class="st42" d="M374.9,470.6l-24.8,2.6l1.7,7h31.4C383.3,480.2,383.3,475.1,374.9,470.6z"/>
				<polygon id="XMLID_169_" class="st14" points="269.2,457.9 293,470.3 293.9,467.1 269.6,454.4 				"/>
				<polygon id="XMLID_168_" class="st14" points="267.9,464.1 297,455.5 295.9,459.1 267.3,467.4 				"/>
				<polygon id="XMLID_167_" class="st14" points="370,459.7 349.5,470.6 348.8,468 369.3,457.1 				"/>
				<polygon id="XMLID_166_" class="st14" points="372.5,465.5 345.6,458.1 346.6,461.3 373.2,468.9 				"/>
				<path id="XMLID_165_" class="st40" d="M417.9,332.6l-3.4-0.1l0.3-2.1l-2.5-1.7l-0.5,3.8l-2.2-0.1l-3.7,4.1l1.5,3.4l-1.2,1.6
					c2.5,1.6,4.8,3.3,6.8,5.2l10.3-10.3C423.2,336.5,421.3,335,417.9,332.6z"/>
				<g id="XMLID_160_">
					
						<rect id="XMLID_164_" x="409.2" y="298" transform="matrix(0.9961 8.855212e-02 -8.855212e-02 0.9961 36.1045 -35.0407)" class="st43" width="7.6" height="182.9"/>
					<path id="XMLID_163_" class="st14" d="M437.2,280.5L437.2,280.5L437.2,280.5c-0.1-0.8-0.3-1.5-0.5-2.2l-3.1-12.6l-0.2,0
						l-6.3-15.1l-9.9,13l-0.3,0l-6.2,11.4c-0.4,0.6-0.8,1.3-1.1,2l0,0l0,0c-0.5,1.2-0.9,2.6-1.1,4c-1,8,4.6,15.3,12.6,16.3
						c8,1,15.3-4.6,16.3-12.6C437.5,283.2,437.4,281.9,437.2,280.5z"/>
					<polygon id="XMLID_162_" class="st44" points="415.4,299.2 426.9,300.7 426.2,297 416.7,296 					"/>
					<path id="XMLID_161_" class="st45" d="M427,250.9c0,0-10.2,12.4-13.2,18.3l6.2-6.1l-1,13.8l5.5-12.4l1.3,20.2l2.3-18.2l3.4,9.7
						l-0.3-10.1l3.2,2.7C434.3,268.8,428.9,253.5,427,250.9z"/>
				</g>
				<polygon id="XMLID_159_" class="st39" points="424.3,336.1 412.1,335.8 408.4,339.9 410,343.3 407.7,346.5 409.2,349.7 
					408.2,352.8 410.9,354.6 422.9,354.6 425.9,350.3 423.6,348.1 426.6,344.9 423.6,342.9 426.5,339.4 				"/>
				<circle id="XMLID_158_" class="st46" cx="288.5" cy="238.9" r="11.6"/>
				<circle id="XMLID_157_" class="st46" cx="346.9" cy="238.9" r="11.6"/>
				<path id="XMLID_156_" class="st40" d="M394.8,171.8c-6.8-20.8-24.1-50.4-77.4-49.1c-53.3-1.3-68.7,28.2-75.5,49.1
					c-6.8,20.8,26.1,88.3,26.1,88.3c-14.1-33.4-3.2-43.6,17.3-49.4c20.5-5.8,32.7,14.8,32.7,14.8s12.8-20.5,33.4-14.8
					c20.5,5.8,31.4,16,17.3,49.4C368.7,260.1,401.6,192.7,394.8,171.8z"/>
				<path id="XMLID_155_" class="st43" d="M368.7,285.8l29.5-34v-46.2c0,0,3.4-21.2-3.4-42.1c-6.8-20.8-24.1-50.4-77.4-49.1
					c-53.3-1.3-68.7,28.2-75.5,49.1c-6.8,20.8-2.8,42.1-2.8,42.1l-0.6,46.2l29.5,34v-34c-14.1-33.4-3.2-43.6,17.3-49.4
					c20.5-5.8,32.7,14.8,32.7,14.8s12.8-20.5,33.4-14.8c20.5,5.8,31.4,16,17.3,49.4V285.8z"/>
				<polygon id="XMLID_154_" class="st47" points="285.6,118.2 291.1,32.9 346.9,32.9 349.5,118.2 				"/>
				<polygon id="XMLID_153_" class="st46" points="300,105.4 304.5,174.1 328.9,174.1 335.3,105.4 				"/>
				<polygon id="XMLID_152_" class="st48" points="300,101.6 304.5,170.3 328.9,170.3 335.3,101.6 				"/>
				<g id="XMLID_130_">
					<circle id="XMLID_139_" class="st49" cx="317.9" cy="272.3" r="7.2"/>
					<circle id="XMLID_138_" class="st49" cx="327.7" cy="270.2" r="5.1"/>
					<circle id="XMLID_137_" class="st49" cx="307.7" cy="270.2" r="5.1"/>
					<rect id="XMLID_136_" x="307.7" y="265.1" class="st49" width="20.4" height="5.1"/>
					<path id="XMLID_135_" class="st49" d="M306,275c0,0,6.3,4.4,12,4.4s11.5-4.4,11.5-4.4l-4.8-3.8l-18.9-0.5L306,275z"/>
				</g>
				<path id="XMLID_125_" class="st50" d="M305.8,274.9l0,0.1c0.1,0,0.1,0,0.2,0.1v0c0,0,6.3,4.4,12,4.4s11.5-4.4,11.5-4.4l0,0
					c0.4-0.1,0.7-0.3,1-0.5c-0.3-0.2-7.4-3.5-12.9-3.5C311.9,271.1,305.8,274.9,305.8,274.9z"/>
				<path id="XMLID_124_" class="st46" d="M302.6,199.1c-3.9-1.9-14.8-2.6-27,1.9c-12.2,4.5-16,12.2-17.3,23.1
					c-1.3,10.9,6.6,27.9,6.6,27.9v30.1l3.1,3.5v-34c-14.1-33.4-3.2-43.6,17.3-49.4c20.5-5.8,32.7,14.8,32.7,14.8v-5.8
					C316.7,208.8,306.5,201.1,302.6,199.1z"/>
				<path id="XMLID_121_" class="st46" d="M333.3,199.1c3.9-1.9,14.8-2.6,27,1.9c12.2,4.5,16,12.2,17.3,23.1
					c1.3,10.9-6.6,27.9-6.6,27.9v30.1l-3.1,3.5v-34c14.1-33.4,3.2-43.6-17.3-49.4c-20.5-5.8-32.7,14.8-32.7,14.8v-5.8
					C319.1,208.8,329.4,201.1,333.3,199.1z"/>
				<polygon id="XMLID_120_" class="st51" points="300,101.6 335.3,101.6 346.9,32.9 291.1,32.9 				"/>
			</g>
			<path id="XMLID_118_" class="st40" d="M314.8,405.8h12.8c0,0,6.1,15,12.3,32.4c6.2,7.3,13,14.5,20.4,21.3
				c4.2,3.9,8.6,7.7,13.2,11.3c-2.4-7.1-16.6-49.8-23.4-90.7c-0.9-5.6-1.4-11.2-1.6-16.7h-1.1h-53.9h-1c-0.5,5.6-1.1,11.4-2.1,16.7
				c-4.5,24.6-15.4,57.8-23.7,90.5c0,0-4.9,2.6-7.2,6.2c7.5-5.2,14.6-11.1,21.2-17.2c7.7-7.1,14.8-14.7,21.2-22.4
				C306.4,423.2,311.2,410.2,314.8,405.8z"/>
			<path id="XMLID_117_" class="st14" d="M280.3,463.6l12.8,6.7l0.9-3.2l-9.1-4.7l11.1-3.2l1-3.7l-16.1,4.8l-0.6-0.3
				c-2,1.9-4.1,3.7-6.2,5.5L280.3,463.6z"/>
			<path id="XMLID_116_" class="st52" d="M260.6,475.4c-0.4,0.5-0.7,0.9-1,1.3c2.7-1.9,5.4-3.9,8.1-6l-1-0.1c0,0-0.1,0.1-0.1,0.1
				C265.9,471,262.8,472.8,260.6,475.4z"/>
			<path id="XMLID_115_" class="st53" d="M269.9,458.2l6.4,3.3l-7.9,2.3c-0.3,1.1-0.6,2.3-0.9,3.4l6.6-1.9c2.1-1.8,4.1-3.6,6.2-5.5
				l-9.5-4.9C270.5,456.1,270.2,457.2,269.9,458.2z"/>
			<path id="XMLID_705_" class="st53" d="M369.9,468l2.9,0.8c-0.3-1-0.7-2.1-1.1-3.5l-7.2-2C366.3,464.9,368.1,466.5,369.9,468z"/>
			<path id="XMLID_704_" class="st53" d="M369.9,459.7c-0.3-0.8-0.5-1.6-0.8-2.5l-7.2,3.8c0.7,0.6,1.3,1.2,2,1.8L369.9,459.7z"/>
			<g id="XMLID_701_">
				<path id="XMLID_703_" class="st14" d="M349.3,357h-57.6c0,0,39,87.3,105.7,123.2C397.4,480.2,366,440.4,349.3,357z"/>
				<path id="XMLID_702_" class="st54" d="M293.5,357c6.8,14.3,42.9,85,100.4,118.4c2.2,3.2,3.4,4.9,3.4,4.9
					C330.7,444.3,291.7,357,291.7,357H293.5z"/>
			</g>
			<path id="XMLID_700_" class="st53" d="M351,365.3c-0.6-2.7-1.2-5.5-1.8-8.3h-51.8c-0.4,1.9-0.8,3.8-1.2,5.6
				c5,9.8,14.6,27.2,28.3,46.2C337.3,390.9,346.2,374.7,351,365.3z"/>
			<path id="XMLID_646_" class="st55" d="M340.7,357c0,0,10.4,45.7,16,53.5c0,0-12.5-16.7-18-53.5H340.7z"/>
			<path id="XMLID_645_" class="st55" d="M327.7,357c0,0,7.2,31.4,11,36.8c0,0-8.6-11.5-12.4-36.8H327.7z"/>
			<g id="XMLID_636_">
				<path id="XMLID_644_" class="st14" d="M291.7,357h57.6c0,0-39,87.3-105.7,123.2C243.6,480.2,275,440.4,291.7,357z"/>
				<path id="XMLID_637_" class="st54" d="M347.5,357c-6.8,14.3-42.9,85-100.4,118.4c-2.2,3.2-3.4,4.9-3.4,4.9
					C310.3,444.3,349.3,357,349.3,357H347.5z"/>
			</g>
			<polygon id="XMLID_635_" class="st9" points="395,315.3 388.6,335.2 402.1,340.3 407.8,323.6 			"/>
			<polygon id="XMLID_634_" class="st40" points="394.4,317.1 393.2,316.3 387.6,332.8 389.2,333.4 			"/>
			<path id="XMLID_632_" class="st40" d="M291.7,319.8c0,0,2.6-7.4,12-11.5c0,0,13.5,6.1,16.9,11.5c0,0,10.1-11.5,17.6-12.8
				c0,0,6.8,6.1,12.2,14.9c0,0,2.5,1.4-0.1,12.2v20.5h-59.3v-21.2C290.9,333.3,287.6,326.5,291.7,319.8z"/>
			<path id="XMLID_630_" class="st52" d="M291.7,322.3c0,0,2.6-7.4,12-11.5c0,0,13.5,6.1,16.9,11.5c0,0,10.1-11.5,17.6-12.8
				c0,0,6.8,6.1,12.2,14.9c0,0,2.5,1.4-0.1,12.2V357h-59.3v-21.2C290.9,335.8,287.6,329.1,291.7,322.3z"/>
			<path id="XMLID_629_" class="st42" d="M291.7,327.5c0,0,2.6-6.8,12-10.8c0,0,13.5,6.1,16.9,11.5c0,0,10.1-11.5,17.6-12.8
				c0,0,6.8,6.1,12.2,14.9c0,0,2.5,1.4-0.1,12.2V357h-59.3v-15.4C290.9,341.6,287.6,334.2,291.7,327.5z"/>
			<g id="XMLID_600_">
				<path id="XMLID_620_" class="st53" d="M293.5,357h-1.8h0c0,0,0,0,0,0.1c-0.3,1.4-0.6,2.7-0.8,4.1v0.3h54.4
					c0.9-1.8,1.7-3.3,2.2-4.5H293.5z"/>
				<path id="XMLID_602_" class="st54" d="M345.2,361.5c-10.6,20.9-45.3,83.2-98.2,113.9c-2.2,3.2-3.4,4.9-3.4,4.9
					c57.7-31.1,94.6-100.4,103.6-118.7H345.2z"/>
				<path id="XMLID_601_" class="st54" d="M349.3,357L349.3,357h-1.8c-0.5,1.1-1.3,2.7-2.2,4.5h1.9C348.6,358.6,349.3,357,349.3,357
					z"/>
			</g>
			<path id="XMLID_599_" class="st55" d="M300,357c0,0-10.4,45.7-16,53.5c0,0,12.5-16.7,18-53.5H300z"/>
			<path id="XMLID_598_" class="st55" d="M313,357c0,0-7.2,31.4-11,36.8c0,0,8.6-11.5,12.4-36.8H313z"/>
			<path id="XMLID_597_" class="st55" d="M329.9,357c0,0-5.1,16.7-7.8,19.6c0,0,6.2-6.1,8.8-19.6H329.9z"/>
			<polygon id="XMLID_596_" class="st56" points="305.9,480.2 311.1,449.4 314.2,480.2 			"/>
			<polygon id="XMLID_489_" class="st56" points="328.4,480.2 333.5,449.4 336.6,480.2 			"/>
			<g id="XMLID_397_">
				<path id="XMLID_487_" class="st57" d="M211.4,330.7c-26.8,18.3-33.8,54.8-15.5,81.7c18.3,26.8,54.8,33.8,81.7,15.5
					c0.6-0.4,1.2-0.9,1.8-1.4c0.4-0.2,0.8-0.4,1.1-0.6l21-14.3c3.4-2.3,4.2-6.9,1.9-10.3s-6.9-4.2-10.3-1.9l-1.9,1.3
					c-6.7,4.6-15.9,2.8-20.5-3.9l0,0c-4.6-6.7-2.8-15.9,3.9-20.5c0,0,13.2-18.3,13.5-23.3C289.8,317.7,238.2,312.5,211.4,330.7z"/>
				<circle id="XMLID_485_" class="st58" cx="218" cy="400.8" r="11.6"/>
				<circle id="XMLID_457_" class="st59" cx="218.6" cy="363.5" r="11.6"/>
				<circle id="XMLID_399_" class="st57" cx="262.3" cy="353.1" r="26"/>
				<circle id="XMLID_398_" class="st60" cx="250.6" cy="346.4" r="11.6"/>
			</g>
		</g>
	</g>
	<text id="XMLID_649_" transform="matrix(1 0 0 1 237.777 535.1602)" class="st11 st12 st13">WEB DESIGN</text>
	<g id="XMLID_633_">
		<g id="XMLID_648_">
			<path id="XMLID_27_" class="st7" d="M321.9,712c-38.8,0-70.4-31.6-70.4-70.4s31.6-70.4,70.4-70.4s70.4,31.6,70.4,70.4
				S360.7,712,321.9,712z"/>
			<path id="XMLID_24_" class="st8" d="M321.9,573.7c37.5,0,67.9,30.5,67.9,67.9s-30.5,67.9-67.9,67.9S254,679,254,641.6
				S284.4,573.7,321.9,573.7 M321.9,568.7c-40.3,0-72.9,32.7-72.9,72.9c0,40.3,32.7,72.9,72.9,72.9s72.9-32.7,72.9-72.9
				C394.8,601.3,362.2,568.7,321.9,568.7L321.9,568.7z"/>
		</g>
		<circle id="XMLID_647_" class="st14" cx="321.9" cy="641.6" r="64.4"/>
	</g>
	<g id="XMLID_114_">
		<rect id="XMLID_113_" x="211.5" y="503" class="st2" width="218.6" height="75.5"/>
		<rect id="XMLID_112_" x="211.5" y="503" class="st3" width="218.6" height="59"/>
		<polygon id="XMLID_111_" class="st4" points="320.9,676.5 320.9,676.8 228.1,677.7 228.1,703.3 250.1,708.8 266.6,724.5 
			278.4,719.8 298.8,726.9 320.9,763.1 320.9,762.8 342.9,726.6 363.3,719.6 375.1,724.3 391.6,708.6 413.7,703.1 413.7,677.5 		"/>
		<path id="XMLID_110_" class="st3" d="M222.3,713h-4.9c-3.2,0-5.8-2.6-5.8-5.8V542.6c0-3.2,2.6-5.8,5.8-5.8h4.9
			c3.2,0,5.8,2.6,5.8,5.8v164.6C228.1,710.4,225.4,713,222.3,713z"/>
		<path id="XMLID_109_" class="st3" d="M323.7,762.9h-4.9c-3.2,0-5.8-2.6-5.8-5.8V542.6c0-3.2,2.6-5.8,5.8-5.8h4.9
			c3.2,0,5.8,2.6,5.8,5.8v214.5C329.5,760.3,326.9,762.9,323.7,762.9z"/>
		<path id="XMLID_108_" class="st3" d="M272.6,728.1h-4.9c-3.2,0-5.8-2.6-5.8-5.8V542.6c0-3.2,2.6-5.8,5.8-5.8h4.9
			c3.2,0,5.8,2.6,5.8,5.8v179.6C278.4,725.4,275.8,728.1,272.6,728.1z"/>
		<path id="XMLID_107_" class="st3" d="M424.4,713h-4.9c-3.2,0-5.8-2.6-5.8-5.8V542.6c0-3.2,2.6-5.8,5.8-5.8h4.9
			c3.2,0,5.8,2.6,5.8,5.8v164.6C430.2,710.4,427.6,713,424.4,713z"/>
		<path id="XMLID_106_" class="st4" d="M250,692.4h-10.1c-6.5,0-11.9-5.3-11.9-11.9V559.7c0-6.5,5.3-11.9,11.9-11.9H250
			c6.5,0,11.9,5.3,11.9,11.9v120.8C261.9,687.1,256.5,692.4,250,692.4z"/>
		<path id="XMLID_105_" class="st4" d="M300.9,692.4h-10.3c-6.7,0-12.1-5.5-12.1-12.1V560c0-6.7,5.5-12.1,12.1-12.1h10.3
			c6.7,0,12.1,5.5,12.1,12.1v120.3C313,687,307.5,692.4,300.9,692.4z"/>
		<path id="XMLID_104_" class="st4" d="M351.5,692.4h-10.1c-6.5,0-11.9-5.3-11.9-11.9V559.7c0-6.5,5.3-11.9,11.9-11.9h10.1
			c6.5,0,11.9,5.3,11.9,11.9v120.8C363.3,687.1,358,692.4,351.5,692.4z"/>
		<path id="XMLID_103_" class="st4" d="M401.5,692.4h-10.3c-6.7,0-12.1-5.5-12.1-12.1V560c0-6.7,5.5-12.1,12.1-12.1h10.3
			c6.7,0,12.1,5.5,12.1,12.1v120.3C413.7,687,408.2,692.4,401.5,692.4z"/>
		<polyline id="XMLID_102_" class="st2" points="483.1,480.2 483.1,527.5 159.1,527.5 159.1,480.2 		"/>
		<rect id="XMLID_101_" x="159.1" y="519.5" class="st5" width="324.1" height="13.5"/>
		<path id="XMLID_100_" class="st2" d="M199.9,485.3c22.6,0,40.8,18.3,40.8,40.8c0,22.6-18.3,40.8-40.8,40.8s-40.8-18.3-40.8-40.8
			C159.1,503.6,177.3,485.3,199.9,485.3"/>
		<path id="XMLID_99_" class="st3" d="M373.3,728.1h-4.9c-3.2,0-5.8-2.6-5.8-5.8V542.6c0-3.2,2.6-5.8,5.8-5.8h4.9
			c3.2,0,5.8,2.6,5.8,5.8v179.6C379.1,725.4,376.5,728.1,373.3,728.1z"/>
		<path id="XMLID_98_" class="st2" d="M442.3,485.3c22.6,0,40.8,18.3,40.8,40.8c0,22.6-18.3,40.8-40.8,40.8s-40.8-18.3-40.8-40.8
			C401.4,503.6,419.7,485.3,442.3,485.3"/>
		<g id="XMLID_97_">
			<path id="XMLID_151_" class="st7" d="M224.7,555.4c-12.3,0-22.3-10-22.3-22.3v-9.7c0-12.3,10-22.3,22.3-22.3h191.5
				c12.3,0,22.3,10,22.3,22.3v9.7c0,12.3-10,22.3-22.3,22.3H224.7z"/>
			<g id="XMLID_147_">
				<path id="XMLID_148_" class="st8" d="M416.2,503.6c10.9,0,19.8,8.9,19.8,19.8v9.7c0,10.9-8.9,19.8-19.8,19.8H224.7
					c-10.9,0-19.8-8.9-19.8-19.8v-9.7c0-10.9,8.9-19.8,19.8-19.8H416.2 M416.2,498.6H224.7c-13.6,0-24.8,11.1-24.8,24.8v9.7
					c0,13.6,11.1,24.8,24.8,24.8h191.5c13.6,0,24.8-11.1,24.8-24.8v-9.7C441,509.7,429.8,498.6,416.2,498.6L416.2,498.6z"/>
			</g>
		</g>
		<circle id="XMLID_96_" class="st9" cx="425.6" cy="536.6" r="21.1"/>
		<path id="XMLID_95_" class="st9" d="M466.3,490.5c-0.9,0-25.4,15.6-25.4,15.6s-0.9,0.6-0.2,1.5s3.3,3.8-0.2,7
			c-1.8,1.6-14.9,0.9-14.9,0.9l17.3,33.2c0,0,8.2-16.3,22.7-18c0,0,1.7-0.2,1.6-1.9c-0.1-1.7,0-37.7,0-37.7"/>
		<circle id="XMLID_75_" class="st10" cx="425.6" cy="536.6" r="14.8"/>
		<circle id="XMLID_74_" class="st9" cx="425.6" cy="536.6" r="7.8"/>
		<path id="XMLID_73_" class="st9" d="M404.5,536.6v19.6c0,0,0,1.5,1.4,1.5s19.7,0,19.7,0L404.5,536.6z"/>
		<circle id="XMLID_72_" class="st9" cx="214.4" cy="536.6" r="21.1"/>
		<path id="XMLID_71_" class="st9" d="M173.7,490.5c0.9,0,25.4,15.6,25.4,15.6s0.9,0.6,0.2,1.5s-3.3,3.8,0.2,7
			c1.8,1.6,14.9,0.9,14.9,0.9l-17.3,33.2c0,0-8.2-16.3-22.7-18c0,0-1.7-0.2-1.6-1.9c0.1-1.7,0-37.7,0-37.7"/>
		<circle id="XMLID_70_" class="st10" cx="214.4" cy="536.6" r="14.8"/>
		<circle id="XMLID_64_" class="st9" cx="214.4" cy="536.6" r="7.8"/>
		<path id="XMLID_63_" class="st9" d="M235.6,536.6v19.6c0,0,0,1.5-1.4,1.5s-19.7,0-19.7,0L235.6,536.6z"/>
		<text id="XMLID_62_" transform="matrix(1 0 0 1 234.6086 538.5605)" class="st11 st12 st13">WEB DESIGN</text>
		<g id="XMLID_49_">
			<g id="XMLID_59_">
				<g id="XMLID_61_">
					<path id="XMLID_134_" class="st7" d="M320.7,711.4c-38.8,0-70.4-31.6-70.4-70.4s31.6-70.4,70.4-70.4
						c38.8,0,70.4,31.6,70.4,70.4S359.6,711.4,320.7,711.4z"/>
					<path id="XMLID_131_" class="st8" d="M320.7,573.1c37.5,0,67.9,30.5,67.9,67.9s-30.5,67.9-67.9,67.9s-67.9-30.5-67.9-67.9
						S283.3,573.1,320.7,573.1 M320.7,568.1c-40.3,0-72.9,32.7-72.9,72.9s32.7,72.9,72.9,72.9c40.3,0,72.9-32.7,72.9-72.9
						S361,568.1,320.7,568.1L320.7,568.1z"/>
				</g>
				<circle id="XMLID_60_" class="st14" cx="320.7" cy="641" r="64.4"/>
			</g>
			<g id="XMLID_50_">
				<text id="XMLID_53_" transform="matrix(1 0 0 1 292.7649 612.9287)" class="st15 st16">ผู้ท้าชิง</text>
				<text id="XMLID_52_" transform="matrix(1 0 0 1 286.7141 670.0361)" class="st17 st18">10</text>
				<text id="XMLID_51_" transform="matrix(1 0 0 1 308.6375 686.2812)" class="st15 st19">ท่าน</text>
			</g>
		</g>
		<rect id="XMLID_48_" x="211.7" y="503.6" class="st2" width="218.6" height="75.5"/>
		<rect id="XMLID_47_" x="211.7" y="503.6" class="st3" width="218.6" height="59"/>
		<polygon id="XMLID_40_" class="st4" points="321,677.1 321,677.4 228.2,678.3 228.2,703.9 250.2,709.4 266.8,725.1 278.6,720.4 
			299,727.5 321,763.7 321,763.4 343.1,727.2 363.5,720.2 375.3,724.9 391.8,709.2 413.8,703.7 413.8,678.1 		"/>
		<path id="XMLID_39_" class="st3" d="M222.4,713.6h-4.9c-3.2,0-5.8-2.6-5.8-5.8V543.2c0-3.2,2.6-5.8,5.8-5.8h4.9
			c3.2,0,5.8,2.6,5.8,5.8v164.6C228.2,711,225.6,713.6,222.4,713.6z"/>
		<path id="XMLID_38_" class="st3" d="M323.9,763.5H319c-3.2,0-5.8-2.6-5.8-5.8V543.2c0-3.2,2.6-5.8,5.8-5.8h4.9
			c3.2,0,5.8,2.6,5.8,5.8v214.5C329.7,760.9,327.1,763.5,323.9,763.5z"/>
		<path id="XMLID_37_" class="st3" d="M272.8,728.7h-4.9c-3.2,0-5.8-2.6-5.8-5.8V543.2c0-3.2,2.6-5.8,5.8-5.8h4.9
			c3.2,0,5.8,2.6,5.8,5.8v179.6C278.6,726,276,728.7,272.8,728.7z"/>
		<path id="XMLID_36_" class="st3" d="M424.6,713.6h-4.9c-3.2,0-5.8-2.6-5.8-5.8V543.2c0-3.2,2.6-5.8,5.8-5.8h4.9
			c3.2,0,5.8,2.6,5.8,5.8v164.6C430.4,711,427.7,713.6,424.6,713.6z"/>
		<path id="XMLID_31_" class="st4" d="M250.2,693h-10.1c-6.5,0-11.9-5.3-11.9-11.9V560.3c0-6.5,5.3-11.9,11.9-11.9h10.1
			c6.5,0,11.9,5.3,11.9,11.9v120.8C262,687.7,256.7,693,250.2,693z"/>
		<path id="XMLID_30_" class="st4" d="M301,693h-10.3c-6.7,0-12.1-5.5-12.1-12.1V560.6c0-6.7,5.5-12.1,12.1-12.1H301
			c6.7,0,12.1,5.5,12.1,12.1v120.3C313.2,687.6,307.7,693,301,693z"/>
		<path id="XMLID_29_" class="st4" d="M351.6,693h-10.1c-6.5,0-11.9-5.3-11.9-11.9V560.3c0-6.5,5.3-11.9,11.9-11.9h10.1
			c6.5,0,11.9,5.3,11.9,11.9v120.8C363.5,687.7,358.2,693,351.6,693z"/>
		<path id="XMLID_23_" class="st4" d="M401.7,693h-10.3c-6.7,0-12.1-5.5-12.1-12.1V560.6c0-6.7,5.5-12.1,12.1-12.1h10.3
			c6.7,0,12.1,5.5,12.1,12.1v120.3C413.8,687.6,408.4,693,401.7,693z"/>
		<polyline id="XMLID_22_" class="st2" points="483.3,480.8 483.3,528.1 159.2,528.1 159.2,480.8 		"/>
		<rect id="XMLID_21_" x="159.2" y="520.1" class="st5" width="324.1" height="13.5"/>
		<path id="XMLID_18_" class="st2" d="M200.1,485.9c22.6,0,40.8,18.3,40.8,40.8c0,22.6-18.3,40.8-40.8,40.8s-40.8-18.3-40.8-40.8
			C159.2,504.2,177.5,485.9,200.1,485.9"/>
		<path id="XMLID_17_" class="st3" d="M373.4,728.7h-4.9c-3.2,0-5.8-2.6-5.8-5.8V543.2c0-3.2,2.6-5.8,5.8-5.8h4.9
			c3.2,0,5.8,2.6,5.8,5.8v179.6C379.2,726,376.6,728.7,373.4,728.7z"/>
		<path id="XMLID_16_" class="st2" d="M442.4,485.9c22.6,0,40.8,18.3,40.8,40.8c0,22.6-18.3,40.8-40.8,40.8s-40.8-18.3-40.8-40.8
			C401.6,504.2,419.9,485.9,442.4,485.9"/>
		<g id="XMLID_15_">
			<path id="XMLID_145_" class="st14" d="M194.6,551.7c-12.1,0-22-9.9-22-22V520c0-12.1,9.9-22,22-22h252.8c12.1,0,22,9.9,22,22v9.7
				c0,12.1-9.9,22-22,22H194.6z"/>
			<g id="XMLID_141_">
				<path id="XMLID_142_" class="st9" d="M447.4,500.8c10.6,0,19.2,8.6,19.2,19.2v9.7c0,10.6-8.6,19.2-19.2,19.2H194.6
					c-10.6,0-19.2-8.6-19.2-19.2V520c0-10.6,8.6-19.2,19.2-19.2H447.4 M447.4,495.2H194.6c-13.6,0-24.8,11.1-24.8,24.8v9.7
					c0,13.6,11.1,24.8,24.8,24.8h252.8c13.6,0,24.8-11.1,24.8-24.8V520C472.1,506.3,461,495.2,447.4,495.2L447.4,495.2z"/>
			</g>
		</g>
		<g id="XMLID_7_">
			<g id="XMLID_11_">
				<path id="XMLID_129_" class="st7" d="M321.9,712c-38.8,0-70.4-31.6-70.4-70.4s31.6-70.4,70.4-70.4c38.8,0,70.4,31.6,70.4,70.4
					S360.7,712,321.9,712z"/>
				<path id="XMLID_126_" class="st8" d="M321.9,573.7c37.5,0,67.9,30.5,67.9,67.9s-30.5,67.9-67.9,67.9S254,679,254,641.6
					S284.4,573.7,321.9,573.7 M321.9,568.7c-40.3,0-72.9,32.7-72.9,72.9s32.7,72.9,72.9,72.9s72.9-32.7,72.9-72.9
					S362.2,568.7,321.9,568.7L321.9,568.7z"/>
			</g>
			<circle id="XMLID_8_" class="st14" cx="321.9" cy="641.6" r="64.4"/>
		</g>
	</g>
</g>
</svg>
