<?xml version="1.0" encoding="utf-8"?>
<!-- Generator: Adobe Illustrator 19.0.0, SVG Export Plug-In . SVG Version: 6.00 Build 0)  -->
<svg version="1.1" xmlns="http://www.w3.org/2000/svg" xmlns:xlink="http://www.w3.org/1999/xlink" x="0px" y="0px"
	 viewBox="0 0 618.3 800" style="enable-background:new 0 0 618.3 800;" xml:space="preserve">
<style type="text/css">
	.st0{display:none;}
	.st1{display:inline;fill:#22B573;}
	.st2{fill:#EFEAE6;}
	.st3{fill:#E8E3E2;}
	.st4{fill:#D2D1CD;}
	.st5{fill:#DCD7CD;}
	.st6{fill:#EEE9E4;}
	.st7{fill:#C0B399;}
	.st8{fill:#FFCF4A;}
	.st9{fill:#FAB416;}
	.st10{fill:#5D4B43;}
	.st11{font-family:'KeepCalm-Medium';}
	.st12{font-size:24px;}
	.st13{fill:#FFFFFF;}
	.st14{font-family:'RSU';}
	.st15{font-size:22.5335px;}
	.st16{font-family:'RSU-Bold';}
	.st17{font-size:83.682px;}
	.st18{font-size:16.2715px;}
	.st19{fill:#FFFFFF;stroke:#FFCF4A;stroke-width:5.5994;stroke-miterlimit:10;}
	.st20{opacity:0.6;}
	.st21{fill:#F6A3A7;}
	.st22{fill:#F7B5B9;}
	.st23{fill:#FAD5D7;}
	.st24{fill:#FCE6E7;}
	.st25{fill:#BEC5E4;}
	.st26{fill:#CED3EA;}
	.st27{fill:#E4E6F3;}
	.st28{fill:#EEF0F8;}
	.st29{fill:#D4E7B7;}
	.st30{fill:#DFECC8;}
	.st31{fill:#E8F1D6;}
	.st32{fill:#F0F6E5;}
	.st33{fill:#F9B9A3;}
	.st34{fill:#FAC8B5;}
	.st35{fill:#FCE0D5;}
	.st36{fill:#FDECE5;}
	.st37{fill:#8FC63E;}
	.st38{fill:#80AD40;}
	.st39{fill:#D7D7D7;}
	.st40{fill:#FDDEC9;}
	.st41{fill:#F1D2C2;}
	.st42{fill:#B1D254;}
	.st43{fill:#E5E5E4;}
	.st44{fill:#5C4B43;}
	.st45{fill:#E5E4DE;}
	.st46{fill:#DDD9CF;}
	.st47{fill:#3B2512;}
	.st48{fill:#D83F3F;}
	.st49{fill:#715D55;}
	.st50{fill:#C0272D;}
	.st51{fill:#EC1E27;}
	.st52{fill:#EF4F4E;}
	.st53{fill:#D3D3D3;}
	.st54{fill:#F2F2F2;}
	.st55{fill:#FFE8B5;}
	.st56{opacity:0.43;fill:#D7D7D7;}
	.st57{fill:#CCCBCB;}
	.st58{fill:#ECECEA;}
	.st59{fill:#E8553A;}
	.st60{fill:#40B5D0;}
	.st61{fill:#FFE75F;}
</style>
<g id="Layer_2" class="st0">
	<rect id="XMLID_94_" x="52.5" y="13.8" class="st1" width="536.6" height="769"/>
</g>
<g id="Layer_3">
	<rect id="XMLID_884_" x="211.5" y="503" class="st2" width="218.6" height="75.5"/>
	<rect id="XMLID_883_" x="211.5" y="503" class="st3" width="218.6" height="59"/>
	<polygon id="XMLID_882_" class="st4" points="320.9,676.5 320.9,676.8 228.1,677.7 228.1,703.3 250.1,708.8 266.6,724.5 
		278.4,719.8 298.8,726.9 320.9,763.1 320.9,762.8 342.9,726.6 363.3,719.6 375.1,724.3 391.6,708.6 413.7,703.1 413.7,677.5 	"/>
	<path id="XMLID_881_" class="st3" d="M222.3,713h-4.9c-3.2,0-5.8-2.6-5.8-5.8V542.6c0-3.2,2.6-5.8,5.8-5.8h4.9
		c3.2,0,5.8,2.6,5.8,5.8v164.6C228.1,710.4,225.4,713,222.3,713z"/>
	<path id="XMLID_880_" class="st3" d="M323.7,762.9h-4.9c-3.2,0-5.8-2.6-5.8-5.8V542.6c0-3.2,2.6-5.8,5.8-5.8h4.9
		c3.2,0,5.8,2.6,5.8,5.8v214.5C329.5,760.3,326.9,762.9,323.7,762.9z"/>
	<path id="XMLID_879_" class="st3" d="M272.6,728.1h-4.9c-3.2,0-5.8-2.6-5.8-5.8V542.6c0-3.2,2.6-5.8,5.8-5.8h4.9
		c3.2,0,5.8,2.6,5.8,5.8v179.6C278.4,725.4,275.8,728.1,272.6,728.1z"/>
	<path id="XMLID_878_" class="st3" d="M424.4,713h-4.9c-3.2,0-5.8-2.6-5.8-5.8V542.6c0-3.2,2.6-5.8,5.8-5.8h4.9
		c3.2,0,5.8,2.6,5.8,5.8v164.6C430.2,710.4,427.6,713,424.4,713z"/>
	<path id="XMLID_877_" class="st4" d="M250,692.4h-10.1c-6.5,0-11.9-5.3-11.9-11.9V559.7c0-6.5,5.3-11.9,11.9-11.9H250
		c6.5,0,11.9,5.3,11.9,11.9v120.8C261.9,687.1,256.5,692.4,250,692.4z"/>
	<path id="XMLID_876_" class="st4" d="M300.9,692.4h-10.3c-6.7,0-12.1-5.5-12.1-12.1V560c0-6.7,5.5-12.1,12.1-12.1h10.3
		c6.7,0,12.1,5.5,12.1,12.1v120.3C313,687,307.5,692.4,300.9,692.4z"/>
	<path id="XMLID_875_" class="st4" d="M351.5,692.4h-10.1c-6.5,0-11.9-5.3-11.9-11.9V559.7c0-6.5,5.3-11.9,11.9-11.9h10.1
		c6.5,0,11.9,5.3,11.9,11.9v120.8C363.3,687.1,358,692.4,351.5,692.4z"/>
	<path id="XMLID_874_" class="st4" d="M401.5,692.4h-10.3c-6.7,0-12.1-5.5-12.1-12.1V560c0-6.7,5.5-12.1,12.1-12.1h10.3
		c6.7,0,12.1,5.5,12.1,12.1v120.3C413.7,687,408.2,692.4,401.5,692.4z"/>
	<polyline id="XMLID_873_" class="st2" points="159.1,480.2 483.1,480.2 483.1,527.5 159.1,527.5 	"/>
	<polyline id="XMLID_872_" class="st5" points="159.1,519.5 483.1,519.5 483.1,533 159.1,533 	"/>
	<path id="XMLID_871_" class="st2" d="M159.1,526.2c0-22.6,18.3-40.8,40.8-40.8s40.8,18.3,40.8,40.8c0,22.6-18.3,40.8-40.8,40.8
		S159.1,548.7,159.1,526.2"/>
	<path id="XMLID_870_" class="st3" d="M373.3,728.1h-4.9c-3.2,0-5.8-2.6-5.8-5.8V542.6c0-3.2,2.6-5.8,5.8-5.8h4.9
		c3.2,0,5.8,2.6,5.8,5.8v179.6C379.1,725.4,376.5,728.1,373.3,728.1z"/>
	<circle id="XMLID_869_" class="st2" cx="442.3" cy="526.2" r="40.8"/>
	<g id="XMLID_862_">
		<path id="XMLID_46_" class="st6" d="M224.7,555.4c-12.3,0-22.3-10-22.3-22.3v-9.7c0-12.3,10-22.3,22.3-22.3h191.5
			c12.3,0,22.3,10,22.3,22.3v9.7c0,12.3-10,22.3-22.3,22.3H224.7z"/>
		<g id="XMLID_42_">
			<path id="XMLID_43_" class="st7" d="M416.2,503.6c10.9,0,19.8,8.9,19.8,19.8v9.7c0,10.9-8.9,19.8-19.8,19.8H224.7
				c-10.9,0-19.8-8.9-19.8-19.8v-9.7c0-10.9,8.9-19.8,19.8-19.8H416.2 M416.2,498.6H224.7c-13.6,0-24.8,11.1-24.8,24.8v9.7
				c0,13.6,11.1,24.8,24.8,24.8h191.5c13.6,0,24.8-11.1,24.8-24.8v-9.7C441,509.7,429.8,498.6,416.2,498.6L416.2,498.6z"/>
		</g>
	</g>
	<g id="XMLID_855_">
		<g id="XMLID_856_">
			<circle id="XMLID_861_" class="st8" cx="425.6" cy="536.6" r="21.1"/>
			<path id="XMLID_860_" class="st8" d="M443,548.7c0,0,8.2-16.3,22.7-18c0,0,1.7-0.2,1.6-1.9c-0.1-1.7,0-37.7,0-37.7s0-0.7-0.9-0.7
				c-0.9,0-25.4,15.6-25.4,15.6s-0.9,0.6-0.2,1.5c0.8,0.9,3.3,3.8-0.2,7c-1.8,1.6-14.9,0.9-14.9,0.9L443,548.7z"/>
			<circle id="XMLID_859_" class="st9" cx="425.6" cy="536.6" r="14.8"/>
			<circle id="XMLID_858_" class="st8" cx="425.6" cy="536.6" r="7.8"/>
			<path id="XMLID_857_" class="st8" d="M404.5,536.6v19.6c0,0,0,1.5,1.4,1.5c1.5,0.1,19.7,0,19.7,0L404.5,536.6z"/>
		</g>
	</g>
	<circle id="XMLID_854_" class="st8" cx="214.4" cy="536.6" r="21.1"/>
	<path id="XMLID_853_" class="st8" d="M173.7,490.5c0.9,0,25.4,15.6,25.4,15.6s0.9,0.6,0.2,1.5c-0.8,0.9-3.3,3.8,0.2,7
		c1.8,1.6,14.9,0.9,14.9,0.9l-17.3,33.2c0,0-8.2-16.3-22.7-18"/>
	<circle id="XMLID_852_" class="st9" cx="214.4" cy="536.6" r="14.8"/>
	<circle id="XMLID_851_" class="st8" cx="214.4" cy="536.6" r="7.8"/>
	<path id="XMLID_850_" class="st8" d="M235.6,536.6v19.6c0,0,0,1.5-1.4,1.5c-1.5,0.1-19.7,0-19.7,0L235.6,536.6z"/>
	<text id="XMLID_849_" transform="matrix(1 0 0 1 234.6086 538.5605)" class="st10 st11 st12">WEB DESIGN</text>
	<g id="XMLID_836_">
		<g id="XMLID_841_">
			<g id="XMLID_843_">
				<path id="XMLID_35_" class="st6" d="M320.7,711.4c-38.8,0-70.4-31.6-70.4-70.4s31.6-70.4,70.4-70.4s70.4,31.6,70.4,70.4
					S359.6,711.4,320.7,711.4z"/>
				<path id="XMLID_32_" class="st7" d="M320.7,573.1c37.5,0,67.9,30.5,67.9,67.9s-30.5,67.9-67.9,67.9s-67.9-30.5-67.9-67.9
					S283.3,573.1,320.7,573.1 M320.7,568.1c-40.3,0-72.9,32.7-72.9,72.9s32.7,72.9,72.9,72.9c40.3,0,72.9-32.7,72.9-72.9
					S361,568.1,320.7,568.1L320.7,568.1z"/>
			</g>
			<circle id="XMLID_842_" class="st13" cx="320.7" cy="641" r="64.4"/>
		</g>
		<g id="XMLID_837_">
			<text id="XMLID_840_" transform="matrix(1 0 0 1 292.7649 612.9287)" class="st14 st15">ผู้ท้าชิง</text>
			<text id="XMLID_839_" transform="matrix(1 0 0 1 286.7141 670.0361)" class="st16 st17">10</text>
			<text id="XMLID_838_" transform="matrix(1 0 0 1 308.6375 686.2812)" class="st14 st18">ท่าน</text>
		</g>
	</g>
	<rect id="XMLID_678_" x="211.7" y="503.6" class="st2" width="218.6" height="75.5"/>
	<rect id="XMLID_677_" x="211.7" y="503.6" class="st3" width="218.6" height="59"/>
	<polygon id="XMLID_676_" class="st4" points="321,677.1 321,677.4 228.2,678.3 228.2,703.9 250.2,709.4 266.8,725.1 278.6,720.4 
		299,727.5 321,763.7 321,763.4 343.1,727.2 363.5,720.2 375.3,724.9 391.8,709.2 413.8,703.7 413.8,678.1 	"/>
	<path id="XMLID_675_" class="st3" d="M222.4,713.6h-4.9c-3.2,0-5.8-2.6-5.8-5.8V543.2c0-3.2,2.6-5.8,5.8-5.8h4.9
		c3.2,0,5.8,2.6,5.8,5.8v164.6C228.2,711,225.6,713.6,222.4,713.6z"/>
	<path id="XMLID_674_" class="st3" d="M323.9,763.5H319c-3.2,0-5.8-2.6-5.8-5.8V543.2c0-3.2,2.6-5.8,5.8-5.8h4.9
		c3.2,0,5.8,2.6,5.8,5.8v214.5C329.7,760.9,327.1,763.5,323.9,763.5z"/>
	<path id="XMLID_673_" class="st3" d="M272.8,728.7h-4.9c-3.2,0-5.8-2.6-5.8-5.8V543.2c0-3.2,2.6-5.8,5.8-5.8h4.9
		c3.2,0,5.8,2.6,5.8,5.8v179.6C278.6,726,276,728.7,272.8,728.7z"/>
	<path id="XMLID_666_" class="st3" d="M424.6,713.6h-4.9c-3.2,0-5.8-2.6-5.8-5.8V543.2c0-3.2,2.6-5.8,5.8-5.8h4.9
		c3.2,0,5.8,2.6,5.8,5.8v164.6C430.4,711,427.7,713.6,424.6,713.6z"/>
	<path id="XMLID_665_" class="st4" d="M250.2,693h-10.1c-6.5,0-11.9-5.3-11.9-11.9V560.3c0-6.5,5.3-11.9,11.9-11.9h10.1
		c6.5,0,11.9,5.3,11.9,11.9v120.8C262,687.7,256.7,693,250.2,693z"/>
	<path id="XMLID_664_" class="st4" d="M301,693h-10.3c-6.7,0-12.1-5.5-12.1-12.1V560.6c0-6.7,5.5-12.1,12.1-12.1H301
		c6.7,0,12.1,5.5,12.1,12.1v120.3C313.2,687.6,307.7,693,301,693z"/>
	<path id="XMLID_663_" class="st4" d="M351.6,693h-10.1c-6.5,0-11.9-5.3-11.9-11.9V560.3c0-6.5,5.3-11.9,11.9-11.9h10.1
		c6.5,0,11.9,5.3,11.9,11.9v120.8C363.5,687.7,358.2,693,351.6,693z"/>
	<path id="XMLID_662_" class="st4" d="M401.7,693h-10.3c-6.7,0-12.1-5.5-12.1-12.1V560.6c0-6.7,5.5-12.1,12.1-12.1h10.3
		c6.7,0,12.1,5.5,12.1,12.1v120.3C413.8,687.6,408.4,693,401.7,693z"/>
	<polyline id="XMLID_657_" class="st2" points="159.2,480.8 483.3,480.8 483.3,528.1 159.2,528.1 	"/>
	<polyline id="XMLID_656_" class="st5" points="159.2,520.1 483.3,520.1 483.3,533.6 159.2,533.6 	"/>
	<path id="XMLID_655_" class="st2" d="M159.2,526.8c0-22.6,18.3-40.8,40.8-40.8s40.8,18.3,40.8,40.8s-18.3,40.8-40.8,40.8
		S159.2,549.3,159.2,526.8"/>
	<path id="XMLID_653_" class="st3" d="M373.4,728.7h-4.9c-3.2,0-5.8-2.6-5.8-5.8V543.2c0-3.2,2.6-5.8,5.8-5.8h4.9
		c3.2,0,5.8,2.6,5.8,5.8v179.6C379.2,726,376.6,728.7,373.4,728.7z"/>
	<circle id="XMLID_652_" class="st2" cx="442.4" cy="526.8" r="40.8"/>
	<path id="XMLID_650_" class="st19" d="M169.8,520c0-13.6,11.1-24.8,24.8-24.8h252.8c13.6,0,24.8,11.1,24.8,24.8v9.7
		c0,13.6-11.1,24.8-24.8,24.8H194.6c-13.6,0-24.8-11.1-24.8-24.8"/>
	<g id="Layer_4">
		<g id="XMLID_396_" class="st20">
			<g id="XMLID_199_">
				<path id="XMLID_203_" class="st21" d="M219.8,270.3l-52.2,32.1l-9.2-14.9c-8.7-14.1-4.3-32.6,9.8-41.3l1.1-0.7
					c14.1-8.7,32.6-4.3,41.3,9.8L219.8,270.3z"/>
				
					<rect id="XMLID_202_" x="175.6" y="282.8" transform="matrix(0.8515 -0.5244 0.5244 0.8515 -130.1663 153.6752)" class="st22" width="61.3" height="47.5"/>
				
					<rect id="XMLID_201_" x="200.5" y="323.3" transform="matrix(0.8515 -0.5244 0.5244 0.8515 -147.6915 172.7631)" class="st23" width="61.3" height="47.5"/>
				
					<rect id="XMLID_200_" x="225.4" y="363.8" transform="matrix(0.8515 -0.5244 0.5244 0.8515 -165.2166 191.8509)" class="st24" width="61.3" height="47.5"/>
			</g>
			<g id="XMLID_194_">
				<path id="XMLID_198_" class="st25" d="M268.2,234l-58.5,18.2l-5.2-16.8c-4.9-15.8,3.9-32.6,19.7-37.6l1.2-0.4
					c15.8-4.9,32.6,3.9,37.6,19.7L268.2,234z"/>
				
					<rect id="XMLID_197_" x="215.4" y="242.1" transform="matrix(0.9549 -0.2971 0.2971 0.9549 -67.8654 85.0912)" class="st26" width="61.3" height="47.5"/>
				
					<rect id="XMLID_196_" x="229.5" y="287.5" transform="matrix(0.9549 -0.2971 0.2971 0.9549 -80.7135 91.336)" class="st27" width="61.3" height="47.5"/>
				
					<rect id="XMLID_195_" x="243.7" y="332.9" transform="matrix(0.9549 -0.2971 0.2971 0.9549 -93.5615 97.5809)" class="st28" width="61.3" height="47.5"/>
			</g>
			<g id="XMLID_189_">
				<path id="XMLID_193_" class="st29" d="M417.9,270.3l52.2,32.1l9.2-14.9c8.7-14.1,4.3-32.6-9.8-41.3l-1.1-0.7
					c-14.1-8.7-32.6-4.3-41.3,9.8L417.9,270.3z"/>
				
					<rect id="XMLID_192_" x="400.9" y="282.8" transform="matrix(-0.8515 -0.5244 0.5244 -0.8515 638.1813 793.9881)" class="st30" width="61.3" height="47.5"/>
				
					<rect id="XMLID_191_" x="376" y="323.3" transform="matrix(-0.8515 -0.5244 0.5244 -0.8515 570.7922 855.8602)" class="st31" width="61.3" height="47.5"/>
				
					<rect id="XMLID_190_" x="351" y="363.8" transform="matrix(-0.8515 -0.5244 0.5244 -0.8515 503.403 917.7324)" class="st32" width="61.3" height="47.5"/>
			</g>
			<g id="XMLID_184_">
				<path id="XMLID_188_" class="st33" d="M369.5,234l58.5,18.2l5.2-16.8c4.9-15.8-3.9-32.6-19.7-37.6l-1.2-0.4
					c-15.8-4.9-32.6,3.9-37.6,19.7L369.5,234z"/>
				
					<rect id="XMLID_187_" x="361.1" y="242.1" transform="matrix(-0.9549 -0.2971 0.2971 -0.9549 686.7248 636.0377)" class="st34" width="61.3" height="47.5"/>
				
					<rect id="XMLID_186_" x="346.9" y="287.5" transform="matrix(-0.9549 -0.2971 0.2971 -0.9549 645.6304 720.5844)" class="st35" width="61.3" height="47.5"/>
				
					<rect id="XMLID_185_" x="332.8" y="332.9" transform="matrix(-0.9549 -0.2971 0.2971 -0.9549 604.536 805.1309)" class="st36" width="61.3" height="47.5"/>
			</g>
			<g id="XMLID_181_">
				<path id="XMLID_183_" class="st37" d="M390.1,432c-4.5-22.5,16-49.4-1.9-59s9.6-45.6,0-61.6s-6.8-39.9-6.8-39.9l-60.6-10v-0.1
					l-0.3,0.1l-0.3-0.1v0.1l-60.6,10c0,0,2.8,23.9-6.8,39.9s18,52,0,61.6s2.6,36.6-1.9,59c-4.5,22.5-14.1,27.6-14.1,27.6h83.4h0.6
					h83.4C404.2,459.6,394.6,454.4,390.1,432z"/>
				<path id="XMLID_182_" class="st38" d="M374.4,430.7c-3.6-22.5,12.7-49.4-1.5-59c-14.3-9.6,7.6-45.6,0-61.6
					c-7.6-16-5.4-39.9-5.4-39.9l-48.1-10V260l-0.3,0.1l-0.3-0.1v0.1l-48.1,10c0,0,2.2,23.9-5.4,39.9c-7.6,16,14.3,52,0,61.6
					c-14.3,9.6,2,36.6-1.5,59s-11.2,27.6-11.2,27.6h66.2h0.5h66.2C385.6,458.3,378,453.1,374.4,430.7z"/>
			</g>
			<polygon id="XMLID_180_" class="st39" points="243.8,480.1 397.8,480.1 317.6,390.9 			"/>
			<g id="XMLID_119_">
				<path id="XMLID_179_" class="st40" d="M423.5,336.4c0,0-38.5-28.6-70-40.9c-2.2-0.9-4.4-1.7-6.6-2.4l-51.2,2.2c0,0-1.4,1-3.7,3
					c-10.5,9-40.3,37.7-48.2,77.1l12.2,8.3c0,0,18-43,37.2-59c0,0,1.8,31.3-2.6,55.2c-4.5,24.6-15.4,57.8-23.7,90.5
					c0,0-8.3,4.5-8.3,9.6H290c0,0,16-63.5,25-74.4h12.8c0,0,21.2,52,24.4,74.4h30.2c0,0-0.6-6.4-8.3-8.3c0,0-16.3-47-23.7-91.8
					c-3.3-20-0.6-39.1-1.3-55.8c0,0,44.9,4.5,64.2,22.5L423.5,336.4z"/>
				<path id="XMLID_178_" class="st40" d="M423.5,336.4c0,0-38.5-28.6-70-40.9c-2.2-0.9-4.4-1.7-6.6-2.4l-51.2,2.2c0,0-1.4,1-3.7,3
					c-10.5,9-40.3,37.7-48.2,77.1l12.2,8.3c0,0,18-43,37.2-59c0,0,1.8,31.3-2.6,55.2c-4.5,24.6-15.4,57.8-23.7,90.5
					c0,0-8.3,4.5-8.3,9.6H290c0,0,16-63.5,25-74.4h12.8c0,0,21.2,52,24.4,74.4h30.2c0,0-0.6-6.4-8.3-8.3c0,0-16.3-47-23.7-91.8
					c-3.3-20-0.6-39.1-1.3-55.8c0,0,44.9,4.5,64.2,22.5L423.5,336.4z"/>
				<path id="XMLID_177_" class="st41" d="M316.9,306.8c17.2-1.4,33.2-2.8,44.9-7.7c-2.8-1.3-5.5-2.5-8.4-3.6
					c-2.2-0.9-4.4-1.7-6.6-2.4l-51.2,2.2c0,0-1.4,1-3.7,3c-1.4,1.2-3.3,2.9-5.3,4.8C295.4,306.2,305.6,307.7,316.9,306.8z"/>
				<path id="XMLID_176_" class="st42" d="M356.1,281.2c0,0-12.2,23.7,3.2,47.5c15.4,23.7,1.9,45.6,1.9,45.6s23.6-31.5,7-53.9
					c-16.6-22.4,12.5-53.4,12.5-53.4L356.1,281.2z"/>
				<path id="XMLID_175_" class="st42" d="M361.2,252.3c0,0-12.2,23.7,3.2,47.5c15.4,23.7,1.9,45.6,1.9,45.6s23.6-31.5,7-53.9
					C356.7,269,385.9,238,385.9,238L361.2,252.3z"/>
				<path id="XMLID_174_" class="st42" d="M294,261.3c0,0,12.2,23.7-3.2,47.5s-1.9,45.6-1.9,45.6s-23.6-31.5-7-53.9
					c16.6-22.4-12.5-53.4-12.5-53.4L294,261.3z"/>
				<path id="XMLID_173_" class="st42" d="M259.8,229.2c0,0-12.2,23.7,3.2,47.5c15.4,23.7,1.9,45.6,1.9,45.6s23.6-31.5,7-53.9
					s12.5-53.4,12.5-53.4L259.8,229.2z"/>
				<path id="XMLID_172_" class="st40" d="M242.5,227.9c0,0,9.4,28.4,16,40.4c6.4,11.6,26.3,30.8,58.4,28.2s56.5-5.1,64.2-30.8
					c7.5-25,14.1-41.1,14.1-41.1s1.7-20.4-13.7-52.5s-45.4-57.9-64.6-58.6c-19.3-0.6-55.8,12.2-68,35.3
					C236.7,172.1,236.7,198.4,242.5,227.9z"/>
				<path id="XMLID_171_" class="st43" d="M266.9,470.5l24.8,2.6l-1.7,7h-31.4C258.6,480.1,258.6,475,266.9,470.5z"/>
				<path id="XMLID_170_" class="st43" d="M375.2,470.5l-24.8,2.6l1.7,7h31.4C383.5,480.1,383.5,475,375.2,470.5z"/>
				<polygon id="XMLID_169_" class="st13" points="269.5,457.8 293.3,470.2 294.1,467 269.8,454.3 				"/>
				<polygon id="XMLID_168_" class="st13" points="268.1,464 297.2,455.4 296.1,459 267.5,467.3 				"/>
				<polygon id="XMLID_167_" class="st13" points="370.2,459.6 349.7,470.5 349,467.9 369.6,457 				"/>
				<polygon id="XMLID_166_" class="st13" points="372.7,465.4 345.8,458 346.8,461.2 373.4,468.8 				"/>
				<path id="XMLID_165_" class="st41" d="M418.2,332.5l-3.4-0.1l0.3-2.1l-2.5-1.7l-0.5,3.8l-2.2-0.1l-3.7,4.1l1.5,3.4l-1.2,1.6
					c2.5,1.6,4.8,3.3,6.8,5.2l10.3-10.3C423.5,336.4,421.5,334.9,418.2,332.5z"/>
				<g id="XMLID_160_">
					
						<rect id="XMLID_164_" x="409.4" y="297.9" transform="matrix(0.9961 8.855212e-02 -8.855212e-02 0.9961 36.0964 -35.0607)" class="st44" width="7.6" height="182.9"/>
					<path id="XMLID_163_" class="st13" d="M437.4,280.4L437.4,280.4L437.4,280.4c-0.1-0.8-0.3-1.5-0.5-2.2l-3.1-12.6l-0.2,0
						l-6.3-15.1l-9.9,13l-0.3,0l-6.2,11.4c-0.4,0.6-0.8,1.3-1.1,2l0,0l0,0c-0.5,1.2-0.9,2.6-1.1,4c-1,8,4.6,15.3,12.6,16.3
						c8,1,15.3-4.6,16.3-12.6C437.7,283.1,437.7,281.8,437.4,280.4z"/>
					<polygon id="XMLID_162_" class="st45" points="415.6,299.1 427.2,300.6 426.4,296.8 416.9,295.9 					"/>
					<path id="XMLID_161_" class="st46" d="M427.2,250.8c0,0-10.2,12.4-13.2,18.3l6.2-6.1l-1,13.8l5.5-12.4l1.3,20.2l2.3-18.2
						l3.4,9.7l-0.3-10.1l3.2,2.7C434.6,268.7,429.2,253.4,427.2,250.8z"/>
				</g>
				<polygon id="XMLID_159_" class="st40" points="424.5,336 412.3,335.7 408.6,339.8 410.2,343.2 407.9,346.4 409.4,349.6 
					408.4,352.7 411.1,354.5 423.1,354.5 426.2,350.2 423.8,348 426.8,344.8 423.8,342.8 426.8,339.3 				"/>
				<circle id="XMLID_158_" class="st47" cx="288.7" cy="238.8" r="11.6"/>
				<circle id="XMLID_157_" class="st47" cx="347.1" cy="238.8" r="11.6"/>
				<path id="XMLID_156_" class="st41" d="M395,171.7c-6.8-20.8-24.1-50.4-77.4-49.1c-53.3-1.3-68.7,28.2-75.5,49.1
					c-6.8,20.8,26.1,88.3,26.1,88.3c-14.1-33.4-3.2-43.6,17.3-49.4c20.5-5.8,32.7,14.8,32.7,14.8s12.8-20.5,33.4-14.8
					c20.5,5.8,31.4,16,17.3,49.4C368.9,260,401.8,192.6,395,171.7z"/>
				<path id="XMLID_155_" class="st44" d="M368.9,285.7l29.5-34v-46.2c0,0,3.4-21.2-3.4-42.1c-6.8-20.8-24.1-50.4-77.4-49.1
					c-53.3-1.3-68.7,28.2-75.5,49.1c-6.8,20.8-2.8,42.1-2.8,42.1l-0.6,46.2l29.5,34v-34c-14.1-33.4-3.2-43.6,17.3-49.4
					c20.5-5.8,32.7,14.8,32.7,14.8s12.8-20.5,33.4-14.8c20.5,5.8,31.4,16,17.3,49.4V285.7z"/>
				<polygon id="XMLID_154_" class="st48" points="285.8,118.1 291.3,32.8 347.1,32.8 349.7,118.1 				"/>
				<polygon id="XMLID_153_" class="st47" points="300.3,105.3 304.8,174 329.1,174 335.6,105.3 				"/>
				<polygon id="XMLID_152_" class="st49" points="300.3,101.5 304.8,170.2 329.1,170.2 335.6,101.5 				"/>
				<g id="XMLID_130_">
					<circle id="XMLID_139_" class="st50" cx="318.2" cy="272.2" r="7.2"/>
					<circle id="XMLID_138_" class="st50" cx="327.9" cy="270.1" r="5.1"/>
					<circle id="XMLID_137_" class="st50" cx="307.9" cy="270.1" r="5.1"/>
					<rect id="XMLID_136_" x="307.9" y="265" class="st50" width="20.4" height="5.1"/>
					<path id="XMLID_135_" class="st50" d="M306.2,274.9c0,0,6.3,4.4,12,4.4s11.5-4.4,11.5-4.4l-4.8-3.8l-18.9-0.5L306.2,274.9z"/>
				</g>
				<path id="XMLID_125_" class="st51" d="M306,274.8l0,0.1c0.1,0,0.1,0,0.2,0.1v0c0,0,6.3,4.4,12,4.4s11.5-4.4,11.5-4.4l0,0
					c0.4-0.1,0.7-0.3,1-0.5c-0.3-0.2-7.4-3.5-12.9-3.5C312.2,271,306,274.8,306,274.8z"/>
				<path id="XMLID_124_" class="st47" d="M302.8,199c-3.9-1.9-14.8-2.6-27,1.9c-12.2,4.5-16,12.2-17.3,23.1
					c-1.3,10.9,6.6,27.9,6.6,27.9v30.1l3.1,3.5v-34c-14.1-33.4-3.2-43.6,17.3-49.4c20.5-5.8,32.7,14.8,32.7,14.8v-5.8
					C316.9,208.7,306.7,201,302.8,199z"/>
				<path id="XMLID_121_" class="st47" d="M333.5,199c3.9-1.9,14.8-2.6,27,1.9c12.2,4.5,16,12.2,17.3,23.1
					c1.3,10.9-6.6,27.9-6.6,27.9v30.1l-3.1,3.5v-34c14.1-33.4,3.2-43.6-17.3-49.4c-20.5-5.8-32.7,14.8-32.7,14.8v-5.8
					C319.4,208.7,329.6,201,333.5,199z"/>
				<polygon id="XMLID_120_" class="st52" points="300.3,101.5 335.6,101.5 347.1,32.8 291.3,32.8 				"/>
			</g>
			<path id="XMLID_118_" class="st41" d="M315,405.7h12.8c0,0,6.1,15,12.3,32.4c6.2,7.3,13,14.5,20.4,21.3
				c4.2,3.9,8.6,7.7,13.2,11.3c-2.4-7.1-16.6-49.8-23.4-90.7c-0.9-5.6-1.4-11.2-1.6-16.7h-1.1h-53.9h-1c-0.5,5.6-1.1,11.4-2.1,16.7
				c-4.5,24.6-15.4,57.8-23.7,90.5c0,0-4.9,2.6-7.2,6.2c7.5-5.2,14.6-11.1,21.2-17.2c7.7-7.1,14.8-14.7,21.2-22.4
				C306.6,423.1,311.4,410.1,315,405.7z"/>
			<path id="XMLID_117_" class="st13" d="M280.5,463.5l12.8,6.7l0.9-3.2l-9.1-4.7l11.1-3.2l1-3.7l-16.1,4.8l-0.6-0.3
				c-2,1.9-4.1,3.7-6.2,5.5L280.5,463.5z"/>
			<path id="XMLID_116_" class="st53" d="M260.8,475.3c-0.4,0.5-0.7,0.9-1,1.3c2.7-1.9,5.4-3.9,8.1-6l-1-0.1c0,0-0.1,0.1-0.1,0.1
				C266.1,470.9,263,472.7,260.8,475.3z"/>
			<path id="XMLID_115_" class="st54" d="M270.1,458.1l6.4,3.3l-7.9,2.3c-0.3,1.1-0.6,2.3-0.9,3.4l6.6-1.9c2.1-1.8,4.1-3.6,6.2-5.5
				l-9.5-4.9C270.7,456,270.4,457.1,270.1,458.1z"/>
			<path id="XMLID_705_" class="st54" d="M370.2,467.9l2.9,0.8c-0.3-1-0.7-2.1-1.1-3.5l-7.2-2C366.5,464.8,368.3,466.4,370.2,467.9z
				"/>
			<path id="XMLID_704_" class="st54" d="M370.1,459.6c-0.3-0.8-0.5-1.6-0.8-2.5l-7.2,3.8c0.7,0.6,1.3,1.2,2,1.8L370.1,459.6z"/>
			<g id="XMLID_701_">
				<path id="XMLID_703_" class="st13" d="M349.5,356.9h-57.6c0,0,39,87.3,105.7,123.2C397.6,480.1,366.2,440.3,349.5,356.9z"/>
				<path id="XMLID_702_" class="st55" d="M293.8,356.9c6.8,14.3,42.9,85,100.4,118.4c2.2,3.2,3.4,4.9,3.4,4.9
					c-66.7-35.9-105.7-123.2-105.7-123.2H293.8z"/>
			</g>
			<path id="XMLID_700_" class="st54" d="M351.2,365.2c-0.6-2.7-1.2-5.5-1.8-8.3h-51.8c-0.4,1.9-0.8,3.8-1.2,5.6
				c5,9.8,14.6,27.2,28.3,46.2C337.5,390.8,346.4,374.6,351.2,365.2z"/>
			<path id="XMLID_646_" class="st56" d="M340.9,356.9c0,0,10.4,45.7,16,53.5c0,0-12.5-16.7-18-53.5H340.9z"/>
			<path id="XMLID_645_" class="st56" d="M327.9,356.9c0,0,7.2,31.4,11,36.8c0,0-8.6-11.5-12.4-36.8H327.9z"/>
			<g id="XMLID_636_">
				<path id="XMLID_644_" class="st13" d="M292,356.9h57.6c0,0-39,87.3-105.7,123.2C243.8,480.1,275.2,440.3,292,356.9z"/>
				<path id="XMLID_637_" class="st55" d="M347.7,356.9c-6.8,14.3-42.9,85-100.4,118.4c-2.2,3.2-3.4,4.9-3.4,4.9
					c66.7-35.9,105.7-123.2,105.7-123.2H347.7z"/>
			</g>
			<polygon id="XMLID_635_" class="st8" points="395.2,315.2 388.8,335.1 402.3,340.2 408.1,323.5 			"/>
			<polygon id="XMLID_634_" class="st41" points="394.7,317 393.4,316.2 387.8,332.7 389.4,333.3 			"/>
			<path id="XMLID_632_" class="st41" d="M291.9,319.7c0,0,2.6-7.4,12-11.5c0,0,13.5,6.1,16.9,11.5c0,0,10.1-11.5,17.6-12.8
				c0,0,6.8,6.1,12.2,14.9c0,0,2.5,1.4-0.1,12.2v20.5h-59.3v-21.2C291.1,333.2,287.9,326.4,291.9,319.7z"/>
			<path id="XMLID_630_" class="st53" d="M291.9,322.2c0,0,2.6-7.4,12-11.5c0,0,13.5,6.1,16.9,11.5c0,0,10.1-11.5,17.6-12.8
				c0,0,6.8,6.1,12.2,14.9c0,0,2.5,1.4-0.1,12.2v20.5h-59.3v-21.2C291.1,335.7,287.9,329,291.9,322.2z"/>
			<path id="XMLID_629_" class="st43" d="M291.9,327.4c0,0,2.6-6.8,12-10.8c0,0,13.5,6.1,16.9,11.5c0,0,10.1-11.5,17.6-12.8
				c0,0,6.8,6.1,12.2,14.9c0,0,2.5,1.4-0.1,12.2v14.7h-59.3v-15.4C291.1,341.5,287.9,334.1,291.9,327.4z"/>
			<g id="XMLID_600_">
				<path id="XMLID_620_" class="st54" d="M293.8,356.9H292h0c0,0,0,0,0,0.1c-0.3,1.4-0.6,2.7-0.8,4.1v0.3h54.4
					c0.9-1.8,1.7-3.3,2.2-4.5H293.8z"/>
				<path id="XMLID_602_" class="st55" d="M345.5,361.4c-10.6,20.9-45.3,83.2-98.2,113.9c-2.2,3.2-3.4,4.9-3.4,4.9
					c57.7-31.1,94.6-100.4,103.6-118.7H345.5z"/>
				<path id="XMLID_601_" class="st55" d="M349.5,356.9L349.5,356.9h-1.8c-0.5,1.1-1.3,2.7-2.2,4.5h1.9
					C348.8,358.5,349.5,356.9,349.5,356.9z"/>
			</g>
			<path id="XMLID_599_" class="st56" d="M300.2,356.9c0,0-10.4,45.7-16,53.5c0,0,12.5-16.7,18-53.5H300.2z"/>
			<path id="XMLID_598_" class="st56" d="M313.2,356.9c0,0-7.2,31.4-11,36.8c0,0,8.6-11.5,12.4-36.8H313.2z"/>
			<path id="XMLID_597_" class="st56" d="M330.1,356.9c0,0-5.1,16.7-7.8,19.6c0,0,6.2-6.1,8.8-19.6H330.1z"/>
			<polygon id="XMLID_596_" class="st57" points="306.1,480.1 311.3,449.3 314.4,480.1 			"/>
			<polygon id="XMLID_489_" class="st57" points="328.6,480.1 333.7,449.3 336.8,480.1 			"/>
			<g id="XMLID_397_">
				<path id="XMLID_487_" class="st58" d="M211.6,330.6c-26.8,18.3-33.8,54.8-15.5,81.7s54.8,33.8,81.7,15.5
					c0.6-0.4,1.2-0.9,1.8-1.4c0.4-0.2,0.8-0.4,1.1-0.6l21-14.3c3.4-2.3,4.2-6.9,1.9-10.3c-2.3-3.4-6.9-4.2-10.3-1.9l-1.9,1.3
					c-6.7,4.6-15.9,2.8-20.5-3.9l0,0c-4.6-6.7-2.8-15.9,3.9-20.5c0,0,13.2-18.3,13.5-23.3C290,317.6,238.4,312.4,211.6,330.6z"/>
				<circle id="XMLID_485_" class="st59" cx="218.2" cy="400.7" r="11.6"/>
				<circle id="XMLID_457_" class="st60" cx="218.8" cy="363.4" r="11.6"/>
				<circle id="XMLID_399_" class="st58" cx="262.5" cy="353" r="26"/>
				<circle id="XMLID_398_" class="st61" cx="250.8" cy="346.3" r="11.6"/>
			</g>
		</g>
	</g>
	<text id="XMLID_649_" transform="matrix(1 0 0 1 237.777 535.1602)" class="st10 st11 st12">WEB DESIGN</text>
	<g id="XMLID_633_">
		<g id="XMLID_648_">
			<path id="XMLID_27_" class="st6" d="M321.9,712c-38.8,0-70.4-31.6-70.4-70.4s31.6-70.4,70.4-70.4s70.4,31.6,70.4,70.4
				S360.7,712,321.9,712z"/>
			<path id="XMLID_24_" class="st7" d="M321.9,573.7c37.5,0,67.9,30.5,67.9,67.9s-30.5,67.9-67.9,67.9S254,679,254,641.6
				S284.4,573.7,321.9,573.7 M321.9,568.7c-40.3,0-72.9,32.7-72.9,72.9c0,40.3,32.7,72.9,72.9,72.9s72.9-32.7,72.9-72.9
				C394.8,601.3,362.2,568.7,321.9,568.7L321.9,568.7z"/>
		</g>
		<circle id="XMLID_647_" class="st13" cx="321.9" cy="641.6" r="64.4"/>
	</g>
	<rect id="XMLID_113_" x="211.5" y="503" class="st2" width="218.6" height="75.5"/>
	<rect id="XMLID_112_" x="211.5" y="503" class="st3" width="218.6" height="59"/>
	<polygon id="XMLID_111_" class="st4" points="320.9,676.5 320.9,676.8 228.1,677.7 228.1,703.3 250.1,708.8 266.6,724.5 
		278.4,719.8 298.8,726.9 320.9,763.1 320.9,762.8 342.9,726.6 363.3,719.6 375.1,724.3 391.6,708.6 413.7,703.1 413.7,677.5 	"/>
	<path id="XMLID_110_" class="st3" d="M222.3,713h-4.9c-3.2,0-5.8-2.6-5.8-5.8V542.6c0-3.2,2.6-5.8,5.8-5.8h4.9
		c3.2,0,5.8,2.6,5.8,5.8v164.6C228.1,710.4,225.4,713,222.3,713z"/>
	<path id="XMLID_109_" class="st3" d="M323.7,762.9h-4.9c-3.2,0-5.8-2.6-5.8-5.8V542.6c0-3.2,2.6-5.8,5.8-5.8h4.9
		c3.2,0,5.8,2.6,5.8,5.8v214.5C329.5,760.3,326.9,762.9,323.7,762.9z"/>
	<path id="XMLID_108_" class="st3" d="M272.6,728.1h-4.9c-3.2,0-5.8-2.6-5.8-5.8V542.6c0-3.2,2.6-5.8,5.8-5.8h4.9
		c3.2,0,5.8,2.6,5.8,5.8v179.6C278.4,725.4,275.8,728.1,272.6,728.1z"/>
	<path id="XMLID_107_" class="st3" d="M424.4,713h-4.9c-3.2,0-5.8-2.6-5.8-5.8V542.6c0-3.2,2.6-5.8,5.8-5.8h4.9
		c3.2,0,5.8,2.6,5.8,5.8v164.6C430.2,710.4,427.6,713,424.4,713z"/>
	<path id="XMLID_106_" class="st4" d="M250,692.4h-10.1c-6.5,0-11.9-5.3-11.9-11.9V559.7c0-6.5,5.3-11.9,11.9-11.9H250
		c6.5,0,11.9,5.3,11.9,11.9v120.8C261.9,687.1,256.5,692.4,250,692.4z"/>
	<path id="XMLID_105_" class="st4" d="M300.9,692.4h-10.3c-6.7,0-12.1-5.5-12.1-12.1V560c0-6.7,5.5-12.1,12.1-12.1h10.3
		c6.7,0,12.1,5.5,12.1,12.1v120.3C313,687,307.5,692.4,300.9,692.4z"/>
	<path id="XMLID_104_" class="st4" d="M351.5,692.4h-10.1c-6.5,0-11.9-5.3-11.9-11.9V559.7c0-6.5,5.3-11.9,11.9-11.9h10.1
		c6.5,0,11.9,5.3,11.9,11.9v120.8C363.3,687.1,358,692.4,351.5,692.4z"/>
	<path id="XMLID_103_" class="st4" d="M401.5,692.4h-10.3c-6.7,0-12.1-5.5-12.1-12.1V560c0-6.7,5.5-12.1,12.1-12.1h10.3
		c6.7,0,12.1,5.5,12.1,12.1v120.3C413.7,687,408.2,692.4,401.5,692.4z"/>
	<polyline id="XMLID_102_" class="st2" points="483.1,480.2 483.1,527.5 159.1,527.5 159.1,480.2 	"/>
	<rect id="XMLID_101_" x="159.1" y="519.5" class="st5" width="324.1" height="13.5"/>
	<path id="XMLID_100_" class="st2" d="M199.9,485.3c22.6,0,40.8,18.3,40.8,40.8c0,22.6-18.3,40.8-40.8,40.8s-40.8-18.3-40.8-40.8
		C159.1,503.6,177.3,485.3,199.9,485.3"/>
	<path id="XMLID_99_" class="st3" d="M373.3,728.1h-4.9c-3.2,0-5.8-2.6-5.8-5.8V542.6c0-3.2,2.6-5.8,5.8-5.8h4.9
		c3.2,0,5.8,2.6,5.8,5.8v179.6C379.1,725.4,376.5,728.1,373.3,728.1z"/>
	<path id="XMLID_98_" class="st2" d="M442.3,485.3c22.6,0,40.8,18.3,40.8,40.8c0,22.6-18.3,40.8-40.8,40.8s-40.8-18.3-40.8-40.8
		C401.4,503.6,419.7,485.3,442.3,485.3"/>
	<g id="XMLID_97_">
		<path id="XMLID_151_" class="st6" d="M224.7,555.4c-12.3,0-22.3-10-22.3-22.3v-9.7c0-12.3,10-22.3,22.3-22.3h191.5
			c12.3,0,22.3,10,22.3,22.3v9.7c0,12.3-10,22.3-22.3,22.3H224.7z"/>
		<g id="XMLID_147_">
			<path id="XMLID_148_" class="st7" d="M416.2,503.6c10.9,0,19.8,8.9,19.8,19.8v9.7c0,10.9-8.9,19.8-19.8,19.8H224.7
				c-10.9,0-19.8-8.9-19.8-19.8v-9.7c0-10.9,8.9-19.8,19.8-19.8H416.2 M416.2,498.6H224.7c-13.6,0-24.8,11.1-24.8,24.8v9.7
				c0,13.6,11.1,24.8,24.8,24.8h191.5c13.6,0,24.8-11.1,24.8-24.8v-9.7C441,509.7,429.8,498.6,416.2,498.6L416.2,498.6z"/>
		</g>
	</g>
	<circle id="XMLID_96_" class="st8" cx="425.6" cy="536.6" r="21.1"/>
	<path id="XMLID_95_" class="st8" d="M466.3,490.5c-0.9,0-25.4,15.6-25.4,15.6s-0.9,0.6-0.2,1.5s3.3,3.8-0.2,7
		c-1.8,1.6-14.9,0.9-14.9,0.9l17.3,33.2c0,0,8.2-16.3,22.7-18c0,0,1.7-0.2,1.6-1.9c-0.1-1.7,0-37.7,0-37.7"/>
	<circle id="XMLID_75_" class="st9" cx="425.6" cy="536.6" r="14.8"/>
	<circle id="XMLID_74_" class="st8" cx="425.6" cy="536.6" r="7.8"/>
	<path id="XMLID_73_" class="st8" d="M404.5,536.6v19.6c0,0,0,1.5,1.4,1.5s19.7,0,19.7,0L404.5,536.6z"/>
	<circle id="XMLID_72_" class="st8" cx="214.4" cy="536.6" r="21.1"/>
	<path id="XMLID_71_" class="st8" d="M173.7,490.5c0.9,0,25.4,15.6,25.4,15.6s0.9,0.6,0.2,1.5s-3.3,3.8,0.2,7
		c1.8,1.6,14.9,0.9,14.9,0.9l-17.3,33.2c0,0-8.2-16.3-22.7-18c0,0-1.7-0.2-1.6-1.9c0.1-1.7,0-37.7,0-37.7"/>
	<circle id="XMLID_70_" class="st9" cx="214.4" cy="536.6" r="14.8"/>
	<circle id="XMLID_64_" class="st8" cx="214.4" cy="536.6" r="7.8"/>
	<path id="XMLID_63_" class="st8" d="M235.6,536.6v19.6c0,0,0,1.5-1.4,1.5s-19.7,0-19.7,0L235.6,536.6z"/>
	<text id="XMLID_62_" transform="matrix(1 0 0 1 234.6086 538.5605)" class="st10 st11 st12">WEB DESIGN</text>
	<g id="XMLID_49_">
		<g id="XMLID_59_">
			<g id="XMLID_61_">
				<path id="XMLID_134_" class="st6" d="M320.7,711.4c-38.8,0-70.4-31.6-70.4-70.4s31.6-70.4,70.4-70.4c38.8,0,70.4,31.6,70.4,70.4
					S359.6,711.4,320.7,711.4z"/>
				<path id="XMLID_131_" class="st7" d="M320.7,573.1c37.5,0,67.9,30.5,67.9,67.9s-30.5,67.9-67.9,67.9s-67.9-30.5-67.9-67.9
					S283.3,573.1,320.7,573.1 M320.7,568.1c-40.3,0-72.9,32.7-72.9,72.9s32.7,72.9,72.9,72.9c40.3,0,72.9-32.7,72.9-72.9
					S361,568.1,320.7,568.1L320.7,568.1z"/>
			</g>
			<circle id="XMLID_60_" class="st13" cx="320.7" cy="641" r="64.4"/>
		</g>
		<g id="XMLID_50_">
			<text id="XMLID_53_" transform="matrix(1 0 0 1 292.7649 612.9287)" class="st14 st15">ผู้ท้าชิง</text>
			<text id="XMLID_52_" transform="matrix(1 0 0 1 286.7141 670.0361)" class="st16 st17">10</text>
			<text id="XMLID_51_" transform="matrix(1 0 0 1 308.6375 686.2812)" class="st14 st18">ท่าน</text>
		</g>
	</g>
	<rect id="XMLID_48_" x="211.7" y="503.6" class="st2" width="218.6" height="75.5"/>
	<rect id="XMLID_47_" x="211.7" y="503.6" class="st3" width="218.6" height="59"/>
	<polygon id="XMLID_40_" class="st4" points="321,677.1 321,677.4 228.2,678.3 228.2,703.9 250.2,709.4 266.8,725.1 278.6,720.4 
		299,727.5 321,763.7 321,763.4 343.1,727.2 363.5,720.2 375.3,724.9 391.8,709.2 413.8,703.7 413.8,678.1 	"/>
	<path id="XMLID_39_" class="st3" d="M222.4,713.6h-4.9c-3.2,0-5.8-2.6-5.8-5.8V543.2c0-3.2,2.6-5.8,5.8-5.8h4.9
		c3.2,0,5.8,2.6,5.8,5.8v164.6C228.2,711,225.6,713.6,222.4,713.6z"/>
	<path id="XMLID_38_" class="st3" d="M323.9,763.5H319c-3.2,0-5.8-2.6-5.8-5.8V543.2c0-3.2,2.6-5.8,5.8-5.8h4.9
		c3.2,0,5.8,2.6,5.8,5.8v214.5C329.7,760.9,327.1,763.5,323.9,763.5z"/>
	<path id="XMLID_37_" class="st3" d="M272.8,728.7h-4.9c-3.2,0-5.8-2.6-5.8-5.8V543.2c0-3.2,2.6-5.8,5.8-5.8h4.9
		c3.2,0,5.8,2.6,5.8,5.8v179.6C278.6,726,276,728.7,272.8,728.7z"/>
	<path id="XMLID_36_" class="st3" d="M424.6,713.6h-4.9c-3.2,0-5.8-2.6-5.8-5.8V543.2c0-3.2,2.6-5.8,5.8-5.8h4.9
		c3.2,0,5.8,2.6,5.8,5.8v164.6C430.4,711,427.7,713.6,424.6,713.6z"/>
	<path id="XMLID_31_" class="st4" d="M250.2,693h-10.1c-6.5,0-11.9-5.3-11.9-11.9V560.3c0-6.5,5.3-11.9,11.9-11.9h10.1
		c6.5,0,11.9,5.3,11.9,11.9v120.8C262,687.7,256.7,693,250.2,693z"/>
	<path id="XMLID_30_" class="st4" d="M301,693h-10.3c-6.7,0-12.1-5.5-12.1-12.1V560.6c0-6.7,5.5-12.1,12.1-12.1H301
		c6.7,0,12.1,5.5,12.1,12.1v120.3C313.2,687.6,307.7,693,301,693z"/>
	<path id="XMLID_29_" class="st4" d="M351.6,693h-10.1c-6.5,0-11.9-5.3-11.9-11.9V560.3c0-6.5,5.3-11.9,11.9-11.9h10.1
		c6.5,0,11.9,5.3,11.9,11.9v120.8C363.5,687.7,358.2,693,351.6,693z"/>
	<path id="XMLID_23_" class="st4" d="M401.7,693h-10.3c-6.7,0-12.1-5.5-12.1-12.1V560.6c0-6.7,5.5-12.1,12.1-12.1h10.3
		c6.7,0,12.1,5.5,12.1,12.1v120.3C413.8,687.6,408.4,693,401.7,693z"/>
	<polyline id="XMLID_22_" class="st2" points="483.3,480.8 483.3,528.1 159.2,528.1 159.2,480.8 	"/>
	<rect id="XMLID_21_" x="159.2" y="520.1" class="st5" width="324.1" height="13.5"/>
	<path id="XMLID_18_" class="st2" d="M200.1,485.9c22.6,0,40.8,18.3,40.8,40.8c0,22.6-18.3,40.8-40.8,40.8s-40.8-18.3-40.8-40.8
		C159.2,504.2,177.5,485.9,200.1,485.9"/>
	<path id="XMLID_17_" class="st3" d="M373.4,728.7h-4.9c-3.2,0-5.8-2.6-5.8-5.8V543.2c0-3.2,2.6-5.8,5.8-5.8h4.9
		c3.2,0,5.8,2.6,5.8,5.8v179.6C379.2,726,376.6,728.7,373.4,728.7z"/>
	<path id="XMLID_16_" class="st2" d="M442.4,485.9c22.6,0,40.8,18.3,40.8,40.8c0,22.6-18.3,40.8-40.8,40.8s-40.8-18.3-40.8-40.8
		C401.6,504.2,419.9,485.9,442.4,485.9"/>
	<g id="XMLID_15_">
		<path id="XMLID_218_" class="st13" d="M194.6,551.7c-12.1,0-22-9.9-22-22V520c0-12.1,9.9-22,22-22h252.8c12.1,0,22,9.9,22,22v9.7
			c0,12.1-9.9,22-22,22H194.6z"/>
		<g id="XMLID_214_">
			<path id="XMLID_215_" class="st7" d="M447.4,500.8c10.6,0,19.2,8.6,19.2,19.2v9.7c0,10.6-8.6,19.2-19.2,19.2H194.6
				c-10.6,0-19.2-8.6-19.2-19.2V520c0-10.6,8.6-19.2,19.2-19.2H447.4 M447.4,495.2H194.6c-13.6,0-24.8,11.1-24.8,24.8v9.7
				c0,13.6,11.1,24.8,24.8,24.8h252.8c13.6,0,24.8-11.1,24.8-24.8V520C472.1,506.3,461,495.2,447.4,495.2L447.4,495.2z"/>
		</g>
	</g>
	<text id="XMLID_12_" transform="matrix(1 0 0 1 237.777 535.1602)" class="st10 st11 st12">WEB DESIGN</text>
	<g id="XMLID_7_">
		<g id="XMLID_11_">
			<path id="XMLID_129_" class="st6" d="M321.9,712c-38.8,0-70.4-31.6-70.4-70.4s31.6-70.4,70.4-70.4c38.8,0,70.4,31.6,70.4,70.4
				S360.7,712,321.9,712z"/>
			<path id="XMLID_126_" class="st7" d="M321.9,573.7c37.5,0,67.9,30.5,67.9,67.9s-30.5,67.9-67.9,67.9S254,679,254,641.6
				S284.4,573.7,321.9,573.7 M321.9,568.7c-40.3,0-72.9,32.7-72.9,72.9s32.7,72.9,72.9,72.9s72.9-32.7,72.9-72.9
				S362.2,568.7,321.9,568.7L321.9,568.7z"/>
		</g>
		<circle id="XMLID_8_" class="st13" cx="321.9" cy="641.6" r="64.4"/>
	</g>
</g>
</svg>
