<?xml version="1.0" encoding="utf-8"?>
<!-- Generator: Adobe Illustrator 19.0.0, SVG Export Plug-In . SVG Version: 6.00 Build 0)  -->
<svg version="1.1" xmlns="http://www.w3.org/2000/svg" xmlns:xlink="http://www.w3.org/1999/xlink" x="0px" y="0px"
	 viewBox="0 0 618.3 800" style="enable-background:new 0 0 618.3 800;" xml:space="preserve">
<style type="text/css">
	.st0{display:none;}
	.st1{display:inline;fill:#22B573;}
	.st2{fill:#EFEAE6;}
	.st3{fill:#E8E3E2;}
	.st4{fill:#D2D1CD;}
	.st5{fill:#DCD7CD;}
	.st6{fill:#EEE9E4;}
	.st7{fill:#C0B399;}
	.st8{fill:#FFCF4A;}
	.st9{fill:#FAB416;}
	.st10{fill:#5D4B43;}
	.st11{font-family:'KeepCalm-Medium';}
	.st12{font-size:24px;}
	.st13{display:inline;}
	.st14{fill:#FFFFFF;}
	.st15{font-family:'RSU';}
	.st16{font-size:22.5335px;}
	.st17{font-family:'RSU-Bold';}
	.st18{font-size:83.682px;}
	.st19{font-size:16.2715px;}
	.st20{opacity:0.6;}
	.st21{fill:#4BA775;}
	.st22{fill:#3F8C60;}
	.st23{fill:#EFEFEF;}
	.st24{fill:#83CFF0;}
	.st25{fill:#75B7CE;}
	.st26{fill:#F1E8D2;}
	.st27{fill:#FFF9E6;}
	.st28{fill:#FDDEC9;}
	.st29{fill:#F2F2F2;}
	.st30{fill:#F1D2C2;}
	.st31{fill:#FCB514;}
	.st32{fill:#3B2512;}
	.st33{fill:#C0272D;}
	.st34{fill:#EC1E27;}
	.st35{fill:#DFF2F8;}
	.st36{fill:#D1E3E8;}
	.st37{fill:#FFE8B5;}
	.st38{fill:#EED9B9;}
	.st39{opacity:0.33;fill:#DDDDDC;}
	.st40{opacity:0.52;fill:#75B7CE;}
	.st41{fill:#282827;}
	.st42{fill:#3F4040;}
	.st43{fill:#4F4F4F;}
	.st44{fill:#7A441C;}
	.st45{fill:#5F3313;}
	.st46{opacity:0.4;}
	.st47{fill:#7FD1EC;stroke:#FFFFFF;stroke-width:4;stroke-miterlimit:10;}
	.st48{opacity:0.3;fill:none;stroke:#28AAE1;stroke-width:2;stroke-miterlimit:10;}
	.st49{fill:#EA9D22;}
	.st50{fill:#FFE161;}
	.st51{fill:#E74525;}
</style>
<g id="Layer_2" class="st0">
	<rect id="XMLID_94_" x="52.5" y="13.8" class="st1" width="536.6" height="769"/>
</g>
<g id="Layer_1">
	<rect id="XMLID_789_" x="191.4" y="469.5" class="st2" width="218.6" height="75.5"/>
	<rect id="XMLID_788_" x="191.4" y="469.5" class="st3" width="218.6" height="59"/>
	<polyline id="XMLID_787_" class="st4" points="300.7,729.3 322.7,693.1 343.2,686 355,690.7 371.5,675 393.5,669.5 393.5,643.9 
		300.7,643 300.7,643.2 207.9,644.2 207.9,669.7 229.9,675.2 246.4,691 258.2,686.2 278.7,693.3 300.7,729.5 	"/>
	<path id="XMLID_786_" class="st3" d="M202.1,679.4h-4.9c-3.2,0-5.8-2.6-5.8-5.8V509.1c0-3.2,2.6-5.8,5.8-5.8h4.9
		c3.2,0,5.8,2.6,5.8,5.8v164.6C207.9,676.8,205.3,679.4,202.1,679.4z"/>
	<path id="XMLID_785_" class="st3" d="M298.6,729.3c-3.2,0-5.8-2.6-5.8-5.8V509.1c0-3.2,2.6-5.8,5.8-5.8h4.9c3.2,0,5.8,2.6,5.8,5.8
		v214.5c0,3.2-2.6,5.8-5.8,5.8"/>
	<path id="XMLID_784_" class="st3" d="M252.4,694.5h-4.9c-3.2,0-5.8-2.6-5.8-5.8V509.1c0-3.2,2.6-5.8,5.8-5.8h4.9
		c3.2,0,5.8,2.6,5.8,5.8v179.6C258.2,691.9,255.6,694.5,252.4,694.5z"/>
	<path id="XMLID_783_" class="st3" d="M404.2,679.4h-4.9c-3.2,0-5.8-2.6-5.8-5.8V509.1c0-3.2,2.6-5.8,5.8-5.8h4.9
		c3.2,0,5.8,2.6,5.8,5.8v164.6C410,676.8,407.4,679.4,404.2,679.4z"/>
	<path id="XMLID_782_" class="st4" d="M229.8,658.8h-10.1c-6.5,0-11.9-5.3-11.9-11.9V526.2c0-6.5,5.3-11.9,11.9-11.9h10.1
		c6.5,0,11.9,5.3,11.9,11.9V647C241.7,653.5,236.4,658.8,229.8,658.8z"/>
	<path id="XMLID_781_" class="st4" d="M280.7,658.8h-10.3c-6.7,0-12.1-5.5-12.1-12.1V526.4c0-6.7,5.5-12.1,12.1-12.1h10.3
		c6.7,0,12.1,5.5,12.1,12.1v120.3C292.8,653.4,287.4,658.8,280.7,658.8z"/>
	<path id="XMLID_780_" class="st4" d="M331.3,658.8h-10.1c-6.5,0-11.9-5.3-11.9-11.9V526.2c0-6.5,5.3-11.9,11.9-11.9h10.1
		c6.5,0,11.9,5.3,11.9,11.9V647C343.2,653.5,337.8,658.8,331.3,658.8z"/>
	<path id="XMLID_779_" class="st4" d="M381.4,658.8H371c-6.7,0-12.1-5.5-12.1-12.1V526.4c0-6.7,5.5-12.1,12.1-12.1h10.3
		c6.7,0,12.1,5.5,12.1,12.1v120.3C393.5,653.4,388,658.8,381.4,658.8z"/>
	<rect id="XMLID_778_" x="138.9" y="446.7" class="st2" width="324.1" height="47.3"/>
	<rect id="XMLID_777_" x="138.9" y="486" class="st5" width="324.1" height="13.5"/>
	<circle id="XMLID_776_" class="st2" cx="179.7" cy="492.6" r="40.8"/>
	<path id="XMLID_775_" class="st3" d="M353.1,694.5h-4.9c-3.2,0-5.8-2.6-5.8-5.8V509.1c0-3.2,2.6-5.8,5.8-5.8h4.9
		c3.2,0,5.8,2.6,5.8,5.8v179.6C358.9,691.9,356.3,694.5,353.1,694.5z"/>
	<circle id="XMLID_774_" class="st2" cx="422.1" cy="492.6" r="40.8"/>
	<g id="XMLID_751_">
		<g id="XMLID_767_">
			<path id="XMLID_49_" class="st6" d="M204.5,521.8c-12.3,0-22.3-10-22.3-22.3v-9.7c0-12.3,10-22.3,22.3-22.3H396
				c12.3,0,22.3,10,22.3,22.3v9.7c0,12.3-10,22.3-22.3,22.3H204.5z"/>
			<g id="XMLID_45_">
				<path id="XMLID_46_" class="st7" d="M396,470c10.9,0,19.8,8.9,19.8,19.8v9.7c0,10.9-8.9,19.8-19.8,19.8H204.5
					c-10.9,0-19.8-8.9-19.8-19.8v-9.7c0-10.9,8.9-19.8,19.8-19.8H396 M396,465H204.5c-13.6,0-24.8,11.1-24.8,24.8v9.7
					c0,13.6,11.1,24.8,24.8,24.8H396c13.6,0,24.8-11.1,24.8-24.8v-9.7C420.8,476.2,409.7,465,396,465L396,465z"/>
			</g>
		</g>
		<g id="XMLID_760_">
			<g id="XMLID_761_">
				<circle id="XMLID_766_" class="st8" cx="405.5" cy="503" r="21.1"/>
				<path id="XMLID_765_" class="st8" d="M422.8,515.1c0,0,8.2-16.3,22.7-18c0,0,1.7-0.2,1.6-1.9c-0.1-1.7,0-37.7,0-37.7
					s0-0.7-0.9-0.7c-0.9,0-25.4,15.6-25.4,15.6s-0.9,0.6-0.2,1.5s3.3,3.8-0.2,7c-1.8,1.6-14.9,0.9-14.9,0.9L422.8,515.1z"/>
				<circle id="XMLID_764_" class="st9" cx="405.5" cy="503" r="14.8"/>
				<circle id="XMLID_763_" class="st8" cx="405.5" cy="503" r="7.8"/>
				<path id="XMLID_762_" class="st8" d="M384.3,503v19.6c0,0,0,1.5,1.4,1.5s19.7,0,19.7,0L384.3,503z"/>
			</g>
		</g>
		<g id="XMLID_753_">
			<g id="XMLID_754_">
				<circle id="XMLID_759_" class="st8" cx="194.3" cy="503" r="21.1"/>
				<path id="XMLID_758_" class="st8" d="M176.9,515.1c0,0-8.2-16.3-22.7-18c0,0-1.7-0.2-1.6-1.9c0.1-1.7,0-37.7,0-37.7
					s0-0.7,0.9-0.7s25.4,15.6,25.4,15.6s0.9,0.6,0.2,1.5c-0.8,0.9-3.3,3.8,0.2,7c1.8,1.6,14.9,0.9,14.9,0.9L176.9,515.1z"/>
				<circle id="XMLID_757_" class="st9" cx="194.3" cy="503" r="14.8"/>
				<circle id="XMLID_756_" class="st8" cx="194.3" cy="503" r="7.8"/>
				<path id="XMLID_755_" class="st8" d="M215.4,503v19.6c0,0,0,1.5-1.4,1.5s-19.7,0-19.7,0L215.4,503z"/>
			</g>
		</g>
	</g>
	<g id="XMLID_732_" class="st0">
		<g id="XMLID_743_" class="st13">
			<g id="XMLID_745_">
				<path id="XMLID_32_" class="st6" d="M302.6,677.8c-38.8,0-70.4-31.6-70.4-70.4s31.6-70.4,70.4-70.4c38.8,0,70.4,31.6,70.4,70.4
					S341.4,677.8,302.6,677.8z"/>
				<path id="XMLID_29_" class="st7" d="M302.6,539.5c37.5,0,67.9,30.5,67.9,67.9c0,37.5-30.5,67.9-67.9,67.9s-67.9-30.5-67.9-67.9
					C234.6,570,265.1,539.5,302.6,539.5 M302.6,534.5c-40.3,0-72.9,32.7-72.9,72.9s32.7,72.9,72.9,72.9s72.9-32.7,72.9-72.9
					S342.8,534.5,302.6,534.5L302.6,534.5z"/>
			</g>
			<circle id="XMLID_744_" class="st14" cx="302.6" cy="607.4" r="64.4"/>
		</g>
		<g id="XMLID_739_" class="st13">
			<text id="XMLID_742_" transform="matrix(1 0 0 1 274.5901 579.3569)" class="st15 st16">ผู้ท้าชิง</text>
			<text id="XMLID_741_" transform="matrix(1 0 0 1 268.5394 636.4644)" class="st17 st18">10</text>
			<text id="XMLID_740_" transform="matrix(1 0 0 1 290.4627 652.7095)" class="st15 st19">ท่าน</text>
		</g>
	</g>
	<g id="XMLID_114_" class="st20">
		<g id="XMLID_721_">
			<rect id="XMLID_731_" x="401.5" y="427" class="st21" width="53.3" height="19.9"/>
			<rect id="XMLID_730_" x="401.5" y="430.2" class="st22" width="53.3" height="1.9"/>
			<rect id="XMLID_729_" x="401.5" y="434.1" class="st22" width="53.3" height="1.9"/>
			<rect id="XMLID_728_" x="401.5" y="437.9" class="st22" width="53.3" height="1.9"/>
			<rect id="XMLID_723_" x="401.5" y="441.8" class="st22" width="53.3" height="1.9"/>
			<rect id="XMLID_722_" x="420.8" y="427" class="st23" width="14.1" height="19.9"/>
		</g>
		<g id="XMLID_713_">
			<rect id="XMLID_719_" x="344.4" y="427" class="st21" width="53.3" height="19.9"/>
			<rect id="XMLID_718_" x="344.4" y="430.2" class="st22" width="53.3" height="1.9"/>
			<rect id="XMLID_717_" x="344.4" y="434.1" class="st22" width="53.3" height="1.9"/>
			<rect id="XMLID_716_" x="344.4" y="437.9" class="st22" width="53.3" height="1.9"/>
			<rect id="XMLID_715_" x="344.4" y="441.8" class="st22" width="53.3" height="1.9"/>
			<rect id="XMLID_714_" x="363.7" y="427" class="st23" width="14.1" height="19.9"/>
		</g>
		<g id="XMLID_489_">
			<rect id="XMLID_712_" x="374.6" y="405.2" class="st21" width="53.3" height="19.9"/>
			<rect id="XMLID_494_" x="374.6" y="408.4" class="st22" width="53.3" height="1.9"/>
			<rect id="XMLID_493_" x="374.6" y="412.2" class="st22" width="53.3" height="1.9"/>
			<rect id="XMLID_492_" x="374.6" y="416.1" class="st22" width="53.3" height="1.9"/>
			<rect id="XMLID_491_" x="374.6" y="419.9" class="st22" width="53.3" height="1.9"/>
			<rect id="XMLID_490_" x="393.9" y="405.2" class="st23" width="14.1" height="19.9"/>
		</g>
		<g id="XMLID_482_">
			<rect id="XMLID_488_" x="205.8" y="427" class="st21" width="53.3" height="19.9"/>
			<rect id="XMLID_487_" x="205.8" y="430.2" class="st22" width="53.3" height="1.9"/>
			<rect id="XMLID_486_" x="205.8" y="434.1" class="st22" width="53.3" height="1.9"/>
			<rect id="XMLID_485_" x="205.8" y="437.9" class="st22" width="53.3" height="1.9"/>
			<rect id="XMLID_484_" x="205.8" y="441.8" class="st22" width="53.3" height="1.9"/>
			<rect id="XMLID_483_" x="225.1" y="427" class="st23" width="14.1" height="19.9"/>
		</g>
		<g id="XMLID_469_">
			<rect id="XMLID_481_" x="148.7" y="427" class="st21" width="53.3" height="19.9"/>
			<rect id="XMLID_480_" x="148.7" y="430.2" class="st22" width="53.3" height="1.9"/>
			<rect id="XMLID_479_" x="148.7" y="434.1" class="st22" width="53.3" height="1.9"/>
			<rect id="XMLID_478_" x="148.7" y="437.9" class="st22" width="53.3" height="1.9"/>
			<rect id="XMLID_471_" x="148.7" y="441.8" class="st22" width="53.3" height="1.9"/>
			<rect id="XMLID_470_" x="168" y="427" class="st23" width="14.1" height="19.9"/>
		</g>
		<g id="XMLID_462_">
			<rect id="XMLID_468_" x="178.8" y="405.2" class="st21" width="53.3" height="19.9"/>
			<rect id="XMLID_467_" x="178.8" y="408.4" class="st22" width="53.3" height="1.9"/>
			<rect id="XMLID_466_" x="178.8" y="412.2" class="st22" width="53.3" height="1.9"/>
			<rect id="XMLID_465_" x="178.8" y="416.1" class="st22" width="53.3" height="1.9"/>
			<rect id="XMLID_464_" x="178.8" y="419.9" class="st22" width="53.3" height="1.9"/>
			<rect id="XMLID_463_" x="198.2" y="405.2" class="st23" width="14.1" height="19.9"/>
		</g>
		<g id="XMLID_393_">
			<path id="XMLID_461_" class="st24" d="M266.1,270.4c0,0-32.7,129.6-48.1,145.7c0,0,85.8,21.6,162.6,0.2c0,0-43.9-88.8-47.1-145.2
				L266.1,270.4z"/>
			<path id="XMLID_460_" class="st25" d="M271.6,262.1c0,0-27.3,139.8-40.2,157.1c0,0,71.6,23.3,135.6,0.2c0,0-36.6-95.7-39.3-156.6
				L271.6,262.1z"/>
			<g id="XMLID_457_">
				<path id="XMLID_459_" class="st26" d="M339.5,443.4c0,0-7.6-6.6-10.7-13.6c-3.1-7-12-6.2-22.7-5.7c0,0-5.9,2.6,2.3,4.6
					c0,0-5.8,3.5,4,5c0,0-4.7,7.6,5.6,4.5c0,0-7,7.3,4.3,3.1c0,0-4.4,5.7,3.7,2.4c0,0,0.2,6.1,5.2,1.1
					C331.2,445,335.5,448.1,339.5,443.4z"/>
				<path id="XMLID_458_" class="st27" d="M336.7,442c0,0-6.1-5.9-8.5-11.8s-9.8-5.7-18.7-5.9c0,0-4.9,1.9,1.8,4
					c0,0-4.9,2.6,3.2,4.4c0,0-4.1,6,4.6,4c0,0-6,5.7,3.5,2.8c0,0-3.8,4.5,3,2.2c0,0,0,5.1,4.3,1.2
					C329.8,442.8,333.4,445.7,336.7,442z"/>
			</g>
			<g id="XMLID_448_">
				<path id="XMLID_456_" class="st26" d="M261.7,443.4c0,0,7.6-6.6,10.7-13.6s12-6.2,22.7-5.7c0,0,5.9,2.6-2.3,4.6c0,0,5.8,3.5-4,5
					c0,0,4.7,7.6-5.6,4.5c0,0,7,7.3-4.3,3.1c0,0,4.4,5.7-3.7,2.4c0,0-0.2,6.1-5.2,1.1C270,445,265.7,448.1,261.7,443.4z"/>
				<path id="XMLID_449_" class="st27" d="M264.4,442c0,0,6.1-5.9,8.5-11.8s9.8-5.7,18.7-5.9c0,0,4.9,1.9-1.8,4c0,0,4.9,2.6-3.2,4.4
					c0,0,4.1,6-4.6,4c0,0,6,5.7-3.5,2.8c0,0,3.8,4.5-3,2.2c0,0,0,5.1-4.3,1.2C271.3,442.8,267.8,445.7,264.4,442z"/>
			</g>
			<path id="XMLID_447_" class="st28" d="M236,319.2c0,0-1-15.9,5.8-28.2c7.1-12.8,13.2-22.8,25-27.4c2.2-0.9,4.4-1.7,6.6-2.4
				l49.9,0.2c0,0,2.7,3,5,5c10.5,9,26.5,17.5,54.7,41.8l-12.2,8.3c0,0-16.6-12.2-38.5-18c0,0,16,73.8,21.1,139.9
				c0,0,8.3,4.5,8.3,9.6h-31.4c0,0-12.2-51.3-21.2-62.2h-18.6c0,0-19.3,39.8-22.5,62.2h-30.2c0,0,0.6-6.4,8.3-8.3
				c0,0,10.9-100.1,23.7-146.3c0,0,1.3-5.7-10.9,5.1c-5.8,5.1-9,12.2-5.8,19.3L236,319.2z"/>
			<polygon id="XMLID_446_" class="st14" points="269.3,285.4 259.1,341.7 340.6,341.7 329.3,279.8 			"/>
			<path id="XMLID_445_" class="st29" d="M326.4,292.9c2.2-2.4,3.3-5.6,3.6-8.8l-0.8-4.2l-60,5.6l-0.5,2.9c2,4,5.4,7.8,10.8,10.4
				C298.2,307.6,318.7,301.2,326.4,292.9z"/>
			<path id="XMLID_444_" class="st30" d="M303.3,274.9c-17.2-1.4-33.2-2.8-44.9-7.7c2.8-1.3,5.5-2.5,8.4-3.6
				c2.2-0.9,4.4-1.7,6.6-2.4l51.2,2.2c0,0,1.4,1,3.7,3c1.4,1.2,3.3,2.9,5.3,4.8C324.8,274.3,314.6,275.8,303.3,274.9z"/>
			<path id="XMLID_443_" class="st30" d="M225.5,203.5c0,0-13.9-1.1-12.6,14.9s25,17.3,25,17.3l-3.2-25.7L225.5,203.5z"/>
			<path id="XMLID_437_" class="st30" d="M371.5,203.5c0,0,13.9-1.1,12.6,14.9c-1.3,16-25,17.3-25,17.3l3.2-25.7L371.5,203.5z"/>
			<g id="XMLID_418_">
				<path id="XMLID_432_" class="st24" d="M266.8,263.4c0,0-5.8,22.5,12.8,31.4c18.6,9,39.1,2.6,46.8-5.8c6.3-6.9,3.1-19.8,1.8-24.2
					c-0.3-1-0.9-1.8-1.6-2.4l0,0c-1.2-1-2.9-1-4.1,0l0,0c-0.7,0.6-1.3,1.3-1.6,2.1c-1.1,2.9-5,10.2-16.2,12.3
					c-14.1,2.6-28.8-7.1-31.4-13.5C270.6,256.9,266.8,263.4,266.8,263.4z"/>
				<path id="XMLID_427_" class="st25" d="M271,265.8c0,0,6,13,18.2,16.8C289.2,282.6,276.5,282.9,271,265.8z"/>
				<path id="XMLID_422_" class="st25" d="M269.3,268.5c0,0,4.5,19.3,21.2,25.7C290.5,294.2,277,287.8,269.3,268.5z"/>
				<path id="XMLID_420_" class="st25" d="M327.1,271.1c0,0,0.3,6.7-5.8,12.8C321.3,283.9,328.4,280.7,327.1,271.1z"/>
				<path id="XMLID_419_" class="st25" d="M324.5,266.6c0,0-1.3,9-11.6,16C313,282.6,323.9,278.8,324.5,266.6z"/>
			</g>
			<g id="XMLID_415_">
				<circle id="XMLID_417_" class="st8" cx="270.9" cy="266.3" r="5.5"/>
				<circle id="XMLID_416_" class="st31" cx="270.9" cy="266.3" r="3.8"/>
			</g>
			<g id="XMLID_412_">
				<circle id="XMLID_414_" class="st8" cx="325.5" cy="266.3" r="5.5"/>
				<circle id="XMLID_413_" class="st31" cx="325.5" cy="266.3" r="3.8"/>
			</g>
			<path id="XMLID_411_" class="st28" d="M221.8,196c0,0,13.5,27,16,40.4c2.6,13.5,26.3,30.8,58.4,28.2s59.7-5.1,64.2-30.8
				c4.5-25.7,14.1-41.1,14.1-41.1s9.6-43.6-5.8-75.7s-53.3-34.7-72.5-35.3c-19.3-0.6-55.8,12.2-68,35.3S216.1,166.5,221.8,196z"/>
			<path id="XMLID_410_" class="st24" d="M353.4,438.6l-24.8,2.6l1.7,7h31.4C361.7,448.2,361.7,443,353.4,438.6z"/>
			<polygon id="XMLID_409_" class="st25" points="361.6,446.9 330.2,447.4 330.3,448.2 361.7,448.2 			"/>
			<path id="XMLID_408_" class="st24" d="M245.1,438.6l24.8,2.6l-1.7,7h-31.4C236.8,448.2,236.8,443,245.1,438.6z"/>
			<polygon id="XMLID_407_" class="st25" points="236.9,446.9 268.3,447.4 268.2,448.2 236.8,448.2 			"/>
			<polygon id="XMLID_406_" class="st14" points="352.2,425.1 327.7,437.9 326.8,434.5 351.8,421.5 			"/>
			<polygon id="XMLID_405_" class="st14" points="352.8,432 323.7,423.4 324.8,427.1 353.1,435.5 			"/>
			<polygon id="XMLID_404_" class="st14" points="247.1,427.3 270.3,439.4 271.1,436.2 247.4,423.8 			"/>
			<polygon id="XMLID_403_" class="st14" points="246.5,433.8 274.1,425.7 273.1,429.2 246.2,437.1 			"/>
			<circle id="XMLID_402_" class="st32" cx="268" cy="206.9" r="11.6"/>
			<circle id="XMLID_401_" class="st32" cx="326.4" cy="206.9" r="11.6"/>
			<g id="XMLID_395_">
				<circle id="XMLID_400_" class="st33" cx="297.5" cy="240.3" r="7.2"/>
				<circle id="XMLID_399_" class="st33" cx="307.2" cy="238.2" r="5.1"/>
				<circle id="XMLID_398_" class="st33" cx="287.3" cy="238.2" r="5.1"/>
				<rect id="XMLID_397_" x="287.3" y="233.1" class="st33" width="20.4" height="5.1"/>
				<path id="XMLID_396_" class="st33" d="M285.5,243c0,0,6.3,4.4,12,4.4S309,243,309,243l-4.8-3.8l-18.9-0.5L285.5,243z"/>
			</g>
			<path id="XMLID_394_" class="st34" d="M285.4,242.8l0,0.1c0.1,0,0.1,0,0.2,0.1v0c0,0,6.3,4.4,12,4.4S309,243,309,243l0,0
				c0.4-0.1,0.7-0.3,1-0.5c-0.3-0.2-7.4-3.5-12.9-3.5C291.5,239.1,285.4,242.8,285.4,242.8z"/>
		</g>
		<g id="XMLID_390_">
			<polygon id="XMLID_392_" class="st30" points="368.5,305.3 365.5,313.3 369.3,317.6 379,306.5 377.4,302.9 			"/>
			<polygon id="XMLID_391_" class="st28" points="372.4,306.4 365.3,316.1 376.5,328.5 380.4,327.2 378.1,321.5 387.2,316.2 
				383.2,306.1 			"/>
		</g>
		<rect id="XMLID_389_" x="274.5" y="147.9" class="st35" width="47.5" height="14.1"/>
		<g id="XMLID_386_">
			<path id="XMLID_388_" class="st30" d="M289.1,388.8l-37.7,8.6c-0.4,2.7-0.7,5.3-1,7.9l31.5-0.1
				C284.9,398,287.6,392.1,289.1,388.8z"/>
			<path id="XMLID_387_" class="st30" d="M348.3,392.1l-3.2-16l-36,9.8c2.8,3.4,5.9,10.7,8.8,19.1l32-0.1
				C349.4,400.6,348.8,396.3,348.3,392.1z"/>
		</g>
		<path id="XMLID_385_" class="st35" d="M297.6,74.1c-45.7,0-82.8,35.9-82.8,80.2h165.6C380.3,110,343.3,74.1,297.6,74.1z"/>
		<path id="XMLID_384_" class="st36" d="M215,147.9c2.3,0.3,5.5-1.1,10.2-5.7c0,0,12.7,9.2,24.3-4.6c0,0-12.6-11-22.7-25.2
			C220.3,122.9,216.1,134.9,215,147.9z"/>
		<g id="XMLID_381_">
			<path id="XMLID_383_" class="st26" d="M256.1,131.1c0,0-22.2-19.4-31.4-40S189.3,73,158,74.4c0,0-17.3,7.7,6.6,13.6
				c0,0-17,10.2,11.7,14.7c0,0-13.9,22.2,16.5,13.3c0,0-20.6,21.6,12.7,9.2c0,0-12.9,16.7,10.8,7.2c0,0,0.5,18,15.3,3.3
				C231.7,135.7,244.4,144.9,256.1,131.1z"/>
			<path id="XMLID_382_" class="st27" d="M248,126.9c0,0-18-17.2-25.1-34.8c-7.1-17.6-28.9-16.9-55-17.4c0,0-14.5,5.4,5.2,11.6
				c0,0-14.3,7.5,9.4,12.8c0,0-12,17.7,13.4,11.9c0,0-17.6,16.8,10.4,8.3c0,0-11.1,13.2,8.8,6.5c0,0,0,14.9,12.6,3.5
				C227.7,129.4,238.1,137.7,248,126.9z"/>
		</g>
		<polygon id="XMLID_380_" class="st14" points="253.4,400.9 350.8,400.7 345.1,371.8 		"/>
		<path id="XMLID_379_" class="st29" d="M344.9,371.9l-91.6,29l17.1,0c23.4-4.8,58-13.5,75.1-25.4L344.9,371.9z"/>
		<polygon id="XMLID_378_" class="st37" points="260.3,398.8 253.4,400.9 350.8,400.7 350.8,398.8 		"/>
		<polygon id="XMLID_377_" class="st37" points="260.3,398.8 253.4,400.9 350.8,400.7 350.8,398.8 		"/>
		<path id="XMLID_376_" class="st38" d="M280.3,398.8h-20l-7,2.1l17.1,0C273.6,400.2,276.9,399.5,280.3,398.8z"/>
		<path id="XMLID_375_" class="st36" d="M366.8,110.3c-10.1,14-22.4,24.7-22.4,24.7c11.6,13.8,24.3,4.6,24.3,4.6
			c5.3,5.3,8.8,6.3,11.1,5.6C378.3,132.3,373.7,120.5,366.8,110.3z"/>
		<g id="XMLID_372_">
			<path id="XMLID_374_" class="st26" d="M338,131.1c0,0,22.2-19.4,31.4-40s35.4-18.1,66.7-16.7c0,0,17.3,7.7-6.6,13.6
				c0,0,17,10.2-11.7,14.7c0,0,13.9,22.2-16.5,13.3c0,0,20.6,21.6-12.7,9.2c0,0,12.9,16.7-10.8,7.2c0,0-0.5,18-15.3,3.3
				C362.3,135.7,349.6,144.9,338,131.1z"/>
			<path id="XMLID_373_" class="st27" d="M346.1,126.9c0,0,18-17.2,25.1-34.8c7.1-17.6,28.9-16.9,55-17.4c0,0,14.5,5.4-5.2,11.6
				c0,0,14.3,7.5-9.4,12.8c0,0,12,17.7-13.4,11.9c0,0,17.6,16.8-10.4,8.3c0,0,11.1,13.2-8.8,6.5c0,0,0,14.9-12.6,3.5
				C366.3,129.4,356,137.7,346.1,126.9z"/>
		</g>
		<path id="XMLID_371_" class="st14" d="M258.4,348.1c0,0-7.1,42.4-11.6,53.9c0,0,71.6-10.8,98.7-29.8l-4.2-22.7L258.4,348.1z"/>
		<path id="XMLID_370_" class="st37" d="M247.6,399.9c-0.2,0.8-0.5,1.4-0.7,2c0,0,71.6-10.8,98.7-29.8l-0.3-1.7
			C319.5,388.3,255.1,398.8,247.6,399.9z"/>
		<polygon id="XMLID_369_" class="st39" points="331.6,344.5 328.4,383.4 344.6,383.4 338.6,344.9 		"/>
		<polygon id="XMLID_368_" class="st29" points="258.4,350 341.4,351.5 341.2,349.5 258.6,348.1 		"/>
		<path id="XMLID_367_" class="st24" d="M260.1,334c0,0,58.6,7.1,80.4,7.7l0.8,7.9l-83-1.5L260.1,334z"/>
		<polygon id="XMLID_366_" class="st24" points="331.6,341.3 328.4,380.2 344.6,380.2 338.6,341.7 		"/>
		<polygon id="XMLID_365_" class="st25" points="259.8,336.4 285.4,339.1 259.7,337.7 		"/>
		<polygon id="XMLID_364_" class="st25" points="259.3,340.6 278.3,341 259.1,341.7 		"/>
		<polygon id="XMLID_363_" class="st25" points="258.8,344.8 280.9,344.9 258.6,345.8 		"/>
		<polygon id="XMLID_362_" class="st25" points="332.2,349.6 333.5,365.4 334.1,349.6 		"/>
		<polygon id="XMLID_361_" class="st25" points="336.5,349.5 337.4,360.9 338.4,349.6 		"/>
		<path id="XMLID_360_" class="st40" d="M330.6,353.5c1.3,0.6,2.7,1,4.2,1c2.1,0,4-0.7,5.6-1.8l-0.5-3.2l1.5,0l-0.8-7.9
			c-3.9-0.1-8.9-0.4-14.5-0.9c-0.6,1.2-0.9,2.6-0.9,4.1c0,1.6,0.4,3.1,1.1,4.4l4.7,0.1L330.6,353.5z"/>
		<circle id="XMLID_359_" class="st24" cx="334.8" cy="344.9" r="7.1"/>
		<g id="XMLID_356_">
			<path id="XMLID_358_" class="st30" d="M272.6,164.5c0,0,13.5,25.5,53.2,27c0,0-10.7-11.1-15.8-20.2
				c19.1,16.3,52.2,31.7,52.2,31.7c-11.4-16-14.8-31-15.7-36.4c3,4.5,10.5,14.8,19,19.1c0,0-7.3-11.3-7.2-19.3
				c8.1,6.5,13.8,14.3,17.5,20.1c0.8-5.1,1.7-12.9,1.8-22l-4.2-5.8H272.5L272.6,164.5z"/>
			<path id="XMLID_357_" class="st30" d="M250.7,164.9c0.1,2.1,0.3,14-2.6,22.8c0,0,18-12.2,24.4-23.1v-5.8h-34.7l-19.8,5.8
				c0.2,10,1.6,20.5,3.7,31.4c0,0,0.1,0.3,0.4,0.8C231.5,189.6,242.7,179,250.7,164.9z"/>
		</g>
		<g id="XMLID_349_">
			<path id="XMLID_355_" class="st35" d="M216.5,158.8c0,0,1.7,27-11,43c0,0,29.3-14.3,45.4-43H216.5z"/>
			<path id="XMLID_354_" class="st35" d="M272.6,158.8c0,0,13.5,25.5,53.2,27c0,0-17.3-18-18.4-27H272.6z"/>
			<path id="XMLID_353_" class="st35" d="M346.1,158.8c0,0,1.8,18.5,16,38.5c0,0-42.8-20-59.2-38.5H346.1z"/>
			<path id="XMLID_352_" class="st35" d="M380.4,158.8c0,0,2.9,14.3,0,30.8c0,0-7.8-18.6-24.7-30.8H380.4z"/>
			<path id="XMLID_351_" class="st35" d="M345.1,158.8c0,0,9.4,15.7,20.4,21.2c0,0-8.6-13.3-7.1-21.2H345.1z"/>
			<path id="XMLID_350_" class="st35" d="M250.7,158.8c0,0,0.6,13.5-2.6,23.1c0,0,18-12.2,24.4-23.1H250.7z"/>
		</g>
		<polygon id="XMLID_348_" class="st41" points="243.7,344.9 243.7,388.5 230.2,368.6 230.2,334 		"/>
		<rect id="XMLID_347_" x="243.7" y="344.9" class="st42" width="13.5" height="43.6"/>
		<path id="XMLID_346_" class="st36" d="M380.4,158.8h-22h-2.7h-9.6h-1h-14.4c-4.3-3.2-10.3-5.1-10.3-5.1c-2.9,0-5.3,2.3-5.4,5.1
			c0,0.1,0,0.2,0,0.3c0,3,2.5,5.5,5.5,5.5h14.4h12.4c-0.3-1.5-0.6-2.7-0.7-3.7c0.7,1,1.5,2.3,2.6,3.7h9.6c-0.3-1.3-0.4-2.6-0.4-3.9
			c1.6,1.2,3,2.5,4.4,3.9h16.1c0.8,0,1.6-0.2,2.4-0.5C380.7,160.7,380.4,158.8,380.4,158.8z"/>
		<path id="XMLID_345_" class="st36" d="M280.9,158.8c-0.2-2.9-2.5-5.1-5.4-5.1l-2.9,5.1h0.1c0,0,1.2,2.3,4.1,5.6
			c2.4-0.6,4.2-2.7,4.2-5.3C280.9,159,280.9,158.9,280.9,158.8z"/>
		<path id="XMLID_344_" class="st36" d="M250.9,158.8h-0.2h-34.2c0,0,0.1,2.2,0,5.8h30.9c1.2-1.8,2.3-3.6,3.4-5.4
			c0,0.8,0.1,2.8,0,5.4h17.5c1.7-1.9,3.2-3.9,4.3-5.8H250.9z"/>
		<path id="XMLID_343_" class="st31" d="M378.7,158.8h-58.4c-3,0-5.5-2.5-5.5-5.5l0,0c0-3,2.5-5.5,5.5-5.5h58.4c3,0,5.5,2.5,5.5,5.5
			l0,0C384.2,156.3,381.7,158.8,378.7,158.8z"/>
		<path id="XMLID_342_" class="st31" d="M275.4,158.8h-59c-3,0-5.5-2.5-5.5-5.5v0c0-3,2.5-5.5,5.5-5.5h59c3,0,5.5,2.5,5.5,5.5v0
			C280.9,156.3,278.4,158.8,275.4,158.8z"/>
		<polygon id="XMLID_341_" class="st43" points="230.2,334 243,334 257.1,344.9 243.7,344.9 		"/>
		<rect id="XMLID_340_" x="236" y="325.6" class="st44" width="5.1" height="10.3"/>
		<polygon id="XMLID_339_" class="st45" points="234.7,335.2 236,335.9 236,325.6 234.7,325 		"/>
		<g id="XMLID_330_">
			<polygon id="XMLID_338_" class="st30" points="247.3,310.3 252.2,317.3 249.7,322.4 237.5,314.1 238.1,310.2 			"/>
			<polygon id="XMLID_337_" class="st28" points="246.6,313.5 253.8,323.1 249,330.4 245.1,329.2 242.3,334.4 230.6,327.1 
				235.9,313.1 			"/>
			
				<rect id="XMLID_335_" x="238.8" y="321.3" transform="matrix(-0.866 -0.5 0.5 -0.866 290.3214 728.4164)" class="st30" width="8" height="8"/>
			
				<rect id="XMLID_332_" x="240.3" y="322.8" transform="matrix(-0.866 -0.5 0.5 -0.866 290.3214 728.4164)" class="st28" width="4.9" height="4.9"/>
			<polygon id="XMLID_331_" class="st30" points="378.4,321.8 375.9,317.3 385.2,311.1 387.4,316 			"/>
		</g>
		<rect id="XMLID_329_" x="245.6" y="325.6" class="st44" width="5.1" height="17.3"/>
		<polygon id="XMLID_328_" class="st45" points="244.3,342.3 245.6,342.9 245.6,325.6 244.3,325 244.3,330.8 		"/>
		<polygon id="XMLID_324_" class="st45" points="239.9,328.2 239.8,323 244.3,325 244.3,330.7 		"/>
		<polygon id="XMLID_323_" class="st45" points="250.7,325.6 244.1,323 239.8,323 245.6,325.6 		"/>
		<g id="XMLID_223_" class="st46">
			<polygon id="XMLID_322_" class="st47" points="399,360.1 304.1,360.1 337.3,292.2 432.2,292.2 			"/>
			<line id="XMLID_321_" class="st48" x1="347.7" y1="296.6" x2="318.7" y2="355.8"/>
			<line id="XMLID_320_" class="st48" x1="355.5" y1="296.6" x2="326.5" y2="355.8"/>
			<line id="XMLID_319_" class="st48" x1="363.3" y1="296.6" x2="334.3" y2="355.8"/>
			<line id="XMLID_314_" class="st48" x1="371.1" y1="296.6" x2="342.1" y2="355.8"/>
			<line id="XMLID_285_" class="st48" x1="378.9" y1="296.6" x2="349.9" y2="355.8"/>
			<line id="XMLID_284_" class="st48" x1="386.7" y1="296.6" x2="357.7" y2="355.8"/>
			<line id="XMLID_283_" class="st48" x1="394.5" y1="296.6" x2="365.5" y2="355.8"/>
			<line id="XMLID_282_" class="st48" x1="402.3" y1="296.6" x2="373.3" y2="355.8"/>
			<line id="XMLID_281_" class="st48" x1="410.1" y1="296.6" x2="381.1" y2="355.8"/>
			<line id="XMLID_280_" class="st48" x1="417.9" y1="296.6" x2="388.9" y2="355.8"/>
			<line id="XMLID_279_" class="st48" x1="337.7" y1="303.3" x2="421" y2="303.3"/>
			<line id="XMLID_278_" class="st48" x1="333.9" y1="311.1" x2="417.2" y2="311.1"/>
			<line id="XMLID_277_" class="st48" x1="330.1" y1="318.9" x2="413.4" y2="318.9"/>
			<line id="XMLID_276_" class="st48" x1="326.3" y1="326.7" x2="409.5" y2="326.7"/>
			<line id="XMLID_254_" class="st48" x1="322.4" y1="334.5" x2="405.7" y2="334.5"/>
			<line id="XMLID_253_" class="st48" x1="318.6" y1="342.3" x2="401.9" y2="342.3"/>
			<line id="XMLID_251_" class="st48" x1="314.8" y1="350.1" x2="398.1" y2="350.1"/>
			<g id="XMLID_230_">
				<path id="XMLID_250_" class="st49" d="M394,316.3c-0.1,0-0.1,0-0.2,0c-6.4,0-14.1,5.2-17.2,11.6c-3.1,6.4-0.5,11.6,5.9,11.6
					s14.1-5.2,17.2-11.6c0-0.1,0.1-0.1,0.1-0.2h-11.4L394,316.3z"/>
				<path id="XMLID_248_" class="st50" d="M399.2,312.9l-5.6,11.4H405C408,318,405.4,313,399.2,312.9z"/>
			</g>
			<g id="XMLID_224_">
				<polygon id="XMLID_229_" class="st51" points="336.6,339.9 327.8,339.9 337.4,320.3 346.2,320.3 				"/>
				<polygon id="XMLID_228_" class="st51" points="347.8,339.9 339,339.9 352.4,312.5 361.2,312.5 				"/>
				<polygon id="XMLID_225_" class="st51" points="358.9,339.9 350.1,339.9 357.9,324 366.7,324 				"/>
			</g>
		</g>
		<path id="XMLID_152_" class="st36" d="M260.3,107.4c0,0,0.6,13.5-2.6,23.1c0,0,18-12.2,24.4-23.1H260.3z"/>
		<path id="XMLID_151_" class="st35" d="M263.6,102.3c0,0,0.6,13.5-2.6,23.1c0,0,18-12.2,24.4-23.1H263.6z"/>
		<path id="XMLID_150_" class="st36" d="M322.6,119.6c0,0,9.4,15.7,20.4,21.2c0,0-8.6-13.3-7.1-21.2H322.6z"/>
		<path id="XMLID_115_" class="st35" d="M323.1,118.3c0,0,7.2,12,15.5,16.1c0,0-6.6-10.2-5.4-16.1H323.1z"/>
	</g>
	<rect id="XMLID_616_" x="191.3" y="469.7" class="st2" width="218.6" height="75.5"/>
	<rect id="XMLID_614_" x="191.3" y="469.7" class="st3" width="218.6" height="59"/>
	<polyline id="XMLID_613_" class="st4" points="300.6,729.5 322.6,693.4 343.1,686.3 354.9,691 371.4,675.3 393.4,669.8 
		393.4,644.2 300.6,643.3 300.6,643.5 207.8,644.4 207.8,670 229.8,675.5 246.3,691.2 258.1,686.5 278.6,693.6 300.6,729.8 	"/>
	<path id="XMLID_612_" class="st3" d="M202,679.7h-4.9c-3.2,0-5.8-2.6-5.8-5.8V509.4c0-3.2,2.6-5.8,5.8-5.8h4.9
		c3.2,0,5.8,2.6,5.8,5.8v164.6C207.8,677.1,205.2,679.7,202,679.7z"/>
	<path id="XMLID_611_" class="st3" d="M298.5,729.6c-3.2,0-5.8-2.6-5.8-5.8V509.4c0-3.2,2.6-5.8,5.8-5.8h4.9c3.2,0,5.8,2.6,5.8,5.8
		v214.5c0,3.2-2.6,5.8-5.8,5.8"/>
	<path id="XMLID_610_" class="st3" d="M252.3,694.8h-4.9c-3.2,0-5.8-2.6-5.8-5.8V509.4c0-3.2,2.6-5.8,5.8-5.8h4.9
		c3.2,0,5.8,2.6,5.8,5.8V689C258.1,692.2,255.5,694.8,252.3,694.8z"/>
	<path id="XMLID_608_" class="st3" d="M404.1,679.7h-4.9c-3.2,0-5.8-2.6-5.8-5.8V509.4c0-3.2,2.6-5.8,5.8-5.8h4.9
		c3.2,0,5.8,2.6,5.8,5.8v164.6C409.9,677.1,407.3,679.7,404.1,679.7z"/>
	<path id="XMLID_594_" class="st4" d="M229.7,659.1h-10.1c-6.5,0-11.9-5.3-11.9-11.9V526.4c0-6.5,5.3-11.9,11.9-11.9h10.1
		c6.5,0,11.9,5.3,11.9,11.9v120.8C241.6,653.8,236.3,659.1,229.7,659.1z"/>
	<path id="XMLID_593_" class="st4" d="M280.6,659.1h-10.3c-6.7,0-12.1-5.5-12.1-12.1V526.7c0-6.7,5.5-12.1,12.1-12.1h10.3
		c6.7,0,12.1,5.5,12.1,12.1V647C292.7,653.7,287.3,659.1,280.6,659.1z"/>
	<path id="XMLID_592_" class="st4" d="M331.2,659.1h-10.1c-6.5,0-11.9-5.3-11.9-11.9V526.4c0-6.5,5.3-11.9,11.9-11.9h10.1
		c6.5,0,11.9,5.3,11.9,11.9v120.8C343.1,653.8,337.7,659.1,331.2,659.1z"/>
	<path id="XMLID_590_" class="st4" d="M381.3,659.1h-10.3c-6.7,0-12.1-5.5-12.1-12.1V526.7c0-6.7,5.5-12.1,12.1-12.1h10.3
		c6.7,0,12.1,5.5,12.1,12.1V647C393.4,653.7,387.9,659.1,381.3,659.1z"/>
	<rect id="XMLID_589_" x="138.8" y="446.9" class="st2" width="324.1" height="47.3"/>
	<rect id="XMLID_566_" x="138.8" y="486.3" class="st5" width="324.1" height="13.5"/>
	<circle id="XMLID_565_" class="st2" cx="179.6" cy="492.9" r="40.8"/>
	<path id="XMLID_564_" class="st3" d="M353,694.8h-4.9c-3.2,0-5.8-2.6-5.8-5.8V509.4c0-3.2,2.6-5.8,5.8-5.8h4.9
		c3.2,0,5.8,2.6,5.8,5.8V689C358.8,692.2,356.2,694.8,353,694.8z"/>
	<circle id="XMLID_563_" class="st2" cx="422" cy="492.9" r="40.8"/>
	<g id="XMLID_453_">
		<path id="XMLID_43_" class="st14" d="M174.2,517.8c-12.1,0-22-9.9-22-22v-9.7c0-12.1,9.9-22,22-22h252.8c12.1,0,22,9.9,22,22v9.7
			c0,12.1-9.9,22-22,22H174.2z"/>
		<g id="XMLID_39_">
			<path id="XMLID_40_" class="st7" d="M426.9,466.9c10.6,0,19.2,8.6,19.2,19.2v9.7c0,10.6-8.6,19.2-19.2,19.2H174.2
				c-10.6,0-19.2-8.6-19.2-19.2v-9.7c0-10.6,8.6-19.2,19.2-19.2H426.9 M426.9,461.3H174.2c-13.6,0-24.8,11.1-24.8,24.8v9.7
				c0,13.6,11.1,24.8,24.8,24.8h252.8c13.6,0,24.8-11.1,24.8-24.8v-9.7C451.7,472.5,440.5,461.3,426.9,461.3L426.9,461.3z"/>
		</g>
	</g>
	<g id="XMLID_442_">
		<g id="XMLID_451_">
			<path id="XMLID_27_" class="st6" d="M301.5,678.1c-38.8,0-70.4-31.6-70.4-70.4s31.6-70.4,70.4-70.4s70.4,31.6,70.4,70.4
				S340.3,678.1,301.5,678.1z"/>
			<path id="XMLID_24_" class="st7" d="M301.5,539.8c37.5,0,67.9,30.5,67.9,67.9c0,37.5-30.5,67.9-67.9,67.9s-67.9-30.5-67.9-67.9
				C233.5,570.2,264,539.8,301.5,539.8 M301.5,534.8c-40.3,0-72.9,32.7-72.9,72.9c0,40.3,32.7,72.9,72.9,72.9s72.9-32.7,72.9-72.9
				C374.4,567.4,341.7,534.8,301.5,534.8L301.5,534.8z"/>
		</g>
		<circle id="XMLID_450_" class="st14" cx="301.5" cy="607.7" r="64.4"/>
	</g>
</g>
</svg>
