<svg enable-background="new 0 0 618.3 800" viewBox="0 0 618.3 800" xmlns="http://www.w3.org/2000/svg"><path d="m191.4 469.5h218.6v75.5h-218.6z" fill="#efeae6"/><path d="m191.4 469.5h218.6v59h-218.6z" fill="#e8e3e2"/><path d="m300.7 729.3 22-36.2 20.5-7.1 11.8 4.7 16.5-15.7 22-5.5v-25.6l-92.8-.9v.2l-92.8 1v25.5l22 5.5 16.5 15.8 11.8-4.8 20.5 7.1 22 36.2" fill="#d2d1cd"/><g fill="#e8e3e2"><path d="m202.1 679.4h-4.9c-3.2 0-5.8-2.6-5.8-5.8v-164.5c0-3.2 2.6-5.8 5.8-5.8h4.9c3.2 0 5.8 2.6 5.8 5.8v164.6c0 3.1-2.6 5.7-5.8 5.7z"/><path d="m298.6 729.3c-3.2 0-5.8-2.6-5.8-5.8v-214.4c0-3.2 2.6-5.8 5.8-5.8h4.9c3.2 0 5.8 2.6 5.8 5.8v214.5c0 3.2-2.6 5.8-5.8 5.8"/><path d="m252.4 694.5h-4.9c-3.2 0-5.8-2.6-5.8-5.8v-179.6c0-3.2 2.6-5.8 5.8-5.8h4.9c3.2 0 5.8 2.6 5.8 5.8v179.6c0 3.2-2.6 5.8-5.8 5.8z"/><path d="m404.2 679.4h-4.9c-3.2 0-5.8-2.6-5.8-5.8v-164.5c0-3.2 2.6-5.8 5.8-5.8h4.9c3.2 0 5.8 2.6 5.8 5.8v164.6c0 3.1-2.6 5.7-5.8 5.7z"/></g><g fill="#d2d1cd"><path d="m229.8 658.8h-10.1c-6.5 0-11.9-5.3-11.9-11.9v-120.7c0-6.5 5.3-11.9 11.9-11.9h10.1c6.5 0 11.9 5.3 11.9 11.9v120.8c0 6.5-5.3 11.8-11.9 11.8z"/><path d="m280.7 658.8h-10.3c-6.7 0-12.1-5.5-12.1-12.1v-120.3c0-6.7 5.5-12.1 12.1-12.1h10.3c6.7 0 12.1 5.5 12.1 12.1v120.3c0 6.7-5.4 12.1-12.1 12.1z"/><path d="m331.3 658.8h-10.1c-6.5 0-11.9-5.3-11.9-11.9v-120.7c0-6.5 5.3-11.9 11.9-11.9h10.1c6.5 0 11.9 5.3 11.9 11.9v120.8c0 6.5-5.4 11.8-11.9 11.8z"/><path d="m381.4 658.8h-10.4c-6.7 0-12.1-5.5-12.1-12.1v-120.3c0-6.7 5.5-12.1 12.1-12.1h10.3c6.7 0 12.1 5.5 12.1 12.1v120.3c.1 6.7-5.4 12.1-12 12.1z"/></g><path d="m138.9 446.7h324.1v47.3h-324.1z" fill="#efeae6"/><path d="m138.9 486h324.1v13.5h-324.1z" fill="#dcd7cd"/><circle cx="179.7" cy="492.6" fill="#efeae6" r="40.8"/><path d="m353.1 694.5h-4.9c-3.2 0-5.8-2.6-5.8-5.8v-179.6c0-3.2 2.6-5.8 5.8-5.8h4.9c3.2 0 5.8 2.6 5.8 5.8v179.6c0 3.2-2.6 5.8-5.8 5.8z" fill="#e8e3e2"/><circle cx="422.1" cy="492.6" fill="#efeae6" r="40.8"/><path d="m204.5 521.8c-12.3 0-22.3-10-22.3-22.3v-9.7c0-12.3 10-22.3 22.3-22.3h191.5c12.3 0 22.3 10 22.3 22.3v9.7c0 12.3-10 22.3-22.3 22.3z" fill="#eee9e4"/><path d="m396 470c10.9 0 19.8 8.9 19.8 19.8v9.7c0 10.9-8.9 19.8-19.8 19.8h-191.5c-10.9 0-19.8-8.9-19.8-19.8v-9.7c0-10.9 8.9-19.8 19.8-19.8zm0-5h-191.5c-13.6 0-24.8 11.1-24.8 24.8v9.7c0 13.6 11.1 24.8 24.8 24.8h191.5c13.6 0 24.8-11.1 24.8-24.8v-9.7c0-13.6-11.1-24.8-24.8-24.8z" fill="#c0b399"/><circle cx="405.5" cy="503" fill="#ffcf4a" r="21.1"/><path d="m422.8 515.1s8.2-16.3 22.7-18c0 0 1.7-.2 1.6-1.9s0-37.7 0-37.7 0-.7-.9-.7-25.4 15.6-25.4 15.6-.9.6-.2 1.5 3.3 3.8-.2 7c-1.8 1.6-14.9.9-14.9.9z" fill="#ffcf4a"/><circle cx="405.5" cy="503" fill="#fab416" r="14.8"/><circle cx="405.5" cy="503" fill="#ffcf4a" r="7.8"/><path d="m384.3 503v19.6s0 1.5 1.4 1.5 19.7 0 19.7 0z" fill="#ffcf4a"/><circle cx="194.3" cy="503" fill="#ffcf4a" r="21.1"/><path d="m176.9 515.1s-8.2-16.3-22.7-18c0 0-1.7-.2-1.6-1.9s0-37.7 0-37.7 0-.7.9-.7 25.4 15.6 25.4 15.6.9.6.2 1.5c-.8.9-3.3 3.8.2 7 1.8 1.6 14.9.9 14.9.9z" fill="#ffcf4a"/><circle cx="194.3" cy="503" fill="#fab416" r="14.8"/><circle cx="194.3" cy="503" fill="#ffcf4a" r="7.8"/><path d="m215.4 503v19.6s0 1.5-1.4 1.5-19.7 0-19.7 0z" fill="#ffcf4a"/><g opacity=".6"><path d="m401.5 427h53.3v19.9h-53.3z" fill="#4ba775"/><path d="m401.5 430.2h53.3v1.9h-53.3z" fill="#3f8c60"/><path d="m401.5 434.1h53.3v1.9h-53.3z" fill="#3f8c60"/><path d="m401.5 437.9h53.3v1.9h-53.3z" fill="#3f8c60"/><path d="m401.5 441.8h53.3v1.9h-53.3z" fill="#3f8c60"/><path d="m420.8 427h14.1v19.9h-14.1z" fill="#efefef"/><path d="m344.4 427h53.3v19.9h-53.3z" fill="#4ba775"/><path d="m344.4 430.2h53.3v1.9h-53.3z" fill="#3f8c60"/><path d="m344.4 434.1h53.3v1.9h-53.3z" fill="#3f8c60"/><path d="m344.4 437.9h53.3v1.9h-53.3z" fill="#3f8c60"/><path d="m344.4 441.8h53.3v1.9h-53.3z" fill="#3f8c60"/><path d="m363.7 427h14.1v19.9h-14.1z" fill="#efefef"/><path d="m374.6 405.2h53.3v19.9h-53.3z" fill="#4ba775"/><path d="m374.6 408.4h53.3v1.9h-53.3z" fill="#3f8c60"/><path d="m374.6 412.2h53.3v1.9h-53.3z" fill="#3f8c60"/><path d="m374.6 416.1h53.3v1.9h-53.3z" fill="#3f8c60"/><path d="m374.6 419.9h53.3v1.9h-53.3z" fill="#3f8c60"/><path d="m393.9 405.2h14.1v19.9h-14.1z" fill="#efefef"/><path d="m205.8 427h53.3v19.9h-53.3z" fill="#4ba775"/><path d="m205.8 430.2h53.3v1.9h-53.3z" fill="#3f8c60"/><path d="m205.8 434.1h53.3v1.9h-53.3z" fill="#3f8c60"/><path d="m205.8 437.9h53.3v1.9h-53.3z" fill="#3f8c60"/><path d="m205.8 441.8h53.3v1.9h-53.3z" fill="#3f8c60"/><path d="m225.1 427h14.1v19.9h-14.1z" fill="#efefef"/><path d="m148.7 427h53.3v19.9h-53.3z" fill="#4ba775"/><path d="m148.7 430.2h53.3v1.9h-53.3z" fill="#3f8c60"/><path d="m148.7 434.1h53.3v1.9h-53.3z" fill="#3f8c60"/><path d="m148.7 437.9h53.3v1.9h-53.3z" fill="#3f8c60"/><path d="m148.7 441.8h53.3v1.9h-53.3z" fill="#3f8c60"/><path d="m168 427h14.1v19.9h-14.1z" fill="#efefef"/><path d="m178.8 405.2h53.3v19.9h-53.3z" fill="#4ba775"/><path d="m178.8 408.4h53.3v1.9h-53.3z" fill="#3f8c60"/><path d="m178.8 412.2h53.3v1.9h-53.3z" fill="#3f8c60"/><path d="m178.8 416.1h53.3v1.9h-53.3z" fill="#3f8c60"/><path d="m178.8 419.9h53.3v1.9h-53.3z" fill="#3f8c60"/><path d="m198.2 405.2h14.1v19.9h-14.1z" fill="#efefef"/><path d="m266.1 270.4s-32.7 129.6-48.1 145.7c0 0 85.8 21.6 162.6.2 0 0-43.9-88.8-47.1-145.2z" fill="#83cff0"/><path d="m271.6 262.1s-27.3 139.8-40.2 157.1c0 0 71.6 23.3 135.6.2 0 0-36.6-95.7-39.3-156.6z" fill="#75b7ce"/><path d="m339.5 443.4s-7.6-6.6-10.7-13.6-12-6.2-22.7-5.7c0 0-5.9 2.6 2.3 4.6 0 0-5.8 3.5 4 5 0 0-4.7 7.6 5.6 4.5 0 0-7 7.3 4.3 3.1 0 0-4.4 5.7 3.7 2.4 0 0 .2 6.1 5.2 1.1 0 .2 4.3 3.3 8.3-1.4z" fill="#f1e8d2"/><path d="m336.7 442s-6.1-5.9-8.5-11.8-9.8-5.7-18.7-5.9c0 0-4.9 1.9 1.8 4 0 0-4.9 2.6 3.2 4.4 0 0-4.1 6 4.6 4 0 0-6 5.7 3.5 2.8 0 0-3.8 4.5 3 2.2 0 0 0 5.1 4.3 1.2-.1-.1 3.5 2.8 6.8-.9z" fill="#fff9e6"/><path d="m261.7 443.4s7.6-6.6 10.7-13.6 12-6.2 22.7-5.7c0 0 5.9 2.6-2.3 4.6 0 0 5.8 3.5-4 5 0 0 4.7 7.6-5.6 4.5 0 0 7 7.3-4.3 3.1 0 0 4.4 5.7-3.7 2.4 0 0-.2 6.1-5.2 1.1 0 .2-4.3 3.3-8.3-1.4z" fill="#f1e8d2"/><path d="m264.4 442s6.1-5.9 8.5-11.8 9.8-5.7 18.7-5.9c0 0 4.9 1.9-1.8 4 0 0 4.9 2.6-3.2 4.4 0 0 4.1 6-4.6 4 0 0 6 5.7-3.5 2.8 0 0 3.8 4.5-3 2.2 0 0 0 5.1-4.3 1.2.1-.1-3.4 2.8-6.8-.9z" fill="#fff9e6"/><path d="m236 319.2s-1-15.9 5.8-28.2c7.1-12.8 13.2-22.8 25-27.4 2.2-.9 4.4-1.7 6.6-2.4l49.9.2s2.7 3 5 5c10.5 9 26.5 17.5 54.7 41.8l-12.2 8.3s-16.6-12.2-38.5-18c0 0 16 73.8 21.1 139.9 0 0 8.3 4.5 8.3 9.6h-31.4s-12.2-51.3-21.2-62.2h-18.6s-19.3 39.8-22.5 62.2h-30.2s.6-6.4 8.3-8.3c0 0 10.9-100.1 23.7-146.3 0 0 1.3-5.7-10.9 5.1-5.8 5.1-9 12.2-5.8 19.3z" fill="#fddec9"/><path d="m269.3 285.4-10.2 56.3h81.5l-11.3-61.9z" fill="#fff"/><path d="m326.4 292.9c2.2-2.4 3.3-5.6 3.6-8.8l-.8-4.2-60 5.6-.5 2.9c2 4 5.4 7.8 10.8 10.4 18.7 8.8 39.2 2.4 46.9-5.9z" fill="#f2f2f2"/><path d="m303.3 274.9c-17.2-1.4-33.2-2.8-44.9-7.7 2.8-1.3 5.5-2.5 8.4-3.6 2.2-.9 4.4-1.7 6.6-2.4l51.2 2.2s1.4 1 3.7 3c1.4 1.2 3.3 2.9 5.3 4.8-8.8 3.1-19 4.6-30.3 3.7z" fill="#f1d2c2"/><path d="m225.5 203.5s-13.9-1.1-12.6 14.9 25 17.3 25 17.3l-3.2-25.7z" fill="#f1d2c2"/><path d="m371.5 203.5s13.9-1.1 12.6 14.9-25 17.3-25 17.3l3.2-25.7z" fill="#f1d2c2"/><path d="m266.8 263.4s-5.8 22.5 12.8 31.4c18.6 9 39.1 2.6 46.8-5.8 6.3-6.9 3.1-19.8 1.8-24.2-.3-1-.9-1.8-1.6-2.4-1.2-1-2.9-1-4.1 0-.7.6-1.3 1.3-1.6 2.1-1.1 2.9-5 10.2-16.2 12.3-14.1 2.6-28.8-7.1-31.4-13.5-2.7-6.4-6.5.1-6.5.1z" fill="#83cff0"/><path d="m271 265.8s6 13 18.2 16.8c0 0-12.7.3-18.2-16.8z" fill="#75b7ce"/><path d="m269.3 268.5s4.5 19.3 21.2 25.7c0 0-13.5-6.4-21.2-25.7z" fill="#75b7ce"/><path d="m327.1 271.1s.3 6.7-5.8 12.8c0 0 7.1-3.2 5.8-12.8z" fill="#75b7ce"/><path d="m324.5 266.6s-1.3 9-11.6 16c.1 0 11-3.8 11.6-16z" fill="#75b7ce"/><circle cx="270.9" cy="266.3" fill="#ffcf4a" r="5.5"/><circle cx="270.9" cy="266.3" fill="#fcb514" r="3.8"/><circle cx="325.5" cy="266.3" fill="#ffcf4a" r="5.5"/><circle cx="325.5" cy="266.3" fill="#fcb514" r="3.8"/><path d="m221.8 196s13.5 27 16 40.4c2.6 13.5 26.3 30.8 58.4 28.2s59.7-5.1 64.2-30.8 14.1-41.1 14.1-41.1 9.6-43.6-5.8-75.7-53.3-34.7-72.5-35.3c-19.3-.6-55.8 12.2-68 35.3s-12.1 49.5-6.4 79z" fill="#fddec9"/><path d="m353.4 438.6-24.8 2.6 1.7 7h31.4s0-5.2-8.3-9.6z" fill="#83cff0"/><path d="m361.6 446.9-31.4.5.1.8h31.4z" fill="#75b7ce"/><path d="m245.1 438.6 24.8 2.6-1.7 7h-31.4s0-5.2 8.3-9.6z" fill="#83cff0"/><path d="m236.9 446.9 31.4.5-.1.8h-31.4z" fill="#75b7ce"/><path d="m352.2 425.1-24.5 12.8-.9-3.4 25-13z" fill="#fff"/><path d="m352.8 432-29.1-8.6 1.1 3.7 28.3 8.4z" fill="#fff"/><path d="m247.1 427.3 23.2 12.1.8-3.2-23.7-12.4z" fill="#fff"/><path d="m246.5 433.8 27.6-8.1-1 3.5-26.9 7.9z" fill="#fff"/><circle cx="268" cy="206.9" fill="#3b2512" r="11.6"/><circle cx="326.4" cy="206.9" fill="#3b2512" r="11.6"/><g fill="#c0272d"><circle cx="297.5" cy="240.3" r="7.2"/><circle cx="307.2" cy="238.2" r="5.1"/><circle cx="287.3" cy="238.2" r="5.1"/><path d="m287.3 233.1h20.4v5.1h-20.4z"/><path d="m285.5 243s6.3 4.4 12 4.4 11.5-4.4 11.5-4.4l-4.8-3.8-18.9-.5z"/></g><path d="m285.4 242.8v.1c.1 0 .1 0 .2.1s6.3 4.4 12 4.4 11.4-4.4 11.4-4.4c.4-.1.7-.3 1-.5-.3-.2-7.4-3.5-12.9-3.5-5.6.1-11.7 3.8-11.7 3.8z" fill="#ec1e27"/><path d="m368.5 305.3-3 8 3.8 4.3 9.7-11.1-1.6-3.6z" fill="#f1d2c2"/><path d="m372.4 306.4-7.1 9.7 11.2 12.4 3.9-1.3-2.3-5.7 9.1-5.3-4-10.1z" fill="#fddec9"/><path d="m274.5 147.9h47.5v14.1h-47.5z" fill="#dff2f8"/><path d="m289.1 388.8-37.7 8.6c-.4 2.7-.7 5.3-1 7.9l31.5-.1c3-7.2 5.7-13.1 7.2-16.4z" fill="#f1d2c2"/><path d="m348.3 392.1-3.2-16-36 9.8c2.8 3.4 5.9 10.7 8.8 19.1l32-.1c-.5-4.3-1.1-8.6-1.6-12.8z" fill="#f1d2c2"/><path d="m297.6 74.1c-45.7 0-82.8 35.9-82.8 80.2h165.6c-.1-44.3-37.1-80.2-82.8-80.2z" fill="#dff2f8"/><path d="m215 147.9c2.3.3 5.5-1.1 10.2-5.7 0 0 12.7 9.2 24.3-4.6 0 0-12.6-11-22.7-25.2-6.5 10.5-10.7 22.5-11.8 35.5z" fill="#d1e3e8"/><path d="m256.1 131.1s-22.2-19.4-31.4-40-35.4-18.1-66.7-16.7c0 0-17.3 7.7 6.6 13.6 0 0-17 10.2 11.7 14.7 0 0-13.9 22.2 16.5 13.3 0 0-20.6 21.6 12.7 9.2 0 0-12.9 16.7 10.8 7.2 0 0 .5 18 15.3 3.3.1 0 12.8 9.2 24.5-4.6z" fill="#f1e8d2"/><path d="m248 126.9s-18-17.2-25.1-34.8-28.9-16.9-55-17.4c0 0-14.5 5.4 5.2 11.6 0 0-14.3 7.5 9.4 12.8 0 0-12 17.7 13.4 11.9 0 0-17.6 16.8 10.4 8.3 0 0-11.1 13.2 8.8 6.5 0 0 0 14.9 12.6 3.5 0 .1 10.4 8.4 20.3-2.4z" fill="#fff9e6"/><path d="m253.4 400.9 97.4-.2-5.7-28.9z" fill="#fff"/><path d="m344.9 371.9-91.6 29h17.1c23.4-4.8 58-13.5 75.1-25.4z" fill="#f2f2f2"/><path d="m260.3 398.8-6.9 2.1 97.4-.2v-1.9z" fill="#ffe8b5"/><path d="m260.3 398.8-6.9 2.1 97.4-.2v-1.9z" fill="#ffe8b5"/><path d="m280.3 398.8h-20l-7 2.1h17.1c3.2-.7 6.5-1.4 9.9-2.1z" fill="#eed9b9"/><path d="m366.8 110.3c-10.1 14-22.4 24.7-22.4 24.7 11.6 13.8 24.3 4.6 24.3 4.6 5.3 5.3 8.8 6.3 11.1 5.6-1.5-12.9-6.1-24.7-13-34.9z" fill="#d1e3e8"/><path d="m338 131.1s22.2-19.4 31.4-40 35.4-18.1 66.7-16.7c0 0 17.3 7.7-6.6 13.6 0 0 17 10.2-11.7 14.7 0 0 13.9 22.2-16.5 13.3 0 0 20.6 21.6-12.7 9.2 0 0 12.9 16.7-10.8 7.2 0 0-.5 18-15.3 3.3-.2 0-12.9 9.2-24.5-4.6z" fill="#f1e8d2"/><path d="m346.1 126.9s18-17.2 25.1-34.8 28.9-16.9 55-17.4c0 0 14.5 5.4-5.2 11.6 0 0 14.3 7.5-9.4 12.8 0 0 12 17.7-13.4 11.9 0 0 17.6 16.8-10.4 8.3 0 0 11.1 13.2-8.8 6.5 0 0 0 14.9-12.6 3.5-.1.1-10.4 8.4-20.3-2.4z" fill="#fff9e6"/><path d="m258.4 348.1s-7.1 42.4-11.6 53.9c0 0 71.6-10.8 98.7-29.8l-4.2-22.7z" fill="#fff"/><path d="m247.6 399.9c-.2.8-.5 1.4-.7 2 0 0 71.6-10.8 98.7-29.8l-.3-1.7c-25.8 17.9-90.2 28.4-97.7 29.5z" fill="#ffe8b5"/><path d="m331.6 344.5-3.2 38.9h16.2l-6-38.5z" fill="#dddddc" opacity=".33"/><path d="m258.4 350 83 1.5-.2-2-82.6-1.4z" fill="#f2f2f2"/><path d="m260.1 334s58.6 7.1 80.4 7.7l.8 7.9-83-1.5z" fill="#83cff0"/><path d="m331.6 341.3-3.2 38.9h16.2l-6-38.5z" fill="#83cff0"/><g fill="#75b7ce"><path d="m259.8 336.4 25.6 2.7-25.7-1.4z"/><path d="m259.3 340.6 19 .4-19.2.7z"/><path d="m258.8 344.8 22.1.1-22.3.9z"/><path d="m332.2 349.6 1.3 15.8.6-15.8z"/><path d="m336.5 349.5.9 11.4 1-11.3z"/><path d="m330.6 353.5c1.3.6 2.7 1 4.2 1 2.1 0 4-.7 5.6-1.8l-.5-3.2h1.5l-.8-7.9c-3.9-.1-8.9-.4-14.5-.9-.6 1.2-.9 2.6-.9 4.1 0 1.6.4 3.1 1.1 4.4l4.7.1z" opacity=".52"/></g><circle cx="334.8" cy="344.9" fill="#83cff0" r="7.1"/><path d="m272.6 164.5s13.5 25.5 53.2 27c0 0-10.7-11.1-15.8-20.2 19.1 16.3 52.2 31.7 52.2 31.7-11.4-16-14.8-31-15.7-36.4 3 4.5 10.5 14.8 19 19.1 0 0-7.3-11.3-7.2-19.3 8.1 6.5 13.8 14.3 17.5 20.1.8-5.1 1.7-12.9 1.8-22l-4.2-5.8h-100.9z" fill="#f1d2c2"/><path d="m250.7 164.9c.1 2.1.3 14-2.6 22.8 0 0 18-12.2 24.4-23.1v-5.8h-34.7l-19.8 5.8c.2 10 1.6 20.5 3.7 31.4 0 0 .1.3.4.8 9.4-7.2 20.6-17.8 28.6-31.9z" fill="#f1d2c2"/><g fill="#dff2f8"><path d="m216.5 158.8s1.7 27-11 43c0 0 29.3-14.3 45.4-43z"/><path d="m272.6 158.8s13.5 25.5 53.2 27c0 0-17.3-18-18.4-27z"/><path d="m346.1 158.8s1.8 18.5 16 38.5c0 0-42.8-20-59.2-38.5z"/><path d="m380.4 158.8s2.9 14.3 0 30.8c0 0-7.8-18.6-24.7-30.8z"/><path d="m345.1 158.8s9.4 15.7 20.4 21.2c0 0-8.6-13.3-7.1-21.2z"/><path d="m250.7 158.8s.6 13.5-2.6 23.1c0 0 18-12.2 24.4-23.1z"/></g><path d="m243.7 344.9v43.6l-13.5-19.9v-34.6z" fill="#282827"/><path d="m243.7 344.9h13.5v43.6h-13.5z" fill="#3f4040"/><path d="m380.4 158.8h-22-2.7-9.6-1-14.4c-4.3-3.2-10.3-5.1-10.3-5.1-2.9 0-5.3 2.3-5.4 5.1v.3c0 3 2.5 5.5 5.5 5.5h14.4 12.4c-.3-1.5-.6-2.7-.7-3.7.7 1 1.5 2.3 2.6 3.7h9.6c-.3-1.3-.4-2.6-.4-3.9 1.6 1.2 3 2.5 4.4 3.9h16.1c.8 0 1.6-.2 2.4-.5-.6-3.4-.9-5.3-.9-5.3z" fill="#d1e3e8"/><path d="m280.9 158.8c-.2-2.9-2.5-5.1-5.4-5.1l-2.9 5.1h.1s1.2 2.3 4.1 5.6c2.4-.6 4.2-2.7 4.2-5.3-.1-.1-.1-.2-.1-.3z" fill="#d1e3e8"/><path d="m250.9 158.8h-.2-34.2s.1 2.2 0 5.8h30.9c1.2-1.8 2.3-3.6 3.4-5.4 0 .8.1 2.8 0 5.4h17.5c1.7-1.9 3.2-3.9 4.3-5.8z" fill="#d1e3e8"/><path d="m378.7 158.8h-58.4c-3 0-5.5-2.5-5.5-5.5s2.5-5.5 5.5-5.5h58.4c3 0 5.5 2.5 5.5 5.5s-2.5 5.5-5.5 5.5z" fill="#fcb514"/><path d="m275.4 158.8h-59c-3 0-5.5-2.5-5.5-5.5s2.5-5.5 5.5-5.5h59c3 0 5.5 2.5 5.5 5.5s-2.5 5.5-5.5 5.5z" fill="#fcb514"/><path d="m230.2 334h12.8l14.1 10.9h-13.4z" fill="#4f4f4f"/><path d="m236 325.6h5.1v10.3h-5.1z" fill="#7a441c"/><path d="m234.7 335.2 1.3.7v-10.3l-1.3-.6z" fill="#5f3313"/><path d="m247.3 310.3 4.9 7-2.5 5.1-12.2-8.3.6-3.9z" fill="#f1d2c2"/><path d="m246.6 313.5 7.2 9.6-4.8 7.3-3.9-1.2-2.8 5.2-11.7-7.3 5.3-14z" fill="#fddec9"/><path d="m238.8 321.3h8v8h-8z" fill="#f1d2c2" transform="matrix(-.866 -.5 .5 -.866 290.3214 728.4164)"/><path d="m240.3 322.8h4.9v4.9h-4.9z" fill="#fddec9" transform="matrix(-.866 -.5 .5 -.866 290.3214 728.4164)"/><path d="m378.4 321.8-2.5-4.5 9.3-6.2 2.2 4.9z" fill="#f1d2c2"/><path d="m245.6 325.6h5.1v17.3h-5.1z" fill="#7a441c"/><path d="m244.3 342.3 1.3.6v-17.3l-1.3-.6v5.8z" fill="#5f3313"/><path d="m239.9 328.2-.1-5.2 4.5 2v5.7z" fill="#5f3313"/><path d="m250.7 325.6-6.6-2.6h-4.3l5.8 2.6z" fill="#5f3313"/><g opacity=".4"><g stroke-miterlimit="10"><path d="m399 360.1h-94.9l33.2-67.9h94.9z" fill="#7fd1ec" stroke="#fff" stroke-width="4"/><g fill="none" stroke="#28aae1" stroke-width="2"><path d="m347.7 296.6-29 59.2" opacity=".3"/><path d="m355.5 296.6-29 59.2" opacity=".3"/><path d="m363.3 296.6-29 59.2" opacity=".3"/><path d="m371.1 296.6-29 59.2" opacity=".3"/><path d="m378.9 296.6-29 59.2" opacity=".3"/><path d="m386.7 296.6-29 59.2" opacity=".3"/><path d="m394.5 296.6-29 59.2" opacity=".3"/><path d="m402.3 296.6-29 59.2" opacity=".3"/><path d="m410.1 296.6-29 59.2" opacity=".3"/><path d="m417.9 296.6-29 59.2" opacity=".3"/><path d="m337.7 303.3h83.3" opacity=".3"/><path d="m333.9 311.1h83.3" opacity=".3"/><path d="m330.1 318.9h83.3" opacity=".3"/><path d="m326.3 326.7h83.2" opacity=".3"/><path d="m322.4 334.5h83.3" opacity=".3"/><path d="m318.6 342.3h83.3" opacity=".3"/><path d="m314.8 350.1h83.3" opacity=".3"/></g></g><path d="m394 316.3c-.1 0-.1 0-.2 0-6.4 0-14.1 5.2-17.2 11.6s-.5 11.6 5.9 11.6 14.1-5.2 17.2-11.6c0-.1.1-.1.1-.2h-11.4z" fill="#ea9d22"/><path d="m399.2 312.9-5.6 11.4h11.4c3-6.3.4-11.3-5.8-11.4z" fill="#ffe161"/><g fill="#e74525"><path d="m336.6 339.9h-8.8l9.6-19.6h8.8z"/><path d="m347.8 339.9h-8.8l13.4-27.4h8.8z"/><path d="m358.9 339.9h-8.8l7.8-15.9h8.8z"/></g></g><path d="m260.3 107.4s.6 13.5-2.6 23.1c0 0 18-12.2 24.4-23.1z" fill="#d1e3e8"/><path d="m263.6 102.3s.6 13.5-2.6 23.1c0 0 18-12.2 24.4-23.1z" fill="#dff2f8"/><path d="m322.6 119.6s9.4 15.7 20.4 21.2c0 0-8.6-13.3-7.1-21.2z" fill="#d1e3e8"/><path d="m323.1 118.3s7.2 12 15.5 16.1c0 0-6.6-10.2-5.4-16.1z" fill="#dff2f8"/></g><path d="m191.3 469.7h218.6v75.5h-218.6z" fill="#efeae6"/><path d="m191.3 469.7h218.6v59h-218.6z" fill="#e8e3e2"/><path d="m300.6 729.5 22-36.1 20.5-7.1 11.8 4.7 16.5-15.7 22-5.5v-25.6l-92.8-.9v.2l-92.8.9v25.6l22 5.5 16.5 15.7 11.8-4.7 20.5 7.1 22 36.2" fill="#d2d1cd"/><g fill="#e8e3e2"><path d="m202 679.7h-4.9c-3.2 0-5.8-2.6-5.8-5.8v-164.5c0-3.2 2.6-5.8 5.8-5.8h4.9c3.2 0 5.8 2.6 5.8 5.8v164.6c0 3.1-2.6 5.7-5.8 5.7z"/><path d="m298.5 729.6c-3.2 0-5.8-2.6-5.8-5.8v-214.4c0-3.2 2.6-5.8 5.8-5.8h4.9c3.2 0 5.8 2.6 5.8 5.8v214.5c0 3.2-2.6 5.8-5.8 5.8"/><path d="m252.3 694.8h-4.9c-3.2 0-5.8-2.6-5.8-5.8v-179.6c0-3.2 2.6-5.8 5.8-5.8h4.9c3.2 0 5.8 2.6 5.8 5.8v179.6c0 3.2-2.6 5.8-5.8 5.8z"/><path d="m404.1 679.7h-4.9c-3.2 0-5.8-2.6-5.8-5.8v-164.5c0-3.2 2.6-5.8 5.8-5.8h4.9c3.2 0 5.8 2.6 5.8 5.8v164.6c0 3.1-2.6 5.7-5.8 5.7z"/></g><path d="m229.7 659.1h-10.1c-6.5 0-11.9-5.3-11.9-11.9v-120.8c0-6.5 5.3-11.9 11.9-11.9h10.1c6.5 0 11.9 5.3 11.9 11.9v120.8c0 6.6-5.3 11.9-11.9 11.9z" fill="#d2d1cd"/><path d="m280.6 659.1h-10.3c-6.7 0-12.1-5.5-12.1-12.1v-120.3c0-6.7 5.5-12.1 12.1-12.1h10.3c6.7 0 12.1 5.5 12.1 12.1v120.3c0 6.7-5.4 12.1-12.1 12.1z" fill="#d2d1cd"/><path d="m331.2 659.1h-10.1c-6.5 0-11.9-5.3-11.9-11.9v-120.8c0-6.5 5.3-11.9 11.9-11.9h10.1c6.5 0 11.9 5.3 11.9 11.9v120.8c0 6.6-5.4 11.9-11.9 11.9z" fill="#d2d1cd"/><path d="m381.3 659.1h-10.3c-6.7 0-12.1-5.5-12.1-12.1v-120.3c0-6.7 5.5-12.1 12.1-12.1h10.3c6.7 0 12.1 5.5 12.1 12.1v120.3c0 6.7-5.5 12.1-12.1 12.1z" fill="#d2d1cd"/><path d="m138.8 446.9h324.1v47.3h-324.1z" fill="#efeae6"/><path d="m138.8 486.3h324.1v13.5h-324.1z" fill="#dcd7cd"/><circle cx="179.6" cy="492.9" fill="#efeae6" r="40.8"/><path d="m353 694.8h-4.9c-3.2 0-5.8-2.6-5.8-5.8v-179.6c0-3.2 2.6-5.8 5.8-5.8h4.9c3.2 0 5.8 2.6 5.8 5.8v179.6c0 3.2-2.6 5.8-5.8 5.8z" fill="#e8e3e2"/><circle cx="422" cy="492.9" fill="#efeae6" r="40.8"/><path d="m174.2 517.8c-12.1 0-22-9.9-22-22v-9.7c0-12.1 9.9-22 22-22h252.8c12.1 0 22 9.9 22 22v9.7c0 12.1-9.9 22-22 22z" fill="#fff"/><path d="m426.9 466.9c10.6 0 19.2 8.6 19.2 19.2v9.7c0 10.6-8.6 19.2-19.2 19.2h-252.7c-10.6 0-19.2-8.6-19.2-19.2v-9.7c0-10.6 8.6-19.2 19.2-19.2zm0-5.6h-252.7c-13.6 0-24.8 11.1-24.8 24.8v9.7c0 13.6 11.1 24.8 24.8 24.8h252.8c13.6 0 24.8-11.1 24.8-24.8v-9.7c-.1-13.6-11.3-24.8-24.9-24.8z" fill="#c0b399"/><path d="m301.5 678.1c-38.8 0-70.4-31.6-70.4-70.4s31.6-70.4 70.4-70.4 70.4 31.6 70.4 70.4-31.6 70.4-70.4 70.4z" fill="#eee9e4"/><path d="m301.5 539.8c37.5 0 67.9 30.5 67.9 67.9 0 37.5-30.5 67.9-67.9 67.9s-67.9-30.5-67.9-67.9c-.1-37.5 30.4-67.9 67.9-67.9m0-5c-40.3 0-72.9 32.7-72.9 72.9 0 40.3 32.7 72.9 72.9 72.9s72.9-32.7 72.9-72.9c0-40.3-32.7-72.9-72.9-72.9z" fill="#c0b399"/><circle cx="301.5" cy="607.7" fill="#fff" r="64.4"/></svg>