<svg viewBox="0 0 188.85 188.86" xmlns="http://www.w3.org/2000/svg" xmlns:xlink="http://www.w3.org/1999/xlink"><linearGradient id="a" gradientUnits="userSpaceOnUse" x1="62.76" x2="126.03" y1="61.45" y2="84.47"><stop offset="0" stop-color="#0175b5"/><stop offset=".45" stop-color="#0971b2"/><stop offset="1" stop-color="#1967ac"/></linearGradient><radialGradient id="b" cx="91.59" cy="76" gradientTransform="matrix(1 0 0 1.01 1.89 -.97)" gradientUnits="userSpaceOnUse" r="34.08"><stop offset="0" stop-color="#fff"/><stop offset=".23" stop-color="#f7fafc"/><stop offset=".57" stop-color="#e2edf2"/><stop offset=".99" stop-color="#c0d7e2"/><stop offset="1" stop-color="#bfd6e2"/></radialGradient><linearGradient id="c" x1="74.97" x2="115.2" xlink:href="#a" y1="66.29" y2="80.94"/><g fill="#dcd7cd"><path d="m183.48 112.74a93.42 93.42 0 0 0 1.78-15.54l3.52.11a96.94 96.94 0 0 1 -1.85 16.14z"/><path d="m188.59 101.15-14.84-1.05.12-1.62.04-1.62 14.87.44-.05 1.93z"/><path d="m186.94 113.44-7.29-1.49.62-3.49 7.35 1.19z"/><path d="m180.53 106.78-7.37-1.04.41-3.23 7.4.75z"/><path d="m177.35 111.48.75-4.21.53-4.25 3.51.36-.56 4.42-.78 4.39z"/><path d="m172.36 110.47.7-3.96.51-4 3.5.36-.52 4.17-.74 4.13z"/><path d="m177.5 94.44h-3.5c-.08 1.89 0 3.78-.22 5.66l3.51.25c.17-1.96.13-3.94.21-5.91z"/><path d="m178 130.3a91.85 91.85 0 0 0 4.89-14.86l3.43.81a95.37 95.37 0 0 1 -5.09 15.44z"/><path d="m185.33 119.97-14.33-4.01.45-1.56.37-1.58 14.47 3.42-.44 1.88z"/><path d="m181.21 131.69-6.83-2.94c.48-1.08.88-2.2 1.32-3.29l6.95 2.65c-.48 1.19-.92 2.4-1.44 3.58z"/><path d="m176.3 123.87-7-2.52 1.04-3.07 7.1 2.23z"/><path d="m172.22 127.82c.57-1.31 1.06-2.65 1.59-4s.92-2.7 1.39-4l3.36 1.05c-.48 1.41-.94 2.82-1.45 4.22s-1.07 2.78-1.66 4.14z"/><path d="m167.54 125.81c.53-1.23 1-2.49 1.5-3.73s.86-2.54 1.3-3.8l3.36 1.05c-.46 1.32-.88 2.66-1.36 4s-1 2.61-1.56 3.9z"/><path d="m175.81 111.17-3.45-.71c-.45 1.83-.79 3.69-1.36 5.49l3.39 1c.61-1.95.96-3.86 1.42-5.78z"/><path d="m169 146.37a92.1 92.1 0 0 0 7.81-13.56l3.19 1.49a95.62 95.62 0 0 1 -8.12 14.08z"/><path d="m178.32 137.76-13.21-6.83c.48-1 1-1.91 1.44-2.91l13.45 6.28c-.48 1.18-1.1 2.31-1.68 3.46z"/><path d="m171.91 148.38-6.1-4.25c.71-1 1.33-2 2-3l6.27 4c-.73 1.13-1.41 2.22-2.17 3.25z"/><path d="m168.69 139.75-6.35-3.88 1.63-2.81 6.5 3.62c-.59 1.02-1.17 2.05-1.78 3.07z"/><path d="m163.88 142.79a84.44 84.44 0 0 0 4.54-7.25l3.08 1.71a88 88 0 0 1 -4.73 7.56z"/><path d="m159.71 139.87a79.35 79.35 0 0 0 4.26-6.82l3.08 1.71a82.87 82.87 0 0 1 -4.45 7.12z"/><path d="m170.78 127.21-3.24-1.39c-.78 1.72-1.54 3.45-2.43 5.11l3.13 1.62c.93-1.74 1.76-3.55 2.54-5.34z"/><path d="m157 160.31a92.56 92.56 0 0 0 10.39-11.7l2.83 2.1a96.09 96.09 0 0 1 -10.79 12.15z"/><path d="m167.88 153.76-11.57-9.35c.66-.86 1.35-1.7 2-2.56l11.94 8.87c-.77 1.03-1.58 2.03-2.37 3.04z"/><path d="m159.46 162.87-5.13-5.39c.86-.82 1.72-1.62 2.52-2.5l5.34 5.18c-.86.95-1.8 1.84-2.73 2.71z"/><path d="m158 153.75-5.44-5.07c.77-.77 1.45-1.61 2.16-2.42l5.64 4.85c-.75.89-1.49 1.8-2.36 2.64z"/><path d="m152.72 155.78 1.55-1.48 1.48-1.55c.49-.52 1-1 1.47-1.56l1.4-1.62 2.67 2.3-1.46 1.68c-.5.55-1 1.08-1.53 1.62l-1.54 1.61-1.61 1.54z"/><path d="m149.21 152.09 1.46-1.39 1.39-1.46c.46-.49.93-1 1.38-1.46l1.32-1.52 2.67 2.3-1.38 1.59c-.47.52-1 1-1.44 1.53l-1.45 1.52-1.52 1.45z"/><path d="m162.6 141.89-2.89-2.01-1.65 2.3-1.75 2.23 2.74 2.21 1.83-2.33z"/><path d="m142.5 171.58a88.39 88.39 0 0 0 12.5-9.39l2.35 2.63a91.91 91.91 0 0 1 -13 9.75z"/><path d="m154.45 167.34-9.46-11.48 2.45-2.13 9.92 11.09z"/><path d="m144.37 174.57-3.94-6.31c1-.65 2-1.26 3-1.93l4.19 6.14c-1.08.73-2.18 1.4-3.25 2.1z"/><path d="m144.79 165.35-4.31-6.06c.89-.62 1.77-1.25 2.61-1.93l4.56 5.88c-.93.76-1.89 1.43-2.86 2.11z"/><path d="m139.18 166.27a82.26 82.26 0 0 0 7-4.9l2.16 2.79a85.78 85.78 0 0 1 -7.31 5.1z"/><path d="m136.49 162a77.17 77.17 0 0 0 6.6-4.6l2.16 2.79a80.69 80.69 0 0 1 -6.89 4.81z"/><path d="m151.64 154.64-2.43-2.55c-1.34 1.34-2.81 2.53-4.23 3.77l2.24 2.72c1.49-1.3 3.02-2.58 4.42-3.94z"/><path d="m126 179.71a89.58 89.58 0 0 0 14.14-6.7l1.77 3a93.1 93.1 0 0 1 -14.69 7z"/><path d="m138.54 177.93-7-13.15c1-.47 1.89-1.06 2.83-1.58l7.49 12.85c-1.07.63-2.16 1.32-3.32 1.88z"/><path d="m127.22 183.01-2.59-6.97 3.31-1.3 2.87 6.86z"/><path d="m129.49 174.05-3-6.81c1-.46 2-.86 2.95-1.36l3.28 6.68c-1.06.55-2.16.99-3.23 1.49z"/><path d="m123.82 173.84c1.32-.53 2.66-1 4-1.59s2.61-1.15 3.89-1.79l1.55 3.16c-1.33.67-2.7 1.24-4 1.87s-2.76 1.1-4.14 1.66z"/><path d="m122 169.06c1.24-.5 2.5-1 3.73-1.49s2.46-1.08 3.65-1.68l1.62 3.11c-1.25.63-2.54 1.17-3.81 1.76s-2.6 1-3.9 1.56z"/><path d="m138.35 164.94-1.87-3c-.78.53-1.61 1-2.43 1.45s-1.62 1-2.47 1.38l1.65 3.11c.89-.43 1.72-1 2.58-1.44s1.72-.94 2.54-1.5z"/><path d="m108.18 184.32a92.57 92.57 0 0 0 15.21-3.7l1.12 3.34a96.09 96.09 0 0 1 -15.8 3.85z"/><path d="m120.83 185.1-4.15-14.28c.52-.15 1-.29 1.56-.45l1.54-.52 4.74 14.1-1.83.62c-.62.19-1.25.35-1.86.53z"/><path d="m108.71 187.8-1.12-7.36 3.5-.62 1.41 7.31z"/><path d="m112.75 179.49-1.56-7.28 3.16-.73 1.86 7.2z"/><path d="m107.24 178.12 4.21-.75 4.17-.96.88 3.41-4.34 1.01-4.39.78z"/><path d="m106.47 173.09 3.96-.7 3.92-.91.88 3.41-4.09.95-4.14.73z"/><path d="m123.27 172.37-1.22-3.3c-.88.33-1.79.61-2.68.92l-1.34.45-1.36.38 1 3.38 1.42-.4 1.4-.47c.92-.33 1.86-.62 2.78-.96z"/><path d="m89.81 185.24a94.92 94.92 0 0 0 15.63-.57l.42 3.5a98.43 98.43 0 0 1 -16.23.59z"/><path d="m102.03 188.55-1.19-14.83 1.62-.12 1.62-.21 1.78 14.77-1.91.24z"/><path d="m89.64 188.75.37-7.42 3.55.09-.08 7.43z"/><path d="m95.25 181.42-.07-7.44 3.25-.08.37 7.43z"/><path d="m90.12 178.98 4.28.11 4.29-.11.17 3.52-4.46.11-4.45-.11z"/><path d="m90.38 173.9 4.02.1 4.03-.1.18 3.52-4.21.1-4.2-.1z"/><path d="m107 176.57-.53-3.48c-1.88.21-3.74.53-5.63.63l.28 3.51c1.98-.1 3.88-.43 5.88-.66z"/><path d="m71.62 182.47a92.83 92.83 0 0 0 15.44 2.53l-.28 3.51a96.35 96.35 0 0 1 -16-2.66z"/><path d="m82.94 188.16 1.79-14.77 1.61.2 1.63.13-1.19 14.82-1.92-.14z"/><path d="m70.74 185.88 1.86-7.2 3.46.8-1.56 7.27z"/><path d="m77.72 179.82 1.42-7.3 3.2.57-1.12 7.35z"/><path d="m73.19 176.41 4.17.96 4.21.75-.53 3.48-4.39-.78-4.34-1z"/><path d="m74.46 171.48 3.92.9 3.96.71-.53 3.48-4.14-.73-4.09-.95z"/><path d="m90.2 177.42.18-3.52c-1.88-.17-3.78-.22-5.64-.51l-.42 3.5c1.94.3 3.92.35 5.88.53z"/><path d="m54.37 176.07a91.81 91.81 0 0 0 14.63 5.65l-1 3.38a95.33 95.33 0 0 1 -15.16-5.87z"/><path d="m64.3 183.94 4.7-14.1c1 .36 2 .7 3.09 1l-4.09 14.26c-1.26-.33-2.48-.73-3.7-1.16z"/><path d="m52.82 179.23 3.28-6.68c1.05.55 2.15 1 3.22 1.49l-3 6.8c-1.17-.53-2.32-1.02-3.5-1.61z"/><path d="m60.87 174.73 2.87-6.86 3.02 1.19-2.59 6.97z"/><path d="m57.13 170.45c1.27.65 2.59 1.19 3.89 1.79s2.65 1.06 4 1.59l-1.22 3.3c-1.38-.55-2.78-1.07-4.14-1.66s-2.72-1.19-4-1.87z"/><path d="m59.38 165.88c1.19.61 2.44 1.12 3.65 1.68s2.49 1 3.73 1.5l-1.22 3.3c-1.3-.52-2.61-1-3.9-1.56s-2.57-1.12-3.81-1.76z"/><path d="m73.58 174.89.88-3.41c-1.81-.53-3.64-1-5.42-1.63l-1.12 3.34c1.85.67 3.77 1.14 5.66 1.7z"/><path d="m38.77 166.32a92.25 92.25 0 0 0 13.14 8.49l-1.65 3.11a95.77 95.77 0 0 1 -13.65-8.82z"/><path d="m46.9 176 7.5-12.85c.95.52 1.86 1.12 2.83 1.58l-7 13.15c-1.12-.52-2.23-1.21-3.33-1.88z"/><path d="m36.62 169.1 4.56-5.88c.92.75 1.88 1.44 2.85 2.12l-4.31 6.06c-1.06-.74-2.11-1.49-3.1-2.3z"/><path d="m45.41 166.32 4.2-6.14c.89.62 1.82 1.18 2.72 1.77l-3.94 6.31c-1-.65-2.01-1.26-2.98-1.94z"/><path d="m42.61 161.37a82 82 0 0 0 7 4.9l-1.87 3a85.56 85.56 0 0 1 -7.31-5.1z"/><path d="m45.73 157.34a77 77 0 0 0 6.6 4.6l-1.87 3a80.48 80.48 0 0 1 -6.89-4.81z"/><path d="m57.82 169 1.55-3.16-2.52-1.29c-.84-.43-1.64-.93-2.46-1.39l-1.78 3c.86.48 1.7 1 2.57 1.46z"/><path d="m25.45 153.64a92.58 92.58 0 0 0 11.16 11l-2.24 2.72a96.11 96.11 0 0 1 -11.59-11.39z"/><path d="m31.45 164.81 9.92-11.09 2.46 2.13-9.47 11.48z"/><path d="m22.78 155.94 5.64-4.85c.78.89 1.53 1.81 2.36 2.65l-5.44 5.07c-.9-.91-1.72-1.91-2.56-2.87z"/><path d="m32 155 5.34-5.18c.73.8 1.52 1.54 2.31 2.28l-5.13 5.39c-.9-.84-1.77-1.65-2.52-2.49z"/><path d="m30.2 149.56 1.4 1.62c.48.53 1 1 1.47 1.56l1.48 1.55 1.55 1.48-2.43 2.55-1.61-1.54-1.54-1.61c-.51-.54-1-1.07-1.53-1.62l-1.46-1.68z"/><path d="m34.06 146.24 1.32 1.52c.45.5.92 1 1.38 1.46l1.39 1.46 1.46 1.39-2.43 2.55-1.52-1.45-1.45-1.52c-.48-.51-1-1-1.44-1.53l-1.38-1.59z"/><path d="m43.57 160.13 2.16-2.78c-.74-.59-1.5-1.15-2.22-1.76l-2.14-1.86-2.37 2.62 2.24 1.94c.76.63 1.56 1.22 2.33 1.84z"/><path d="m14.92 138.56a87.72 87.72 0 0 0 8.75 13l-2.74 2.21a91.24 91.24 0 0 1 -9.09-13.47z"/><path d="m18.57 150.7 11.94-8.87c.65.87 1.33 1.71 2 2.56l-11.57 9.35c-.79-1.01-1.6-2.01-2.37-3.04z"/><path d="m11.84 140.27 6.5-3.62 1.78 3.07-6.35 3.88c-.65-1.09-1.28-2.22-1.93-3.33z"/><path d="m21 141.16 6.27-4c.59.91 1.15 1.83 1.8 2.7l-6.07 4.25c-.7-.95-1.32-1.96-2-2.95z"/><path d="m20.4 135.52a84.67 84.67 0 0 0 4.54 7.26l-2.89 2a88.19 88.19 0 0 1 -4.72-7.56z"/><path d="m24.84 133a79.57 79.57 0 0 0 4.26 6.82l-2.89 2a83.1 83.1 0 0 1 -4.45-7.12z"/><path d="m31.39 148.54 2.67-2.3c-1.27-1.4-2.38-2.93-3.55-4.41l-2.83 2.1c1.22 1.55 2.38 3.15 3.71 4.61z"/><path d="m7.65 121.66a90.6 90.6 0 0 0 6 14.46l-3.13 1.62a94.12 94.12 0 0 1 -6.21-15z"/><path d="m8.79 134.28 13.49-6.28c.42 1 1 1.94 1.44 2.91l-13.22 6.83c-.58-1.15-1.2-2.27-1.71-3.46z"/><path d="m4.29 122.71 7.09-2.22 1.14 3.36-7 2.52z"/><path d="m13.12 125.44 6.95-2.65c.41 1 .77 2 1.21 3l-6.83 2.93c-.45-1.07-.89-2.18-1.33-3.28z"/><path d="m13.63 119.79c.46 1.35.9 2.71 1.39 4s1 2.66 1.59 4l-3.24 1.39c-.59-1.36-1.1-2.76-1.66-4.14s-1-2.81-1.44-4.22z"/><path d="m18.48 118.26c.44 1.27.85 2.54 1.3 3.8s1 2.5 1.49 3.73l-3.27 1.4c-.55-1.29-1-2.6-1.56-3.9s-.9-2.65-1.36-4z"/><path d="m21.77 134.75 3.07-1.75c-.49-.81-.88-1.67-1.32-2.5s-.88-1.67-1.25-2.54l-3.19 1.49c.39.91.85 1.78 1.3 2.65s.87 1.81 1.39 2.65z"/><path d="m4 103.63a93 93 0 0 0 2.88 15.37l-3.39 1a96.56 96.56 0 0 1 -3-16z"/><path d="m2.53 116.22 14.48-3.42.36 1.58.45 1.56-14.33 4.02-.52-1.86z"/><path d="m.45 103.98 7.41-.74.44 3.52-7.37 1.05z"/><path d="m8.55 108.44 7.34-1.19.57 3.2-7.29 1.49z"/><path d="m10.19 103.01.54 4.24.74 4.22-3.45.7-.78-4.39-.55-4.42z"/><path d="m15.26 102.5.5 3.99.7 3.96-3.45.7-.73-4.13-.53-4.17z"/><path d="m15.12 119.32 3.36-1.05-.78-2.72c-.28-.9-.5-1.82-.7-2.74l-3.43.81c.21 1 .44 1.92.73 2.86z"/><path d="m4 85.24a94.7 94.7 0 0 0 -.21 15.64l-3.51.25a98.21 98.21 0 0 1 .17-16.24z"/><path d="m.04 97.28 14.87-.44.04 1.63.12 1.62-14.84 1.04-.13-1.92z"/><path d="m.45 84.89 7.41.75-.27 3.53-7.43-.44z"/><path d="m7.5 90.87 7.44.3-.09 3.25h-7.44z"/><path d="m10.19 85.87-.32 4.27-.11 4.28h-3.52l.11-4.46.34-4.44z"/><path d="m15.26 86.38-.31 4.01-.1 4.03h-3.52l.1-4.2.32-4.19z"/><path d="m11.75 102.85 3.51-.35c-.12-1.89-.34-3.76-.34-5.66l-3.52.1c-.01 1.98.22 3.94.35 5.91z"/><path d="m7.65 67.22a92.32 92.32 0 0 0 -3.35 15.28l-3.49-.5a95.84 95.84 0 0 1 3.48-15.84z"/><path d="m1.39 78.23 14.66 2.54-.29 1.6-.2 1.61-14.75-1.93.24-1.92z"/><path d="m4.29 66.16 7.09 2.23-.97 3.41-7.19-1.93z"/><path d="m9.98 73.44 7.22 1.79-.73 3.16-7.29-1.49z"/><path d="m13.63 69.09-1.18 4.11-.97 4.17-3.45-.7 1.01-4.35 1.22-4.28z"/><path d="m18.48 70.61-1.1 3.87-.91 3.91-3.45-.7.94-4.09 1.16-4.04z"/><path d="m11.75 86 3.51.35c.26-1.87.41-3.76.79-5.61l-3.47-.6c-.4 1.96-.58 3.93-.83 5.86z"/><path d="m14.92 50.32a91.85 91.85 0 0 0 -6.39 14.28l-3.32-1.16a95.37 95.37 0 0 1 6.63-14.84z"/><path d="m6.55 59.83 13.84 5.46c-.4 1-.81 2-1.13 3l-14.05-4.85c.39-1.22.86-2.44 1.34-3.61z"/><path d="m11.84 48.6 6.5 3.62c-.61 1-1.1 2.1-1.66 3.14l-6.68-3.36c.65-1.12 1.18-2.3 1.84-3.4z"/><path d="m15.92 56.87 6.71 3.22-1.34 2.96-6.83-2.94z"/><path d="m20.4 53.36c-.72 1.23-1.32 2.53-2 3.79s-1.18 2.59-1.78 3.85l-3.24-1.39c.63-1.35 1.19-2.72 1.87-4s1.32-2.67 2.07-3.95z"/><path d="m24.84 55.83c-.68 1.17-1.23 2.38-1.84 3.57s-1.14 2.43-1.71 3.6l-3.24-1.39c.59-1.27 1.12-2.57 1.76-3.81s1.24-2.51 2-3.72z"/><path d="m15.12 69.56 3.36 1.05c.62-1.78 1.17-3.59 1.91-5.33l-3.28-1.28c-.77 1.81-1.35 3.7-1.99 5.56z"/><path d="m25.45 35.23a92.39 92.39 0 0 0 -9.15 12.69l-3-1.81a95.91 95.91 0 0 1 9.5-13.18z"/><path d="m15.32 42.85 12.46 8.15c-.57.92-1.2 1.81-1.73 2.75l-12.78-7.63c.64-1.12 1.37-2.18 2.05-3.27z"/><path d="m22.78 32.94 5.64 4.84-1.16 1.35-1.1 1.39-5.83-4.61 1.19-1.51z"/><path d="m25.11 41.86 5.89 4.5c-.68.85-1.27 1.76-1.91 2.63l-6.09-4.26c.72-.95 1.37-1.95 2.11-2.87z"/><path d="m30.2 39.31c-1 1.06-1.83 2.19-2.71 3.31s-1.71 2.3-2.49 3.46l-2.89-2c.87-1.21 1.7-2.44 2.64-3.59s1.82-2.35 2.82-3.45z"/><path d="m34.06 42.63c-.9 1-1.72 2.06-2.55 3.12s-1.6 2.15-2.38 3.25l-2.89-2c.82-1.14 1.6-2.3 2.49-3.38s1.72-2.21 2.66-3.25z"/><path d="m21.77 54.12 3.08 1.71 1.41-2.46c.49-.81 1-1.59 1.52-2.39l-2.95-1.93c-.53.83-1.07 1.65-1.59 2.49z"/><path d="m38.77 22.56a91 91 0 0 0 -11.51 10.59l-2.6-2.38a94.52 94.52 0 0 1 12-11z"/><path d="m27.32 27.99 10.57 10.47-2.24 2.35-10.99-10.03z"/><path d="m36.62 19.78 4.56 5.88c-.92.75-1.89 1.43-2.77 2.23l-4.79-5.69c.95-.87 2-1.62 3-2.42z"/><path d="m37.12 29 4.88 5.59c-.83.69-1.62 1.43-2.4 2.19l-5.1-5.39c.85-.83 1.72-1.64 2.62-2.39z"/><path d="m42.61 27.51c-1.12.88-2.25 1.75-3.31 2.71l-1.62 1.4c-.53.48-1 1-1.56 1.47l-2.43-2.55c.54-.51 1.07-1 1.62-1.53l1.69-1.46c1.11-1 2.28-1.9 3.45-2.82z"/><path d="m45.73 31.53c-1.06.83-2.12 1.64-3.12 2.55l-1.52 1.32c-.5.45-1 .92-1.46 1.38l-2.43-2.56c.51-.48 1-1 1.53-1.44l1.59-1.38c1-.94 2.15-1.79 3.25-2.66z"/><path d="m31.39 40.34 2.67 2.3c1.21-1.45 2.53-2.81 3.83-4.17l-2.5-2.47c-1.39 1.4-2.74 2.82-4 4.34z"/><path d="m54.37 12.81a88.15 88.15 0 0 0 -13.37 8.09l-2.07-2.85a91.67 91.67 0 0 1 13.91-8.4z"/><path d="m42.06 15.84 8.26 12.37c-.91.59-1.77 1.25-2.66 1.86l-8.75-12c1.09-.76 2.09-1.53 3.15-2.23z"/><path d="m52.82 9.65 3.28 6.67-3.16 1.62-3.55-6.53z"/><path d="m51.47 18.79 3.68 6.47c-.93.55-1.89 1-2.79 1.66l-3.95-6.32c.99-.66 2.04-1.21 3.06-1.81z"/><path d="m57.13 18.43c-2.55 1.27-5.06 2.65-7.48 4.16l-1.87-3c2.52-1.58 5.13-3 7.79-4.34z"/><path d="m59.38 23c-2.4 1.2-4.75 2.49-7 3.91l-1.87-3c2.37-1.49 4.83-2.84 7.34-4.09z"/><path d="m43.57 28.75 2.16 2.78 1.11-.88 1.16-.81c.78-.54 1.53-1.11 2.32-1.62l-2-2.93c-.83.53-1.61 1.13-2.42 1.7l-1.21.86z"/><path d="m71.62 6.41a91.54 91.54 0 0 0 -14.75 5.23l-1.45-3.21a95.07 95.07 0 0 1 15.32-5.43z"/><path d="m59 6.91 5.59 13.79c-1 .37-2 .84-3 1.28l-6.17-13.55c1.17-.53 2.33-1.07 3.58-1.52z"/><path d="m70.74 3 1.86 7.2-3.41.97-2.16-7.12z"/><path d="m67.57 11.68 2.29 7.08c-1 .35-2.05.68-3.07 1.05l-2.58-7c1.11-.39 2.24-.75 3.36-1.13z"/><path d="m73.19 12.47-4.11 1.18c-1.35.46-2.71.9-4 1.39l-1.22-3.3c1.4-.51 2.81-1 4.22-1.44l4.29-1.23z"/><path d="m74.46 17.4-3.86 1.1c-1.27.44-2.54.85-3.8 1.3l-1.22-3.3c1.32-.48 2.65-.9 4-1.36l4-1.16z"/><path d="m57.82 19.84 1.56 3.16c.83-.45 1.71-.79 2.57-1.19s1.72-.79 2.6-1.11l-1.32-3.27c-.92.34-1.82.75-2.72 1.16s-1.82.78-2.69 1.25z"/><path d="m89.81 3.64a93.73 93.73 0 0 0 -15.5 2.14l-.78-3.44a97.25 97.25 0 0 1 16.1-2.22z"/><path d="m77.31 1.57 2.68 14.63-1.6.29-1.58.36-3.27-14.51 1.88-.43z"/><path d="m89.64.12.37 7.43-3.54.27-.68-7.41z"/><path d="m84.78 7.98.81 7.4-3.22.4-1.12-7.35z"/><path d="m90.12 9.89-4.27.33-4.24.53-.53-3.48 4.42-.56 4.45-.33z"/><path d="m90.38 14.98-4.02.3-3.99.5-.53-3.48 4.17-.52 4.19-.32z"/><path d="m73.58 14 .88 3.41c1.84-.4 3.66-.91 5.53-1.19l-.63-3.47c-1.95.25-3.86.81-5.78 1.25z"/><path d="m108.18 4.56a94 94 0 0 0 -15.61-1l-.07-3.56a97.49 97.49 0 0 1 16.21 1z"/><path d="m96.35.05-.3 14.87-1.63-.04-1.62.04-.3-14.87 1.92-.05z"/><path d="m108.71 1.08-1.12 7.35-3.52-.45.81-7.39z"/><path d="m102.38 7.82-.67 7.4-3.24-.24.37-7.43z"/><path d="m107.24 10.75-4.25-.53-4.27-.33.18-3.51 4.44.33 4.43.56z"/><path d="m106.47 15.79-3.99-.51-4.01-.3.17-3.52 4.19.32 4.17.52z"/><path d="m90.2 11.46.18 3.54c1.89 0 3.78-.16 5.67-.06l.07-3.52c-1.97-.12-3.95.02-5.92.04z"/><path d="m126 9.17a92 92 0 0 0 -15.1-4.17l.64-3.47a95.53 95.53 0 0 1 15.69 4.29z"/><path d="m115.31 2.35-3.28 14.51-1.58-.37-1.6-.28 2.68-14.63 1.9.34z"/><path d="m127.22 5.86-2.58 7c-1.11-.41-2.24-.77-3.36-1.15l2.3-7.08c1.21.37 2.42.79 3.64 1.23z"/><path d="m119.66 11.17-2.16 7.12-3.12-.89 1.86-7.2z"/><path d="m123.82 15c-1.34-.49-2.7-.92-4-1.39l-4.11-1.18.88-3.41 4.29 1.23c1.41.48 2.82.94 4.22 1.44z"/><path d="m122 19.81c-1.26-.46-2.54-.86-3.8-1.3l-3.86-1.11.88-3.41 4 1.16c1.32.46 2.66.88 4 1.36z"/><path d="m107 12.3-.53 3.48c1.85.35 3.73.6 5.56 1.07l.78-3.44c-1.91-.48-3.87-.74-5.81-1.11z"/><path d="m142.5 17.29a92 92 0 0 0 -13.94-7.11l1.32-3.26a95.48 95.48 0 0 1 14.48 7.39z"/><path d="m133.43 8.44-6.16 13.56c-1-.44-2-.91-3-1.28l5.59-13.79c1.23.43 2.4.98 3.57 1.51z"/><path d="m144.37 14.3-3.94 6.31c-1-.66-2-1.21-3.05-1.81l3.68-6.46c1.1.66 2.24 1.25 3.31 1.96z"/><path d="m135.9 17.95-3.55 6.54-2.89-1.48 3.29-6.68z"/><path d="m139.18 22.6c-2.42-1.52-4.92-2.89-7.47-4.16l1.55-3.16c2.66 1.32 5.27 2.76 7.79 4.34z"/><path d="m136.49 26.92c-2.27-1.43-4.62-2.72-7-3.91l1.51-3.17c2.51 1.25 5 2.6 7.34 4.09z"/><path d="m123.27 16.51-1.27 3.3c1.75.7 3.52 1.36 5.23 2.17l1.46-3.21c-1.69-.84-3.58-1.53-5.42-2.26z"/><path d="m157 28.56a92.49 92.49 0 0 0 -12.21-9.78l2-2.93a96 96 0 0 1 12.67 10.15z"/><path d="m149.94 18.06-8.76 12c-.89-.62-1.75-1.27-2.66-1.87l8.26-12.37c1.08.73 2.1 1.51 3.16 2.24z"/><path d="m159.46 26-5.13 5.39c-.85-.82-1.71-1.63-2.62-2.39l4.9-5.59c.99.83 1.93 1.7 2.85 2.59z"/><path d="m150.43 27.89-4.79 5.69c-.8-.73-1.69-1.35-2.53-2l4.56-5.88c.92.71 1.89 1.4 2.76 2.19z"/><path d="m152.72 33.1c-.52-.49-1-1-1.56-1.47l-1.62-1.4c-1.06-1-2.19-1.83-3.31-2.71l2.16-2.78c1.17.91 2.35 1.83 3.45 2.82l1.68 1.44c.55.5 1.08 1 1.62 1.53z"/><path d="m149.21 36.79c-.49-.46-1-.93-1.46-1.38l-1.52-1.32c-1-.9-2.06-1.72-3.12-2.55l2.16-2.78c1.1.86 2.21 1.72 3.25 2.66l1.59 1.38c.52.47 1 1 1.53 1.44z"/><path d="m138.35 23.93-1.86 2.99 2.38 1.53 2.31 1.64 2.07-2.85-2.41-1.71z"/><path d="m169 42.51a89.25 89.25 0 0 0 -10-12l2.5-2.48a92.77 92.77 0 0 1 10.39 12.49z"/><path d="m164.18 30.79-10.99 10.03-2.24-2.35 10.57-10.47z"/><path d="m171.91 40.49-6.1 4.25c-.7-1-1.35-1.95-2.08-2.87l5.92-4.5c.8 1.01 1.51 2.08 2.26 3.12z"/><path d="m162.68 40.54-5.84 4.61-1-1.28-1.06-1.23 5.64-4.84 1.16 1.34z"/><path d="m163.88 46.09c-.83-1.16-1.63-2.34-2.54-3.45s-1.75-2.25-2.71-3.32l2.67-2.3c1 1.11 1.9 2.28 2.82 3.45s1.78 2.38 2.64 3.59z"/><path d="m159.71 49c-.78-1.09-1.53-2.2-2.38-3.24s-1.64-2.12-2.54-3.12l2.67-2.3c.94 1 1.79 2.15 2.66 3.25s1.67 2.25 2.49 3.38z"/><path d="m151.64 34.24-2.43 2.55c1.4 1.27 2.67 2.67 4 4l2.6-2.38c-1.38-1.41-2.71-2.84-4.17-4.17z"/><path d="m178 58.58a88.53 88.53 0 0 0 -7.41-13.78l2.95-1.93a92.05 92.05 0 0 1 7.69 14.32z"/><path d="m175.56 46.13-12.78 7.62c-.53-.95-1.16-1.83-1.73-2.75l12.46-8.13c.68 1.13 1.42 2.13 2.05 3.26z"/><path d="m181.21 57.19-6.84 2.94-1.46-3.24 6.71-3.21z"/><path d="m172.14 55.38-6.64 3.35c-.51-1-.95-1.95-1.51-2.87l6.5-3.61c.61 1 1.1 2.08 1.65 3.13z"/><path d="m172.22 61.05c-.6-1.29-1.15-2.61-1.79-3.89s-1.26-2.56-2-3.79l3.08-1.71c.75 1.28 1.38 2.63 2.07 3.95s1.24 2.7 1.87 4z"/><path d="m167.54 63.06c-.57-1.21-1.08-2.46-1.68-3.65s-1.19-2.41-1.86-3.56l3.08-1.71c.71 1.21 1.29 2.48 1.95 3.72s1.17 2.54 1.76 3.81z"/><path d="m162.6 47-2.89 2c.56.76 1.07 1.55 1.58 2.35s1 1.57 1.5 2.4l3-1.8c-.47-.86-1-1.67-1.57-2.51s-1.03-1.66-1.62-2.44z"/><path d="m183.48 76.14a92.27 92.27 0 0 0 -4.48-15l3.28-1.29a95.79 95.79 0 0 1 4.65 15.58z"/><path d="m183.63 63.46-14.05 4.88c-.32-1-.73-2-1.13-3l13.84-5.45c.47 1.11.95 2.35 1.34 3.57z"/><path d="m186.94 75.43-7.29 1.49-.8-3.46 7.22-1.79z"/><path d="m178.43 71.82-7.19 1.93-.89-3.12 7.1-2.22z"/><path d="m177.35 77.39-.97-4.17-1.17-4.11 3.36-1.06 1.22 4.29 1.01 4.35z"/><path d="m172.36 78.41-.91-3.92-1.1-3.86 3.36-1.05 1.16 4.03.94 4.09z"/><path d="m170.78 61.67-3.24 1.39c.39.86.7 1.75 1.06 2.62l.52 1.32.46 1.34 3.33-1.16-.48-1.4-.54-1.37c-.38-.91-.71-1.84-1.11-2.74z"/><path d="m185.33 94.44a94.68 94.68 0 0 0 -1.33-15.58l3.47-.6a98.2 98.2 0 0 1 1.41 16.18z"/><path d="m188.02 82.06-14.75 1.94-.2-1.61-.29-1.6 14.66-2.54.34 1.9z"/><path d="m188.85 94.44h-7.44l-.09-3.55 7.43-.3z"/><path d="m181.24 89.19-7.42.45-.25-3.25 7.4-.74z"/><path d="m179.06 94.44-.1-4.28-.32-4.27 3.5-.35.33 4.44.12 4.46z"/><path d="m173.97 94.44-.1-4.03-.3-4.02 3.51-.35.31 4.19.11 4.21z"/><path d="m175.81 77.7-3.45.71c.31 1.86.72 3.71.91 5.59l3.49-.46c-.2-1.96-.62-3.89-.95-5.84z"/></g><circle cx="94.41" cy="94.44" fill="#fff" r="74.47"/><path d="m133.04 55.1-19.07 53.51-59.4-21.45-2.21 2.87 63.28 22.97 20.27-57.29z" fill="url(#a)"/><path d="m86.59 45.26-30.96 39.98 56.85 20.56 18.21-51.27z" fill="url(#b)"/><path d="m85.48 42.8-34.07 43.48 62.56 22.35 20.03-55.74z" fill="none" stroke="#0073b0" stroke-miterlimit="3" stroke-width="1.42"/><path d="m93.46 79.7a2 2 0 0 1 .42-1.08 23.25 23.25 0 0 1 -4.31.72 14.21 14.21 0 0 1 -3.93-.21 7.93 7.93 0 0 1 -3.23-1.39 3.21 3.21 0 0 1 -1.41-2.48 4.38 4.38 0 0 1 1.21-3 13.65 13.65 0 0 1 4.91-3.37 22.71 22.71 0 0 1 6.8-1.89 18.67 18.67 0 0 1 5.88.12 8.35 8.35 0 0 1 3.15 1.28 3.75 3.75 0 0 1 1.58 2.24l2.2-1.65 3.87.81-9.7 7.2q-2 1.51-2.2 1.69a.49.49 0 0 0 0 .66 1.4 1.4 0 0 0 .88.46 11.92 11.92 0 0 0 3.62-.09 20.67 20.67 0 0 0 6-1.7 11.86 11.86 0 0 0 4.19-3 4.69 4.69 0 0 0 1.23-4.02q-.42-2.09-3.23-3.88a21.8 21.8 0 0 0 -7.25-2.71 36.51 36.51 0 0 0 -10.34-.65 29.06 29.06 0 0 0 -9.6 2.33 18 18 0 0 0 -6.63 4.66q-2.42 2.87-1.86 5.43t4.09 4.46a32.9 32.9 0 0 0 8.84 3 41 41 0 0 0 10.36.96 28.94 28.94 0 0 0 7.86-1.32l3.92.82a25.78 25.78 0 0 1 -5.89 1.71 41.74 41.74 0 0 1 -8.08.68 48.68 48.68 0 0 1 -9.54-1.12 43.24 43.24 0 0 1 -8.27-2.52 14.82 14.82 0 0 1 -5.23-3.45 5.88 5.88 0 0 1 -1.71-4 8.24 8.24 0 0 1 2.2-5.16 20.45 20.45 0 0 1 6.74-5 34.16 34.16 0 0 1 11.56-3.24 42.35 42.35 0 0 1 13.2.77 26.05 26.05 0 0 1 8.64 3.2q3.27 2.08 3.76 5a5.93 5.93 0 0 1 -1.61 4.85q-2.86 3.4-9.5 5.11a23.27 23.27 0 0 1 -10.62.57 7.34 7.34 0 0 1 -2.21-.75 1.37 1.37 0 0 1 -.77-1zm-7.33-6.48q-1.36 1.62-.71 2.81a3.4 3.4 0 0 0 2.46 1.57 10.8 10.8 0 0 0 2.87.14 17.3 17.3 0 0 0 3.54-.63 15.54 15.54 0 0 0 3.71-1.56 11.43 11.43 0 0 0 2.82-2.22q1.33-1.62.62-2.82a4 4 0 0 0 -2.8-1.63 10.14 10.14 0 0 0 -2.92-.16 15 15 0 0 0 -3.4.74 16.33 16.33 0 0 0 -3.57 1.68 10.9 10.9 0 0 0 -2.62 2.09z" fill="url(#c)"/><path d="m93.46 79.7a2 2 0 0 1 .42-1.08 23.25 23.25 0 0 1 -4.31.72 14.21 14.21 0 0 1 -3.93-.21 7.93 7.93 0 0 1 -3.23-1.39 3.21 3.21 0 0 1 -1.41-2.48 4.38 4.38 0 0 1 1.21-3 13.65 13.65 0 0 1 4.91-3.37 22.71 22.71 0 0 1 6.8-1.89 18.67 18.67 0 0 1 5.88.12 8.35 8.35 0 0 1 3.15 1.28 3.75 3.75 0 0 1 1.58 2.24l2.2-1.65 3.87.81-9.7 7.2q-2 1.51-2.2 1.69a.49.49 0 0 0 0 .66 1.4 1.4 0 0 0 .88.46 11.92 11.92 0 0 0 3.62-.09 20.67 20.67 0 0 0 6-1.7 11.86 11.86 0 0 0 4.19-3 4.69 4.69 0 0 0 1.23-4.02q-.42-2.09-3.23-3.88a21.8 21.8 0 0 0 -7.25-2.71 36.51 36.51 0 0 0 -10.34-.65 29.06 29.06 0 0 0 -9.6 2.33 18 18 0 0 0 -6.63 4.66q-2.42 2.87-1.86 5.43t4.09 4.46a32.9 32.9 0 0 0 8.84 3 41 41 0 0 0 10.36.96 28.94 28.94 0 0 0 7.86-1.32l3.92.82a25.78 25.78 0 0 1 -5.89 1.71 41.74 41.74 0 0 1 -8.08.68 48.68 48.68 0 0 1 -9.54-1.12 43.24 43.24 0 0 1 -8.27-2.52 14.82 14.82 0 0 1 -5.23-3.45 5.88 5.88 0 0 1 -1.71-4 8.24 8.24 0 0 1 2.2-5.16 20.45 20.45 0 0 1 6.74-5 34.16 34.16 0 0 1 11.56-3.24 42.35 42.35 0 0 1 13.2.77 26.05 26.05 0 0 1 8.64 3.2q3.27 2.08 3.76 5a5.93 5.93 0 0 1 -1.61 4.85q-2.86 3.4-9.5 5.11a23.27 23.27 0 0 1 -10.62.57 7.34 7.34 0 0 1 -2.21-.75 1.37 1.37 0 0 1 -.77-1zm-7.33-6.48q-1.36 1.62-.71 2.81a3.4 3.4 0 0 0 2.46 1.57 10.8 10.8 0 0 0 2.87.14 17.3 17.3 0 0 0 3.54-.63 15.54 15.54 0 0 0 3.71-1.56 11.43 11.43 0 0 0 2.82-2.22q1.33-1.62.62-2.82a4 4 0 0 0 -2.8-1.63 10.14 10.14 0 0 0 -2.92-.16 15 15 0 0 0 -3.4.74 16.33 16.33 0 0 0 -3.57 1.68 10.9 10.9 0 0 0 -2.62 2.09z" fill="#1b65a9"/><path d="m58.39 137.34v-5.87h-1.72v-1.2h4.61v1.2h-1.72v5.87z" fill="#1e65a9"/><path d="m62 137.34v-7.07h1.17v2.73h2.33v-2.78h1.17v7.07h-1.17v-3.09h-2.29v3.09z" fill="#1e65a9"/><path d="m73.1 137.34h-1.27l-.51-1.6h-2.32l-.48 1.6h-1.23l2.25-7.07h1.25zm-2.1-2.8-.8-2.62-.78 2.62z" fill="#1e65a9"/><path d="m73.69 137.34v-7.07h1.17v7.07z" fill="#1e65a9"/><path d="m79 137.34-1.39-7.07h1.2l.87 4.86 1.05-4.86h1.39l1 4.94.89-4.94h1.18l-1.39 7.07h-1.18l-1.16-5.34-1.14 5.29z" fill="#1e65a9"/><path d="m85.87 137.34v-7.07h4.3v1.2h-3.17v1.53h2.91v1.19h-2.91v1.92h3.24v1.2z" fill="#1e65a9"/><path d="m91.26 130.27h2.32a3.59 3.59 0 0 1 1.34.17 1.48 1.48 0 0 1 .65.61 2 2 0 0 1 0 1.91 1.49 1.49 0 0 1 -.59.61 1.57 1.57 0 0 1 .81.63 1.92 1.92 0 0 1 .29 1.08 2.23 2.23 0 0 1 -.37 1.31 1.52 1.52 0 0 1 -.88.66 9 9 0 0 1 -1.63.09h-2zm1.17 1.18v1.63h.77a8.5 8.5 0 0 0 .86 0 .73.73 0 0 0 .47-.25.85.85 0 0 0 .17-.55.86.86 0 0 0 -.14-.51.57.57 0 0 0 -.33-.24 7.1 7.1 0 0 0 -1.12 0zm0 2.81v1.88h1.08a3.4 3.4 0 0 0 .92-.07.68.68 0 0 0 .34-.29 1.18 1.18 0 0 0 0-1.12.75.75 0 0 0 -.39-.31 3.73 3.73 0 0 0 -1-.08z" fill="#1e65a9"/><path d="m97.09 137.34v-7.07h1.75l1.05 4.83 1-4.83h1.76v7.07h-1.09v-5.57l-1.16 5.57h-1.07l-1.15-5.57v5.57z" fill="#1e65a9"/><path d="m109.08 137.34h-1.27l-.51-1.6h-2.3l-.48 1.6h-1.24l2.25-7.07h1.25zm-2.15-2.8-.8-2.62-.79 2.62z" fill="#1e65a9"/><path d="m111.77 137.46q-2.13 0-2.37-2.42l1.14-.14q.19 1.35 1.26 1.35a1.19 1.19 0 0 0 .83-.28.89.89 0 0 0 .3-.69.75.75 0 0 0 -.11-.41.78.78 0 0 0 -.32-.28 8.92 8.92 0 0 0 -1-.36 3.55 3.55 0 0 1 -1.09-.49 1.86 1.86 0 0 1 -.55-.7 2.13 2.13 0 0 1 -.2-.93 2.06 2.06 0 0 1 .26-1 1.72 1.72 0 0 1 .73-.7 2.5 2.5 0 0 1 1.14-.24 2 2 0 0 1 2.21 2.14l-1.17.06a1.27 1.27 0 0 0 -.34-.8 1.07 1.07 0 0 0 -.73-.23 1.19 1.19 0 0 0 -.73.2.6.6 0 0 0 -.26.49.61.61 0 0 0 .23.49 3.33 3.33 0 0 0 1.07.43 4.38 4.38 0 0 1 1.27.54 1.83 1.83 0 0 1 .6.73 2.56 2.56 0 0 1 .21 1.08 2.22 2.22 0 0 1 -.57 1.55 2.27 2.27 0 0 1 -1.77.63z" fill="#1e65a9"/><path d="m116.4 137.34v-5.87h-1.72v-1.2h4.61v1.2h-1.72v5.87z" fill="#1e65a9"/><path d="m120 137.34v-7.07h4.3v1.2h-3.13v1.53h2.91v1.19h-2.91v1.92h3.24v1.2z" fill="#1e65a9"/><path d="m125.45 137.34v-7.07h2.46a3.43 3.43 0 0 1 1.35.19 1.5 1.5 0 0 1 .66.66 2.29 2.29 0 0 1 .26 1.13 2.1 2.1 0 0 1 -.4 1.33 1.76 1.76 0 0 1 -1.13.64 2.93 2.93 0 0 1 .62.59 8.34 8.34 0 0 1 .67 1.15l.7 1.38h-1.41l-.84-1.54a10 10 0 0 0 -.62-1 .91.91 0 0 0 -.35-.29 1.57 1.57 0 0 0 -.59-.08h-.24v3zm1.17-4.08h.87a4.3 4.3 0 0 0 1-.07.64.64 0 0 0 .35-.28 1 1 0 0 0 .13-.56 1 1 0 0 0 -.13-.54.69.69 0 0 0 -.36-.28 4.65 4.65 0 0 0 -.95-.05h-.91z" fill="#1e65a9"/><path d="m56.94 146 2.23-7.07h.83l2.37 7.07h-.88l-.67-2.14h-2.45l-.62 2.14zm1.65-2.9h2l-.6-2q-.28-.9-.41-1.47a10.41 10.41 0 0 1 -.32 1.35z" fill="#1e65a9"/><path d="m64.65 143.66.73-.06a2.12 2.12 0 0 0 .26.91 1.47 1.47 0 0 0 .58.53 1.82 1.82 0 0 0 .85.2 1.55 1.55 0 0 0 1.06-.33 1.11 1.11 0 0 0 .38-.87 1.06 1.06 0 0 0 -.14-.55 1 1 0 0 0 -.41-.38 7.92 7.92 0 0 0 -1.2-.42 4.24 4.24 0 0 1 -1.17-.49 1.7 1.7 0 0 1 -.54-.62 1.85 1.85 0 0 1 -.19-.85 1.88 1.88 0 0 1 .55-1.4 2 2 0 0 1 1.49-.54 2.39 2.39 0 0 1 1.13.26 1.82 1.82 0 0 1 .75.73 2.41 2.41 0 0 1 .29 1.12l-.73.06a1.52 1.52 0 0 0 -.41-1 1.4 1.4 0 0 0 -1-.33 1.49 1.49 0 0 0 -1 .29.94.94 0 0 0 -.34.75.87.87 0 0 0 .25.66 3 3 0 0 0 1.13.48 7.35 7.35 0 0 1 1.2.41 1.93 1.93 0 0 1 .8.71 2 2 0 0 1 .27 1.05 2.19 2.19 0 0 1 -.28 1.1 1.91 1.91 0 0 1 -.77.76 2.48 2.48 0 0 1 -1.18.26 2.29 2.29 0 0 1 -1.71-.65 2.49 2.49 0 0 1 -.65-1.79z" fill="#1e65a9"/><path d="m72 143.66.73-.06a2.12 2.12 0 0 0 .26.91 1.47 1.47 0 0 0 .58.53 1.82 1.82 0 0 0 .85.2 1.55 1.55 0 0 0 1.06-.33 1.11 1.11 0 0 0 .38-.87 1.05 1.05 0 0 0 -.14-.55 1 1 0 0 0 -.41-.38 7.93 7.93 0 0 0 -1.2-.42 4.24 4.24 0 0 1 -1.17-.49 1.69 1.69 0 0 1 -.54-.62 1.85 1.85 0 0 1 -.19-.85 1.88 1.88 0 0 1 .55-1.4 2 2 0 0 1 1.49-.54 2.39 2.39 0 0 1 1.13.26 1.82 1.82 0 0 1 .75.73 2.42 2.42 0 0 1 .29 1.12l-.73.06a1.52 1.52 0 0 0 -.41-1 1.4 1.4 0 0 0 -1-.33 1.49 1.49 0 0 0 -1 .29.94.94 0 0 0 -.34.75.87.87 0 0 0 .25.66 3 3 0 0 0 1.13.48 7.34 7.34 0 0 1 1.2.41 1.93 1.93 0 0 1 .8.71 2 2 0 0 1 .28 1.07 2.19 2.19 0 0 1 -.28 1.1 1.91 1.91 0 0 1 -.77.76 2.48 2.48 0 0 1 -1.18.26 2.29 2.29 0 0 1 -1.71-.65 2.49 2.49 0 0 1 -.66-1.81z" fill="#1e65a9"/><path d="m80.08 145a4.14 4.14 0 0 1 -.71-2.44 4.28 4.28 0 0 1 .79-2.78 2.46 2.46 0 0 1 2-1 2.41 2.41 0 0 1 1.4.43 2.93 2.93 0 0 1 1 1.26 4.8 4.8 0 0 1 .37 2 4.26 4.26 0 0 1 -.73 2.53 2.47 2.47 0 0 1 -4.12 0zm.09-2.43a3.17 3.17 0 0 0 .57 2 1.72 1.72 0 0 0 2.81 0 3.41 3.41 0 0 0 .57-2.14 4.27 4.27 0 0 0 -.29-1.63 2 2 0 0 0 -.68-.88 1.65 1.65 0 0 0 -1-.33 1.73 1.73 0 0 0 -1.42.72 3.63 3.63 0 0 0 -.56 2.22z" fill="#1e65a9"/><path d="m91.94 143.48.77.24a3.26 3.26 0 0 1 -.9 1.77 2.22 2.22 0 0 1 -1.56.58 2.37 2.37 0 0 1 -1.38-.39 2.78 2.78 0 0 1 -.94-1.26 5.27 5.27 0 0 1 -.36-2 4.79 4.79 0 0 1 .36-2 2.79 2.79 0 0 1 1-1.22 2.46 2.46 0 0 1 1.39-.41 2.14 2.14 0 0 1 1.44.52 2.81 2.81 0 0 1 .84 1.53l-.75.22q-.39-1.46-1.55-1.46a1.71 1.71 0 0 0 -1 .3 2 2 0 0 0 -.68.92 4.25 4.25 0 0 0 -.25 1.58 3.77 3.77 0 0 0 .51 2.17 1.59 1.59 0 0 0 1.36.72 1.5 1.5 0 0 0 1.08-.44 2.4 2.4 0 0 0 .62-1.37z" fill="#1e65a9"/><path d="m95.74 146v-7.07h.77v7.07z" fill="#1e65a9"/><path d="m99.15 146 2.23-7.07h.82l2.37 7.07h-.88l-.67-2.14h-2.44l-.58 2.14zm1.65-2.9h2l-.6-2q-.28-.9-.41-1.47a10.39 10.39 0 0 1 -.32 1.35z" fill="#1e65a9"/><path d="m108 146v-6.24h-1.9v-.83h4.6v.83h-1.92v6.24z" fill="#1e65a9"/><path d="m113.55 146v-7.07h.77v7.07z" fill="#1e65a9"/><path d="m118.09 145a4.14 4.14 0 0 1 -.71-2.44 4.27 4.27 0 0 1 .8-2.78 2.46 2.46 0 0 1 2-1 2.41 2.41 0 0 1 1.4.43 2.92 2.92 0 0 1 1 1.26 4.8 4.8 0 0 1 .37 2 4.26 4.26 0 0 1 -.71 2.56 2.47 2.47 0 0 1 -4.12 0zm.09-2.43a3.17 3.17 0 0 0 .57 2 1.72 1.72 0 0 0 2.81 0 3.41 3.41 0 0 0 .57-2.14 4.26 4.26 0 0 0 -.29-1.63 2 2 0 0 0 -.68-.88 1.66 1.66 0 0 0 -1-.33 1.73 1.73 0 0 0 -1.42.72 3.63 3.63 0 0 0 -.56 2.22z" fill="#1e65a9"/><path d="m125.81 146v-7.07h.79l3 5.57v-5.57h.73v7.07h-.78l-3-5.56v5.56z" fill="#1e65a9"/><path d="m61.91 120.93a1.51 1.51 0 0 1 -.44.4 2 2 0 0 1 -.58.2 1.2 1.2 0 0 1 .4.92v3.7h-.68l-1.29-2.75a.67.67 0 0 0 -.25-.26.46.46 0 0 0 -.28-.08h-.11a.51.51 0 0 0 -.48.57v.95h.1.21a.86.86 0 0 1 .61.23.77.77 0 0 1 .25.59.83.83 0 0 1 -.06.32.91.91 0 0 1 -.2.29.81.81 0 0 1 -.63.25.86.86 0 0 1 -.94-.92v-1.74a.83.83 0 0 1 .26-.64 1.06 1.06 0 0 1 .54-.32h.26.21a1.74 1.74 0 0 1 .35 0 1 1 0 0 1 .3.11.8.8 0 0 1 .39.43l.77 1.68v-2.22a.92.92 0 0 0 -.37-.73 1.38 1.38 0 0 0 -.91-.31 1.4 1.4 0 0 0 -1.44.85h-.68a1.76 1.76 0 0 1 .77-1 2.65 2.65 0 0 1 .64-.26 2.85 2.85 0 0 1 .75-.09h.3l.31.06h.18l.21.06h.11a.62.62 0 0 0 .37-.14 1.47 1.47 0 0 0 .41-.51zm-3 4.41a.4.4 0 0 0 -.39-.35.43.43 0 0 0 -.28.11.39.39 0 0 0 -.1.25.42.42 0 0 0 0 .15.31.31 0 0 0 .08.11l.12.06h.16.15a.39.39 0 0 0 .12-.08.35.35 0 0 0 .13-.25z" fill="#1e65a9"/><path d="m67 125.45q0 .69-.61.69h-.23a2.34 2.34 0 0 0 -.63-.9 2.64 2.64 0 0 0 -.52-.4 2.45 2.45 0 0 0 -.56-.24v.77a.79.79 0 0 1 -.22.58.82.82 0 0 1 -.62.23 1 1 0 0 1 -.7-.28 1.07 1.07 0 0 1 -.29-.76 1 1 0 0 1 .36-.76 1.28 1.28 0 0 1 .39-.24 1.24 1.24 0 0 1 .45-.08v-1.36h-.1-.22a.93.93 0 0 1 -.63-.24.83.83 0 0 1 -.19-.26.76.76 0 0 1 -.07-.33.85.85 0 0 1 .25-.6.86.86 0 0 1 .64-.26.89.89 0 0 1 .68.26.84.84 0 0 1 .26.65v2.12a1.63 1.63 0 0 1 .47.12 3.88 3.88 0 0 1 1.41 1.07v-4.16h.68zm-3.13-3.52a.34.34 0 0 0 -.11-.25.36.36 0 0 0 -.26-.11.38.38 0 0 0 -.27.11.37.37 0 0 0 -.11.24.37.37 0 0 0 0 .14.32.32 0 0 0 .08.12l.12.06h.15a.37.37 0 0 0 .26-.1.33.33 0 0 0 .12-.21zm0 3.37v-.7a.65.65 0 0 0 -.44.15.51.51 0 0 0 -.17.38.59.59 0 0 0 .09.33.34.34 0 0 0 .27.15c.11 0 .19-.1.19-.31z" fill="#1e65a9"/><path d="m71.3 126.14h-.66v-3.58a1.07 1.07 0 0 0 -.28-.75 1 1 0 0 0 -.76-.29 1.11 1.11 0 0 0 -.7.22 1.43 1.43 0 0 0 -.44.63h-.69a1.84 1.84 0 0 1 .65-1 2.1 2.1 0 0 1 2.41 0 1.27 1.27 0 0 1 .47 1z" fill="#1e65a9"/><path d="m76.54 126.14h-.66v-3.27a1.37 1.37 0 0 0 -.33-.92 1.31 1.31 0 0 0 -1-.43 1.46 1.46 0 0 0 -1 .38 1.19 1.19 0 0 0 -.41.89v.35a3.1 3.1 0 0 0 .05.37l.16.8v.6.13l.1-.76a7.75 7.75 0 0 1 .19-.77 4.27 4.27 0 0 1 .25-.64.9.9 0 0 1 .87-.57.88.88 0 0 1 .61.24.79.79 0 0 1 .27.61.81.81 0 0 1 -.25.6.87.87 0 0 1 -.63.24.92.92 0 0 1 -.58-.2q-.12.32-.33 1.1c-.05.22-.11.43-.15.63s-.09.4-.13.6h-.7v-.79a8.6 8.6 0 0 0 -.24-1.61c0-.18-.06-.36-.09-.54a3.06 3.06 0 0 1 0-.41 1.63 1.63 0 0 1 .57-1.23 2.32 2.32 0 0 1 1.58-.54 2.05 2.05 0 0 1 1.45.5 1.6 1.6 0 0 1 .55 1.22zm-1.48-3a.34.34 0 0 0 -.12-.25.33.33 0 0 0 -.27-.12.38.38 0 0 0 -.28.12.46.46 0 0 0 -.11.25.36.36 0 0 0 .11.26.36.36 0 0 0 .15.07h.13.15a.36.36 0 0 0 .12-.08.38.38 0 0 0 .12-.22z" fill="#1e65a9"/><path d="m82 125.45q0 .69-.61.69h-.23a2.36 2.36 0 0 0 -.63-.9 2.63 2.63 0 0 0 -.52-.4 2.42 2.42 0 0 0 -.56-.24v.77a.8.8 0 0 1 -.22.58.82.82 0 0 1 -.62.23 1 1 0 0 1 -.7-.28 1.07 1.07 0 0 1 -.28-.76 1 1 0 0 1 .36-.76 1.27 1.27 0 0 1 .39-.24 1.24 1.24 0 0 1 .45-.08v-1.36h-.1-.21a.93.93 0 0 1 -.63-.24.84.84 0 0 1 -.19-.26.76.76 0 0 1 -.07-.33.84.84 0 0 1 .25-.6.86.86 0 0 1 .64-.26.89.89 0 0 1 .68.26.84.84 0 0 1 .26.65v2.12a1.64 1.64 0 0 1 .47.12 3.87 3.87 0 0 1 1.41 1.07v-4.16h.66zm-3.13-3.52a.34.34 0 0 0 -.11-.25.36.36 0 0 0 -.26-.11.38.38 0 0 0 -.27.11.36.36 0 0 0 -.11.24.43.43 0 0 0 0 .14.35.35 0 0 0 .09.12l.12.06h.15a.37.37 0 0 0 .26-.1.33.33 0 0 0 .1-.21zm0 3.37v-.7a.65.65 0 0 0 -.44.15.5.5 0 0 0 -.17.38.58.58 0 0 0 .09.33.34.34 0 0 0 .27.15c.1 0 .18-.1.18-.31z" fill="#1e65a9"/><path d="m87.17 125.36a.86.86 0 0 1 -.17.6.59.59 0 0 1 -.48.18h-.22l-1.07-2.33-1.06 2.33h-.88v-4.14a.9.9 0 0 1 .25-.66.94.94 0 0 1 .7-.26.84.84 0 0 1 .63.26.81.81 0 0 1 0 1.18.85.85 0 0 1 -.62.24h-.19-.13v2.53l1.07-2.29h.47l1 2.23v-4.11h.66zm-2.52-3.43a.32.32 0 0 0 -.11-.24.33.33 0 0 0 -.26-.11.37.37 0 0 0 -.37.36.42.42 0 0 0 0 .14.29.29 0 0 0 .08.11.33.33 0 0 0 .15.07h.13.14a.37.37 0 0 0 .12-.08.34.34 0 0 0 .12-.25z" fill="#1e65a9"/><path d="m87.17 128.33a1 1 0 0 1 -.23.72 1 1 0 0 1 -.75.24h-1.59v-.45a.7.7 0 0 0 .37-.07.44.44 0 0 0 .09-.32v-.27l-.27.05a.83.83 0 0 1 -.6-.23.81.81 0 0 1 0-1.14.83.83 0 0 1 .6-.23.93.93 0 0 1 .66.24.74.74 0 0 1 .27.6v1.34h.28a.63.63 0 0 0 .46-.12.75.75 0 0 0 .06-.18 1.24 1.24 0 0 0 0-.27v-1.57h.66zm-2-.9a.32.32 0 0 0 -.09-.24.43.43 0 0 0 -.26-.11.34.34 0 0 0 -.24.09.42.42 0 0 0 -.11.26.33.33 0 0 0 .1.25.42.42 0 0 0 .25.1.33.33 0 0 0 .24-.09.41.41 0 0 0 .1-.26z" fill="#1e65a9"/><path d="m88.14 118.51a1.63 1.63 0 0 1 -.72 1.24 2.38 2.38 0 0 1 -.62.29 2.63 2.63 0 0 1 -.75.1 2.88 2.88 0 0 1 -.65-.07 1 1 0 0 0 .29-.23.89.89 0 0 0 .17-.32h-.14a.69.69 0 0 1 -.67-.43.69.69 0 0 1 .15-.76.87.87 0 0 1 .24-.15.71.71 0 0 1 .28-.06.79.79 0 0 1 .57.22.71.71 0 0 1 .23.53 1.61 1.61 0 0 1 0 .4 1.8 1.8 0 0 1 -.07.23 1.19 1.19 0 0 1 -.1.18 1.08 1.08 0 0 0 .47-.1 1.5 1.5 0 0 0 .42-.3 1 1 0 0 0 .35-.78zm-2.08.31q0-.31-.33-.31t-.33.31c0 .2.11.3.33.3s.32-.12.32-.3z" fill="#1e65a9"/><path d="m92.4 126.14h-.66v-3.27a1.35 1.35 0 0 0 -.33-.93 1.26 1.26 0 0 0 -1-.41 1.5 1.5 0 0 0 -1 .34 1.11 1.11 0 0 0 -.44.66v.46a3.62 3.62 0 0 0 0 .49c0 .18.07.41.13.67a6 6 0 0 1 .18 1l.1-.16.13-.18.11-.15.19-.23.43-.49a.91.91 0 0 1 -.49-.29.83.83 0 0 1 .06-1.12.92.92 0 0 1 .64-.25.88.88 0 0 1 .62.25.77.77 0 0 1 .27.6.77.77 0 0 1 -.1.41 1.38 1.38 0 0 1 -.12.19l-.15.18-.76.91c-.17.22-.33.45-.5.69a4.24 4.24 0 0 0 -.35.59h-.71v-.73a4.37 4.37 0 0 0 0-.55q0-.3-.14-.75c-.07-.3-.12-.55-.15-.76a4 4 0 0 1 0-.57 1.62 1.62 0 0 1 .58-1.26 2.26 2.26 0 0 1 1.56-.52 2.06 2.06 0 0 1 1.44.5 1.59 1.59 0 0 1 .55 1.23zm-1.57-3a.34.34 0 0 0 -.12-.25.35.35 0 0 0 -.27-.12.39.39 0 0 0 -.28.12.38.38 0 0 0 -.11.25.38.38 0 0 0 0 .14.36.36 0 0 0 .09.12l.12.06h.16a.41.41 0 0 0 .27-.1.38.38 0 0 0 .14-.19z" fill="#1e65a9"/><path d="m92.41 128.33a1 1 0 0 1 -.23.72 1 1 0 0 1 -.75.24h-1.59v-.45a.7.7 0 0 0 .37-.07.44.44 0 0 0 .09-.32v-.27l-.27.05a.83.83 0 0 1 -.6-.23.81.81 0 0 1 0-1.14.83.83 0 0 1 .6-.23.93.93 0 0 1 .66.24.74.74 0 0 1 .26.6v1.34h.24a.63.63 0 0 0 .46-.12.7.7 0 0 0 .06-.18 1.17 1.17 0 0 0 0-.27v-1.57h.66zm-2-.9a.31.31 0 0 0 -.09-.24.43.43 0 0 0 -.26-.11.33.33 0 0 0 -.24.09.41.41 0 0 0 -.11.26.33.33 0 0 0 .1.25.42.42 0 0 0 .25.1.34.34 0 0 0 .24-.09.41.41 0 0 0 .1-.26z" fill="#1e65a9"/><path d="m95.78 125.34a.83.83 0 0 1 -.06.33.9.9 0 0 1 -.2.29.85.85 0 0 1 -.63.25 1 1 0 0 1 -.7-.25.93.93 0 0 1 -.25-.66v-4.17h.66v3.44a1.27 1.27 0 0 1 .32 0 .89.89 0 0 1 .61.23.76.76 0 0 1 .25.54zm-.49 0a.33.33 0 0 0 -.11-.25.37.37 0 0 0 -.27-.11.39.39 0 0 0 -.28.11.37.37 0 0 0 -.11.25.36.36 0 0 0 0 .14.32.32 0 0 0 .09.12l.12.06h.16a.39.39 0 0 0 .27-.1.33.33 0 0 0 .12-.22zm3 0a.83.83 0 0 1 -.06.33.91.91 0 0 1 -.2.29.85.85 0 0 1 -.63.25 1 1 0 0 1 -.7-.25 1 1 0 0 1 -.18-.3 1 1 0 0 1 -.07-.37v-4.17h.66v3.44a1.28 1.28 0 0 1 .32 0 .89.89 0 0 1 .61.23.76.76 0 0 1 .24.55zm-.49 0a.33.33 0 0 0 -.12-.25.33.33 0 0 0 -.26-.11.37.37 0 0 0 -.39.36.37.37 0 0 0 0 .14.34.34 0 0 0 .09.12l.12.06h.16a.39.39 0 0 0 .27-.1.33.33 0 0 0 .12-.22z" fill="#1e65a9"/><path d="m103 126.14h-.68l-1.32-2.75a.71.71 0 0 0 -.25-.26.48.48 0 0 0 -.28-.08h-.11a.51.51 0 0 0 -.48.57v.95h.1.21a.86.86 0 0 1 .61.23.77.77 0 0 1 .25.59.84.84 0 0 1 -.06.33.93.93 0 0 1 -.2.29.81.81 0 0 1 -.63.25.87.87 0 0 1 -.94-.92v-1.74a.83.83 0 0 1 .26-.64 1.05 1.05 0 0 1 .54-.32h.26.21a1.82 1.82 0 0 1 .35 0 1 1 0 0 1 .3.11.78.78 0 0 1 .39.42l.77 1.68v-2.22a.92.92 0 0 0 -.37-.73 1.38 1.38 0 0 0 -.91-.31 1.4 1.4 0 0 0 -1.44.85h-.58a1.76 1.76 0 0 1 .77-1 2.63 2.63 0 0 1 .64-.26 2.79 2.79 0 0 1 .75-.09 2.28 2.28 0 0 1 1.36.39 1.21 1.21 0 0 1 .55 1zm-2.4-.8a.33.33 0 0 0 -.12-.25.34.34 0 0 0 -.27-.11.42.42 0 0 0 -.28.11.38.38 0 0 0 -.1.25.41.41 0 0 0 0 .15.31.31 0 0 0 .08.12l.12.06h.16.15a.34.34 0 0 0 .12-.07.35.35 0 0 0 .16-.26z" fill="#1e65a9"/><path d="m106.38 125.34a.83.83 0 0 1 -.06.33.91.91 0 0 1 -.2.29.84.84 0 0 1 -.63.25 1 1 0 0 1 -.7-.25.93.93 0 0 1 -.25-.66v-4.17h.66v3.44a1.25 1.25 0 0 1 .32 0 .89.89 0 0 1 .61.23.76.76 0 0 1 .25.54zm-.49 0a.33.33 0 0 0 -.11-.25.37.37 0 0 0 -.27-.11.39.39 0 0 0 -.28.11.35.35 0 0 0 -.11.25.4.4 0 0 0 0 .14.33.33 0 0 0 .09.12l.12.06h.16a.39.39 0 0 0 .27-.1.33.33 0 0 0 .13-.22z" fill="#1e65a9"/><path d="m110.7 125.29a.91.91 0 0 1 -.25.66.94.94 0 0 1 -.7.26.9.9 0 0 1 -.64-.25.87.87 0 0 1 -.25-.61.77.77 0 0 1 .26-.58.86.86 0 0 1 .61-.24h.19.13v-2a.94.94 0 0 0 -.35-.74 1.28 1.28 0 0 0 -.86-.3 1.76 1.76 0 0 0 -.86.22 1.26 1.26 0 0 0 -.52.63h-.69a1.82 1.82 0 0 1 .78-1 2.66 2.66 0 0 1 .61-.26 2.49 2.49 0 0 1 .71-.09 2.13 2.13 0 0 1 1.31.39 1.22 1.22 0 0 1 .53 1zm-.59 0a.33.33 0 0 0 -.12-.25.34.34 0 0 0 -.27-.11.42.42 0 0 0 -.28.11.38.38 0 0 0 -.1.25.42.42 0 0 0 0 .15.32.32 0 0 0 .08.12l.12.06h.15.15a.33.33 0 0 0 .12-.07.35.35 0 0 0 .15-.21z" fill="#1e65a9"/><path d="m110.77 117.8a.86.86 0 0 1 -.43.73 1.71 1.71 0 0 1 -1 .29h-.64-.2a.63.63 0 0 0 -.39.19.51.51 0 0 0 -.19.43.52.52 0 0 0 .17.39.34.34 0 0 0 .24.11l.48-.65.07.07v.07l.26.24a.75.75 0 0 1 .24-.42.76.76 0 0 1 1 0 .69.69 0 0 1 .15.21.65.65 0 0 1 -.16.75.78.78 0 0 1 -.26.14.9.9 0 0 1 -.31.05 1.32 1.32 0 0 1 -.28 0 1.23 1.23 0 0 1 -.27-.1 1.4 1.4 0 0 1 -.46-.35l-.29.43h-.37a.85.85 0 0 1 -.6-.25.89.89 0 0 1 -.26-.67 1 1 0 0 1 .33-.73 1.11 1.11 0 0 1 .65-.32h.38.68a1 1 0 0 0 .54-.13.57.57 0 0 0 .21-.48zm-.57 2c0-.18-.09-.27-.28-.27a.27.27 0 1 0 0 .55c.19-.01.28-.08.28-.29z" fill="#1e65a9"/><path d="m116.24 125a1 1 0 0 1 -1.24 1.18h-3v-.48a.87.87 0 0 0 .52-.11.59.59 0 0 0 .14-.46v-2.43h-.1-.21a.91.91 0 0 1 -.62-.24.82.82 0 0 1 -.18-.26.79.79 0 0 1 -.07-.33.84.84 0 0 1 .25-.6.88.88 0 0 1 .65-.26.9.9 0 0 1 .68.26.83.83 0 0 1 .26.65v3.66h1.3a1.4 1.4 0 0 0 .77-.13.89.89 0 0 0 .18-.67v-3.71h.66zm-3.49-3a.34.34 0 0 0 -.11-.25.37.37 0 0 0 -.27-.11.4.4 0 0 0 -.28.11.37.37 0 0 0 -.11.24.36.36 0 0 0 0 .14.33.33 0 0 0 .09.12l.12.06h.16a.39.39 0 0 0 .27-.1.32.32 0 0 0 .12-.28z" fill="#1e65a9"/><path d="m120 125.34a.84.84 0 0 1 -.06.33.91.91 0 0 1 -.2.29.81.81 0 0 1 -.63.25 1 1 0 0 1 -.7-.25.94.94 0 0 1 -.18-.29 1 1 0 0 1 -.06-.37v-6.65l-.88.85a6.77 6.77 0 0 0 -.41-.79 2.93 2.93 0 0 0 -1.09-1.13l.57-.36a2.73 2.73 0 0 1 .82.81l.13.2.17.3.87-.84a.4.4 0 0 1 .34.19.7.7 0 0 1 .1.22 1 1 0 0 1 0 .27v6.22h.1.21a.87.87 0 0 1 .61.23.77.77 0 0 1 .29.52zm-.47 0a.4.4 0 0 0 -.39-.36.39.39 0 0 0 -.28.11.39.39 0 0 0 -.1.25.39.39 0 0 0 0 .15.28.28 0 0 0 .08.11.35.35 0 0 0 .15.07h.13.14a.4.4 0 0 0 .24-.34z" fill="#1e65a9"/><path d="m125.09 126.14h-.66v-3.81q0-.73-.49-.72c-.1 0-.18.09-.23.27l-1.43 4.27h-.72v-3.45h-.1-.21a.91.91 0 0 1 -.62-.24.83.83 0 0 1 -.18-.26.77.77 0 0 1 -.07-.33.84.84 0 0 1 .25-.6.87.87 0 0 1 .65-.26.9.9 0 0 1 .68.26.83.83 0 0 1 .26.65v1.72.34s0 .3-.06.48 0 .16 0 .25 0 .2 0 .31l.06-.26a.86.86 0 0 1 0-.15 5.37 5.37 0 0 1 .18-.63l.79-2.41a.77.77 0 0 1 .83-.56 1.11 1.11 0 0 1 .8.28.85.85 0 0 1 .22.35 1.59 1.59 0 0 1 .08.53zm-3.46-4.21a.34.34 0 0 0 -.11-.25.37.37 0 0 0 -.27-.11.39.39 0 0 0 -.28.11.36.36 0 0 0 -.11.24.39.39 0 0 0 0 .14.33.33 0 0 0 .09.12l.12.06h.16a.39.39 0 0 0 .27-.1.32.32 0 0 0 .13-.21z" fill="#1e65a9"/><path d="m130.08 125a1.27 1.27 0 0 1 -.27.9 1.31 1.31 0 0 1 -1 .29h-2.38v-1.77a1 1 0 0 1 .19-.61 1.78 1.78 0 0 1 .34-.25 1.06 1.06 0 0 1 -.47-.25.67.67 0 0 1 -.19-.49v-.82a.9.9 0 0 1 .25-.66 1 1 0 0 1 .7-.25.85.85 0 0 1 .63.26.78.78 0 0 1 .26.6.78.78 0 0 1 -.27.59.89.89 0 0 1 -.27.18.85.85 0 0 1 -.33.06.69.69 0 0 1 -.32-.05.49.49 0 0 0 .22.38 1.17 1.17 0 0 0 .66.16h.4v.51h-.41c-.49 0-.74.21-.74.65v1.22h1.36a1.39 1.39 0 0 0 .77-.13.9.9 0 0 0 .18-.67v-3.71h.66zm-2.4-3a.34.34 0 0 0 -.11-.25.37.37 0 0 0 -.27-.11.39.39 0 0 0 -.28.11.36.36 0 0 0 -.11.24.36.36 0 0 0 0 .14.31.31 0 0 0 .09.12l.12.06h.16a.39.39 0 0 0 .27-.1.32.32 0 0 0 .13-.28z" fill="#1e65a9"/></svg>