<svg xmlns="http://www.w3.org/2000/svg" xmlns:xlink="http://www.w3.org/1999/xlink" viewBox="0 0 432.86 447.01"><defs><style>.cls-1{fill:none;}.cls-2{fill:url(#linear-gradient);}.cls-3{fill:url(#linear-gradient-2);}.cls-4{fill:#efeae6;}.cls-5{fill:#c1b49a;}.cls-6{fill:#dcd7cd;}.cls-7{clip-path:url(#clip-path);}.cls-8{clip-path:url(#clip-path-2);}.cls-9{clip-path:url(#clip-path-3);}.cls-10{clip-path:url(#clip-path-4);}.cls-11{clip-path:url(#clip-path-5);}.cls-12{clip-path:url(#clip-path-6);}.cls-13{clip-path:url(#clip-path-7);}.cls-14{clip-path:url(#clip-path-8);}.cls-15{fill:#5c4b43;}.cls-16{fill:#aa9c94;}.cls-17{fill:#fff0ca;}.cls-18{fill:#e2d2af;}.cls-19{fill:#ecdec2;}.cls-20{fill:#fff;}.cls-21{fill:#e5e4de;}.cls-22{fill:#d2d1cd;}.cls-23{fill:#fffdf0;}.cls-24{fill:#191919;}</style><linearGradient id="linear-gradient" x1="108.21" y1="90.25" x2="108.21" y2="375.29" gradientUnits="userSpaceOnUse"><stop offset="0" stop-color="#ffe197"/><stop offset="1" stop-color="#fff"/></linearGradient><linearGradient id="linear-gradient-2" x1="324.64" y1="90.25" x2="324.64" y2="375.29" xlink:href="#linear-gradient"/><clipPath id="clip-path"><polygon class="cls-1" points="330.76 398.7 330.76 400.01 345.64 414.89 345.64 398.7 330.76 398.7"/></clipPath><clipPath id="clip-path-2"><polygon class="cls-1" points="329.45 400.01 330.76 400.01 345.64 414.89 329.45 414.89 329.45 400.01"/></clipPath><clipPath id="clip-path-3"><polygon class="cls-1" points="101.97 400.01 100.66 400.01 85.79 414.89 101.97 414.89 101.97 400.01"/></clipPath><clipPath id="clip-path-4"><polygon class="cls-1" points="100.66 398.7 100.66 400.01 85.79 414.89 85.79 398.7 100.66 398.7"/></clipPath><clipPath id="clip-path-5"><polygon class="cls-1" points="100.66 48.73 100.66 47.42 85.79 32.55 85.79 48.73 100.66 48.73"/></clipPath><clipPath id="clip-path-6"><polygon class="cls-1" points="101.97 47.42 100.66 47.42 85.79 32.55 101.97 32.55 101.97 47.42"/></clipPath><clipPath id="clip-path-7"><polygon class="cls-1" points="329.45 47.42 330.76 47.42 345.64 32.55 329.45 32.55 329.45 47.42"/></clipPath><clipPath id="clip-path-8"><polygon class="cls-1" points="330.76 48.73 330.76 47.42 345.64 32.55 345.64 48.73 330.76 48.73"/></clipPath></defs><title>Asset 23</title><g id="Layer_2" data-name="Layer 2"><g id="Layer_1-2" data-name="Layer 1"><path class="cls-2" d="M200.15,358.39a149.38,149.38,0,0,1-17.8-20.79A4.45,4.45,0,0,0,180,336q-10.43-3.32-20.16-7.47c-3.08-1.32-6.42.49-5.23,3a141,141,0,0,0,13.65,22.19q-9.2-3-17.91-6.64c1.71-.42,2.66-1.73,1.75-3.29a132,132,0,0,1-10.58-23.11,3.62,3.62,0,0,0-1.72-1.9q-8.91-4.95-17-10.59c-2.57-1.79-6.29-.6-5.85,2A129.67,129.67,0,0,0,123.56,334q-7.84-4.46-15.13-9.41c1.76-.12,3-1.24,2.62-2.9a125.2,125.2,0,0,1-3.59-24.15,3.08,3.08,0,0,0-1.13-2.13,177.73,177.73,0,0,1-13.55-13.12c-2-2.17-5.94-1.63-6.23,1a128.12,128.12,0,0,0-.21,24.16q-6.33-5.64-12-11.66c1.74.18,3.29-.69,3.34-2.37a127.6,127.6,0,0,1,3.11-24.05,2.78,2.78,0,0,0-.52-2.26A156,156,0,0,1,70.53,252c-1.38-2.45-5.37-2.6-6.35-.13a135.34,135.34,0,0,0-6.68,23.47q-4.65-6.55-8.62-13.38a3,3,0,0,0,3.9-1.74,138.39,138.39,0,0,1,9.44-22.92,2.71,2.71,0,0,0,.09-2.29,138.58,138.58,0,0,1-5.5-16.41c-.7-2.64-4.56-3.48-6.17-1.23a151,151,0,0,0-12.76,21.83Q35.06,232,33,224.59a3.21,3.21,0,0,0,4.28-1A157.34,157.34,0,0,1,52.6,202.68a2.87,2.87,0,0,0,.7-2.24,129.18,129.18,0,0,1-.94-17.18c0-2.74-3.5-4.26-5.69-2.3A175,175,0,0,0,28.29,200.3,144.87,144.87,0,0,1,27.45,185a3.3,3.3,0,0,0,4.46-.27,184.27,184.27,0,0,1,20.72-18,3.3,3.3,0,0,0,1.31-2.11,131.84,131.84,0,0,1,4-17.36c.84-2.74-2.17-4.9-4.88-3.32a207,207,0,0,0-23.45,16.12,147.84,147.84,0,0,1,3.54-15.42,3.2,3.2,0,0,0,4.43.52,218.41,218.41,0,0,1,25.52-14.5A4.06,4.06,0,0,0,65,128.75a151.09,151.09,0,0,1,9.26-16.95c1.69-2.66-.57-5.39-3.72-4.25A245.76,245.76,0,0,0,42.6,119.84q1.94-4,4.14-8L44.4,111q-2.23,4-4.19,8.13a134.14,134.14,0,0,1-5.88-26.68c-.33-3.11-4.65-2.84-6.8.54a190,190,0,0,0-11.64,21.31,4.24,4.24,0,0,0-.31,3,145.4,145.4,0,0,0,10.78,25.85,3,3,0,0,0,4.27,1.07A149.55,149.55,0,0,0,27,159.79a152.41,152.41,0,0,1-13.62-23.86c-1.26-2.83-5.35-1.87-6.42,1.63a165.77,165.77,0,0,0-5,21.82,4,4,0,0,0,.56,2.86,172.34,172.34,0,0,0,17.86,22.52,3.22,3.22,0,0,0,4.46.28,146.52,146.52,0,0,0,.84,15.43,183.22,183.22,0,0,1-19.93-20.3c-2-2.45-5.74-.85-5.8,2.64a162.32,162.32,0,0,0,1.18,21.6A4.27,4.27,0,0,0,2.53,207a206.88,206.88,0,0,0,23.53,18.49,3.22,3.22,0,0,0,4.43-.5q2.09,7.46,4.94,14.75a217.68,217.68,0,0,1-24.87-16.12c-2.64-2-5.83.18-4.94,3.55a174.17,174.17,0,0,0,6.92,20.63,4.79,4.79,0,0,0,2,2.31,240.46,240.46,0,0,0,27.85,13.9c1.92.8,3.58.07,4.19-1.25q4,6.9,8.72,13.53A248.28,248.28,0,0,1,26.75,264.9c-3.11-1.5-5.64,1.18-3.89,4.3a196.1,196.1,0,0,0,12.2,18.93,5.49,5.49,0,0,0,2.56,1.92,267,267,0,0,0,30.88,8.84c2.09.46,3.52-.55,3.75-1.94Q78,303,84.44,308.74a270.2,270.2,0,0,1-31-6.35c-3.43-.93-5.19,2.12-2.65,4.88a223.46,223.46,0,0,0,17,16.49,6.27,6.27,0,0,0,3,1.45,283.81,283.81,0,0,0,32.72,3.44c2.18.1,3.3-1.13,3.15-2.54q7.37,5,15.3,9.52a282.72,282.72,0,0,1-32.23-1c-3.63-.34-4.51,3-1.24,5.24Q98.81,347,110,353.19a7.08,7.08,0,0,0,3.41.91,291.93,291.93,0,0,0,33.41-2.18c2.2-.27,3-1.67,2.38-3q8.8,3.65,18.11,6.72a287.39,287.39,0,0,1-32.42,4.54c-3.7.29-3.61,3.68.31,5.36q12.22,5.21,25.35,9.4a7.93,7.93,0,0,0,3.69.31,294.1,294.1,0,0,0,33-7.92c2.15-.65,2.47-2.15,1.47-3.38q8.45,1.71,17.22,2.94l.44-2q-8.67-1.21-17-2.91C201,361.21,201.56,359.76,200.15,358.39Z"/><path class="cls-3" d="M427,180.17a183.21,183.21,0,0,1-19.93,20.3A146.52,146.52,0,0,0,408,185a3.22,3.22,0,0,0,4.46-.28,172.39,172.39,0,0,0,17.86-22.52,4,4,0,0,0,.56-2.86,165.72,165.72,0,0,0-5-21.82c-1.07-3.5-5.16-4.46-6.42-1.63a152.44,152.44,0,0,1-13.62,23.86,149.54,149.54,0,0,0-3.58-15.59,3,3,0,0,0,4.27-1.07,145.4,145.4,0,0,0,10.78-25.85,4.24,4.24,0,0,0-.31-3A190,190,0,0,0,405.32,93c-2.15-3.38-6.47-3.65-6.8-.54a134.13,134.13,0,0,1-5.88,26.68q-2-4.08-4.19-8.13l-2.34.82q2.2,4,4.14,8a245.79,245.79,0,0,0-27.92-12.28c-3.15-1.14-5.41,1.59-3.72,4.25a151.09,151.09,0,0,1,9.26,16.95,4.06,4.06,0,0,0,1.92,1.91,218.41,218.41,0,0,1,25.52,14.5,3.2,3.2,0,0,0,4.43-.52,148,148,0,0,1,3.54,15.42,207.07,207.07,0,0,0-23.45-16.12c-2.71-1.58-5.72.58-4.88,3.32a131.79,131.79,0,0,1,4,17.36,3.31,3.31,0,0,0,1.31,2.11,184.27,184.27,0,0,1,20.72,18,3.3,3.3,0,0,0,4.46.27,145,145,0,0,1-.83,15.26A175,175,0,0,0,386.2,181c-2.19-2-5.74-.44-5.69,2.3a129.13,129.13,0,0,1-.94,17.18,2.87,2.87,0,0,0,.7,2.24,157.29,157.29,0,0,1,15.33,20.88,3.21,3.21,0,0,0,4.28,1Q397.8,232,395,239.17a151,151,0,0,0-12.76-21.83c-1.61-2.26-5.48-1.41-6.18,1.23a138.47,138.47,0,0,1-5.5,16.41,2.71,2.71,0,0,0,.09,2.29,138.36,138.36,0,0,1,9.44,22.92,3,3,0,0,0,3.9,1.74q-4,6.83-8.62,13.38a135.34,135.34,0,0,0-6.68-23.47c-1-2.47-5-2.32-6.35.13A155.9,155.9,0,0,1,352.62,267a2.78,2.78,0,0,0-.52,2.26,127.6,127.6,0,0,1,3.11,24.05c.05,1.68,1.61,2.55,3.34,2.37q-5.71,6-12,11.66a128.17,128.17,0,0,0-.21-24.16c-.29-2.59-4.23-3.12-6.23-1a177.8,177.8,0,0,1-13.55,13.12,3.08,3.08,0,0,0-1.13,2.13,125.26,125.26,0,0,1-3.59,24.15c-.42,1.66.86,2.78,2.62,2.9q-7.28,4.94-15.13,9.41a129.69,129.69,0,0,0,6.59-23.77c.43-2.59-3.29-3.79-5.85-2q-8.11,5.63-17,10.59a3.62,3.62,0,0,0-1.72,1.9,131.94,131.94,0,0,1-10.58,23.11c-.9,1.56,0,2.88,1.75,3.29q-8.7,3.61-17.91,6.64a141,141,0,0,0,13.65-22.19c1.19-2.47-2.15-4.28-5.23-3q-9.72,4.14-20.16,7.47a4.46,4.46,0,0,0-2.3,1.56,149.33,149.33,0,0,1-17.8,20.79c-1.41,1.37-.86,2.82.75,3.53q-8.36,1.69-17,2.91l.44,2q8.77-1.23,17.22-2.94c-1,1.23-.68,2.73,1.47,3.38a294.14,294.14,0,0,0,33,7.92,7.93,7.93,0,0,0,3.69-.31q13.11-4.17,25.35-9.4c3.92-1.68,4-5.07.31-5.36a287.39,287.39,0,0,1-32.42-4.54q9.31-3.06,18.11-6.72c-.57,1.36.18,2.76,2.38,3a291.93,291.93,0,0,0,33.41,2.18,7.09,7.09,0,0,0,3.41-.91Q334,347,344.25,339.88c3.27-2.28,2.39-5.58-1.24-5.24a282.71,282.71,0,0,1-32.23,1q7.93-4.51,15.3-9.52c-.16,1.41,1,2.64,3.15,2.54a283.8,283.8,0,0,0,32.72-3.44,6.27,6.27,0,0,0,3-1.45,223.58,223.58,0,0,0,17-16.49c2.55-2.76.79-5.81-2.65-4.88a270.22,270.22,0,0,1-31,6.35q6.4-5.7,12.17-11.79c.24,1.4,1.66,2.4,3.75,1.94a267,267,0,0,0,30.88-8.84,5.49,5.49,0,0,0,2.56-1.92A196,196,0,0,0,410,269.2c1.75-3.12-.78-5.8-3.89-4.3a248.31,248.31,0,0,1-28.52,11.43q4.7-6.62,8.72-13.53c.61,1.32,2.27,2.06,4.19,1.25a240.46,240.46,0,0,0,27.85-13.9,4.79,4.79,0,0,0,2-2.31,174.17,174.17,0,0,0,6.92-20.63c.89-3.37-2.3-5.55-4.94-3.55a217.71,217.71,0,0,1-24.87,16.12q2.84-7.28,4.94-14.75a3.22,3.22,0,0,0,4.43.5A206.91,206.91,0,0,0,430.33,207a4.27,4.27,0,0,0,1.33-2.63,162.36,162.36,0,0,0,1.18-21.6C432.79,179.33,429.08,177.72,427,180.17Z"/><rect class="cls-4" x="76.96" y="44.38" width="275.96" height="358.68"/><path class="cls-5" d="M350.42,46.88V400.56h-271V46.88h271m5-5h-281V405.56h281V41.88Z"/><rect class="cls-6" x="342.12" y="51.36" width="3.52" height="14.88"/><rect class="cls-6" x="330.76" y="51.36" width="14.88" height="3.52"/><rect class="cls-6" x="338.2" y="62.71" width="7.44" height="3.52"/><rect class="cls-6" x="330.76" y="57.5" width="7.44" height="3.52"/><rect class="cls-6" x="335.85" y="57.5" width="3.52" height="8.73"/><rect class="cls-6" x="330.76" y="57.5" width="3.52" height="8.73"/><rect class="cls-6" x="330.76" y="48.73" width="3.52" height="6.15"/><rect class="cls-6" x="342.12" y="68.85" width="3.52" height="14.88"/><rect class="cls-6" x="330.76" y="68.85" width="14.88" height="3.52"/><rect class="cls-6" x="338.2" y="80.21" width="7.44" height="3.52"/><rect class="cls-6" x="330.76" y="75" width="7.44" height="3.52"/><rect class="cls-6" x="335.85" y="75" width="3.52" height="8.73"/><rect class="cls-6" x="330.76" y="75" width="3.52" height="8.73"/><rect class="cls-6" x="330.76" y="66.23" width="3.52" height="6.15"/><rect class="cls-6" x="342.12" y="86.35" width="3.52" height="14.88"/><rect class="cls-6" x="330.76" y="86.35" width="14.88" height="3.52"/><rect class="cls-6" x="338.2" y="97.71" width="7.44" height="3.52"/><rect class="cls-6" x="330.76" y="92.5" width="7.44" height="3.52"/><rect class="cls-6" x="335.85" y="92.5" width="3.52" height="8.73"/><rect class="cls-6" x="330.76" y="92.5" width="3.52" height="8.73"/><rect class="cls-6" x="330.76" y="83.73" width="3.52" height="6.15"/><rect class="cls-6" x="342.12" y="103.85" width="3.52" height="14.88"/><rect class="cls-6" x="330.76" y="103.85" width="14.88" height="3.52"/><rect class="cls-6" x="338.2" y="115.2" width="7.44" height="3.52"/><rect class="cls-6" x="330.76" y="110" width="7.44" height="3.52"/><rect class="cls-6" x="335.85" y="110" width="3.52" height="8.73"/><rect class="cls-6" x="330.76" y="110" width="3.52" height="8.73"/><rect class="cls-6" x="330.76" y="101.23" width="3.52" height="6.15"/><rect class="cls-6" x="342.12" y="121.35" width="3.52" height="14.88"/><rect class="cls-6" x="330.76" y="121.35" width="14.88" height="3.52"/><rect class="cls-6" x="338.2" y="132.7" width="7.44" height="3.52"/><rect class="cls-6" x="330.76" y="127.5" width="7.44" height="3.52"/><rect class="cls-6" x="335.85" y="127.5" width="3.52" height="8.73"/><rect class="cls-6" x="330.76" y="127.5" width="3.52" height="8.73"/><rect class="cls-6" x="330.76" y="118.73" width="3.52" height="6.15"/><rect class="cls-6" x="342.12" y="138.85" width="3.52" height="14.88"/><rect class="cls-6" x="330.76" y="138.85" width="14.88" height="3.52"/><rect class="cls-6" x="338.2" y="150.2" width="7.44" height="3.52"/><rect class="cls-6" x="330.76" y="144.99" width="7.44" height="3.52"/><rect class="cls-6" x="335.85" y="144.99" width="3.52" height="8.73"/><rect class="cls-6" x="330.76" y="144.99" width="3.52" height="8.73"/><rect class="cls-6" x="330.76" y="136.23" width="3.52" height="6.15"/><rect class="cls-6" x="342.12" y="156.35" width="3.52" height="14.88"/><rect class="cls-6" x="330.76" y="156.35" width="14.88" height="3.52"/><rect class="cls-6" x="338.2" y="167.7" width="7.44" height="3.52"/><rect class="cls-6" x="330.76" y="162.49" width="7.44" height="3.52"/><rect class="cls-6" x="335.85" y="162.49" width="3.52" height="8.73"/><rect class="cls-6" x="330.76" y="162.49" width="3.52" height="8.73"/><rect class="cls-6" x="330.76" y="153.72" width="3.52" height="6.15"/><rect class="cls-6" x="342.12" y="173.85" width="3.52" height="14.88"/><rect class="cls-6" x="330.76" y="173.85" width="14.88" height="3.52"/><rect class="cls-6" x="338.2" y="185.2" width="7.44" height="3.52"/><rect class="cls-6" x="330.76" y="179.99" width="7.44" height="3.52"/><rect class="cls-6" x="335.85" y="179.99" width="3.52" height="8.73"/><rect class="cls-6" x="330.76" y="179.99" width="3.52" height="8.73"/><rect class="cls-6" x="330.76" y="171.22" width="3.52" height="6.15"/><rect class="cls-6" x="342.12" y="191.34" width="3.52" height="14.88"/><rect class="cls-6" x="330.76" y="191.34" width="14.88" height="3.52"/><rect class="cls-6" x="338.2" y="202.7" width="7.44" height="3.52"/><rect class="cls-6" x="330.76" y="197.49" width="7.44" height="3.52"/><rect class="cls-6" x="335.85" y="197.49" width="3.52" height="8.73"/><rect class="cls-6" x="330.76" y="197.49" width="3.52" height="8.73"/><rect class="cls-6" x="330.76" y="188.72" width="3.52" height="6.15"/><rect class="cls-6" x="342.12" y="208.84" width="3.52" height="14.88"/><rect class="cls-6" x="330.76" y="208.84" width="14.88" height="3.52"/><rect class="cls-6" x="338.2" y="220.19" width="7.44" height="3.52"/><rect class="cls-6" x="330.76" y="214.99" width="7.44" height="3.52"/><rect class="cls-6" x="335.85" y="214.99" width="3.52" height="8.73"/><rect class="cls-6" x="330.76" y="214.99" width="3.52" height="8.73"/><rect class="cls-6" x="330.76" y="206.22" width="3.52" height="6.15"/><rect class="cls-6" x="342.12" y="226.34" width="3.52" height="14.88"/><rect class="cls-6" x="330.76" y="226.34" width="14.88" height="3.52"/><rect class="cls-6" x="338.2" y="237.69" width="7.44" height="3.52"/><rect class="cls-6" x="330.76" y="232.49" width="7.44" height="3.52"/><rect class="cls-6" x="335.85" y="232.49" width="3.52" height="8.73"/><rect class="cls-6" x="330.76" y="232.49" width="3.52" height="8.73"/><rect class="cls-6" x="330.76" y="223.72" width="3.52" height="6.15"/><rect class="cls-6" x="342.12" y="243.84" width="3.52" height="14.88"/><rect class="cls-6" x="330.76" y="243.84" width="14.88" height="3.52"/><rect class="cls-6" x="338.2" y="255.19" width="7.44" height="3.52"/><rect class="cls-6" x="330.76" y="249.98" width="7.44" height="3.52"/><rect class="cls-6" x="335.85" y="249.98" width="3.52" height="8.73"/><rect class="cls-6" x="330.76" y="249.98" width="3.52" height="8.73"/><rect class="cls-6" x="330.76" y="241.22" width="3.52" height="6.15"/><rect class="cls-6" x="342.12" y="261.34" width="3.52" height="14.88"/><rect class="cls-6" x="330.76" y="261.34" width="14.88" height="3.52"/><rect class="cls-6" x="338.2" y="272.69" width="7.44" height="3.52"/><rect class="cls-6" x="330.76" y="267.48" width="7.44" height="3.52"/><rect class="cls-6" x="335.85" y="267.48" width="3.52" height="8.73"/><rect class="cls-6" x="330.76" y="267.48" width="3.52" height="8.73"/><rect class="cls-6" x="330.76" y="258.72" width="3.52" height="6.15"/><rect class="cls-6" x="342.12" y="278.84" width="3.52" height="14.88"/><rect class="cls-6" x="330.76" y="278.84" width="14.88" height="3.52"/><rect class="cls-6" x="338.2" y="290.19" width="7.44" height="3.52"/><rect class="cls-6" x="330.76" y="284.98" width="7.44" height="3.52"/><rect class="cls-6" x="335.85" y="284.98" width="3.52" height="8.73"/><rect class="cls-6" x="330.76" y="284.98" width="3.52" height="8.73"/><rect class="cls-6" x="330.76" y="276.21" width="3.52" height="6.15"/><rect class="cls-6" x="342.12" y="296.33" width="3.52" height="14.88"/><rect class="cls-6" x="330.76" y="296.33" width="14.88" height="3.52"/><rect class="cls-6" x="338.2" y="307.69" width="7.44" height="3.52"/><rect class="cls-6" x="330.76" y="302.48" width="7.44" height="3.52"/><rect class="cls-6" x="335.85" y="302.48" width="3.52" height="8.73"/><rect class="cls-6" x="330.76" y="302.48" width="3.52" height="8.73"/><rect class="cls-6" x="330.76" y="293.71" width="3.52" height="6.15"/><rect class="cls-6" x="342.12" y="313.83" width="3.52" height="14.88"/><rect class="cls-6" x="330.76" y="313.83" width="14.88" height="3.52"/><rect class="cls-6" x="338.2" y="325.19" width="7.44" height="3.52"/><rect class="cls-6" x="330.76" y="319.98" width="7.44" height="3.52"/><rect class="cls-6" x="335.85" y="319.98" width="3.52" height="8.73"/><rect class="cls-6" x="330.76" y="319.98" width="3.52" height="8.73"/><rect class="cls-6" x="330.76" y="311.21" width="3.52" height="6.15"/><rect class="cls-6" x="342.12" y="331.33" width="3.52" height="14.88"/><rect class="cls-6" x="330.76" y="331.33" width="14.88" height="3.52"/><rect class="cls-6" x="338.2" y="342.68" width="7.44" height="3.52"/><rect class="cls-6" x="330.76" y="337.48" width="7.44" height="3.52"/><rect class="cls-6" x="335.85" y="337.48" width="3.52" height="8.73"/><rect class="cls-6" x="330.76" y="337.48" width="3.52" height="8.73"/><rect class="cls-6" x="330.76" y="328.71" width="3.52" height="6.15"/><rect class="cls-6" x="342.12" y="348.83" width="3.52" height="14.88"/><rect class="cls-6" x="330.76" y="348.83" width="14.88" height="3.52"/><rect class="cls-6" x="338.2" y="360.18" width="7.44" height="3.52"/><rect class="cls-6" x="330.76" y="354.98" width="7.44" height="3.52"/><rect class="cls-6" x="335.85" y="354.98" width="3.52" height="8.73"/><rect class="cls-6" x="330.76" y="354.98" width="3.52" height="8.73"/><rect class="cls-6" x="330.76" y="346.21" width="3.52" height="6.15"/><rect class="cls-6" x="342.12" y="366.33" width="3.52" height="14.88"/><rect class="cls-6" x="330.76" y="366.33" width="14.88" height="3.52"/><rect class="cls-6" x="338.2" y="377.68" width="7.44" height="3.52"/><rect class="cls-6" x="330.76" y="372.47" width="7.44" height="3.52"/><rect class="cls-6" x="335.85" y="372.47" width="3.52" height="8.73"/><rect class="cls-6" x="330.76" y="372.47" width="3.52" height="8.73"/><rect class="cls-6" x="330.76" y="363.71" width="3.52" height="6.15"/><rect class="cls-6" x="342.12" y="383.83" width="3.52" height="14.88"/><rect class="cls-6" x="330.76" y="383.83" width="14.88" height="3.52"/><rect class="cls-6" x="338.2" y="395.18" width="7.44" height="3.52"/><rect class="cls-6" x="330.76" y="389.97" width="7.44" height="3.52"/><rect class="cls-6" x="335.85" y="389.97" width="3.52" height="8.73"/><rect class="cls-6" x="330.76" y="389.97" width="3.52" height="8.73"/><rect class="cls-6" x="330.76" y="381.2" width="3.52" height="6.15"/><rect class="cls-6" x="311.95" y="411.37" width="14.88" height="3.52"/><rect class="cls-6" x="323.31" y="400.01" width="3.52" height="14.88"/><rect class="cls-6" x="311.95" y="407.45" width="3.52" height="7.44"/><rect class="cls-6" x="317.16" y="400.01" width="3.52" height="7.44"/><rect class="cls-6" x="311.95" y="405.1" width="8.73" height="3.52"/><rect class="cls-6" x="311.95" y="400.01" width="8.73" height="3.52"/><rect class="cls-6" x="323.31" y="400.01" width="6.15" height="3.52"/><rect class="cls-6" x="294.46" y="411.37" width="14.88" height="3.52"/><rect class="cls-6" x="305.81" y="400.01" width="3.52" height="14.88"/><rect class="cls-6" x="294.46" y="407.45" width="3.52" height="7.44"/><rect class="cls-6" x="299.66" y="400.01" width="3.52" height="7.44"/><rect class="cls-6" x="294.46" y="405.1" width="8.73" height="3.52"/><rect class="cls-6" x="294.46" y="400.01" width="8.73" height="3.52"/><rect class="cls-6" x="305.81" y="400.01" width="6.15" height="3.52"/><rect class="cls-6" x="276.96" y="411.37" width="14.88" height="3.52"/><rect class="cls-6" x="288.31" y="400.01" width="3.52" height="14.88"/><rect class="cls-6" x="276.96" y="407.45" width="3.52" height="7.44"/><rect class="cls-6" x="282.17" y="400.01" width="3.52" height="7.44"/><rect class="cls-6" x="276.96" y="405.1" width="8.73" height="3.52"/><rect class="cls-6" x="276.96" y="400.01" width="8.73" height="3.52"/><rect class="cls-6" x="288.31" y="400.01" width="6.15" height="3.52"/><rect class="cls-6" x="259.46" y="411.37" width="14.88" height="3.52"/><rect class="cls-6" x="270.81" y="400.01" width="3.52" height="14.88"/><rect class="cls-6" x="259.46" y="407.45" width="3.52" height="7.44"/><rect class="cls-6" x="264.67" y="400.01" width="3.52" height="7.44"/><rect class="cls-6" x="259.46" y="405.1" width="8.73" height="3.52"/><rect class="cls-6" x="259.46" y="400.01" width="8.73" height="3.52"/><rect class="cls-6" x="270.81" y="400.01" width="6.15" height="3.52"/><rect class="cls-6" x="241.96" y="411.37" width="14.88" height="3.52"/><rect class="cls-6" x="253.31" y="400.01" width="3.52" height="14.88"/><rect class="cls-6" x="241.96" y="407.45" width="3.52" height="7.44"/><rect class="cls-6" x="247.17" y="400.01" width="3.52" height="7.44"/><rect class="cls-6" x="241.96" y="405.1" width="8.73" height="3.52"/><rect class="cls-6" x="241.96" y="400.01" width="8.73" height="3.52"/><rect class="cls-6" x="253.31" y="400.01" width="6.15" height="3.52"/><rect class="cls-6" x="224.46" y="411.37" width="14.88" height="3.52"/><rect class="cls-6" x="235.82" y="400.01" width="3.52" height="14.88"/><rect class="cls-6" x="224.46" y="407.45" width="3.52" height="7.44"/><rect class="cls-6" x="229.67" y="400.01" width="3.52" height="7.44"/><rect class="cls-6" x="224.46" y="405.1" width="8.73" height="3.52"/><rect class="cls-6" x="224.46" y="400.01" width="8.73" height="3.52"/><rect class="cls-6" x="235.82" y="400.01" width="6.15" height="3.52"/><rect class="cls-6" x="206.96" y="411.37" width="14.88" height="3.52"/><rect class="cls-6" x="218.32" y="400.01" width="3.52" height="14.88"/><rect class="cls-6" x="206.96" y="407.45" width="3.52" height="7.44"/><rect class="cls-6" x="212.17" y="400.01" width="3.52" height="7.44"/><rect class="cls-6" x="206.96" y="405.1" width="8.73" height="3.52"/><rect class="cls-6" x="206.96" y="400.01" width="8.73" height="3.52"/><rect class="cls-6" x="218.32" y="400.01" width="6.15" height="3.52"/><rect class="cls-6" x="189.47" y="411.37" width="14.88" height="3.52"/><rect class="cls-6" x="200.82" y="400.01" width="3.52" height="14.88"/><rect class="cls-6" x="189.47" y="407.45" width="3.52" height="7.44"/><rect class="cls-6" x="194.67" y="400.01" width="3.52" height="7.44"/><rect class="cls-6" x="189.47" y="405.1" width="8.73" height="3.52"/><rect class="cls-6" x="189.47" y="400.01" width="8.73" height="3.52"/><rect class="cls-6" x="200.82" y="400.01" width="6.15" height="3.52"/><rect class="cls-6" x="171.97" y="411.37" width="14.88" height="3.52"/><rect class="cls-6" x="183.32" y="400.01" width="3.52" height="14.88"/><rect class="cls-6" x="171.97" y="407.45" width="3.52" height="7.44"/><rect class="cls-6" x="177.17" y="400.01" width="3.52" height="7.44"/><rect class="cls-6" x="171.97" y="405.1" width="8.73" height="3.52"/><rect class="cls-6" x="171.97" y="400.01" width="8.73" height="3.52"/><rect class="cls-6" x="183.32" y="400.01" width="6.15" height="3.52"/><rect class="cls-6" x="154.47" y="411.37" width="14.88" height="3.52"/><rect class="cls-6" x="165.82" y="400.01" width="3.52" height="14.88"/><rect class="cls-6" x="154.47" y="407.45" width="3.52" height="7.44"/><rect class="cls-6" x="159.68" y="400.01" width="3.52" height="7.44"/><rect class="cls-6" x="154.47" y="405.1" width="8.73" height="3.52"/><rect class="cls-6" x="154.47" y="400.01" width="8.73" height="3.52"/><rect class="cls-6" x="165.82" y="400.01" width="6.15" height="3.52"/><rect class="cls-6" x="136.97" y="411.37" width="14.88" height="3.52"/><rect class="cls-6" x="148.32" y="400.01" width="3.52" height="14.88"/><rect class="cls-6" x="136.97" y="407.45" width="3.52" height="7.44"/><rect class="cls-6" x="142.18" y="400.01" width="3.52" height="7.44"/><rect class="cls-6" x="136.97" y="405.1" width="8.73" height="3.52"/><rect class="cls-6" x="136.97" y="400.01" width="8.73" height="3.52"/><rect class="cls-6" x="148.32" y="400.01" width="6.15" height="3.52"/><rect class="cls-6" x="119.47" y="411.37" width="14.88" height="3.52"/><rect class="cls-6" x="130.82" y="400.01" width="3.52" height="14.88"/><rect class="cls-6" x="119.47" y="407.45" width="3.52" height="7.44"/><rect class="cls-6" x="124.68" y="400.01" width="3.52" height="7.44"/><rect class="cls-6" x="119.47" y="405.1" width="8.73" height="3.52"/><rect class="cls-6" x="119.47" y="400.01" width="8.73" height="3.52"/><rect class="cls-6" x="130.82" y="400.01" width="6.15" height="3.52"/><rect class="cls-6" x="101.97" y="411.37" width="14.88" height="3.52"/><rect class="cls-6" x="113.33" y="400.01" width="3.52" height="14.88"/><rect class="cls-6" x="101.97" y="407.45" width="3.52" height="7.44"/><rect class="cls-6" x="107.18" y="400.01" width="3.52" height="7.44"/><rect class="cls-6" x="101.97" y="405.1" width="8.73" height="3.52"/><rect class="cls-6" x="101.97" y="400.01" width="8.73" height="3.52"/><rect class="cls-6" x="113.33" y="400.01" width="6.15" height="3.52"/><rect class="cls-6" x="85.79" y="381.2" width="3.52" height="14.88"/><rect class="cls-6" x="85.79" y="392.56" width="14.88" height="3.52"/><rect class="cls-6" x="85.79" y="381.2" width="7.44" height="3.52"/><rect class="cls-6" x="93.22" y="386.41" width="7.44" height="3.52"/><rect class="cls-6" x="92.05" y="381.2" width="3.52" height="8.73"/><rect class="cls-6" x="97.14" y="381.2" width="3.52" height="8.73"/><rect class="cls-6" x="97.14" y="392.56" width="3.52" height="6.15"/><rect class="cls-6" x="85.79" y="363.71" width="3.52" height="14.88"/><rect class="cls-6" x="85.79" y="375.06" width="14.88" height="3.52"/><rect class="cls-6" x="85.79" y="363.71" width="7.44" height="3.52"/><rect class="cls-6" x="93.22" y="368.91" width="7.44" height="3.52"/><rect class="cls-6" x="92.05" y="363.71" width="3.52" height="8.73"/><rect class="cls-6" x="97.14" y="363.71" width="3.52" height="8.73"/><rect class="cls-6" x="97.14" y="375.06" width="3.52" height="6.15"/><rect class="cls-6" x="85.79" y="346.21" width="3.52" height="14.88"/><rect class="cls-6" x="85.79" y="357.56" width="14.88" height="3.52"/><rect class="cls-6" x="85.79" y="346.21" width="7.44" height="3.52"/><rect class="cls-6" x="93.22" y="351.42" width="7.44" height="3.52"/><rect class="cls-6" x="92.05" y="346.21" width="3.52" height="8.73"/><rect class="cls-6" x="97.14" y="346.21" width="3.52" height="8.73"/><rect class="cls-6" x="97.14" y="357.56" width="3.52" height="6.15"/><rect class="cls-6" x="85.79" y="328.71" width="3.52" height="14.88"/><rect class="cls-6" x="85.79" y="340.06" width="14.88" height="3.52"/><rect class="cls-6" x="85.79" y="328.71" width="7.44" height="3.52"/><rect class="cls-6" x="93.22" y="333.92" width="7.44" height="3.52"/><rect class="cls-6" x="92.05" y="328.71" width="3.52" height="8.73"/><rect class="cls-6" x="97.14" y="328.71" width="3.52" height="8.73"/><rect class="cls-6" x="97.14" y="340.06" width="3.52" height="6.15"/><rect class="cls-6" x="85.79" y="311.21" width="3.52" height="14.88"/><rect class="cls-6" x="85.79" y="322.56" width="14.88" height="3.52"/><rect class="cls-6" x="85.79" y="311.21" width="7.44" height="3.52"/><rect class="cls-6" x="93.22" y="316.42" width="7.44" height="3.52"/><rect class="cls-6" x="92.05" y="311.21" width="3.52" height="8.73"/><rect class="cls-6" x="97.14" y="311.21" width="3.52" height="8.73"/><rect class="cls-6" x="97.14" y="322.56" width="3.52" height="6.15"/><rect class="cls-6" x="85.79" y="293.71" width="3.52" height="14.88"/><rect class="cls-6" x="85.79" y="305.06" width="14.88" height="3.52"/><rect class="cls-6" x="85.79" y="293.71" width="7.44" height="3.52"/><rect class="cls-6" x="93.22" y="298.92" width="7.44" height="3.52"/><rect class="cls-6" x="92.05" y="293.71" width="3.52" height="8.73"/><rect class="cls-6" x="97.14" y="293.71" width="3.52" height="8.73"/><rect class="cls-6" x="97.14" y="305.06" width="3.52" height="6.15"/><rect class="cls-6" x="85.79" y="276.21" width="3.52" height="14.88"/><rect class="cls-6" x="85.79" y="287.57" width="14.88" height="3.52"/><rect class="cls-6" x="85.79" y="276.21" width="7.44" height="3.52"/><rect class="cls-6" x="93.22" y="281.42" width="7.44" height="3.52"/><rect class="cls-6" x="92.05" y="276.21" width="3.52" height="8.73"/><rect class="cls-6" x="97.14" y="276.21" width="3.52" height="8.73"/><rect class="cls-6" x="97.14" y="287.57" width="3.52" height="6.15"/><rect class="cls-6" x="85.79" y="258.72" width="3.52" height="14.88"/><rect class="cls-6" x="85.79" y="270.07" width="14.88" height="3.52"/><rect class="cls-6" x="85.79" y="258.72" width="7.44" height="3.52"/><rect class="cls-6" x="93.22" y="263.92" width="7.44" height="3.52"/><rect class="cls-6" x="92.05" y="258.72" width="3.52" height="8.73"/><rect class="cls-6" x="97.14" y="258.72" width="3.52" height="8.73"/><rect class="cls-6" x="97.14" y="270.07" width="3.52" height="6.15"/><rect class="cls-6" x="85.79" y="241.22" width="3.52" height="14.88"/><rect class="cls-6" x="85.79" y="252.57" width="14.88" height="3.52"/><rect class="cls-6" x="85.79" y="241.22" width="7.44" height="3.52"/><rect class="cls-6" x="93.22" y="246.42" width="7.44" height="3.52"/><rect class="cls-6" x="92.05" y="241.22" width="3.52" height="8.73"/><rect class="cls-6" x="97.14" y="241.22" width="3.52" height="8.73"/><rect class="cls-6" x="97.14" y="252.57" width="3.52" height="6.15"/><rect class="cls-6" x="85.79" y="223.72" width="3.52" height="14.88"/><rect class="cls-6" x="85.79" y="235.07" width="14.88" height="3.52"/><rect class="cls-6" x="85.79" y="223.72" width="7.44" height="3.52"/><rect class="cls-6" x="93.22" y="228.93" width="7.44" height="3.52"/><rect class="cls-6" x="92.05" y="223.72" width="3.52" height="8.73"/><rect class="cls-6" x="97.14" y="223.72" width="3.52" height="8.73"/><rect class="cls-6" x="97.14" y="235.07" width="3.52" height="6.15"/><rect class="cls-6" x="85.79" y="206.22" width="3.52" height="14.88"/><rect class="cls-6" x="85.79" y="217.57" width="14.88" height="3.52"/><rect class="cls-6" x="85.79" y="206.22" width="7.44" height="3.52"/><rect class="cls-6" x="93.22" y="211.43" width="7.44" height="3.52"/><rect class="cls-6" x="92.05" y="206.22" width="3.52" height="8.73"/><rect class="cls-6" x="97.14" y="206.22" width="3.52" height="8.73"/><rect class="cls-6" x="97.14" y="217.57" width="3.52" height="6.15"/><rect class="cls-6" x="85.79" y="188.72" width="3.52" height="14.88"/><rect class="cls-6" x="85.79" y="200.07" width="14.88" height="3.52"/><rect class="cls-6" x="85.79" y="188.72" width="7.44" height="3.52"/><rect class="cls-6" x="93.22" y="193.93" width="7.44" height="3.52"/><rect class="cls-6" x="92.05" y="188.72" width="3.52" height="8.73"/><rect class="cls-6" x="97.14" y="188.72" width="3.52" height="8.73"/><rect class="cls-6" x="97.14" y="200.07" width="3.52" height="6.15"/><rect class="cls-6" x="85.79" y="171.22" width="3.52" height="14.88"/><rect class="cls-6" x="85.79" y="182.58" width="14.88" height="3.52"/><rect class="cls-6" x="85.79" y="171.22" width="7.44" height="3.52"/><rect class="cls-6" x="93.22" y="176.43" width="7.44" height="3.52"/><rect class="cls-6" x="92.05" y="171.22" width="3.52" height="8.73"/><rect class="cls-6" x="97.14" y="171.22" width="3.52" height="8.73"/><rect class="cls-6" x="97.14" y="182.58" width="3.52" height="6.15"/><rect class="cls-6" x="85.79" y="153.72" width="3.52" height="14.88"/><rect class="cls-6" x="85.79" y="165.08" width="14.88" height="3.52"/><rect class="cls-6" x="85.79" y="153.72" width="7.44" height="3.52"/><rect class="cls-6" x="93.22" y="158.93" width="7.44" height="3.52"/><rect class="cls-6" x="92.05" y="153.72" width="3.52" height="8.73"/><rect class="cls-6" x="97.14" y="153.72" width="3.52" height="8.73"/><rect class="cls-6" x="97.14" y="165.08" width="3.52" height="6.15"/><rect class="cls-6" x="85.79" y="136.23" width="3.52" height="14.88"/><rect class="cls-6" x="85.79" y="147.58" width="14.88" height="3.52"/><rect class="cls-6" x="85.79" y="136.23" width="7.44" height="3.52"/><rect class="cls-6" x="93.22" y="141.43" width="7.44" height="3.52"/><rect class="cls-6" x="92.05" y="136.23" width="3.52" height="8.73"/><rect class="cls-6" x="97.14" y="136.23" width="3.52" height="8.73"/><rect class="cls-6" x="97.14" y="147.58" width="3.52" height="6.15"/><rect class="cls-6" x="85.79" y="118.73" width="3.52" height="14.88"/><rect class="cls-6" x="85.79" y="130.08" width="14.88" height="3.52"/><rect class="cls-6" x="85.79" y="118.73" width="7.44" height="3.52"/><rect class="cls-6" x="93.22" y="123.94" width="7.44" height="3.52"/><rect class="cls-6" x="92.05" y="118.73" width="3.52" height="8.73"/><rect class="cls-6" x="97.14" y="118.73" width="3.52" height="8.73"/><rect class="cls-6" x="97.14" y="130.08" width="3.52" height="6.15"/><rect class="cls-6" x="85.79" y="101.23" width="3.52" height="14.88"/><rect class="cls-6" x="85.79" y="112.58" width="14.88" height="3.52"/><rect class="cls-6" x="85.79" y="101.23" width="7.44" height="3.52"/><rect class="cls-6" x="93.22" y="106.44" width="7.44" height="3.52"/><rect class="cls-6" x="92.05" y="101.23" width="3.52" height="8.73"/><rect class="cls-6" x="97.14" y="101.23" width="3.52" height="8.73"/><rect class="cls-6" x="97.14" y="112.58" width="3.52" height="6.15"/><rect class="cls-6" x="85.79" y="83.73" width="3.52" height="14.88"/><rect class="cls-6" x="85.79" y="95.08" width="14.88" height="3.52"/><rect class="cls-6" x="85.79" y="83.73" width="7.44" height="3.52"/><rect class="cls-6" x="93.22" y="88.94" width="7.44" height="3.52"/><rect class="cls-6" x="92.05" y="83.73" width="3.52" height="8.73"/><rect class="cls-6" x="97.14" y="83.73" width="3.52" height="8.73"/><rect class="cls-6" x="97.14" y="95.08" width="3.52" height="6.15"/><rect class="cls-6" x="85.79" y="66.23" width="3.52" height="14.88"/><rect class="cls-6" x="85.79" y="77.59" width="14.88" height="3.52"/><rect class="cls-6" x="85.79" y="66.23" width="7.44" height="3.52"/><rect class="cls-6" x="93.22" y="71.44" width="7.44" height="3.52"/><rect class="cls-6" x="92.05" y="66.23" width="3.52" height="8.73"/><rect class="cls-6" x="97.14" y="66.23" width="3.52" height="8.73"/><rect class="cls-6" x="97.14" y="77.59" width="3.52" height="6.15"/><rect class="cls-6" x="85.79" y="48.73" width="3.52" height="14.88"/><rect class="cls-6" x="85.79" y="60.09" width="14.88" height="3.52"/><rect class="cls-6" x="85.79" y="48.73" width="7.44" height="3.52"/><rect class="cls-6" x="93.22" y="53.94" width="7.44" height="3.52"/><rect class="cls-6" x="92.05" y="48.73" width="3.52" height="8.73"/><rect class="cls-6" x="97.14" y="48.73" width="3.52" height="8.73"/><rect class="cls-6" x="97.14" y="60.09" width="3.52" height="6.15"/><rect class="cls-6" x="104.6" y="32.55" width="14.88" height="3.52"/><rect class="cls-6" x="104.6" y="32.55" width="3.52" height="14.88"/><rect class="cls-6" x="115.95" y="32.55" width="3.52" height="7.44"/><rect class="cls-6" x="110.74" y="39.98" width="3.52" height="7.44"/><rect class="cls-6" x="110.74" y="38.81" width="8.73" height="3.52"/><rect class="cls-6" x="110.74" y="43.9" width="8.73" height="3.52"/><rect class="cls-6" x="101.97" y="43.9" width="6.15" height="3.52"/><rect class="cls-6" x="122.09" y="32.55" width="14.88" height="3.52"/><rect class="cls-6" x="122.09" y="32.55" width="3.52" height="14.88"/><rect class="cls-6" x="133.45" y="32.55" width="3.52" height="7.44"/><rect class="cls-6" x="128.24" y="39.98" width="3.52" height="7.44"/><rect class="cls-6" x="128.24" y="38.81" width="8.73" height="3.52"/><rect class="cls-6" x="128.24" y="43.9" width="8.73" height="3.52"/><rect class="cls-6" x="119.47" y="43.9" width="6.15" height="3.52"/><rect class="cls-6" x="139.59" y="32.55" width="14.88" height="3.52"/><rect class="cls-6" x="139.59" y="32.55" width="3.52" height="14.88"/><rect class="cls-6" x="150.95" y="32.55" width="3.52" height="7.44"/><rect class="cls-6" x="145.74" y="39.98" width="3.52" height="7.44"/><rect class="cls-6" x="145.74" y="38.81" width="8.73" height="3.52"/><rect class="cls-6" x="145.74" y="43.9" width="8.73" height="3.52"/><rect class="cls-6" x="136.97" y="43.9" width="6.15" height="3.52"/><rect class="cls-6" x="157.09" y="32.55" width="14.88" height="3.52"/><rect class="cls-6" x="157.09" y="32.55" width="3.52" height="14.88"/><rect class="cls-6" x="168.44" y="32.55" width="3.52" height="7.44"/><rect class="cls-6" x="163.24" y="39.98" width="3.52" height="7.44"/><rect class="cls-6" x="163.24" y="38.81" width="8.73" height="3.52"/><rect class="cls-6" x="163.24" y="43.9" width="8.73" height="3.52"/><rect class="cls-6" x="154.47" y="43.9" width="6.15" height="3.52"/><rect class="cls-6" x="174.59" y="32.55" width="14.88" height="3.52"/><rect class="cls-6" x="174.59" y="32.55" width="3.52" height="14.88"/><rect class="cls-6" x="185.94" y="32.55" width="3.52" height="7.44"/><rect class="cls-6" x="180.73" y="39.98" width="3.52" height="7.44"/><rect class="cls-6" x="180.73" y="38.81" width="8.73" height="3.52"/><rect class="cls-6" x="180.73" y="43.9" width="8.73" height="3.52"/><rect class="cls-6" x="171.97" y="43.9" width="6.15" height="3.52"/><rect class="cls-6" x="192.09" y="32.55" width="14.88" height="3.52"/><rect class="cls-6" x="192.09" y="32.55" width="3.52" height="14.88"/><rect class="cls-6" x="203.44" y="32.55" width="3.52" height="7.44"/><rect class="cls-6" x="198.23" y="39.98" width="3.52" height="7.44"/><rect class="cls-6" x="198.23" y="38.81" width="8.73" height="3.52"/><rect class="cls-6" x="198.23" y="43.9" width="8.73" height="3.52"/><rect class="cls-6" x="189.47" y="43.9" width="6.15" height="3.52"/><rect class="cls-6" x="209.59" y="32.55" width="14.88" height="3.52"/><rect class="cls-6" x="209.59" y="32.55" width="3.52" height="14.88"/><rect class="cls-6" x="220.94" y="32.55" width="3.52" height="7.44"/><rect class="cls-6" x="215.73" y="39.98" width="3.52" height="7.44"/><rect class="cls-6" x="215.73" y="38.81" width="8.73" height="3.52"/><rect class="cls-6" x="215.73" y="43.9" width="8.73" height="3.52"/><rect class="cls-6" x="206.96" y="43.9" width="6.15" height="3.52"/><rect class="cls-6" x="227.08" y="32.55" width="14.88" height="3.52"/><rect class="cls-6" x="227.08" y="32.55" width="3.52" height="14.88"/><rect class="cls-6" x="238.44" y="32.55" width="3.52" height="7.44"/><rect class="cls-6" x="233.23" y="39.98" width="3.52" height="7.44"/><rect class="cls-6" x="233.23" y="38.81" width="8.73" height="3.52"/><rect class="cls-6" x="233.23" y="43.9" width="8.73" height="3.52"/><rect class="cls-6" x="224.46" y="43.9" width="6.15" height="3.52"/><rect class="cls-6" x="244.58" y="32.55" width="14.88" height="3.52"/><rect class="cls-6" x="244.58" y="32.55" width="3.52" height="14.88"/><rect class="cls-6" x="255.94" y="32.55" width="3.52" height="7.44"/><rect class="cls-6" x="250.73" y="39.98" width="3.52" height="7.44"/><rect class="cls-6" x="250.73" y="38.81" width="8.73" height="3.52"/><rect class="cls-6" x="250.73" y="43.9" width="8.73" height="3.52"/><rect class="cls-6" x="241.96" y="43.9" width="6.15" height="3.52"/><rect class="cls-6" x="262.08" y="32.55" width="14.88" height="3.52"/><rect class="cls-6" x="262.08" y="32.55" width="3.52" height="14.88"/><rect class="cls-6" x="273.43" y="32.55" width="3.52" height="7.44"/><rect class="cls-6" x="268.23" y="39.98" width="3.52" height="7.44"/><rect class="cls-6" x="268.23" y="38.81" width="8.73" height="3.52"/><rect class="cls-6" x="268.23" y="43.9" width="8.73" height="3.52"/><rect class="cls-6" x="259.46" y="43.9" width="6.15" height="3.52"/><rect class="cls-6" x="279.58" y="32.55" width="14.88" height="3.52"/><rect class="cls-6" x="279.58" y="32.55" width="3.52" height="14.88"/><rect class="cls-6" x="290.93" y="32.55" width="3.52" height="7.44"/><rect class="cls-6" x="285.73" y="39.98" width="3.52" height="7.44"/><rect class="cls-6" x="285.73" y="38.81" width="8.73" height="3.52"/><rect class="cls-6" x="285.73" y="43.9" width="8.73" height="3.52"/><rect class="cls-6" x="276.96" y="43.9" width="6.15" height="3.52"/><rect class="cls-6" x="297.08" y="32.55" width="14.88" height="3.52"/><rect class="cls-6" x="297.08" y="32.55" width="3.52" height="14.88"/><rect class="cls-6" x="308.43" y="32.55" width="3.52" height="7.44"/><rect class="cls-6" x="303.22" y="39.98" width="3.52" height="7.44"/><rect class="cls-6" x="303.22" y="38.81" width="8.73" height="3.52"/><rect class="cls-6" x="303.22" y="43.9" width="8.73" height="3.52"/><rect class="cls-6" x="294.46" y="43.9" width="6.15" height="3.52"/><rect class="cls-6" x="314.58" y="32.55" width="14.88" height="3.52"/><rect class="cls-6" x="314.58" y="32.55" width="3.52" height="14.88"/><rect class="cls-6" x="325.93" y="32.55" width="3.52" height="7.44"/><rect class="cls-6" x="320.72" y="39.98" width="3.52" height="7.44"/><rect class="cls-6" x="320.72" y="38.81" width="8.73" height="3.52"/><rect class="cls-6" x="320.72" y="43.9" width="8.73" height="3.52"/><rect class="cls-6" x="311.95" y="43.9" width="6.15" height="3.52"/><g class="cls-7"><rect class="cls-6" x="342.12" y="401.32" width="3.52" height="14.88"/><rect class="cls-6" x="330.76" y="401.32" width="14.88" height="3.52"/><rect class="cls-6" x="338.2" y="412.68" width="7.44" height="3.52"/><rect class="cls-6" x="330.76" y="407.47" width="7.44" height="3.52"/><rect class="cls-6" x="335.85" y="407.47" width="3.52" height="8.73"/><rect class="cls-6" x="330.76" y="407.47" width="3.52" height="8.73"/><rect class="cls-6" x="330.76" y="398.7" width="3.52" height="6.15"/></g><g class="cls-8"><rect class="cls-6" x="329.45" y="411.37" width="14.88" height="3.52"/><rect class="cls-6" x="340.81" y="400.01" width="3.52" height="14.88"/><rect class="cls-6" x="329.45" y="407.45" width="3.52" height="7.44"/><rect class="cls-6" x="334.66" y="400.01" width="3.52" height="7.44"/><rect class="cls-6" x="329.45" y="405.1" width="8.73" height="3.52"/><rect class="cls-6" x="329.45" y="400.01" width="8.73" height="3.52"/><rect class="cls-6" x="340.81" y="400.01" width="6.15" height="3.52"/></g><g class="cls-9"><rect class="cls-6" x="84.47" y="411.37" width="14.88" height="3.52"/><rect class="cls-6" x="95.83" y="400.01" width="3.52" height="14.88"/><rect class="cls-6" x="84.47" y="407.45" width="3.52" height="7.44"/><rect class="cls-6" x="89.68" y="400.01" width="3.52" height="7.44"/><rect class="cls-6" x="84.47" y="405.1" width="8.73" height="3.52"/><rect class="cls-6" x="84.47" y="400.01" width="8.73" height="3.52"/><rect class="cls-6" x="95.83" y="400.01" width="6.15" height="3.52"/></g><g class="cls-10"><rect class="cls-6" x="85.79" y="398.7" width="3.52" height="14.88"/><rect class="cls-6" x="85.79" y="410.06" width="14.88" height="3.52"/><rect class="cls-6" x="85.79" y="398.7" width="7.44" height="3.52"/><rect class="cls-6" x="93.22" y="403.91" width="7.44" height="3.52"/><rect class="cls-6" x="92.05" y="398.7" width="3.52" height="8.73"/><rect class="cls-6" x="97.14" y="398.7" width="3.52" height="8.73"/><rect class="cls-6" x="97.14" y="410.06" width="3.52" height="6.15"/></g><g class="cls-11"><rect class="cls-6" x="85.79" y="31.24" width="3.52" height="14.88"/><rect class="cls-6" x="85.79" y="42.59" width="14.88" height="3.52"/><rect class="cls-6" x="85.79" y="31.24" width="7.44" height="3.52"/><rect class="cls-6" x="93.22" y="36.44" width="7.44" height="3.52"/><rect class="cls-6" x="92.05" y="31.24" width="3.52" height="8.73"/><rect class="cls-6" x="97.14" y="31.24" width="3.52" height="8.73"/><rect class="cls-6" x="97.14" y="42.59" width="3.52" height="6.15"/></g><g class="cls-12"><rect class="cls-6" x="87.1" y="32.55" width="14.88" height="3.52"/><rect class="cls-6" x="87.1" y="32.55" width="3.52" height="14.88"/><rect class="cls-6" x="98.45" y="32.55" width="3.52" height="7.44"/><rect class="cls-6" x="93.24" y="39.98" width="3.52" height="7.44"/><rect class="cls-6" x="93.24" y="38.81" width="8.73" height="3.52"/><rect class="cls-6" x="93.24" y="43.9" width="8.73" height="3.52"/><rect class="cls-6" x="84.47" y="43.9" width="6.15" height="3.52"/></g><g class="cls-13"><rect class="cls-6" x="332.08" y="32.55" width="14.88" height="3.52"/><rect class="cls-6" x="332.08" y="32.55" width="3.52" height="14.88"/><rect class="cls-6" x="343.43" y="32.55" width="3.52" height="7.44"/><rect class="cls-6" x="338.22" y="39.98" width="3.52" height="7.44"/><rect class="cls-6" x="338.22" y="38.81" width="8.73" height="3.52"/><rect class="cls-6" x="338.22" y="43.9" width="8.73" height="3.52"/><rect class="cls-6" x="329.45" y="43.9" width="6.15" height="3.52"/></g><g class="cls-14"><rect class="cls-6" x="342.12" y="33.86" width="3.52" height="14.88"/><rect class="cls-6" x="330.76" y="33.86" width="14.88" height="3.52"/><rect class="cls-6" x="338.2" y="45.21" width="7.44" height="3.52"/><rect class="cls-6" x="330.76" y="40" width="7.44" height="3.52"/><rect class="cls-6" x="335.85" y="40" width="3.52" height="8.73"/><rect class="cls-6" x="330.76" y="40" width="3.52" height="8.73"/><rect class="cls-6" x="330.76" y="31.24" width="3.52" height="6.15"/></g><rect class="cls-15" x="58.98" y="2.5" width="311.12" height="49.34" rx="23.58" ry="23.58"/><path class="cls-16" d="M346.52,5a21.1,21.1,0,0,1,21.08,21.08v2.19a21.1,21.1,0,0,1-21.08,21.08h-264A21.1,21.1,0,0,1,61.48,28.27V26.08A21.1,21.1,0,0,1,82.56,5h264m0-5h-264A26.15,26.15,0,0,0,56.48,26.08v2.19A26.15,26.15,0,0,0,82.56,54.34h264a26.15,26.15,0,0,0,26.08-26.08V26.08A26.15,26.15,0,0,0,346.52,0Z"/><path class="cls-15" d="M83.83,39.39A12.22,12.22,0,1,1,96,27.17,12.23,12.23,0,0,1,83.83,39.39Z"/><path class="cls-16" d="M83.83,17.46a9.72,9.72,0,1,1-9.72,9.72,9.73,9.73,0,0,1,9.72-9.72m0-5A14.72,14.72,0,1,0,98.55,27.17,14.72,14.72,0,0,0,83.83,12.46Z"/><path class="cls-15" d="M345.27,39.39a12.22,12.22,0,1,1,12.22-12.22A12.23,12.23,0,0,1,345.27,39.39Z"/><path class="cls-16" d="M345.27,17.46a9.72,9.72,0,1,1-9.72,9.72,9.73,9.73,0,0,1,9.72-9.72m0-5A14.72,14.72,0,1,0,360,27.17a14.72,14.72,0,0,0-14.72-14.72Z"/><rect class="cls-15" x="58.98" y="395.17" width="311.12" height="49.34" rx="23.58" ry="23.58"/><path class="cls-16" d="M346.52,397.67a21.1,21.1,0,0,1,21.08,21.08v2.19A21.1,21.1,0,0,1,346.52,442h-264a21.1,21.1,0,0,1-21.08-21.08v-2.19a21.1,21.1,0,0,1,21.08-21.08h264m0-5h-264a26.15,26.15,0,0,0-26.08,26.08v2.19A26.15,26.15,0,0,0,82.56,447h264a26.15,26.15,0,0,0,26.08-26.08v-2.19a26.15,26.15,0,0,0-26.08-26.08Z"/><path class="cls-15" d="M83.83,432.05A12.22,12.22,0,1,1,96,419.84,12.23,12.23,0,0,1,83.83,432.05Z"/><path class="cls-16" d="M83.83,410.12a9.72,9.72,0,1,1-9.72,9.72,9.73,9.73,0,0,1,9.72-9.72m0-5a14.72,14.72,0,1,0,14.72,14.72,14.72,14.72,0,0,0-14.72-14.72Z"/><path class="cls-15" d="M345.27,432.05a12.22,12.22,0,1,1,12.22-12.22A12.23,12.23,0,0,1,345.27,432.05Z"/><path class="cls-16" d="M345.27,410.12a9.72,9.72,0,1,1-9.72,9.72,9.73,9.73,0,0,1,9.72-9.72m0-5A14.72,14.72,0,1,0,360,419.84a14.72,14.72,0,0,0-14.72-14.72Z"/><path class="cls-15" d="M214.54,269.69a99.63,99.63,0,1,1,99.63-99.63A99.74,99.74,0,0,1,214.54,269.69Z"/><path class="cls-16" d="M214.54,72.93a97.13,97.13,0,1,1-97.13,97.13,97.24,97.24,0,0,1,97.13-97.13m0-5A102.13,102.13,0,1,0,316.66,170.06,102.13,102.13,0,0,0,214.54,67.93Z"/><path class="cls-17" d="M255.17,134.57v-.1h0a10.52,10.52,0,0,0-10.52-10.41h-.11L173,123.84l10.63,10.63v81.07h0s0,.07,0,.11A10.52,10.52,0,0,0,194,226.17h60.92v-21l.22-70.53v0Z"/><path class="cls-17" d="M194,205.13h0Z"/><path class="cls-17" d="M194,226.18h0Z"/><path class="cls-18" d="M255.06,205.13H194.14a10.52,10.52,0,1,1,0,21h60.91a10.52,10.52,0,1,0,0-21Z"/><path class="cls-18" d="M183.61,133.81a10.52,10.52,0,1,0-11.06,11.06h11.08V133.81Z"/><rect class="cls-19" x="194.03" y="139.13" width="52.28" height="1.99"/><rect class="cls-19" x="194.03" y="146.88" width="52.28" height="1.99"/><rect class="cls-19" x="194.03" y="154.63" width="52.28" height="1.99"/><rect class="cls-19" x="194.03" y="162.38" width="52.28" height="1.99"/><rect class="cls-19" x="194.03" y="170.14" width="52.28" height="1.99"/><rect class="cls-19" x="194.03" y="177.89" width="52.28" height="1.99"/><rect class="cls-19" x="194.03" y="185.64" width="52.28" height="1.99"/><rect class="cls-20" x="249.07" y="136.46" width="13.88" height="16.19" rx="6.94" ry="6.94" transform="translate(94.4 -101.04) rotate(27.2)"/><rect class="cls-15" x="238.3" y="145.49" width="4.63" height="37.77" transform="translate(101.76 -91.81) rotate(27.2)"/><rect class="cls-16" x="242.42" y="147.61" width="4.63" height="37.77" transform="translate(103.18 -93.46) rotate(27.2)"/><rect class="cls-15" x="246.53" y="149.72" width="4.63" height="37.77" transform="translate(104.6 -95.11) rotate(27.2)"/><rect class="cls-21" x="247.82" y="143.94" width="4.63" height="3.85" transform="translate(94.35 -98.21) rotate(27.2)"/><rect class="cls-22" x="251.93" y="146.06" width="4.63" height="3.85" transform="translate(95.77 -99.86) rotate(27.2)"/><polygon class="cls-23" points="230.26 194.66 241.91 187.15 229.59 180.81 230.26 194.66"/><rect class="cls-21" x="256.05" y="148.17" width="4.63" height="3.85" transform="translate(97.19 -101.5) rotate(27.2)"/><circle class="cls-15" cx="231.98" cy="181.18" r="2.31" transform="translate(-35.21 304.68) rotate(-62.8)"/><circle class="cls-16" cx="236.1" cy="183.29" r="2.31" transform="translate(-34.85 309.49) rotate(-62.8)"/><circle class="cls-15" cx="240.21" cy="185.41" r="2.31" transform="translate(-34.5 314.29) rotate(-62.8)"/><polygon class="cls-24" points="230.26 194.66 233.68 192.46 230.06 190.59 230.26 194.66"/></g></g></svg>