<svg viewBox="0 0 316.12 447.01" xmlns="http://www.w3.org/2000/svg" xmlns:xlink="http://www.w3.org/1999/xlink"><clipPath id="a"><path d="m274.29 398.7v1.31l14.87 14.88v-16.19z"/></clipPath><clipPath id="b"><path d="m272.97 400.01h1.32l14.87 14.88h-16.19z"/></clipPath><clipPath id="c"><path d="m45.49 400.01h-1.31l-14.87 14.88h16.18z"/></clipPath><clipPath id="d"><path d="m44.18 398.7v1.31l-14.87 14.88v-16.19z"/></clipPath><clipPath id="e"><path d="m44.18 48.73v-1.31l-14.87-14.87v16.18z"/></clipPath><clipPath id="f"><path d="m45.49 47.42h-1.31l-14.87-14.87h16.18z"/></clipPath><clipPath id="g"><path d="m272.97 47.42h1.32l14.87-14.87h-16.19z"/></clipPath><clipPath id="h"><path d="m274.29 48.73v-1.31l14.87-14.87v16.18z"/></clipPath><path d="m20.48 44.38h275.96v358.68h-275.96z" fill="#efeae6"/><path d="m293.94 46.88v353.68h-270.94v-353.68h271m5-5h-281v363.68h281z" fill="#c1b49a"/><g fill="#dcd7cd"><path d="m285.64 51.36h3.52v14.88h-3.52z"/><path d="m274.28 51.36h14.88v3.52h-14.88z"/><path d="m281.72 62.71h7.44v3.52h-7.44z"/><path d="m274.28 57.5h7.44v3.52h-7.44z"/><path d="m279.37 57.5h3.52v8.73h-3.52z"/><path d="m274.28 57.5h3.52v8.73h-3.52z"/><path d="m274.28 48.73h3.52v6.15h-3.52z"/><path d="m285.64 68.85h3.52v14.88h-3.52z"/><path d="m274.28 68.85h14.88v3.52h-14.88z"/><path d="m281.72 80.21h7.44v3.52h-7.44z"/><path d="m274.28 75h7.44v3.52h-7.44z"/><path d="m279.37 75h3.52v8.73h-3.52z"/><path d="m274.28 75h3.52v8.73h-3.52z"/><path d="m274.28 66.23h3.52v6.15h-3.52z"/><path d="m285.64 86.35h3.52v14.88h-3.52z"/><path d="m274.28 86.35h14.88v3.52h-14.88z"/><path d="m281.72 97.71h7.44v3.52h-7.44z"/><path d="m274.28 92.5h7.44v3.52h-7.44z"/><path d="m279.37 92.5h3.52v8.73h-3.52z"/><path d="m274.28 92.5h3.52v8.73h-3.52z"/><path d="m274.28 83.73h3.52v6.15h-3.52z"/><path d="m285.64 103.85h3.52v14.88h-3.52z"/><path d="m274.28 103.85h14.88v3.52h-14.88z"/><path d="m281.72 115.2h7.44v3.52h-7.44z"/><path d="m274.28 110h7.44v3.52h-7.44z"/><path d="m279.37 110h3.52v8.73h-3.52z"/><path d="m274.28 110h3.52v8.73h-3.52z"/><path d="m274.28 101.23h3.52v6.15h-3.52z"/><path d="m285.64 121.35h3.52v14.88h-3.52z"/><path d="m274.28 121.35h14.88v3.52h-14.88z"/><path d="m281.72 132.7h7.44v3.52h-7.44z"/><path d="m274.28 127.5h7.44v3.52h-7.44z"/><path d="m279.37 127.5h3.52v8.73h-3.52z"/><path d="m274.28 127.5h3.52v8.73h-3.52z"/><path d="m274.28 118.73h3.52v6.15h-3.52z"/><path d="m285.64 138.85h3.52v14.88h-3.52z"/><path d="m274.28 138.85h14.88v3.52h-14.88z"/><path d="m281.72 150.2h7.44v3.52h-7.44z"/><path d="m274.28 144.99h7.44v3.52h-7.44z"/><path d="m279.37 144.99h3.52v8.73h-3.52z"/><path d="m274.28 144.99h3.52v8.73h-3.52z"/><path d="m274.28 136.23h3.52v6.15h-3.52z"/><path d="m285.64 156.35h3.52v14.88h-3.52z"/><path d="m274.28 156.35h14.88v3.52h-14.88z"/><path d="m281.72 167.7h7.44v3.52h-7.44z"/><path d="m274.28 162.49h7.44v3.52h-7.44z"/><path d="m279.37 162.49h3.52v8.73h-3.52z"/><path d="m274.28 162.49h3.52v8.73h-3.52z"/><path d="m274.28 153.72h3.52v6.15h-3.52z"/><path d="m285.64 173.85h3.52v14.88h-3.52z"/><path d="m274.28 173.85h14.88v3.52h-14.88z"/><path d="m281.72 185.2h7.44v3.52h-7.44z"/><path d="m274.28 179.99h7.44v3.52h-7.44z"/><path d="m279.37 179.99h3.52v8.73h-3.52z"/><path d="m274.28 179.99h3.52v8.73h-3.52z"/><path d="m274.28 171.22h3.52v6.15h-3.52z"/><path d="m285.64 191.34h3.52v14.88h-3.52z"/><path d="m274.28 191.34h14.88v3.52h-14.88z"/><path d="m281.72 202.7h7.44v3.52h-7.44z"/><path d="m274.28 197.49h7.44v3.52h-7.44z"/><path d="m279.37 197.49h3.52v8.73h-3.52z"/><path d="m274.28 197.49h3.52v8.73h-3.52z"/><path d="m274.28 188.72h3.52v6.15h-3.52z"/><path d="m285.64 208.84h3.52v14.88h-3.52z"/><path d="m274.28 208.84h14.88v3.52h-14.88z"/><path d="m281.72 220.19h7.44v3.52h-7.44z"/><path d="m274.28 214.99h7.44v3.52h-7.44z"/><path d="m279.37 214.99h3.52v8.73h-3.52z"/><path d="m274.28 214.99h3.52v8.73h-3.52z"/><path d="m274.28 206.22h3.52v6.15h-3.52z"/><path d="m285.64 226.34h3.52v14.88h-3.52z"/><path d="m274.28 226.34h14.88v3.52h-14.88z"/><path d="m281.72 237.69h7.44v3.52h-7.44z"/><path d="m274.28 232.49h7.44v3.52h-7.44z"/><path d="m279.37 232.49h3.52v8.73h-3.52z"/><path d="m274.28 232.49h3.52v8.73h-3.52z"/><path d="m274.28 223.72h3.52v6.15h-3.52z"/><path d="m285.64 243.84h3.52v14.88h-3.52z"/><path d="m274.28 243.84h14.88v3.52h-14.88z"/><path d="m281.72 255.19h7.44v3.52h-7.44z"/><path d="m274.28 249.98h7.44v3.52h-7.44z"/><path d="m279.37 249.98h3.52v8.73h-3.52z"/><path d="m274.28 249.98h3.52v8.73h-3.52z"/><path d="m274.28 241.22h3.52v6.15h-3.52z"/><path d="m285.64 261.34h3.52v14.88h-3.52z"/><path d="m274.28 261.34h14.88v3.52h-14.88z"/><path d="m281.72 272.69h7.44v3.52h-7.44z"/><path d="m274.28 267.48h7.44v3.52h-7.44z"/><path d="m279.37 267.48h3.52v8.73h-3.52z"/><path d="m274.28 267.48h3.52v8.73h-3.52z"/><path d="m274.28 258.72h3.52v6.15h-3.52z"/><path d="m285.64 278.84h3.52v14.88h-3.52z"/><path d="m274.28 278.84h14.88v3.52h-14.88z"/><path d="m281.72 290.19h7.44v3.52h-7.44z"/><path d="m274.28 284.98h7.44v3.52h-7.44z"/><path d="m279.37 284.98h3.52v8.73h-3.52z"/><path d="m274.28 284.98h3.52v8.73h-3.52z"/><path d="m274.28 276.21h3.52v6.15h-3.52z"/><path d="m285.64 296.33h3.52v14.88h-3.52z"/><path d="m274.28 296.33h14.88v3.52h-14.88z"/><path d="m281.72 307.69h7.44v3.52h-7.44z"/><path d="m274.28 302.48h7.44v3.52h-7.44z"/><path d="m279.37 302.48h3.52v8.73h-3.52z"/><path d="m274.28 302.48h3.52v8.73h-3.52z"/><path d="m274.28 293.71h3.52v6.15h-3.52z"/><path d="m285.64 313.83h3.52v14.88h-3.52z"/><path d="m274.28 313.83h14.88v3.52h-14.88z"/><path d="m281.72 325.19h7.44v3.52h-7.44z"/><path d="m274.28 319.98h7.44v3.52h-7.44z"/><path d="m279.37 319.98h3.52v8.73h-3.52z"/><path d="m274.28 319.98h3.52v8.73h-3.52z"/><path d="m274.28 311.21h3.52v6.15h-3.52z"/><path d="m285.64 331.33h3.52v14.88h-3.52z"/><path d="m274.28 331.33h14.88v3.52h-14.88z"/><path d="m281.72 342.68h7.44v3.52h-7.44z"/><path d="m274.28 337.48h7.44v3.52h-7.44z"/><path d="m279.37 337.48h3.52v8.73h-3.52z"/><path d="m274.28 337.48h3.52v8.73h-3.52z"/><path d="m274.28 328.71h3.52v6.15h-3.52z"/><path d="m285.64 348.83h3.52v14.88h-3.52z"/><path d="m274.28 348.83h14.88v3.52h-14.88z"/><path d="m281.72 360.18h7.44v3.52h-7.44z"/><path d="m274.28 354.98h7.44v3.52h-7.44z"/><path d="m279.37 354.98h3.52v8.73h-3.52z"/><path d="m274.28 354.98h3.52v8.73h-3.52z"/><path d="m274.28 346.21h3.52v6.15h-3.52z"/><path d="m285.64 366.33h3.52v14.88h-3.52z"/><path d="m274.28 366.33h14.88v3.52h-14.88z"/><path d="m281.72 377.68h7.44v3.52h-7.44z"/><path d="m274.28 372.47h7.44v3.52h-7.44z"/><path d="m279.37 372.47h3.52v8.73h-3.52z"/><path d="m274.28 372.47h3.52v8.73h-3.52z"/><path d="m274.28 363.71h3.52v6.15h-3.52z"/><path d="m285.64 383.83h3.52v14.88h-3.52z"/><path d="m274.28 383.83h14.88v3.52h-14.88z"/><path d="m281.72 395.18h7.44v3.52h-7.44z"/><path d="m274.28 389.97h7.44v3.52h-7.44z"/><path d="m279.37 389.97h3.52v8.73h-3.52z"/><path d="m274.28 389.97h3.52v8.73h-3.52z"/><path d="m274.28 381.2h3.52v6.15h-3.52z"/><path d="m255.48 411.37h14.88v3.52h-14.88z"/><path d="m266.83 400.01h3.52v14.88h-3.52z"/><path d="m255.48 407.45h3.52v7.44h-3.52z"/><path d="m260.68 400.01h3.52v7.44h-3.52z"/><path d="m255.48 405.1h8.73v3.52h-8.73z"/><path d="m255.48 400.01h8.73v3.52h-8.73z"/><path d="m266.83 400.01h6.15v3.52h-6.15z"/><path d="m237.98 411.37h14.88v3.52h-14.88z"/><path d="m249.33 400.01h3.52v14.88h-3.52z"/><path d="m237.98 407.45h3.52v7.44h-3.52z"/><path d="m243.18 400.01h3.52v7.44h-3.52z"/><path d="m237.98 405.1h8.73v3.52h-8.73z"/><path d="m237.98 400.01h8.73v3.52h-8.73z"/><path d="m249.33 400.01h6.15v3.52h-6.15z"/><path d="m220.48 411.37h14.88v3.52h-14.88z"/><path d="m231.83 400.01h3.52v14.88h-3.52z"/><path d="m220.48 407.45h3.52v7.44h-3.52z"/><path d="m225.69 400.01h3.52v7.44h-3.52z"/><path d="m220.48 405.1h8.73v3.52h-8.73z"/><path d="m220.48 400.01h8.73v3.52h-8.73z"/><path d="m231.83 400.01h6.15v3.52h-6.15z"/><path d="m202.98 411.37h14.88v3.52h-14.88z"/><path d="m214.33 400.01h3.52v14.88h-3.52z"/><path d="m202.98 407.45h3.52v7.44h-3.52z"/><path d="m208.19 400.01h3.52v7.44h-3.52z"/><path d="m202.98 405.1h8.73v3.52h-8.73z"/><path d="m202.98 400.01h8.73v3.52h-8.73z"/><path d="m214.33 400.01h6.15v3.52h-6.15z"/><path d="m185.48 411.37h14.88v3.52h-14.88z"/><path d="m196.83 400.01h3.52v14.88h-3.52z"/><path d="m185.48 407.45h3.52v7.44h-3.52z"/><path d="m190.69 400.01h3.52v7.44h-3.52z"/><path d="m185.48 405.1h8.73v3.52h-8.73z"/><path d="m185.48 400.01h8.73v3.52h-8.73z"/><path d="m196.83 400.01h6.15v3.52h-6.15z"/><path d="m167.98 411.37h14.88v3.52h-14.88z"/><path d="m179.34 400.01h3.52v14.88h-3.52z"/><path d="m167.98 407.45h3.52v7.44h-3.52z"/><path d="m173.19 400.01h3.52v7.44h-3.52z"/><path d="m167.98 405.1h8.73v3.52h-8.73z"/><path d="m167.98 400.01h8.73v3.52h-8.73z"/><path d="m179.34 400.01h6.15v3.52h-6.15z"/><path d="m150.48 411.37h14.88v3.52h-14.88z"/><path d="m161.84 400.01h3.52v14.88h-3.52z"/><path d="m150.48 407.45h3.52v7.44h-3.52z"/><path d="m155.69 400.01h3.52v7.44h-3.52z"/><path d="m150.48 405.1h8.73v3.52h-8.73z"/><path d="m150.48 400.01h8.73v3.52h-8.73z"/><path d="m161.84 400.01h6.15v3.52h-6.15z"/><path d="m132.99 411.37h14.88v3.52h-14.88z"/><path d="m144.34 400.01h3.52v14.88h-3.52z"/><path d="m132.99 407.45h3.52v7.44h-3.52z"/><path d="m138.19 400.01h3.52v7.44h-3.52z"/><path d="m132.99 405.1h8.73v3.52h-8.73z"/><path d="m132.99 400.01h8.73v3.52h-8.73z"/><path d="m144.34 400.01h6.15v3.52h-6.15z"/><path d="m115.49 411.37h14.88v3.52h-14.88z"/><path d="m126.84 400.01h3.52v14.88h-3.52z"/><path d="m115.49 407.45h3.52v7.44h-3.52z"/><path d="m120.7 400.01h3.52v7.44h-3.52z"/><path d="m115.49 405.1h8.73v3.52h-8.73z"/><path d="m115.49 400.01h8.73v3.52h-8.73z"/><path d="m126.84 400.01h6.15v3.52h-6.15z"/><path d="m97.99 411.37h14.88v3.52h-14.88z"/><path d="m109.34 400.01h3.52v14.88h-3.52z"/><path d="m97.99 407.45h3.52v7.44h-3.52z"/><path d="m103.2 400.01h3.52v7.44h-3.52z"/><path d="m97.99 405.1h8.73v3.52h-8.73z"/><path d="m97.99 400.01h8.73v3.52h-8.73z"/><path d="m109.34 400.01h6.15v3.52h-6.15z"/><path d="m80.49 411.37h14.88v3.52h-14.88z"/><path d="m91.84 400.01h3.52v14.88h-3.52z"/><path d="m80.49 407.45h3.52v7.44h-3.52z"/><path d="m85.7 400.01h3.52v7.44h-3.52z"/><path d="m80.49 405.1h8.73v3.52h-8.73z"/><path d="m80.49 400.01h8.73v3.52h-8.73z"/><path d="m91.84 400.01h6.15v3.52h-6.15z"/><path d="m62.99 411.37h14.88v3.52h-14.88z"/><path d="m74.35 400.01h3.52v14.88h-3.52z"/><path d="m62.99 407.45h3.52v7.44h-3.52z"/><path d="m68.2 400.01h3.52v7.44h-3.52z"/><path d="m62.99 405.1h8.73v3.52h-8.73z"/><path d="m62.99 400.01h8.73v3.52h-8.73z"/><path d="m74.35 400.01h6.15v3.52h-6.15z"/><path d="m45.49 411.37h14.88v3.52h-14.88z"/><path d="m56.85 400.01h3.52v14.88h-3.52z"/><path d="m45.49 407.45h3.52v7.44h-3.52z"/><path d="m50.7 400.01h3.52v7.44h-3.52z"/><path d="m45.49 405.1h8.73v3.52h-8.73z"/><path d="m45.49 400.01h8.73v3.52h-8.73z"/><path d="m56.85 400.01h6.15v3.52h-6.15z"/><path d="m29.31 381.2h3.52v14.88h-3.52z"/><path d="m29.31 392.56h14.88v3.52h-14.88z"/><path d="m29.31 381.2h7.44v3.52h-7.44z"/><path d="m36.74 386.41h7.44v3.52h-7.44z"/><path d="m35.57 381.2h3.52v8.73h-3.52z"/><path d="m40.66 381.2h3.52v8.73h-3.52z"/><path d="m40.66 392.56h3.52v6.15h-3.52z"/><path d="m29.31 363.71h3.52v14.88h-3.52z"/><path d="m29.31 375.06h14.88v3.52h-14.88z"/><path d="m29.31 363.71h7.44v3.52h-7.44z"/><path d="m36.74 368.91h7.44v3.52h-7.44z"/><path d="m35.57 363.71h3.52v8.73h-3.52z"/><path d="m40.66 363.71h3.52v8.73h-3.52z"/><path d="m40.66 375.06h3.52v6.15h-3.52z"/><path d="m29.31 346.21h3.52v14.88h-3.52z"/><path d="m29.31 357.56h14.88v3.52h-14.88z"/><path d="m29.31 346.21h7.44v3.52h-7.44z"/><path d="m36.74 351.42h7.44v3.52h-7.44z"/><path d="m35.57 346.21h3.52v8.73h-3.52z"/><path d="m40.66 346.21h3.52v8.73h-3.52z"/><path d="m40.66 357.56h3.52v6.15h-3.52z"/><path d="m29.31 328.71h3.52v14.88h-3.52z"/><path d="m29.31 340.06h14.88v3.52h-14.88z"/><path d="m29.31 328.71h7.44v3.52h-7.44z"/><path d="m36.74 333.92h7.44v3.52h-7.44z"/><path d="m35.57 328.71h3.52v8.73h-3.52z"/><path d="m40.66 328.71h3.52v8.73h-3.52z"/><path d="m40.66 340.06h3.52v6.15h-3.52z"/><path d="m29.31 311.21h3.52v14.88h-3.52z"/><path d="m29.31 322.56h14.88v3.52h-14.88z"/><path d="m29.31 311.21h7.44v3.52h-7.44z"/><path d="m36.74 316.42h7.44v3.52h-7.44z"/><path d="m35.57 311.21h3.52v8.73h-3.52z"/><path d="m40.66 311.21h3.52v8.73h-3.52z"/><path d="m40.66 322.56h3.52v6.15h-3.52z"/><path d="m29.31 293.71h3.52v14.88h-3.52z"/><path d="m29.31 305.06h14.88v3.52h-14.88z"/><path d="m29.31 293.71h7.44v3.52h-7.44z"/><path d="m36.74 298.92h7.44v3.52h-7.44z"/><path d="m35.57 293.71h3.52v8.73h-3.52z"/><path d="m40.66 293.71h3.52v8.73h-3.52z"/><path d="m40.66 305.06h3.52v6.15h-3.52z"/><path d="m29.31 276.21h3.52v14.88h-3.52z"/><path d="m29.31 287.57h14.88v3.52h-14.88z"/><path d="m29.31 276.21h7.44v3.52h-7.44z"/><path d="m36.74 281.42h7.44v3.52h-7.44z"/><path d="m35.57 276.21h3.52v8.73h-3.52z"/><path d="m40.66 276.21h3.52v8.73h-3.52z"/><path d="m40.66 287.57h3.52v6.15h-3.52z"/><path d="m29.31 258.72h3.52v14.88h-3.52z"/><path d="m29.31 270.07h14.88v3.52h-14.88z"/><path d="m29.31 258.72h7.44v3.52h-7.44z"/><path d="m36.74 263.92h7.44v3.52h-7.44z"/><path d="m35.57 258.72h3.52v8.73h-3.52z"/><path d="m40.66 258.72h3.52v8.73h-3.52z"/><path d="m40.66 270.07h3.52v6.15h-3.52z"/><path d="m29.31 241.22h3.52v14.88h-3.52z"/><path d="m29.31 252.57h14.88v3.52h-14.88z"/><path d="m29.31 241.22h7.44v3.52h-7.44z"/><path d="m36.74 246.42h7.44v3.52h-7.44z"/><path d="m35.57 241.22h3.52v8.73h-3.52z"/><path d="m40.66 241.22h3.52v8.73h-3.52z"/><path d="m40.66 252.57h3.52v6.15h-3.52z"/><path d="m29.31 223.72h3.52v14.88h-3.52z"/><path d="m29.31 235.07h14.88v3.52h-14.88z"/><path d="m29.31 223.72h7.44v3.52h-7.44z"/><path d="m36.74 228.93h7.44v3.52h-7.44z"/><path d="m35.57 223.72h3.52v8.73h-3.52z"/><path d="m40.66 223.72h3.52v8.73h-3.52z"/><path d="m40.66 235.07h3.52v6.15h-3.52z"/><path d="m29.31 206.22h3.52v14.88h-3.52z"/><path d="m29.31 217.57h14.88v3.52h-14.88z"/><path d="m29.31 206.22h7.44v3.52h-7.44z"/><path d="m36.74 211.43h7.44v3.52h-7.44z"/><path d="m35.57 206.22h3.52v8.73h-3.52z"/><path d="m40.66 206.22h3.52v8.73h-3.52z"/><path d="m40.66 217.57h3.52v6.15h-3.52z"/><path d="m29.31 188.72h3.52v14.88h-3.52z"/><path d="m29.31 200.07h14.88v3.52h-14.88z"/><path d="m29.31 188.72h7.44v3.52h-7.44z"/><path d="m36.74 193.93h7.44v3.52h-7.44z"/><path d="m35.57 188.72h3.52v8.73h-3.52z"/><path d="m40.66 188.72h3.52v8.73h-3.52z"/><path d="m40.66 200.07h3.52v6.15h-3.52z"/><path d="m29.31 171.22h3.52v14.88h-3.52z"/><path d="m29.31 182.58h14.88v3.52h-14.88z"/><path d="m29.31 171.22h7.44v3.52h-7.44z"/><path d="m36.74 176.43h7.44v3.52h-7.44z"/><path d="m35.57 171.22h3.52v8.73h-3.52z"/><path d="m40.66 171.22h3.52v8.73h-3.52z"/><path d="m40.66 182.58h3.52v6.15h-3.52z"/><path d="m29.31 153.72h3.52v14.88h-3.52z"/><path d="m29.31 165.08h14.88v3.52h-14.88z"/><path d="m29.31 153.72h7.44v3.52h-7.44z"/><path d="m36.74 158.93h7.44v3.52h-7.44z"/><path d="m35.57 153.72h3.52v8.73h-3.52z"/><path d="m40.66 153.72h3.52v8.73h-3.52z"/><path d="m40.66 165.08h3.52v6.15h-3.52z"/><path d="m29.31 136.23h3.52v14.88h-3.52z"/><path d="m29.31 147.58h14.88v3.52h-14.88z"/><path d="m29.31 136.23h7.44v3.52h-7.44z"/><path d="m36.74 141.43h7.44v3.52h-7.44z"/><path d="m35.57 136.23h3.52v8.73h-3.52z"/><path d="m40.66 136.23h3.52v8.73h-3.52z"/><path d="m40.66 147.58h3.52v6.15h-3.52z"/><path d="m29.31 118.73h3.52v14.88h-3.52z"/><path d="m29.31 130.08h14.88v3.52h-14.88z"/><path d="m29.31 118.73h7.44v3.52h-7.44z"/><path d="m36.74 123.94h7.44v3.52h-7.44z"/><path d="m35.57 118.73h3.52v8.73h-3.52z"/><path d="m40.66 118.73h3.52v8.73h-3.52z"/><path d="m40.66 130.08h3.52v6.15h-3.52z"/><path d="m29.31 101.23h3.52v14.88h-3.52z"/><path d="m29.31 112.58h14.88v3.52h-14.88z"/><path d="m29.31 101.23h7.44v3.52h-7.44z"/><path d="m36.74 106.44h7.44v3.52h-7.44z"/><path d="m35.57 101.23h3.52v8.73h-3.52z"/><path d="m40.66 101.23h3.52v8.73h-3.52z"/><path d="m40.66 112.58h3.52v6.15h-3.52z"/><path d="m29.31 83.73h3.52v14.88h-3.52z"/><path d="m29.31 95.08h14.88v3.52h-14.88z"/><path d="m29.31 83.73h7.44v3.52h-7.44z"/><path d="m36.74 88.94h7.44v3.52h-7.44z"/><path d="m35.57 83.73h3.52v8.73h-3.52z"/><path d="m40.66 83.73h3.52v8.73h-3.52z"/><path d="m40.66 95.08h3.52v6.15h-3.52z"/><path d="m29.31 66.23h3.52v14.88h-3.52z"/><path d="m29.31 77.59h14.88v3.52h-14.88z"/><path d="m29.31 66.23h7.44v3.52h-7.44z"/><path d="m36.74 71.44h7.44v3.52h-7.44z"/><path d="m35.57 66.23h3.52v8.73h-3.52z"/><path d="m40.66 66.23h3.52v8.73h-3.52z"/><path d="m40.66 77.59h3.52v6.15h-3.52z"/><path d="m29.31 48.73h3.52v14.88h-3.52z"/><path d="m29.31 60.09h14.88v3.52h-14.88z"/><path d="m29.31 48.73h7.44v3.52h-7.44z"/><path d="m36.74 53.94h7.44v3.52h-7.44z"/><path d="m35.57 48.73h3.52v8.73h-3.52z"/><path d="m40.66 48.73h3.52v8.73h-3.52z"/><path d="m40.66 60.09h3.52v6.15h-3.52z"/><path d="m48.12 32.55h14.88v3.52h-14.88z"/><path d="m48.12 32.55h3.52v14.88h-3.52z"/><path d="m59.47 32.55h3.52v7.44h-3.52z"/><path d="m54.26 39.98h3.52v7.44h-3.52z"/><path d="m54.26 38.81h8.73v3.52h-8.73z"/><path d="m54.26 43.9h8.73v3.52h-8.73z"/><path d="m45.49 43.9h6.15v3.52h-6.15z"/><path d="m65.61 32.55h14.88v3.52h-14.88z"/><path d="m65.61 32.55h3.52v14.88h-3.52z"/><path d="m76.97 32.55h3.52v7.44h-3.52z"/><path d="m71.76 39.98h3.52v7.44h-3.52z"/><path d="m71.76 38.81h8.73v3.52h-8.73z"/><path d="m71.76 43.9h8.73v3.52h-8.73z"/><path d="m62.99 43.9h6.15v3.52h-6.15z"/><path d="m83.11 32.55h14.88v3.52h-14.88z"/><path d="m83.11 32.55h3.52v14.88h-3.52z"/><path d="m94.47 32.55h3.52v7.44h-3.52z"/><path d="m89.26 39.98h3.52v7.44h-3.52z"/><path d="m89.26 38.81h8.73v3.52h-8.73z"/><path d="m89.26 43.9h8.73v3.52h-8.73z"/><path d="m80.49 43.9h6.15v3.52h-6.15z"/><path d="m100.61 32.55h14.88v3.52h-14.88z"/><path d="m100.61 32.55h3.52v14.88h-3.52z"/><path d="m111.96 32.55h3.52v7.44h-3.52z"/><path d="m106.76 39.98h3.52v7.44h-3.52z"/><path d="m106.76 38.81h8.73v3.52h-8.73z"/><path d="m106.76 43.9h8.73v3.52h-8.73z"/><path d="m97.99 43.9h6.15v3.52h-6.15z"/><path d="m118.11 32.55h14.88v3.52h-14.88z"/><path d="m118.11 32.55h3.52v14.88h-3.52z"/><path d="m129.46 32.55h3.52v7.44h-3.52z"/><path d="m124.26 39.98h3.52v7.44h-3.52z"/><path d="m124.26 38.81h8.73v3.52h-8.73z"/><path d="m124.26 43.9h8.73v3.52h-8.73z"/><path d="m115.49 43.9h6.15v3.52h-6.15z"/><path d="m135.61 32.55h14.88v3.52h-14.88z"/><path d="m135.61 32.55h3.52v14.88h-3.52z"/><path d="m146.96 32.55h3.52v7.44h-3.52z"/><path d="m141.75 39.98h3.52v7.44h-3.52z"/><path d="m141.75 38.81h8.73v3.52h-8.73z"/><path d="m141.75 43.9h8.73v3.52h-8.73z"/><path d="m132.99 43.9h6.15v3.52h-6.15z"/><path d="m153.11 32.55h14.88v3.52h-14.88z"/><path d="m153.11 32.55h3.52v14.88h-3.52z"/><path d="m164.46 32.55h3.52v7.44h-3.52z"/><path d="m159.25 39.98h3.52v7.44h-3.52z"/><path d="m159.25 38.81h8.73v3.52h-8.73z"/><path d="m159.25 43.9h8.73v3.52h-8.73z"/><path d="m150.48 43.9h6.15v3.52h-6.15z"/><path d="m170.61 32.55h14.88v3.52h-14.88z"/><path d="m170.61 32.55h3.52v14.88h-3.52z"/><path d="m181.96 32.55h3.52v7.44h-3.52z"/><path d="m176.75 39.98h3.52v7.44h-3.52z"/><path d="m176.75 38.81h8.73v3.52h-8.73z"/><path d="m176.75 43.9h8.73v3.52h-8.73z"/><path d="m167.98 43.9h6.15v3.52h-6.15z"/><path d="m188.1 32.55h14.88v3.52h-14.88z"/><path d="m188.1 32.55h3.52v14.88h-3.52z"/><path d="m199.46 32.55h3.52v7.44h-3.52z"/><path d="m194.25 39.98h3.52v7.44h-3.52z"/><path d="m194.25 38.81h8.73v3.52h-8.73z"/><path d="m194.25 43.9h8.73v3.52h-8.73z"/><path d="m185.48 43.9h6.15v3.52h-6.15z"/><path d="m205.6 32.55h14.88v3.52h-14.88z"/><path d="m205.6 32.55h3.52v14.88h-3.52z"/><path d="m216.96 32.55h3.52v7.44h-3.52z"/><path d="m211.75 39.98h3.52v7.44h-3.52z"/><path d="m211.75 38.81h8.73v3.52h-8.73z"/><path d="m211.75 43.9h8.73v3.52h-8.73z"/><path d="m202.98 43.9h6.15v3.52h-6.15z"/><path d="m223.1 32.55h14.88v3.52h-14.88z"/><path d="m223.1 32.55h3.52v14.88h-3.52z"/><path d="m234.45 32.55h3.52v7.44h-3.52z"/><path d="m229.25 39.98h3.52v7.44h-3.52z"/><path d="m229.25 38.81h8.73v3.52h-8.73z"/><path d="m229.25 43.9h8.73v3.52h-8.73z"/><path d="m220.48 43.9h6.15v3.52h-6.15z"/><path d="m240.6 32.55h14.88v3.52h-14.88z"/><path d="m240.6 32.55h3.52v14.88h-3.52z"/><path d="m251.95 32.55h3.52v7.44h-3.52z"/><path d="m246.74 39.98h3.52v7.44h-3.52z"/><path d="m246.74 38.81h8.73v3.52h-8.73z"/><path d="m246.74 43.9h8.73v3.52h-8.73z"/><path d="m237.98 43.9h6.15v3.52h-6.15z"/><path d="m258.1 32.55h14.88v3.52h-14.88z"/><path d="m258.1 32.55h3.52v14.88h-3.52z"/><path d="m269.45 32.55h3.52v7.44h-3.52z"/><path d="m264.24 39.98h3.52v7.44h-3.52z"/><path d="m264.24 38.81h8.73v3.52h-8.73z"/><path d="m264.24 43.9h8.73v3.52h-8.73z"/><path d="m255.48 43.9h6.15v3.52h-6.15z"/><g clip-path="url(#a)"><path d="m285.64 401.32h3.52v14.88h-3.52z"/><path d="m274.28 401.32h14.88v3.52h-14.88z"/><path d="m281.72 412.68h7.44v3.52h-7.44z"/><path d="m274.28 407.47h7.44v3.52h-7.44z"/><path d="m279.37 407.47h3.52v8.73h-3.52z"/><path d="m274.28 407.47h3.52v8.73h-3.52z"/><path d="m274.28 398.7h3.52v6.15h-3.52z"/></g><g clip-path="url(#b)"><path d="m272.97 411.37h14.88v3.52h-14.88z"/><path d="m284.33 400.01h3.52v14.88h-3.52z"/><path d="m272.97 407.45h3.52v7.44h-3.52z"/><path d="m278.18 400.01h3.52v7.44h-3.52z"/><path d="m272.97 405.1h8.73v3.52h-8.73z"/><path d="m272.97 400.01h8.73v3.52h-8.73z"/><path d="m284.33 400.01h6.15v3.52h-6.15z"/></g><g clip-path="url(#c)"><path d="m28 411.37h14.88v3.52h-14.88z"/><path d="m39.35 400.01h3.52v14.88h-3.52z"/><path d="m28 407.45h3.52v7.44h-3.52z"/><path d="m33.2 400.01h3.52v7.44h-3.52z"/><path d="m28 405.1h8.73v3.52h-8.73z"/><path d="m28 400.01h8.73v3.52h-8.73z"/><path d="m39.35 400.01h6.15v3.52h-6.15z"/></g><g clip-path="url(#d)"><path d="m29.31 398.7h3.52v14.88h-3.52z"/><path d="m29.31 410.06h14.88v3.52h-14.88z"/><path d="m29.31 398.7h7.44v3.52h-7.44z"/><path d="m36.74 403.91h7.44v3.52h-7.44z"/><path d="m35.57 398.7h3.52v8.73h-3.52z"/><path d="m40.66 398.7h3.52v8.73h-3.52z"/><path d="m40.66 410.06h3.52v6.15h-3.52z"/></g><g clip-path="url(#e)"><path d="m29.31 31.24h3.52v14.88h-3.52z"/><path d="m29.31 42.59h14.88v3.52h-14.88z"/><path d="m29.31 31.24h7.44v3.52h-7.44z"/><path d="m36.74 36.44h7.44v3.52h-7.44z"/><path d="m35.57 31.24h3.52v8.73h-3.52z"/><path d="m40.66 31.24h3.52v8.73h-3.52z"/><path d="m40.66 42.59h3.52v6.15h-3.52z"/></g><g clip-path="url(#f)"><path d="m30.62 32.55h14.88v3.52h-14.88z"/><path d="m30.62 32.55h3.52v14.88h-3.52z"/><path d="m41.97 32.55h3.52v7.44h-3.52z"/><path d="m36.76 39.98h3.52v7.44h-3.52z"/><path d="m36.76 38.81h8.73v3.52h-8.73z"/><path d="m36.76 43.9h8.73v3.52h-8.73z"/><path d="m28 43.9h6.15v3.52h-6.15z"/></g><g clip-path="url(#g)"><path d="m275.6 32.55h14.88v3.52h-14.88z"/><path d="m275.6 32.55h3.52v14.88h-3.52z"/><path d="m286.95 32.55h3.52v7.44h-3.52z"/><path d="m281.74 39.98h3.52v7.44h-3.52z"/><path d="m281.74 38.81h8.73v3.52h-8.73z"/><path d="m281.74 43.9h8.73v3.52h-8.73z"/><path d="m272.97 43.9h6.15v3.52h-6.15z"/></g><g clip-path="url(#h)"><path d="m285.64 33.86h3.52v14.88h-3.52z"/><path d="m274.28 33.86h14.88v3.52h-14.88z"/><path d="m281.72 45.21h7.44v3.52h-7.44z"/><path d="m274.28 40h7.44v3.52h-7.44z"/><path d="m279.37 40h3.52v8.73h-3.52z"/><path d="m274.28 40h3.52v8.73h-3.52z"/><path d="m274.28 31.24h3.52v6.15h-3.52z"/></g></g><rect fill="#5c4b43" height="49.34" rx="23.58" width="311.12" x="2.5" y="2.5"/><path d="m290 5a21.1 21.1 0 0 1 21.08 21.08v2.19a21.1 21.1 0 0 1 -21.08 21.07h-264a21.1 21.1 0 0 1 -21-21.07v-2.19a21.1 21.1 0 0 1 21.08-21.08zm0-5h-264a26.15 26.15 0 0 0 -26 26.08v2.19a26.15 26.15 0 0 0 26.08 26.07h263.92a26.15 26.15 0 0 0 26.08-26.08v-2.18a26.15 26.15 0 0 0 -26.08-26.08z" fill="#aa9c94"/><path d="m27.35 39.39a12.22 12.22 0 1 1 12.22-12.22 12.23 12.23 0 0 1 -12.22 12.22z" fill="#5c4b43"/><path d="m27.35 17.46a9.72 9.72 0 1 1 -9.72 9.72 9.73 9.73 0 0 1 9.72-9.72m0-5a14.72 14.72 0 1 0 14.72 14.71 14.72 14.72 0 0 0 -14.72-14.71z" fill="#aa9c94"/><path d="m288.79 39.39a12.22 12.22 0 1 1 12.21-12.22 12.23 12.23 0 0 1 -12.21 12.22z" fill="#5c4b43"/><path d="m288.79 17.46a9.72 9.72 0 1 1 -9.72 9.72 9.73 9.73 0 0 1 9.72-9.72m0-5a14.72 14.72 0 1 0 14.71 14.71 14.72 14.72 0 0 0 -14.72-14.72z" fill="#aa9c94"/><rect fill="#5c4b43" height="49.34" rx="23.58" width="311.12" x="2.5" y="395.17"/><path d="m290 397.67a21.1 21.1 0 0 1 21.08 21.08v2.19a21.1 21.1 0 0 1 -21.08 21.06h-264a21.1 21.1 0 0 1 -21-21.07v-2.19a21.1 21.1 0 0 1 21.08-21.08h263.92m0-5h-264a26.15 26.15 0 0 0 -26 26.08v2.19a26.15 26.15 0 0 0 26.08 26.07h263.92a26.15 26.15 0 0 0 26.08-26.08v-2.19a26.15 26.15 0 0 0 -26.08-26.06z" fill="#aa9c94"/><path d="m27.35 432.05a12.22 12.22 0 1 1 12.22-12.22 12.23 12.23 0 0 1 -12.22 12.22z" fill="#5c4b43"/><path d="m27.35 410.12a9.72 9.72 0 1 1 -9.72 9.72 9.73 9.73 0 0 1 9.72-9.72m0-5a14.72 14.72 0 1 0 14.72 14.72 14.72 14.72 0 0 0 -14.72-14.72z" fill="#aa9c94"/><path d="m288.79 432.05a12.22 12.22 0 1 1 12.21-12.21 12.23 12.23 0 0 1 -12.21 12.21z" fill="#5c4b43"/><path d="m288.79 410.12a9.72 9.72 0 1 1 -9.72 9.72 9.73 9.73 0 0 1 9.72-9.72m0-5a14.72 14.72 0 1 0 14.72 14.72 14.72 14.72 0 0 0 -14.72-14.72z" fill="#aa9c94"/><path d="m158.06 269.69a99.63 99.63 0 1 1 99.63-99.63 99.74 99.74 0 0 1 -99.63 99.63z" fill="#5c4b43"/><path d="m158.06 72.93a97.13 97.13 0 1 1 -97.13 97.13 97.24 97.24 0 0 1 97.13-97.13m0-5a102.13 102.13 0 1 0 102.13 102.13 102.13 102.13 0 0 0 -102.13-102.13z" fill="#aa9c94"/><path d="m198.69 134.57v-.1a10.52 10.52 0 0 0 -10.52-10.41h-.11l-71.55-.22 10.63 10.63v81.07s0 .07 0 .11a10.52 10.52 0 0 0 10.41 10.52h60.92v-21l.22-70.53z" fill="#fff0ca"/><path d="m198.58 205.13h-60.92a10.52 10.52 0 0 1 0 21h60.91a10.52 10.52 0 1 0 0-21z" fill="#e2d2af"/><path d="m127.13 133.81a10.52 10.52 0 1 0 -11.06 11.06h11.08v-11.06z" fill="#e2d2af"/><path d="m137.55 139.13h52.28v1.99h-52.28z" fill="#ecdec2"/><path d="m137.55 146.88h52.28v1.99h-52.28z" fill="#ecdec2"/><path d="m137.55 154.63h52.28v1.99h-52.28z" fill="#ecdec2"/><path d="m137.55 162.38h52.28v1.99h-52.28z" fill="#ecdec2"/><path d="m137.55 170.14h52.28v1.99h-52.28z" fill="#ecdec2"/><path d="m137.55 177.89h52.28v1.99h-52.28z" fill="#ecdec2"/><path d="m137.55 185.64h52.28v1.99h-52.28z" fill="#ecdec2"/><rect fill="#fff" height="16.19" rx="6.94" transform="matrix(.88941637 .45709793 -.45709793 .88941637 88.15 -75.22)" width="13.88" x="192.59" y="136.46"/><path d="m181.82 145.49h4.63v37.77h-4.63z" fill="#5c4b43" transform="matrix(.88941637 .45709793 -.45709793 .88941637 95.51 -65.99)"/><path d="m185.94 147.61h4.63v37.77h-4.63z" fill="#aa9c94" transform="matrix(.88941637 .45709793 -.45709793 .88941637 96.93 -67.64)"/><path d="m190.05 149.72h4.63v37.77h-4.63z" fill="#5c4b43" transform="matrix(.88941637 .45709793 -.45709793 .88941637 98.35 -69.29)"/><path d="m191.34 143.94h4.63v3.85h-4.63z" fill="#e5e4de" transform="matrix(.88941637 .45709793 -.45709793 .88941637 88.1 -72.39)"/><path d="m195.45 146.06h4.63v3.85h-4.63z" fill="#d2d1cd" transform="matrix(.88941637 .45709793 -.45709793 .88941637 89.52 -74.04)"/><path d="m173.78 194.66 11.66-7.51-12.33-6.34z" fill="#fffdf0"/><path d="m199.57 148.17h4.63v3.85h-4.63z" fill="#e5e4de" transform="matrix(.88941637 .45709793 -.45709793 .88941637 90.94 -75.69)"/><circle cx="175.5" cy="181.18" fill="#5c4b43" r="2.31" transform="matrix(.45709793 -.88941637 .88941637 .45709793 -65.87 254.45)"/><circle cx="179.62" cy="183.29" fill="#aa9c94" r="2.31" transform="matrix(.45709793 -.88941637 .88941637 .45709793 -65.51 259.25)"/><circle cx="183.73" cy="185.41" fill="#5c4b43" r="2.31" transform="matrix(.45709793 -.88941637 .88941637 .45709793 -65.16 264.06)"/><path d="m173.78 194.66 3.43-2.2-3.62-1.87z" fill="#191919"/></svg>