<svg viewBox="0 0 432.86 447.01" xmlns="http://www.w3.org/2000/svg" xmlns:xlink="http://www.w3.org/1999/xlink"><linearGradient id="a" gradientUnits="userSpaceOnUse" x1="108.21" x2="108.21" y1="90.25" y2="375.29"><stop offset="0" stop-color="#ffe197"/><stop offset="1" stop-color="#fff"/></linearGradient><linearGradient id="b" x1="324.64" x2="324.64" xlink:href="#a" y1="90.25" y2="375.29"/><clipPath id="c"><path d="m331.95 398.7v1.31l14.88 14.88v-16.19z"/></clipPath><clipPath id="d"><path d="m330.64 400.01h1.31l14.88 14.88h-16.19z"/></clipPath><clipPath id="e"><path d="m103.16 400.01h-1.31l-14.88 14.88h16.19z"/></clipPath><clipPath id="f"><path d="m101.85 398.7v1.31l-14.88 14.88v-16.19z"/></clipPath><clipPath id="g"><path d="m101.85 48.73v-1.31l-14.88-14.87v16.18z"/></clipPath><clipPath id="h"><path d="m103.16 47.42h-1.31l-14.88-14.87h16.19z"/></clipPath><clipPath id="i"><path d="m330.64 47.42h1.31l14.88-14.87h-16.19z"/></clipPath><clipPath id="j"><path d="m331.95 48.73v-1.31l14.88-14.87v16.18z"/></clipPath><path d="m200.15 358.39a149.38 149.38 0 0 1 -17.8-20.79 4.45 4.45 0 0 0 -2.35-1.6q-10.43-3.32-20.16-7.47c-3.08-1.32-6.42.49-5.23 3a141 141 0 0 0 13.65 22.19q-9.2-3-17.91-6.64c1.71-.42 2.66-1.73 1.75-3.29a132 132 0 0 1 -10.58-23.11 3.62 3.62 0 0 0 -1.72-1.9q-8.91-4.95-17-10.59c-2.57-1.79-6.29-.6-5.85 2a129.67 129.67 0 0 0 6.61 23.81q-7.84-4.46-15.13-9.41c1.76-.12 3-1.24 2.62-2.9a125.2 125.2 0 0 1 -3.59-24.15 3.08 3.08 0 0 0 -1.13-2.13 177.73 177.73 0 0 1 -13.55-13.12c-2-2.17-5.94-1.63-6.23 1a128.12 128.12 0 0 0 -.21 24.16q-6.33-5.64-12-11.66c1.74.18 3.29-.69 3.34-2.37a127.6 127.6 0 0 1 3.11-24.05 2.78 2.78 0 0 0 -.52-2.26 156 156 0 0 1 -9.74-15.11c-1.38-2.45-5.37-2.6-6.35-.13a135.34 135.34 0 0 0 -6.68 23.47q-4.65-6.55-8.62-13.38a3 3 0 0 0 3.9-1.74 138.39 138.39 0 0 1 9.44-22.92 2.71 2.71 0 0 0 .09-2.29 138.58 138.58 0 0 1 -5.5-16.41c-.7-2.64-4.56-3.48-6.17-1.23a151 151 0 0 0 -12.76 21.83q-2.82-7.2-4.88-14.61a3.21 3.21 0 0 0 4.28-1 157.34 157.34 0 0 1 15.32-20.91 2.87 2.87 0 0 0 .7-2.24 129.18 129.18 0 0 1 -.94-17.18c0-2.74-3.5-4.26-5.69-2.3a175 175 0 0 0 -18.38 19.34 144.87 144.87 0 0 1 -.84-15.3 3.3 3.3 0 0 0 4.46-.27 184.27 184.27 0 0 1 20.72-18 3.3 3.3 0 0 0 1.31-2.11 131.84 131.84 0 0 1 4-17.36c.84-2.74-2.17-4.9-4.88-3.32a207 207 0 0 0 -23.45 16.12 147.84 147.84 0 0 1 3.54-15.42 3.2 3.2 0 0 0 4.43.52 218.41 218.41 0 0 1 25.52-14.5 4.06 4.06 0 0 0 1.9-1.91 151.09 151.09 0 0 1 9.26-16.95c1.69-2.66-.57-5.39-3.72-4.25a245.76 245.76 0 0 0 -27.94 12.29q1.94-4 4.14-8l-2.34-.84q-2.23 4-4.19 8.13a134.14 134.14 0 0 1 -5.88-26.68c-.33-3.11-4.65-2.84-6.8.54a190 190 0 0 0 -11.64 21.31 4.24 4.24 0 0 0 -.31 3 145.4 145.4 0 0 0 10.78 25.85 3 3 0 0 0 4.27 1.07 149.55 149.55 0 0 0 -3.63 15.57 152.41 152.41 0 0 1 -13.62-23.86c-1.26-2.83-5.35-1.87-6.42 1.63a165.77 165.77 0 0 0 -5 21.82 4 4 0 0 0 .56 2.86 172.34 172.34 0 0 0 17.86 22.52 3.22 3.22 0 0 0 4.46.28 146.52 146.52 0 0 0 .84 15.43 183.22 183.22 0 0 1 -19.93-20.3c-2-2.45-5.74-.85-5.8 2.64a162.32 162.32 0 0 0 1.18 21.6 4.27 4.27 0 0 0 1.4 2.59 206.88 206.88 0 0 0 23.53 18.49 3.22 3.22 0 0 0 4.43-.5q2.09 7.46 4.94 14.75a217.68 217.68 0 0 1 -24.87-16.12c-2.64-2-5.83.18-4.94 3.55a174.17 174.17 0 0 0 6.92 20.63 4.79 4.79 0 0 0 2 2.31 240.46 240.46 0 0 0 27.85 13.9c1.92.8 3.58.07 4.19-1.25q4 6.9 8.72 13.53a248.28 248.28 0 0 1 -28.55-11.39c-3.11-1.5-5.64 1.18-3.89 4.3a196.1 196.1 0 0 0 12.2 18.93 5.49 5.49 0 0 0 2.56 1.92 267 267 0 0 0 30.88 8.84c2.09.46 3.52-.55 3.75-1.94q5.75 6.05 12.19 11.79a270.2 270.2 0 0 1 -31-6.35c-3.43-.93-5.19 2.12-2.65 4.88a223.46 223.46 0 0 0 17 16.49 6.27 6.27 0 0 0 3 1.45 283.81 283.81 0 0 0 32.72 3.44c2.18.1 3.3-1.13 3.15-2.54q7.37 5 15.3 9.52a282.72 282.72 0 0 1 -32.23-1c-3.63-.34-4.51 3-1.24 5.24q10.32 7.13 21.51 13.32a7.08 7.08 0 0 0 3.41.91 291.93 291.93 0 0 0 33.41-2.18c2.2-.27 3-1.67 2.38-3q8.8 3.65 18.11 6.72a287.39 287.39 0 0 1 -32.42 4.54c-3.7.29-3.61 3.68.31 5.36q12.22 5.21 25.35 9.4a7.93 7.93 0 0 0 3.69.31 294.1 294.1 0 0 0 33-7.92c2.15-.65 2.47-2.15 1.47-3.38q8.45 1.71 17.22 2.94l.44-2q-8.67-1.21-17-2.91c1.63-.77 2.19-2.22.78-3.59z" fill="url(#a)"/><path d="m427 180.17a183.21 183.21 0 0 1 -19.93 20.3 146.52 146.52 0 0 0 .93-15.47 3.22 3.22 0 0 0 4.46-.28 172.39 172.39 0 0 0 17.86-22.52 4 4 0 0 0 .56-2.86 165.72 165.72 0 0 0 -5-21.82c-1.07-3.5-5.16-4.46-6.42-1.63a152.44 152.44 0 0 1 -13.62 23.86 149.54 149.54 0 0 0 -3.58-15.59 3 3 0 0 0 4.27-1.07 145.4 145.4 0 0 0 10.78-25.85 4.24 4.24 0 0 0 -.31-3 190 190 0 0 0 -11.68-21.24c-2.15-3.38-6.47-3.65-6.8-.54a134.13 134.13 0 0 1 -5.88 26.68q-2-4.08-4.19-8.13l-2.34.82q2.2 4 4.14 8a245.79 245.79 0 0 0 -27.92-12.28c-3.15-1.14-5.41 1.59-3.72 4.25a151.09 151.09 0 0 1 9.26 16.95 4.06 4.06 0 0 0 1.92 1.91 218.41 218.41 0 0 1 25.52 14.5 3.2 3.2 0 0 0 4.43-.52 148 148 0 0 1 3.54 15.42 207.07 207.07 0 0 0 -23.45-16.12c-2.71-1.58-5.72.58-4.88 3.32a131.79 131.79 0 0 1 4 17.36 3.31 3.31 0 0 0 1.31 2.11 184.27 184.27 0 0 1 20.72 18 3.3 3.3 0 0 0 4.46.27 145 145 0 0 1 -.83 15.26 175 175 0 0 0 -18.41-19.26c-2.19-2-5.74-.44-5.69 2.3a129.13 129.13 0 0 1 -.94 17.18 2.87 2.87 0 0 0 .7 2.24 157.29 157.29 0 0 1 15.33 20.88 3.21 3.21 0 0 0 4.28 1q-2.08 7.4-4.88 14.57a151 151 0 0 0 -12.76-21.83c-1.61-2.26-5.48-1.41-6.18 1.23a138.47 138.47 0 0 1 -5.5 16.41 2.71 2.71 0 0 0 .09 2.29 138.36 138.36 0 0 1 9.44 22.92 3 3 0 0 0 3.9 1.74q-4 6.83-8.62 13.38a135.34 135.34 0 0 0 -6.68-23.47c-1-2.47-5-2.32-6.35.13a155.9 155.9 0 0 1 -9.72 15.03 2.78 2.78 0 0 0 -.52 2.26 127.6 127.6 0 0 1 3.11 24.05c.05 1.68 1.61 2.55 3.34 2.37q-5.71 6-12 11.66a128.17 128.17 0 0 0 -.21-24.16c-.29-2.59-4.23-3.12-6.23-1a177.8 177.8 0 0 1 -13.55 13.12 3.08 3.08 0 0 0 -1.13 2.13 125.26 125.26 0 0 1 -3.59 24.15c-.42 1.66.86 2.78 2.62 2.9q-7.28 4.94-15.13 9.41a129.69 129.69 0 0 0 6.59-23.77c.43-2.59-3.29-3.79-5.85-2q-8.11 5.63-17 10.59a3.62 3.62 0 0 0 -1.72 1.9 131.94 131.94 0 0 1 -10.58 23.11c-.9 1.56 0 2.88 1.75 3.29q-8.7 3.61-17.91 6.64a141 141 0 0 0 13.65-22.19c1.19-2.47-2.15-4.28-5.23-3q-9.72 4.14-20.16 7.47a4.46 4.46 0 0 0 -2.3 1.56 149.33 149.33 0 0 1 -17.8 20.79c-1.41 1.37-.86 2.82.75 3.53q-8.36 1.69-17 2.91l.44 2q8.77-1.23 17.22-2.94c-1 1.23-.68 2.73 1.47 3.38a294.14 294.14 0 0 0 33 7.92 7.93 7.93 0 0 0 3.69-.31q13.11-4.17 25.35-9.4c3.92-1.68 4-5.07.31-5.36a287.39 287.39 0 0 1 -32.42-4.54q9.31-3.06 18.11-6.72c-.57 1.36.18 2.76 2.38 3a291.93 291.93 0 0 0 33.41 2.18 7.09 7.09 0 0 0 3.41-.91q11.11-6.02 21.36-13.14c3.27-2.28 2.39-5.58-1.24-5.24a282.71 282.71 0 0 1 -32.23 1q7.93-4.51 15.3-9.52c-.16 1.41 1 2.64 3.15 2.54a283.8 283.8 0 0 0 32.72-3.44 6.27 6.27 0 0 0 3-1.45 223.58 223.58 0 0 0 17-16.49c2.55-2.76.79-5.81-2.65-4.88a270.22 270.22 0 0 1 -31 6.35q6.4-5.7 12.17-11.79c.24 1.4 1.66 2.4 3.75 1.94a267 267 0 0 0 30.88-8.84 5.49 5.49 0 0 0 2.56-1.92 196 196 0 0 0 12.34-18.94c1.75-3.12-.78-5.8-3.89-4.3a248.31 248.31 0 0 1 -28.52 11.43q4.7-6.62 8.72-13.53c.61 1.32 2.27 2.06 4.19 1.25a240.46 240.46 0 0 0 27.85-13.9 4.79 4.79 0 0 0 2-2.31 174.17 174.17 0 0 0 6.92-20.63c.89-3.37-2.3-5.55-4.94-3.55a217.71 217.71 0 0 1 -24.87 16.12q2.84-7.28 4.94-14.75a3.22 3.22 0 0 0 4.43.5 206.91 206.91 0 0 0 23.5-18.53 4.27 4.27 0 0 0 1.33-2.63 162.36 162.36 0 0 0 1.18-21.6c-.05-3.44-3.76-5.05-5.84-2.6z" fill="url(#b)"/><path d="m78.15 44.38h275.96v358.68h-275.96z" fill="#efeae6"/><path d="m351.61 46.88v353.68h-271v-353.68zm5-5h-281v363.68h281z" fill="#c1b49a"/><g fill="#dcd7cd"><path d="m343.3 51.36h3.52v14.88h-3.52z"/><path d="m331.95 51.36h14.88v3.52h-14.88z"/><path d="m339.39 62.71h7.44v3.52h-7.44z"/><path d="m331.95 57.5h7.44v3.52h-7.44z"/><path d="m337.04 57.5h3.52v8.73h-3.52z"/><path d="m331.95 57.5h3.52v8.73h-3.52z"/><path d="m331.95 48.73h3.52v6.15h-3.52z"/><path d="m343.3 68.85h3.52v14.88h-3.52z"/><path d="m331.95 68.85h14.88v3.52h-14.88z"/><path d="m339.39 80.21h7.44v3.52h-7.44z"/><path d="m331.95 75h7.44v3.52h-7.44z"/><path d="m337.04 75h3.52v8.73h-3.52z"/><path d="m331.95 75h3.52v8.73h-3.52z"/><path d="m331.95 66.23h3.52v6.15h-3.52z"/><path d="m343.3 86.35h3.52v14.88h-3.52z"/><path d="m331.95 86.35h14.88v3.52h-14.88z"/><path d="m339.39 97.71h7.44v3.52h-7.44z"/><path d="m331.95 92.5h7.44v3.52h-7.44z"/><path d="m337.04 92.5h3.52v8.73h-3.52z"/><path d="m331.95 92.5h3.52v8.73h-3.52z"/><path d="m331.95 83.73h3.52v6.15h-3.52z"/><path d="m343.3 103.85h3.52v14.88h-3.52z"/><path d="m331.95 103.85h14.88v3.52h-14.88z"/><path d="m339.39 115.2h7.44v3.52h-7.44z"/><path d="m331.95 110h7.44v3.52h-7.44z"/><path d="m337.04 110h3.52v8.73h-3.52z"/><path d="m331.95 110h3.52v8.73h-3.52z"/><path d="m331.95 101.23h3.52v6.15h-3.52z"/><path d="m343.3 121.35h3.52v14.88h-3.52z"/><path d="m331.95 121.35h14.88v3.52h-14.88z"/><path d="m339.39 132.7h7.44v3.52h-7.44z"/><path d="m331.95 127.5h7.44v3.52h-7.44z"/><path d="m337.04 127.5h3.52v8.73h-3.52z"/><path d="m331.95 127.5h3.52v8.73h-3.52z"/><path d="m331.95 118.73h3.52v6.15h-3.52z"/><path d="m343.3 138.85h3.52v14.88h-3.52z"/><path d="m331.95 138.85h14.88v3.52h-14.88z"/><path d="m339.39 150.2h7.44v3.52h-7.44z"/><path d="m331.95 144.99h7.44v3.52h-7.44z"/><path d="m337.04 144.99h3.52v8.73h-3.52z"/><path d="m331.95 144.99h3.52v8.73h-3.52z"/><path d="m331.95 136.23h3.52v6.15h-3.52z"/><path d="m343.3 156.35h3.52v14.88h-3.52z"/><path d="m331.95 156.35h14.88v3.52h-14.88z"/><path d="m339.39 167.7h7.44v3.52h-7.44z"/><path d="m331.95 162.49h7.44v3.52h-7.44z"/><path d="m337.04 162.49h3.52v8.73h-3.52z"/><path d="m331.95 162.49h3.52v8.73h-3.52z"/><path d="m331.95 153.72h3.52v6.15h-3.52z"/><path d="m343.3 173.85h3.52v14.88h-3.52z"/><path d="m331.95 173.85h14.88v3.52h-14.88z"/><path d="m339.39 185.2h7.44v3.52h-7.44z"/><path d="m331.95 179.99h7.44v3.52h-7.44z"/><path d="m337.04 179.99h3.52v8.73h-3.52z"/><path d="m331.95 179.99h3.52v8.73h-3.52z"/><path d="m331.95 171.22h3.52v6.15h-3.52z"/><path d="m343.3 191.34h3.52v14.88h-3.52z"/><path d="m331.95 191.34h14.88v3.52h-14.88z"/><path d="m339.39 202.7h7.44v3.52h-7.44z"/><path d="m331.95 197.49h7.44v3.52h-7.44z"/><path d="m337.04 197.49h3.52v8.73h-3.52z"/><path d="m331.95 197.49h3.52v8.73h-3.52z"/><path d="m331.95 188.72h3.52v6.15h-3.52z"/><path d="m343.3 208.84h3.52v14.88h-3.52z"/><path d="m331.95 208.84h14.88v3.52h-14.88z"/><path d="m339.39 220.19h7.44v3.52h-7.44z"/><path d="m331.95 214.99h7.44v3.52h-7.44z"/><path d="m337.04 214.99h3.52v8.73h-3.52z"/><path d="m331.95 214.99h3.52v8.73h-3.52z"/><path d="m331.95 206.22h3.52v6.15h-3.52z"/><path d="m343.3 226.34h3.52v14.88h-3.52z"/><path d="m331.95 226.34h14.88v3.52h-14.88z"/><path d="m339.39 237.69h7.44v3.52h-7.44z"/><path d="m331.95 232.49h7.44v3.52h-7.44z"/><path d="m337.04 232.49h3.52v8.73h-3.52z"/><path d="m331.95 232.49h3.52v8.73h-3.52z"/><path d="m331.95 223.72h3.52v6.15h-3.52z"/><path d="m343.3 243.84h3.52v14.88h-3.52z"/><path d="m331.95 243.84h14.88v3.52h-14.88z"/><path d="m339.39 255.19h7.44v3.52h-7.44z"/><path d="m331.95 249.98h7.44v3.52h-7.44z"/><path d="m337.04 249.98h3.52v8.73h-3.52z"/><path d="m331.95 249.98h3.52v8.73h-3.52z"/><path d="m331.95 241.22h3.52v6.15h-3.52z"/><path d="m343.3 261.34h3.52v14.88h-3.52z"/><path d="m331.95 261.34h14.88v3.52h-14.88z"/><path d="m339.39 272.69h7.44v3.52h-7.44z"/><path d="m331.95 267.48h7.44v3.52h-7.44z"/><path d="m337.04 267.48h3.52v8.73h-3.52z"/><path d="m331.95 267.48h3.52v8.73h-3.52z"/><path d="m331.95 258.72h3.52v6.15h-3.52z"/><path d="m343.3 278.84h3.52v14.88h-3.52z"/><path d="m331.95 278.84h14.88v3.52h-14.88z"/><path d="m339.39 290.19h7.44v3.52h-7.44z"/><path d="m331.95 284.98h7.44v3.52h-7.44z"/><path d="m337.04 284.98h3.52v8.73h-3.52z"/><path d="m331.95 284.98h3.52v8.73h-3.52z"/><path d="m331.95 276.21h3.52v6.15h-3.52z"/><path d="m343.3 296.33h3.52v14.88h-3.52z"/><path d="m331.95 296.33h14.88v3.52h-14.88z"/><path d="m339.39 307.69h7.44v3.52h-7.44z"/><path d="m331.95 302.48h7.44v3.52h-7.44z"/><path d="m337.04 302.48h3.52v8.73h-3.52z"/><path d="m331.95 302.48h3.52v8.73h-3.52z"/><path d="m331.95 293.71h3.52v6.15h-3.52z"/><path d="m343.3 313.83h3.52v14.88h-3.52z"/><path d="m331.95 313.83h14.88v3.52h-14.88z"/><path d="m339.39 325.19h7.44v3.52h-7.44z"/><path d="m331.95 319.98h7.44v3.52h-7.44z"/><path d="m337.04 319.98h3.52v8.73h-3.52z"/><path d="m331.95 319.98h3.52v8.73h-3.52z"/><path d="m331.95 311.21h3.52v6.15h-3.52z"/><path d="m343.3 331.33h3.52v14.88h-3.52z"/><path d="m331.95 331.33h14.88v3.52h-14.88z"/><path d="m339.39 342.68h7.44v3.52h-7.44z"/><path d="m331.95 337.48h7.44v3.52h-7.44z"/><path d="m337.04 337.48h3.52v8.73h-3.52z"/><path d="m331.95 337.48h3.52v8.73h-3.52z"/><path d="m331.95 328.71h3.52v6.15h-3.52z"/><path d="m343.3 348.83h3.52v14.88h-3.52z"/><path d="m331.95 348.83h14.88v3.52h-14.88z"/><path d="m339.39 360.18h7.44v3.52h-7.44z"/><path d="m331.95 354.98h7.44v3.52h-7.44z"/><path d="m337.04 354.98h3.52v8.73h-3.52z"/><path d="m331.95 354.98h3.52v8.73h-3.52z"/><path d="m331.95 346.21h3.52v6.15h-3.52z"/><path d="m343.3 366.33h3.52v14.88h-3.52z"/><path d="m331.95 366.33h14.88v3.52h-14.88z"/><path d="m339.39 377.68h7.44v3.52h-7.44z"/><path d="m331.95 372.47h7.44v3.52h-7.44z"/><path d="m337.04 372.47h3.52v8.73h-3.52z"/><path d="m331.95 372.47h3.52v8.73h-3.52z"/><path d="m331.95 363.71h3.52v6.15h-3.52z"/><path d="m343.3 383.83h3.52v14.88h-3.52z"/><path d="m331.95 383.83h14.88v3.52h-14.88z"/><path d="m339.39 395.18h7.44v3.52h-7.44z"/><path d="m331.95 389.97h7.44v3.52h-7.44z"/><path d="m337.04 389.97h3.52v8.73h-3.52z"/><path d="m331.95 389.97h3.52v8.73h-3.52z"/><path d="m331.95 381.2h3.52v6.15h-3.52z"/><path d="m313.14 411.37h14.88v3.52h-14.88z"/><path d="m324.49 400.01h3.52v14.88h-3.52z"/><path d="m313.14 407.45h3.52v7.44h-3.52z"/><path d="m318.35 400.01h3.52v7.44h-3.52z"/><path d="m313.14 405.1h8.73v3.52h-8.73z"/><path d="m313.14 400.01h8.73v3.52h-8.73z"/><path d="m324.49 400.01h6.15v3.52h-6.15z"/><path d="m295.64 411.37h14.88v3.52h-14.88z"/><path d="m307 400.01h3.52v14.88h-3.52z"/><path d="m295.64 407.45h3.52v7.44h-3.52z"/><path d="m300.85 400.01h3.52v7.44h-3.52z"/><path d="m295.64 405.1h8.73v3.52h-8.73z"/><path d="m295.64 400.01h8.73v3.52h-8.73z"/><path d="m307 400.01h6.15v3.52h-6.15z"/><path d="m278.14 411.37h14.88v3.52h-14.88z"/><path d="m289.5 400.01h3.52v14.88h-3.52z"/><path d="m278.14 407.45h3.52v7.44h-3.52z"/><path d="m283.35 400.01h3.52v7.44h-3.52z"/><path d="m278.14 405.1h8.73v3.52h-8.73z"/><path d="m278.14 400.01h8.73v3.52h-8.73z"/><path d="m289.5 400.01h6.15v3.52h-6.15z"/><path d="m260.65 411.37h14.88v3.52h-14.88z"/><path d="m272 400.01h3.52v14.88h-3.52z"/><path d="m260.65 407.45h3.52v7.44h-3.52z"/><path d="m265.85 400.01h3.52v7.44h-3.52z"/><path d="m260.65 405.1h8.73v3.52h-8.73z"/><path d="m260.65 400.01h8.73v3.52h-8.73z"/><path d="m272 400.01h6.15v3.52h-6.15z"/><path d="m243.15 411.37h14.88v3.52h-14.88z"/><path d="m254.5 400.01h3.52v14.88h-3.52z"/><path d="m243.15 407.45h3.52v7.44h-3.52z"/><path d="m248.36 400.01h3.52v7.44h-3.52z"/><path d="m243.15 405.1h8.73v3.52h-8.73z"/><path d="m243.15 400.01h8.73v3.52h-8.73z"/><path d="m254.5 400.01h6.15v3.52h-6.15z"/><path d="m225.65 411.37h14.88v3.52h-14.88z"/><path d="m237 400.01h3.52v14.88h-3.52z"/><path d="m225.65 407.45h3.52v7.44h-3.52z"/><path d="m230.86 400.01h3.52v7.44h-3.52z"/><path d="m225.65 405.1h8.73v3.52h-8.73z"/><path d="m225.65 400.01h8.73v3.52h-8.73z"/><path d="m237 400.01h6.15v3.52h-6.15z"/><path d="m208.15 411.37h14.88v3.52h-14.88z"/><path d="m219.5 400.01h3.52v14.88h-3.52z"/><path d="m208.15 407.45h3.52v7.44h-3.52z"/><path d="m213.36 400.01h3.52v7.44h-3.52z"/><path d="m208.15 405.1h8.73v3.52h-8.73z"/><path d="m208.15 400.01h8.73v3.52h-8.73z"/><path d="m219.5 400.01h6.15v3.52h-6.15z"/><path d="m190.65 411.37h14.88v3.52h-14.88z"/><path d="m202.01 400.01h3.52v14.88h-3.52z"/><path d="m190.65 407.45h3.52v7.44h-3.52z"/><path d="m195.86 400.01h3.52v7.44h-3.52z"/><path d="m190.65 405.1h8.73v3.52h-8.73z"/><path d="m190.65 400.01h8.73v3.52h-8.73z"/><path d="m202.01 400.01h6.15v3.52h-6.15z"/><path d="m173.15 411.37h14.88v3.52h-14.88z"/><path d="m184.51 400.01h3.52v14.88h-3.52z"/><path d="m173.15 407.45h3.52v7.44h-3.52z"/><path d="m178.36 400.01h3.52v7.44h-3.52z"/><path d="m173.15 405.1h8.73v3.52h-8.73z"/><path d="m173.15 400.01h8.73v3.52h-8.73z"/><path d="m184.51 400.01h6.15v3.52h-6.15z"/><path d="m155.66 411.37h14.88v3.52h-14.88z"/><path d="m167.01 400.01h3.52v14.88h-3.52z"/><path d="m155.66 407.45h3.52v7.44h-3.52z"/><path d="m160.86 400.01h3.52v7.44h-3.52z"/><path d="m155.66 405.1h8.73v3.52h-8.73z"/><path d="m155.66 400.01h8.73v3.52h-8.73z"/><path d="m167.01 400.01h6.15v3.52h-6.15z"/><path d="m138.16 411.37h14.88v3.52h-14.88z"/><path d="m149.51 400.01h3.52v14.88h-3.52z"/><path d="m138.16 407.45h3.52v7.44h-3.52z"/><path d="m143.36 400.01h3.52v7.44h-3.52z"/><path d="m138.16 405.1h8.73v3.52h-8.73z"/><path d="m138.16 400.01h8.73v3.52h-8.73z"/><path d="m149.51 400.01h6.15v3.52h-6.15z"/><path d="m120.66 411.37h14.88v3.52h-14.88z"/><path d="m132.01 400.01h3.52v14.88h-3.52z"/><path d="m120.66 407.45h3.52v7.44h-3.52z"/><path d="m125.87 400.01h3.52v7.44h-3.52z"/><path d="m120.66 405.1h8.73v3.52h-8.73z"/><path d="m120.66 400.01h8.73v3.52h-8.73z"/><path d="m132.01 400.01h6.15v3.52h-6.15z"/><path d="m103.16 411.37h14.88v3.52h-14.88z"/><path d="m114.51 400.01h3.52v14.88h-3.52z"/><path d="m103.16 407.45h3.52v7.44h-3.52z"/><path d="m108.37 400.01h3.52v7.44h-3.52z"/><path d="m103.16 405.1h8.73v3.52h-8.73z"/><path d="m103.16 400.01h8.73v3.52h-8.73z"/><path d="m114.51 400.01h6.15v3.52h-6.15z"/><path d="m86.97 381.2h3.52v14.88h-3.52z"/><path d="m86.97 392.56h14.88v3.52h-14.88z"/><path d="m86.97 381.2h7.44v3.52h-7.44z"/><path d="m94.41 386.41h7.44v3.52h-7.44z"/><path d="m93.24 381.2h3.52v8.73h-3.52z"/><path d="m98.33 381.2h3.52v8.73h-3.52z"/><path d="m98.33 392.56h3.52v6.15h-3.52z"/><path d="m86.97 363.71h3.52v14.88h-3.52z"/><path d="m86.97 375.06h14.88v3.52h-14.88z"/><path d="m86.97 363.71h7.44v3.52h-7.44z"/><path d="m94.41 368.91h7.44v3.52h-7.44z"/><path d="m93.24 363.71h3.52v8.73h-3.52z"/><path d="m98.33 363.71h3.52v8.73h-3.52z"/><path d="m98.33 375.06h3.52v6.15h-3.52z"/><path d="m86.97 346.21h3.52v14.88h-3.52z"/><path d="m86.97 357.56h14.88v3.52h-14.88z"/><path d="m86.97 346.21h7.44v3.52h-7.44z"/><path d="m94.41 351.42h7.44v3.52h-7.44z"/><path d="m93.24 346.21h3.52v8.73h-3.52z"/><path d="m98.33 346.21h3.52v8.73h-3.52z"/><path d="m98.33 357.56h3.52v6.15h-3.52z"/><path d="m86.97 328.71h3.52v14.88h-3.52z"/><path d="m86.97 340.06h14.88v3.52h-14.88z"/><path d="m86.97 328.71h7.44v3.52h-7.44z"/><path d="m94.41 333.92h7.44v3.52h-7.44z"/><path d="m93.24 328.71h3.52v8.73h-3.52z"/><path d="m98.33 328.71h3.52v8.73h-3.52z"/><path d="m98.33 340.06h3.52v6.15h-3.52z"/><path d="m86.97 311.21h3.52v14.88h-3.52z"/><path d="m86.97 322.56h14.88v3.52h-14.88z"/><path d="m86.97 311.21h7.44v3.52h-7.44z"/><path d="m94.41 316.42h7.44v3.52h-7.44z"/><path d="m93.24 311.21h3.52v8.73h-3.52z"/><path d="m98.33 311.21h3.52v8.73h-3.52z"/><path d="m98.33 322.56h3.52v6.15h-3.52z"/><path d="m86.97 293.71h3.52v14.88h-3.52z"/><path d="m86.97 305.06h14.88v3.52h-14.88z"/><path d="m86.97 293.71h7.44v3.52h-7.44z"/><path d="m94.41 298.92h7.44v3.52h-7.44z"/><path d="m93.24 293.71h3.52v8.73h-3.52z"/><path d="m98.33 293.71h3.52v8.73h-3.52z"/><path d="m98.33 305.06h3.52v6.15h-3.52z"/><path d="m86.97 276.21h3.52v14.88h-3.52z"/><path d="m86.97 287.57h14.88v3.52h-14.88z"/><path d="m86.97 276.21h7.44v3.52h-7.44z"/><path d="m94.41 281.42h7.44v3.52h-7.44z"/><path d="m93.24 276.21h3.52v8.73h-3.52z"/><path d="m98.33 276.21h3.52v8.73h-3.52z"/><path d="m98.33 287.57h3.52v6.15h-3.52z"/><path d="m86.97 258.72h3.52v14.88h-3.52z"/><path d="m86.97 270.07h14.88v3.52h-14.88z"/><path d="m86.97 258.72h7.44v3.52h-7.44z"/><path d="m94.41 263.92h7.44v3.52h-7.44z"/><path d="m93.24 258.72h3.52v8.73h-3.52z"/><path d="m98.33 258.72h3.52v8.73h-3.52z"/><path d="m98.33 270.07h3.52v6.15h-3.52z"/><path d="m86.97 241.22h3.52v14.88h-3.52z"/><path d="m86.97 252.57h14.88v3.52h-14.88z"/><path d="m86.97 241.22h7.44v3.52h-7.44z"/><path d="m94.41 246.42h7.44v3.52h-7.44z"/><path d="m93.24 241.22h3.52v8.73h-3.52z"/><path d="m98.33 241.22h3.52v8.73h-3.52z"/><path d="m98.33 252.57h3.52v6.15h-3.52z"/><path d="m86.97 223.72h3.52v14.88h-3.52z"/><path d="m86.97 235.07h14.88v3.52h-14.88z"/><path d="m86.97 223.72h7.44v3.52h-7.44z"/><path d="m94.41 228.93h7.44v3.52h-7.44z"/><path d="m93.24 223.72h3.52v8.73h-3.52z"/><path d="m98.33 223.72h3.52v8.73h-3.52z"/><path d="m98.33 235.07h3.52v6.15h-3.52z"/><path d="m86.97 206.22h3.52v14.88h-3.52z"/><path d="m86.97 217.57h14.88v3.52h-14.88z"/><path d="m86.97 206.22h7.44v3.52h-7.44z"/><path d="m94.41 211.43h7.44v3.52h-7.44z"/><path d="m93.24 206.22h3.52v8.73h-3.52z"/><path d="m98.33 206.22h3.52v8.73h-3.52z"/><path d="m98.33 217.57h3.52v6.15h-3.52z"/><path d="m86.97 188.72h3.52v14.88h-3.52z"/><path d="m86.97 200.07h14.88v3.52h-14.88z"/><path d="m86.97 188.72h7.44v3.52h-7.44z"/><path d="m94.41 193.93h7.44v3.52h-7.44z"/><path d="m93.24 188.72h3.52v8.73h-3.52z"/><path d="m98.33 188.72h3.52v8.73h-3.52z"/><path d="m98.33 200.07h3.52v6.15h-3.52z"/><path d="m86.97 171.22h3.52v14.88h-3.52z"/><path d="m86.97 182.58h14.88v3.52h-14.88z"/><path d="m86.97 171.22h7.44v3.52h-7.44z"/><path d="m94.41 176.43h7.44v3.52h-7.44z"/><path d="m93.24 171.22h3.52v8.73h-3.52z"/><path d="m98.33 171.22h3.52v8.73h-3.52z"/><path d="m98.33 182.58h3.52v6.15h-3.52z"/><path d="m86.97 153.72h3.52v14.88h-3.52z"/><path d="m86.97 165.08h14.88v3.52h-14.88z"/><path d="m86.97 153.72h7.44v3.52h-7.44z"/><path d="m94.41 158.93h7.44v3.52h-7.44z"/><path d="m93.24 153.72h3.52v8.73h-3.52z"/><path d="m98.33 153.72h3.52v8.73h-3.52z"/><path d="m98.33 165.08h3.52v6.15h-3.52z"/><path d="m86.97 136.23h3.52v14.88h-3.52z"/><path d="m86.97 147.58h14.88v3.52h-14.88z"/><path d="m86.97 136.23h7.44v3.52h-7.44z"/><path d="m94.41 141.43h7.44v3.52h-7.44z"/><path d="m93.24 136.23h3.52v8.73h-3.52z"/><path d="m98.33 136.23h3.52v8.73h-3.52z"/><path d="m98.33 147.58h3.52v6.15h-3.52z"/><path d="m86.97 118.73h3.52v14.88h-3.52z"/><path d="m86.97 130.08h14.88v3.52h-14.88z"/><path d="m86.97 118.73h7.44v3.52h-7.44z"/><path d="m94.41 123.94h7.44v3.52h-7.44z"/><path d="m93.24 118.73h3.52v8.73h-3.52z"/><path d="m98.33 118.73h3.52v8.73h-3.52z"/><path d="m98.33 130.08h3.52v6.15h-3.52z"/><path d="m86.97 101.23h3.52v14.88h-3.52z"/><path d="m86.97 112.58h14.88v3.52h-14.88z"/><path d="m86.97 101.23h7.44v3.52h-7.44z"/><path d="m94.41 106.44h7.44v3.52h-7.44z"/><path d="m93.24 101.23h3.52v8.73h-3.52z"/><path d="m98.33 101.23h3.52v8.73h-3.52z"/><path d="m98.33 112.58h3.52v6.15h-3.52z"/><path d="m86.97 83.73h3.52v14.88h-3.52z"/><path d="m86.97 95.08h14.88v3.52h-14.88z"/><path d="m86.97 83.73h7.44v3.52h-7.44z"/><path d="m94.41 88.94h7.44v3.52h-7.44z"/><path d="m93.24 83.73h3.52v8.73h-3.52z"/><path d="m98.33 83.73h3.52v8.73h-3.52z"/><path d="m98.33 95.08h3.52v6.15h-3.52z"/><path d="m86.97 66.23h3.52v14.88h-3.52z"/><path d="m86.97 77.59h14.88v3.52h-14.88z"/><path d="m86.97 66.23h7.44v3.52h-7.44z"/><path d="m94.41 71.44h7.44v3.52h-7.44z"/><path d="m93.24 66.23h3.52v8.73h-3.52z"/><path d="m98.33 66.23h3.52v8.73h-3.52z"/><path d="m98.33 77.59h3.52v6.15h-3.52z"/><path d="m86.97 48.73h3.52v14.88h-3.52z"/><path d="m86.97 60.09h14.88v3.52h-14.88z"/><path d="m86.97 48.73h7.44v3.52h-7.44z"/><path d="m94.41 53.94h7.44v3.52h-7.44z"/><path d="m93.24 48.73h3.52v8.73h-3.52z"/><path d="m98.33 48.73h3.52v8.73h-3.52z"/><path d="m98.33 60.09h3.52v6.15h-3.52z"/><path d="m105.78 32.55h14.88v3.52h-14.88z"/><path d="m105.78 32.55h3.52v14.88h-3.52z"/><path d="m117.14 32.55h3.52v7.44h-3.52z"/><path d="m111.93 39.98h3.52v7.44h-3.52z"/><path d="m111.93 38.81h8.73v3.52h-8.73z"/><path d="m111.93 43.9h8.73v3.52h-8.73z"/><path d="m103.16 43.9h6.15v3.52h-6.15z"/><path d="m123.28 32.55h14.88v3.52h-14.88z"/><path d="m123.28 32.55h3.52v14.88h-3.52z"/><path d="m134.63 32.55h3.52v7.44h-3.52z"/><path d="m129.43 39.98h3.52v7.44h-3.52z"/><path d="m129.43 38.81h8.73v3.52h-8.73z"/><path d="m129.43 43.9h8.73v3.52h-8.73z"/><path d="m120.66 43.9h6.15v3.52h-6.15z"/><path d="m140.78 32.55h14.88v3.52h-14.88z"/><path d="m140.78 32.55h3.52v14.88h-3.52z"/><path d="m152.13 32.55h3.52v7.44h-3.52z"/><path d="m146.92 39.98h3.52v7.44h-3.52z"/><path d="m146.92 38.81h8.73v3.52h-8.73z"/><path d="m146.92 43.9h8.73v3.52h-8.73z"/><path d="m138.16 43.9h6.15v3.52h-6.15z"/><path d="m158.28 32.55h14.88v3.52h-14.88z"/><path d="m158.28 32.55h3.52v14.88h-3.52z"/><path d="m169.63 32.55h3.52v7.44h-3.52z"/><path d="m164.42 39.98h3.52v7.44h-3.52z"/><path d="m164.42 38.81h8.73v3.52h-8.73z"/><path d="m164.42 43.9h8.73v3.52h-8.73z"/><path d="m155.66 43.9h6.15v3.52h-6.15z"/><path d="m175.78 32.55h14.88v3.52h-14.88z"/><path d="m175.78 32.55h3.52v14.88h-3.52z"/><path d="m187.13 32.55h3.52v7.44h-3.52z"/><path d="m181.92 39.98h3.52v7.44h-3.52z"/><path d="m181.92 38.81h8.73v3.52h-8.73z"/><path d="m181.92 43.9h8.73v3.52h-8.73z"/><path d="m173.15 43.9h6.15v3.52h-6.15z"/><path d="m193.27 32.55h14.88v3.52h-14.88z"/><path d="m193.27 32.55h3.52v14.88h-3.52z"/><path d="m204.63 32.55h3.52v7.44h-3.52z"/><path d="m199.42 39.98h3.52v7.44h-3.52z"/><path d="m199.42 38.81h8.73v3.52h-8.73z"/><path d="m199.42 43.9h8.73v3.52h-8.73z"/><path d="m190.65 43.9h6.15v3.52h-6.15z"/><path d="m210.77 32.55h14.88v3.52h-14.88z"/><path d="m210.77 32.55h3.52v14.88h-3.52z"/><path d="m222.13 32.55h3.52v7.44h-3.52z"/><path d="m216.92 39.98h3.52v7.44h-3.52z"/><path d="m216.92 38.81h8.73v3.52h-8.73z"/><path d="m216.92 43.9h8.73v3.52h-8.73z"/><path d="m208.15 43.9h6.15v3.52h-6.15z"/><path d="m228.27 32.55h14.88v3.52h-14.88z"/><path d="m228.27 32.55h3.52v14.88h-3.52z"/><path d="m239.62 32.55h3.52v7.44h-3.52z"/><path d="m234.42 39.98h3.52v7.44h-3.52z"/><path d="m234.42 38.81h8.73v3.52h-8.73z"/><path d="m234.42 43.9h8.73v3.52h-8.73z"/><path d="m225.65 43.9h6.15v3.52h-6.15z"/><path d="m245.77 32.55h14.88v3.52h-14.88z"/><path d="m245.77 32.55h3.52v14.88h-3.52z"/><path d="m257.12 32.55h3.52v7.44h-3.52z"/><path d="m251.92 39.98h3.52v7.44h-3.52z"/><path d="m251.92 38.81h8.73v3.52h-8.73z"/><path d="m251.92 43.9h8.73v3.52h-8.73z"/><path d="m243.15 43.9h6.15v3.52h-6.15z"/><path d="m263.27 32.55h14.88v3.52h-14.88z"/><path d="m263.27 32.55h3.52v14.88h-3.52z"/><path d="m274.62 32.55h3.52v7.44h-3.52z"/><path d="m269.41 39.98h3.52v7.44h-3.52z"/><path d="m269.41 38.81h8.73v3.52h-8.73z"/><path d="m269.41 43.9h8.73v3.52h-8.73z"/><path d="m260.65 43.9h6.15v3.52h-6.15z"/><path d="m280.77 32.55h14.88v3.52h-14.88z"/><path d="m280.77 32.55h3.52v14.88h-3.52z"/><path d="m292.12 32.55h3.52v7.44h-3.52z"/><path d="m286.91 39.98h3.52v7.44h-3.52z"/><path d="m286.91 38.81h8.73v3.52h-8.73z"/><path d="m286.91 43.9h8.73v3.52h-8.73z"/><path d="m278.14 43.9h6.15v3.52h-6.15z"/><path d="m298.27 32.55h14.88v3.52h-14.88z"/><path d="m298.27 32.55h3.52v14.88h-3.52z"/><path d="m309.62 32.55h3.52v7.44h-3.52z"/><path d="m304.41 39.98h3.52v7.44h-3.52z"/><path d="m304.41 38.81h8.73v3.52h-8.73z"/><path d="m304.41 43.9h8.73v3.52h-8.73z"/><path d="m295.64 43.9h6.15v3.52h-6.15z"/><path d="m315.76 32.55h14.88v3.52h-14.88z"/><path d="m315.76 32.55h3.52v14.88h-3.52z"/><path d="m327.12 32.55h3.52v7.44h-3.52z"/><path d="m321.91 39.98h3.52v7.44h-3.52z"/><path d="m321.91 38.81h8.73v3.52h-8.73z"/><path d="m321.91 43.9h8.73v3.52h-8.73z"/><path d="m313.14 43.9h6.15v3.52h-6.15z"/><g clip-path="url(#c)"><path d="m343.3 401.32h3.52v14.88h-3.52z"/><path d="m331.95 401.32h14.88v3.52h-14.88z"/><path d="m339.39 412.68h7.44v3.52h-7.44z"/><path d="m331.95 407.47h7.44v3.52h-7.44z"/><path d="m337.04 407.47h3.52v8.73h-3.52z"/><path d="m331.95 407.47h3.52v8.73h-3.52z"/><path d="m331.95 398.7h3.52v6.15h-3.52z"/></g><g clip-path="url(#d)"><path d="m330.64 411.37h14.88v3.52h-14.88z"/><path d="m341.99 400.01h3.52v14.88h-3.52z"/><path d="m330.64 407.45h3.52v7.44h-3.52z"/><path d="m335.85 400.01h3.52v7.44h-3.52z"/><path d="m330.64 405.1h8.73v3.52h-8.73z"/><path d="m330.64 400.01h8.73v3.52h-8.73z"/><path d="m341.99 400.01h6.15v3.52h-6.15z"/></g><g clip-path="url(#e)"><path d="m85.66 411.37h14.88v3.52h-14.88z"/><path d="m97.01 400.01h3.52v14.88h-3.52z"/><path d="m85.66 407.45h3.52v7.44h-3.52z"/><path d="m90.87 400.01h3.52v7.44h-3.52z"/><path d="m85.66 405.1h8.73v3.52h-8.73z"/><path d="m85.66 400.01h8.73v3.52h-8.73z"/><path d="m97.01 400.01h6.15v3.52h-6.15z"/></g><g clip-path="url(#f)"><path d="m86.97 398.7h3.52v14.88h-3.52z"/><path d="m86.97 410.06h14.88v3.52h-14.88z"/><path d="m86.97 398.7h7.44v3.52h-7.44z"/><path d="m94.41 403.91h7.44v3.52h-7.44z"/><path d="m93.24 398.7h3.52v8.73h-3.52z"/><path d="m98.33 398.7h3.52v8.73h-3.52z"/><path d="m98.33 410.06h3.52v6.15h-3.52z"/></g><g clip-path="url(#g)"><path d="m86.97 31.24h3.52v14.88h-3.52z"/><path d="m86.97 42.59h14.88v3.52h-14.88z"/><path d="m86.97 31.24h7.44v3.52h-7.44z"/><path d="m94.41 36.44h7.44v3.52h-7.44z"/><path d="m93.24 31.24h3.52v8.73h-3.52z"/><path d="m98.33 31.24h3.52v8.73h-3.52z"/><path d="m98.33 42.59h3.52v6.15h-3.52z"/></g><g clip-path="url(#h)"><path d="m88.28 32.55h14.88v3.52h-14.88z"/><path d="m88.28 32.55h3.52v14.88h-3.52z"/><path d="m99.64 32.55h3.52v7.44h-3.52z"/><path d="m94.43 39.98h3.52v7.44h-3.52z"/><path d="m94.43 38.81h8.73v3.52h-8.73z"/><path d="m94.43 43.9h8.73v3.52h-8.73z"/><path d="m85.66 43.9h6.15v3.52h-6.15z"/></g><g clip-path="url(#i)"><path d="m333.26 32.55h14.88v3.52h-14.88z"/><path d="m333.26 32.55h3.52v14.88h-3.52z"/><path d="m344.62 32.55h3.52v7.44h-3.52z"/><path d="m339.41 39.98h3.52v7.44h-3.52z"/><path d="m339.41 38.81h8.73v3.52h-8.73z"/><path d="m339.41 43.9h8.73v3.52h-8.73z"/><path d="m330.64 43.9h6.15v3.52h-6.15z"/></g><g clip-path="url(#j)"><path d="m343.3 33.86h3.52v14.88h-3.52z"/><path d="m331.95 33.86h14.88v3.52h-14.88z"/><path d="m339.39 45.21h7.44v3.52h-7.44z"/><path d="m331.95 40h7.44v3.52h-7.44z"/><path d="m337.04 40h3.52v8.73h-3.52z"/><path d="m331.95 40h3.52v8.73h-3.52z"/><path d="m331.95 31.24h3.52v6.15h-3.52z"/></g></g><rect fill="#5c4b43" height="49.34" rx="23.58" width="311.12" x="60.17" y="2.5"/><path d="m347.7 5a21.1 21.1 0 0 1 21.08 21.08v2.19a21.1 21.1 0 0 1 -21.08 21.07h-264a21.1 21.1 0 0 1 -21.03-21.07v-2.19a21.1 21.1 0 0 1 21.07-21.08h264m0-5h-264a26.15 26.15 0 0 0 -26.07 26.08v2.19a26.15 26.15 0 0 0 26.07 26.07h264a26.15 26.15 0 0 0 26.08-26.08v-2.18a26.15 26.15 0 0 0 -26.12-26.08z" fill="#aa9c94"/><path d="m85 39.39a12.22 12.22 0 1 1 12.23-12.22 12.23 12.23 0 0 1 -12.23 12.22z" fill="#5c4b43"/><path d="m85 17.46a9.72 9.72 0 1 1 -9.72 9.72 9.73 9.73 0 0 1 9.72-9.72m0-5a14.72 14.72 0 1 0 14.73 14.71 14.72 14.72 0 0 0 -14.73-14.71z" fill="#aa9c94"/><path d="m346.45 39.39a12.22 12.22 0 1 1 12.22-12.22 12.23 12.23 0 0 1 -12.22 12.22z" fill="#5c4b43"/><path d="m346.45 17.46a9.72 9.72 0 1 1 -9.72 9.72 9.73 9.73 0 0 1 9.72-9.72m0-5a14.72 14.72 0 1 0 14.72 14.72 14.72 14.72 0 0 0 -14.72-14.72z" fill="#aa9c94"/><rect fill="#5c4b43" height="49.34" rx="23.58" width="311.12" x="60.17" y="395.17"/><path d="m347.7 397.67a21.1 21.1 0 0 1 21.08 21.08v2.19a21.1 21.1 0 0 1 -21.08 21.06h-264a21.1 21.1 0 0 1 -21.08-21.08v-2.19a21.1 21.1 0 0 1 21.08-21.08h264m0-5h-264a26.15 26.15 0 0 0 -26.08 26.08v2.19a26.15 26.15 0 0 0 26.12 26.08h264a26.15 26.15 0 0 0 26.08-26.08v-2.19a26.15 26.15 0 0 0 -26.08-26.08z" fill="#aa9c94"/><path d="m85 432.05a12.22 12.22 0 1 1 12.22-12.22 12.23 12.23 0 0 1 -12.22 12.22z" fill="#5c4b43"/><path d="m85 410.12a9.72 9.72 0 1 1 -9.72 9.72 9.73 9.73 0 0 1 9.72-9.72m0-5a14.72 14.72 0 1 0 14.72 14.72 14.72 14.72 0 0 0 -14.72-14.72z" fill="#aa9c94"/><path d="m346.45 432.05a12.22 12.22 0 1 1 12.22-12.22 12.23 12.23 0 0 1 -12.22 12.22z" fill="#5c4b43"/><path d="m346.45 410.12a9.72 9.72 0 1 1 -9.72 9.72 9.73 9.73 0 0 1 9.72-9.72m0-5a14.72 14.72 0 1 0 14.72 14.72 14.72 14.72 0 0 0 -14.72-14.72z" fill="#aa9c94"/><path d="m215.72 269.69a99.63 99.63 0 1 1 99.63-99.63 99.74 99.74 0 0 1 -99.63 99.63z" fill="#5c4b43"/><path d="m215.72 72.93a97.13 97.13 0 1 1 -97.13 97.13 97.24 97.24 0 0 1 97.13-97.13m0-5a102.13 102.13 0 1 0 102.13 102.13 102.13 102.13 0 0 0 -102.13-102.13z" fill="#aa9c94"/><rect fill="#9b7e68" height="98.32" rx="7.43" transform="matrix(.93927406 -.34316794 .34316794 .93927406 -39.68 98.09)" width="14.86" x="249.86" y="112"/><path d="m184.55 208.46 2.14-.78-1.04-2.85-2.39.1z" fill="none"/><path d="m170.29 178 1.84-.67.92-.33 1.49 4.07 2.14-.78-2.24-6.13-1.56.57-5.68 4.4 1.87-.68z" fill="#ddd9cf"/><path d="m183.06 204.38.2.55 2.39-.1-1.2-3.28-6.13 2.24-2.75 1-1.01-2.75-2.24-6.13-1.01-2.76 2.76-1 1.23-.45 1.83-.67.93-.34 1.48 4.07 2.15-.78-2.24-6.13-6.13 2.24-2.76 1.01-1-2.76-2.24-6.12-.91-2.48-9 6.98 6.94 19 16.99-.71.8-.29z" fill="#ddd9cf"/><path d="m247.37 199.53.92 2.51-3.08.12-1.6-4.38.32-.12 2.44-.88 1.54-.57 1.84-.67.92-.34 1.49 4.08 2.14-.79-2.24-6.12-6.12 2.23-2.76 1.01-1.01-2.76-2.24-6.12-1-2.76 2.75-1.01 1.23-.45 1.84-.67.92-.33 1.49 4.07 2.14-.78-2.24-6.13-6.13 2.24-2.75 1.01-1.01-2.76-2.24-6.13-1.01-2.75 2.76-1.01 1.23-.45 1.83-.67.92-.34 1.49 4.08 2.14-.79-2.23-6.12-6.13 2.24-2.76 1-1.01-2.75-2.23-6.13-1.01-2.76 2.76-1.01 1.22-.44 1.84-.67.92-.34 1.49 4.07 2.14-.78-2.24-6.13-6.12 2.24-2.76 1.01-1.01-2.76-2.24-6.13-1.01-2.75 3.99-1.46 1.84-.67.92-.34 1.48 4.08 2.15-.78-2.24-6.13-6.13 2.24-2.76 1.01-1-2.76-.44-1.18-45.02 34.87.5 1.38 2.24 6.13 1.01 2.76-2.76 1-2.14.79-.92.33-1.84.68-1.49-4.08-1.23.45 2.24 6.13 6.13-2.24 2.76-1.01 1.01 2.76 2.23 6.12 1.01 2.76-2.76 1.01-2.14.78-.92.34-1.84.67-1.48-4.08-1.23.45 2.24 6.13 6.12-2.24 2.76-1.01 1.01 2.76 1.52 4.17 61.35-2.56-1.16-3.18z" fill="#ddd9cf"/><rect fill="none" height="33.33" rx="5.14" stroke="#9b7e68" stroke-miterlimit="10" stroke-width="3" transform="matrix(.0298407 .99955467 -.99955467 .0298407 406.65 -.98)" width="10.29" x="198.68" y="192.32"/><rect fill="#9b7e68" height="33.33" rx="7.43" transform="matrix(.93927406 -.34316794 .34316794 .93927406 -57.67 67.06)" width="14.86" x="153.21" y="179.81"/><path d="m236.37 125.55-14.64 11.35 2.47-1.79.71 1.96 6.13-2.24 2.76-1.01 1.01 2.76 2.23 6.13 1.01 2.76-2.76 1-2.14.79-.92.33-1.84.67-1.48-4.07-1.23.45 2.24 6.12 6.13-2.23 2.75-1.01 1.01 2.76 2.24 6.12 1.01 2.76-2.76 1.01-2.14.78-.92.34-1.84.67-1.49-4.08-1.23.45 2.24 6.13 6.13-2.24 2.76-1.01 1 2.76 2.24 6.13 1.01 2.75-2.76 1.01-2.14.79-.92.33-1.84.67-1.49-4.07-1.22.45 2.24 6.12 6.12-2.24 2.76-1 1.01 2.75 2.24 6.13 1 2.76-2.75 1.01-2.15.78-.92.34-1.83.67-1.49-4.08-1.23.45 2.24 6.13 6.13-2.24 2.75-1.01 1.01 2.76 2.24 6.13 1.01 2.75-2.76 1.01-2.12.77 10.95-.45z" fill="#ddd9cf"/><path d="m221.72 136.9h.01z" fill="#5c4b43"/><path d="m258.07 200.24-1.01-2.75-2.24-6.13-1.01-2.76-2.75 1.01-6.13 2.24-2.24-6.13 1.23-.45 1.49 4.08 1.83-.67.92-.34 2.15-.78 2.75-1.01-1-2.76-2.24-6.13-1.01-2.75-2.76 1-6.12 2.24-2.24-6.12 1.22-.45 1.49 4.07 1.84-.67.92-.33 2.14-.79 2.76-1.01-1.01-2.75-2.24-6.13-1-2.76-2.76 1.01-6.13 2.24-2.24-6.13 1.23-.45 1.49 4.08 1.84-.67.92-.34 2.14-.78 2.76-1.01-1.01-2.76-2.24-6.12-1.01-2.76-2.75 1.01-6.13 2.23-2.24-6.12 1.23-.45 1.48 4.07 1.84-.67.92-.33 2.14-.79 2.76-1-1.01-2.76-2.23-6.13-1.01-2.76-2.76 1.01-6.13 2.24-.71-1.96-2.47 1.79h-.01l.44 1.18 1 2.76 2.76-1.01 6.13-2.24 2.24 6.13-2.15.78-1.48-4.08-.92.34-1.84.67-3.99 1.46 1.01 2.75 2.24 6.13 1.01 2.76 2.76-1.01 6.12-2.24 2.24 6.13-2.14.78-1.49-4.07-.92.34-1.84.67-1.22.44-2.76 1.01 1.01 2.76 2.23 6.13 1.01 2.75 2.76-1 6.13-2.24 2.23 6.12-2.14.79-1.49-4.08-.92.34-1.83.67-1.23.45-2.76 1.01 1.01 2.75 2.24 6.13 1.01 2.76 2.75-1.01 6.13-2.24 2.24 6.13-2.14.78-1.49-4.07-.92.33-1.84.67-1.23.45-2.75 1.01 1 2.76 2.24 6.12 1.01 2.76 2.76-1.01 6.12-2.23 2.24 6.12-2.14.79-1.49-4.08-.92.34-1.84.67-1.54.57-2.44.88-.32.12 1.6 4.38 3.08-.12-.92-2.51 1.55-.56 1.16 3.18 3.11-.13 2.12-.77z" fill="#d3baa9"/><path d="m166.31 179.46.1.28.79-.61z" fill="#5c4b43"/><path d="m186.2 197.78-2.76 1.01-6.12 2.24-2.24-6.13 1.23-.45 1.48 4.08 1.84-.67.92-.34 2.14-.78 2.76-1.01-1.01-2.76-2.23-6.12-1.01-2.76-2.76 1.01-6.13 2.24-2.24-6.13 1.23-.45 1.49 4.08 1.84-.68.92-.33 2.14-.79 2.76-1-1.01-2.76-2.24-6.13-.5-1.38-3.82 2.96 1.56-.57 2.24 6.13-2.14.78-1.49-4.07-.92.33-1.84.67-1.22.45-1.87.68-.79.61.91 2.48 2.24 6.12 1 2.76 2.76-1.01 6.13-2.24 2.24 6.13-2.15.78-1.48-4.07-.93.34-1.83.67-1.23.45-2.76 1 1.01 2.76 2.24 6.13 1.01 2.75 2.75-1 6.13-2.24 1.2 3.28 3.08-.12-1.52-4.17z" fill="#d3baa9"/><path d="m183.06 204.38-.92.34-.8.29 1.92-.08z" fill="#5c4b43"/></svg>