<svg xmlns="http://www.w3.org/2000/svg" xmlns:xlink="http://www.w3.org/1999/xlink" viewBox="0 0 432.86 447.01"><defs><style>.cls-1,.cls-19{fill:none;}.cls-2{fill:url(#linear-gradient);}.cls-3{fill:url(#linear-gradient-2);}.cls-4{fill:#efeae6;}.cls-5{fill:#c1b49a;}.cls-6{fill:#dcd7cd;}.cls-7{clip-path:url(#clip-path);}.cls-8{clip-path:url(#clip-path-2);}.cls-9{clip-path:url(#clip-path-3);}.cls-10{clip-path:url(#clip-path-4);}.cls-11{clip-path:url(#clip-path-5);}.cls-12{clip-path:url(#clip-path-6);}.cls-13{clip-path:url(#clip-path-7);}.cls-14{clip-path:url(#clip-path-8);}.cls-15{fill:#5c4b43;}.cls-16{fill:#aa9c94;}.cls-17{fill:#9b7e68;}.cls-18{fill:#ddd9cf;}.cls-19{stroke:#9b7e68;stroke-miterlimit:10;stroke-width:3px;}.cls-20{fill:#d3baa9;}</style><linearGradient id="linear-gradient" x1="108.21" y1="90.25" x2="108.21" y2="375.29" gradientUnits="userSpaceOnUse"><stop offset="0" stop-color="#ffe197"/><stop offset="1" stop-color="#fff"/></linearGradient><linearGradient id="linear-gradient-2" x1="324.64" y1="90.25" x2="324.64" y2="375.29" xlink:href="#linear-gradient"/><clipPath id="clip-path"><polygon class="cls-1" points="331.95 398.7 331.95 400.01 346.83 414.89 346.83 398.7 331.95 398.7"/></clipPath><clipPath id="clip-path-2"><polygon class="cls-1" points="330.64 400.01 331.95 400.01 346.83 414.89 330.64 414.89 330.64 400.01"/></clipPath><clipPath id="clip-path-3"><polygon class="cls-1" points="103.16 400.01 101.85 400.01 86.97 414.89 103.16 414.89 103.16 400.01"/></clipPath><clipPath id="clip-path-4"><polygon class="cls-1" points="101.85 398.7 101.85 400.01 86.97 414.89 86.97 398.7 101.85 398.7"/></clipPath><clipPath id="clip-path-5"><polygon class="cls-1" points="101.85 48.73 101.85 47.42 86.97 32.55 86.97 48.73 101.85 48.73"/></clipPath><clipPath id="clip-path-6"><polygon class="cls-1" points="103.16 47.42 101.85 47.42 86.97 32.55 103.16 32.55 103.16 47.42"/></clipPath><clipPath id="clip-path-7"><polygon class="cls-1" points="330.64 47.42 331.95 47.42 346.83 32.55 330.64 32.55 330.64 47.42"/></clipPath><clipPath id="clip-path-8"><polygon class="cls-1" points="331.95 48.73 331.95 47.42 346.83 32.55 346.83 48.73 331.95 48.73"/></clipPath></defs><title>Asset 24</title><g id="Layer_2" data-name="Layer 2"><g id="Layer_1-2" data-name="Layer 1"><path class="cls-2" d="M200.15,358.39a149.38,149.38,0,0,1-17.8-20.79A4.45,4.45,0,0,0,180,336q-10.43-3.32-20.16-7.47c-3.08-1.32-6.42.49-5.23,3a141,141,0,0,0,13.65,22.19q-9.2-3-17.91-6.64c1.71-.42,2.66-1.73,1.75-3.29a132,132,0,0,1-10.58-23.11,3.62,3.62,0,0,0-1.72-1.9q-8.91-4.95-17-10.59c-2.57-1.79-6.29-.6-5.85,2A129.67,129.67,0,0,0,123.56,334q-7.84-4.46-15.13-9.41c1.76-.12,3-1.24,2.62-2.9a125.2,125.2,0,0,1-3.59-24.15,3.08,3.08,0,0,0-1.13-2.13,177.73,177.73,0,0,1-13.55-13.12c-2-2.17-5.94-1.63-6.23,1a128.12,128.12,0,0,0-.21,24.16q-6.33-5.64-12-11.66c1.74.18,3.29-.69,3.34-2.37a127.6,127.6,0,0,1,3.11-24.05,2.78,2.78,0,0,0-.52-2.26A156,156,0,0,1,70.53,252c-1.38-2.45-5.37-2.6-6.35-.13a135.34,135.34,0,0,0-6.68,23.47q-4.65-6.55-8.62-13.38a3,3,0,0,0,3.9-1.74,138.39,138.39,0,0,1,9.44-22.92,2.71,2.71,0,0,0,.09-2.29,138.58,138.58,0,0,1-5.5-16.41c-.7-2.64-4.56-3.48-6.17-1.23a151,151,0,0,0-12.76,21.83Q35.06,232,33,224.59a3.21,3.21,0,0,0,4.28-1A157.34,157.34,0,0,1,52.6,202.68a2.87,2.87,0,0,0,.7-2.24,129.18,129.18,0,0,1-.94-17.18c0-2.74-3.5-4.26-5.69-2.3A175,175,0,0,0,28.29,200.3,144.87,144.87,0,0,1,27.45,185a3.3,3.3,0,0,0,4.46-.27,184.27,184.27,0,0,1,20.72-18,3.3,3.3,0,0,0,1.31-2.11,131.84,131.84,0,0,1,4-17.36c.84-2.74-2.17-4.9-4.88-3.32a207,207,0,0,0-23.45,16.12,147.84,147.84,0,0,1,3.54-15.42,3.2,3.2,0,0,0,4.43.52,218.41,218.41,0,0,1,25.52-14.5A4.06,4.06,0,0,0,65,128.75a151.09,151.09,0,0,1,9.26-16.95c1.69-2.66-.57-5.39-3.72-4.25A245.76,245.76,0,0,0,42.6,119.84q1.94-4,4.14-8L44.4,111q-2.23,4-4.19,8.13a134.14,134.14,0,0,1-5.88-26.68c-.33-3.11-4.65-2.84-6.8.54a190,190,0,0,0-11.64,21.31,4.24,4.24,0,0,0-.31,3,145.4,145.4,0,0,0,10.78,25.85,3,3,0,0,0,4.27,1.07A149.55,149.55,0,0,0,27,159.79a152.41,152.41,0,0,1-13.62-23.86c-1.26-2.83-5.35-1.87-6.42,1.63a165.77,165.77,0,0,0-5,21.82,4,4,0,0,0,.56,2.86,172.34,172.34,0,0,0,17.86,22.52,3.22,3.22,0,0,0,4.46.28,146.52,146.52,0,0,0,.84,15.43,183.22,183.22,0,0,1-19.93-20.3c-2-2.45-5.74-.85-5.8,2.64a162.32,162.32,0,0,0,1.18,21.6A4.27,4.27,0,0,0,2.53,207a206.88,206.88,0,0,0,23.53,18.49,3.22,3.22,0,0,0,4.43-.5q2.09,7.46,4.94,14.75a217.68,217.68,0,0,1-24.87-16.12c-2.64-2-5.83.18-4.94,3.55a174.17,174.17,0,0,0,6.92,20.63,4.79,4.79,0,0,0,2,2.31,240.46,240.46,0,0,0,27.85,13.9c1.92.8,3.58.07,4.19-1.25q4,6.9,8.72,13.53A248.28,248.28,0,0,1,26.75,264.9c-3.11-1.5-5.64,1.18-3.89,4.3a196.1,196.1,0,0,0,12.2,18.93,5.49,5.49,0,0,0,2.56,1.92,267,267,0,0,0,30.88,8.84c2.09.46,3.52-.55,3.75-1.94Q78,303,84.44,308.74a270.2,270.2,0,0,1-31-6.35c-3.43-.93-5.19,2.12-2.65,4.88a223.46,223.46,0,0,0,17,16.49,6.27,6.27,0,0,0,3,1.45,283.81,283.81,0,0,0,32.72,3.44c2.18.1,3.3-1.13,3.15-2.54q7.37,5,15.3,9.52a282.72,282.72,0,0,1-32.23-1c-3.63-.34-4.51,3-1.24,5.24Q98.81,347,110,353.19a7.08,7.08,0,0,0,3.41.91,291.93,291.93,0,0,0,33.41-2.18c2.2-.27,3-1.67,2.38-3q8.8,3.65,18.11,6.72a287.39,287.39,0,0,1-32.42,4.54c-3.7.29-3.61,3.68.31,5.36q12.22,5.21,25.35,9.4a7.93,7.93,0,0,0,3.69.31,294.1,294.1,0,0,0,33-7.92c2.15-.65,2.47-2.15,1.47-3.38q8.45,1.71,17.22,2.94l.44-2q-8.67-1.21-17-2.91C201,361.21,201.56,359.76,200.15,358.39Z"/><path class="cls-3" d="M427,180.17a183.21,183.21,0,0,1-19.93,20.3A146.52,146.52,0,0,0,408,185a3.22,3.22,0,0,0,4.46-.28,172.39,172.39,0,0,0,17.86-22.52,4,4,0,0,0,.56-2.86,165.72,165.72,0,0,0-5-21.82c-1.07-3.5-5.16-4.46-6.42-1.63a152.44,152.44,0,0,1-13.62,23.86,149.54,149.54,0,0,0-3.58-15.59,3,3,0,0,0,4.27-1.07,145.4,145.4,0,0,0,10.78-25.85,4.24,4.24,0,0,0-.31-3A190,190,0,0,0,405.32,93c-2.15-3.38-6.47-3.65-6.8-.54a134.13,134.13,0,0,1-5.88,26.68q-2-4.08-4.19-8.13l-2.34.82q2.2,4,4.14,8a245.79,245.79,0,0,0-27.92-12.28c-3.15-1.14-5.41,1.59-3.72,4.25a151.09,151.09,0,0,1,9.26,16.95,4.06,4.06,0,0,0,1.92,1.91,218.41,218.41,0,0,1,25.52,14.5,3.2,3.2,0,0,0,4.43-.52,148,148,0,0,1,3.54,15.42,207.07,207.07,0,0,0-23.45-16.12c-2.71-1.58-5.72.58-4.88,3.32a131.79,131.79,0,0,1,4,17.36,3.31,3.31,0,0,0,1.31,2.11,184.27,184.27,0,0,1,20.72,18,3.3,3.3,0,0,0,4.46.27,145,145,0,0,1-.83,15.26A175,175,0,0,0,386.2,181c-2.19-2-5.74-.44-5.69,2.3a129.13,129.13,0,0,1-.94,17.18,2.87,2.87,0,0,0,.7,2.24,157.29,157.29,0,0,1,15.33,20.88,3.21,3.21,0,0,0,4.28,1Q397.8,232,395,239.17a151,151,0,0,0-12.76-21.83c-1.61-2.26-5.48-1.41-6.18,1.23a138.47,138.47,0,0,1-5.5,16.41,2.71,2.71,0,0,0,.09,2.29,138.36,138.36,0,0,1,9.44,22.92,3,3,0,0,0,3.9,1.74q-4,6.83-8.62,13.38a135.34,135.34,0,0,0-6.68-23.47c-1-2.47-5-2.32-6.35.13A155.9,155.9,0,0,1,352.62,267a2.78,2.78,0,0,0-.52,2.26,127.6,127.6,0,0,1,3.11,24.05c.05,1.68,1.61,2.55,3.34,2.37q-5.71,6-12,11.66a128.17,128.17,0,0,0-.21-24.16c-.29-2.59-4.23-3.12-6.23-1a177.8,177.8,0,0,1-13.55,13.12,3.08,3.08,0,0,0-1.13,2.13,125.26,125.26,0,0,1-3.59,24.15c-.42,1.66.86,2.78,2.62,2.9q-7.28,4.94-15.13,9.41a129.69,129.69,0,0,0,6.59-23.77c.43-2.59-3.29-3.79-5.85-2q-8.11,5.63-17,10.59a3.62,3.62,0,0,0-1.72,1.9,131.94,131.94,0,0,1-10.58,23.11c-.9,1.56,0,2.88,1.75,3.29q-8.7,3.61-17.91,6.64a141,141,0,0,0,13.65-22.19c1.19-2.47-2.15-4.28-5.23-3q-9.72,4.14-20.16,7.47a4.46,4.46,0,0,0-2.3,1.56,149.33,149.33,0,0,1-17.8,20.79c-1.41,1.37-.86,2.82.75,3.53q-8.36,1.69-17,2.91l.44,2q8.77-1.23,17.22-2.94c-1,1.23-.68,2.73,1.47,3.38a294.14,294.14,0,0,0,33,7.92,7.93,7.93,0,0,0,3.69-.31q13.11-4.17,25.35-9.4c3.92-1.68,4-5.07.31-5.36a287.39,287.39,0,0,1-32.42-4.54q9.31-3.06,18.11-6.72c-.57,1.36.18,2.76,2.38,3a291.93,291.93,0,0,0,33.41,2.18,7.09,7.09,0,0,0,3.41-.91Q334,347,344.25,339.88c3.27-2.28,2.39-5.58-1.24-5.24a282.71,282.71,0,0,1-32.23,1q7.93-4.51,15.3-9.52c-.16,1.41,1,2.64,3.15,2.54a283.8,283.8,0,0,0,32.72-3.44,6.27,6.27,0,0,0,3-1.45,223.58,223.58,0,0,0,17-16.49c2.55-2.76.79-5.81-2.65-4.88a270.22,270.22,0,0,1-31,6.35q6.4-5.7,12.17-11.79c.24,1.4,1.66,2.4,3.75,1.94a267,267,0,0,0,30.88-8.84,5.49,5.49,0,0,0,2.56-1.92A196,196,0,0,0,410,269.2c1.75-3.12-.78-5.8-3.89-4.3a248.31,248.31,0,0,1-28.52,11.43q4.7-6.62,8.72-13.53c.61,1.32,2.27,2.06,4.19,1.25a240.46,240.46,0,0,0,27.85-13.9,4.79,4.79,0,0,0,2-2.31,174.17,174.17,0,0,0,6.92-20.63c.89-3.37-2.3-5.55-4.94-3.55a217.71,217.71,0,0,1-24.87,16.12q2.84-7.28,4.94-14.75a3.22,3.22,0,0,0,4.43.5A206.91,206.91,0,0,0,430.33,207a4.27,4.27,0,0,0,1.33-2.63,162.36,162.36,0,0,0,1.18-21.6C432.79,179.33,429.08,177.72,427,180.17Z"/><rect class="cls-4" x="78.15" y="44.38" width="275.96" height="358.68"/><path class="cls-5" d="M351.61,46.88V400.56h-271V46.88h271m5-5h-281V405.56h281V41.88Z"/><rect class="cls-6" x="343.3" y="51.36" width="3.52" height="14.88"/><rect class="cls-6" x="331.95" y="51.36" width="14.88" height="3.52"/><rect class="cls-6" x="339.39" y="62.71" width="7.44" height="3.52"/><rect class="cls-6" x="331.95" y="57.5" width="7.44" height="3.52"/><rect class="cls-6" x="337.04" y="57.5" width="3.52" height="8.73"/><rect class="cls-6" x="331.95" y="57.5" width="3.52" height="8.73"/><rect class="cls-6" x="331.95" y="48.73" width="3.52" height="6.15"/><rect class="cls-6" x="343.3" y="68.85" width="3.52" height="14.88"/><rect class="cls-6" x="331.95" y="68.85" width="14.88" height="3.52"/><rect class="cls-6" x="339.39" y="80.21" width="7.44" height="3.52"/><rect class="cls-6" x="331.95" y="75" width="7.44" height="3.52"/><rect class="cls-6" x="337.04" y="75" width="3.52" height="8.73"/><rect class="cls-6" x="331.95" y="75" width="3.52" height="8.73"/><rect class="cls-6" x="331.95" y="66.23" width="3.52" height="6.15"/><rect class="cls-6" x="343.3" y="86.35" width="3.52" height="14.88"/><rect class="cls-6" x="331.95" y="86.35" width="14.88" height="3.52"/><rect class="cls-6" x="339.39" y="97.71" width="7.44" height="3.52"/><rect class="cls-6" x="331.95" y="92.5" width="7.44" height="3.52"/><rect class="cls-6" x="337.04" y="92.5" width="3.52" height="8.73"/><rect class="cls-6" x="331.95" y="92.5" width="3.52" height="8.73"/><rect class="cls-6" x="331.95" y="83.73" width="3.52" height="6.15"/><rect class="cls-6" x="343.3" y="103.85" width="3.52" height="14.88"/><rect class="cls-6" x="331.95" y="103.85" width="14.88" height="3.52"/><rect class="cls-6" x="339.39" y="115.2" width="7.44" height="3.52"/><rect class="cls-6" x="331.95" y="110" width="7.44" height="3.52"/><rect class="cls-6" x="337.04" y="110" width="3.52" height="8.73"/><rect class="cls-6" x="331.95" y="110" width="3.52" height="8.73"/><rect class="cls-6" x="331.95" y="101.23" width="3.52" height="6.15"/><rect class="cls-6" x="343.3" y="121.35" width="3.52" height="14.88"/><rect class="cls-6" x="331.95" y="121.35" width="14.88" height="3.52"/><rect class="cls-6" x="339.39" y="132.7" width="7.44" height="3.52"/><rect class="cls-6" x="331.95" y="127.5" width="7.44" height="3.52"/><rect class="cls-6" x="337.04" y="127.5" width="3.52" height="8.73"/><rect class="cls-6" x="331.95" y="127.5" width="3.52" height="8.73"/><rect class="cls-6" x="331.95" y="118.73" width="3.52" height="6.15"/><rect class="cls-6" x="343.3" y="138.85" width="3.52" height="14.88"/><rect class="cls-6" x="331.95" y="138.85" width="14.88" height="3.52"/><rect class="cls-6" x="339.39" y="150.2" width="7.44" height="3.52"/><rect class="cls-6" x="331.95" y="144.99" width="7.44" height="3.52"/><rect class="cls-6" x="337.04" y="144.99" width="3.52" height="8.73"/><rect class="cls-6" x="331.95" y="144.99" width="3.52" height="8.73"/><rect class="cls-6" x="331.95" y="136.23" width="3.52" height="6.15"/><rect class="cls-6" x="343.3" y="156.35" width="3.52" height="14.88"/><rect class="cls-6" x="331.95" y="156.35" width="14.88" height="3.52"/><rect class="cls-6" x="339.39" y="167.7" width="7.44" height="3.52"/><rect class="cls-6" x="331.95" y="162.49" width="7.44" height="3.52"/><rect class="cls-6" x="337.04" y="162.49" width="3.52" height="8.73"/><rect class="cls-6" x="331.95" y="162.49" width="3.52" height="8.73"/><rect class="cls-6" x="331.95" y="153.72" width="3.52" height="6.15"/><rect class="cls-6" x="343.3" y="173.85" width="3.52" height="14.88"/><rect class="cls-6" x="331.95" y="173.85" width="14.88" height="3.52"/><rect class="cls-6" x="339.39" y="185.2" width="7.44" height="3.52"/><rect class="cls-6" x="331.95" y="179.99" width="7.44" height="3.52"/><rect class="cls-6" x="337.04" y="179.99" width="3.52" height="8.73"/><rect class="cls-6" x="331.95" y="179.99" width="3.52" height="8.73"/><rect class="cls-6" x="331.95" y="171.22" width="3.52" height="6.15"/><rect class="cls-6" x="343.3" y="191.34" width="3.52" height="14.88"/><rect class="cls-6" x="331.95" y="191.34" width="14.88" height="3.52"/><rect class="cls-6" x="339.39" y="202.7" width="7.44" height="3.52"/><rect class="cls-6" x="331.95" y="197.49" width="7.44" height="3.52"/><rect class="cls-6" x="337.04" y="197.49" width="3.52" height="8.73"/><rect class="cls-6" x="331.95" y="197.49" width="3.52" height="8.73"/><rect class="cls-6" x="331.95" y="188.72" width="3.52" height="6.15"/><rect class="cls-6" x="343.3" y="208.84" width="3.52" height="14.88"/><rect class="cls-6" x="331.95" y="208.84" width="14.88" height="3.52"/><rect class="cls-6" x="339.39" y="220.19" width="7.44" height="3.52"/><rect class="cls-6" x="331.95" y="214.99" width="7.44" height="3.52"/><rect class="cls-6" x="337.04" y="214.99" width="3.52" height="8.73"/><rect class="cls-6" x="331.95" y="214.99" width="3.52" height="8.73"/><rect class="cls-6" x="331.95" y="206.22" width="3.52" height="6.15"/><rect class="cls-6" x="343.3" y="226.34" width="3.52" height="14.88"/><rect class="cls-6" x="331.95" y="226.34" width="14.88" height="3.52"/><rect class="cls-6" x="339.39" y="237.69" width="7.44" height="3.52"/><rect class="cls-6" x="331.95" y="232.49" width="7.44" height="3.52"/><rect class="cls-6" x="337.04" y="232.49" width="3.52" height="8.73"/><rect class="cls-6" x="331.95" y="232.49" width="3.52" height="8.73"/><rect class="cls-6" x="331.95" y="223.72" width="3.52" height="6.15"/><rect class="cls-6" x="343.3" y="243.84" width="3.52" height="14.88"/><rect class="cls-6" x="331.95" y="243.84" width="14.88" height="3.52"/><rect class="cls-6" x="339.39" y="255.19" width="7.44" height="3.52"/><rect class="cls-6" x="331.95" y="249.98" width="7.44" height="3.52"/><rect class="cls-6" x="337.04" y="249.98" width="3.52" height="8.73"/><rect class="cls-6" x="331.95" y="249.98" width="3.52" height="8.73"/><rect class="cls-6" x="331.95" y="241.22" width="3.52" height="6.15"/><rect class="cls-6" x="343.3" y="261.34" width="3.52" height="14.88"/><rect class="cls-6" x="331.95" y="261.34" width="14.88" height="3.52"/><rect class="cls-6" x="339.39" y="272.69" width="7.44" height="3.52"/><rect class="cls-6" x="331.95" y="267.48" width="7.44" height="3.52"/><rect class="cls-6" x="337.04" y="267.48" width="3.52" height="8.73"/><rect class="cls-6" x="331.95" y="267.48" width="3.52" height="8.73"/><rect class="cls-6" x="331.95" y="258.72" width="3.52" height="6.15"/><rect class="cls-6" x="343.3" y="278.84" width="3.52" height="14.88"/><rect class="cls-6" x="331.95" y="278.84" width="14.88" height="3.52"/><rect class="cls-6" x="339.39" y="290.19" width="7.44" height="3.52"/><rect class="cls-6" x="331.95" y="284.98" width="7.44" height="3.52"/><rect class="cls-6" x="337.04" y="284.98" width="3.52" height="8.73"/><rect class="cls-6" x="331.95" y="284.98" width="3.52" height="8.73"/><rect class="cls-6" x="331.95" y="276.21" width="3.52" height="6.15"/><rect class="cls-6" x="343.3" y="296.33" width="3.52" height="14.88"/><rect class="cls-6" x="331.95" y="296.33" width="14.88" height="3.52"/><rect class="cls-6" x="339.39" y="307.69" width="7.44" height="3.52"/><rect class="cls-6" x="331.95" y="302.48" width="7.44" height="3.52"/><rect class="cls-6" x="337.04" y="302.48" width="3.52" height="8.73"/><rect class="cls-6" x="331.95" y="302.48" width="3.52" height="8.73"/><rect class="cls-6" x="331.95" y="293.71" width="3.52" height="6.15"/><rect class="cls-6" x="343.3" y="313.83" width="3.52" height="14.88"/><rect class="cls-6" x="331.95" y="313.83" width="14.88" height="3.52"/><rect class="cls-6" x="339.39" y="325.19" width="7.44" height="3.52"/><rect class="cls-6" x="331.95" y="319.98" width="7.44" height="3.52"/><rect class="cls-6" x="337.04" y="319.98" width="3.52" height="8.73"/><rect class="cls-6" x="331.95" y="319.98" width="3.52" height="8.73"/><rect class="cls-6" x="331.95" y="311.21" width="3.52" height="6.15"/><rect class="cls-6" x="343.3" y="331.33" width="3.52" height="14.88"/><rect class="cls-6" x="331.95" y="331.33" width="14.88" height="3.52"/><rect class="cls-6" x="339.39" y="342.68" width="7.44" height="3.52"/><rect class="cls-6" x="331.95" y="337.48" width="7.44" height="3.52"/><rect class="cls-6" x="337.04" y="337.48" width="3.52" height="8.73"/><rect class="cls-6" x="331.95" y="337.48" width="3.52" height="8.73"/><rect class="cls-6" x="331.95" y="328.71" width="3.52" height="6.15"/><rect class="cls-6" x="343.3" y="348.83" width="3.52" height="14.88"/><rect class="cls-6" x="331.95" y="348.83" width="14.88" height="3.52"/><rect class="cls-6" x="339.39" y="360.18" width="7.44" height="3.52"/><rect class="cls-6" x="331.95" y="354.98" width="7.44" height="3.52"/><rect class="cls-6" x="337.04" y="354.98" width="3.52" height="8.73"/><rect class="cls-6" x="331.95" y="354.98" width="3.52" height="8.73"/><rect class="cls-6" x="331.95" y="346.21" width="3.52" height="6.15"/><rect class="cls-6" x="343.3" y="366.33" width="3.52" height="14.88"/><rect class="cls-6" x="331.95" y="366.33" width="14.88" height="3.52"/><rect class="cls-6" x="339.39" y="377.68" width="7.44" height="3.52"/><rect class="cls-6" x="331.95" y="372.47" width="7.44" height="3.52"/><rect class="cls-6" x="337.04" y="372.47" width="3.52" height="8.73"/><rect class="cls-6" x="331.95" y="372.47" width="3.52" height="8.73"/><rect class="cls-6" x="331.95" y="363.71" width="3.52" height="6.15"/><rect class="cls-6" x="343.3" y="383.83" width="3.52" height="14.88"/><rect class="cls-6" x="331.95" y="383.83" width="14.88" height="3.52"/><rect class="cls-6" x="339.39" y="395.18" width="7.44" height="3.52"/><rect class="cls-6" x="331.95" y="389.97" width="7.44" height="3.52"/><rect class="cls-6" x="337.04" y="389.97" width="3.52" height="8.73"/><rect class="cls-6" x="331.95" y="389.97" width="3.52" height="8.73"/><rect class="cls-6" x="331.95" y="381.2" width="3.52" height="6.15"/><rect class="cls-6" x="313.14" y="411.37" width="14.88" height="3.52"/><rect class="cls-6" x="324.49" y="400.01" width="3.52" height="14.88"/><rect class="cls-6" x="313.14" y="407.45" width="3.52" height="7.44"/><rect class="cls-6" x="318.35" y="400.01" width="3.52" height="7.44"/><rect class="cls-6" x="313.14" y="405.1" width="8.73" height="3.52"/><rect class="cls-6" x="313.14" y="400.01" width="8.73" height="3.52"/><rect class="cls-6" x="324.49" y="400.01" width="6.15" height="3.52"/><rect class="cls-6" x="295.64" y="411.37" width="14.88" height="3.52"/><rect class="cls-6" x="307" y="400.01" width="3.52" height="14.88"/><rect class="cls-6" x="295.64" y="407.45" width="3.52" height="7.44"/><rect class="cls-6" x="300.85" y="400.01" width="3.52" height="7.44"/><rect class="cls-6" x="295.64" y="405.1" width="8.73" height="3.52"/><rect class="cls-6" x="295.64" y="400.01" width="8.73" height="3.52"/><rect class="cls-6" x="307" y="400.01" width="6.15" height="3.52"/><rect class="cls-6" x="278.14" y="411.37" width="14.88" height="3.52"/><rect class="cls-6" x="289.5" y="400.01" width="3.52" height="14.88"/><rect class="cls-6" x="278.14" y="407.45" width="3.52" height="7.44"/><rect class="cls-6" x="283.35" y="400.01" width="3.52" height="7.44"/><rect class="cls-6" x="278.14" y="405.1" width="8.73" height="3.52"/><rect class="cls-6" x="278.14" y="400.01" width="8.73" height="3.52"/><rect class="cls-6" x="289.5" y="400.01" width="6.15" height="3.52"/><rect class="cls-6" x="260.65" y="411.37" width="14.88" height="3.52"/><rect class="cls-6" x="272" y="400.01" width="3.52" height="14.88"/><rect class="cls-6" x="260.65" y="407.45" width="3.52" height="7.44"/><rect class="cls-6" x="265.85" y="400.01" width="3.52" height="7.44"/><rect class="cls-6" x="260.65" y="405.1" width="8.73" height="3.52"/><rect class="cls-6" x="260.65" y="400.01" width="8.73" height="3.52"/><rect class="cls-6" x="272" y="400.01" width="6.15" height="3.52"/><rect class="cls-6" x="243.15" y="411.37" width="14.88" height="3.52"/><rect class="cls-6" x="254.5" y="400.01" width="3.52" height="14.88"/><rect class="cls-6" x="243.15" y="407.45" width="3.52" height="7.44"/><rect class="cls-6" x="248.36" y="400.01" width="3.52" height="7.44"/><rect class="cls-6" x="243.15" y="405.1" width="8.73" height="3.52"/><rect class="cls-6" x="243.15" y="400.01" width="8.73" height="3.52"/><rect class="cls-6" x="254.5" y="400.01" width="6.15" height="3.52"/><rect class="cls-6" x="225.65" y="411.37" width="14.88" height="3.52"/><rect class="cls-6" x="237" y="400.01" width="3.52" height="14.88"/><rect class="cls-6" x="225.65" y="407.45" width="3.52" height="7.44"/><rect class="cls-6" x="230.86" y="400.01" width="3.52" height="7.44"/><rect class="cls-6" x="225.65" y="405.1" width="8.73" height="3.52"/><rect class="cls-6" x="225.65" y="400.01" width="8.73" height="3.52"/><rect class="cls-6" x="237" y="400.01" width="6.15" height="3.52"/><rect class="cls-6" x="208.15" y="411.37" width="14.88" height="3.52"/><rect class="cls-6" x="219.5" y="400.01" width="3.52" height="14.88"/><rect class="cls-6" x="208.15" y="407.45" width="3.52" height="7.44"/><rect class="cls-6" x="213.36" y="400.01" width="3.52" height="7.44"/><rect class="cls-6" x="208.15" y="405.1" width="8.73" height="3.52"/><rect class="cls-6" x="208.15" y="400.01" width="8.73" height="3.52"/><rect class="cls-6" x="219.5" y="400.01" width="6.15" height="3.52"/><rect class="cls-6" x="190.65" y="411.37" width="14.88" height="3.52"/><rect class="cls-6" x="202.01" y="400.01" width="3.52" height="14.88"/><rect class="cls-6" x="190.65" y="407.45" width="3.52" height="7.44"/><rect class="cls-6" x="195.86" y="400.01" width="3.52" height="7.44"/><rect class="cls-6" x="190.65" y="405.1" width="8.73" height="3.52"/><rect class="cls-6" x="190.65" y="400.01" width="8.73" height="3.52"/><rect class="cls-6" x="202.01" y="400.01" width="6.15" height="3.52"/><rect class="cls-6" x="173.15" y="411.37" width="14.88" height="3.52"/><rect class="cls-6" x="184.51" y="400.01" width="3.52" height="14.88"/><rect class="cls-6" x="173.15" y="407.45" width="3.52" height="7.44"/><rect class="cls-6" x="178.36" y="400.01" width="3.52" height="7.44"/><rect class="cls-6" x="173.15" y="405.1" width="8.73" height="3.52"/><rect class="cls-6" x="173.15" y="400.01" width="8.73" height="3.52"/><rect class="cls-6" x="184.51" y="400.01" width="6.15" height="3.52"/><rect class="cls-6" x="155.66" y="411.37" width="14.88" height="3.52"/><rect class="cls-6" x="167.01" y="400.01" width="3.52" height="14.88"/><rect class="cls-6" x="155.66" y="407.45" width="3.52" height="7.44"/><rect class="cls-6" x="160.86" y="400.01" width="3.52" height="7.44"/><rect class="cls-6" x="155.66" y="405.1" width="8.73" height="3.52"/><rect class="cls-6" x="155.66" y="400.01" width="8.73" height="3.52"/><rect class="cls-6" x="167.01" y="400.01" width="6.15" height="3.52"/><rect class="cls-6" x="138.16" y="411.37" width="14.88" height="3.52"/><rect class="cls-6" x="149.51" y="400.01" width="3.52" height="14.88"/><rect class="cls-6" x="138.16" y="407.45" width="3.52" height="7.44"/><rect class="cls-6" x="143.36" y="400.01" width="3.52" height="7.44"/><rect class="cls-6" x="138.16" y="405.1" width="8.73" height="3.52"/><rect class="cls-6" x="138.16" y="400.01" width="8.73" height="3.52"/><rect class="cls-6" x="149.51" y="400.01" width="6.15" height="3.52"/><rect class="cls-6" x="120.66" y="411.37" width="14.88" height="3.52"/><rect class="cls-6" x="132.01" y="400.01" width="3.52" height="14.88"/><rect class="cls-6" x="120.66" y="407.45" width="3.52" height="7.44"/><rect class="cls-6" x="125.87" y="400.01" width="3.52" height="7.44"/><rect class="cls-6" x="120.66" y="405.1" width="8.73" height="3.52"/><rect class="cls-6" x="120.66" y="400.01" width="8.73" height="3.52"/><rect class="cls-6" x="132.01" y="400.01" width="6.15" height="3.52"/><rect class="cls-6" x="103.16" y="411.37" width="14.88" height="3.52"/><rect class="cls-6" x="114.51" y="400.01" width="3.52" height="14.88"/><rect class="cls-6" x="103.16" y="407.45" width="3.52" height="7.44"/><rect class="cls-6" x="108.37" y="400.01" width="3.52" height="7.44"/><rect class="cls-6" x="103.16" y="405.1" width="8.73" height="3.52"/><rect class="cls-6" x="103.16" y="400.01" width="8.73" height="3.52"/><rect class="cls-6" x="114.51" y="400.01" width="6.15" height="3.52"/><rect class="cls-6" x="86.97" y="381.2" width="3.52" height="14.88"/><rect class="cls-6" x="86.97" y="392.56" width="14.88" height="3.52"/><rect class="cls-6" x="86.97" y="381.2" width="7.44" height="3.52"/><rect class="cls-6" x="94.41" y="386.41" width="7.44" height="3.52"/><rect class="cls-6" x="93.24" y="381.2" width="3.52" height="8.73"/><rect class="cls-6" x="98.33" y="381.2" width="3.52" height="8.73"/><rect class="cls-6" x="98.33" y="392.56" width="3.52" height="6.15"/><rect class="cls-6" x="86.97" y="363.71" width="3.52" height="14.88"/><rect class="cls-6" x="86.97" y="375.06" width="14.88" height="3.52"/><rect class="cls-6" x="86.97" y="363.71" width="7.44" height="3.52"/><rect class="cls-6" x="94.41" y="368.91" width="7.44" height="3.52"/><rect class="cls-6" x="93.24" y="363.71" width="3.52" height="8.73"/><rect class="cls-6" x="98.33" y="363.71" width="3.52" height="8.73"/><rect class="cls-6" x="98.33" y="375.06" width="3.52" height="6.15"/><rect class="cls-6" x="86.97" y="346.21" width="3.52" height="14.88"/><rect class="cls-6" x="86.97" y="357.56" width="14.88" height="3.52"/><rect class="cls-6" x="86.97" y="346.21" width="7.44" height="3.52"/><rect class="cls-6" x="94.41" y="351.42" width="7.44" height="3.52"/><rect class="cls-6" x="93.24" y="346.21" width="3.52" height="8.73"/><rect class="cls-6" x="98.33" y="346.21" width="3.52" height="8.73"/><rect class="cls-6" x="98.33" y="357.56" width="3.52" height="6.15"/><rect class="cls-6" x="86.97" y="328.71" width="3.52" height="14.88"/><rect class="cls-6" x="86.97" y="340.06" width="14.88" height="3.52"/><rect class="cls-6" x="86.97" y="328.71" width="7.44" height="3.52"/><rect class="cls-6" x="94.41" y="333.92" width="7.44" height="3.52"/><rect class="cls-6" x="93.24" y="328.71" width="3.52" height="8.73"/><rect class="cls-6" x="98.33" y="328.71" width="3.52" height="8.73"/><rect class="cls-6" x="98.33" y="340.06" width="3.52" height="6.15"/><rect class="cls-6" x="86.97" y="311.21" width="3.52" height="14.88"/><rect class="cls-6" x="86.97" y="322.56" width="14.88" height="3.52"/><rect class="cls-6" x="86.97" y="311.21" width="7.44" height="3.52"/><rect class="cls-6" x="94.41" y="316.42" width="7.44" height="3.52"/><rect class="cls-6" x="93.24" y="311.21" width="3.52" height="8.73"/><rect class="cls-6" x="98.33" y="311.21" width="3.52" height="8.73"/><rect class="cls-6" x="98.33" y="322.56" width="3.52" height="6.15"/><rect class="cls-6" x="86.97" y="293.71" width="3.52" height="14.88"/><rect class="cls-6" x="86.97" y="305.06" width="14.88" height="3.52"/><rect class="cls-6" x="86.97" y="293.71" width="7.44" height="3.52"/><rect class="cls-6" x="94.41" y="298.92" width="7.44" height="3.52"/><rect class="cls-6" x="93.24" y="293.71" width="3.52" height="8.73"/><rect class="cls-6" x="98.33" y="293.71" width="3.52" height="8.73"/><rect class="cls-6" x="98.33" y="305.06" width="3.52" height="6.15"/><rect class="cls-6" x="86.97" y="276.21" width="3.52" height="14.88"/><rect class="cls-6" x="86.97" y="287.57" width="14.88" height="3.52"/><rect class="cls-6" x="86.97" y="276.21" width="7.44" height="3.52"/><rect class="cls-6" x="94.41" y="281.42" width="7.44" height="3.52"/><rect class="cls-6" x="93.24" y="276.21" width="3.52" height="8.73"/><rect class="cls-6" x="98.33" y="276.21" width="3.52" height="8.73"/><rect class="cls-6" x="98.33" y="287.57" width="3.52" height="6.15"/><rect class="cls-6" x="86.97" y="258.72" width="3.52" height="14.88"/><rect class="cls-6" x="86.97" y="270.07" width="14.88" height="3.52"/><rect class="cls-6" x="86.97" y="258.72" width="7.44" height="3.52"/><rect class="cls-6" x="94.41" y="263.92" width="7.44" height="3.52"/><rect class="cls-6" x="93.24" y="258.72" width="3.52" height="8.73"/><rect class="cls-6" x="98.33" y="258.72" width="3.52" height="8.73"/><rect class="cls-6" x="98.33" y="270.07" width="3.52" height="6.15"/><rect class="cls-6" x="86.97" y="241.22" width="3.52" height="14.88"/><rect class="cls-6" x="86.97" y="252.57" width="14.88" height="3.52"/><rect class="cls-6" x="86.97" y="241.22" width="7.44" height="3.52"/><rect class="cls-6" x="94.41" y="246.42" width="7.44" height="3.52"/><rect class="cls-6" x="93.24" y="241.22" width="3.52" height="8.73"/><rect class="cls-6" x="98.33" y="241.22" width="3.52" height="8.73"/><rect class="cls-6" x="98.33" y="252.57" width="3.52" height="6.15"/><rect class="cls-6" x="86.97" y="223.72" width="3.52" height="14.88"/><rect class="cls-6" x="86.97" y="235.07" width="14.88" height="3.52"/><rect class="cls-6" x="86.97" y="223.72" width="7.44" height="3.52"/><rect class="cls-6" x="94.41" y="228.93" width="7.44" height="3.52"/><rect class="cls-6" x="93.24" y="223.72" width="3.52" height="8.73"/><rect class="cls-6" x="98.33" y="223.72" width="3.52" height="8.73"/><rect class="cls-6" x="98.33" y="235.07" width="3.52" height="6.15"/><rect class="cls-6" x="86.97" y="206.22" width="3.52" height="14.88"/><rect class="cls-6" x="86.97" y="217.57" width="14.88" height="3.52"/><rect class="cls-6" x="86.97" y="206.22" width="7.44" height="3.52"/><rect class="cls-6" x="94.41" y="211.43" width="7.44" height="3.52"/><rect class="cls-6" x="93.24" y="206.22" width="3.52" height="8.73"/><rect class="cls-6" x="98.33" y="206.22" width="3.52" height="8.73"/><rect class="cls-6" x="98.33" y="217.57" width="3.52" height="6.15"/><rect class="cls-6" x="86.97" y="188.72" width="3.52" height="14.88"/><rect class="cls-6" x="86.97" y="200.07" width="14.88" height="3.52"/><rect class="cls-6" x="86.97" y="188.72" width="7.44" height="3.52"/><rect class="cls-6" x="94.41" y="193.93" width="7.44" height="3.52"/><rect class="cls-6" x="93.24" y="188.72" width="3.52" height="8.73"/><rect class="cls-6" x="98.33" y="188.72" width="3.52" height="8.73"/><rect class="cls-6" x="98.33" y="200.07" width="3.52" height="6.15"/><rect class="cls-6" x="86.97" y="171.22" width="3.52" height="14.88"/><rect class="cls-6" x="86.97" y="182.58" width="14.88" height="3.52"/><rect class="cls-6" x="86.97" y="171.22" width="7.44" height="3.52"/><rect class="cls-6" x="94.41" y="176.43" width="7.44" height="3.52"/><rect class="cls-6" x="93.24" y="171.22" width="3.52" height="8.73"/><rect class="cls-6" x="98.33" y="171.22" width="3.52" height="8.73"/><rect class="cls-6" x="98.33" y="182.58" width="3.52" height="6.15"/><rect class="cls-6" x="86.97" y="153.72" width="3.52" height="14.88"/><rect class="cls-6" x="86.97" y="165.08" width="14.88" height="3.52"/><rect class="cls-6" x="86.97" y="153.72" width="7.44" height="3.52"/><rect class="cls-6" x="94.41" y="158.93" width="7.44" height="3.52"/><rect class="cls-6" x="93.24" y="153.72" width="3.52" height="8.73"/><rect class="cls-6" x="98.33" y="153.72" width="3.52" height="8.73"/><rect class="cls-6" x="98.33" y="165.08" width="3.52" height="6.15"/><rect class="cls-6" x="86.97" y="136.23" width="3.52" height="14.88"/><rect class="cls-6" x="86.97" y="147.58" width="14.88" height="3.52"/><rect class="cls-6" x="86.97" y="136.23" width="7.44" height="3.52"/><rect class="cls-6" x="94.41" y="141.43" width="7.44" height="3.52"/><rect class="cls-6" x="93.24" y="136.23" width="3.52" height="8.73"/><rect class="cls-6" x="98.33" y="136.23" width="3.52" height="8.73"/><rect class="cls-6" x="98.33" y="147.58" width="3.52" height="6.15"/><rect class="cls-6" x="86.97" y="118.73" width="3.52" height="14.88"/><rect class="cls-6" x="86.97" y="130.08" width="14.88" height="3.52"/><rect class="cls-6" x="86.97" y="118.73" width="7.44" height="3.52"/><rect class="cls-6" x="94.41" y="123.94" width="7.44" height="3.52"/><rect class="cls-6" x="93.24" y="118.73" width="3.52" height="8.73"/><rect class="cls-6" x="98.33" y="118.73" width="3.52" height="8.73"/><rect class="cls-6" x="98.33" y="130.08" width="3.52" height="6.15"/><rect class="cls-6" x="86.97" y="101.23" width="3.52" height="14.88"/><rect class="cls-6" x="86.97" y="112.58" width="14.88" height="3.52"/><rect class="cls-6" x="86.97" y="101.23" width="7.44" height="3.52"/><rect class="cls-6" x="94.41" y="106.44" width="7.44" height="3.52"/><rect class="cls-6" x="93.24" y="101.23" width="3.52" height="8.73"/><rect class="cls-6" x="98.33" y="101.23" width="3.52" height="8.73"/><rect class="cls-6" x="98.33" y="112.58" width="3.52" height="6.15"/><rect class="cls-6" x="86.97" y="83.73" width="3.52" height="14.88"/><rect class="cls-6" x="86.97" y="95.08" width="14.88" height="3.52"/><rect class="cls-6" x="86.97" y="83.73" width="7.44" height="3.52"/><rect class="cls-6" x="94.41" y="88.94" width="7.44" height="3.52"/><rect class="cls-6" x="93.24" y="83.73" width="3.52" height="8.73"/><rect class="cls-6" x="98.33" y="83.73" width="3.52" height="8.73"/><rect class="cls-6" x="98.33" y="95.08" width="3.52" height="6.15"/><rect class="cls-6" x="86.97" y="66.23" width="3.52" height="14.88"/><rect class="cls-6" x="86.97" y="77.59" width="14.88" height="3.52"/><rect class="cls-6" x="86.97" y="66.23" width="7.44" height="3.52"/><rect class="cls-6" x="94.41" y="71.44" width="7.44" height="3.52"/><rect class="cls-6" x="93.24" y="66.23" width="3.52" height="8.73"/><rect class="cls-6" x="98.33" y="66.23" width="3.52" height="8.73"/><rect class="cls-6" x="98.33" y="77.59" width="3.52" height="6.15"/><rect class="cls-6" x="86.97" y="48.73" width="3.52" height="14.88"/><rect class="cls-6" x="86.97" y="60.09" width="14.88" height="3.52"/><rect class="cls-6" x="86.97" y="48.73" width="7.44" height="3.52"/><rect class="cls-6" x="94.41" y="53.94" width="7.44" height="3.52"/><rect class="cls-6" x="93.24" y="48.73" width="3.52" height="8.73"/><rect class="cls-6" x="98.33" y="48.73" width="3.52" height="8.73"/><rect class="cls-6" x="98.33" y="60.09" width="3.52" height="6.15"/><rect class="cls-6" x="105.78" y="32.55" width="14.88" height="3.52"/><rect class="cls-6" x="105.78" y="32.55" width="3.52" height="14.88"/><rect class="cls-6" x="117.14" y="32.55" width="3.52" height="7.44"/><rect class="cls-6" x="111.93" y="39.98" width="3.52" height="7.44"/><rect class="cls-6" x="111.93" y="38.81" width="8.73" height="3.52"/><rect class="cls-6" x="111.93" y="43.9" width="8.73" height="3.52"/><rect class="cls-6" x="103.16" y="43.9" width="6.15" height="3.52"/><rect class="cls-6" x="123.28" y="32.55" width="14.88" height="3.52"/><rect class="cls-6" x="123.28" y="32.55" width="3.52" height="14.88"/><rect class="cls-6" x="134.63" y="32.55" width="3.52" height="7.44"/><rect class="cls-6" x="129.43" y="39.98" width="3.52" height="7.44"/><rect class="cls-6" x="129.43" y="38.81" width="8.73" height="3.52"/><rect class="cls-6" x="129.43" y="43.9" width="8.73" height="3.52"/><rect class="cls-6" x="120.66" y="43.9" width="6.15" height="3.52"/><rect class="cls-6" x="140.78" y="32.55" width="14.88" height="3.52"/><rect class="cls-6" x="140.78" y="32.55" width="3.52" height="14.88"/><rect class="cls-6" x="152.13" y="32.55" width="3.52" height="7.44"/><rect class="cls-6" x="146.92" y="39.98" width="3.52" height="7.44"/><rect class="cls-6" x="146.92" y="38.81" width="8.73" height="3.52"/><rect class="cls-6" x="146.92" y="43.9" width="8.73" height="3.52"/><rect class="cls-6" x="138.16" y="43.9" width="6.15" height="3.52"/><rect class="cls-6" x="158.28" y="32.55" width="14.88" height="3.52"/><rect class="cls-6" x="158.28" y="32.55" width="3.52" height="14.88"/><rect class="cls-6" x="169.63" y="32.55" width="3.52" height="7.44"/><rect class="cls-6" x="164.42" y="39.98" width="3.52" height="7.44"/><rect class="cls-6" x="164.42" y="38.81" width="8.73" height="3.52"/><rect class="cls-6" x="164.42" y="43.9" width="8.73" height="3.52"/><rect class="cls-6" x="155.66" y="43.9" width="6.15" height="3.52"/><rect class="cls-6" x="175.78" y="32.55" width="14.88" height="3.52"/><rect class="cls-6" x="175.78" y="32.55" width="3.52" height="14.88"/><rect class="cls-6" x="187.13" y="32.55" width="3.52" height="7.44"/><rect class="cls-6" x="181.92" y="39.98" width="3.52" height="7.44"/><rect class="cls-6" x="181.92" y="38.81" width="8.73" height="3.52"/><rect class="cls-6" x="181.92" y="43.9" width="8.73" height="3.52"/><rect class="cls-6" x="173.15" y="43.9" width="6.15" height="3.52"/><rect class="cls-6" x="193.27" y="32.55" width="14.88" height="3.52"/><rect class="cls-6" x="193.27" y="32.55" width="3.52" height="14.88"/><rect class="cls-6" x="204.63" y="32.55" width="3.52" height="7.44"/><rect class="cls-6" x="199.42" y="39.98" width="3.52" height="7.44"/><rect class="cls-6" x="199.42" y="38.81" width="8.73" height="3.52"/><rect class="cls-6" x="199.42" y="43.9" width="8.73" height="3.52"/><rect class="cls-6" x="190.65" y="43.9" width="6.15" height="3.52"/><rect class="cls-6" x="210.77" y="32.55" width="14.88" height="3.52"/><rect class="cls-6" x="210.77" y="32.55" width="3.52" height="14.88"/><rect class="cls-6" x="222.13" y="32.55" width="3.52" height="7.44"/><rect class="cls-6" x="216.92" y="39.98" width="3.52" height="7.44"/><rect class="cls-6" x="216.92" y="38.81" width="8.73" height="3.52"/><rect class="cls-6" x="216.92" y="43.9" width="8.73" height="3.52"/><rect class="cls-6" x="208.15" y="43.9" width="6.15" height="3.52"/><rect class="cls-6" x="228.27" y="32.55" width="14.88" height="3.52"/><rect class="cls-6" x="228.27" y="32.55" width="3.52" height="14.88"/><rect class="cls-6" x="239.62" y="32.55" width="3.52" height="7.44"/><rect class="cls-6" x="234.42" y="39.98" width="3.52" height="7.44"/><rect class="cls-6" x="234.42" y="38.81" width="8.73" height="3.52"/><rect class="cls-6" x="234.42" y="43.9" width="8.73" height="3.52"/><rect class="cls-6" x="225.65" y="43.9" width="6.15" height="3.52"/><rect class="cls-6" x="245.77" y="32.55" width="14.88" height="3.52"/><rect class="cls-6" x="245.77" y="32.55" width="3.52" height="14.88"/><rect class="cls-6" x="257.12" y="32.55" width="3.52" height="7.44"/><rect class="cls-6" x="251.92" y="39.98" width="3.52" height="7.44"/><rect class="cls-6" x="251.92" y="38.81" width="8.73" height="3.52"/><rect class="cls-6" x="251.92" y="43.9" width="8.73" height="3.52"/><rect class="cls-6" x="243.15" y="43.9" width="6.15" height="3.52"/><rect class="cls-6" x="263.27" y="32.55" width="14.88" height="3.52"/><rect class="cls-6" x="263.27" y="32.55" width="3.52" height="14.88"/><rect class="cls-6" x="274.62" y="32.55" width="3.52" height="7.44"/><rect class="cls-6" x="269.41" y="39.98" width="3.52" height="7.44"/><rect class="cls-6" x="269.41" y="38.81" width="8.73" height="3.52"/><rect class="cls-6" x="269.41" y="43.9" width="8.73" height="3.52"/><rect class="cls-6" x="260.65" y="43.9" width="6.15" height="3.52"/><rect class="cls-6" x="280.77" y="32.55" width="14.88" height="3.52"/><rect class="cls-6" x="280.77" y="32.55" width="3.52" height="14.88"/><rect class="cls-6" x="292.12" y="32.55" width="3.52" height="7.44"/><rect class="cls-6" x="286.91" y="39.98" width="3.52" height="7.44"/><rect class="cls-6" x="286.91" y="38.81" width="8.73" height="3.52"/><rect class="cls-6" x="286.91" y="43.9" width="8.73" height="3.52"/><rect class="cls-6" x="278.14" y="43.9" width="6.15" height="3.52"/><rect class="cls-6" x="298.27" y="32.55" width="14.88" height="3.52"/><rect class="cls-6" x="298.27" y="32.55" width="3.52" height="14.88"/><rect class="cls-6" x="309.62" y="32.55" width="3.52" height="7.44"/><rect class="cls-6" x="304.41" y="39.98" width="3.52" height="7.44"/><rect class="cls-6" x="304.41" y="38.81" width="8.73" height="3.52"/><rect class="cls-6" x="304.41" y="43.9" width="8.73" height="3.52"/><rect class="cls-6" x="295.64" y="43.9" width="6.15" height="3.52"/><rect class="cls-6" x="315.76" y="32.55" width="14.88" height="3.52"/><rect class="cls-6" x="315.76" y="32.55" width="3.52" height="14.88"/><rect class="cls-6" x="327.12" y="32.55" width="3.52" height="7.44"/><rect class="cls-6" x="321.91" y="39.98" width="3.52" height="7.44"/><rect class="cls-6" x="321.91" y="38.81" width="8.73" height="3.52"/><rect class="cls-6" x="321.91" y="43.9" width="8.73" height="3.52"/><rect class="cls-6" x="313.14" y="43.9" width="6.15" height="3.52"/><g class="cls-7"><rect class="cls-6" x="343.3" y="401.32" width="3.52" height="14.88"/><rect class="cls-6" x="331.95" y="401.32" width="14.88" height="3.52"/><rect class="cls-6" x="339.39" y="412.68" width="7.44" height="3.52"/><rect class="cls-6" x="331.95" y="407.47" width="7.44" height="3.52"/><rect class="cls-6" x="337.04" y="407.47" width="3.52" height="8.73"/><rect class="cls-6" x="331.95" y="407.47" width="3.52" height="8.73"/><rect class="cls-6" x="331.95" y="398.7" width="3.52" height="6.15"/></g><g class="cls-8"><rect class="cls-6" x="330.64" y="411.37" width="14.88" height="3.52"/><rect class="cls-6" x="341.99" y="400.01" width="3.52" height="14.88"/><rect class="cls-6" x="330.64" y="407.45" width="3.52" height="7.44"/><rect class="cls-6" x="335.85" y="400.01" width="3.52" height="7.44"/><rect class="cls-6" x="330.64" y="405.1" width="8.73" height="3.52"/><rect class="cls-6" x="330.64" y="400.01" width="8.73" height="3.52"/><rect class="cls-6" x="341.99" y="400.01" width="6.15" height="3.52"/></g><g class="cls-9"><rect class="cls-6" x="85.66" y="411.37" width="14.88" height="3.52"/><rect class="cls-6" x="97.01" y="400.01" width="3.52" height="14.88"/><rect class="cls-6" x="85.66" y="407.45" width="3.52" height="7.44"/><rect class="cls-6" x="90.87" y="400.01" width="3.52" height="7.44"/><rect class="cls-6" x="85.66" y="405.1" width="8.73" height="3.52"/><rect class="cls-6" x="85.66" y="400.01" width="8.73" height="3.52"/><rect class="cls-6" x="97.01" y="400.01" width="6.15" height="3.52"/></g><g class="cls-10"><rect class="cls-6" x="86.97" y="398.7" width="3.52" height="14.88"/><rect class="cls-6" x="86.97" y="410.06" width="14.88" height="3.52"/><rect class="cls-6" x="86.97" y="398.7" width="7.44" height="3.52"/><rect class="cls-6" x="94.41" y="403.91" width="7.44" height="3.52"/><rect class="cls-6" x="93.24" y="398.7" width="3.52" height="8.73"/><rect class="cls-6" x="98.33" y="398.7" width="3.52" height="8.73"/><rect class="cls-6" x="98.33" y="410.06" width="3.52" height="6.15"/></g><g class="cls-11"><rect class="cls-6" x="86.97" y="31.24" width="3.52" height="14.88"/><rect class="cls-6" x="86.97" y="42.59" width="14.88" height="3.52"/><rect class="cls-6" x="86.97" y="31.24" width="7.44" height="3.52"/><rect class="cls-6" x="94.41" y="36.44" width="7.44" height="3.52"/><rect class="cls-6" x="93.24" y="31.24" width="3.52" height="8.73"/><rect class="cls-6" x="98.33" y="31.24" width="3.52" height="8.73"/><rect class="cls-6" x="98.33" y="42.59" width="3.52" height="6.15"/></g><g class="cls-12"><rect class="cls-6" x="88.28" y="32.55" width="14.88" height="3.52"/><rect class="cls-6" x="88.28" y="32.55" width="3.52" height="14.88"/><rect class="cls-6" x="99.64" y="32.55" width="3.52" height="7.44"/><rect class="cls-6" x="94.43" y="39.98" width="3.52" height="7.44"/><rect class="cls-6" x="94.43" y="38.81" width="8.73" height="3.52"/><rect class="cls-6" x="94.43" y="43.9" width="8.73" height="3.52"/><rect class="cls-6" x="85.66" y="43.9" width="6.15" height="3.52"/></g><g class="cls-13"><rect class="cls-6" x="333.26" y="32.55" width="14.88" height="3.52"/><rect class="cls-6" x="333.26" y="32.55" width="3.52" height="14.88"/><rect class="cls-6" x="344.62" y="32.55" width="3.52" height="7.44"/><rect class="cls-6" x="339.41" y="39.98" width="3.52" height="7.44"/><rect class="cls-6" x="339.41" y="38.81" width="8.73" height="3.52"/><rect class="cls-6" x="339.41" y="43.9" width="8.73" height="3.52"/><rect class="cls-6" x="330.64" y="43.9" width="6.15" height="3.52"/></g><g class="cls-14"><rect class="cls-6" x="343.3" y="33.86" width="3.52" height="14.88"/><rect class="cls-6" x="331.95" y="33.86" width="14.88" height="3.52"/><rect class="cls-6" x="339.39" y="45.21" width="7.44" height="3.52"/><rect class="cls-6" x="331.95" y="40" width="7.44" height="3.52"/><rect class="cls-6" x="337.04" y="40" width="3.52" height="8.73"/><rect class="cls-6" x="331.95" y="40" width="3.52" height="8.73"/><rect class="cls-6" x="331.95" y="31.24" width="3.52" height="6.15"/></g><rect class="cls-15" x="60.17" y="2.5" width="311.12" height="49.34" rx="23.58" ry="23.58"/><path class="cls-16" d="M347.7,5a21.1,21.1,0,0,1,21.08,21.08v2.19A21.1,21.1,0,0,1,347.7,49.34h-264A21.1,21.1,0,0,1,62.67,28.27V26.08A21.1,21.1,0,0,1,83.74,5h264m0-5h-264A26.15,26.15,0,0,0,57.67,26.08v2.19A26.15,26.15,0,0,0,83.74,54.34h264a26.15,26.15,0,0,0,26.08-26.08V26.08A26.15,26.15,0,0,0,347.7,0Z"/><path class="cls-15" d="M85,39.39A12.22,12.22,0,1,1,97.23,27.17,12.23,12.23,0,0,1,85,39.39Z"/><path class="cls-16" d="M85,17.46a9.72,9.72,0,1,1-9.72,9.72A9.73,9.73,0,0,1,85,17.46m0-5A14.72,14.72,0,1,0,99.73,27.17,14.72,14.72,0,0,0,85,12.46Z"/><path class="cls-15" d="M346.45,39.39a12.22,12.22,0,1,1,12.22-12.22A12.23,12.23,0,0,1,346.45,39.39Z"/><path class="cls-16" d="M346.45,17.46a9.72,9.72,0,1,1-9.72,9.72,9.73,9.73,0,0,1,9.72-9.72m0-5a14.72,14.72,0,1,0,14.72,14.72,14.72,14.72,0,0,0-14.72-14.72Z"/><rect class="cls-15" x="60.17" y="395.17" width="311.12" height="49.34" rx="23.58" ry="23.58"/><path class="cls-16" d="M347.7,397.67a21.1,21.1,0,0,1,21.08,21.08v2.19A21.1,21.1,0,0,1,347.7,442h-264a21.1,21.1,0,0,1-21.08-21.08v-2.19a21.1,21.1,0,0,1,21.08-21.08h264m0-5h-264a26.15,26.15,0,0,0-26.08,26.08v2.19A26.15,26.15,0,0,0,83.74,447h264a26.15,26.15,0,0,0,26.08-26.08v-2.19a26.15,26.15,0,0,0-26.08-26.08Z"/><path class="cls-15" d="M85,432.05a12.22,12.22,0,1,1,12.22-12.22A12.23,12.23,0,0,1,85,432.05Z"/><path class="cls-16" d="M85,410.12a9.72,9.72,0,1,1-9.72,9.72A9.73,9.73,0,0,1,85,410.12m0-5a14.72,14.72,0,1,0,14.72,14.72A14.72,14.72,0,0,0,85,405.12Z"/><path class="cls-15" d="M346.45,432.05a12.22,12.22,0,1,1,12.22-12.22A12.23,12.23,0,0,1,346.45,432.05Z"/><path class="cls-16" d="M346.45,410.12a9.72,9.72,0,1,1-9.72,9.72,9.73,9.73,0,0,1,9.72-9.72m0-5a14.72,14.72,0,1,0,14.72,14.72,14.72,14.72,0,0,0-14.72-14.72Z"/><path class="cls-15" d="M215.72,269.69a99.63,99.63,0,1,1,99.63-99.63A99.74,99.74,0,0,1,215.72,269.69Z"/><path class="cls-16" d="M215.72,72.93a97.13,97.13,0,1,1-97.13,97.13,97.24,97.24,0,0,1,97.13-97.13m0-5A102.13,102.13,0,1,0,317.85,170.06,102.13,102.13,0,0,0,215.72,67.93Z"/><rect class="cls-17" x="249.86" y="112" width="14.86" height="98.32" rx="7.43" ry="7.43" transform="translate(-39.68 98.09) rotate(-20.07)"/><polygon class="cls-1" points="184.55 208.46 186.69 207.68 185.65 204.83 183.26 204.93 184.55 208.46"/><polygon class="cls-18" points="170.29 178 172.13 177.33 173.05 177 174.54 181.07 176.68 180.29 174.44 174.16 172.88 174.73 167.2 179.13 169.07 178.45 170.29 178"/><polygon class="cls-18" points="183.06 204.38 183.26 204.93 185.65 204.83 184.45 201.55 178.32 203.79 175.57 204.79 174.56 202.04 172.32 195.91 171.31 193.15 174.07 192.15 175.3 191.7 177.13 191.03 178.06 190.69 179.54 194.76 181.69 193.98 179.45 187.85 173.32 190.09 170.56 191.1 169.56 188.34 167.32 182.22 166.41 179.74 157.41 186.72 164.35 205.72 181.34 205.01 182.14 204.72 183.06 204.38"/><polygon class="cls-18" points="247.37 199.53 248.29 202.04 245.21 202.16 243.61 197.78 243.93 197.66 246.37 196.78 247.91 196.21 249.75 195.54 250.67 195.2 252.16 199.28 254.3 198.49 252.06 192.37 245.94 194.6 243.18 195.61 242.17 192.85 239.93 186.73 238.93 183.97 241.68 182.96 242.91 182.51 244.75 181.84 245.67 181.51 247.16 185.58 249.3 184.8 247.06 178.67 240.93 180.91 238.18 181.92 237.17 179.16 234.93 173.03 233.92 170.28 236.68 169.27 237.91 168.82 239.74 168.15 240.66 167.81 242.15 171.89 244.29 171.1 242.06 164.98 235.93 167.22 233.17 168.22 232.16 165.47 229.93 159.34 228.92 156.58 231.68 155.57 232.9 155.13 234.74 154.46 235.66 154.12 237.15 158.19 239.29 157.41 237.05 151.28 230.93 153.52 228.17 154.53 227.16 151.77 224.92 145.64 223.91 142.89 223.91 142.89 227.9 141.43 229.74 140.76 230.66 140.42 232.14 144.5 234.29 143.72 232.05 137.59 225.92 139.83 223.16 140.84 222.16 138.08 221.72 136.9 176.7 171.77 177.2 173.15 179.44 179.28 180.45 182.04 177.69 183.04 175.55 183.83 174.63 184.16 172.79 184.84 171.3 180.76 170.07 181.21 172.31 187.34 178.44 185.1 181.2 184.09 182.21 186.85 184.44 192.97 185.45 195.73 182.69 196.74 180.55 197.52 179.63 197.86 177.79 198.53 176.31 194.45 175.08 194.9 177.32 201.03 183.44 198.79 186.2 197.78 187.21 200.54 188.73 204.71 250.08 202.15 248.92 198.97 247.37 199.53"/><rect class="cls-19" x="198.68" y="192.32" width="10.29" height="33.33" rx="5.14" ry="5.14" transform="translate(406.65 -0.98) rotate(88.29)"/><rect class="cls-17" x="153.21" y="179.81" width="14.86" height="33.33" rx="7.43" ry="7.43" transform="translate(-57.67 67.06) rotate(-20.07)"/><polygon class="cls-18" points="236.37 125.55 221.73 136.9 224.2 135.11 224.91 137.07 231.04 134.83 233.8 133.82 234.81 136.58 237.04 142.71 238.05 145.47 235.29 146.47 233.15 147.26 232.23 147.59 230.39 148.26 228.91 144.19 227.68 144.64 229.92 150.76 236.05 148.53 238.8 147.52 239.81 150.28 242.05 156.4 243.06 159.16 240.3 160.17 238.16 160.95 237.24 161.29 235.4 161.96 233.91 157.88 232.68 158.33 234.92 164.46 241.05 162.22 243.81 161.21 244.81 163.97 247.05 170.1 248.06 172.85 245.3 173.86 243.16 174.65 242.24 174.98 240.4 175.65 238.91 171.58 237.69 172.03 239.93 178.15 246.05 175.91 248.81 174.91 249.82 177.66 252.06 183.79 253.06 186.55 250.31 187.56 248.16 188.34 247.24 188.68 245.41 189.35 243.92 185.27 242.69 185.72 244.93 191.85 251.06 189.61 253.81 188.6 254.82 191.36 257.06 197.49 258.07 200.24 255.31 201.25 253.19 202.02 264.14 201.57 236.37 125.55"/><polygon class="cls-15" points="221.72 136.9 221.72 136.9 221.73 136.9 221.72 136.9"/><polygon class="cls-20" points="258.07 200.24 257.06 197.49 254.82 191.36 253.81 188.6 251.06 189.61 244.93 191.85 242.69 185.72 243.92 185.27 245.41 189.35 247.24 188.68 248.16 188.34 250.31 187.56 253.06 186.55 252.06 183.79 249.82 177.66 248.81 174.91 246.05 175.91 239.93 178.15 237.69 172.03 238.91 171.58 240.4 175.65 242.24 174.98 243.16 174.65 245.3 173.86 248.06 172.85 247.05 170.1 244.81 163.97 243.81 161.21 241.05 162.22 234.92 164.46 232.68 158.33 233.91 157.88 235.4 161.96 237.24 161.29 238.16 160.95 240.3 160.17 243.06 159.16 242.05 156.4 239.81 150.28 238.8 147.52 236.05 148.53 229.92 150.76 227.68 144.64 228.91 144.19 230.39 148.26 232.23 147.59 233.15 147.26 235.29 146.47 238.05 145.47 237.04 142.71 234.81 136.58 233.8 133.82 231.04 134.83 224.91 137.07 224.2 135.11 221.73 136.9 221.72 136.9 222.16 138.08 223.16 140.84 225.92 139.83 232.05 137.59 234.29 143.72 232.14 144.5 230.66 140.42 229.74 140.76 227.9 141.43 223.91 142.89 223.91 142.89 224.92 145.64 227.16 151.77 228.17 154.53 230.93 153.52 237.05 151.28 239.29 157.41 237.15 158.19 235.66 154.12 234.74 154.46 232.9 155.13 231.68 155.57 228.92 156.58 229.93 159.34 232.16 165.47 233.17 168.22 235.93 167.22 242.06 164.98 244.29 171.1 242.15 171.89 240.66 167.81 239.74 168.15 237.91 168.82 236.68 169.27 233.92 170.28 234.93 173.03 237.17 179.16 238.18 181.92 240.93 180.91 247.06 178.67 249.3 184.8 247.16 185.58 245.67 181.51 244.75 181.84 242.91 182.51 241.68 182.96 238.93 183.97 239.93 186.73 242.17 192.85 243.18 195.61 245.94 194.6 252.06 192.37 254.3 198.49 252.16 199.28 250.67 195.2 249.75 195.54 247.91 196.21 246.37 196.78 243.93 197.66 243.61 197.78 245.21 202.16 248.29 202.04 247.37 199.53 248.92 198.97 250.08 202.15 253.19 202.02 255.31 201.25 258.07 200.24"/><polygon class="cls-15" points="166.31 179.46 166.41 179.74 167.2 179.13 166.31 179.46"/><polygon class="cls-20" points="186.2 197.78 183.44 198.79 177.32 201.03 175.08 194.9 176.31 194.45 177.79 198.53 179.63 197.86 180.55 197.52 182.69 196.74 185.45 195.73 184.44 192.97 182.21 186.85 181.2 184.09 178.44 185.1 172.31 187.34 170.07 181.21 171.3 180.76 172.79 184.84 174.63 184.16 175.55 183.83 177.69 183.04 180.45 182.04 179.44 179.28 177.2 173.15 176.7 171.77 172.88 174.73 174.44 174.16 176.68 180.29 174.54 181.07 173.05 177 172.13 177.33 170.29 178 169.07 178.45 167.2 179.13 166.41 179.74 167.32 182.22 169.56 188.34 170.56 191.1 173.32 190.09 179.45 187.85 181.69 193.98 179.54 194.76 178.06 190.69 177.13 191.03 175.3 191.7 174.07 192.15 171.31 193.15 172.32 195.91 174.56 202.04 175.57 204.79 178.32 203.79 184.45 201.55 185.65 204.83 188.73 204.71 187.21 200.54 186.2 197.78"/><polygon class="cls-15" points="183.06 204.38 182.14 204.72 181.34 205.01 183.26 204.93 183.06 204.38"/></g></g></svg>