<svg viewBox="0 0 432.86 447.01" xmlns="http://www.w3.org/2000/svg" xmlns:xlink="http://www.w3.org/1999/xlink"><linearGradient id="a" gradientUnits="userSpaceOnUse" x1="108.21" x2="108.21" y1="90.25" y2="375.29"><stop offset="0" stop-color="#ffe197"/><stop offset="1" stop-color="#fff"/></linearGradient><linearGradient id="b" x1="324.64" x2="324.64" xlink:href="#a" y1="90.25" y2="375.29"/><clipPath id="c"><path d="m334.32 398.7v1.31l14.88 14.88v-16.19z"/></clipPath><clipPath id="d"><path d="m333.01 400.01h1.31l14.88 14.88h-16.19z"/></clipPath><clipPath id="e"><path d="m105.53 400.01h-1.31l-14.87 14.88h16.18z"/></clipPath><clipPath id="f"><path d="m104.22 398.7v1.31l-14.87 14.88v-16.19z"/></clipPath><clipPath id="g"><path d="m104.22 48.73v-1.31l-14.87-14.87v16.18z"/></clipPath><clipPath id="h"><path d="m105.53 47.42h-1.31l-14.87-14.87h16.18z"/></clipPath><clipPath id="i"><path d="m333.01 47.42h1.31l14.88-14.87h-16.19z"/></clipPath><clipPath id="j"><path d="m334.32 48.73v-1.31l14.88-14.87v16.18z"/></clipPath><clipPath id="k"><circle cx="218.1" cy="170.06" r="102.13"/></clipPath><path d="m200.15 358.39a149.38 149.38 0 0 1 -17.8-20.79 4.45 4.45 0 0 0 -2.35-1.6q-10.43-3.32-20.16-7.47c-3.08-1.32-6.42.49-5.23 3a141 141 0 0 0 13.65 22.19q-9.2-3-17.91-6.64c1.71-.42 2.66-1.73 1.75-3.29a132 132 0 0 1 -10.58-23.11 3.62 3.62 0 0 0 -1.72-1.9q-8.91-4.95-17-10.59c-2.57-1.79-6.29-.6-5.85 2a129.67 129.67 0 0 0 6.61 23.81q-7.84-4.46-15.13-9.41c1.76-.12 3-1.24 2.62-2.9a125.2 125.2 0 0 1 -3.59-24.15 3.08 3.08 0 0 0 -1.13-2.13 177.73 177.73 0 0 1 -13.55-13.12c-2-2.17-5.94-1.63-6.23 1a128.12 128.12 0 0 0 -.21 24.16q-6.33-5.64-12-11.66c1.74.18 3.29-.69 3.34-2.37a127.6 127.6 0 0 1 3.11-24.05 2.78 2.78 0 0 0 -.52-2.26 156 156 0 0 1 -9.74-15.11c-1.38-2.45-5.37-2.6-6.35-.13a135.34 135.34 0 0 0 -6.68 23.47q-4.65-6.55-8.62-13.38a3 3 0 0 0 3.9-1.74 138.39 138.39 0 0 1 9.44-22.92 2.71 2.71 0 0 0 .09-2.29 138.58 138.58 0 0 1 -5.5-16.41c-.7-2.64-4.56-3.48-6.17-1.23a151 151 0 0 0 -12.76 21.83q-2.82-7.2-4.88-14.61a3.21 3.21 0 0 0 4.28-1 157.34 157.34 0 0 1 15.32-20.91 2.87 2.87 0 0 0 .7-2.24 129.18 129.18 0 0 1 -.94-17.18c0-2.74-3.5-4.26-5.69-2.3a175 175 0 0 0 -18.38 19.34 144.87 144.87 0 0 1 -.84-15.3 3.3 3.3 0 0 0 4.46-.27 184.27 184.27 0 0 1 20.72-18 3.3 3.3 0 0 0 1.31-2.11 131.84 131.84 0 0 1 4-17.36c.84-2.74-2.17-4.9-4.88-3.32a207 207 0 0 0 -23.45 16.12 147.84 147.84 0 0 1 3.54-15.42 3.2 3.2 0 0 0 4.43.52 218.41 218.41 0 0 1 25.52-14.5 4.06 4.06 0 0 0 1.9-1.91 151.09 151.09 0 0 1 9.26-16.95c1.69-2.66-.57-5.39-3.72-4.25a245.76 245.76 0 0 0 -27.94 12.29q1.94-4 4.14-8l-2.34-.84q-2.23 4-4.19 8.13a134.14 134.14 0 0 1 -5.88-26.68c-.33-3.11-4.65-2.84-6.8.54a190 190 0 0 0 -11.64 21.31 4.24 4.24 0 0 0 -.31 3 145.4 145.4 0 0 0 10.78 25.85 3 3 0 0 0 4.27 1.07 149.55 149.55 0 0 0 -3.63 15.57 152.41 152.41 0 0 1 -13.62-23.86c-1.26-2.83-5.35-1.87-6.42 1.63a165.77 165.77 0 0 0 -5 21.82 4 4 0 0 0 .56 2.86 172.34 172.34 0 0 0 17.86 22.52 3.22 3.22 0 0 0 4.46.28 146.52 146.52 0 0 0 .84 15.43 183.22 183.22 0 0 1 -19.93-20.3c-2-2.45-5.74-.85-5.8 2.64a162.32 162.32 0 0 0 1.18 21.6 4.27 4.27 0 0 0 1.4 2.59 206.88 206.88 0 0 0 23.53 18.49 3.22 3.22 0 0 0 4.43-.5q2.09 7.46 4.94 14.75a217.68 217.68 0 0 1 -24.87-16.12c-2.64-2-5.83.18-4.94 3.55a174.17 174.17 0 0 0 6.92 20.63 4.79 4.79 0 0 0 2 2.31 240.46 240.46 0 0 0 27.85 13.9c1.92.8 3.58.07 4.19-1.25q4 6.9 8.72 13.53a248.28 248.28 0 0 1 -28.55-11.39c-3.11-1.5-5.64 1.18-3.89 4.3a196.1 196.1 0 0 0 12.2 18.93 5.49 5.49 0 0 0 2.56 1.92 267 267 0 0 0 30.88 8.84c2.09.46 3.52-.55 3.75-1.94q5.75 6.05 12.19 11.79a270.2 270.2 0 0 1 -31-6.35c-3.43-.93-5.19 2.12-2.65 4.88a223.46 223.46 0 0 0 17 16.49 6.27 6.27 0 0 0 3 1.45 283.81 283.81 0 0 0 32.72 3.44c2.18.1 3.3-1.13 3.15-2.54q7.37 5 15.3 9.52a282.72 282.72 0 0 1 -32.23-1c-3.63-.34-4.51 3-1.24 5.24q10.32 7.13 21.51 13.32a7.08 7.08 0 0 0 3.41.91 291.93 291.93 0 0 0 33.41-2.18c2.2-.27 3-1.67 2.38-3q8.8 3.65 18.11 6.72a287.39 287.39 0 0 1 -32.42 4.54c-3.7.29-3.61 3.68.31 5.36q12.22 5.21 25.35 9.4a7.93 7.93 0 0 0 3.69.31 294.1 294.1 0 0 0 33-7.92c2.15-.65 2.47-2.15 1.47-3.38q8.45 1.71 17.22 2.94l.44-2q-8.67-1.21-17-2.91c1.63-.77 2.19-2.22.78-3.59z" fill="url(#a)"/><path d="m427 180.17a183.21 183.21 0 0 1 -19.93 20.3 146.52 146.52 0 0 0 .93-15.47 3.22 3.22 0 0 0 4.46-.28 172.39 172.39 0 0 0 17.86-22.52 4 4 0 0 0 .56-2.86 165.72 165.72 0 0 0 -5-21.82c-1.07-3.5-5.16-4.46-6.42-1.63a152.44 152.44 0 0 1 -13.62 23.86 149.54 149.54 0 0 0 -3.58-15.59 3 3 0 0 0 4.27-1.07 145.4 145.4 0 0 0 10.78-25.85 4.24 4.24 0 0 0 -.31-3 190 190 0 0 0 -11.68-21.24c-2.15-3.38-6.47-3.65-6.8-.54a134.13 134.13 0 0 1 -5.88 26.68q-2-4.08-4.19-8.13l-2.34.82q2.2 4 4.14 8a245.79 245.79 0 0 0 -27.92-12.28c-3.15-1.14-5.41 1.59-3.72 4.25a151.09 151.09 0 0 1 9.26 16.95 4.06 4.06 0 0 0 1.92 1.91 218.41 218.41 0 0 1 25.52 14.5 3.2 3.2 0 0 0 4.43-.52 148 148 0 0 1 3.54 15.42 207.07 207.07 0 0 0 -23.45-16.12c-2.71-1.58-5.72.58-4.88 3.32a131.79 131.79 0 0 1 4 17.36 3.31 3.31 0 0 0 1.31 2.11 184.27 184.27 0 0 1 20.72 18 3.3 3.3 0 0 0 4.46.27 145 145 0 0 1 -.83 15.26 175 175 0 0 0 -18.41-19.26c-2.19-2-5.74-.44-5.69 2.3a129.13 129.13 0 0 1 -.94 17.18 2.87 2.87 0 0 0 .7 2.24 157.29 157.29 0 0 1 15.33 20.88 3.21 3.21 0 0 0 4.28 1q-2.08 7.4-4.88 14.57a151 151 0 0 0 -12.76-21.83c-1.61-2.26-5.48-1.41-6.18 1.23a138.47 138.47 0 0 1 -5.5 16.41 2.71 2.71 0 0 0 .09 2.29 138.36 138.36 0 0 1 9.44 22.92 3 3 0 0 0 3.9 1.74q-4 6.83-8.62 13.38a135.34 135.34 0 0 0 -6.68-23.47c-1-2.47-5-2.32-6.35.13a155.9 155.9 0 0 1 -9.72 15.03 2.78 2.78 0 0 0 -.52 2.26 127.6 127.6 0 0 1 3.11 24.05c.05 1.68 1.61 2.55 3.34 2.37q-5.71 6-12 11.66a128.17 128.17 0 0 0 -.21-24.16c-.29-2.59-4.23-3.12-6.23-1a177.8 177.8 0 0 1 -13.55 13.12 3.08 3.08 0 0 0 -1.13 2.13 125.26 125.26 0 0 1 -3.59 24.15c-.42 1.66.86 2.78 2.62 2.9q-7.28 4.94-15.13 9.41a129.69 129.69 0 0 0 6.59-23.77c.43-2.59-3.29-3.79-5.85-2q-8.11 5.63-17 10.59a3.62 3.62 0 0 0 -1.72 1.9 131.94 131.94 0 0 1 -10.58 23.11c-.9 1.56 0 2.88 1.75 3.29q-8.7 3.61-17.91 6.64a141 141 0 0 0 13.65-22.19c1.19-2.47-2.15-4.28-5.23-3q-9.72 4.14-20.16 7.47a4.46 4.46 0 0 0 -2.3 1.56 149.33 149.33 0 0 1 -17.8 20.79c-1.41 1.37-.86 2.82.75 3.53q-8.36 1.69-17 2.91l.44 2q8.77-1.23 17.22-2.94c-1 1.23-.68 2.73 1.47 3.38a294.14 294.14 0 0 0 33 7.92 7.93 7.93 0 0 0 3.69-.31q13.11-4.17 25.35-9.4c3.92-1.68 4-5.07.31-5.36a287.39 287.39 0 0 1 -32.42-4.54q9.31-3.06 18.11-6.72c-.57 1.36.18 2.76 2.38 3a291.93 291.93 0 0 0 33.41 2.18 7.09 7.09 0 0 0 3.41-.91q11.11-6.02 21.36-13.14c3.27-2.28 2.39-5.58-1.24-5.24a282.71 282.71 0 0 1 -32.23 1q7.93-4.51 15.3-9.52c-.16 1.41 1 2.64 3.15 2.54a283.8 283.8 0 0 0 32.72-3.44 6.27 6.27 0 0 0 3-1.45 223.58 223.58 0 0 0 17-16.49c2.55-2.76.79-5.81-2.65-4.88a270.22 270.22 0 0 1 -31 6.35q6.4-5.7 12.17-11.79c.24 1.4 1.66 2.4 3.75 1.94a267 267 0 0 0 30.88-8.84 5.49 5.49 0 0 0 2.56-1.92 196 196 0 0 0 12.34-18.94c1.75-3.12-.78-5.8-3.89-4.3a248.31 248.31 0 0 1 -28.52 11.43q4.7-6.62 8.72-13.53c.61 1.32 2.27 2.06 4.19 1.25a240.46 240.46 0 0 0 27.85-13.9 4.79 4.79 0 0 0 2-2.31 174.17 174.17 0 0 0 6.92-20.63c.89-3.37-2.3-5.55-4.94-3.55a217.71 217.71 0 0 1 -24.87 16.12q2.84-7.28 4.94-14.75a3.22 3.22 0 0 0 4.43.5 206.91 206.91 0 0 0 23.5-18.53 4.27 4.27 0 0 0 1.33-2.63 162.36 162.36 0 0 0 1.18-21.6c-.05-3.44-3.76-5.05-5.84-2.6z" fill="url(#b)"/><path d="m80.53 44.38h275.96v358.68h-275.96z" fill="#efeae6"/><path d="m354 46.88v353.68h-271v-353.68zm5-5h-281v363.68h281z" fill="#c1b49a"/><g fill="#dcd7cd"><path d="m345.68 51.36h3.52v14.88h-3.52z"/><path d="m334.33 51.36h14.88v3.52h-14.88z"/><path d="m341.76 62.71h7.44v3.52h-7.44z"/><path d="m334.33 57.5h7.44v3.52h-7.44z"/><path d="m339.42 57.5h3.52v8.73h-3.52z"/><path d="m334.33 57.5h3.52v8.73h-3.52z"/><path d="m334.33 48.73h3.52v6.15h-3.52z"/><path d="m345.68 68.85h3.52v14.88h-3.52z"/><path d="m334.33 68.85h14.88v3.52h-14.88z"/><path d="m341.76 80.21h7.44v3.52h-7.44z"/><path d="m334.33 75h7.44v3.52h-7.44z"/><path d="m339.42 75h3.52v8.73h-3.52z"/><path d="m334.33 75h3.52v8.73h-3.52z"/><path d="m334.33 66.23h3.52v6.15h-3.52z"/><path d="m345.68 86.35h3.52v14.88h-3.52z"/><path d="m334.33 86.35h14.88v3.52h-14.88z"/><path d="m341.76 97.71h7.44v3.52h-7.44z"/><path d="m334.33 92.5h7.44v3.52h-7.44z"/><path d="m339.42 92.5h3.52v8.73h-3.52z"/><path d="m334.33 92.5h3.52v8.73h-3.52z"/><path d="m334.33 83.73h3.52v6.15h-3.52z"/><path d="m345.68 103.85h3.52v14.88h-3.52z"/><path d="m334.33 103.85h14.88v3.52h-14.88z"/><path d="m341.76 115.2h7.44v3.52h-7.44z"/><path d="m334.33 110h7.44v3.52h-7.44z"/><path d="m339.42 110h3.52v8.73h-3.52z"/><path d="m334.33 110h3.52v8.73h-3.52z"/><path d="m334.33 101.23h3.52v6.15h-3.52z"/><path d="m345.68 121.35h3.52v14.88h-3.52z"/><path d="m334.33 121.35h14.88v3.52h-14.88z"/><path d="m341.76 132.7h7.44v3.52h-7.44z"/><path d="m334.33 127.5h7.44v3.52h-7.44z"/><path d="m339.42 127.5h3.52v8.73h-3.52z"/><path d="m334.33 127.5h3.52v8.73h-3.52z"/><path d="m334.33 118.73h3.52v6.15h-3.52z"/><path d="m345.68 138.85h3.52v14.88h-3.52z"/><path d="m334.33 138.85h14.88v3.52h-14.88z"/><path d="m341.76 150.2h7.44v3.52h-7.44z"/><path d="m334.33 144.99h7.44v3.52h-7.44z"/><path d="m339.42 144.99h3.52v8.73h-3.52z"/><path d="m334.33 144.99h3.52v8.73h-3.52z"/><path d="m334.33 136.23h3.52v6.15h-3.52z"/><path d="m345.68 156.35h3.52v14.88h-3.52z"/><path d="m334.33 156.35h14.88v3.52h-14.88z"/><path d="m341.76 167.7h7.44v3.52h-7.44z"/><path d="m334.33 162.49h7.44v3.52h-7.44z"/><path d="m339.42 162.49h3.52v8.73h-3.52z"/><path d="m334.33 162.49h3.52v8.73h-3.52z"/><path d="m334.33 153.72h3.52v6.15h-3.52z"/><path d="m345.68 173.85h3.52v14.88h-3.52z"/><path d="m334.33 173.85h14.88v3.52h-14.88z"/><path d="m341.76 185.2h7.44v3.52h-7.44z"/><path d="m334.33 179.99h7.44v3.52h-7.44z"/><path d="m339.42 179.99h3.52v8.73h-3.52z"/><path d="m334.33 179.99h3.52v8.73h-3.52z"/><path d="m334.33 171.22h3.52v6.15h-3.52z"/><path d="m345.68 191.34h3.52v14.88h-3.52z"/><path d="m334.33 191.34h14.88v3.52h-14.88z"/><path d="m341.76 202.7h7.44v3.52h-7.44z"/><path d="m334.33 197.49h7.44v3.52h-7.44z"/><path d="m339.42 197.49h3.52v8.73h-3.52z"/><path d="m334.33 197.49h3.52v8.73h-3.52z"/><path d="m334.33 188.72h3.52v6.15h-3.52z"/><path d="m345.68 208.84h3.52v14.88h-3.52z"/><path d="m334.33 208.84h14.88v3.52h-14.88z"/><path d="m341.76 220.19h7.44v3.52h-7.44z"/><path d="m334.33 214.99h7.44v3.52h-7.44z"/><path d="m339.42 214.99h3.52v8.73h-3.52z"/><path d="m334.33 214.99h3.52v8.73h-3.52z"/><path d="m334.33 206.22h3.52v6.15h-3.52z"/><path d="m345.68 226.34h3.52v14.88h-3.52z"/><path d="m334.33 226.34h14.88v3.52h-14.88z"/><path d="m341.76 237.69h7.44v3.52h-7.44z"/><path d="m334.33 232.49h7.44v3.52h-7.44z"/><path d="m339.42 232.49h3.52v8.73h-3.52z"/><path d="m334.33 232.49h3.52v8.73h-3.52z"/><path d="m334.33 223.72h3.52v6.15h-3.52z"/><path d="m345.68 243.84h3.52v14.88h-3.52z"/><path d="m334.33 243.84h14.88v3.52h-14.88z"/><path d="m341.76 255.19h7.44v3.52h-7.44z"/><path d="m334.33 249.98h7.44v3.52h-7.44z"/><path d="m339.42 249.98h3.52v8.73h-3.52z"/><path d="m334.33 249.98h3.52v8.73h-3.52z"/><path d="m334.33 241.22h3.52v6.15h-3.52z"/><path d="m345.68 261.34h3.52v14.88h-3.52z"/><path d="m334.33 261.34h14.88v3.52h-14.88z"/><path d="m341.76 272.69h7.44v3.52h-7.44z"/><path d="m334.33 267.48h7.44v3.52h-7.44z"/><path d="m339.42 267.48h3.52v8.73h-3.52z"/><path d="m334.33 267.48h3.52v8.73h-3.52z"/><path d="m334.33 258.72h3.52v6.15h-3.52z"/><path d="m345.68 278.84h3.52v14.88h-3.52z"/><path d="m334.33 278.84h14.88v3.52h-14.88z"/><path d="m341.76 290.19h7.44v3.52h-7.44z"/><path d="m334.33 284.98h7.44v3.52h-7.44z"/><path d="m339.42 284.98h3.52v8.73h-3.52z"/><path d="m334.33 284.98h3.52v8.73h-3.52z"/><path d="m334.33 276.21h3.52v6.15h-3.52z"/><path d="m345.68 296.33h3.52v14.88h-3.52z"/><path d="m334.33 296.33h14.88v3.52h-14.88z"/><path d="m341.76 307.69h7.44v3.52h-7.44z"/><path d="m334.33 302.48h7.44v3.52h-7.44z"/><path d="m339.42 302.48h3.52v8.73h-3.52z"/><path d="m334.33 302.48h3.52v8.73h-3.52z"/><path d="m334.33 293.71h3.52v6.15h-3.52z"/><path d="m345.68 313.83h3.52v14.88h-3.52z"/><path d="m334.33 313.83h14.88v3.52h-14.88z"/><path d="m341.76 325.19h7.44v3.52h-7.44z"/><path d="m334.33 319.98h7.44v3.52h-7.44z"/><path d="m339.42 319.98h3.52v8.73h-3.52z"/><path d="m334.33 319.98h3.52v8.73h-3.52z"/><path d="m334.33 311.21h3.52v6.15h-3.52z"/><path d="m345.68 331.33h3.52v14.88h-3.52z"/><path d="m334.33 331.33h14.88v3.52h-14.88z"/><path d="m341.76 342.68h7.44v3.52h-7.44z"/><path d="m334.33 337.48h7.44v3.52h-7.44z"/><path d="m339.42 337.48h3.52v8.73h-3.52z"/><path d="m334.33 337.48h3.52v8.73h-3.52z"/><path d="m334.33 328.71h3.52v6.15h-3.52z"/><path d="m345.68 348.83h3.52v14.88h-3.52z"/><path d="m334.33 348.83h14.88v3.52h-14.88z"/><path d="m341.76 360.18h7.44v3.52h-7.44z"/><path d="m334.33 354.98h7.44v3.52h-7.44z"/><path d="m339.42 354.98h3.52v8.73h-3.52z"/><path d="m334.33 354.98h3.52v8.73h-3.52z"/><path d="m334.33 346.21h3.52v6.15h-3.52z"/><path d="m345.68 366.33h3.52v14.88h-3.52z"/><path d="m334.33 366.33h14.88v3.52h-14.88z"/><path d="m341.76 377.68h7.44v3.52h-7.44z"/><path d="m334.33 372.47h7.44v3.52h-7.44z"/><path d="m339.42 372.47h3.52v8.73h-3.52z"/><path d="m334.33 372.47h3.52v8.73h-3.52z"/><path d="m334.33 363.71h3.52v6.15h-3.52z"/><path d="m345.68 383.83h3.52v14.88h-3.52z"/><path d="m334.33 383.83h14.88v3.52h-14.88z"/><path d="m341.76 395.18h7.44v3.52h-7.44z"/><path d="m334.33 389.97h7.44v3.52h-7.44z"/><path d="m339.42 389.97h3.52v8.73h-3.52z"/><path d="m334.33 389.97h3.52v8.73h-3.52z"/><path d="m334.33 381.2h3.52v6.15h-3.52z"/><path d="m315.52 411.37h14.88v3.52h-14.88z"/><path d="m326.87 400.01h3.52v14.88h-3.52z"/><path d="m315.52 407.45h3.52v7.44h-3.52z"/><path d="m320.72 400.01h3.52v7.44h-3.52z"/><path d="m315.52 405.1h8.73v3.52h-8.73z"/><path d="m315.52 400.01h8.73v3.52h-8.73z"/><path d="m326.87 400.01h6.15v3.52h-6.15z"/><path d="m298.02 411.37h14.88v3.52h-14.88z"/><path d="m309.37 400.01h3.52v14.88h-3.52z"/><path d="m298.02 407.45h3.52v7.44h-3.52z"/><path d="m303.22 400.01h3.52v7.44h-3.52z"/><path d="m298.02 405.1h8.73v3.52h-8.73z"/><path d="m298.02 400.01h8.73v3.52h-8.73z"/><path d="m309.37 400.01h6.15v3.52h-6.15z"/><path d="m280.52 411.37h14.88v3.52h-14.88z"/><path d="m291.87 400.01h3.52v14.88h-3.52z"/><path d="m280.52 407.45h3.52v7.44h-3.52z"/><path d="m285.73 400.01h3.52v7.44h-3.52z"/><path d="m280.52 405.1h8.73v3.52h-8.73z"/><path d="m280.52 400.01h8.73v3.52h-8.73z"/><path d="m291.87 400.01h6.15v3.52h-6.15z"/><path d="m263.02 411.37h14.88v3.52h-14.88z"/><path d="m274.37 400.01h3.52v14.88h-3.52z"/><path d="m263.02 407.45h3.52v7.44h-3.52z"/><path d="m268.23 400.01h3.52v7.44h-3.52z"/><path d="m263.02 405.1h8.73v3.52h-8.73z"/><path d="m263.02 400.01h8.73v3.52h-8.73z"/><path d="m274.37 400.01h6.15v3.52h-6.15z"/><path d="m245.52 411.37h14.88v3.52h-14.88z"/><path d="m256.87 400.01h3.52v14.88h-3.52z"/><path d="m245.52 407.45h3.52v7.44h-3.52z"/><path d="m250.73 400.01h3.52v7.44h-3.52z"/><path d="m245.52 405.1h8.73v3.52h-8.73z"/><path d="m245.52 400.01h8.73v3.52h-8.73z"/><path d="m256.87 400.01h6.15v3.52h-6.15z"/><path d="m228.02 411.37h14.88v3.52h-14.88z"/><path d="m239.38 400.01h3.52v14.88h-3.52z"/><path d="m228.02 407.45h3.52v7.44h-3.52z"/><path d="m233.23 400.01h3.52v7.44h-3.52z"/><path d="m228.02 405.1h8.73v3.52h-8.73z"/><path d="m228.02 400.01h8.73v3.52h-8.73z"/><path d="m239.38 400.01h6.15v3.52h-6.15z"/><path d="m210.53 411.37h14.88v3.52h-14.88z"/><path d="m221.88 400.01h3.52v14.88h-3.52z"/><path d="m210.53 407.45h3.52v7.44h-3.52z"/><path d="m215.73 400.01h3.52v7.44h-3.52z"/><path d="m210.53 405.1h8.73v3.52h-8.73z"/><path d="m210.53 400.01h8.73v3.52h-8.73z"/><path d="m221.88 400.01h6.15v3.52h-6.15z"/><path d="m193.03 411.37h14.88v3.52h-14.88z"/><path d="m204.38 400.01h3.52v14.88h-3.52z"/><path d="m193.03 407.45h3.52v7.44h-3.52z"/><path d="m198.23 400.01h3.52v7.44h-3.52z"/><path d="m193.03 405.1h8.73v3.52h-8.73z"/><path d="m193.03 400.01h8.73v3.52h-8.73z"/><path d="m204.38 400.01h6.15v3.52h-6.15z"/><path d="m175.53 411.37h14.88v3.52h-14.88z"/><path d="m186.88 400.01h3.52v14.88h-3.52z"/><path d="m175.53 407.45h3.52v7.44h-3.52z"/><path d="m180.74 400.01h3.52v7.44h-3.52z"/><path d="m175.53 405.1h8.73v3.52h-8.73z"/><path d="m175.53 400.01h8.73v3.52h-8.73z"/><path d="m186.88 400.01h6.15v3.52h-6.15z"/><path d="m158.03 411.37h14.88v3.52h-14.88z"/><path d="m169.38 400.01h3.52v14.88h-3.52z"/><path d="m158.03 407.45h3.52v7.44h-3.52z"/><path d="m163.24 400.01h3.52v7.44h-3.52z"/><path d="m158.03 405.1h8.73v3.52h-8.73z"/><path d="m158.03 400.01h8.73v3.52h-8.73z"/><path d="m169.38 400.01h6.15v3.52h-6.15z"/><path d="m140.53 411.37h14.88v3.52h-14.88z"/><path d="m151.88 400.01h3.52v14.88h-3.52z"/><path d="m140.53 407.45h3.52v7.44h-3.52z"/><path d="m145.74 400.01h3.52v7.44h-3.52z"/><path d="m140.53 405.1h8.73v3.52h-8.73z"/><path d="m140.53 400.01h8.73v3.52h-8.73z"/><path d="m151.88 400.01h6.15v3.52h-6.15z"/><path d="m123.03 411.37h14.88v3.52h-14.88z"/><path d="m134.39 400.01h3.52v14.88h-3.52z"/><path d="m123.03 407.45h3.52v7.44h-3.52z"/><path d="m128.24 400.01h3.52v7.44h-3.52z"/><path d="m123.03 405.1h8.73v3.52h-8.73z"/><path d="m123.03 400.01h8.73v3.52h-8.73z"/><path d="m134.39 400.01h6.15v3.52h-6.15z"/><path d="m105.53 411.37h14.88v3.52h-14.88z"/><path d="m116.89 400.01h3.52v14.88h-3.52z"/><path d="m105.53 407.45h3.52v7.44h-3.52z"/><path d="m110.74 400.01h3.52v7.44h-3.52z"/><path d="m105.53 405.1h8.73v3.52h-8.73z"/><path d="m105.53 400.01h8.73v3.52h-8.73z"/><path d="m116.89 400.01h6.15v3.52h-6.15z"/><path d="m89.35 381.2h3.52v14.88h-3.52z"/><path d="m89.35 392.56h14.88v3.52h-14.88z"/><path d="m89.35 381.2h7.44v3.52h-7.44z"/><path d="m96.79 386.41h7.44v3.52h-7.44z"/><path d="m95.61 381.2h3.52v8.73h-3.52z"/><path d="m100.7 381.2h3.52v8.73h-3.52z"/><path d="m100.7 392.56h3.52v6.15h-3.52z"/><path d="m89.35 363.71h3.52v14.88h-3.52z"/><path d="m89.35 375.06h14.88v3.52h-14.88z"/><path d="m89.35 363.71h7.44v3.52h-7.44z"/><path d="m96.79 368.91h7.44v3.52h-7.44z"/><path d="m95.61 363.71h3.52v8.73h-3.52z"/><path d="m100.7 363.71h3.52v8.73h-3.52z"/><path d="m100.7 375.06h3.52v6.15h-3.52z"/><path d="m89.35 346.21h3.52v14.88h-3.52z"/><path d="m89.35 357.56h14.88v3.52h-14.88z"/><path d="m89.35 346.21h7.44v3.52h-7.44z"/><path d="m96.79 351.42h7.44v3.52h-7.44z"/><path d="m95.61 346.21h3.52v8.73h-3.52z"/><path d="m100.7 346.21h3.52v8.73h-3.52z"/><path d="m100.7 357.56h3.52v6.15h-3.52z"/><path d="m89.35 328.71h3.52v14.88h-3.52z"/><path d="m89.35 340.06h14.88v3.52h-14.88z"/><path d="m89.35 328.71h7.44v3.52h-7.44z"/><path d="m96.79 333.92h7.44v3.52h-7.44z"/><path d="m95.61 328.71h3.52v8.73h-3.52z"/><path d="m100.7 328.71h3.52v8.73h-3.52z"/><path d="m100.7 340.06h3.52v6.15h-3.52z"/><path d="m89.35 311.21h3.52v14.88h-3.52z"/><path d="m89.35 322.56h14.88v3.52h-14.88z"/><path d="m89.35 311.21h7.44v3.52h-7.44z"/><path d="m96.79 316.42h7.44v3.52h-7.44z"/><path d="m95.61 311.21h3.52v8.73h-3.52z"/><path d="m100.7 311.21h3.52v8.73h-3.52z"/><path d="m100.7 322.56h3.52v6.15h-3.52z"/><path d="m89.35 293.71h3.52v14.88h-3.52z"/><path d="m89.35 305.06h14.88v3.52h-14.88z"/><path d="m89.35 293.71h7.44v3.52h-7.44z"/><path d="m96.79 298.92h7.44v3.52h-7.44z"/><path d="m95.61 293.71h3.52v8.73h-3.52z"/><path d="m100.7 293.71h3.52v8.73h-3.52z"/><path d="m100.7 305.06h3.52v6.15h-3.52z"/><path d="m89.35 276.21h3.52v14.88h-3.52z"/><path d="m89.35 287.57h14.88v3.52h-14.88z"/><path d="m89.35 276.21h7.44v3.52h-7.44z"/><path d="m96.79 281.42h7.44v3.52h-7.44z"/><path d="m95.61 276.21h3.52v8.73h-3.52z"/><path d="m100.7 276.21h3.52v8.73h-3.52z"/><path d="m100.7 287.57h3.52v6.15h-3.52z"/><path d="m89.35 258.72h3.52v14.88h-3.52z"/><path d="m89.35 270.07h14.88v3.52h-14.88z"/><path d="m89.35 258.72h7.44v3.52h-7.44z"/><path d="m96.79 263.92h7.44v3.52h-7.44z"/><path d="m95.61 258.72h3.52v8.73h-3.52z"/><path d="m100.7 258.72h3.52v8.73h-3.52z"/><path d="m100.7 270.07h3.52v6.15h-3.52z"/><path d="m89.35 241.22h3.52v14.88h-3.52z"/><path d="m89.35 252.57h14.88v3.52h-14.88z"/><path d="m89.35 241.22h7.44v3.52h-7.44z"/><path d="m96.79 246.42h7.44v3.52h-7.44z"/><path d="m95.61 241.22h3.52v8.73h-3.52z"/><path d="m100.7 241.22h3.52v8.73h-3.52z"/><path d="m100.7 252.57h3.52v6.15h-3.52z"/><path d="m89.35 223.72h3.52v14.88h-3.52z"/><path d="m89.35 235.07h14.88v3.52h-14.88z"/><path d="m89.35 223.72h7.44v3.52h-7.44z"/><path d="m96.79 228.93h7.44v3.52h-7.44z"/><path d="m95.61 223.72h3.52v8.73h-3.52z"/><path d="m100.7 223.72h3.52v8.73h-3.52z"/><path d="m100.7 235.07h3.52v6.15h-3.52z"/><path d="m89.35 206.22h3.52v14.88h-3.52z"/><path d="m89.35 217.57h14.88v3.52h-14.88z"/><path d="m89.35 206.22h7.44v3.52h-7.44z"/><path d="m96.79 211.43h7.44v3.52h-7.44z"/><path d="m95.61 206.22h3.52v8.73h-3.52z"/><path d="m100.7 206.22h3.52v8.73h-3.52z"/><path d="m100.7 217.57h3.52v6.15h-3.52z"/><path d="m89.35 188.72h3.52v14.88h-3.52z"/><path d="m89.35 200.07h14.88v3.52h-14.88z"/><path d="m89.35 188.72h7.44v3.52h-7.44z"/><path d="m96.79 193.93h7.44v3.52h-7.44z"/><path d="m95.61 188.72h3.52v8.73h-3.52z"/><path d="m100.7 188.72h3.52v8.73h-3.52z"/><path d="m100.7 200.07h3.52v6.15h-3.52z"/><path d="m89.35 171.22h3.52v14.88h-3.52z"/><path d="m89.35 182.58h14.88v3.52h-14.88z"/><path d="m89.35 171.22h7.44v3.52h-7.44z"/><path d="m96.79 176.43h7.44v3.52h-7.44z"/><path d="m95.61 171.22h3.52v8.73h-3.52z"/><path d="m100.7 171.22h3.52v8.73h-3.52z"/><path d="m100.7 182.58h3.52v6.15h-3.52z"/><path d="m89.35 153.72h3.52v14.88h-3.52z"/><path d="m89.35 165.08h14.88v3.52h-14.88z"/><path d="m89.35 153.72h7.44v3.52h-7.44z"/><path d="m96.79 158.93h7.44v3.52h-7.44z"/><path d="m95.61 153.72h3.52v8.73h-3.52z"/><path d="m100.7 153.72h3.52v8.73h-3.52z"/><path d="m100.7 165.08h3.52v6.15h-3.52z"/><path d="m89.35 136.23h3.52v14.88h-3.52z"/><path d="m89.35 147.58h14.88v3.52h-14.88z"/><path d="m89.35 136.23h7.44v3.52h-7.44z"/><path d="m96.79 141.43h7.44v3.52h-7.44z"/><path d="m95.61 136.23h3.52v8.73h-3.52z"/><path d="m100.7 136.23h3.52v8.73h-3.52z"/><path d="m100.7 147.58h3.52v6.15h-3.52z"/><path d="m89.35 118.73h3.52v14.88h-3.52z"/><path d="m89.35 130.08h14.88v3.52h-14.88z"/><path d="m89.35 118.73h7.44v3.52h-7.44z"/><path d="m96.79 123.94h7.44v3.52h-7.44z"/><path d="m95.61 118.73h3.52v8.73h-3.52z"/><path d="m100.7 118.73h3.52v8.73h-3.52z"/><path d="m100.7 130.08h3.52v6.15h-3.52z"/><path d="m89.35 101.23h3.52v14.88h-3.52z"/><path d="m89.35 112.58h14.88v3.52h-14.88z"/><path d="m89.35 101.23h7.44v3.52h-7.44z"/><path d="m96.79 106.44h7.44v3.52h-7.44z"/><path d="m95.61 101.23h3.52v8.73h-3.52z"/><path d="m100.7 101.23h3.52v8.73h-3.52z"/><path d="m100.7 112.58h3.52v6.15h-3.52z"/><path d="m89.35 83.73h3.52v14.88h-3.52z"/><path d="m89.35 95.08h14.88v3.52h-14.88z"/><path d="m89.35 83.73h7.44v3.52h-7.44z"/><path d="m96.79 88.94h7.44v3.52h-7.44z"/><path d="m95.61 83.73h3.52v8.73h-3.52z"/><path d="m100.7 83.73h3.52v8.73h-3.52z"/><path d="m100.7 95.08h3.52v6.15h-3.52z"/><path d="m89.35 66.23h3.52v14.88h-3.52z"/><path d="m89.35 77.59h14.88v3.52h-14.88z"/><path d="m89.35 66.23h7.44v3.52h-7.44z"/><path d="m96.79 71.44h7.44v3.52h-7.44z"/><path d="m95.61 66.23h3.52v8.73h-3.52z"/><path d="m100.7 66.23h3.52v8.73h-3.52z"/><path d="m100.7 77.59h3.52v6.15h-3.52z"/><path d="m89.35 48.73h3.52v14.88h-3.52z"/><path d="m89.35 60.09h14.88v3.52h-14.88z"/><path d="m89.35 48.73h7.44v3.52h-7.44z"/><path d="m96.79 53.94h7.44v3.52h-7.44z"/><path d="m95.61 48.73h3.52v8.73h-3.52z"/><path d="m100.7 48.73h3.52v8.73h-3.52z"/><path d="m100.7 60.09h3.52v6.15h-3.52z"/><path d="m108.16 32.55h14.88v3.52h-14.88z"/><path d="m108.16 32.55h3.52v14.88h-3.52z"/><path d="m119.51 32.55h3.52v7.44h-3.52z"/><path d="m114.3 39.98h3.52v7.44h-3.52z"/><path d="m114.3 38.81h8.73v3.52h-8.73z"/><path d="m114.3 43.9h8.73v3.52h-8.73z"/><path d="m105.53 43.9h6.15v3.52h-6.15z"/><path d="m125.66 32.55h14.88v3.52h-14.88z"/><path d="m125.66 32.55h3.52v14.88h-3.52z"/><path d="m137.01 32.55h3.52v7.44h-3.52z"/><path d="m131.8 39.98h3.52v7.44h-3.52z"/><path d="m131.8 38.81h8.73v3.52h-8.73z"/><path d="m131.8 43.9h8.73v3.52h-8.73z"/><path d="m123.03 43.9h6.15v3.52h-6.15z"/><path d="m143.15 32.55h14.88v3.52h-14.88z"/><path d="m143.15 32.55h3.52v14.88h-3.52z"/><path d="m154.51 32.55h3.52v7.44h-3.52z"/><path d="m149.3 39.98h3.52v7.44h-3.52z"/><path d="m149.3 38.81h8.73v3.52h-8.73z"/><path d="m149.3 43.9h8.73v3.52h-8.73z"/><path d="m140.53 43.9h6.15v3.52h-6.15z"/><path d="m160.65 32.55h14.88v3.52h-14.88z"/><path d="m160.65 32.55h3.52v14.88h-3.52z"/><path d="m172 32.55h3.52v7.44h-3.52z"/><path d="m166.8 39.98h3.52v7.44h-3.52z"/><path d="m166.8 38.81h8.73v3.52h-8.73z"/><path d="m166.8 43.9h8.73v3.52h-8.73z"/><path d="m158.03 43.9h6.15v3.52h-6.15z"/><path d="m178.15 32.55h14.88v3.52h-14.88z"/><path d="m178.15 32.55h3.52v14.88h-3.52z"/><path d="m189.5 32.55h3.52v7.44h-3.52z"/><path d="m184.3 39.98h3.52v7.44h-3.52z"/><path d="m184.3 38.81h8.73v3.52h-8.73z"/><path d="m184.3 43.9h8.73v3.52h-8.73z"/><path d="m175.53 43.9h6.15v3.52h-6.15z"/><path d="m195.65 32.55h14.88v3.52h-14.88z"/><path d="m195.65 32.55h3.52v14.88h-3.52z"/><path d="m207 32.55h3.52v7.44h-3.52z"/><path d="m201.79 39.98h3.52v7.44h-3.52z"/><path d="m201.79 38.81h8.73v3.52h-8.73z"/><path d="m201.79 43.9h8.73v3.52h-8.73z"/><path d="m193.03 43.9h6.15v3.52h-6.15z"/><path d="m213.15 32.55h14.88v3.52h-14.88z"/><path d="m213.15 32.55h3.52v14.88h-3.52z"/><path d="m224.5 32.55h3.52v7.44h-3.52z"/><path d="m219.29 39.98h3.52v7.44h-3.52z"/><path d="m219.29 38.81h8.73v3.52h-8.73z"/><path d="m219.29 43.9h8.73v3.52h-8.73z"/><path d="m210.53 43.9h6.15v3.52h-6.15z"/><path d="m230.65 32.55h14.88v3.52h-14.88z"/><path d="m230.65 32.55h3.52v14.88h-3.52z"/><path d="m242 32.55h3.52v7.44h-3.52z"/><path d="m236.79 39.98h3.52v7.44h-3.52z"/><path d="m236.79 38.81h8.73v3.52h-8.73z"/><path d="m236.79 43.9h8.73v3.52h-8.73z"/><path d="m228.02 43.9h6.15v3.52h-6.15z"/><path d="m248.14 32.55h14.88v3.52h-14.88z"/><path d="m248.14 32.55h3.52v14.88h-3.52z"/><path d="m259.5 32.55h3.52v7.44h-3.52z"/><path d="m254.29 39.98h3.52v7.44h-3.52z"/><path d="m254.29 38.81h8.73v3.52h-8.73z"/><path d="m254.29 43.9h8.73v3.52h-8.73z"/><path d="m245.52 43.9h6.15v3.52h-6.15z"/><path d="m265.64 32.55h14.88v3.52h-14.88z"/><path d="m265.64 32.55h3.52v14.88h-3.52z"/><path d="m277 32.55h3.52v7.44h-3.52z"/><path d="m271.79 39.98h3.52v7.44h-3.52z"/><path d="m271.79 38.81h8.73v3.52h-8.73z"/><path d="m271.79 43.9h8.73v3.52h-8.73z"/><path d="m263.02 43.9h6.15v3.52h-6.15z"/><path d="m283.14 32.55h14.88v3.52h-14.88z"/><path d="m283.14 32.55h3.52v14.88h-3.52z"/><path d="m294.49 32.55h3.52v7.44h-3.52z"/><path d="m289.29 39.98h3.52v7.44h-3.52z"/><path d="m289.29 38.81h8.73v3.52h-8.73z"/><path d="m289.29 43.9h8.73v3.52h-8.73z"/><path d="m280.52 43.9h6.15v3.52h-6.15z"/><path d="m300.64 32.55h14.88v3.52h-14.88z"/><path d="m300.64 32.55h3.52v14.88h-3.52z"/><path d="m311.99 32.55h3.52v7.44h-3.52z"/><path d="m306.78 39.98h3.52v7.44h-3.52z"/><path d="m306.78 38.81h8.73v3.52h-8.73z"/><path d="m306.78 43.9h8.73v3.52h-8.73z"/><path d="m298.02 43.9h6.15v3.52h-6.15z"/><path d="m318.14 32.55h14.88v3.52h-14.88z"/><path d="m318.14 32.55h3.52v14.88h-3.52z"/><path d="m329.49 32.55h3.52v7.44h-3.52z"/><path d="m324.28 39.98h3.52v7.44h-3.52z"/><path d="m324.28 38.81h8.73v3.52h-8.73z"/><path d="m324.28 43.9h8.73v3.52h-8.73z"/><path d="m315.52 43.9h6.15v3.52h-6.15z"/><g clip-path="url(#c)"><path d="m345.68 401.32h3.52v14.88h-3.52z"/><path d="m334.33 401.32h14.88v3.52h-14.88z"/><path d="m341.76 412.68h7.44v3.52h-7.44z"/><path d="m334.33 407.47h7.44v3.52h-7.44z"/><path d="m339.42 407.47h3.52v8.73h-3.52z"/><path d="m334.33 407.47h3.52v8.73h-3.52z"/><path d="m334.33 398.7h3.52v6.15h-3.52z"/></g><g clip-path="url(#d)"><path d="m333.01 411.37h14.88v3.52h-14.88z"/><path d="m344.37 400.01h3.52v14.88h-3.52z"/><path d="m333.01 407.45h3.52v7.44h-3.52z"/><path d="m338.22 400.01h3.52v7.44h-3.52z"/><path d="m333.01 405.1h8.73v3.52h-8.73z"/><path d="m333.01 400.01h8.73v3.52h-8.73z"/><path d="m344.37 400.01h6.15v3.52h-6.15z"/></g><g clip-path="url(#e)"><path d="m88.04 411.37h14.88v3.52h-14.88z"/><path d="m99.39 400.01h3.52v14.88h-3.52z"/><path d="m88.04 407.45h3.52v7.44h-3.52z"/><path d="m93.24 400.01h3.52v7.44h-3.52z"/><path d="m88.04 405.1h8.73v3.52h-8.73z"/><path d="m88.04 400.01h8.73v3.52h-8.73z"/><path d="m99.39 400.01h6.15v3.52h-6.15z"/></g><g clip-path="url(#f)"><path d="m89.35 398.7h3.52v14.88h-3.52z"/><path d="m89.35 410.06h14.88v3.52h-14.88z"/><path d="m89.35 398.7h7.44v3.52h-7.44z"/><path d="m96.79 403.91h7.44v3.52h-7.44z"/><path d="m95.61 398.7h3.52v8.73h-3.52z"/><path d="m100.7 398.7h3.52v8.73h-3.52z"/><path d="m100.7 410.06h3.52v6.15h-3.52z"/></g><g clip-path="url(#g)"><path d="m89.35 31.24h3.52v14.88h-3.52z"/><path d="m89.35 42.59h14.88v3.52h-14.88z"/><path d="m89.35 31.24h7.44v3.52h-7.44z"/><path d="m96.79 36.44h7.44v3.52h-7.44z"/><path d="m95.61 31.24h3.52v8.73h-3.52z"/><path d="m100.7 31.24h3.52v8.73h-3.52z"/><path d="m100.7 42.59h3.52v6.15h-3.52z"/></g><g clip-path="url(#h)"><path d="m90.66 32.55h14.88v3.52h-14.88z"/><path d="m90.66 32.55h3.52v14.88h-3.52z"/><path d="m102.01 32.55h3.52v7.44h-3.52z"/><path d="m96.8 39.98h3.52v7.44h-3.52z"/><path d="m96.8 38.81h8.73v3.52h-8.73z"/><path d="m96.8 43.9h8.73v3.52h-8.73z"/><path d="m88.04 43.9h6.15v3.52h-6.15z"/></g><g clip-path="url(#i)"><path d="m335.64 32.55h14.88v3.52h-14.88z"/><path d="m335.64 32.55h3.52v14.88h-3.52z"/><path d="m346.99 32.55h3.52v7.44h-3.52z"/><path d="m341.78 39.98h3.52v7.44h-3.52z"/><path d="m341.78 38.81h8.73v3.52h-8.73z"/><path d="m341.78 43.9h8.73v3.52h-8.73z"/><path d="m333.01 43.9h6.15v3.52h-6.15z"/></g><g clip-path="url(#j)"><path d="m345.68 33.86h3.52v14.88h-3.52z"/><path d="m334.33 33.86h14.88v3.52h-14.88z"/><path d="m341.76 45.21h7.44v3.52h-7.44z"/><path d="m334.33 40h7.44v3.52h-7.44z"/><path d="m339.42 40h3.52v8.73h-3.52z"/><path d="m334.33 40h3.52v8.73h-3.52z"/><path d="m334.33 31.24h3.52v6.15h-3.52z"/></g></g><rect fill="#5c4b43" height="49.34" rx="23.58" width="311.12" x="62.54" y="2.5"/><path d="m350.08 5a21.1 21.1 0 0 1 21.08 21.08v2.19a21.1 21.1 0 0 1 -21.08 21.08h-264a21.1 21.1 0 0 1 -21.08-21.08v-2.19a21.1 21.1 0 0 1 21.12-21.08h264m0-5h-264a26.15 26.15 0 0 0 -26.12 26.08v2.19a26.15 26.15 0 0 0 26.12 26.07h264a26.15 26.15 0 0 0 26.08-26.08v-2.18a26.15 26.15 0 0 0 -26.12-26.08z" fill="#aa9c94"/><path d="m87.39 39.39a12.22 12.22 0 1 1 12.22-12.22 12.23 12.23 0 0 1 -12.22 12.22z" fill="#5c4b43"/><path d="m87.39 17.46a9.72 9.72 0 1 1 -9.72 9.72 9.73 9.73 0 0 1 9.72-9.72m0-5a14.72 14.72 0 1 0 14.72 14.72 14.72 14.72 0 0 0 -14.72-14.72z" fill="#aa9c94"/><path d="m348.83 39.39a12.22 12.22 0 1 1 12.17-12.22 12.23 12.23 0 0 1 -12.17 12.22z" fill="#5c4b43"/><path d="m348.83 17.46a9.72 9.72 0 1 1 -9.72 9.72 9.73 9.73 0 0 1 9.72-9.72m0-5a14.72 14.72 0 1 0 14.72 14.72 14.72 14.72 0 0 0 -14.72-14.72z" fill="#aa9c94"/><rect fill="#5c4b43" height="49.34" rx="23.58" width="311.12" x="62.54" y="395.17"/><path d="m350.08 397.67a21.1 21.1 0 0 1 21.08 21.08v2.19a21.1 21.1 0 0 1 -21.08 21.06h-264a21.1 21.1 0 0 1 -21.08-21.07v-2.19a21.1 21.1 0 0 1 21.08-21.08h264m0-5h-264a26.15 26.15 0 0 0 -26.08 26.08v2.19a26.15 26.15 0 0 0 26.12 26.07h264a26.15 26.15 0 0 0 26.08-26.08v-2.19a26.15 26.15 0 0 0 -26.08-26.08z" fill="#aa9c94"/><path d="m87.39 432.05a12.22 12.22 0 1 1 12.22-12.22 12.23 12.23 0 0 1 -12.22 12.22z" fill="#5c4b43"/><path d="m87.39 410.12a9.72 9.72 0 1 1 -9.72 9.72 9.73 9.73 0 0 1 9.72-9.72m0-5a14.72 14.72 0 1 0 14.72 14.72 14.72 14.72 0 0 0 -14.72-14.72z" fill="#aa9c94"/><path d="m348.83 432.05a12.22 12.22 0 1 1 12.17-12.21 12.23 12.23 0 0 1 -12.17 12.21z" fill="#5c4b43"/><path d="m348.83 410.12a9.72 9.72 0 1 1 -9.72 9.72 9.73 9.73 0 0 1 9.72-9.72m0-5a14.72 14.72 0 1 0 14.72 14.72 14.72 14.72 0 0 0 -14.72-14.72z" fill="#aa9c94"/><path d="m218.1 269.69a99.63 99.63 0 1 1 99.63-99.63 99.74 99.74 0 0 1 -99.63 99.63z" fill="#5c4b43"/><path d="m218.1 72.93a97.13 97.13 0 1 1 -97.1 97.13 97.24 97.24 0 0 1 97.1-97.13m0-5a102.13 102.13 0 1 0 102.13 102.13 102.13 102.13 0 0 0 -102.13-102.13z" fill="#aa9c94"/><g clip-path="url(#k)"><path d="m173.43 150.88h95.49v62.49h-95.49z" fill="#565656"/><path d="m160.99 213.56h115.45v4.1h-115.45z" fill="#dcd7cd"/><path d="m159.44 218.3h118.56v4.1h-118.56z" fill="#dcd7cd"/><path d="m158.92 217.66h119.6v.64h-119.6z" fill="#999"/><path d="m157.93 223.03h121.57v4.1h-121.57z" fill="#dcd7cd"/><path d="m157.4 222.39h122.64v.64h-122.64z" fill="#999"/><path d="m159.02 147.43h118.9v4.22h-118.9z" fill="#dcd7cd"/><path d="m159.02 145.54h118.9v1.24h-118.9z" fill="#b3b3b3"/><path d="m158.5 146.78h119.95v.66h-119.95z" fill="#ccc"/><path d="m160.38 141 58.33-17.93 57.88 17.93z" fill="#dcd7cd"/><path d="m218.71 123.6 54.58 16.9h-109.58zm0-1-61.65 18.9h122.83l-61.19-18.95z" fill="#999"/><path d="m167.27 144.66 51.67-15.88 51.27 15.88z" fill="#efeae6"/><path d="m218.94 130.35 41.36 12.81h-83l41.68-12.81m0-3.14-61.65 19h122.8l-61.19-19z" fill="#808080"/><path d="m158.5 144.88h119.95v.66h-119.95z" fill="#ccc"/><path d="m157.06 140.7h122.84v.66h-122.84z" fill="#999"/><path d="m157.55 141.36 1.47 3.52h118.91l1.42-3.52z" fill="#dcd7cd"/><path d="m154.67 137.62 2.39 3.08h2.59l59.06-18.15 58.61 18.15h2.57l2.69-3.16-63.87-20.24z" fill="#efeae6" stroke="#999" stroke-miterlimit="10" stroke-width="3"/><path d="m258.66 154.66h13.85v54.74h-13.85z" fill="#d2d1cd"/><path d="m262.19 154.66h6.79v54.74h-6.79z" fill="#dcd7cd"/><rect fill="#e8e3e2" height="51.28" rx=".8" width="1.6" x="259.63" y="156.12"/><rect fill="#efeae6" height="51.28" rx=".8" width="1.6" x="263.33" y="156.12"/><rect fill="#efeae6" height="51.28" rx=".8" width="1.6" x="266.15" y="156.12"/><rect fill="#e8e3e2" height="51.28" rx=".8" width="1.6" x="269.95" y="156.12"/><path d="m258.66 209.4-1.41.84h16.67l-1.41-.84z" fill="#ccc"/><path d="m257.25 210.24h16.67v1.48h-16.67z" fill="#999"/><path d="m256.61 211.72h17.95v1.9h-17.95z" fill="#808080"/><path d="m255.34 151.65h20.48v3.01h-20.48z" fill="#b3b3b3"/><circle cx="257.92" cy="154.58" fill="#b3b3b3" r="2.58"/><circle cx="257.92" cy="154.58" fill="#999" r="1.83"/><circle cx="273.24" cy="154.58" fill="#b3b3b3" r="2.58"/><circle cx="257.92" cy="154.58" fill="#b3b3b3" r=".97"/><circle cx="273.24" cy="154.58" fill="#999" r="1.83"/><circle cx="273.24" cy="154.58" fill="#b3b3b3" r=".97"/><path d="m228.55 154.66h13.85v54.74h-13.85z" fill="#d2d1cd"/><path d="m232.08 154.66h6.79v54.74h-6.79z" fill="#dcd7cd"/><rect fill="#e8e3e2" height="51.28" rx=".8" width="1.6" x="229.52" y="156.12"/><rect fill="#efeae6" height="51.28" rx=".8" width="1.6" x="233.22" y="156.12"/><rect fill="#efeae6" height="51.28" rx=".8" width="1.6" x="236.04" y="156.12"/><rect fill="#e8e3e2" height="51.28" rx=".8" width="1.6" x="239.84" y="156.12"/><path d="m228.55 209.4-1.41.84h16.68l-1.41-.84z" fill="#ccc"/><path d="m227.14 210.24h16.67v1.48h-16.67z" fill="#999"/><path d="m226.51 211.72h17.95v1.9h-17.95z" fill="#808080"/><path d="m225.24 151.65h20.48v3.01h-20.48z" fill="#b3b3b3"/><circle cx="227.82" cy="154.58" fill="#b3b3b3" r="2.58"/><circle cx="227.82" cy="154.58" fill="#999" r="1.83"/><circle cx="243.14" cy="154.58" fill="#b3b3b3" r="2.58"/><circle cx="227.82" cy="154.58" fill="#b3b3b3" r=".97"/><circle cx="243.14" cy="154.58" fill="#999" r="1.83"/><circle cx="243.14" cy="154.58" fill="#b3b3b3" r=".97"/><path d="m198.45 154.66h13.85v54.74h-13.85z" fill="#d2d1cd"/><path d="m201.98 154.66h6.79v54.74h-6.79z" fill="#dcd7cd"/><rect fill="#e8e3e2" height="51.28" rx=".8" width="1.6" x="199.42" y="156.12"/><rect fill="#efeae6" height="51.28" rx=".8" width="1.6" x="203.12" y="156.12"/><rect fill="#efeae6" height="51.28" rx=".8" width="1.6" x="205.94" y="156.12"/><rect fill="#e8e3e2" height="51.28" rx=".8" width="1.6" x="209.74" y="156.12"/><path d="m198.45 209.4-1.41.84h16.67l-1.41-.84z" fill="#ccc"/><path d="m197.04 210.24h16.67v1.48h-16.67z" fill="#999"/><path d="m196.4 211.72h17.95v1.9h-17.95z" fill="#808080"/><path d="m195.13 151.65h20.48v3.01h-20.48z" fill="#b3b3b3"/><circle cx="197.72" cy="154.58" fill="#b3b3b3" r="2.58"/><circle cx="197.72" cy="154.58" fill="#999" r="1.83"/><circle cx="213.04" cy="154.58" fill="#b3b3b3" r="2.58"/><circle cx="197.72" cy="154.58" fill="#b3b3b3" r=".97"/><circle cx="213.04" cy="154.58" fill="#999" r="1.83"/><circle cx="213.04" cy="154.58" fill="#b3b3b3" r=".97"/><path d="m168.34 154.66h13.85v54.74h-13.85z" fill="#d2d1cd"/><path d="m171.87 154.66h6.79v54.74h-6.79z" fill="#dcd7cd"/><rect fill="#e8e3e2" height="51.28" rx=".8" width="1.6" x="169.31" y="156.12"/><rect fill="#efeae6" height="51.28" rx=".8" width="1.6" x="173.01" y="156.12"/><rect fill="#efeae6" height="51.28" rx=".8" width="1.6" x="175.83" y="156.12"/><rect fill="#e8e3e2" height="51.28" rx=".8" width="1.6" x="179.63" y="156.12"/><path d="m168.34 209.4-1.41.84h16.68l-1.41-.84z" fill="#ccc"/><path d="m166.93 210.24h16.67v1.48h-16.67z" fill="#999"/><path d="m166.3 211.72h17.95v1.9h-17.95z" fill="#808080"/><path d="m165.03 151.65h20.48v3.01h-20.48z" fill="#b3b3b3"/><circle cx="167.61" cy="154.58" fill="#b3b3b3" r="2.58"/><circle cx="167.61" cy="154.58" fill="#999" r="1.83"/><circle cx="182.93" cy="154.58" fill="#b3b3b3" r="2.58"/><circle cx="167.61" cy="154.58" fill="#b3b3b3" r=".97"/><circle cx="182.93" cy="154.58" fill="#999" r="1.83"/><circle cx="182.93" cy="154.58" fill="#b3b3b3" r=".97"/></g></svg>